<?xml version="1.0" encoding="utf-8" standalone="no"?>
<!DOCTYPE svg PUBLIC "-//W3C//DTD SVG 1.1//EN"
  "http://www.w3.org/Graphics/SVG/1.1/DTD/svg11.dtd">
<svg xmlns:xlink="http://www.w3.org/1999/xlink" width="351.885937pt" height="223.158281pt" viewBox="0 0 351.885937 223.158281" xmlns="http://www.w3.org/2000/svg" version="1.1">
 <metadata>
  <rdf:RDF xmlns:dc="http://purl.org/dc/elements/1.1/" xmlns:cc="http://creativecommons.org/ns#" xmlns:rdf="http://www.w3.org/1999/02/22-rdf-syntax-ns#">
   <cc:Work>
    <dc:type rdf:resource="http://purl.org/dc/dcmitype/StillImage"/>
    <dc:date>2026-07-05T02:24:30.738959</dc:date>
    <dc:format>image/svg+xml</dc:format>
    <dc:creator>
     <cc:Agent>
      <dc:title>Matplotlib v3.11.0, https://matplotlib.org/</dc:title>
     </cc:Agent>
    </dc:creator>
   </cc:Work>
  </rdf:RDF>
 </metadata>
 <defs>
  <style type="text/css">*{stroke-linejoin: round; stroke-linecap: butt}</style>
 </defs>
 <g id="figure_1">
  <g id="patch_1">
   <path d="M 0 223.158281 
L 351.885937 223.158281 
L 351.885937 0 
L 0 0 
z
" style="fill: #ffffff"/>
  </g>
  <g id="axes_1">
   <g id="patch_2">
    <path d="M 47.288281 184.958281 
L 344.685937 184.958281 
L 344.685937 23.558281 
L 47.288281 23.558281 
z
" style="fill: #ffffff"/>
   </g>
   <g id="FillBetweenPolyCollection_1">
    <defs>
     <path id="m9d10f2a834" d="M 60.806357 -45.536364 
L 60.806357 -192.263636 
L 61.483954 -50.143693 
L 62.161552 -48.799141 
L 62.83915 -48.20399 
L 63.516748 -47.849613 
L 64.194345 -47.608072 
L 64.871943 -47.430002 
L 65.549541 -47.291787 
L 66.227139 -47.180525 
L 66.904736 -47.08849 
L 67.582334 -47.01074 
L 68.259932 -46.943943 
L 68.93753 -46.885763 
L 69.615127 -46.834507 
L 70.292725 -46.788913 
L 70.970323 -46.748019 
L 71.647921 -46.711077 
L 72.325518 -46.677495 
L 73.003116 -46.6468 
L 73.680714 -46.618606 
L 74.358312 -46.592595 
L 75.035909 -46.568504 
L 75.713507 -46.546111 
L 76.391105 -46.525229 
L 77.068703 -46.5057 
L 77.7463 -46.487385 
L 78.423898 -46.470166 
L 79.101496 -46.453942 
L 79.779094 -46.438622 
L 80.456692 -46.424127 
L 81.134289 -46.410388 
L 81.811887 -46.397343 
L 82.489485 -46.384938 
L 83.167083 -46.373123 
L 83.84468 -46.361855 
L 84.522278 -46.351094 
L 85.199876 -46.340804 
L 85.877474 -46.330954 
L 86.555071 -46.321515 
L 87.232669 -46.31246 
L 87.910267 -46.303764 
L 88.587865 -46.295406 
L 89.265462 -46.287365 
L 89.94306 -46.279623 
L 90.620658 -46.272162 
L 91.298256 -46.264968 
L 91.975853 -46.258025 
L 92.653451 -46.25132 
L 93.331049 -46.244841 
L 94.008647 -46.238575 
L 94.686244 -46.232513 
L 95.363842 -46.226644 
L 96.04144 -46.220959 
L 96.719038 -46.215449 
L 97.396635 -46.210106 
L 98.074233 -46.204923 
L 98.751831 -46.199892 
L 99.429429 -46.195007 
L 100.107027 -46.190261 
L 100.784624 -46.185649 
L 101.462222 -46.181164 
L 102.13982 -46.176802 
L 102.817418 -46.172559 
L 103.495015 -46.168428 
L 104.172613 -46.164406 
L 104.850211 -46.160488 
L 105.527809 -46.156671 
L 106.205406 -46.152951 
L 106.883004 -46.149325 
L 107.560602 -46.145788 
L 108.2382 -46.142338 
L 108.915797 -46.138972 
L 109.593395 -46.135687 
L 110.270993 -46.13248 
L 110.948591 -46.129349 
L 111.626188 -46.126291 
L 112.303786 -46.123303 
L 112.981384 -46.120384 
L 113.658982 -46.117532 
L 114.336579 -46.114743 
L 115.014177 -46.112017 
L 115.691775 -46.109352 
L 116.369373 -46.106745 
L 117.04697 -46.104195 
L 117.724568 -46.1017 
L 118.402166 -46.099259 
L 119.079764 -46.09687 
L 119.757362 -46.094532 
L 120.434959 -46.092243 
L 121.112557 -46.090002 
L 121.790155 -46.087808 
L 122.467753 -46.085659 
L 123.14535 -46.083555 
L 123.822948 -46.081493 
L 124.500546 -46.079474 
L 125.178144 -46.077496 
L 125.855741 -46.075558 
L 126.533339 -46.073659 
L 127.210937 -46.071798 
L 127.888535 -46.069974 
L 128.566132 -46.068186 
L 129.24373 -46.066434 
L 129.921328 -46.064716 
L 130.598926 -46.063033 
L 131.276523 -46.061382 
L 131.954121 -46.059764 
L 132.631719 -46.058177 
L 133.309317 -46.056622 
L 133.986914 -46.055097 
L 134.664512 -46.053601 
L 135.34211 -46.052135 
L 136.019708 -46.050697 
L 136.697305 -46.049287 
L 137.374903 -46.047904 
L 138.052501 -46.046548 
L 138.730099 -46.045219 
L 139.407697 -46.043915 
L 140.085294 -46.042637 
L 140.762892 -46.041383 
L 141.44049 -46.040154 
L 142.118088 -46.038949 
L 142.795685 -46.037767 
L 143.473283 -46.036609 
L 144.150881 -46.035473 
L 144.828479 -46.034359 
L 145.506076 -46.033267 
L 146.183674 -46.032197 
L 146.861272 -46.031148 
L 147.53887 -46.03012 
L 148.216467 -46.029113 
L 148.894065 -46.028125 
L 149.571663 -46.027158 
L 150.249261 -46.02621 
L 150.926858 -46.025282 
L 151.604456 -46.024372 
L 152.282054 -46.023481 
L 152.959652 -46.022609 
L 153.637249 -46.021755 
L 154.314847 -46.020918 
L 154.992445 -46.0201 
L 155.670043 -46.019299 
L 156.34764 -46.018515 
L 157.025238 -46.017748 
L 157.702836 -46.016998 
L 158.380434 -46.016264 
L 159.058032 -46.015547 
L 159.735629 -46.014846 
L 160.413227 -46.014161 
L 161.090825 -46.013492 
L 161.768423 -46.012838 
L 162.44602 -46.0122 
L 163.123618 -46.011577 
L 163.801216 -46.010969 
L 164.478814 -46.010376 
L 165.156411 -46.009798 
L 165.834009 -46.009234 
L 166.511607 -46.008685 
L 167.189205 -46.00815 
L 167.866802 -46.007629 
L 168.5444 -46.007123 
L 169.221998 -46.00663 
L 169.899596 -46.006151 
L 170.577193 -46.005686 
L 171.254791 -46.005234 
L 171.932389 -46.004796 
L 172.609987 -46.004371 
L 173.287584 -46.00396 
L 173.965182 -46.003561 
L 174.64278 -46.003176 
L 175.320378 -46.002803 
L 175.997975 -46.002444 
L 176.675573 -46.002097 
L 177.353171 -46.001763 
L 178.030769 -46.001441 
L 178.708367 -46.001132 
L 179.385964 -46.000836 
L 180.063562 -46.000552 
L 180.74116 -46.00028 
L 181.418758 -46.000021 
L 182.096355 -45.999773 
L 182.773953 -45.999538 
L 183.451551 -45.999315 
L 184.129149 -45.999104 
L 184.806746 -45.998905 
L 185.484344 -45.998718 
L 186.161942 -45.998543 
L 186.83954 -45.998379 
L 187.517137 -45.998228 
L 188.194735 -45.998088 
L 188.872333 -45.99796 
L 189.549931 -45.997844 
L 190.227528 -45.997739 
L 190.905126 -45.997646 
L 191.582724 -45.997565 
L 192.260322 -45.997495 
L 192.937919 -45.997438 
L 193.615517 -45.997391 
L 194.293115 -45.997356 
L 194.970713 -45.997333 
L 195.64831 -45.997322 
L 196.325908 -45.997322 
L 197.003506 -45.997333 
L 197.681104 -45.997356 
L 198.358702 -45.997391 
L 199.036299 -45.997438 
L 199.713897 -45.997495 
L 200.391495 -45.997565 
L 201.069093 -45.997646 
L 201.74669 -45.997739 
L 202.424288 -45.997844 
L 203.101886 -45.99796 
L 203.779484 -45.998088 
L 204.457081 -45.998228 
L 205.134679 -45.998379 
L 205.812277 -45.998543 
L 206.489875 -45.998718 
L 207.167472 -45.998905 
L 207.84507 -45.999104 
L 208.522668 -45.999315 
L 209.200266 -45.999538 
L 209.877863 -45.999773 
L 210.555461 -46.000021 
L 211.233059 -46.00028 
L 211.910657 -46.000552 
L 212.588254 -46.000836 
L 213.265852 -46.001132 
L 213.94345 -46.001441 
L 214.621048 -46.001763 
L 215.298645 -46.002097 
L 215.976243 -46.002444 
L 216.653841 -46.002803 
L 217.331439 -46.003176 
L 218.009037 -46.003561 
L 218.686634 -46.00396 
L 219.364232 -46.004371 
L 220.04183 -46.004796 
L 220.719428 -46.005234 
L 221.397025 -46.005686 
L 222.074623 -46.006151 
L 222.752221 -46.00663 
L 223.429819 -46.007123 
L 224.107416 -46.007629 
L 224.785014 -46.00815 
L 225.462612 -46.008685 
L 226.14021 -46.009234 
L 226.817807 -46.009798 
L 227.495405 -46.010376 
L 228.173003 -46.010969 
L 228.850601 -46.011577 
L 229.528198 -46.0122 
L 230.205796 -46.012838 
L 230.883394 -46.013492 
L 231.560992 -46.014161 
L 232.238589 -46.014846 
L 232.916187 -46.015547 
L 233.593785 -46.016264 
L 234.271383 -46.016998 
L 234.94898 -46.017748 
L 235.626578 -46.018515 
L 236.304176 -46.019299 
L 236.981774 -46.0201 
L 237.659372 -46.020918 
L 238.336969 -46.021755 
L 239.014567 -46.022609 
L 239.692165 -46.023481 
L 240.369763 -46.024372 
L 241.04736 -46.025282 
L 241.724958 -46.02621 
L 242.402556 -46.027158 
L 243.080154 -46.028125 
L 243.757751 -46.029113 
L 244.435349 -46.03012 
L 245.112947 -46.031148 
L 245.790545 -46.032197 
L 246.468142 -46.033267 
L 247.14574 -46.034359 
L 247.823338 -46.035473 
L 248.500936 -46.036609 
L 249.178533 -46.037767 
L 249.856131 -46.038949 
L 250.533729 -46.040154 
L 251.211327 -46.041383 
L 251.888924 -46.042637 
L 252.566522 -46.043915 
L 253.24412 -46.045219 
L 253.921718 -46.046548 
L 254.599315 -46.047904 
L 255.276913 -46.049287 
L 255.954511 -46.050697 
L 256.632109 -46.052135 
L 257.309707 -46.053601 
L 257.987304 -46.055097 
L 258.664902 -46.056622 
L 259.3425 -46.058177 
L 260.020098 -46.059764 
L 260.697695 -46.061382 
L 261.375293 -46.063033 
L 262.052891 -46.064716 
L 262.730489 -46.066434 
L 263.408086 -46.068186 
L 264.085684 -46.069974 
L 264.763282 -46.071798 
L 265.44088 -46.073659 
L 266.118477 -46.075558 
L 266.796075 -46.077496 
L 267.473673 -46.079474 
L 268.151271 -46.081493 
L 268.828868 -46.083555 
L 269.506466 -46.085659 
L 270.184064 -46.087808 
L 270.861662 -46.090002 
L 271.539259 -46.092243 
L 272.216857 -46.094532 
L 272.894455 -46.09687 
L 273.572053 -46.099259 
L 274.24965 -46.1017 
L 274.927248 -46.104195 
L 275.604846 -46.106745 
L 276.282444 -46.109352 
L 276.960042 -46.112017 
L 277.637639 -46.114743 
L 278.315237 -46.117532 
L 278.992835 -46.120384 
L 279.670433 -46.123303 
L 280.34803 -46.126291 
L 281.025628 -46.129349 
L 281.703226 -46.13248 
L 282.380824 -46.135687 
L 283.058421 -46.138972 
L 283.736019 -46.142338 
L 284.413617 -46.145788 
L 285.091215 -46.149325 
L 285.768812 -46.152951 
L 286.44641 -46.156671 
L 287.124008 -46.160488 
L 287.801606 -46.164406 
L 288.479203 -46.168428 
L 289.156801 -46.172559 
L 289.834399 -46.176802 
L 290.511997 -46.181164 
L 291.189594 -46.185649 
L 291.867192 -46.190261 
L 292.54479 -46.195007 
L 293.222388 -46.199892 
L 293.899985 -46.204923 
L 294.577583 -46.210106 
L 295.255181 -46.215449 
L 295.932779 -46.220959 
L 296.610377 -46.226644 
L 297.287974 -46.232513 
L 297.965572 -46.238575 
L 298.64317 -46.244841 
L 299.320768 -46.25132 
L 299.998365 -46.258025 
L 300.675963 -46.264968 
L 301.353561 -46.272162 
L 302.031159 -46.279623 
L 302.708756 -46.287365 
L 303.386354 -46.295406 
L 304.063952 -46.303764 
L 304.74155 -46.31246 
L 305.419147 -46.321515 
L 306.096745 -46.330954 
L 306.774343 -46.340804 
L 307.451941 -46.351094 
L 308.129538 -46.361855 
L 308.807136 -46.373123 
L 309.484734 -46.384938 
L 310.162332 -46.397343 
L 310.839929 -46.410388 
L 311.517527 -46.424127 
L 312.195125 -46.438622 
L 312.872723 -46.453942 
L 313.55032 -46.470166 
L 314.227918 -46.487385 
L 314.905516 -46.5057 
L 315.583114 -46.525229 
L 316.260712 -46.546111 
L 316.938309 -46.568504 
L 317.615907 -46.592595 
L 318.293505 -46.618606 
L 318.971103 -46.6468 
L 319.6487 -46.677495 
L 320.326298 -46.711077 
L 321.003896 -46.748019 
L 321.681494 -46.788913 
L 322.359091 -46.834507 
L 323.036689 -46.885763 
L 323.714287 -46.943943 
L 324.391885 -47.01074 
L 325.069482 -47.08849 
L 325.74708 -47.180525 
L 326.424678 -47.291787 
L 327.102276 -47.430002 
L 327.779873 -47.608072 
L 328.457471 -47.849613 
L 329.135069 -48.20399 
L 329.812667 -48.799141 
L 330.490264 -50.143693 
L 331.167862 -192.263636 
L 331.167862 -45.536364 
L 331.167862 -45.536364 
L 330.490264 -45.536364 
L 329.812667 -45.536364 
L 329.135069 -45.536364 
L 328.457471 -45.536364 
L 327.779873 -45.536364 
L 327.102276 -45.536364 
L 326.424678 -45.536364 
L 325.74708 -45.536364 
L 325.069482 -45.536364 
L 324.391885 -45.536364 
L 323.714287 -45.536364 
L 323.036689 -45.536364 
L 322.359091 -45.536364 
L 321.681494 -45.536364 
L 321.003896 -45.536364 
L 320.326298 -45.536364 
L 319.6487 -45.536364 
L 318.971103 -45.536364 
L 318.293505 -45.536364 
L 317.615907 -45.536364 
L 316.938309 -45.536364 
L 316.260712 -45.536364 
L 315.583114 -45.536364 
L 314.905516 -45.536364 
L 314.227918 -45.536364 
L 313.55032 -45.536364 
L 312.872723 -45.536364 
L 312.195125 -45.536364 
L 311.517527 -45.536364 
L 310.839929 -45.536364 
L 310.162332 -45.536364 
L 309.484734 -45.536364 
L 308.807136 -45.536364 
L 308.129538 -45.536364 
L 307.451941 -45.536364 
L 306.774343 -45.536364 
L 306.096745 -45.536364 
L 305.419147 -45.536364 
L 304.74155 -45.536364 
L 304.063952 -45.536364 
L 303.386354 -45.536364 
L 302.708756 -45.536364 
L 302.031159 -45.536364 
L 301.353561 -45.536364 
L 300.675963 -45.536364 
L 299.998365 -45.536364 
L 299.320768 -45.536364 
L 298.64317 -45.536364 
L 297.965572 -45.536364 
L 297.287974 -45.536364 
L 296.610377 -45.536364 
L 295.932779 -45.536364 
L 295.255181 -45.536364 
L 294.577583 -45.536364 
L 293.899985 -45.536364 
L 293.222388 -45.536364 
L 292.54479 -45.536364 
L 291.867192 -45.536364 
L 291.189594 -45.536364 
L 290.511997 -45.536364 
L 289.834399 -45.536364 
L 289.156801 -45.536364 
L 288.479203 -45.536364 
L 287.801606 -45.536364 
L 287.124008 -45.536364 
L 286.44641 -45.536364 
L 285.768812 -45.536364 
L 285.091215 -45.536364 
L 284.413617 -45.536364 
L 283.736019 -45.536364 
L 283.058421 -45.536364 
L 282.380824 -45.536364 
L 281.703226 -45.536364 
L 281.025628 -45.536364 
L 280.34803 -45.536364 
L 279.670433 -45.536364 
L 278.992835 -45.536364 
L 278.315237 -45.536364 
L 277.637639 -45.536364 
L 276.960042 -45.536364 
L 276.282444 -45.536364 
L 275.604846 -45.536364 
L 274.927248 -45.536364 
L 274.24965 -45.536364 
L 273.572053 -45.536364 
L 272.894455 -45.536364 
L 272.216857 -45.536364 
L 271.539259 -45.536364 
L 270.861662 -45.536364 
L 270.184064 -45.536364 
L 269.506466 -45.536364 
L 268.828868 -45.536364 
L 268.151271 -45.536364 
L 267.473673 -45.536364 
L 266.796075 -45.536364 
L 266.118477 -45.536364 
L 265.44088 -45.536364 
L 264.763282 -45.536364 
L 264.085684 -45.536364 
L 263.408086 -45.536364 
L 262.730489 -45.536364 
L 262.052891 -45.536364 
L 261.375293 -45.536364 
L 260.697695 -45.536364 
L 260.020098 -45.536364 
L 259.3425 -45.536364 
L 258.664902 -45.536364 
L 257.987304 -45.536364 
L 257.309707 -45.536364 
L 256.632109 -45.536364 
L 255.954511 -45.536364 
L 255.276913 -45.536364 
L 254.599315 -45.536364 
L 253.921718 -45.536364 
L 253.24412 -45.536364 
L 252.566522 -45.536364 
L 251.888924 -45.536364 
L 251.211327 -45.536364 
L 250.533729 -45.536364 
L 249.856131 -45.536364 
L 249.178533 -45.536364 
L 248.500936 -45.536364 
L 247.823338 -45.536364 
L 247.14574 -45.536364 
L 246.468142 -45.536364 
L 245.790545 -45.536364 
L 245.112947 -45.536364 
L 244.435349 -45.536364 
L 243.757751 -45.536364 
L 243.080154 -45.536364 
L 242.402556 -45.536364 
L 241.724958 -45.536364 
L 241.04736 -45.536364 
L 240.369763 -45.536364 
L 239.692165 -45.536364 
L 239.014567 -45.536364 
L 238.336969 -45.536364 
L 237.659372 -45.536364 
L 236.981774 -45.536364 
L 236.304176 -45.536364 
L 235.626578 -45.536364 
L 234.94898 -45.536364 
L 234.271383 -45.536364 
L 233.593785 -45.536364 
L 232.916187 -45.536364 
L 232.238589 -45.536364 
L 231.560992 -45.536364 
L 230.883394 -45.536364 
L 230.205796 -45.536364 
L 229.528198 -45.536364 
L 228.850601 -45.536364 
L 228.173003 -45.536364 
L 227.495405 -45.536364 
L 226.817807 -45.536364 
L 226.14021 -45.536364 
L 225.462612 -45.536364 
L 224.785014 -45.536364 
L 224.107416 -45.536364 
L 223.429819 -45.536364 
L 222.752221 -45.536364 
L 222.074623 -45.536364 
L 221.397025 -45.536364 
L 220.719428 -45.536364 
L 220.04183 -45.536364 
L 219.364232 -45.536364 
L 218.686634 -45.536364 
L 218.009037 -45.536364 
L 217.331439 -45.536364 
L 216.653841 -45.536364 
L 215.976243 -45.536364 
L 215.298645 -45.536364 
L 214.621048 -45.536364 
L 213.94345 -45.536364 
L 213.265852 -45.536364 
L 212.588254 -45.536364 
L 211.910657 -45.536364 
L 211.233059 -45.536364 
L 210.555461 -45.536364 
L 209.877863 -45.536364 
L 209.200266 -45.536364 
L 208.522668 -45.536364 
L 207.84507 -45.536364 
L 207.167472 -45.536364 
L 206.489875 -45.536364 
L 205.812277 -45.536364 
L 205.134679 -45.536364 
L 204.457081 -45.536364 
L 203.779484 -45.536364 
L 203.101886 -45.536364 
L 202.424288 -45.536364 
L 201.74669 -45.536364 
L 201.069093 -45.536364 
L 200.391495 -45.536364 
L 199.713897 -45.536364 
L 199.036299 -45.536364 
L 198.358702 -45.536364 
L 197.681104 -45.536364 
L 197.003506 -45.536364 
L 196.325908 -45.536364 
L 195.64831 -45.536364 
L 194.970713 -45.536364 
L 194.293115 -45.536364 
L 193.615517 -45.536364 
L 192.937919 -45.536364 
L 192.260322 -45.536364 
L 191.582724 -45.536364 
L 190.905126 -45.536364 
L 190.227528 -45.536364 
L 189.549931 -45.536364 
L 188.872333 -45.536364 
L 188.194735 -45.536364 
L 187.517137 -45.536364 
L 186.83954 -45.536364 
L 186.161942 -45.536364 
L 185.484344 -45.536364 
L 184.806746 -45.536364 
L 184.129149 -45.536364 
L 183.451551 -45.536364 
L 182.773953 -45.536364 
L 182.096355 -45.536364 
L 181.418758 -45.536364 
L 180.74116 -45.536364 
L 180.063562 -45.536364 
L 179.385964 -45.536364 
L 178.708367 -45.536364 
L 178.030769 -45.536364 
L 177.353171 -45.536364 
L 176.675573 -45.536364 
L 175.997975 -45.536364 
L 175.320378 -45.536364 
L 174.64278 -45.536364 
L 173.965182 -45.536364 
L 173.287584 -45.536364 
L 172.609987 -45.536364 
L 171.932389 -45.536364 
L 171.254791 -45.536364 
L 170.577193 -45.536364 
L 169.899596 -45.536364 
L 169.221998 -45.536364 
L 168.5444 -45.536364 
L 167.866802 -45.536364 
L 167.189205 -45.536364 
L 166.511607 -45.536364 
L 165.834009 -45.536364 
L 165.156411 -45.536364 
L 164.478814 -45.536364 
L 163.801216 -45.536364 
L 163.123618 -45.536364 
L 162.44602 -45.536364 
L 161.768423 -45.536364 
L 161.090825 -45.536364 
L 160.413227 -45.536364 
L 159.735629 -45.536364 
L 159.058032 -45.536364 
L 158.380434 -45.536364 
L 157.702836 -45.536364 
L 157.025238 -45.536364 
L 156.34764 -45.536364 
L 155.670043 -45.536364 
L 154.992445 -45.536364 
L 154.314847 -45.536364 
L 153.637249 -45.536364 
L 152.959652 -45.536364 
L 152.282054 -45.536364 
L 151.604456 -45.536364 
L 150.926858 -45.536364 
L 150.249261 -45.536364 
L 149.571663 -45.536364 
L 148.894065 -45.536364 
L 148.216467 -45.536364 
L 147.53887 -45.536364 
L 146.861272 -45.536364 
L 146.183674 -45.536364 
L 145.506076 -45.536364 
L 144.828479 -45.536364 
L 144.150881 -45.536364 
L 143.473283 -45.536364 
L 142.795685 -45.536364 
L 142.118088 -45.536364 
L 141.44049 -45.536364 
L 140.762892 -45.536364 
L 140.085294 -45.536364 
L 139.407697 -45.536364 
L 138.730099 -45.536364 
L 138.052501 -45.536364 
L 137.374903 -45.536364 
L 136.697305 -45.536364 
L 136.019708 -45.536364 
L 135.34211 -45.536364 
L 134.664512 -45.536364 
L 133.986914 -45.536364 
L 133.309317 -45.536364 
L 132.631719 -45.536364 
L 131.954121 -45.536364 
L 131.276523 -45.536364 
L 130.598926 -45.536364 
L 129.921328 -45.536364 
L 129.24373 -45.536364 
L 128.566132 -45.536364 
L 127.888535 -45.536364 
L 127.210937 -45.536364 
L 126.533339 -45.536364 
L 125.855741 -45.536364 
L 125.178144 -45.536364 
L 124.500546 -45.536364 
L 123.822948 -45.536364 
L 123.14535 -45.536364 
L 122.467753 -45.536364 
L 121.790155 -45.536364 
L 121.112557 -45.536364 
L 120.434959 -45.536364 
L 119.757362 -45.536364 
L 119.079764 -45.536364 
L 118.402166 -45.536364 
L 117.724568 -45.536364 
L 117.04697 -45.536364 
L 116.369373 -45.536364 
L 115.691775 -45.536364 
L 115.014177 -45.536364 
L 114.336579 -45.536364 
L 113.658982 -45.536364 
L 112.981384 -45.536364 
L 112.303786 -45.536364 
L 111.626188 -45.536364 
L 110.948591 -45.536364 
L 110.270993 -45.536364 
L 109.593395 -45.536364 
L 108.915797 -45.536364 
L 108.2382 -45.536364 
L 107.560602 -45.536364 
L 106.883004 -45.536364 
L 106.205406 -45.536364 
L 105.527809 -45.536364 
L 104.850211 -45.536364 
L 104.172613 -45.536364 
L 103.495015 -45.536364 
L 102.817418 -45.536364 
L 102.13982 -45.536364 
L 101.462222 -45.536364 
L 100.784624 -45.536364 
L 100.107027 -45.536364 
L 99.429429 -45.536364 
L 98.751831 -45.536364 
L 98.074233 -45.536364 
L 97.396635 -45.536364 
L 96.719038 -45.536364 
L 96.04144 -45.536364 
L 95.363842 -45.536364 
L 94.686244 -45.536364 
L 94.008647 -45.536364 
L 93.331049 -45.536364 
L 92.653451 -45.536364 
L 91.975853 -45.536364 
L 91.298256 -45.536364 
L 90.620658 -45.536364 
L 89.94306 -45.536364 
L 89.265462 -45.536364 
L 88.587865 -45.536364 
L 87.910267 -45.536364 
L 87.232669 -45.536364 
L 86.555071 -45.536364 
L 85.877474 -45.536364 
L 85.199876 -45.536364 
L 84.522278 -45.536364 
L 83.84468 -45.536364 
L 83.167083 -45.536364 
L 82.489485 -45.536364 
L 81.811887 -45.536364 
L 81.134289 -45.536364 
L 80.456692 -45.536364 
L 79.779094 -45.536364 
L 79.101496 -45.536364 
L 78.423898 -45.536364 
L 77.7463 -45.536364 
L 77.068703 -45.536364 
L 76.391105 -45.536364 
L 75.713507 -45.536364 
L 75.035909 -45.536364 
L 74.358312 -45.536364 
L 73.680714 -45.536364 
L 73.003116 -45.536364 
L 72.325518 -45.536364 
L 71.647921 -45.536364 
L 70.970323 -45.536364 
L 70.292725 -45.536364 
L 69.615127 -45.536364 
L 68.93753 -45.536364 
L 68.259932 -45.536364 
L 67.582334 -45.536364 
L 66.904736 -45.536364 
L 66.227139 -45.536364 
L 65.549541 -45.536364 
L 64.871943 -45.536364 
L 64.194345 -45.536364 
L 63.516748 -45.536364 
L 62.83915 -45.536364 
L 62.161552 -45.536364 
L 61.483954 -45.536364 
L 60.806357 -45.536364 
z
" style="stroke: #4c78a8; stroke-opacity: 0.15"/>
    </defs>
    <g clip-path="url(#p7d806adce9)">
     <use xlink:href="#m9d10f2a834" x="0" y="223.158281" style="fill: #4c78a8; fill-opacity: 0.15; stroke: #4c78a8; stroke-opacity: 0.15"/>
    </g>
   </g>
   <g id="matplotlib.axis_1">
    <g id="xtick_1">
     <g id="line2d_1">
      <path d="M 60.805689 184.958281 
L 60.805689 23.558281 
" clip-path="url(#p7d806adce9)" style="fill: none; stroke: #b0b0b0; stroke-opacity: 0.25; stroke-width: 0.6; stroke-linecap: square"/>
     </g>
     <g id="line2d_2">
      <defs>
       <path id="m6e42588ca5" d="M 0 0 
L 0 3.5 
" style="stroke: #000000; stroke-width: 0.8"/>
      </defs>
      <g>
       <use xlink:href="#m6e42588ca5" x="60.805689" y="184.958281" style="stroke: #000000; stroke-width: 0.8"/>
      </g>
     </g>
     <g id="text_1">
      <!-- 0.0 -->
      <g transform="translate(52.854127 199.555938) scale(0.1 -0.1)">
       <defs>
        <path id="DejaVuSans-13" d="M 2034 4250 
Q 1547 4250 1301 3770 
Q 1056 3291 1056 2328 
Q 1056 1369 1301 889 
Q 1547 409 2034 409 
Q 2525 409 2770 889 
Q 3016 1369 3016 2328 
Q 3016 3291 2770 3770 
Q 2525 4250 2034 4250 
z
M 2034 4750 
Q 2819 4750 3233 4129 
Q 3647 3509 3647 2328 
Q 3647 1150 3233 529 
Q 2819 -91 2034 -91 
Q 1250 -91 836 529 
Q 422 1150 422 2328 
Q 422 3509 836 4129 
Q 1250 4750 2034 4750 
z
" transform="scale(0.015625)"/>
        <path id="DejaVuSans-11" d="M 684 794 
L 1344 794 
L 1344 0 
L 684 0 
L 684 794 
z
" transform="scale(0.015625)"/>
       </defs>
       <use xlink:href="#DejaVuSans-13"/>
       <use xlink:href="#DejaVuSans-11" transform="translate(63.625 0)"/>
       <use xlink:href="#DejaVuSans-13" transform="translate(95.40625 0)"/>
      </g>
     </g>
    </g>
    <g id="xtick_2">
     <g id="line2d_3">
      <path d="M 114.878257 184.958281 
L 114.878257 23.558281 
" clip-path="url(#p7d806adce9)" style="fill: none; stroke: #b0b0b0; stroke-opacity: 0.25; stroke-width: 0.6; stroke-linecap: square"/>
     </g>
     <g id="line2d_4">
      <g>
       <use xlink:href="#m6e42588ca5" x="114.878257" y="184.958281" style="stroke: #000000; stroke-width: 0.8"/>
      </g>
     </g>
     <g id="text_2">
      <!-- 0.2 -->
      <g transform="translate(106.926695 199.555938) scale(0.1 -0.1)">
       <defs>
        <path id="DejaVuSans-15" d="M 1228 531 
L 3431 531 
L 3431 0 
L 469 0 
L 469 531 
Q 828 903 1448 1529 
Q 2069 2156 2228 2338 
Q 2531 2678 2651 2914 
Q 2772 3150 2772 3378 
Q 2772 3750 2511 3984 
Q 2250 4219 1831 4219 
Q 1534 4219 1204 4116 
Q 875 4013 500 3803 
L 500 4441 
Q 881 4594 1212 4672 
Q 1544 4750 1819 4750 
Q 2544 4750 2975 4387 
Q 3406 4025 3406 3419 
Q 3406 3131 3298 2873 
Q 3191 2616 2906 2266 
Q 2828 2175 2409 1742 
Q 1991 1309 1228 531 
z
" transform="scale(0.015625)"/>
       </defs>
       <use xlink:href="#DejaVuSans-13"/>
       <use xlink:href="#DejaVuSans-11" transform="translate(63.625 0)"/>
       <use xlink:href="#DejaVuSans-15" transform="translate(95.40625 0)"/>
      </g>
     </g>
    </g>
    <g id="xtick_3">
     <g id="line2d_5">
      <path d="M 168.950825 184.958281 
L 168.950825 23.558281 
" clip-path="url(#p7d806adce9)" style="fill: none; stroke: #b0b0b0; stroke-opacity: 0.25; stroke-width: 0.6; stroke-linecap: square"/>
     </g>
     <g id="line2d_6">
      <g>
       <use xlink:href="#m6e42588ca5" x="168.950825" y="184.958281" style="stroke: #000000; stroke-width: 0.8"/>
      </g>
     </g>
     <g id="text_3">
      <!-- 0.4 -->
      <g transform="translate(160.999263 199.555938) scale(0.1 -0.1)">
       <defs>
        <path id="DejaVuSans-17" d="M 2419 4116 
L 825 1625 
L 2419 1625 
L 2419 4116 
z
M 2253 4666 
L 3047 4666 
L 3047 1625 
L 3713 1625 
L 3713 1100 
L 3047 1100 
L 3047 0 
L 2419 0 
L 2419 1100 
L 313 1100 
L 313 1709 
L 2253 4666 
z
" transform="scale(0.015625)"/>
       </defs>
       <use xlink:href="#DejaVuSans-13"/>
       <use xlink:href="#DejaVuSans-11" transform="translate(63.625 0)"/>
       <use xlink:href="#DejaVuSans-17" transform="translate(95.40625 0)"/>
      </g>
     </g>
    </g>
    <g id="xtick_4">
     <g id="line2d_7">
      <path d="M 223.023393 184.958281 
L 223.023393 23.558281 
" clip-path="url(#p7d806adce9)" style="fill: none; stroke: #b0b0b0; stroke-opacity: 0.25; stroke-width: 0.6; stroke-linecap: square"/>
     </g>
     <g id="line2d_8">
      <g>
       <use xlink:href="#m6e42588ca5" x="223.023393" y="184.958281" style="stroke: #000000; stroke-width: 0.8"/>
      </g>
     </g>
     <g id="text_4">
      <!-- 0.6 -->
      <g transform="translate(215.071831 199.555938) scale(0.1 -0.1)">
       <defs>
        <path id="DejaVuSans-19" d="M 2113 2584 
Q 1688 2584 1439 2293 
Q 1191 2003 1191 1497 
Q 1191 994 1439 701 
Q 1688 409 2113 409 
Q 2538 409 2786 701 
Q 3034 994 3034 1497 
Q 3034 2003 2786 2293 
Q 2538 2584 2113 2584 
z
M 3366 4563 
L 3366 3988 
Q 3128 4100 2886 4159 
Q 2644 4219 2406 4219 
Q 1781 4219 1451 3797 
Q 1122 3375 1075 2522 
Q 1259 2794 1537 2939 
Q 1816 3084 2150 3084 
Q 2853 3084 3261 2657 
Q 3669 2231 3669 1497 
Q 3669 778 3244 343 
Q 2819 -91 2113 -91 
Q 1303 -91 875 529 
Q 447 1150 447 2328 
Q 447 3434 972 4092 
Q 1497 4750 2381 4750 
Q 2619 4750 2861 4703 
Q 3103 4656 3366 4563 
z
" transform="scale(0.015625)"/>
       </defs>
       <use xlink:href="#DejaVuSans-13"/>
       <use xlink:href="#DejaVuSans-11" transform="translate(63.625 0)"/>
       <use xlink:href="#DejaVuSans-19" transform="translate(95.40625 0)"/>
      </g>
     </g>
    </g>
    <g id="xtick_5">
     <g id="line2d_9">
      <path d="M 277.095961 184.958281 
L 277.095961 23.558281 
" clip-path="url(#p7d806adce9)" style="fill: none; stroke: #b0b0b0; stroke-opacity: 0.25; stroke-width: 0.6; stroke-linecap: square"/>
     </g>
     <g id="line2d_10">
      <g>
       <use xlink:href="#m6e42588ca5" x="277.095961" y="184.958281" style="stroke: #000000; stroke-width: 0.8"/>
      </g>
     </g>
     <g id="text_5">
      <!-- 0.8 -->
      <g transform="translate(269.144399 199.555938) scale(0.1 -0.1)">
       <defs>
        <path id="DejaVuSans-1b" d="M 2034 2216 
Q 1584 2216 1326 1975 
Q 1069 1734 1069 1313 
Q 1069 891 1326 650 
Q 1584 409 2034 409 
Q 2484 409 2743 651 
Q 3003 894 3003 1313 
Q 3003 1734 2745 1975 
Q 2488 2216 2034 2216 
z
M 1403 2484 
Q 997 2584 770 2862 
Q 544 3141 544 3541 
Q 544 4100 942 4425 
Q 1341 4750 2034 4750 
Q 2731 4750 3128 4425 
Q 3525 4100 3525 3541 
Q 3525 3141 3298 2862 
Q 3072 2584 2669 2484 
Q 3125 2378 3379 2068 
Q 3634 1759 3634 1313 
Q 3634 634 3220 271 
Q 2806 -91 2034 -91 
Q 1263 -91 848 271 
Q 434 634 434 1313 
Q 434 1759 690 2068 
Q 947 2378 1403 2484 
z
M 1172 3481 
Q 1172 3119 1398 2916 
Q 1625 2713 2034 2713 
Q 2441 2713 2670 2916 
Q 2900 3119 2900 3481 
Q 2900 3844 2670 4047 
Q 2441 4250 2034 4250 
Q 1625 4250 1398 4047 
Q 1172 3844 1172 3481 
z
" transform="scale(0.015625)"/>
       </defs>
       <use xlink:href="#DejaVuSans-13"/>
       <use xlink:href="#DejaVuSans-11" transform="translate(63.625 0)"/>
       <use xlink:href="#DejaVuSans-1b" transform="translate(95.40625 0)"/>
      </g>
     </g>
    </g>
    <g id="xtick_6">
     <g id="line2d_11">
      <path d="M 331.168529 184.958281 
L 331.168529 23.558281 
" clip-path="url(#p7d806adce9)" style="fill: none; stroke: #b0b0b0; stroke-opacity: 0.25; stroke-width: 0.6; stroke-linecap: square"/>
     </g>
     <g id="line2d_12">
      <g>
       <use xlink:href="#m6e42588ca5" x="331.168529" y="184.958281" style="stroke: #000000; stroke-width: 0.8"/>
      </g>
     </g>
     <g id="text_6">
      <!-- 1.0 -->
      <g transform="translate(323.216967 199.555938) scale(0.1 -0.1)">
       <defs>
        <path id="DejaVuSans-14" d="M 794 531 
L 1825 531 
L 1825 4091 
L 703 3866 
L 703 4441 
L 1819 4666 
L 2450 4666 
L 2450 531 
L 3481 531 
L 3481 0 
L 794 0 
L 794 531 
z
" transform="scale(0.015625)"/>
       </defs>
       <use xlink:href="#DejaVuSans-14"/>
       <use xlink:href="#DejaVuSans-11" transform="translate(63.625 0)"/>
       <use xlink:href="#DejaVuSans-13" transform="translate(95.40625 0)"/>
      </g>
     </g>
    </g>
    <g id="text_7">
     <!-- x -->
     <g transform="translate(193.027734 213.555938) scale(0.1 -0.1)">
      <defs>
       <path id="DejaVuSans-5b" d="M 3513 3500 
L 2247 1797 
L 3578 0 
L 2900 0 
L 1881 1375 
L 863 0 
L 184 0 
L 1544 1831 
L 300 3500 
L 978 3500 
L 1906 2253 
L 2834 3500 
L 3513 3500 
z
" transform="scale(0.015625)"/>
      </defs>
      <use xlink:href="#DejaVuSans-5b"/>
     </g>
    </g>
   </g>
   <g id="matplotlib.axis_2">
    <g id="ytick_1">
     <g id="line2d_13">
      <path d="M 47.288281 177.621918 
L 344.685937 177.621918 
" clip-path="url(#p7d806adce9)" style="fill: none; stroke: #b0b0b0; stroke-opacity: 0.25; stroke-width: 0.6; stroke-linecap: square"/>
     </g>
     <g id="line2d_14">
      <defs>
       <path id="m1cbf0a516c" d="M 0 0 
L -3.5 0 
" style="stroke: #000000; stroke-width: 0.8"/>
      </defs>
      <g>
       <use xlink:href="#m1cbf0a516c" x="47.288281" y="177.621918" style="stroke: #000000; stroke-width: 0.8"/>
      </g>
     </g>
     <g id="text_8">
      <!-- 0 -->
      <g transform="translate(33.925781 181.420746) scale(0.1 -0.1)">
       <use xlink:href="#DejaVuSans-13"/>
      </g>
     </g>
    </g>
    <g id="ytick_2">
     <g id="line2d_15">
      <path d="M 47.288281 141.418474 
L 344.685937 141.418474 
" clip-path="url(#p7d806adce9)" style="fill: none; stroke: #b0b0b0; stroke-opacity: 0.25; stroke-width: 0.6; stroke-linecap: square"/>
     </g>
     <g id="line2d_16">
      <g>
       <use xlink:href="#m1cbf0a516c" x="47.288281" y="141.418474" style="stroke: #000000; stroke-width: 0.8"/>
      </g>
     </g>
     <g id="text_9">
      <!-- 50 -->
      <g transform="translate(27.563281 145.217302) scale(0.1 -0.1)">
       <defs>
        <path id="DejaVuSans-18" d="M 691 4666 
L 3169 4666 
L 3169 4134 
L 1269 4134 
L 1269 2991 
Q 1406 3038 1543 3061 
Q 1681 3084 1819 3084 
Q 2600 3084 3056 2656 
Q 3513 2228 3513 1497 
Q 3513 744 3044 326 
Q 2575 -91 1722 -91 
Q 1428 -91 1123 -41 
Q 819 9 494 109 
L 494 744 
Q 775 591 1075 516 
Q 1375 441 1709 441 
Q 2250 441 2565 725 
Q 2881 1009 2881 1497 
Q 2881 1984 2565 2268 
Q 2250 2553 1709 2553 
Q 1456 2553 1204 2497 
Q 953 2441 691 2322 
L 691 4666 
z
" transform="scale(0.015625)"/>
       </defs>
       <use xlink:href="#DejaVuSans-18"/>
       <use xlink:href="#DejaVuSans-13" transform="translate(63.625 0)"/>
      </g>
     </g>
    </g>
    <g id="ytick_3">
     <g id="line2d_17">
      <path d="M 47.288281 105.21503 
L 344.685937 105.21503 
" clip-path="url(#p7d806adce9)" style="fill: none; stroke: #b0b0b0; stroke-opacity: 0.25; stroke-width: 0.6; stroke-linecap: square"/>
     </g>
     <g id="line2d_18">
      <g>
       <use xlink:href="#m1cbf0a516c" x="47.288281" y="105.21503" style="stroke: #000000; stroke-width: 0.8"/>
      </g>
     </g>
     <g id="text_10">
      <!-- 100 -->
      <g transform="translate(21.200781 109.013858) scale(0.1 -0.1)">
       <use xlink:href="#DejaVuSans-14"/>
       <use xlink:href="#DejaVuSans-13" transform="translate(63.625 0)"/>
       <use xlink:href="#DejaVuSans-13" transform="translate(127.25 0)"/>
      </g>
     </g>
    </g>
    <g id="ytick_4">
     <g id="line2d_19">
      <path d="M 47.288281 69.011586 
L 344.685937 69.011586 
" clip-path="url(#p7d806adce9)" style="fill: none; stroke: #b0b0b0; stroke-opacity: 0.25; stroke-width: 0.6; stroke-linecap: square"/>
     </g>
     <g id="line2d_20">
      <g>
       <use xlink:href="#m1cbf0a516c" x="47.288281" y="69.011586" style="stroke: #000000; stroke-width: 0.8"/>
      </g>
     </g>
     <g id="text_11">
      <!-- 150 -->
      <g transform="translate(21.200781 72.810414) scale(0.1 -0.1)">
       <use xlink:href="#DejaVuSans-14"/>
       <use xlink:href="#DejaVuSans-18" transform="translate(63.625 0)"/>
       <use xlink:href="#DejaVuSans-13" transform="translate(127.25 0)"/>
      </g>
     </g>
    </g>
    <g id="ytick_5">
     <g id="line2d_21">
      <path d="M 47.288281 32.808142 
L 344.685937 32.808142 
" clip-path="url(#p7d806adce9)" style="fill: none; stroke: #b0b0b0; stroke-opacity: 0.25; stroke-width: 0.6; stroke-linecap: square"/>
     </g>
     <g id="line2d_22">
      <g>
       <use xlink:href="#m1cbf0a516c" x="47.288281" y="32.808142" style="stroke: #000000; stroke-width: 0.8"/>
      </g>
     </g>
     <g id="text_12">
      <!-- 200 -->
      <g transform="translate(21.200781 36.60697) scale(0.1 -0.1)">
       <use xlink:href="#DejaVuSans-15"/>
       <use xlink:href="#DejaVuSans-13" transform="translate(63.625 0)"/>
       <use xlink:href="#DejaVuSans-13" transform="translate(127.25 0)"/>
      </g>
     </g>
    </g>
    <g id="text_13">
     <!-- f(x) -->
     <g transform="translate(14.798438 112.879375) rotate(-90) scale(0.1 -0.1)">
      <defs>
       <path id="DejaVuSans-49" d="M 2375 4863 
L 2375 4384 
L 1825 4384 
Q 1516 4384 1395 4259 
Q 1275 4134 1275 3809 
L 1275 3500 
L 2222 3500 
L 2222 3053 
L 1275 3053 
L 1275 0 
L 697 0 
L 697 3053 
L 147 3053 
L 147 3500 
L 697 3500 
L 697 3744 
Q 697 4328 969 4595 
Q 1241 4863 1831 4863 
L 2375 4863 
z
" transform="scale(0.015625)"/>
       <path id="DejaVuSans-b" d="M 1984 4856 
Q 1566 4138 1362 3434 
Q 1159 2731 1159 2009 
Q 1159 1288 1364 580 
Q 1569 -128 1984 -844 
L 1484 -844 
Q 1016 -109 783 600 
Q 550 1309 550 2009 
Q 550 2706 781 3412 
Q 1013 4119 1484 4856 
L 1984 4856 
z
" transform="scale(0.015625)"/>
       <path id="DejaVuSans-c" d="M 513 4856 
L 1013 4856 
Q 1481 4119 1714 3412 
Q 1947 2706 1947 2009 
Q 1947 1309 1714 600 
Q 1481 -109 1013 -844 
L 513 -844 
Q 928 -128 1133 580 
Q 1338 1288 1338 2009 
Q 1338 2731 1133 3434 
Q 928 4138 513 4856 
z
" transform="scale(0.015625)"/>
      </defs>
      <use xlink:href="#DejaVuSans-49"/>
      <use xlink:href="#DejaVuSans-b" transform="translate(35.203125 0)"/>
      <use xlink:href="#DejaVuSans-5b" transform="translate(74.21875 0)"/>
      <use xlink:href="#DejaVuSans-c" transform="translate(133.40625 0)"/>
     </g>
    </g>
   </g>
   <g id="line2d_23">
    <path d="M 60.806357 30.894645 
L 61.483954 173.014588 
L 62.161552 174.359141 
L 62.83915 174.954291 
L 64.194345 175.550209 
L 66.227139 175.977756 
L 68.93753 176.272518 
L 73.680714 176.539675 
L 82.489485 176.773344 
L 99.429429 176.963274 
L 135.34211 177.106146 
L 211.910657 177.157729 
L 283.058421 177.019309 
L 308.807136 176.785158 
L 318.971103 176.511481 
L 323.714287 176.214338 
L 326.424678 175.866494 
L 327.779873 175.550209 
L 329.135069 174.954291 
L 329.812667 174.359141 
L 330.490264 173.014588 
L 331.167862 30.894645 
L 331.167862 30.894645 
" clip-path="url(#p7d806adce9)" style="fill: none; stroke: #4c78a8; stroke-width: 2; stroke-linecap: square"/>
   </g>
   <g id="patch_3">
    <path d="M 47.288281 184.958281 
L 47.288281 23.558281 
" style="fill: none; stroke: #000000; stroke-width: 0.8; stroke-linejoin: miter; stroke-linecap: square"/>
   </g>
   <g id="patch_4">
    <path d="M 47.288281 184.958281 
L 344.685937 184.958281 
" style="fill: none; stroke: #000000; stroke-width: 0.8; stroke-linejoin: miter; stroke-linecap: square"/>
   </g>
   <g id="text_14">
    <!-- Arcsine -->
    <g transform="translate(175.797812 15.558281) scale(0.11 -0.11)">
     <defs>
      <path id="DejaVuSans-24" d="M 2188 4044 
L 1331 1722 
L 3047 1722 
L 2188 4044 
z
M 1831 4666 
L 2547 4666 
L 4325 0 
L 3669 0 
L 3244 1197 
L 1141 1197 
L 716 0 
L 50 0 
L 1831 4666 
z
" transform="scale(0.015625)"/>
      <path id="DejaVuSans-55" d="M 2631 2963 
Q 2534 3019 2420 3045 
Q 2306 3072 2169 3072 
Q 1681 3072 1420 2755 
Q 1159 2438 1159 1844 
L 1159 0 
L 581 0 
L 581 3500 
L 1159 3500 
L 1159 2956 
Q 1341 3275 1631 3429 
Q 1922 3584 2338 3584 
Q 2397 3584 2469 3576 
Q 2541 3569 2628 3553 
L 2631 2963 
z
" transform="scale(0.015625)"/>
      <path id="DejaVuSans-46" d="M 3122 3366 
L 3122 2828 
Q 2878 2963 2633 3030 
Q 2388 3097 2138 3097 
Q 1578 3097 1268 2742 
Q 959 2388 959 1747 
Q 959 1106 1268 751 
Q 1578 397 2138 397 
Q 2388 397 2633 464 
Q 2878 531 3122 666 
L 3122 134 
Q 2881 22 2623 -34 
Q 2366 -91 2075 -91 
Q 1284 -91 818 406 
Q 353 903 353 1747 
Q 353 2603 823 3093 
Q 1294 3584 2113 3584 
Q 2378 3584 2631 3529 
Q 2884 3475 3122 3366 
z
" transform="scale(0.015625)"/>
      <path id="DejaVuSans-56" d="M 2834 3397 
L 2834 2853 
Q 2591 2978 2328 3040 
Q 2066 3103 1784 3103 
Q 1356 3103 1142 2972 
Q 928 2841 928 2578 
Q 928 2378 1081 2264 
Q 1234 2150 1697 2047 
L 1894 2003 
Q 2506 1872 2764 1633 
Q 3022 1394 3022 966 
Q 3022 478 2636 193 
Q 2250 -91 1575 -91 
Q 1294 -91 989 -36 
Q 684 19 347 128 
L 347 722 
Q 666 556 975 473 
Q 1284 391 1588 391 
Q 1994 391 2212 530 
Q 2431 669 2431 922 
Q 2431 1156 2273 1281 
Q 2116 1406 1581 1522 
L 1381 1569 
Q 847 1681 609 1914 
Q 372 2147 372 2553 
Q 372 3047 722 3315 
Q 1072 3584 1716 3584 
Q 2034 3584 2315 3537 
Q 2597 3491 2834 3397 
z
" transform="scale(0.015625)"/>
      <path id="DejaVuSans-4c" d="M 603 3500 
L 1178 3500 
L 1178 0 
L 603 0 
L 603 3500 
z
M 603 4863 
L 1178 4863 
L 1178 4134 
L 603 4134 
L 603 4863 
z
" transform="scale(0.015625)"/>
      <path id="DejaVuSans-51" d="M 3513 2113 
L 3513 0 
L 2938 0 
L 2938 2094 
Q 2938 2591 2744 2837 
Q 2550 3084 2163 3084 
Q 1697 3084 1428 2787 
Q 1159 2491 1159 1978 
L 1159 0 
L 581 0 
L 581 3500 
L 1159 3500 
L 1159 2956 
Q 1366 3272 1645 3428 
Q 1925 3584 2291 3584 
Q 2894 3584 3203 3211 
Q 3513 2838 3513 2113 
z
" transform="scale(0.015625)"/>
      <path id="DejaVuSans-48" d="M 3597 1894 
L 3597 1613 
L 953 1613 
Q 991 1019 1311 708 
Q 1631 397 2203 397 
Q 2534 397 2845 478 
Q 3156 559 3463 722 
L 3463 178 
Q 3153 47 2828 -22 
Q 2503 -91 2169 -91 
Q 1331 -91 842 396 
Q 353 884 353 1716 
Q 353 2575 817 3079 
Q 1281 3584 2069 3584 
Q 2775 3584 3186 3129 
Q 3597 2675 3597 1894 
z
M 3022 2063 
Q 3016 2534 2758 2815 
Q 2500 3097 2075 3097 
Q 1594 3097 1305 2825 
Q 1016 2553 972 2059 
L 3022 2063 
z
" transform="scale(0.015625)"/>
     </defs>
     <use xlink:href="#DejaVuSans-24"/>
     <use xlink:href="#DejaVuSans-55" transform="translate(68.40625 0)"/>
     <use xlink:href="#DejaVuSans-46" transform="translate(107.3125 0)"/>
     <use xlink:href="#DejaVuSans-56" transform="translate(162.296875 0)"/>
     <use xlink:href="#DejaVuSans-4c" transform="translate(214.390625 0)"/>
     <use xlink:href="#DejaVuSans-51" transform="translate(242.171875 0)"/>
     <use xlink:href="#DejaVuSans-48" transform="translate(305.546875 0)"/>
    </g>
   </g>
  </g>
 </g>
 <defs>
  <clipPath id="p7d806adce9">
   <rect x="47.288281" y="23.558281" width="297.397656" height="161.4"/>
  </clipPath>
 </defs>
</svg>
