<?xml version="1.0" encoding="utf-8" standalone="no"?>
<!DOCTYPE svg PUBLIC "-//W3C//DTD SVG 1.1//EN"
  "http://www.w3.org/Graphics/SVG/1.1/DTD/svg11.dtd">
<svg xmlns:xlink="http://www.w3.org/1999/xlink" width="352.301562pt" height="223.2pt" viewBox="0 0 352.301562 223.2" xmlns="http://www.w3.org/2000/svg" version="1.1">
 <metadata>
  <rdf:RDF xmlns:dc="http://purl.org/dc/elements/1.1/" xmlns:cc="http://creativecommons.org/ns#" xmlns:rdf="http://www.w3.org/1999/02/22-rdf-syntax-ns#">
   <cc:Work>
    <dc:type rdf:resource="http://purl.org/dc/dcmitype/StillImage"/>
    <dc:date>2026-07-05T02:24:30.777408</dc:date>
    <dc:format>image/svg+xml</dc:format>
    <dc:creator>
     <cc:Agent>
      <dc:title>Matplotlib v3.11.0, https://matplotlib.org/</dc:title>
     </cc:Agent>
    </dc:creator>
   </cc:Work>
  </rdf:RDF>
 </metadata>
 <defs>
  <style type="text/css">*{stroke-linejoin: round; stroke-linecap: butt}</style>
 </defs>
 <g id="figure_1">
  <g id="patch_1">
   <path d="M 0 223.2 
L 352.301562 223.2 
L 352.301562 0 
L 0 0 
z
" style="fill: #ffffff"/>
  </g>
  <g id="axes_1">
   <g id="patch_2">
    <path d="M 44.103906 185 
L 345.101562 185 
L 345.101562 23.557422 
L 44.103906 23.557422 
z
" style="fill: #ffffff"/>
   </g>
   <g id="FillBetweenPolyCollection_1">
    <defs>
     <path id="m1ae1e66b35" d="M 57.785618 -45.538299 
L 57.785618 -59.846413 
L 58.471418 -63.220829 
L 59.157218 -66.538824 
L 59.843018 -69.800922 
L 60.528818 -73.007643 
L 61.214618 -76.159506 
L 61.900418 -79.257028 
L 62.586218 -82.30072 
L 63.272019 -85.291092 
L 63.957819 -88.228651 
L 64.643619 -91.113902 
L 65.329419 -93.947346 
L 66.015219 -96.729481 
L 66.701019 -99.460803 
L 67.386819 -102.141805 
L 68.072619 -104.772976 
L 68.758419 -107.354805 
L 69.444219 -109.887776 
L 70.130019 -112.372369 
L 70.815819 -114.809065 
L 71.50162 -117.19834 
L 72.18742 -119.540666 
L 72.87322 -121.836516 
L 73.55902 -124.086355 
L 74.24482 -126.290651 
L 74.93062 -128.449864 
L 75.61642 -130.564456 
L 76.30222 -132.634883 
L 76.98802 -134.661599 
L 77.67382 -136.645056 
L 78.35962 -138.585703 
L 79.04542 -140.483987 
L 79.731221 -142.34035 
L 80.417021 -144.155235 
L 81.102821 -145.929079 
L 81.788621 -147.662317 
L 82.474421 -149.355383 
L 83.160221 -151.008708 
L 83.846021 -152.622718 
L 84.531821 -154.19784 
L 85.217621 -155.734495 
L 85.903421 -157.233103 
L 86.589221 -158.694082 
L 87.275021 -160.117846 
L 87.960822 -161.504808 
L 88.646622 -162.855377 
L 89.332422 -164.16996 
L 90.018222 -165.448962 
L 90.704022 -166.692784 
L 91.389822 -167.901825 
L 92.075622 -169.076483 
L 92.761422 -170.217151 
L 93.447222 -171.324222 
L 94.133022 -172.398084 
L 94.818822 -173.439124 
L 95.504622 -174.447727 
L 96.190423 -175.424273 
L 96.876223 -176.369143 
L 97.562023 -177.282713 
L 98.247823 -178.165357 
L 98.933623 -179.017447 
L 99.619423 -179.839353 
L 100.305223 -180.63144 
L 100.991023 -181.394074 
L 101.676823 -182.127617 
L 102.362623 -182.832428 
L 103.048423 -183.508864 
L 103.734223 -184.15728 
L 104.420024 -184.778029 
L 105.105824 -185.371459 
L 105.791624 -185.93792 
L 106.477424 -186.477756 
L 107.163224 -186.991309 
L 107.849024 -187.478921 
L 108.534824 -187.940928 
L 109.220624 -188.377668 
L 109.906424 -188.789473 
L 110.592224 -189.176674 
L 111.278024 -189.539599 
L 111.963824 -189.878577 
L 112.649625 -190.193929 
L 113.335425 -190.485979 
L 114.021225 -190.755045 
L 114.707025 -191.001444 
L 115.392825 -191.225492 
L 116.078625 -191.427501 
L 116.764425 -191.607781 
L 117.450225 -191.766641 
L 118.136025 -191.904385 
L 118.821825 -192.021318 
L 119.507625 -192.117741 
L 120.193425 -192.193953 
L 120.879225 -192.250251 
L 121.565026 -192.286929 
L 122.250826 -192.304279 
L 122.936626 -192.302593 
L 123.622426 -192.282157 
L 124.308226 -192.243258 
L 124.994026 -192.186179 
L 125.679826 -192.111201 
L 126.365626 -192.018605 
L 127.051426 -191.908667 
L 127.737226 -191.781661 
L 128.423026 -191.637862 
L 129.108826 -191.477538 
L 129.794627 -191.30096 
L 130.480427 -191.108393 
L 131.166227 -190.900102 
L 131.852027 -190.676348 
L 132.537827 -190.437393 
L 133.223627 -190.183493 
L 133.909427 -189.914905 
L 134.595227 -189.631883 
L 135.281027 -189.334678 
L 135.966827 -189.023541 
L 136.652627 -188.698718 
L 137.338427 -188.360455 
L 138.024228 -188.008996 
L 138.710028 -187.644582 
L 139.395828 -187.267453 
L 140.081628 -186.877847 
L 140.767428 -186.475998 
L 141.453228 -186.06214 
L 142.139028 -185.636505 
L 142.824828 -185.199322 
L 143.510628 -184.750818 
L 144.196428 -184.29122 
L 144.882228 -183.82075 
L 145.568028 -183.33963 
L 146.253829 -182.84808 
L 146.939629 -182.346317 
L 147.625429 -181.834557 
L 148.311229 -181.313015 
L 148.997029 -180.781901 
L 149.682829 -180.241426 
L 150.368629 -179.691797 
L 151.054429 -179.133222 
L 151.740229 -178.565904 
L 152.426029 -177.990046 
L 153.111829 -177.405847 
L 153.797629 -176.813508 
L 154.48343 -176.213224 
L 155.16923 -175.60519 
L 155.85503 -174.9896 
L 156.54083 -174.366645 
L 157.22663 -173.736514 
L 157.91243 -173.099395 
L 158.59823 -172.455472 
L 159.28403 -171.804932 
L 159.96983 -171.147954 
L 160.65563 -170.484721 
L 161.34143 -169.81541 
L 162.02723 -169.140197 
L 162.713031 -168.459259 
L 163.398831 -167.772768 
L 164.084631 -167.080896 
L 164.770431 -166.383813 
L 165.456231 -165.681685 
L 166.142031 -164.974681 
L 166.827831 -164.262963 
L 167.513631 -163.546695 
L 168.199431 -162.826039 
L 168.885231 -162.101152 
L 169.571031 -161.372194 
L 170.256831 -160.639319 
L 170.942632 -159.902682 
L 171.628432 -159.162437 
L 172.314232 -158.418732 
L 173.000032 -157.671719 
L 173.685832 -156.921545 
L 174.371632 -156.168354 
L 175.057432 -155.412293 
L 175.743232 -154.653503 
L 176.429032 -153.892125 
L 177.114832 -153.1283 
L 177.800632 -152.362164 
L 178.486432 -151.593855 
L 179.172233 -150.823505 
L 179.858033 -150.05125 
L 180.543833 -149.27722 
L 181.229633 -148.501545 
L 181.915433 -147.724353 
L 182.601233 -146.945771 
L 183.287033 -146.165924 
L 183.972833 -145.384937 
L 184.658633 -144.60293 
L 185.344433 -143.820025 
L 186.030233 -143.036341 
L 186.716033 -142.251996 
L 187.401834 -141.467104 
L 188.087634 -140.681782 
L 188.773434 -139.896141 
L 189.459234 -139.110294 
L 190.145034 -138.324351 
L 190.830834 -137.53842 
L 191.516634 -136.752608 
L 192.202434 -135.967022 
L 192.888234 -135.181765 
L 193.574034 -134.39694 
L 194.259834 -133.612649 
L 194.945634 -132.828992 
L 195.631434 -132.046066 
L 196.317235 -131.26397 
L 197.003035 -130.482799 
L 197.688835 -129.702648 
L 198.374635 -128.923609 
L 199.060435 -128.145773 
L 199.746235 -127.369232 
L 200.432035 -126.594074 
L 201.117835 -125.820386 
L 201.803635 -125.048255 
L 202.489435 -124.277765 
L 203.175235 -123.509 
L 203.861035 -122.742041 
L 204.546836 -121.976971 
L 205.232636 -121.213867 
L 205.918436 -120.452809 
L 206.604236 -119.693873 
L 207.290036 -118.937135 
L 207.975836 -118.182669 
L 208.661636 -117.430548 
L 209.347436 -116.680844 
L 210.033236 -115.933627 
L 210.719036 -115.188967 
L 211.404836 -114.446931 
L 212.090636 -113.707587 
L 212.776437 -112.971 
L 213.462237 -112.237234 
L 214.148037 -111.506352 
L 214.833837 -110.778416 
L 215.519637 -110.053487 
L 216.205437 -109.331625 
L 216.891237 -108.612886 
L 217.577037 -107.89733 
L 218.262837 -107.185011 
L 218.948637 -106.475984 
L 219.634437 -105.770304 
L 220.320237 -105.068021 
L 221.006038 -104.369189 
L 221.691838 -103.673856 
L 222.377638 -102.982072 
L 223.063438 -102.293885 
L 223.749238 -101.609342 
L 224.435038 -100.928489 
L 225.120838 -100.251369 
L 225.806638 -99.578027 
L 226.492438 -98.908505 
L 227.178238 -98.242844 
L 227.864038 -97.581085 
L 228.549838 -96.923267 
L 229.235639 -96.269428 
L 229.921439 -95.619605 
L 230.607239 -94.973834 
L 231.293039 -94.332151 
L 231.978839 -93.694589 
L 232.664639 -93.061181 
L 233.350439 -92.43196 
L 234.036239 -91.806957 
L 234.722039 -91.186201 
L 235.407839 -90.569721 
L 236.093639 -89.957546 
L 236.779439 -89.349703 
L 237.46524 -88.746217 
L 238.15104 -88.147114 
L 238.83684 -87.552419 
L 239.52264 -86.962153 
L 240.20844 -86.376341 
L 240.89424 -85.795002 
L 241.58004 -85.218159 
L 242.26584 -84.645829 
L 242.95164 -84.078032 
L 243.63744 -83.514786 
L 244.32324 -82.956107 
L 245.00904 -82.402012 
L 245.694841 -81.852516 
L 246.380641 -81.307632 
L 247.066441 -80.767374 
L 247.752241 -80.231756 
L 248.438041 -79.700787 
L 249.123841 -79.17448 
L 249.809641 -78.652845 
L 250.495441 -78.13589 
L 251.181241 -77.623624 
L 251.867041 -77.116054 
L 252.552841 -76.613188 
L 253.238641 -76.115031 
L 253.924442 -75.621589 
L 254.610242 -75.132865 
L 255.296042 -74.648864 
L 255.981842 -74.169588 
L 256.667642 -73.69504 
L 257.353442 -73.225221 
L 258.039242 -72.760131 
L 258.725042 -72.299771 
L 259.410842 -71.844139 
L 260.096642 -71.393235 
L 260.782442 -70.947055 
L 261.468242 -70.505597 
L 262.154043 -70.068857 
L 262.839843 -69.636831 
L 263.525643 -69.209514 
L 264.211443 -68.7869 
L 264.897243 -68.368982 
L 265.583043 -67.955755 
L 266.268843 -67.547209 
L 266.954643 -67.143337 
L 267.640443 -66.744129 
L 268.326243 -66.349577 
L 269.012043 -65.959669 
L 269.697843 -65.574396 
L 270.383644 -65.193745 
L 271.069444 -64.817705 
L 271.755244 -64.446262 
L 272.441044 -64.079404 
L 273.126844 -63.717117 
L 273.812644 -63.359387 
L 274.498444 -63.006198 
L 275.184244 -62.657535 
L 275.870044 -62.313382 
L 276.555844 -61.973722 
L 277.241644 -61.638539 
L 277.927444 -61.307814 
L 278.613244 -60.98153 
L 279.299045 -60.659668 
L 279.984845 -60.342208 
L 280.670645 -60.029132 
L 281.356445 -59.720418 
L 282.042245 -59.416046 
L 282.728045 -59.115995 
L 283.413845 -58.820244 
L 284.099645 -58.52877 
L 284.785445 -58.241551 
L 285.471245 -57.958564 
L 286.157045 -57.679785 
L 286.842845 -57.405191 
L 287.528646 -57.134758 
L 288.214446 -56.868461 
L 288.900246 -56.606274 
L 289.586046 -56.348173 
L 290.271846 -56.094132 
L 290.957646 -55.844123 
L 291.643446 -55.598122 
L 292.329246 -55.3561 
L 293.015046 -55.11803 
L 293.700846 -54.883885 
L 294.386646 -54.653637 
L 295.072446 -54.427257 
L 295.758247 -54.204716 
L 296.444047 -53.985986 
L 297.129847 -53.771037 
L 297.815647 -53.55984 
L 298.501447 -53.352363 
L 299.187247 -53.148579 
L 299.873047 -52.948454 
L 300.558847 -52.75196 
L 301.244647 -52.559064 
L 301.930447 -52.369735 
L 302.616247 -52.183942 
L 303.302047 -52.001653 
L 303.987848 -51.822836 
L 304.673648 -51.647457 
L 305.359448 -51.475485 
L 306.045248 -51.306887 
L 306.731048 -51.14163 
L 307.416848 -50.979681 
L 308.102648 -50.821005 
L 308.788448 -50.66557 
L 309.474248 -50.513341 
L 310.160048 -50.364286 
L 310.845848 -50.218368 
L 311.531648 -50.075555 
L 312.217449 -49.935811 
L 312.903249 -49.799102 
L 313.589049 -49.665394 
L 314.274849 -49.534651 
L 314.960649 -49.406838 
L 315.646449 -49.28192 
L 316.332249 -49.159863 
L 317.018049 -49.040629 
L 317.703849 -48.924185 
L 318.389649 -48.810495 
L 319.075449 -48.699522 
L 319.761249 -48.591231 
L 320.44705 -48.485587 
L 321.13285 -48.382554 
L 321.81865 -48.282095 
L 322.50445 -48.184176 
L 323.19025 -48.088759 
L 323.87605 -47.995809 
L 324.56185 -47.90529 
L 325.24765 -47.817166 
L 325.93345 -47.7314 
L 326.61925 -47.647958 
L 327.30505 -47.566802 
L 327.99085 -47.487897 
L 328.676651 -47.411208 
L 329.362451 -47.336697 
L 330.048251 -47.264329 
L 330.734051 -47.194068 
L 331.419851 -47.125879 
L 331.419851 -45.538299 
L 331.419851 -45.538299 
L 330.734051 -45.538299 
L 330.048251 -45.538299 
L 329.362451 -45.538299 
L 328.676651 -45.538299 
L 327.99085 -45.538299 
L 327.30505 -45.538299 
L 326.61925 -45.538299 
L 325.93345 -45.538299 
L 325.24765 -45.538299 
L 324.56185 -45.538299 
L 323.87605 -45.538299 
L 323.19025 -45.538299 
L 322.50445 -45.538299 
L 321.81865 -45.538299 
L 321.13285 -45.538299 
L 320.44705 -45.538299 
L 319.761249 -45.538299 
L 319.075449 -45.538299 
L 318.389649 -45.538299 
L 317.703849 -45.538299 
L 317.018049 -45.538299 
L 316.332249 -45.538299 
L 315.646449 -45.538299 
L 314.960649 -45.538299 
L 314.274849 -45.538299 
L 313.589049 -45.538299 
L 312.903249 -45.538299 
L 312.217449 -45.538299 
L 311.531648 -45.538299 
L 310.845848 -45.538299 
L 310.160048 -45.538299 
L 309.474248 -45.538299 
L 308.788448 -45.538299 
L 308.102648 -45.538299 
L 307.416848 -45.538299 
L 306.731048 -45.538299 
L 306.045248 -45.538299 
L 305.359448 -45.538299 
L 304.673648 -45.538299 
L 303.987848 -45.538299 
L 303.302047 -45.538299 
L 302.616247 -45.538299 
L 301.930447 -45.538299 
L 301.244647 -45.538299 
L 300.558847 -45.538299 
L 299.873047 -45.538299 
L 299.187247 -45.538299 
L 298.501447 -45.538299 
L 297.815647 -45.538299 
L 297.129847 -45.538299 
L 296.444047 -45.538299 
L 295.758247 -45.538299 
L 295.072446 -45.538299 
L 294.386646 -45.538299 
L 293.700846 -45.538299 
L 293.015046 -45.538299 
L 292.329246 -45.538299 
L 291.643446 -45.538299 
L 290.957646 -45.538299 
L 290.271846 -45.538299 
L 289.586046 -45.538299 
L 288.900246 -45.538299 
L 288.214446 -45.538299 
L 287.528646 -45.538299 
L 286.842845 -45.538299 
L 286.157045 -45.538299 
L 285.471245 -45.538299 
L 284.785445 -45.538299 
L 284.099645 -45.538299 
L 283.413845 -45.538299 
L 282.728045 -45.538299 
L 282.042245 -45.538299 
L 281.356445 -45.538299 
L 280.670645 -45.538299 
L 279.984845 -45.538299 
L 279.299045 -45.538299 
L 278.613244 -45.538299 
L 277.927444 -45.538299 
L 277.241644 -45.538299 
L 276.555844 -45.538299 
L 275.870044 -45.538299 
L 275.184244 -45.538299 
L 274.498444 -45.538299 
L 273.812644 -45.538299 
L 273.126844 -45.538299 
L 272.441044 -45.538299 
L 271.755244 -45.538299 
L 271.069444 -45.538299 
L 270.383644 -45.538299 
L 269.697843 -45.538299 
L 269.012043 -45.538299 
L 268.326243 -45.538299 
L 267.640443 -45.538299 
L 266.954643 -45.538299 
L 266.268843 -45.538299 
L 265.583043 -45.538299 
L 264.897243 -45.538299 
L 264.211443 -45.538299 
L 263.525643 -45.538299 
L 262.839843 -45.538299 
L 262.154043 -45.538299 
L 261.468242 -45.538299 
L 260.782442 -45.538299 
L 260.096642 -45.538299 
L 259.410842 -45.538299 
L 258.725042 -45.538299 
L 258.039242 -45.538299 
L 257.353442 -45.538299 
L 256.667642 -45.538299 
L 255.981842 -45.538299 
L 255.296042 -45.538299 
L 254.610242 -45.538299 
L 253.924442 -45.538299 
L 253.238641 -45.538299 
L 252.552841 -45.538299 
L 251.867041 -45.538299 
L 251.181241 -45.538299 
L 250.495441 -45.538299 
L 249.809641 -45.538299 
L 249.123841 -45.538299 
L 248.438041 -45.538299 
L 247.752241 -45.538299 
L 247.066441 -45.538299 
L 246.380641 -45.538299 
L 245.694841 -45.538299 
L 245.00904 -45.538299 
L 244.32324 -45.538299 
L 243.63744 -45.538299 
L 242.95164 -45.538299 
L 242.26584 -45.538299 
L 241.58004 -45.538299 
L 240.89424 -45.538299 
L 240.20844 -45.538299 
L 239.52264 -45.538299 
L 238.83684 -45.538299 
L 238.15104 -45.538299 
L 237.46524 -45.538299 
L 236.779439 -45.538299 
L 236.093639 -45.538299 
L 235.407839 -45.538299 
L 234.722039 -45.538299 
L 234.036239 -45.538299 
L 233.350439 -45.538299 
L 232.664639 -45.538299 
L 231.978839 -45.538299 
L 231.293039 -45.538299 
L 230.607239 -45.538299 
L 229.921439 -45.538299 
L 229.235639 -45.538299 
L 228.549838 -45.538299 
L 227.864038 -45.538299 
L 227.178238 -45.538299 
L 226.492438 -45.538299 
L 225.806638 -45.538299 
L 225.120838 -45.538299 
L 224.435038 -45.538299 
L 223.749238 -45.538299 
L 223.063438 -45.538299 
L 222.377638 -45.538299 
L 221.691838 -45.538299 
L 221.006038 -45.538299 
L 220.320237 -45.538299 
L 219.634437 -45.538299 
L 218.948637 -45.538299 
L 218.262837 -45.538299 
L 217.577037 -45.538299 
L 216.891237 -45.538299 
L 216.205437 -45.538299 
L 215.519637 -45.538299 
L 214.833837 -45.538299 
L 214.148037 -45.538299 
L 213.462237 -45.538299 
L 212.776437 -45.538299 
L 212.090636 -45.538299 
L 211.404836 -45.538299 
L 210.719036 -45.538299 
L 210.033236 -45.538299 
L 209.347436 -45.538299 
L 208.661636 -45.538299 
L 207.975836 -45.538299 
L 207.290036 -45.538299 
L 206.604236 -45.538299 
L 205.918436 -45.538299 
L 205.232636 -45.538299 
L 204.546836 -45.538299 
L 203.861035 -45.538299 
L 203.175235 -45.538299 
L 202.489435 -45.538299 
L 201.803635 -45.538299 
L 201.117835 -45.538299 
L 200.432035 -45.538299 
L 199.746235 -45.538299 
L 199.060435 -45.538299 
L 198.374635 -45.538299 
L 197.688835 -45.538299 
L 197.003035 -45.538299 
L 196.317235 -45.538299 
L 195.631434 -45.538299 
L 194.945634 -45.538299 
L 194.259834 -45.538299 
L 193.574034 -45.538299 
L 192.888234 -45.538299 
L 192.202434 -45.538299 
L 191.516634 -45.538299 
L 190.830834 -45.538299 
L 190.145034 -45.538299 
L 189.459234 -45.538299 
L 188.773434 -45.538299 
L 188.087634 -45.538299 
L 187.401834 -45.538299 
L 186.716033 -45.538299 
L 186.030233 -45.538299 
L 185.344433 -45.538299 
L 184.658633 -45.538299 
L 183.972833 -45.538299 
L 183.287033 -45.538299 
L 182.601233 -45.538299 
L 181.915433 -45.538299 
L 181.229633 -45.538299 
L 180.543833 -45.538299 
L 179.858033 -45.538299 
L 179.172233 -45.538299 
L 178.486432 -45.538299 
L 177.800632 -45.538299 
L 177.114832 -45.538299 
L 176.429032 -45.538299 
L 175.743232 -45.538299 
L 175.057432 -45.538299 
L 174.371632 -45.538299 
L 173.685832 -45.538299 
L 173.000032 -45.538299 
L 172.314232 -45.538299 
L 171.628432 -45.538299 
L 170.942632 -45.538299 
L 170.256831 -45.538299 
L 169.571031 -45.538299 
L 168.885231 -45.538299 
L 168.199431 -45.538299 
L 167.513631 -45.538299 
L 166.827831 -45.538299 
L 166.142031 -45.538299 
L 165.456231 -45.538299 
L 164.770431 -45.538299 
L 164.084631 -45.538299 
L 163.398831 -45.538299 
L 162.713031 -45.538299 
L 162.02723 -45.538299 
L 161.34143 -45.538299 
L 160.65563 -45.538299 
L 159.96983 -45.538299 
L 159.28403 -45.538299 
L 158.59823 -45.538299 
L 157.91243 -45.538299 
L 157.22663 -45.538299 
L 156.54083 -45.538299 
L 155.85503 -45.538299 
L 155.16923 -45.538299 
L 154.48343 -45.538299 
L 153.797629 -45.538299 
L 153.111829 -45.538299 
L 152.426029 -45.538299 
L 151.740229 -45.538299 
L 151.054429 -45.538299 
L 150.368629 -45.538299 
L 149.682829 -45.538299 
L 148.997029 -45.538299 
L 148.311229 -45.538299 
L 147.625429 -45.538299 
L 146.939629 -45.538299 
L 146.253829 -45.538299 
L 145.568028 -45.538299 
L 144.882228 -45.538299 
L 144.196428 -45.538299 
L 143.510628 -45.538299 
L 142.824828 -45.538299 
L 142.139028 -45.538299 
L 141.453228 -45.538299 
L 140.767428 -45.538299 
L 140.081628 -45.538299 
L 139.395828 -45.538299 
L 138.710028 -45.538299 
L 138.024228 -45.538299 
L 137.338427 -45.538299 
L 136.652627 -45.538299 
L 135.966827 -45.538299 
L 135.281027 -45.538299 
L 134.595227 -45.538299 
L 133.909427 -45.538299 
L 133.223627 -45.538299 
L 132.537827 -45.538299 
L 131.852027 -45.538299 
L 131.166227 -45.538299 
L 130.480427 -45.538299 
L 129.794627 -45.538299 
L 129.108826 -45.538299 
L 128.423026 -45.538299 
L 127.737226 -45.538299 
L 127.051426 -45.538299 
L 126.365626 -45.538299 
L 125.679826 -45.538299 
L 124.994026 -45.538299 
L 124.308226 -45.538299 
L 123.622426 -45.538299 
L 122.936626 -45.538299 
L 122.250826 -45.538299 
L 121.565026 -45.538299 
L 120.879225 -45.538299 
L 120.193425 -45.538299 
L 119.507625 -45.538299 
L 118.821825 -45.538299 
L 118.136025 -45.538299 
L 117.450225 -45.538299 
L 116.764425 -45.538299 
L 116.078625 -45.538299 
L 115.392825 -45.538299 
L 114.707025 -45.538299 
L 114.021225 -45.538299 
L 113.335425 -45.538299 
L 112.649625 -45.538299 
L 111.963824 -45.538299 
L 111.278024 -45.538299 
L 110.592224 -45.538299 
L 109.906424 -45.538299 
L 109.220624 -45.538299 
L 108.534824 -45.538299 
L 107.849024 -45.538299 
L 107.163224 -45.538299 
L 106.477424 -45.538299 
L 105.791624 -45.538299 
L 105.105824 -45.538299 
L 104.420024 -45.538299 
L 103.734223 -45.538299 
L 103.048423 -45.538299 
L 102.362623 -45.538299 
L 101.676823 -45.538299 
L 100.991023 -45.538299 
L 100.305223 -45.538299 
L 99.619423 -45.538299 
L 98.933623 -45.538299 
L 98.247823 -45.538299 
L 97.562023 -45.538299 
L 96.876223 -45.538299 
L 96.190423 -45.538299 
L 95.504622 -45.538299 
L 94.818822 -45.538299 
L 94.133022 -45.538299 
L 93.447222 -45.538299 
L 92.761422 -45.538299 
L 92.075622 -45.538299 
L 91.389822 -45.538299 
L 90.704022 -45.538299 
L 90.018222 -45.538299 
L 89.332422 -45.538299 
L 88.646622 -45.538299 
L 87.960822 -45.538299 
L 87.275021 -45.538299 
L 86.589221 -45.538299 
L 85.903421 -45.538299 
L 85.217621 -45.538299 
L 84.531821 -45.538299 
L 83.846021 -45.538299 
L 83.160221 -45.538299 
L 82.474421 -45.538299 
L 81.788621 -45.538299 
L 81.102821 -45.538299 
L 80.417021 -45.538299 
L 79.731221 -45.538299 
L 79.04542 -45.538299 
L 78.35962 -45.538299 
L 77.67382 -45.538299 
L 76.98802 -45.538299 
L 76.30222 -45.538299 
L 75.61642 -45.538299 
L 74.93062 -45.538299 
L 74.24482 -45.538299 
L 73.55902 -45.538299 
L 72.87322 -45.538299 
L 72.18742 -45.538299 
L 71.50162 -45.538299 
L 70.815819 -45.538299 
L 70.130019 -45.538299 
L 69.444219 -45.538299 
L 68.758419 -45.538299 
L 68.072619 -45.538299 
L 67.386819 -45.538299 
L 66.701019 -45.538299 
L 66.015219 -45.538299 
L 65.329419 -45.538299 
L 64.643619 -45.538299 
L 63.957819 -45.538299 
L 63.272019 -45.538299 
L 62.586218 -45.538299 
L 61.900418 -45.538299 
L 61.214618 -45.538299 
L 60.528818 -45.538299 
L 59.843018 -45.538299 
L 59.157218 -45.538299 
L 58.471418 -45.538299 
L 57.785618 -45.538299 
z
" style="stroke: #4c78a8; stroke-opacity: 0.15"/>
    </defs>
    <g clip-path="url(#p93fa78582e)">
     <use xlink:href="#m1ae1e66b35" x="0" y="223.2" style="fill: #4c78a8; fill-opacity: 0.15; stroke: #4c78a8; stroke-opacity: 0.15"/>
    </g>
   </g>
   <g id="matplotlib.axis_1">
    <g id="xtick_1">
     <g id="line2d_1">
      <path d="M 54.99798 185 
L 54.99798 23.557422 
" clip-path="url(#p93fa78582e)" style="fill: none; stroke: #b0b0b0; stroke-opacity: 0.25; stroke-width: 0.6; stroke-linecap: square"/>
     </g>
     <g id="line2d_2">
      <defs>
       <path id="m7a14f77cf8" d="M 0 0 
L 0 3.5 
" style="stroke: #000000; stroke-width: 0.8"/>
      </defs>
      <g>
       <use xlink:href="#m7a14f77cf8" x="54.99798" y="185" style="stroke: #000000; stroke-width: 0.8"/>
      </g>
     </g>
     <g id="text_1">
      <!-- 0.0 -->
      <g transform="translate(47.046418 199.597656) scale(0.1 -0.1)">
       <defs>
        <path id="DejaVuSans-13" d="M 2034 4250 
Q 1547 4250 1301 3770 
Q 1056 3291 1056 2328 
Q 1056 1369 1301 889 
Q 1547 409 2034 409 
Q 2525 409 2770 889 
Q 3016 1369 3016 2328 
Q 3016 3291 2770 3770 
Q 2525 4250 2034 4250 
z
M 2034 4750 
Q 2819 4750 3233 4129 
Q 3647 3509 3647 2328 
Q 3647 1150 3233 529 
Q 2819 -91 2034 -91 
Q 1250 -91 836 529 
Q 422 1150 422 2328 
Q 422 3509 836 4129 
Q 1250 4750 2034 4750 
z
" transform="scale(0.015625)"/>
        <path id="DejaVuSans-11" d="M 684 794 
L 1344 794 
L 1344 0 
L 684 0 
L 684 794 
z
" transform="scale(0.015625)"/>
       </defs>
       <use xlink:href="#DejaVuSans-13"/>
       <use xlink:href="#DejaVuSans-11" transform="translate(63.625 0)"/>
       <use xlink:href="#DejaVuSans-13" transform="translate(95.40625 0)"/>
      </g>
     </g>
    </g>
    <g id="xtick_2">
     <g id="line2d_3">
      <path d="M 88.765045 185 
L 88.765045 23.557422 
" clip-path="url(#p93fa78582e)" style="fill: none; stroke: #b0b0b0; stroke-opacity: 0.25; stroke-width: 0.6; stroke-linecap: square"/>
     </g>
     <g id="line2d_4">
      <g>
       <use xlink:href="#m7a14f77cf8" x="88.765045" y="185" style="stroke: #000000; stroke-width: 0.8"/>
      </g>
     </g>
     <g id="text_2">
      <!-- 0.1 -->
      <g transform="translate(80.813482 199.597656) scale(0.1 -0.1)">
       <defs>
        <path id="DejaVuSans-14" d="M 794 531 
L 1825 531 
L 1825 4091 
L 703 3866 
L 703 4441 
L 1819 4666 
L 2450 4666 
L 2450 531 
L 3481 531 
L 3481 0 
L 794 0 
L 794 531 
z
" transform="scale(0.015625)"/>
       </defs>
       <use xlink:href="#DejaVuSans-13"/>
       <use xlink:href="#DejaVuSans-11" transform="translate(63.625 0)"/>
       <use xlink:href="#DejaVuSans-14" transform="translate(95.40625 0)"/>
      </g>
     </g>
    </g>
    <g id="xtick_3">
     <g id="line2d_5">
      <path d="M 122.532109 185 
L 122.532109 23.557422 
" clip-path="url(#p93fa78582e)" style="fill: none; stroke: #b0b0b0; stroke-opacity: 0.25; stroke-width: 0.6; stroke-linecap: square"/>
     </g>
     <g id="line2d_6">
      <g>
       <use xlink:href="#m7a14f77cf8" x="122.532109" y="185" style="stroke: #000000; stroke-width: 0.8"/>
      </g>
     </g>
     <g id="text_3">
      <!-- 0.2 -->
      <g transform="translate(114.580546 199.597656) scale(0.1 -0.1)">
       <defs>
        <path id="DejaVuSans-15" d="M 1228 531 
L 3431 531 
L 3431 0 
L 469 0 
L 469 531 
Q 828 903 1448 1529 
Q 2069 2156 2228 2338 
Q 2531 2678 2651 2914 
Q 2772 3150 2772 3378 
Q 2772 3750 2511 3984 
Q 2250 4219 1831 4219 
Q 1534 4219 1204 4116 
Q 875 4013 500 3803 
L 500 4441 
Q 881 4594 1212 4672 
Q 1544 4750 1819 4750 
Q 2544 4750 2975 4387 
Q 3406 4025 3406 3419 
Q 3406 3131 3298 2873 
Q 3191 2616 2906 2266 
Q 2828 2175 2409 1742 
Q 1991 1309 1228 531 
z
" transform="scale(0.015625)"/>
       </defs>
       <use xlink:href="#DejaVuSans-13"/>
       <use xlink:href="#DejaVuSans-11" transform="translate(63.625 0)"/>
       <use xlink:href="#DejaVuSans-15" transform="translate(95.40625 0)"/>
      </g>
     </g>
    </g>
    <g id="xtick_4">
     <g id="line2d_7">
      <path d="M 156.299173 185 
L 156.299173 23.557422 
" clip-path="url(#p93fa78582e)" style="fill: none; stroke: #b0b0b0; stroke-opacity: 0.25; stroke-width: 0.6; stroke-linecap: square"/>
     </g>
     <g id="line2d_8">
      <g>
       <use xlink:href="#m7a14f77cf8" x="156.299173" y="185" style="stroke: #000000; stroke-width: 0.8"/>
      </g>
     </g>
     <g id="text_4">
      <!-- 0.3 -->
      <g transform="translate(148.347611 199.597656) scale(0.1 -0.1)">
       <defs>
        <path id="DejaVuSans-16" d="M 2597 2516 
Q 3050 2419 3304 2112 
Q 3559 1806 3559 1356 
Q 3559 666 3084 287 
Q 2609 -91 1734 -91 
Q 1441 -91 1130 -33 
Q 819 25 488 141 
L 488 750 
Q 750 597 1062 519 
Q 1375 441 1716 441 
Q 2309 441 2620 675 
Q 2931 909 2931 1356 
Q 2931 1769 2642 2001 
Q 2353 2234 1838 2234 
L 1294 2234 
L 1294 2753 
L 1863 2753 
Q 2328 2753 2575 2939 
Q 2822 3125 2822 3475 
Q 2822 3834 2567 4026 
Q 2313 4219 1838 4219 
Q 1578 4219 1281 4162 
Q 984 4106 628 3988 
L 628 4550 
Q 988 4650 1302 4700 
Q 1616 4750 1894 4750 
Q 2613 4750 3031 4423 
Q 3450 4097 3450 3541 
Q 3450 3153 3228 2886 
Q 3006 2619 2597 2516 
z
" transform="scale(0.015625)"/>
       </defs>
       <use xlink:href="#DejaVuSans-13"/>
       <use xlink:href="#DejaVuSans-11" transform="translate(63.625 0)"/>
       <use xlink:href="#DejaVuSans-16" transform="translate(95.40625 0)"/>
      </g>
     </g>
    </g>
    <g id="xtick_5">
     <g id="line2d_9">
      <path d="M 190.066237 185 
L 190.066237 23.557422 
" clip-path="url(#p93fa78582e)" style="fill: none; stroke: #b0b0b0; stroke-opacity: 0.25; stroke-width: 0.6; stroke-linecap: square"/>
     </g>
     <g id="line2d_10">
      <g>
       <use xlink:href="#m7a14f77cf8" x="190.066237" y="185" style="stroke: #000000; stroke-width: 0.8"/>
      </g>
     </g>
     <g id="text_5">
      <!-- 0.4 -->
      <g transform="translate(182.114675 199.597656) scale(0.1 -0.1)">
       <defs>
        <path id="DejaVuSans-17" d="M 2419 4116 
L 825 1625 
L 2419 1625 
L 2419 4116 
z
M 2253 4666 
L 3047 4666 
L 3047 1625 
L 3713 1625 
L 3713 1100 
L 3047 1100 
L 3047 0 
L 2419 0 
L 2419 1100 
L 313 1100 
L 313 1709 
L 2253 4666 
z
" transform="scale(0.015625)"/>
       </defs>
       <use xlink:href="#DejaVuSans-13"/>
       <use xlink:href="#DejaVuSans-11" transform="translate(63.625 0)"/>
       <use xlink:href="#DejaVuSans-17" transform="translate(95.40625 0)"/>
      </g>
     </g>
    </g>
    <g id="xtick_6">
     <g id="line2d_11">
      <path d="M 223.833302 185 
L 223.833302 23.557422 
" clip-path="url(#p93fa78582e)" style="fill: none; stroke: #b0b0b0; stroke-opacity: 0.25; stroke-width: 0.6; stroke-linecap: square"/>
     </g>
     <g id="line2d_12">
      <g>
       <use xlink:href="#m7a14f77cf8" x="223.833302" y="185" style="stroke: #000000; stroke-width: 0.8"/>
      </g>
     </g>
     <g id="text_6">
      <!-- 0.5 -->
      <g transform="translate(215.881739 199.597656) scale(0.1 -0.1)">
       <defs>
        <path id="DejaVuSans-18" d="M 691 4666 
L 3169 4666 
L 3169 4134 
L 1269 4134 
L 1269 2991 
Q 1406 3038 1543 3061 
Q 1681 3084 1819 3084 
Q 2600 3084 3056 2656 
Q 3513 2228 3513 1497 
Q 3513 744 3044 326 
Q 2575 -91 1722 -91 
Q 1428 -91 1123 -41 
Q 819 9 494 109 
L 494 744 
Q 775 591 1075 516 
Q 1375 441 1709 441 
Q 2250 441 2565 725 
Q 2881 1009 2881 1497 
Q 2881 1984 2565 2268 
Q 2250 2553 1709 2553 
Q 1456 2553 1204 2497 
Q 953 2441 691 2322 
L 691 4666 
z
" transform="scale(0.015625)"/>
       </defs>
       <use xlink:href="#DejaVuSans-13"/>
       <use xlink:href="#DejaVuSans-11" transform="translate(63.625 0)"/>
       <use xlink:href="#DejaVuSans-18" transform="translate(95.40625 0)"/>
      </g>
     </g>
    </g>
    <g id="xtick_7">
     <g id="line2d_13">
      <path d="M 257.600366 185 
L 257.600366 23.557422 
" clip-path="url(#p93fa78582e)" style="fill: none; stroke: #b0b0b0; stroke-opacity: 0.25; stroke-width: 0.6; stroke-linecap: square"/>
     </g>
     <g id="line2d_14">
      <g>
       <use xlink:href="#m7a14f77cf8" x="257.600366" y="185" style="stroke: #000000; stroke-width: 0.8"/>
      </g>
     </g>
     <g id="text_7">
      <!-- 0.6 -->
      <g transform="translate(249.648803 199.597656) scale(0.1 -0.1)">
       <defs>
        <path id="DejaVuSans-19" d="M 2113 2584 
Q 1688 2584 1439 2293 
Q 1191 2003 1191 1497 
Q 1191 994 1439 701 
Q 1688 409 2113 409 
Q 2538 409 2786 701 
Q 3034 994 3034 1497 
Q 3034 2003 2786 2293 
Q 2538 2584 2113 2584 
z
M 3366 4563 
L 3366 3988 
Q 3128 4100 2886 4159 
Q 2644 4219 2406 4219 
Q 1781 4219 1451 3797 
Q 1122 3375 1075 2522 
Q 1259 2794 1537 2939 
Q 1816 3084 2150 3084 
Q 2853 3084 3261 2657 
Q 3669 2231 3669 1497 
Q 3669 778 3244 343 
Q 2819 -91 2113 -91 
Q 1303 -91 875 529 
Q 447 1150 447 2328 
Q 447 3434 972 4092 
Q 1497 4750 2381 4750 
Q 2619 4750 2861 4703 
Q 3103 4656 3366 4563 
z
" transform="scale(0.015625)"/>
       </defs>
       <use xlink:href="#DejaVuSans-13"/>
       <use xlink:href="#DejaVuSans-11" transform="translate(63.625 0)"/>
       <use xlink:href="#DejaVuSans-19" transform="translate(95.40625 0)"/>
      </g>
     </g>
    </g>
    <g id="xtick_8">
     <g id="line2d_15">
      <path d="M 291.36743 185 
L 291.36743 23.557422 
" clip-path="url(#p93fa78582e)" style="fill: none; stroke: #b0b0b0; stroke-opacity: 0.25; stroke-width: 0.6; stroke-linecap: square"/>
     </g>
     <g id="line2d_16">
      <g>
       <use xlink:href="#m7a14f77cf8" x="291.36743" y="185" style="stroke: #000000; stroke-width: 0.8"/>
      </g>
     </g>
     <g id="text_8">
      <!-- 0.7 -->
      <g transform="translate(283.415868 199.597656) scale(0.1 -0.1)">
       <defs>
        <path id="DejaVuSans-1a" d="M 525 4666 
L 3525 4666 
L 3525 4397 
L 1831 0 
L 1172 0 
L 2766 4134 
L 525 4134 
L 525 4666 
z
" transform="scale(0.015625)"/>
       </defs>
       <use xlink:href="#DejaVuSans-13"/>
       <use xlink:href="#DejaVuSans-11" transform="translate(63.625 0)"/>
       <use xlink:href="#DejaVuSans-1a" transform="translate(95.40625 0)"/>
      </g>
     </g>
    </g>
    <g id="xtick_9">
     <g id="line2d_17">
      <path d="M 325.134494 185 
L 325.134494 23.557422 
" clip-path="url(#p93fa78582e)" style="fill: none; stroke: #b0b0b0; stroke-opacity: 0.25; stroke-width: 0.6; stroke-linecap: square"/>
     </g>
     <g id="line2d_18">
      <g>
       <use xlink:href="#m7a14f77cf8" x="325.134494" y="185" style="stroke: #000000; stroke-width: 0.8"/>
      </g>
     </g>
     <g id="text_9">
      <!-- 0.8 -->
      <g transform="translate(317.182932 199.597656) scale(0.1 -0.1)">
       <defs>
        <path id="DejaVuSans-1b" d="M 2034 2216 
Q 1584 2216 1326 1975 
Q 1069 1734 1069 1313 
Q 1069 891 1326 650 
Q 1584 409 2034 409 
Q 2484 409 2743 651 
Q 3003 894 3003 1313 
Q 3003 1734 2745 1975 
Q 2488 2216 2034 2216 
z
M 1403 2484 
Q 997 2584 770 2862 
Q 544 3141 544 3541 
Q 544 4100 942 4425 
Q 1341 4750 2034 4750 
Q 2731 4750 3128 4425 
Q 3525 4100 3525 3541 
Q 3525 3141 3298 2862 
Q 3072 2584 2669 2484 
Q 3125 2378 3379 2068 
Q 3634 1759 3634 1313 
Q 3634 634 3220 271 
Q 2806 -91 2034 -91 
Q 1263 -91 848 271 
Q 434 634 434 1313 
Q 434 1759 690 2068 
Q 947 2378 1403 2484 
z
M 1172 3481 
Q 1172 3119 1398 2916 
Q 1625 2713 2034 2713 
Q 2441 2713 2670 2916 
Q 2900 3119 2900 3481 
Q 2900 3844 2670 4047 
Q 2441 4250 2034 4250 
Q 1625 4250 1398 4047 
Q 1172 3844 1172 3481 
z
" transform="scale(0.015625)"/>
       </defs>
       <use xlink:href="#DejaVuSans-13"/>
       <use xlink:href="#DejaVuSans-11" transform="translate(63.625 0)"/>
       <use xlink:href="#DejaVuSans-1b" transform="translate(95.40625 0)"/>
      </g>
     </g>
    </g>
    <g id="text_10">
     <!-- x -->
     <g transform="translate(191.643359 213.597656) scale(0.1 -0.1)">
      <defs>
       <path id="DejaVuSans-5b" d="M 3513 3500 
L 2247 1797 
L 3578 0 
L 2900 0 
L 1881 1375 
L 863 0 
L 184 0 
L 1544 1831 
L 300 3500 
L 978 3500 
L 1906 2253 
L 2834 3500 
L 3513 3500 
z
" transform="scale(0.015625)"/>
      </defs>
      <use xlink:href="#DejaVuSans-5b"/>
     </g>
    </g>
   </g>
   <g id="matplotlib.axis_2">
    <g id="ytick_1">
     <g id="line2d_19">
      <path d="M 44.103906 177.661701 
L 345.101562 177.661701 
" clip-path="url(#p93fa78582e)" style="fill: none; stroke: #b0b0b0; stroke-opacity: 0.25; stroke-width: 0.6; stroke-linecap: square"/>
     </g>
     <g id="line2d_20">
      <defs>
       <path id="m1178e425db" d="M 0 0 
L -3.5 0 
" style="stroke: #000000; stroke-width: 0.8"/>
      </defs>
      <g>
       <use xlink:href="#m1178e425db" x="44.103906" y="177.661701" style="stroke: #000000; stroke-width: 0.8"/>
      </g>
     </g>
     <g id="text_11">
      <!-- 0.0 -->
      <g transform="translate(21.200781 181.460529) scale(0.1 -0.1)">
       <use xlink:href="#DejaVuSans-13"/>
       <use xlink:href="#DejaVuSans-11" transform="translate(63.625 0)"/>
       <use xlink:href="#DejaVuSans-13" transform="translate(95.40625 0)"/>
      </g>
     </g>
    </g>
    <g id="ytick_2">
     <g id="line2d_21">
      <path d="M 44.103906 147.801761 
L 345.101562 147.801761 
" clip-path="url(#p93fa78582e)" style="fill: none; stroke: #b0b0b0; stroke-opacity: 0.25; stroke-width: 0.6; stroke-linecap: square"/>
     </g>
     <g id="line2d_22">
      <g>
       <use xlink:href="#m1178e425db" x="44.103906" y="147.801761" style="stroke: #000000; stroke-width: 0.8"/>
      </g>
     </g>
     <g id="text_12">
      <!-- 0.5 -->
      <g transform="translate(21.200781 151.60059) scale(0.1 -0.1)">
       <use xlink:href="#DejaVuSans-13"/>
       <use xlink:href="#DejaVuSans-11" transform="translate(63.625 0)"/>
       <use xlink:href="#DejaVuSans-18" transform="translate(95.40625 0)"/>
      </g>
     </g>
    </g>
    <g id="ytick_3">
     <g id="line2d_23">
      <path d="M 44.103906 117.941822 
L 345.101562 117.941822 
" clip-path="url(#p93fa78582e)" style="fill: none; stroke: #b0b0b0; stroke-opacity: 0.25; stroke-width: 0.6; stroke-linecap: square"/>
     </g>
     <g id="line2d_24">
      <g>
       <use xlink:href="#m1178e425db" x="44.103906" y="117.941822" style="stroke: #000000; stroke-width: 0.8"/>
      </g>
     </g>
     <g id="text_13">
      <!-- 1.0 -->
      <g transform="translate(21.200781 121.74065) scale(0.1 -0.1)">
       <use xlink:href="#DejaVuSans-14"/>
       <use xlink:href="#DejaVuSans-11" transform="translate(63.625 0)"/>
       <use xlink:href="#DejaVuSans-13" transform="translate(95.40625 0)"/>
      </g>
     </g>
    </g>
    <g id="ytick_4">
     <g id="line2d_25">
      <path d="M 44.103906 88.081882 
L 345.101562 88.081882 
" clip-path="url(#p93fa78582e)" style="fill: none; stroke: #b0b0b0; stroke-opacity: 0.25; stroke-width: 0.6; stroke-linecap: square"/>
     </g>
     <g id="line2d_26">
      <g>
       <use xlink:href="#m1178e425db" x="44.103906" y="88.081882" style="stroke: #000000; stroke-width: 0.8"/>
      </g>
     </g>
     <g id="text_14">
      <!-- 1.5 -->
      <g transform="translate(21.200781 91.880711) scale(0.1 -0.1)">
       <use xlink:href="#DejaVuSans-14"/>
       <use xlink:href="#DejaVuSans-11" transform="translate(63.625 0)"/>
       <use xlink:href="#DejaVuSans-18" transform="translate(95.40625 0)"/>
      </g>
     </g>
    </g>
    <g id="ytick_5">
     <g id="line2d_27">
      <path d="M 44.103906 58.221943 
L 345.101562 58.221943 
" clip-path="url(#p93fa78582e)" style="fill: none; stroke: #b0b0b0; stroke-opacity: 0.25; stroke-width: 0.6; stroke-linecap: square"/>
     </g>
     <g id="line2d_28">
      <g>
       <use xlink:href="#m1178e425db" x="44.103906" y="58.221943" style="stroke: #000000; stroke-width: 0.8"/>
      </g>
     </g>
     <g id="text_15">
      <!-- 2.0 -->
      <g transform="translate(21.200781 62.020771) scale(0.1 -0.1)">
       <use xlink:href="#DejaVuSans-15"/>
       <use xlink:href="#DejaVuSans-11" transform="translate(63.625 0)"/>
       <use xlink:href="#DejaVuSans-13" transform="translate(95.40625 0)"/>
      </g>
     </g>
    </g>
    <g id="ytick_6">
     <g id="line2d_29">
      <path d="M 44.103906 28.362003 
L 345.101562 28.362003 
" clip-path="url(#p93fa78582e)" style="fill: none; stroke: #b0b0b0; stroke-opacity: 0.25; stroke-width: 0.6; stroke-linecap: square"/>
     </g>
     <g id="line2d_30">
      <g>
       <use xlink:href="#m1178e425db" x="44.103906" y="28.362003" style="stroke: #000000; stroke-width: 0.8"/>
      </g>
     </g>
     <g id="text_16">
      <!-- 2.5 -->
      <g transform="translate(21.200781 32.160832) scale(0.1 -0.1)">
       <use xlink:href="#DejaVuSans-15"/>
       <use xlink:href="#DejaVuSans-11" transform="translate(63.625 0)"/>
       <use xlink:href="#DejaVuSans-18" transform="translate(95.40625 0)"/>
      </g>
     </g>
    </g>
    <g id="text_17">
     <!-- f(x) -->
     <g transform="translate(14.798438 112.899805) rotate(-90) scale(0.1 -0.1)">
      <defs>
       <path id="DejaVuSans-49" d="M 2375 4863 
L 2375 4384 
L 1825 4384 
Q 1516 4384 1395 4259 
Q 1275 4134 1275 3809 
L 1275 3500 
L 2222 3500 
L 2222 3053 
L 1275 3053 
L 1275 0 
L 697 0 
L 697 3053 
L 147 3053 
L 147 3500 
L 697 3500 
L 697 3744 
Q 697 4328 969 4595 
Q 1241 4863 1831 4863 
L 2375 4863 
z
" transform="scale(0.015625)"/>
       <path id="DejaVuSans-b" d="M 1984 4856 
Q 1566 4138 1362 3434 
Q 1159 2731 1159 2009 
Q 1159 1288 1364 580 
Q 1569 -128 1984 -844 
L 1484 -844 
Q 1016 -109 783 600 
Q 550 1309 550 2009 
Q 550 2706 781 3412 
Q 1013 4119 1484 4856 
L 1984 4856 
z
" transform="scale(0.015625)"/>
       <path id="DejaVuSans-c" d="M 513 4856 
L 1013 4856 
Q 1481 4119 1714 3412 
Q 1947 2706 1947 2009 
Q 1947 1309 1714 600 
Q 1481 -109 1013 -844 
L 513 -844 
Q 928 -128 1133 580 
Q 1338 1288 1338 2009 
Q 1338 2731 1133 3434 
Q 928 4138 513 4856 
z
" transform="scale(0.015625)"/>
      </defs>
      <use xlink:href="#DejaVuSans-49"/>
      <use xlink:href="#DejaVuSans-b" transform="translate(35.203125 0)"/>
      <use xlink:href="#DejaVuSans-5b" transform="translate(74.21875 0)"/>
      <use xlink:href="#DejaVuSans-c" transform="translate(133.40625 0)"/>
     </g>
    </g>
   </g>
   <g id="line2d_31">
    <path d="M 57.785618 163.353587 
L 60.528818 150.192357 
L 63.272019 137.908908 
L 66.015219 126.470519 
L 68.758419 115.845195 
L 71.50162 106.00166 
L 74.24482 96.909349 
L 76.98802 88.538401 
L 79.731221 80.85965 
L 82.474421 73.844617 
L 85.217621 67.465505 
L 87.960822 61.695192 
L 90.704022 56.507216 
L 93.447222 51.875778 
L 96.190423 47.775727 
L 98.933623 44.182553 
L 100.991023 41.805926 
L 103.048423 39.691136 
L 105.105824 37.828541 
L 107.163224 36.208691 
L 109.220624 34.822332 
L 111.278024 33.660401 
L 113.335425 32.714021 
L 115.392825 31.974508 
L 117.450225 31.433359 
L 119.507625 31.082259 
L 121.565026 30.913071 
L 123.622426 30.917843 
L 126.365626 31.181395 
L 129.108826 31.722462 
L 131.852027 32.523652 
L 134.595227 33.568117 
L 137.338427 34.839545 
L 140.081628 36.322153 
L 143.510628 38.449182 
L 146.939629 40.853683 
L 150.368629 43.508203 
L 154.48343 46.986776 
L 158.59823 50.744528 
L 163.398831 55.427232 
L 168.885231 61.098848 
L 175.743232 68.546497 
L 184.658633 78.59707 
L 206.604236 103.506127 
L 214.833837 112.421584 
L 221.691838 119.526144 
L 227.864038 125.618915 
L 234.036239 131.393043 
L 239.52264 136.237847 
L 245.00904 140.797988 
L 250.495441 145.06411 
L 255.981842 149.030412 
L 261.468242 152.694403 
L 266.954643 156.056663 
L 271.755244 158.753738 
L 276.555844 161.226278 
L 281.356445 163.479582 
L 286.842845 165.794809 
L 292.329246 167.8439 
L 297.815647 169.64016 
L 303.302047 171.198347 
L 308.788448 172.53443 
L 314.960649 173.793162 
L 321.13285 174.817446 
L 327.99085 175.712103 
L 331.419851 176.074121 
L 331.419851 176.074121 
" clip-path="url(#p93fa78582e)" style="fill: none; stroke: #4c78a8; stroke-width: 2; stroke-linecap: square"/>
   </g>
   <g id="patch_3">
    <path d="M 44.103906 185 
L 44.103906 23.557422 
" style="fill: none; stroke: #000000; stroke-width: 0.8; stroke-linejoin: miter; stroke-linecap: square"/>
   </g>
   <g id="patch_4">
    <path d="M 44.103906 185 
L 345.101562 185 
" style="fill: none; stroke: #000000; stroke-width: 0.8; stroke-linejoin: miter; stroke-linecap: square"/>
   </g>
   <g id="text_18">
    <!-- Beta -->
    <g transform="translate(181.918359 15.557422) scale(0.11 -0.11)">
     <defs>
      <path id="DejaVuSans-25" d="M 1259 2228 
L 1259 519 
L 2272 519 
Q 2781 519 3026 730 
Q 3272 941 3272 1375 
Q 3272 1813 3026 2020 
Q 2781 2228 2272 2228 
L 1259 2228 
z
M 1259 4147 
L 1259 2741 
L 2194 2741 
Q 2656 2741 2882 2914 
Q 3109 3088 3109 3444 
Q 3109 3797 2882 3972 
Q 2656 4147 2194 4147 
L 1259 4147 
z
M 628 4666 
L 2241 4666 
Q 2963 4666 3353 4366 
Q 3744 4066 3744 3513 
Q 3744 3084 3544 2831 
Q 3344 2578 2956 2516 
Q 3422 2416 3680 2098 
Q 3938 1781 3938 1306 
Q 3938 681 3513 340 
Q 3088 0 2303 0 
L 628 0 
L 628 4666 
z
" transform="scale(0.015625)"/>
      <path id="DejaVuSans-48" d="M 3597 1894 
L 3597 1613 
L 953 1613 
Q 991 1019 1311 708 
Q 1631 397 2203 397 
Q 2534 397 2845 478 
Q 3156 559 3463 722 
L 3463 178 
Q 3153 47 2828 -22 
Q 2503 -91 2169 -91 
Q 1331 -91 842 396 
Q 353 884 353 1716 
Q 353 2575 817 3079 
Q 1281 3584 2069 3584 
Q 2775 3584 3186 3129 
Q 3597 2675 3597 1894 
z
M 3022 2063 
Q 3016 2534 2758 2815 
Q 2500 3097 2075 3097 
Q 1594 3097 1305 2825 
Q 1016 2553 972 2059 
L 3022 2063 
z
" transform="scale(0.015625)"/>
      <path id="DejaVuSans-57" d="M 1172 4494 
L 1172 3500 
L 2356 3500 
L 2356 3053 
L 1172 3053 
L 1172 1153 
Q 1172 725 1289 603 
Q 1406 481 1766 481 
L 2356 481 
L 2356 0 
L 1766 0 
Q 1100 0 847 248 
Q 594 497 594 1153 
L 594 3053 
L 172 3053 
L 172 3500 
L 594 3500 
L 594 4494 
L 1172 4494 
z
" transform="scale(0.015625)"/>
      <path id="DejaVuSans-44" d="M 2194 1759 
Q 1497 1759 1228 1600 
Q 959 1441 959 1056 
Q 959 750 1161 570 
Q 1363 391 1709 391 
Q 2188 391 2477 730 
Q 2766 1069 2766 1631 
L 2766 1759 
L 2194 1759 
z
M 3341 1997 
L 3341 0 
L 2766 0 
L 2766 531 
Q 2569 213 2275 61 
Q 1981 -91 1556 -91 
Q 1019 -91 701 211 
Q 384 513 384 1019 
Q 384 1609 779 1909 
Q 1175 2209 1959 2209 
L 2766 2209 
L 2766 2266 
Q 2766 2663 2505 2880 
Q 2244 3097 1772 3097 
Q 1472 3097 1187 3025 
Q 903 2953 641 2809 
L 641 3341 
Q 956 3463 1253 3523 
Q 1550 3584 1831 3584 
Q 2591 3584 2966 3190 
Q 3341 2797 3341 1997 
z
" transform="scale(0.015625)"/>
     </defs>
     <use xlink:href="#DejaVuSans-25"/>
     <use xlink:href="#DejaVuSans-48" transform="translate(68.609375 0)"/>
     <use xlink:href="#DejaVuSans-57" transform="translate(130.140625 0)"/>
     <use xlink:href="#DejaVuSans-44" transform="translate(169.34375 0)"/>
    </g>
   </g>
  </g>
 </g>
 <defs>
  <clipPath id="p93fa78582e">
   <rect x="44.103906" y="23.557422" width="300.997656" height="161.442578"/>
  </clipPath>
 </defs>
</svg>
