<?xml version="1.0" encoding="utf-8" standalone="no"?>
<!DOCTYPE svg PUBLIC "-//W3C//DTD SVG 1.1//EN"
  "http://www.w3.org/Graphics/SVG/1.1/DTD/svg11.dtd">
<svg xmlns:xlink="http://www.w3.org/1999/xlink" width="352.301562pt" height="223.2pt" viewBox="0 0 352.301562 223.2" xmlns="http://www.w3.org/2000/svg" version="1.1">
 <metadata>
  <rdf:RDF xmlns:dc="http://purl.org/dc/elements/1.1/" xmlns:cc="http://creativecommons.org/ns#" xmlns:rdf="http://www.w3.org/1999/02/22-rdf-syntax-ns#">
   <cc:Work>
    <dc:type rdf:resource="http://purl.org/dc/dcmitype/StillImage"/>
    <dc:date>2026-07-05T02:24:31.148001</dc:date>
    <dc:format>image/svg+xml</dc:format>
    <dc:creator>
     <cc:Agent>
      <dc:title>Matplotlib v3.11.0, https://matplotlib.org/</dc:title>
     </cc:Agent>
    </dc:creator>
   </cc:Work>
  </rdf:RDF>
 </metadata>
 <defs>
  <style type="text/css">*{stroke-linejoin: round; stroke-linecap: butt}</style>
 </defs>
 <g id="figure_1">
  <g id="patch_1">
   <path d="M 0 223.2 
L 352.301562 223.2 
L 352.301562 0 
L 0 0 
z
" style="fill: #ffffff"/>
  </g>
  <g id="axes_1">
   <g id="patch_2">
    <path d="M 44.103906 185 
L 345.101562 185 
L 345.101562 23.557422 
L 44.103906 23.557422 
z
" style="fill: #ffffff"/>
   </g>
   <g id="FillBetweenPolyCollection_1">
    <defs>
     <path id="m5e040c4aa6" d="M 57.785618 -45.538299 
L 57.785618 -51.12617 
L 58.471418 -66.856548 
L 59.157218 -93.968255 
L 59.843018 -126.185425 
L 60.528818 -155.50772 
L 61.214618 -176.805236 
L 61.900418 -188.701191 
L 62.586218 -192.304279 
L 63.272019 -189.7119 
L 63.957819 -183.051656 
L 64.643619 -174.063442 
L 65.329419 -164.009584 
L 66.015219 -153.731664 
L 66.701019 -143.749932 
L 67.386819 -134.358669 
L 68.072619 -125.702116 
L 68.758419 -117.82958 
L 69.444219 -110.733256 
L 70.130019 -104.373155 
L 70.815819 -98.693032 
L 71.50162 -93.630225 
L 72.18742 -89.121524 
L 72.87322 -85.106469 
L 73.55902 -81.529061 
L 74.24482 -78.338487 
L 74.93062 -75.48925 
L 75.61642 -72.940992 
L 76.30222 -70.658119 
L 76.98802 -68.609368 
L 77.67382 -66.767346 
L 78.35962 -65.10808 
L 79.04542 -63.610606 
L 79.731221 -62.256586 
L 80.417021 -61.029971 
L 81.102821 -59.916707 
L 81.788621 -58.904468 
L 82.474421 -57.982433 
L 83.160221 -57.141084 
L 83.846021 -56.372043 
L 84.531821 -55.667915 
L 85.217621 -55.022169 
L 85.903421 -54.429022 
L 86.589221 -53.883347 
L 87.275021 -53.38059 
L 87.960822 -52.916697 
L 88.646622 -52.488057 
L 89.332422 -52.091446 
L 90.018222 -51.723977 
L 90.704022 -51.383068 
L 91.389822 -51.066398 
L 92.075622 -50.771885 
L 92.761422 -50.49765 
L 93.447222 -50.242003 
L 94.133022 -50.003416 
L 94.818822 -49.780507 
L 95.504622 -49.572025 
L 96.190423 -49.376835 
L 96.876223 -49.193906 
L 97.562023 -49.022301 
L 98.247823 -48.861165 
L 98.933623 -48.709722 
L 99.619423 -48.567259 
L 100.305223 -48.433128 
L 100.991023 -48.306733 
L 101.676823 -48.18753 
L 102.362623 -48.075018 
L 103.048423 -47.968738 
L 103.734223 -47.868269 
L 104.420024 -47.773221 
L 105.105824 -47.683237 
L 105.791624 -47.597985 
L 106.477424 -47.517162 
L 107.163224 -47.440486 
L 107.849024 -47.367695 
L 108.534824 -47.298548 
L 109.220624 -47.232821 
L 109.906424 -47.170307 
L 110.592224 -47.110813 
L 111.278024 -47.05416 
L 111.963824 -47.000181 
L 112.649625 -46.948722 
L 113.335425 -46.899637 
L 114.021225 -46.852792 
L 114.707025 -46.808061 
L 115.392825 -46.765327 
L 116.078625 -46.724481 
L 116.764425 -46.685419 
L 117.450225 -46.648046 
L 118.136025 -46.612272 
L 118.821825 -46.578012 
L 119.507625 -46.545189 
L 120.193425 -46.513726 
L 120.879225 -46.483556 
L 121.565026 -46.454613 
L 122.250826 -46.426834 
L 122.936626 -46.400163 
L 123.622426 -46.374545 
L 124.308226 -46.349928 
L 124.994026 -46.326265 
L 125.679826 -46.30351 
L 126.365626 -46.281619 
L 127.051426 -46.260553 
L 127.737226 -46.240273 
L 128.423026 -46.220742 
L 129.108826 -46.201927 
L 129.794627 -46.183796 
L 130.480427 -46.166316 
L 131.166227 -46.149461 
L 131.852027 -46.133201 
L 132.537827 -46.117512 
L 133.223627 -46.102368 
L 133.909427 -46.087745 
L 134.595227 -46.073623 
L 135.281027 -46.059979 
L 135.966827 -46.046793 
L 136.652627 -46.034047 
L 137.338427 -46.021723 
L 138.024228 -46.009802 
L 138.710028 -45.998269 
L 139.395828 -45.987109 
L 140.081628 -45.976306 
L 140.767428 -45.965846 
L 141.453228 -45.955715 
L 142.139028 -45.945902 
L 142.824828 -45.936392 
L 143.510628 -45.927176 
L 144.196428 -45.918242 
L 144.882228 -45.909578 
L 145.568028 -45.901176 
L 146.253829 -45.893024 
L 146.939629 -45.885114 
L 147.625429 -45.877438 
L 148.311229 -45.869985 
L 148.997029 -45.862749 
L 149.682829 -45.855722 
L 150.368629 -45.848896 
L 151.054429 -45.842264 
L 151.740229 -45.835818 
L 152.426029 -45.829554 
L 153.111829 -45.823464 
L 153.797629 -45.817542 
L 154.48343 -45.811782 
L 155.16923 -45.80618 
L 155.85503 -45.80073 
L 156.54083 -45.795426 
L 157.22663 -45.790263 
L 157.91243 -45.785238 
L 158.59823 -45.780346 
L 159.28403 -45.775581 
L 159.96983 -45.770941 
L 160.65563 -45.76642 
L 161.34143 -45.762016 
L 162.02723 -45.757724 
L 162.713031 -45.753542 
L 163.398831 -45.749464 
L 164.084631 -45.745489 
L 164.770431 -45.741613 
L 165.456231 -45.737833 
L 166.142031 -45.734146 
L 166.827831 -45.730549 
L 167.513631 -45.727039 
L 168.199431 -45.723614 
L 168.885231 -45.720272 
L 169.571031 -45.717009 
L 170.256831 -45.713824 
L 170.942632 -45.710714 
L 171.628432 -45.707677 
L 172.314232 -45.70471 
L 173.000032 -45.701813 
L 173.685832 -45.698982 
L 174.371632 -45.696216 
L 175.057432 -45.693513 
L 175.743232 -45.690872 
L 176.429032 -45.68829 
L 177.114832 -45.685765 
L 177.800632 -45.683297 
L 178.486432 -45.680884 
L 179.172233 -45.678524 
L 179.858033 -45.676216 
L 180.543833 -45.673958 
L 181.229633 -45.671749 
L 181.915433 -45.669588 
L 182.601233 -45.667473 
L 183.287033 -45.665403 
L 183.972833 -45.663377 
L 184.658633 -45.661394 
L 185.344433 -45.659452 
L 186.030233 -45.657552 
L 186.716033 -45.65569 
L 187.401834 -45.653867 
L 188.087634 -45.652082 
L 188.773434 -45.650333 
L 189.459234 -45.64862 
L 190.145034 -45.646942 
L 190.830834 -45.645297 
L 191.516634 -45.643685 
L 192.202434 -45.642106 
L 192.888234 -45.640558 
L 193.574034 -45.639041 
L 194.259834 -45.637553 
L 194.945634 -45.636094 
L 195.631434 -45.634664 
L 196.317235 -45.633262 
L 197.003035 -45.631887 
L 197.688835 -45.630538 
L 198.374635 -45.629215 
L 199.060435 -45.627917 
L 199.746235 -45.626643 
L 200.432035 -45.625394 
L 201.117835 -45.624168 
L 201.803635 -45.622965 
L 202.489435 -45.621784 
L 203.175235 -45.620625 
L 203.861035 -45.619488 
L 204.546836 -45.618371 
L 205.232636 -45.617275 
L 205.918436 -45.616198 
L 206.604236 -45.615141 
L 207.290036 -45.614103 
L 207.975836 -45.613084 
L 208.661636 -45.612083 
L 209.347436 -45.6111 
L 210.033236 -45.610134 
L 210.719036 -45.609185 
L 211.404836 -45.608252 
L 212.090636 -45.607336 
L 212.776437 -45.606436 
L 213.462237 -45.605551 
L 214.148037 -45.604682 
L 214.833837 -45.603827 
L 215.519637 -45.602988 
L 216.205437 -45.602162 
L 216.891237 -45.60135 
L 217.577037 -45.600552 
L 218.262837 -45.599768 
L 218.948637 -45.598997 
L 219.634437 -45.598238 
L 220.320237 -45.597492 
L 221.006038 -45.596758 
L 221.691838 -45.596037 
L 222.377638 -45.595327 
L 223.063438 -45.594629 
L 223.749238 -45.593942 
L 224.435038 -45.593266 
L 225.120838 -45.592601 
L 225.806638 -45.591947 
L 226.492438 -45.591303 
L 227.178238 -45.59067 
L 227.864038 -45.590047 
L 228.549838 -45.589433 
L 229.235639 -45.588829 
L 229.921439 -45.588235 
L 230.607239 -45.58765 
L 231.293039 -45.587073 
L 231.978839 -45.586506 
L 232.664639 -45.585948 
L 233.350439 -45.585398 
L 234.036239 -45.584857 
L 234.722039 -45.584324 
L 235.407839 -45.583799 
L 236.093639 -45.583282 
L 236.779439 -45.582772 
L 237.46524 -45.582271 
L 238.15104 -45.581777 
L 238.83684 -45.58129 
L 239.52264 -45.580811 
L 240.20844 -45.580338 
L 240.89424 -45.579873 
L 241.58004 -45.579414 
L 242.26584 -45.578962 
L 242.95164 -45.578517 
L 243.63744 -45.578078 
L 244.32324 -45.577646 
L 245.00904 -45.57722 
L 245.694841 -45.5768 
L 246.380641 -45.576386 
L 247.066441 -45.575977 
L 247.752241 -45.575575 
L 248.438041 -45.575178 
L 249.123841 -45.574787 
L 249.809641 -45.574402 
L 250.495441 -45.574022 
L 251.181241 -45.573647 
L 251.867041 -45.573278 
L 252.552841 -45.572913 
L 253.238641 -45.572554 
L 253.924442 -45.572199 
L 254.610242 -45.57185 
L 255.296042 -45.571505 
L 255.981842 -45.571165 
L 256.667642 -45.570829 
L 257.353442 -45.570499 
L 258.039242 -45.570172 
L 258.725042 -45.56985 
L 259.410842 -45.569532 
L 260.096642 -45.569219 
L 260.782442 -45.56891 
L 261.468242 -45.568605 
L 262.154043 -45.568303 
L 262.839843 -45.568006 
L 263.525643 -45.567713 
L 264.211443 -45.567424 
L 264.897243 -45.567138 
L 265.583043 -45.566856 
L 266.268843 -45.566578 
L 266.954643 -45.566303 
L 267.640443 -45.566032 
L 268.326243 -45.565765 
L 269.012043 -45.5655 
L 269.697843 -45.56524 
L 270.383644 -45.564982 
L 271.069444 -45.564728 
L 271.755244 -45.564477 
L 272.441044 -45.564229 
L 273.126844 -45.563984 
L 273.812644 -45.563743 
L 274.498444 -45.563504 
L 275.184244 -45.563269 
L 275.870044 -45.563036 
L 276.555844 -45.562806 
L 277.241644 -45.562579 
L 277.927444 -45.562355 
L 278.613244 -45.562133 
L 279.299045 -45.561915 
L 279.984845 -45.561699 
L 280.670645 -45.561485 
L 281.356445 -45.561274 
L 282.042245 -45.561066 
L 282.728045 -45.56086 
L 283.413845 -45.560657 
L 284.099645 -45.560456 
L 284.785445 -45.560257 
L 285.471245 -45.560061 
L 286.157045 -45.559868 
L 286.842845 -45.559676 
L 287.528646 -45.559487 
L 288.214446 -45.5593 
L 288.900246 -45.559115 
L 289.586046 -45.558932 
L 290.271846 -45.558752 
L 290.957646 -45.558573 
L 291.643446 -45.558397 
L 292.329246 -45.558223 
L 293.015046 -45.55805 
L 293.700846 -45.55788 
L 294.386646 -45.557712 
L 295.072446 -45.557545 
L 295.758247 -45.557381 
L 296.444047 -45.557218 
L 297.129847 -45.557057 
L 297.815647 -45.556898 
L 298.501447 -45.556741 
L 299.187247 -45.556585 
L 299.873047 -45.556432 
L 300.558847 -45.556279 
L 301.244647 -45.556129 
L 301.930447 -45.555981 
L 302.616247 -45.555834 
L 303.302047 -45.555688 
L 303.987848 -45.555544 
L 304.673648 -45.555402 
L 305.359448 -45.555262 
L 306.045248 -45.555122 
L 306.731048 -45.554985 
L 307.416848 -45.554849 
L 308.102648 -45.554714 
L 308.788448 -45.554581 
L 309.474248 -45.554449 
L 310.160048 -45.554319 
L 310.845848 -45.55419 
L 311.531648 -45.554063 
L 312.217449 -45.553936 
L 312.903249 -45.553812 
L 313.589049 -45.553688 
L 314.274849 -45.553566 
L 314.960649 -45.553445 
L 315.646449 -45.553325 
L 316.332249 -45.553207 
L 317.018049 -45.55309 
L 317.703849 -45.552974 
L 318.389649 -45.552859 
L 319.075449 -45.552746 
L 319.761249 -45.552633 
L 320.44705 -45.552522 
L 321.13285 -45.552412 
L 321.81865 -45.552303 
L 322.50445 -45.552196 
L 323.19025 -45.552089 
L 323.87605 -45.551983 
L 324.56185 -45.551879 
L 325.24765 -45.551775 
L 325.93345 -45.551673 
L 326.61925 -45.551572 
L 327.30505 -45.551471 
L 327.99085 -45.551372 
L 328.676651 -45.551274 
L 329.362451 -45.551176 
L 330.048251 -45.55108 
L 330.734051 -45.550984 
L 331.419851 -45.55089 
L 331.419851 -45.538299 
L 331.419851 -45.538299 
L 330.734051 -45.538299 
L 330.048251 -45.538299 
L 329.362451 -45.538299 
L 328.676651 -45.538299 
L 327.99085 -45.538299 
L 327.30505 -45.538299 
L 326.61925 -45.538299 
L 325.93345 -45.538299 
L 325.24765 -45.538299 
L 324.56185 -45.538299 
L 323.87605 -45.538299 
L 323.19025 -45.538299 
L 322.50445 -45.538299 
L 321.81865 -45.538299 
L 321.13285 -45.538299 
L 320.44705 -45.538299 
L 319.761249 -45.538299 
L 319.075449 -45.538299 
L 318.389649 -45.538299 
L 317.703849 -45.538299 
L 317.018049 -45.538299 
L 316.332249 -45.538299 
L 315.646449 -45.538299 
L 314.960649 -45.538299 
L 314.274849 -45.538299 
L 313.589049 -45.538299 
L 312.903249 -45.538299 
L 312.217449 -45.538299 
L 311.531648 -45.538299 
L 310.845848 -45.538299 
L 310.160048 -45.538299 
L 309.474248 -45.538299 
L 308.788448 -45.538299 
L 308.102648 -45.538299 
L 307.416848 -45.538299 
L 306.731048 -45.538299 
L 306.045248 -45.538299 
L 305.359448 -45.538299 
L 304.673648 -45.538299 
L 303.987848 -45.538299 
L 303.302047 -45.538299 
L 302.616247 -45.538299 
L 301.930447 -45.538299 
L 301.244647 -45.538299 
L 300.558847 -45.538299 
L 299.873047 -45.538299 
L 299.187247 -45.538299 
L 298.501447 -45.538299 
L 297.815647 -45.538299 
L 297.129847 -45.538299 
L 296.444047 -45.538299 
L 295.758247 -45.538299 
L 295.072446 -45.538299 
L 294.386646 -45.538299 
L 293.700846 -45.538299 
L 293.015046 -45.538299 
L 292.329246 -45.538299 
L 291.643446 -45.538299 
L 290.957646 -45.538299 
L 290.271846 -45.538299 
L 289.586046 -45.538299 
L 288.900246 -45.538299 
L 288.214446 -45.538299 
L 287.528646 -45.538299 
L 286.842845 -45.538299 
L 286.157045 -45.538299 
L 285.471245 -45.538299 
L 284.785445 -45.538299 
L 284.099645 -45.538299 
L 283.413845 -45.538299 
L 282.728045 -45.538299 
L 282.042245 -45.538299 
L 281.356445 -45.538299 
L 280.670645 -45.538299 
L 279.984845 -45.538299 
L 279.299045 -45.538299 
L 278.613244 -45.538299 
L 277.927444 -45.538299 
L 277.241644 -45.538299 
L 276.555844 -45.538299 
L 275.870044 -45.538299 
L 275.184244 -45.538299 
L 274.498444 -45.538299 
L 273.812644 -45.538299 
L 273.126844 -45.538299 
L 272.441044 -45.538299 
L 271.755244 -45.538299 
L 271.069444 -45.538299 
L 270.383644 -45.538299 
L 269.697843 -45.538299 
L 269.012043 -45.538299 
L 268.326243 -45.538299 
L 267.640443 -45.538299 
L 266.954643 -45.538299 
L 266.268843 -45.538299 
L 265.583043 -45.538299 
L 264.897243 -45.538299 
L 264.211443 -45.538299 
L 263.525643 -45.538299 
L 262.839843 -45.538299 
L 262.154043 -45.538299 
L 261.468242 -45.538299 
L 260.782442 -45.538299 
L 260.096642 -45.538299 
L 259.410842 -45.538299 
L 258.725042 -45.538299 
L 258.039242 -45.538299 
L 257.353442 -45.538299 
L 256.667642 -45.538299 
L 255.981842 -45.538299 
L 255.296042 -45.538299 
L 254.610242 -45.538299 
L 253.924442 -45.538299 
L 253.238641 -45.538299 
L 252.552841 -45.538299 
L 251.867041 -45.538299 
L 251.181241 -45.538299 
L 250.495441 -45.538299 
L 249.809641 -45.538299 
L 249.123841 -45.538299 
L 248.438041 -45.538299 
L 247.752241 -45.538299 
L 247.066441 -45.538299 
L 246.380641 -45.538299 
L 245.694841 -45.538299 
L 245.00904 -45.538299 
L 244.32324 -45.538299 
L 243.63744 -45.538299 
L 242.95164 -45.538299 
L 242.26584 -45.538299 
L 241.58004 -45.538299 
L 240.89424 -45.538299 
L 240.20844 -45.538299 
L 239.52264 -45.538299 
L 238.83684 -45.538299 
L 238.15104 -45.538299 
L 237.46524 -45.538299 
L 236.779439 -45.538299 
L 236.093639 -45.538299 
L 235.407839 -45.538299 
L 234.722039 -45.538299 
L 234.036239 -45.538299 
L 233.350439 -45.538299 
L 232.664639 -45.538299 
L 231.978839 -45.538299 
L 231.293039 -45.538299 
L 230.607239 -45.538299 
L 229.921439 -45.538299 
L 229.235639 -45.538299 
L 228.549838 -45.538299 
L 227.864038 -45.538299 
L 227.178238 -45.538299 
L 226.492438 -45.538299 
L 225.806638 -45.538299 
L 225.120838 -45.538299 
L 224.435038 -45.538299 
L 223.749238 -45.538299 
L 223.063438 -45.538299 
L 222.377638 -45.538299 
L 221.691838 -45.538299 
L 221.006038 -45.538299 
L 220.320237 -45.538299 
L 219.634437 -45.538299 
L 218.948637 -45.538299 
L 218.262837 -45.538299 
L 217.577037 -45.538299 
L 216.891237 -45.538299 
L 216.205437 -45.538299 
L 215.519637 -45.538299 
L 214.833837 -45.538299 
L 214.148037 -45.538299 
L 213.462237 -45.538299 
L 212.776437 -45.538299 
L 212.090636 -45.538299 
L 211.404836 -45.538299 
L 210.719036 -45.538299 
L 210.033236 -45.538299 
L 209.347436 -45.538299 
L 208.661636 -45.538299 
L 207.975836 -45.538299 
L 207.290036 -45.538299 
L 206.604236 -45.538299 
L 205.918436 -45.538299 
L 205.232636 -45.538299 
L 204.546836 -45.538299 
L 203.861035 -45.538299 
L 203.175235 -45.538299 
L 202.489435 -45.538299 
L 201.803635 -45.538299 
L 201.117835 -45.538299 
L 200.432035 -45.538299 
L 199.746235 -45.538299 
L 199.060435 -45.538299 
L 198.374635 -45.538299 
L 197.688835 -45.538299 
L 197.003035 -45.538299 
L 196.317235 -45.538299 
L 195.631434 -45.538299 
L 194.945634 -45.538299 
L 194.259834 -45.538299 
L 193.574034 -45.538299 
L 192.888234 -45.538299 
L 192.202434 -45.538299 
L 191.516634 -45.538299 
L 190.830834 -45.538299 
L 190.145034 -45.538299 
L 189.459234 -45.538299 
L 188.773434 -45.538299 
L 188.087634 -45.538299 
L 187.401834 -45.538299 
L 186.716033 -45.538299 
L 186.030233 -45.538299 
L 185.344433 -45.538299 
L 184.658633 -45.538299 
L 183.972833 -45.538299 
L 183.287033 -45.538299 
L 182.601233 -45.538299 
L 181.915433 -45.538299 
L 181.229633 -45.538299 
L 180.543833 -45.538299 
L 179.858033 -45.538299 
L 179.172233 -45.538299 
L 178.486432 -45.538299 
L 177.800632 -45.538299 
L 177.114832 -45.538299 
L 176.429032 -45.538299 
L 175.743232 -45.538299 
L 175.057432 -45.538299 
L 174.371632 -45.538299 
L 173.685832 -45.538299 
L 173.000032 -45.538299 
L 172.314232 -45.538299 
L 171.628432 -45.538299 
L 170.942632 -45.538299 
L 170.256831 -45.538299 
L 169.571031 -45.538299 
L 168.885231 -45.538299 
L 168.199431 -45.538299 
L 167.513631 -45.538299 
L 166.827831 -45.538299 
L 166.142031 -45.538299 
L 165.456231 -45.538299 
L 164.770431 -45.538299 
L 164.084631 -45.538299 
L 163.398831 -45.538299 
L 162.713031 -45.538299 
L 162.02723 -45.538299 
L 161.34143 -45.538299 
L 160.65563 -45.538299 
L 159.96983 -45.538299 
L 159.28403 -45.538299 
L 158.59823 -45.538299 
L 157.91243 -45.538299 
L 157.22663 -45.538299 
L 156.54083 -45.538299 
L 155.85503 -45.538299 
L 155.16923 -45.538299 
L 154.48343 -45.538299 
L 153.797629 -45.538299 
L 153.111829 -45.538299 
L 152.426029 -45.538299 
L 151.740229 -45.538299 
L 151.054429 -45.538299 
L 150.368629 -45.538299 
L 149.682829 -45.538299 
L 148.997029 -45.538299 
L 148.311229 -45.538299 
L 147.625429 -45.538299 
L 146.939629 -45.538299 
L 146.253829 -45.538299 
L 145.568028 -45.538299 
L 144.882228 -45.538299 
L 144.196428 -45.538299 
L 143.510628 -45.538299 
L 142.824828 -45.538299 
L 142.139028 -45.538299 
L 141.453228 -45.538299 
L 140.767428 -45.538299 
L 140.081628 -45.538299 
L 139.395828 -45.538299 
L 138.710028 -45.538299 
L 138.024228 -45.538299 
L 137.338427 -45.538299 
L 136.652627 -45.538299 
L 135.966827 -45.538299 
L 135.281027 -45.538299 
L 134.595227 -45.538299 
L 133.909427 -45.538299 
L 133.223627 -45.538299 
L 132.537827 -45.538299 
L 131.852027 -45.538299 
L 131.166227 -45.538299 
L 130.480427 -45.538299 
L 129.794627 -45.538299 
L 129.108826 -45.538299 
L 128.423026 -45.538299 
L 127.737226 -45.538299 
L 127.051426 -45.538299 
L 126.365626 -45.538299 
L 125.679826 -45.538299 
L 124.994026 -45.538299 
L 124.308226 -45.538299 
L 123.622426 -45.538299 
L 122.936626 -45.538299 
L 122.250826 -45.538299 
L 121.565026 -45.538299 
L 120.879225 -45.538299 
L 120.193425 -45.538299 
L 119.507625 -45.538299 
L 118.821825 -45.538299 
L 118.136025 -45.538299 
L 117.450225 -45.538299 
L 116.764425 -45.538299 
L 116.078625 -45.538299 
L 115.392825 -45.538299 
L 114.707025 -45.538299 
L 114.021225 -45.538299 
L 113.335425 -45.538299 
L 112.649625 -45.538299 
L 111.963824 -45.538299 
L 111.278024 -45.538299 
L 110.592224 -45.538299 
L 109.906424 -45.538299 
L 109.220624 -45.538299 
L 108.534824 -45.538299 
L 107.849024 -45.538299 
L 107.163224 -45.538299 
L 106.477424 -45.538299 
L 105.791624 -45.538299 
L 105.105824 -45.538299 
L 104.420024 -45.538299 
L 103.734223 -45.538299 
L 103.048423 -45.538299 
L 102.362623 -45.538299 
L 101.676823 -45.538299 
L 100.991023 -45.538299 
L 100.305223 -45.538299 
L 99.619423 -45.538299 
L 98.933623 -45.538299 
L 98.247823 -45.538299 
L 97.562023 -45.538299 
L 96.876223 -45.538299 
L 96.190423 -45.538299 
L 95.504622 -45.538299 
L 94.818822 -45.538299 
L 94.133022 -45.538299 
L 93.447222 -45.538299 
L 92.761422 -45.538299 
L 92.075622 -45.538299 
L 91.389822 -45.538299 
L 90.704022 -45.538299 
L 90.018222 -45.538299 
L 89.332422 -45.538299 
L 88.646622 -45.538299 
L 87.960822 -45.538299 
L 87.275021 -45.538299 
L 86.589221 -45.538299 
L 85.903421 -45.538299 
L 85.217621 -45.538299 
L 84.531821 -45.538299 
L 83.846021 -45.538299 
L 83.160221 -45.538299 
L 82.474421 -45.538299 
L 81.788621 -45.538299 
L 81.102821 -45.538299 
L 80.417021 -45.538299 
L 79.731221 -45.538299 
L 79.04542 -45.538299 
L 78.35962 -45.538299 
L 77.67382 -45.538299 
L 76.98802 -45.538299 
L 76.30222 -45.538299 
L 75.61642 -45.538299 
L 74.93062 -45.538299 
L 74.24482 -45.538299 
L 73.55902 -45.538299 
L 72.87322 -45.538299 
L 72.18742 -45.538299 
L 71.50162 -45.538299 
L 70.815819 -45.538299 
L 70.130019 -45.538299 
L 69.444219 -45.538299 
L 68.758419 -45.538299 
L 68.072619 -45.538299 
L 67.386819 -45.538299 
L 66.701019 -45.538299 
L 66.015219 -45.538299 
L 65.329419 -45.538299 
L 64.643619 -45.538299 
L 63.957819 -45.538299 
L 63.272019 -45.538299 
L 62.586218 -45.538299 
L 61.900418 -45.538299 
L 61.214618 -45.538299 
L 60.528818 -45.538299 
L 59.843018 -45.538299 
L 59.157218 -45.538299 
L 58.471418 -45.538299 
L 57.785618 -45.538299 
z
" style="stroke: #4c78a8; stroke-opacity: 0.15"/>
    </defs>
    <g clip-path="url(#pbb55bad6a0)">
     <use xlink:href="#m5e040c4aa6" x="0" y="223.2" style="fill: #4c78a8; fill-opacity: 0.15; stroke: #4c78a8; stroke-opacity: 0.15"/>
    </g>
   </g>
   <g id="matplotlib.axis_1">
    <g id="xtick_1">
     <g id="line2d_1">
      <path d="M 56.109574 185 
L 56.109574 23.557422 
" clip-path="url(#pbb55bad6a0)" style="fill: none; stroke: #b0b0b0; stroke-opacity: 0.25; stroke-width: 0.6; stroke-linecap: square"/>
     </g>
     <g id="line2d_2">
      <defs>
       <path id="m9fc2550bb7" d="M 0 0 
L 0 3.5 
" style="stroke: #000000; stroke-width: 0.8"/>
      </defs>
      <g>
       <use xlink:href="#m9fc2550bb7" x="56.109574" y="185" style="stroke: #000000; stroke-width: 0.8"/>
      </g>
     </g>
     <g id="text_1">
      <!-- 0 -->
      <g transform="translate(52.928324 199.597656) scale(0.1 -0.1)">
       <defs>
        <path id="DejaVuSans-13" d="M 2034 4250 
Q 1547 4250 1301 3770 
Q 1056 3291 1056 2328 
Q 1056 1369 1301 889 
Q 1547 409 2034 409 
Q 2525 409 2770 889 
Q 3016 1369 3016 2328 
Q 3016 3291 2770 3770 
Q 2525 4250 2034 4250 
z
M 2034 4750 
Q 2819 4750 3233 4129 
Q 3647 3509 3647 2328 
Q 3647 1150 3233 529 
Q 2819 -91 2034 -91 
Q 1250 -91 836 529 
Q 422 1150 422 2328 
Q 422 3509 836 4129 
Q 1250 4750 2034 4750 
z
" transform="scale(0.015625)"/>
       </defs>
       <use xlink:href="#DejaVuSans-13"/>
      </g>
     </g>
    </g>
    <g id="xtick_2">
     <g id="line2d_3">
      <path d="M 106.390889 185 
L 106.390889 23.557422 
" clip-path="url(#pbb55bad6a0)" style="fill: none; stroke: #b0b0b0; stroke-opacity: 0.25; stroke-width: 0.6; stroke-linecap: square"/>
     </g>
     <g id="line2d_4">
      <g>
       <use xlink:href="#m9fc2550bb7" x="106.390889" y="185" style="stroke: #000000; stroke-width: 0.8"/>
      </g>
     </g>
     <g id="text_2">
      <!-- 10 -->
      <g transform="translate(100.028389 199.597656) scale(0.1 -0.1)">
       <defs>
        <path id="DejaVuSans-14" d="M 794 531 
L 1825 531 
L 1825 4091 
L 703 3866 
L 703 4441 
L 1819 4666 
L 2450 4666 
L 2450 531 
L 3481 531 
L 3481 0 
L 794 0 
L 794 531 
z
" transform="scale(0.015625)"/>
       </defs>
       <use xlink:href="#DejaVuSans-14"/>
       <use xlink:href="#DejaVuSans-13" transform="translate(63.625 0)"/>
      </g>
     </g>
    </g>
    <g id="xtick_3">
     <g id="line2d_5">
      <path d="M 156.672204 185 
L 156.672204 23.557422 
" clip-path="url(#pbb55bad6a0)" style="fill: none; stroke: #b0b0b0; stroke-opacity: 0.25; stroke-width: 0.6; stroke-linecap: square"/>
     </g>
     <g id="line2d_6">
      <g>
       <use xlink:href="#m9fc2550bb7" x="156.672204" y="185" style="stroke: #000000; stroke-width: 0.8"/>
      </g>
     </g>
     <g id="text_3">
      <!-- 20 -->
      <g transform="translate(150.309704 199.597656) scale(0.1 -0.1)">
       <defs>
        <path id="DejaVuSans-15" d="M 1228 531 
L 3431 531 
L 3431 0 
L 469 0 
L 469 531 
Q 828 903 1448 1529 
Q 2069 2156 2228 2338 
Q 2531 2678 2651 2914 
Q 2772 3150 2772 3378 
Q 2772 3750 2511 3984 
Q 2250 4219 1831 4219 
Q 1534 4219 1204 4116 
Q 875 4013 500 3803 
L 500 4441 
Q 881 4594 1212 4672 
Q 1544 4750 1819 4750 
Q 2544 4750 2975 4387 
Q 3406 4025 3406 3419 
Q 3406 3131 3298 2873 
Q 3191 2616 2906 2266 
Q 2828 2175 2409 1742 
Q 1991 1309 1228 531 
z
" transform="scale(0.015625)"/>
       </defs>
       <use xlink:href="#DejaVuSans-15"/>
       <use xlink:href="#DejaVuSans-13" transform="translate(63.625 0)"/>
      </g>
     </g>
    </g>
    <g id="xtick_4">
     <g id="line2d_7">
      <path d="M 206.953518 185 
L 206.953518 23.557422 
" clip-path="url(#pbb55bad6a0)" style="fill: none; stroke: #b0b0b0; stroke-opacity: 0.25; stroke-width: 0.6; stroke-linecap: square"/>
     </g>
     <g id="line2d_8">
      <g>
       <use xlink:href="#m9fc2550bb7" x="206.953518" y="185" style="stroke: #000000; stroke-width: 0.8"/>
      </g>
     </g>
     <g id="text_4">
      <!-- 30 -->
      <g transform="translate(200.591018 199.597656) scale(0.1 -0.1)">
       <defs>
        <path id="DejaVuSans-16" d="M 2597 2516 
Q 3050 2419 3304 2112 
Q 3559 1806 3559 1356 
Q 3559 666 3084 287 
Q 2609 -91 1734 -91 
Q 1441 -91 1130 -33 
Q 819 25 488 141 
L 488 750 
Q 750 597 1062 519 
Q 1375 441 1716 441 
Q 2309 441 2620 675 
Q 2931 909 2931 1356 
Q 2931 1769 2642 2001 
Q 2353 2234 1838 2234 
L 1294 2234 
L 1294 2753 
L 1863 2753 
Q 2328 2753 2575 2939 
Q 2822 3125 2822 3475 
Q 2822 3834 2567 4026 
Q 2313 4219 1838 4219 
Q 1578 4219 1281 4162 
Q 984 4106 628 3988 
L 628 4550 
Q 988 4650 1302 4700 
Q 1616 4750 1894 4750 
Q 2613 4750 3031 4423 
Q 3450 4097 3450 3541 
Q 3450 3153 3228 2886 
Q 3006 2619 2597 2516 
z
" transform="scale(0.015625)"/>
       </defs>
       <use xlink:href="#DejaVuSans-16"/>
       <use xlink:href="#DejaVuSans-13" transform="translate(63.625 0)"/>
      </g>
     </g>
    </g>
    <g id="xtick_5">
     <g id="line2d_9">
      <path d="M 257.234833 185 
L 257.234833 23.557422 
" clip-path="url(#pbb55bad6a0)" style="fill: none; stroke: #b0b0b0; stroke-opacity: 0.25; stroke-width: 0.6; stroke-linecap: square"/>
     </g>
     <g id="line2d_10">
      <g>
       <use xlink:href="#m9fc2550bb7" x="257.234833" y="185" style="stroke: #000000; stroke-width: 0.8"/>
      </g>
     </g>
     <g id="text_5">
      <!-- 40 -->
      <g transform="translate(250.872333 199.597656) scale(0.1 -0.1)">
       <defs>
        <path id="DejaVuSans-17" d="M 2419 4116 
L 825 1625 
L 2419 1625 
L 2419 4116 
z
M 2253 4666 
L 3047 4666 
L 3047 1625 
L 3713 1625 
L 3713 1100 
L 3047 1100 
L 3047 0 
L 2419 0 
L 2419 1100 
L 313 1100 
L 313 1709 
L 2253 4666 
z
" transform="scale(0.015625)"/>
       </defs>
       <use xlink:href="#DejaVuSans-17"/>
       <use xlink:href="#DejaVuSans-13" transform="translate(63.625 0)"/>
      </g>
     </g>
    </g>
    <g id="xtick_6">
     <g id="line2d_11">
      <path d="M 307.516148 185 
L 307.516148 23.557422 
" clip-path="url(#pbb55bad6a0)" style="fill: none; stroke: #b0b0b0; stroke-opacity: 0.25; stroke-width: 0.6; stroke-linecap: square"/>
     </g>
     <g id="line2d_12">
      <g>
       <use xlink:href="#m9fc2550bb7" x="307.516148" y="185" style="stroke: #000000; stroke-width: 0.8"/>
      </g>
     </g>
     <g id="text_6">
      <!-- 50 -->
      <g transform="translate(301.153648 199.597656) scale(0.1 -0.1)">
       <defs>
        <path id="DejaVuSans-18" d="M 691 4666 
L 3169 4666 
L 3169 4134 
L 1269 4134 
L 1269 2991 
Q 1406 3038 1543 3061 
Q 1681 3084 1819 3084 
Q 2600 3084 3056 2656 
Q 3513 2228 3513 1497 
Q 3513 744 3044 326 
Q 2575 -91 1722 -91 
Q 1428 -91 1123 -41 
Q 819 9 494 109 
L 494 744 
Q 775 591 1075 516 
Q 1375 441 1709 441 
Q 2250 441 2565 725 
Q 2881 1009 2881 1497 
Q 2881 1984 2565 2268 
Q 2250 2553 1709 2553 
Q 1456 2553 1204 2497 
Q 953 2441 691 2322 
L 691 4666 
z
" transform="scale(0.015625)"/>
       </defs>
       <use xlink:href="#DejaVuSans-18"/>
       <use xlink:href="#DejaVuSans-13" transform="translate(63.625 0)"/>
      </g>
     </g>
    </g>
    <g id="text_7">
     <!-- x -->
     <g transform="translate(191.643359 213.597656) scale(0.1 -0.1)">
      <defs>
       <path id="DejaVuSans-5b" d="M 3513 3500 
L 2247 1797 
L 3578 0 
L 2900 0 
L 1881 1375 
L 863 0 
L 184 0 
L 1544 1831 
L 300 3500 
L 978 3500 
L 1906 2253 
L 2834 3500 
L 3513 3500 
z
" transform="scale(0.015625)"/>
      </defs>
      <use xlink:href="#DejaVuSans-5b"/>
     </g>
    </g>
   </g>
   <g id="matplotlib.axis_2">
    <g id="ytick_1">
     <g id="line2d_13">
      <path d="M 44.103906 177.661701 
L 345.101562 177.661701 
" clip-path="url(#pbb55bad6a0)" style="fill: none; stroke: #b0b0b0; stroke-opacity: 0.25; stroke-width: 0.6; stroke-linecap: square"/>
     </g>
     <g id="line2d_14">
      <defs>
       <path id="ma9b4f914a7" d="M 0 0 
L -3.5 0 
" style="stroke: #000000; stroke-width: 0.8"/>
      </defs>
      <g>
       <use xlink:href="#ma9b4f914a7" x="44.103906" y="177.661701" style="stroke: #000000; stroke-width: 0.8"/>
      </g>
     </g>
     <g id="text_8">
      <!-- 0.0 -->
      <g transform="translate(21.200781 181.460529) scale(0.1 -0.1)">
       <defs>
        <path id="DejaVuSans-11" d="M 684 794 
L 1344 794 
L 1344 0 
L 684 0 
L 684 794 
z
" transform="scale(0.015625)"/>
       </defs>
       <use xlink:href="#DejaVuSans-13"/>
       <use xlink:href="#DejaVuSans-11" transform="translate(63.625 0)"/>
       <use xlink:href="#DejaVuSans-13" transform="translate(95.40625 0)"/>
      </g>
     </g>
    </g>
    <g id="ytick_2">
     <g id="line2d_15">
      <path d="M 44.103906 143.16867 
L 345.101562 143.16867 
" clip-path="url(#pbb55bad6a0)" style="fill: none; stroke: #b0b0b0; stroke-opacity: 0.25; stroke-width: 0.6; stroke-linecap: square"/>
     </g>
     <g id="line2d_16">
      <g>
       <use xlink:href="#ma9b4f914a7" x="44.103906" y="143.16867" style="stroke: #000000; stroke-width: 0.8"/>
      </g>
     </g>
     <g id="text_9">
      <!-- 0.1 -->
      <g transform="translate(21.200781 146.967498) scale(0.1 -0.1)">
       <use xlink:href="#DejaVuSans-13"/>
       <use xlink:href="#DejaVuSans-11" transform="translate(63.625 0)"/>
       <use xlink:href="#DejaVuSans-14" transform="translate(95.40625 0)"/>
      </g>
     </g>
    </g>
    <g id="ytick_3">
     <g id="line2d_17">
      <path d="M 44.103906 108.675639 
L 345.101562 108.675639 
" clip-path="url(#pbb55bad6a0)" style="fill: none; stroke: #b0b0b0; stroke-opacity: 0.25; stroke-width: 0.6; stroke-linecap: square"/>
     </g>
     <g id="line2d_18">
      <g>
       <use xlink:href="#ma9b4f914a7" x="44.103906" y="108.675639" style="stroke: #000000; stroke-width: 0.8"/>
      </g>
     </g>
     <g id="text_10">
      <!-- 0.2 -->
      <g transform="translate(21.200781 112.474467) scale(0.1 -0.1)">
       <use xlink:href="#DejaVuSans-13"/>
       <use xlink:href="#DejaVuSans-11" transform="translate(63.625 0)"/>
       <use xlink:href="#DejaVuSans-15" transform="translate(95.40625 0)"/>
      </g>
     </g>
    </g>
    <g id="ytick_4">
     <g id="line2d_19">
      <path d="M 44.103906 74.182608 
L 345.101562 74.182608 
" clip-path="url(#pbb55bad6a0)" style="fill: none; stroke: #b0b0b0; stroke-opacity: 0.25; stroke-width: 0.6; stroke-linecap: square"/>
     </g>
     <g id="line2d_20">
      <g>
       <use xlink:href="#ma9b4f914a7" x="44.103906" y="74.182608" style="stroke: #000000; stroke-width: 0.8"/>
      </g>
     </g>
     <g id="text_11">
      <!-- 0.3 -->
      <g transform="translate(21.200781 77.981436) scale(0.1 -0.1)">
       <use xlink:href="#DejaVuSans-13"/>
       <use xlink:href="#DejaVuSans-11" transform="translate(63.625 0)"/>
       <use xlink:href="#DejaVuSans-16" transform="translate(95.40625 0)"/>
      </g>
     </g>
    </g>
    <g id="ytick_5">
     <g id="line2d_21">
      <path d="M 44.103906 39.689577 
L 345.101562 39.689577 
" clip-path="url(#pbb55bad6a0)" style="fill: none; stroke: #b0b0b0; stroke-opacity: 0.25; stroke-width: 0.6; stroke-linecap: square"/>
     </g>
     <g id="line2d_22">
      <g>
       <use xlink:href="#ma9b4f914a7" x="44.103906" y="39.689577" style="stroke: #000000; stroke-width: 0.8"/>
      </g>
     </g>
     <g id="text_12">
      <!-- 0.4 -->
      <g transform="translate(21.200781 43.488405) scale(0.1 -0.1)">
       <use xlink:href="#DejaVuSans-13"/>
       <use xlink:href="#DejaVuSans-11" transform="translate(63.625 0)"/>
       <use xlink:href="#DejaVuSans-17" transform="translate(95.40625 0)"/>
      </g>
     </g>
    </g>
    <g id="text_13">
     <!-- f(x) -->
     <g transform="translate(14.798438 112.899805) rotate(-90) scale(0.1 -0.1)">
      <defs>
       <path id="DejaVuSans-49" d="M 2375 4863 
L 2375 4384 
L 1825 4384 
Q 1516 4384 1395 4259 
Q 1275 4134 1275 3809 
L 1275 3500 
L 2222 3500 
L 2222 3053 
L 1275 3053 
L 1275 0 
L 697 0 
L 697 3053 
L 147 3053 
L 147 3500 
L 697 3500 
L 697 3744 
Q 697 4328 969 4595 
Q 1241 4863 1831 4863 
L 2375 4863 
z
" transform="scale(0.015625)"/>
       <path id="DejaVuSans-b" d="M 1984 4856 
Q 1566 4138 1362 3434 
Q 1159 2731 1159 2009 
Q 1159 1288 1364 580 
Q 1569 -128 1984 -844 
L 1484 -844 
Q 1016 -109 783 600 
Q 550 1309 550 2009 
Q 550 2706 781 3412 
Q 1013 4119 1484 4856 
L 1984 4856 
z
" transform="scale(0.015625)"/>
       <path id="DejaVuSans-c" d="M 513 4856 
L 1013 4856 
Q 1481 4119 1714 3412 
Q 1947 2706 1947 2009 
Q 1947 1309 1714 600 
Q 1481 -109 1013 -844 
L 513 -844 
Q 928 -128 1133 580 
Q 1338 1288 1338 2009 
Q 1338 2731 1133 3434 
Q 928 4138 513 4856 
z
" transform="scale(0.015625)"/>
      </defs>
      <use xlink:href="#DejaVuSans-49"/>
      <use xlink:href="#DejaVuSans-b" transform="translate(35.203125 0)"/>
      <use xlink:href="#DejaVuSans-5b" transform="translate(74.21875 0)"/>
      <use xlink:href="#DejaVuSans-c" transform="translate(133.40625 0)"/>
     </g>
    </g>
   </g>
   <g id="line2d_23">
    <path d="M 57.785618 172.07383 
L 58.471418 156.343452 
L 59.157218 129.231745 
L 60.528818 67.69228 
L 61.214618 46.394764 
L 61.900418 34.498809 
L 62.586218 30.895721 
L 63.272019 33.4881 
L 63.957819 40.148344 
L 65.329419 59.190416 
L 67.386819 88.841331 
L 68.758419 105.37042 
L 70.130019 118.826845 
L 71.50162 129.569775 
L 72.87322 138.093531 
L 74.24482 144.861513 
L 75.61642 150.259008 
L 76.98802 154.590632 
L 78.35962 158.09192 
L 79.731221 160.943414 
L 81.102821 163.283293 
L 82.474421 165.217567 
L 83.846021 166.827957 
L 85.217621 168.177831 
L 87.275021 169.81941 
L 89.332422 171.108554 
L 91.389822 172.133602 
L 94.133022 173.196584 
L 96.876223 174.006094 
L 100.305223 174.766872 
L 104.420024 175.426779 
L 109.220624 175.967179 
L 115.392825 176.434673 
L 123.622426 176.825455 
L 135.281027 177.140021 
L 153.111829 177.376536 
L 184.658633 177.538606 
L 255.296042 177.628495 
L 331.419851 177.64911 
L 331.419851 177.64911 
" clip-path="url(#pbb55bad6a0)" style="fill: none; stroke: #4c78a8; stroke-width: 2; stroke-linecap: square"/>
   </g>
   <g id="patch_3">
    <path d="M 44.103906 185 
L 44.103906 23.557422 
" style="fill: none; stroke: #000000; stroke-width: 0.8; stroke-linejoin: miter; stroke-linecap: square"/>
   </g>
   <g id="patch_4">
    <path d="M 44.103906 185 
L 345.101562 185 
" style="fill: none; stroke: #000000; stroke-width: 0.8; stroke-linejoin: miter; stroke-linecap: square"/>
   </g>
   <g id="text_14">
    <!-- Burr -->
    <g transform="translate(182.917813 15.557422) scale(0.11 -0.11)">
     <defs>
      <path id="DejaVuSans-25" d="M 1259 2228 
L 1259 519 
L 2272 519 
Q 2781 519 3026 730 
Q 3272 941 3272 1375 
Q 3272 1813 3026 2020 
Q 2781 2228 2272 2228 
L 1259 2228 
z
M 1259 4147 
L 1259 2741 
L 2194 2741 
Q 2656 2741 2882 2914 
Q 3109 3088 3109 3444 
Q 3109 3797 2882 3972 
Q 2656 4147 2194 4147 
L 1259 4147 
z
M 628 4666 
L 2241 4666 
Q 2963 4666 3353 4366 
Q 3744 4066 3744 3513 
Q 3744 3084 3544 2831 
Q 3344 2578 2956 2516 
Q 3422 2416 3680 2098 
Q 3938 1781 3938 1306 
Q 3938 681 3513 340 
Q 3088 0 2303 0 
L 628 0 
L 628 4666 
z
" transform="scale(0.015625)"/>
      <path id="DejaVuSans-58" d="M 544 1381 
L 544 3500 
L 1119 3500 
L 1119 1403 
Q 1119 906 1312 657 
Q 1506 409 1894 409 
Q 2359 409 2629 706 
Q 2900 1003 2900 1516 
L 2900 3500 
L 3475 3500 
L 3475 0 
L 2900 0 
L 2900 538 
Q 2691 219 2414 64 
Q 2138 -91 1772 -91 
Q 1169 -91 856 284 
Q 544 659 544 1381 
z
M 1991 3584 
L 1991 3584 
z
" transform="scale(0.015625)"/>
      <path id="DejaVuSans-55" d="M 2631 2963 
Q 2534 3019 2420 3045 
Q 2306 3072 2169 3072 
Q 1681 3072 1420 2755 
Q 1159 2438 1159 1844 
L 1159 0 
L 581 0 
L 581 3500 
L 1159 3500 
L 1159 2956 
Q 1341 3275 1631 3429 
Q 1922 3584 2338 3584 
Q 2397 3584 2469 3576 
Q 2541 3569 2628 3553 
L 2631 2963 
z
" transform="scale(0.015625)"/>
     </defs>
     <use xlink:href="#DejaVuSans-25"/>
     <use xlink:href="#DejaVuSans-58" transform="translate(68.609375 0)"/>
     <use xlink:href="#DejaVuSans-55" transform="translate(131.984375 0)"/>
     <use xlink:href="#DejaVuSans-55" transform="translate(171.34375 0)"/>
    </g>
   </g>
  </g>
 </g>
 <defs>
  <clipPath id="pbb55bad6a0">
   <rect x="44.103906" y="23.557422" width="300.997656" height="161.442578"/>
  </clipPath>
 </defs>
</svg>
