<?xml version="1.0" encoding="utf-8" standalone="no"?>
<!DOCTYPE svg PUBLIC "-//W3C//DTD SVG 1.1//EN"
  "http://www.w3.org/Graphics/SVG/1.1/DTD/svg11.dtd">
<svg xmlns:xlink="http://www.w3.org/1999/xlink" width="352.064062pt" height="223.158281pt" viewBox="0 0 352.064062 223.158281" xmlns="http://www.w3.org/2000/svg" version="1.1">
 <metadata>
  <rdf:RDF xmlns:dc="http://purl.org/dc/elements/1.1/" xmlns:cc="http://creativecommons.org/ns#" xmlns:rdf="http://www.w3.org/1999/02/22-rdf-syntax-ns#">
   <cc:Work>
    <dc:type rdf:resource="http://purl.org/dc/dcmitype/StillImage"/>
    <dc:date>2026-07-05T02:24:31.994147</dc:date>
    <dc:format>image/svg+xml</dc:format>
    <dc:creator>
     <cc:Agent>
      <dc:title>Matplotlib v3.11.0, https://matplotlib.org/</dc:title>
     </cc:Agent>
    </dc:creator>
   </cc:Work>
  </rdf:RDF>
 </metadata>
 <defs>
  <style type="text/css">*{stroke-linejoin: round; stroke-linecap: butt}</style>
 </defs>
 <g id="figure_1">
  <g id="patch_1">
   <path d="M 0 223.158281 
L 352.064062 223.158281 
L 352.064062 0 
L 0 0 
z
" style="fill: #ffffff"/>
  </g>
  <g id="axes_1">
   <g id="patch_2">
    <path d="M 50.466406 184.958281 
L 344.864062 184.958281 
L 344.864062 23.558281 
L 50.466406 23.558281 
z
" style="fill: #ffffff"/>
   </g>
   <g id="FillBetweenPolyCollection_1">
    <defs>
     <path id="m6fc3101025" d="M 63.848118 -45.536364 
L 63.848118 -45.538733 
L 64.51888 -45.538757 
L 65.189643 -45.538782 
L 65.860405 -45.538806 
L 66.531168 -45.538831 
L 67.20193 -45.538857 
L 67.872693 -45.538883 
L 68.543455 -45.538909 
L 69.214218 -45.538936 
L 69.88498 -45.538963 
L 70.555743 -45.53899 
L 71.226505 -45.539018 
L 71.897268 -45.539046 
L 72.56803 -45.539075 
L 73.238793 -45.539105 
L 73.909555 -45.539134 
L 74.580318 -45.539165 
L 75.25108 -45.539195 
L 75.921843 -45.539227 
L 76.592605 -45.539259 
L 77.263368 -45.539291 
L 77.93413 -45.539324 
L 78.604893 -45.539357 
L 79.275655 -45.539391 
L 79.946418 -45.539426 
L 80.61718 -45.539461 
L 81.287943 -45.539497 
L 81.958705 -45.539533 
L 82.629468 -45.53957 
L 83.30023 -45.539608 
L 83.970993 -45.539646 
L 84.641755 -45.539686 
L 85.312518 -45.539725 
L 85.98328 -45.539766 
L 86.654043 -45.539807 
L 87.324805 -45.539849 
L 87.995567 -45.539892 
L 88.66633 -45.539935 
L 89.337092 -45.53998 
L 90.007855 -45.540025 
L 90.678617 -45.540071 
L 91.34938 -45.540118 
L 92.020142 -45.540166 
L 92.690905 -45.540215 
L 93.361667 -45.540264 
L 94.03243 -45.540315 
L 94.703192 -45.540367 
L 95.373955 -45.540419 
L 96.044717 -45.540473 
L 96.71548 -45.540528 
L 97.386242 -45.540584 
L 98.057005 -45.540641 
L 98.727767 -45.540699 
L 99.39853 -45.540758 
L 100.069292 -45.540819 
L 100.740055 -45.540881 
L 101.410817 -45.540944 
L 102.08158 -45.541008 
L 102.752342 -45.541074 
L 103.423105 -45.541142 
L 104.093867 -45.54121 
L 104.76463 -45.541281 
L 105.435392 -45.541352 
L 106.106155 -45.541426 
L 106.776917 -45.541501 
L 107.44768 -45.541577 
L 108.118442 -45.541656 
L 108.789205 -45.541736 
L 109.459967 -45.541818 
L 110.13073 -45.541902 
L 110.801492 -45.541988 
L 111.472255 -45.542076 
L 112.143017 -45.542165 
L 112.81378 -45.542258 
L 113.484542 -45.542352 
L 114.155305 -45.542448 
L 114.826067 -45.542547 
L 115.49683 -45.542649 
L 116.167592 -45.542753 
L 116.838354 -45.542859 
L 117.509117 -45.542968 
L 118.179879 -45.54308 
L 118.850642 -45.543195 
L 119.521404 -45.543313 
L 120.192167 -45.543434 
L 120.862929 -45.543558 
L 121.533692 -45.543685 
L 122.204454 -45.543816 
L 122.875217 -45.54395 
L 123.545979 -45.544088 
L 124.216742 -45.54423 
L 124.887504 -45.544375 
L 125.558267 -45.544525 
L 126.229029 -45.544679 
L 126.899792 -45.544837 
L 127.570554 -45.545 
L 128.241317 -45.545168 
L 128.912079 -45.545341 
L 129.582842 -45.545518 
L 130.253604 -45.545702 
L 130.924367 -45.54589 
L 131.595129 -45.546085 
L 132.265892 -45.546285 
L 132.936654 -45.546492 
L 133.607417 -45.546705 
L 134.278179 -45.546925 
L 134.948942 -45.547152 
L 135.619704 -45.547386 
L 136.290467 -45.547629 
L 136.961229 -45.547879 
L 137.631992 -45.548138 
L 138.302754 -45.548405 
L 138.973517 -45.548682 
L 139.644279 -45.548969 
L 140.315042 -45.549265 
L 140.985804 -45.549572 
L 141.656567 -45.549891 
L 142.327329 -45.55022 
L 142.998092 -45.550563 
L 143.668854 -45.550918 
L 144.339617 -45.551286 
L 145.010379 -45.551669 
L 145.681142 -45.552066 
L 146.351904 -45.552479 
L 147.022666 -45.552909 
L 147.693429 -45.553356 
L 148.364191 -45.553821 
L 149.034954 -45.554306 
L 149.705716 -45.554812 
L 150.376479 -45.555339 
L 151.047241 -45.555889 
L 151.718004 -45.556463 
L 152.388766 -45.557063 
L 153.059529 -45.55769 
L 153.730291 -45.558346 
L 154.401054 -45.559033 
L 155.071816 -45.559752 
L 155.742579 -45.560507 
L 156.413341 -45.561298 
L 157.084104 -45.562129 
L 157.754866 -45.563002 
L 158.425629 -45.563921 
L 159.096391 -45.564888 
L 159.767154 -45.565906 
L 160.437916 -45.56698 
L 161.108679 -45.568114 
L 161.779441 -45.569312 
L 162.450204 -45.570579 
L 163.120966 -45.57192 
L 163.791729 -45.573342 
L 164.462491 -45.574851 
L 165.133254 -45.576454 
L 165.804016 -45.57816 
L 166.474779 -45.579976 
L 167.145541 -45.581914 
L 167.816304 -45.583984 
L 168.487066 -45.586198 
L 169.157829 -45.58857 
L 169.828591 -45.591116 
L 170.499354 -45.593852 
L 171.170116 -45.596799 
L 171.840879 -45.599979 
L 172.511641 -45.603416 
L 173.182404 -45.607139 
L 173.853166 -45.611181 
L 174.523929 -45.61558 
L 175.194691 -45.620378 
L 175.865453 -45.625626 
L 176.536216 -45.631381 
L 177.206978 -45.637711 
L 177.877741 -45.644696 
L 178.548503 -45.652428 
L 179.219266 -45.661018 
L 179.890028 -45.670598 
L 180.560791 -45.681326 
L 181.231553 -45.693393 
L 181.902316 -45.707032 
L 182.573078 -45.722527 
L 183.243841 -45.740233 
L 183.914603 -45.760588 
L 184.585366 -45.784151 
L 185.256128 -45.811631 
L 185.926891 -45.843948 
L 186.597653 -45.882305 
L 187.268416 -45.928308 
L 187.939178 -45.984129 
L 188.609941 -46.052773 
L 189.280703 -46.138489 
L 189.951466 -46.247435 
L 190.622228 -46.388823 
L 191.292991 -46.576915 
L 191.963753 -46.834751 
L 192.634516 -47.201509 
L 193.305278 -47.748191 
L 193.976041 -48.614362 
L 194.646803 -50.105437 
L 195.317566 -52.996612 
L 195.988328 -59.734942 
L 196.659091 -81.225024 
L 197.329853 -192.263636 
L 198.000616 -192.263636 
L 198.671378 -81.225024 
L 199.342141 -59.734942 
L 200.012903 -52.996612 
L 200.683666 -50.105437 
L 201.354428 -48.614362 
L 202.025191 -47.748191 
L 202.695953 -47.201509 
L 203.366716 -46.834751 
L 204.037478 -46.576915 
L 204.708241 -46.388823 
L 205.379003 -46.247435 
L 206.049765 -46.138489 
L 206.720528 -46.052773 
L 207.39129 -45.984129 
L 208.062053 -45.928308 
L 208.732815 -45.882305 
L 209.403578 -45.843948 
L 210.07434 -45.811631 
L 210.745103 -45.784151 
L 211.415865 -45.760588 
L 212.086628 -45.740233 
L 212.75739 -45.722527 
L 213.428153 -45.707032 
L 214.098915 -45.693393 
L 214.769678 -45.681326 
L 215.44044 -45.670598 
L 216.111203 -45.661018 
L 216.781965 -45.652428 
L 217.452728 -45.644696 
L 218.12349 -45.637711 
L 218.794253 -45.631381 
L 219.465015 -45.625626 
L 220.135778 -45.620378 
L 220.80654 -45.61558 
L 221.477303 -45.611181 
L 222.148065 -45.607139 
L 222.818828 -45.603416 
L 223.48959 -45.599979 
L 224.160353 -45.596799 
L 224.831115 -45.593852 
L 225.501878 -45.591116 
L 226.17264 -45.58857 
L 226.843403 -45.586198 
L 227.514165 -45.583984 
L 228.184928 -45.581914 
L 228.85569 -45.579976 
L 229.526453 -45.57816 
L 230.197215 -45.576454 
L 230.867978 -45.574851 
L 231.53874 -45.573342 
L 232.209503 -45.57192 
L 232.880265 -45.570579 
L 233.551028 -45.569312 
L 234.22179 -45.568114 
L 234.892552 -45.56698 
L 235.563315 -45.565906 
L 236.234077 -45.564888 
L 236.90484 -45.563921 
L 237.575602 -45.563002 
L 238.246365 -45.562129 
L 238.917127 -45.561298 
L 239.58789 -45.560507 
L 240.258652 -45.559752 
L 240.929415 -45.559033 
L 241.600177 -45.558346 
L 242.27094 -45.55769 
L 242.941702 -45.557063 
L 243.612465 -45.556463 
L 244.283227 -45.555889 
L 244.95399 -45.555339 
L 245.624752 -45.554812 
L 246.295515 -45.554306 
L 246.966277 -45.553821 
L 247.63704 -45.553356 
L 248.307802 -45.552909 
L 248.978565 -45.552479 
L 249.649327 -45.552066 
L 250.32009 -45.551669 
L 250.990852 -45.551286 
L 251.661615 -45.550918 
L 252.332377 -45.550563 
L 253.00314 -45.55022 
L 253.673902 -45.549891 
L 254.344665 -45.549572 
L 255.015427 -45.549265 
L 255.68619 -45.548969 
L 256.356952 -45.548682 
L 257.027715 -45.548405 
L 257.698477 -45.548138 
L 258.36924 -45.547879 
L 259.040002 -45.547629 
L 259.710765 -45.547386 
L 260.381527 -45.547152 
L 261.05229 -45.546925 
L 261.723052 -45.546705 
L 262.393815 -45.546492 
L 263.064577 -45.546285 
L 263.73534 -45.546085 
L 264.406102 -45.54589 
L 265.076864 -45.545702 
L 265.747627 -45.545518 
L 266.418389 -45.545341 
L 267.089152 -45.545168 
L 267.759914 -45.545 
L 268.430677 -45.544837 
L 269.101439 -45.544679 
L 269.772202 -45.544525 
L 270.442964 -45.544375 
L 271.113727 -45.54423 
L 271.784489 -45.544088 
L 272.455252 -45.54395 
L 273.126014 -45.543816 
L 273.796777 -45.543685 
L 274.467539 -45.543558 
L 275.138302 -45.543434 
L 275.809064 -45.543313 
L 276.479827 -45.543195 
L 277.150589 -45.54308 
L 277.821352 -45.542968 
L 278.492114 -45.542859 
L 279.162877 -45.542753 
L 279.833639 -45.542649 
L 280.504402 -45.542547 
L 281.175164 -45.542448 
L 281.845927 -45.542352 
L 282.516689 -45.542258 
L 283.187452 -45.542165 
L 283.858214 -45.542076 
L 284.528977 -45.541988 
L 285.199739 -45.541902 
L 285.870502 -45.541818 
L 286.541264 -45.541736 
L 287.212027 -45.541656 
L 287.882789 -45.541577 
L 288.553552 -45.541501 
L 289.224314 -45.541426 
L 289.895077 -45.541352 
L 290.565839 -45.541281 
L 291.236602 -45.54121 
L 291.907364 -45.541142 
L 292.578127 -45.541074 
L 293.248889 -45.541008 
L 293.919651 -45.540944 
L 294.590414 -45.540881 
L 295.261176 -45.540819 
L 295.931939 -45.540758 
L 296.602701 -45.540699 
L 297.273464 -45.540641 
L 297.944226 -45.540584 
L 298.614989 -45.540528 
L 299.285751 -45.540473 
L 299.956514 -45.540419 
L 300.627276 -45.540367 
L 301.298039 -45.540315 
L 301.968801 -45.540264 
L 302.639564 -45.540215 
L 303.310326 -45.540166 
L 303.981089 -45.540118 
L 304.651851 -45.540071 
L 305.322614 -45.540025 
L 305.993376 -45.53998 
L 306.664139 -45.539935 
L 307.334901 -45.539892 
L 308.005664 -45.539849 
L 308.676426 -45.539807 
L 309.347189 -45.539766 
L 310.017951 -45.539725 
L 310.688714 -45.539686 
L 311.359476 -45.539646 
L 312.030239 -45.539608 
L 312.701001 -45.53957 
L 313.371764 -45.539533 
L 314.042526 -45.539497 
L 314.713289 -45.539461 
L 315.384051 -45.539426 
L 316.054814 -45.539391 
L 316.725576 -45.539357 
L 317.396339 -45.539324 
L 318.067101 -45.539291 
L 318.737864 -45.539259 
L 319.408626 -45.539227 
L 320.079389 -45.539195 
L 320.750151 -45.539165 
L 321.420914 -45.539134 
L 322.091676 -45.539105 
L 322.762439 -45.539075 
L 323.433201 -45.539046 
L 324.103963 -45.539018 
L 324.774726 -45.53899 
L 325.445488 -45.538963 
L 326.116251 -45.538936 
L 326.787013 -45.538909 
L 327.457776 -45.538883 
L 328.128538 -45.538857 
L 328.799301 -45.538831 
L 329.470063 -45.538806 
L 330.140826 -45.538782 
L 330.811588 -45.538757 
L 331.482351 -45.538733 
L 331.482351 -45.536364 
L 331.482351 -45.536364 
L 330.811588 -45.536364 
L 330.140826 -45.536364 
L 329.470063 -45.536364 
L 328.799301 -45.536364 
L 328.128538 -45.536364 
L 327.457776 -45.536364 
L 326.787013 -45.536364 
L 326.116251 -45.536364 
L 325.445488 -45.536364 
L 324.774726 -45.536364 
L 324.103963 -45.536364 
L 323.433201 -45.536364 
L 322.762439 -45.536364 
L 322.091676 -45.536364 
L 321.420914 -45.536364 
L 320.750151 -45.536364 
L 320.079389 -45.536364 
L 319.408626 -45.536364 
L 318.737864 -45.536364 
L 318.067101 -45.536364 
L 317.396339 -45.536364 
L 316.725576 -45.536364 
L 316.054814 -45.536364 
L 315.384051 -45.536364 
L 314.713289 -45.536364 
L 314.042526 -45.536364 
L 313.371764 -45.536364 
L 312.701001 -45.536364 
L 312.030239 -45.536364 
L 311.359476 -45.536364 
L 310.688714 -45.536364 
L 310.017951 -45.536364 
L 309.347189 -45.536364 
L 308.676426 -45.536364 
L 308.005664 -45.536364 
L 307.334901 -45.536364 
L 306.664139 -45.536364 
L 305.993376 -45.536364 
L 305.322614 -45.536364 
L 304.651851 -45.536364 
L 303.981089 -45.536364 
L 303.310326 -45.536364 
L 302.639564 -45.536364 
L 301.968801 -45.536364 
L 301.298039 -45.536364 
L 300.627276 -45.536364 
L 299.956514 -45.536364 
L 299.285751 -45.536364 
L 298.614989 -45.536364 
L 297.944226 -45.536364 
L 297.273464 -45.536364 
L 296.602701 -45.536364 
L 295.931939 -45.536364 
L 295.261176 -45.536364 
L 294.590414 -45.536364 
L 293.919651 -45.536364 
L 293.248889 -45.536364 
L 292.578127 -45.536364 
L 291.907364 -45.536364 
L 291.236602 -45.536364 
L 290.565839 -45.536364 
L 289.895077 -45.536364 
L 289.224314 -45.536364 
L 288.553552 -45.536364 
L 287.882789 -45.536364 
L 287.212027 -45.536364 
L 286.541264 -45.536364 
L 285.870502 -45.536364 
L 285.199739 -45.536364 
L 284.528977 -45.536364 
L 283.858214 -45.536364 
L 283.187452 -45.536364 
L 282.516689 -45.536364 
L 281.845927 -45.536364 
L 281.175164 -45.536364 
L 280.504402 -45.536364 
L 279.833639 -45.536364 
L 279.162877 -45.536364 
L 278.492114 -45.536364 
L 277.821352 -45.536364 
L 277.150589 -45.536364 
L 276.479827 -45.536364 
L 275.809064 -45.536364 
L 275.138302 -45.536364 
L 274.467539 -45.536364 
L 273.796777 -45.536364 
L 273.126014 -45.536364 
L 272.455252 -45.536364 
L 271.784489 -45.536364 
L 271.113727 -45.536364 
L 270.442964 -45.536364 
L 269.772202 -45.536364 
L 269.101439 -45.536364 
L 268.430677 -45.536364 
L 267.759914 -45.536364 
L 267.089152 -45.536364 
L 266.418389 -45.536364 
L 265.747627 -45.536364 
L 265.076864 -45.536364 
L 264.406102 -45.536364 
L 263.73534 -45.536364 
L 263.064577 -45.536364 
L 262.393815 -45.536364 
L 261.723052 -45.536364 
L 261.05229 -45.536364 
L 260.381527 -45.536364 
L 259.710765 -45.536364 
L 259.040002 -45.536364 
L 258.36924 -45.536364 
L 257.698477 -45.536364 
L 257.027715 -45.536364 
L 256.356952 -45.536364 
L 255.68619 -45.536364 
L 255.015427 -45.536364 
L 254.344665 -45.536364 
L 253.673902 -45.536364 
L 253.00314 -45.536364 
L 252.332377 -45.536364 
L 251.661615 -45.536364 
L 250.990852 -45.536364 
L 250.32009 -45.536364 
L 249.649327 -45.536364 
L 248.978565 -45.536364 
L 248.307802 -45.536364 
L 247.63704 -45.536364 
L 246.966277 -45.536364 
L 246.295515 -45.536364 
L 245.624752 -45.536364 
L 244.95399 -45.536364 
L 244.283227 -45.536364 
L 243.612465 -45.536364 
L 242.941702 -45.536364 
L 242.27094 -45.536364 
L 241.600177 -45.536364 
L 240.929415 -45.536364 
L 240.258652 -45.536364 
L 239.58789 -45.536364 
L 238.917127 -45.536364 
L 238.246365 -45.536364 
L 237.575602 -45.536364 
L 236.90484 -45.536364 
L 236.234077 -45.536364 
L 235.563315 -45.536364 
L 234.892552 -45.536364 
L 234.22179 -45.536364 
L 233.551028 -45.536364 
L 232.880265 -45.536364 
L 232.209503 -45.536364 
L 231.53874 -45.536364 
L 230.867978 -45.536364 
L 230.197215 -45.536364 
L 229.526453 -45.536364 
L 228.85569 -45.536364 
L 228.184928 -45.536364 
L 227.514165 -45.536364 
L 226.843403 -45.536364 
L 226.17264 -45.536364 
L 225.501878 -45.536364 
L 224.831115 -45.536364 
L 224.160353 -45.536364 
L 223.48959 -45.536364 
L 222.818828 -45.536364 
L 222.148065 -45.536364 
L 221.477303 -45.536364 
L 220.80654 -45.536364 
L 220.135778 -45.536364 
L 219.465015 -45.536364 
L 218.794253 -45.536364 
L 218.12349 -45.536364 
L 217.452728 -45.536364 
L 216.781965 -45.536364 
L 216.111203 -45.536364 
L 215.44044 -45.536364 
L 214.769678 -45.536364 
L 214.098915 -45.536364 
L 213.428153 -45.536364 
L 212.75739 -45.536364 
L 212.086628 -45.536364 
L 211.415865 -45.536364 
L 210.745103 -45.536364 
L 210.07434 -45.536364 
L 209.403578 -45.536364 
L 208.732815 -45.536364 
L 208.062053 -45.536364 
L 207.39129 -45.536364 
L 206.720528 -45.536364 
L 206.049765 -45.536364 
L 205.379003 -45.536364 
L 204.708241 -45.536364 
L 204.037478 -45.536364 
L 203.366716 -45.536364 
L 202.695953 -45.536364 
L 202.025191 -45.536364 
L 201.354428 -45.536364 
L 200.683666 -45.536364 
L 200.012903 -45.536364 
L 199.342141 -45.536364 
L 198.671378 -45.536364 
L 198.000616 -45.536364 
L 197.329853 -45.536364 
L 196.659091 -45.536364 
L 195.988328 -45.536364 
L 195.317566 -45.536364 
L 194.646803 -45.536364 
L 193.976041 -45.536364 
L 193.305278 -45.536364 
L 192.634516 -45.536364 
L 191.963753 -45.536364 
L 191.292991 -45.536364 
L 190.622228 -45.536364 
L 189.951466 -45.536364 
L 189.280703 -45.536364 
L 188.609941 -45.536364 
L 187.939178 -45.536364 
L 187.268416 -45.536364 
L 186.597653 -45.536364 
L 185.926891 -45.536364 
L 185.256128 -45.536364 
L 184.585366 -45.536364 
L 183.914603 -45.536364 
L 183.243841 -45.536364 
L 182.573078 -45.536364 
L 181.902316 -45.536364 
L 181.231553 -45.536364 
L 180.560791 -45.536364 
L 179.890028 -45.536364 
L 179.219266 -45.536364 
L 178.548503 -45.536364 
L 177.877741 -45.536364 
L 177.206978 -45.536364 
L 176.536216 -45.536364 
L 175.865453 -45.536364 
L 175.194691 -45.536364 
L 174.523929 -45.536364 
L 173.853166 -45.536364 
L 173.182404 -45.536364 
L 172.511641 -45.536364 
L 171.840879 -45.536364 
L 171.170116 -45.536364 
L 170.499354 -45.536364 
L 169.828591 -45.536364 
L 169.157829 -45.536364 
L 168.487066 -45.536364 
L 167.816304 -45.536364 
L 167.145541 -45.536364 
L 166.474779 -45.536364 
L 165.804016 -45.536364 
L 165.133254 -45.536364 
L 164.462491 -45.536364 
L 163.791729 -45.536364 
L 163.120966 -45.536364 
L 162.450204 -45.536364 
L 161.779441 -45.536364 
L 161.108679 -45.536364 
L 160.437916 -45.536364 
L 159.767154 -45.536364 
L 159.096391 -45.536364 
L 158.425629 -45.536364 
L 157.754866 -45.536364 
L 157.084104 -45.536364 
L 156.413341 -45.536364 
L 155.742579 -45.536364 
L 155.071816 -45.536364 
L 154.401054 -45.536364 
L 153.730291 -45.536364 
L 153.059529 -45.536364 
L 152.388766 -45.536364 
L 151.718004 -45.536364 
L 151.047241 -45.536364 
L 150.376479 -45.536364 
L 149.705716 -45.536364 
L 149.034954 -45.536364 
L 148.364191 -45.536364 
L 147.693429 -45.536364 
L 147.022666 -45.536364 
L 146.351904 -45.536364 
L 145.681142 -45.536364 
L 145.010379 -45.536364 
L 144.339617 -45.536364 
L 143.668854 -45.536364 
L 142.998092 -45.536364 
L 142.327329 -45.536364 
L 141.656567 -45.536364 
L 140.985804 -45.536364 
L 140.315042 -45.536364 
L 139.644279 -45.536364 
L 138.973517 -45.536364 
L 138.302754 -45.536364 
L 137.631992 -45.536364 
L 136.961229 -45.536364 
L 136.290467 -45.536364 
L 135.619704 -45.536364 
L 134.948942 -45.536364 
L 134.278179 -45.536364 
L 133.607417 -45.536364 
L 132.936654 -45.536364 
L 132.265892 -45.536364 
L 131.595129 -45.536364 
L 130.924367 -45.536364 
L 130.253604 -45.536364 
L 129.582842 -45.536364 
L 128.912079 -45.536364 
L 128.241317 -45.536364 
L 127.570554 -45.536364 
L 126.899792 -45.536364 
L 126.229029 -45.536364 
L 125.558267 -45.536364 
L 124.887504 -45.536364 
L 124.216742 -45.536364 
L 123.545979 -45.536364 
L 122.875217 -45.536364 
L 122.204454 -45.536364 
L 121.533692 -45.536364 
L 120.862929 -45.536364 
L 120.192167 -45.536364 
L 119.521404 -45.536364 
L 118.850642 -45.536364 
L 118.179879 -45.536364 
L 117.509117 -45.536364 
L 116.838354 -45.536364 
L 116.167592 -45.536364 
L 115.49683 -45.536364 
L 114.826067 -45.536364 
L 114.155305 -45.536364 
L 113.484542 -45.536364 
L 112.81378 -45.536364 
L 112.143017 -45.536364 
L 111.472255 -45.536364 
L 110.801492 -45.536364 
L 110.13073 -45.536364 
L 109.459967 -45.536364 
L 108.789205 -45.536364 
L 108.118442 -45.536364 
L 107.44768 -45.536364 
L 106.776917 -45.536364 
L 106.106155 -45.536364 
L 105.435392 -45.536364 
L 104.76463 -45.536364 
L 104.093867 -45.536364 
L 103.423105 -45.536364 
L 102.752342 -45.536364 
L 102.08158 -45.536364 
L 101.410817 -45.536364 
L 100.740055 -45.536364 
L 100.069292 -45.536364 
L 99.39853 -45.536364 
L 98.727767 -45.536364 
L 98.057005 -45.536364 
L 97.386242 -45.536364 
L 96.71548 -45.536364 
L 96.044717 -45.536364 
L 95.373955 -45.536364 
L 94.703192 -45.536364 
L 94.03243 -45.536364 
L 93.361667 -45.536364 
L 92.690905 -45.536364 
L 92.020142 -45.536364 
L 91.34938 -45.536364 
L 90.678617 -45.536364 
L 90.007855 -45.536364 
L 89.337092 -45.536364 
L 88.66633 -45.536364 
L 87.995567 -45.536364 
L 87.324805 -45.536364 
L 86.654043 -45.536364 
L 85.98328 -45.536364 
L 85.312518 -45.536364 
L 84.641755 -45.536364 
L 83.970993 -45.536364 
L 83.30023 -45.536364 
L 82.629468 -45.536364 
L 81.958705 -45.536364 
L 81.287943 -45.536364 
L 80.61718 -45.536364 
L 79.946418 -45.536364 
L 79.275655 -45.536364 
L 78.604893 -45.536364 
L 77.93413 -45.536364 
L 77.263368 -45.536364 
L 76.592605 -45.536364 
L 75.921843 -45.536364 
L 75.25108 -45.536364 
L 74.580318 -45.536364 
L 73.909555 -45.536364 
L 73.238793 -45.536364 
L 72.56803 -45.536364 
L 71.897268 -45.536364 
L 71.226505 -45.536364 
L 70.555743 -45.536364 
L 69.88498 -45.536364 
L 69.214218 -45.536364 
L 68.543455 -45.536364 
L 67.872693 -45.536364 
L 67.20193 -45.536364 
L 66.531168 -45.536364 
L 65.860405 -45.536364 
L 65.189643 -45.536364 
L 64.51888 -45.536364 
L 63.848118 -45.536364 
z
" style="stroke: #4c78a8; stroke-opacity: 0.15"/>
    </defs>
    <g clip-path="url(#p97b145ddc3)">
     <use xlink:href="#m6fc3101025" x="0" y="223.158281" style="fill: #4c78a8; fill-opacity: 0.15; stroke: #4c78a8; stroke-opacity: 0.15"/>
    </g>
   </g>
   <g id="matplotlib.axis_1">
    <g id="xtick_1">
     <g id="line2d_1">
      <path d="M 71.545158 184.958281 
L 71.545158 23.558281 
" clip-path="url(#p97b145ddc3)" style="fill: none; stroke: #b0b0b0; stroke-opacity: 0.25; stroke-width: 0.6; stroke-linecap: square"/>
     </g>
     <g id="line2d_2">
      <defs>
       <path id="m5712bc5ee6" d="M 0 0 
L 0 3.5 
" style="stroke: #000000; stroke-width: 0.8"/>
      </defs>
      <g>
       <use xlink:href="#m5712bc5ee6" x="71.545158" y="184.958281" style="stroke: #000000; stroke-width: 0.8"/>
      </g>
     </g>
     <g id="text_1">
      <!-- −300 -->
      <g transform="translate(57.811565 199.555938) scale(0.1 -0.1)">
       <defs>
        <path id="DejaVuSans-c9c" d="M 678 2272 
L 4684 2272 
L 4684 1741 
L 678 1741 
L 678 2272 
z
" transform="scale(0.015625)"/>
        <path id="DejaVuSans-16" d="M 2597 2516 
Q 3050 2419 3304 2112 
Q 3559 1806 3559 1356 
Q 3559 666 3084 287 
Q 2609 -91 1734 -91 
Q 1441 -91 1130 -33 
Q 819 25 488 141 
L 488 750 
Q 750 597 1062 519 
Q 1375 441 1716 441 
Q 2309 441 2620 675 
Q 2931 909 2931 1356 
Q 2931 1769 2642 2001 
Q 2353 2234 1838 2234 
L 1294 2234 
L 1294 2753 
L 1863 2753 
Q 2328 2753 2575 2939 
Q 2822 3125 2822 3475 
Q 2822 3834 2567 4026 
Q 2313 4219 1838 4219 
Q 1578 4219 1281 4162 
Q 984 4106 628 3988 
L 628 4550 
Q 988 4650 1302 4700 
Q 1616 4750 1894 4750 
Q 2613 4750 3031 4423 
Q 3450 4097 3450 3541 
Q 3450 3153 3228 2886 
Q 3006 2619 2597 2516 
z
" transform="scale(0.015625)"/>
        <path id="DejaVuSans-13" d="M 2034 4250 
Q 1547 4250 1301 3770 
Q 1056 3291 1056 2328 
Q 1056 1369 1301 889 
Q 1547 409 2034 409 
Q 2525 409 2770 889 
Q 3016 1369 3016 2328 
Q 3016 3291 2770 3770 
Q 2525 4250 2034 4250 
z
M 2034 4750 
Q 2819 4750 3233 4129 
Q 3647 3509 3647 2328 
Q 3647 1150 3233 529 
Q 2819 -91 2034 -91 
Q 1250 -91 836 529 
Q 422 1150 422 2328 
Q 422 3509 836 4129 
Q 1250 4750 2034 4750 
z
" transform="scale(0.015625)"/>
       </defs>
       <use xlink:href="#DejaVuSans-c9c"/>
       <use xlink:href="#DejaVuSans-16" transform="translate(83.796875 0)"/>
       <use xlink:href="#DejaVuSans-13" transform="translate(147.421875 0)"/>
       <use xlink:href="#DejaVuSans-13" transform="translate(211.046875 0)"/>
      </g>
     </g>
    </g>
    <g id="xtick_2">
     <g id="line2d_3">
      <path d="M 113.585184 184.958281 
L 113.585184 23.558281 
" clip-path="url(#p97b145ddc3)" style="fill: none; stroke: #b0b0b0; stroke-opacity: 0.25; stroke-width: 0.6; stroke-linecap: square"/>
     </g>
     <g id="line2d_4">
      <g>
       <use xlink:href="#m5712bc5ee6" x="113.585184" y="184.958281" style="stroke: #000000; stroke-width: 0.8"/>
      </g>
     </g>
     <g id="text_2">
      <!-- −200 -->
      <g transform="translate(99.85159 199.555938) scale(0.1 -0.1)">
       <defs>
        <path id="DejaVuSans-15" d="M 1228 531 
L 3431 531 
L 3431 0 
L 469 0 
L 469 531 
Q 828 903 1448 1529 
Q 2069 2156 2228 2338 
Q 2531 2678 2651 2914 
Q 2772 3150 2772 3378 
Q 2772 3750 2511 3984 
Q 2250 4219 1831 4219 
Q 1534 4219 1204 4116 
Q 875 4013 500 3803 
L 500 4441 
Q 881 4594 1212 4672 
Q 1544 4750 1819 4750 
Q 2544 4750 2975 4387 
Q 3406 4025 3406 3419 
Q 3406 3131 3298 2873 
Q 3191 2616 2906 2266 
Q 2828 2175 2409 1742 
Q 1991 1309 1228 531 
z
" transform="scale(0.015625)"/>
       </defs>
       <use xlink:href="#DejaVuSans-c9c"/>
       <use xlink:href="#DejaVuSans-15" transform="translate(83.796875 0)"/>
       <use xlink:href="#DejaVuSans-13" transform="translate(147.421875 0)"/>
       <use xlink:href="#DejaVuSans-13" transform="translate(211.046875 0)"/>
      </g>
     </g>
    </g>
    <g id="xtick_3">
     <g id="line2d_5">
      <path d="M 155.625209 184.958281 
L 155.625209 23.558281 
" clip-path="url(#p97b145ddc3)" style="fill: none; stroke: #b0b0b0; stroke-opacity: 0.25; stroke-width: 0.6; stroke-linecap: square"/>
     </g>
     <g id="line2d_6">
      <g>
       <use xlink:href="#m5712bc5ee6" x="155.625209" y="184.958281" style="stroke: #000000; stroke-width: 0.8"/>
      </g>
     </g>
     <g id="text_3">
      <!-- −100 -->
      <g transform="translate(141.891615 199.555938) scale(0.1 -0.1)">
       <defs>
        <path id="DejaVuSans-14" d="M 794 531 
L 1825 531 
L 1825 4091 
L 703 3866 
L 703 4441 
L 1819 4666 
L 2450 4666 
L 2450 531 
L 3481 531 
L 3481 0 
L 794 0 
L 794 531 
z
" transform="scale(0.015625)"/>
       </defs>
       <use xlink:href="#DejaVuSans-c9c"/>
       <use xlink:href="#DejaVuSans-14" transform="translate(83.796875 0)"/>
       <use xlink:href="#DejaVuSans-13" transform="translate(147.421875 0)"/>
       <use xlink:href="#DejaVuSans-13" transform="translate(211.046875 0)"/>
      </g>
     </g>
    </g>
    <g id="xtick_4">
     <g id="line2d_7">
      <path d="M 197.665234 184.958281 
L 197.665234 23.558281 
" clip-path="url(#p97b145ddc3)" style="fill: none; stroke: #b0b0b0; stroke-opacity: 0.25; stroke-width: 0.6; stroke-linecap: square"/>
     </g>
     <g id="line2d_8">
      <g>
       <use xlink:href="#m5712bc5ee6" x="197.665234" y="184.958281" style="stroke: #000000; stroke-width: 0.8"/>
      </g>
     </g>
     <g id="text_4">
      <!-- 0 -->
      <g transform="translate(194.483984 199.555938) scale(0.1 -0.1)">
       <use xlink:href="#DejaVuSans-13"/>
      </g>
     </g>
    </g>
    <g id="xtick_5">
     <g id="line2d_9">
      <path d="M 239.70526 184.958281 
L 239.70526 23.558281 
" clip-path="url(#p97b145ddc3)" style="fill: none; stroke: #b0b0b0; stroke-opacity: 0.25; stroke-width: 0.6; stroke-linecap: square"/>
     </g>
     <g id="line2d_10">
      <g>
       <use xlink:href="#m5712bc5ee6" x="239.70526" y="184.958281" style="stroke: #000000; stroke-width: 0.8"/>
      </g>
     </g>
     <g id="text_5">
      <!-- 100 -->
      <g transform="translate(230.16151 199.555938) scale(0.1 -0.1)">
       <use xlink:href="#DejaVuSans-14"/>
       <use xlink:href="#DejaVuSans-13" transform="translate(63.625 0)"/>
       <use xlink:href="#DejaVuSans-13" transform="translate(127.25 0)"/>
      </g>
     </g>
    </g>
    <g id="xtick_6">
     <g id="line2d_11">
      <path d="M 281.745285 184.958281 
L 281.745285 23.558281 
" clip-path="url(#p97b145ddc3)" style="fill: none; stroke: #b0b0b0; stroke-opacity: 0.25; stroke-width: 0.6; stroke-linecap: square"/>
     </g>
     <g id="line2d_12">
      <g>
       <use xlink:href="#m5712bc5ee6" x="281.745285" y="184.958281" style="stroke: #000000; stroke-width: 0.8"/>
      </g>
     </g>
     <g id="text_6">
      <!-- 200 -->
      <g transform="translate(272.201535 199.555938) scale(0.1 -0.1)">
       <use xlink:href="#DejaVuSans-15"/>
       <use xlink:href="#DejaVuSans-13" transform="translate(63.625 0)"/>
       <use xlink:href="#DejaVuSans-13" transform="translate(127.25 0)"/>
      </g>
     </g>
    </g>
    <g id="xtick_7">
     <g id="line2d_13">
      <path d="M 323.78531 184.958281 
L 323.78531 23.558281 
" clip-path="url(#p97b145ddc3)" style="fill: none; stroke: #b0b0b0; stroke-opacity: 0.25; stroke-width: 0.6; stroke-linecap: square"/>
     </g>
     <g id="line2d_14">
      <g>
       <use xlink:href="#m5712bc5ee6" x="323.78531" y="184.958281" style="stroke: #000000; stroke-width: 0.8"/>
      </g>
     </g>
     <g id="text_7">
      <!-- 300 -->
      <g transform="translate(314.24156 199.555938) scale(0.1 -0.1)">
       <use xlink:href="#DejaVuSans-16"/>
       <use xlink:href="#DejaVuSans-13" transform="translate(63.625 0)"/>
       <use xlink:href="#DejaVuSans-13" transform="translate(127.25 0)"/>
      </g>
     </g>
    </g>
    <g id="text_8">
     <!-- x -->
     <g transform="translate(194.705859 213.555938) scale(0.1 -0.1)">
      <defs>
       <path id="DejaVuSans-5b" d="M 3513 3500 
L 2247 1797 
L 3578 0 
L 2900 0 
L 1881 1375 
L 863 0 
L 184 0 
L 1544 1831 
L 300 3500 
L 978 3500 
L 1906 2253 
L 2834 3500 
L 3513 3500 
z
" transform="scale(0.015625)"/>
      </defs>
      <use xlink:href="#DejaVuSans-5b"/>
     </g>
    </g>
   </g>
   <g id="matplotlib.axis_2">
    <g id="ytick_1">
     <g id="line2d_15">
      <path d="M 50.466406 177.621918 
L 344.864062 177.621918 
" clip-path="url(#p97b145ddc3)" style="fill: none; stroke: #b0b0b0; stroke-opacity: 0.25; stroke-width: 0.6; stroke-linecap: square"/>
     </g>
     <g id="line2d_16">
      <defs>
       <path id="mde938a47cf" d="M 0 0 
L -3.5 0 
" style="stroke: #000000; stroke-width: 0.8"/>
      </defs>
      <g>
       <use xlink:href="#mde938a47cf" x="50.466406" y="177.621918" style="stroke: #000000; stroke-width: 0.8"/>
      </g>
     </g>
     <g id="text_9">
      <!-- 0.00 -->
      <g transform="translate(21.200781 181.420746) scale(0.1 -0.1)">
       <defs>
        <path id="DejaVuSans-11" d="M 684 794 
L 1344 794 
L 1344 0 
L 684 0 
L 684 794 
z
" transform="scale(0.015625)"/>
       </defs>
       <use xlink:href="#DejaVuSans-13"/>
       <use xlink:href="#DejaVuSans-11" transform="translate(63.625 0)"/>
       <use xlink:href="#DejaVuSans-13" transform="translate(95.40625 0)"/>
       <use xlink:href="#DejaVuSans-13" transform="translate(159.03125 0)"/>
      </g>
     </g>
    </g>
    <g id="ytick_2">
     <g id="line2d_17">
      <path d="M 50.466406 139.905666 
L 344.864062 139.905666 
" clip-path="url(#p97b145ddc3)" style="fill: none; stroke: #b0b0b0; stroke-opacity: 0.25; stroke-width: 0.6; stroke-linecap: square"/>
     </g>
     <g id="line2d_18">
      <g>
       <use xlink:href="#mde938a47cf" x="50.466406" y="139.905666" style="stroke: #000000; stroke-width: 0.8"/>
      </g>
     </g>
     <g id="text_10">
      <!-- 0.05 -->
      <g transform="translate(21.200781 143.704494) scale(0.1 -0.1)">
       <defs>
        <path id="DejaVuSans-18" d="M 691 4666 
L 3169 4666 
L 3169 4134 
L 1269 4134 
L 1269 2991 
Q 1406 3038 1543 3061 
Q 1681 3084 1819 3084 
Q 2600 3084 3056 2656 
Q 3513 2228 3513 1497 
Q 3513 744 3044 326 
Q 2575 -91 1722 -91 
Q 1428 -91 1123 -41 
Q 819 9 494 109 
L 494 744 
Q 775 591 1075 516 
Q 1375 441 1709 441 
Q 2250 441 2565 725 
Q 2881 1009 2881 1497 
Q 2881 1984 2565 2268 
Q 2250 2553 1709 2553 
Q 1456 2553 1204 2497 
Q 953 2441 691 2322 
L 691 4666 
z
" transform="scale(0.015625)"/>
       </defs>
       <use xlink:href="#DejaVuSans-13"/>
       <use xlink:href="#DejaVuSans-11" transform="translate(63.625 0)"/>
       <use xlink:href="#DejaVuSans-13" transform="translate(95.40625 0)"/>
       <use xlink:href="#DejaVuSans-18" transform="translate(159.03125 0)"/>
      </g>
     </g>
    </g>
    <g id="ytick_3">
     <g id="line2d_19">
      <path d="M 50.466406 102.189414 
L 344.864062 102.189414 
" clip-path="url(#p97b145ddc3)" style="fill: none; stroke: #b0b0b0; stroke-opacity: 0.25; stroke-width: 0.6; stroke-linecap: square"/>
     </g>
     <g id="line2d_20">
      <g>
       <use xlink:href="#mde938a47cf" x="50.466406" y="102.189414" style="stroke: #000000; stroke-width: 0.8"/>
      </g>
     </g>
     <g id="text_11">
      <!-- 0.10 -->
      <g transform="translate(21.200781 105.988242) scale(0.1 -0.1)">
       <use xlink:href="#DejaVuSans-13"/>
       <use xlink:href="#DejaVuSans-11" transform="translate(63.625 0)"/>
       <use xlink:href="#DejaVuSans-14" transform="translate(95.40625 0)"/>
       <use xlink:href="#DejaVuSans-13" transform="translate(159.03125 0)"/>
      </g>
     </g>
    </g>
    <g id="ytick_4">
     <g id="line2d_21">
      <path d="M 50.466406 64.473162 
L 344.864062 64.473162 
" clip-path="url(#p97b145ddc3)" style="fill: none; stroke: #b0b0b0; stroke-opacity: 0.25; stroke-width: 0.6; stroke-linecap: square"/>
     </g>
     <g id="line2d_22">
      <g>
       <use xlink:href="#mde938a47cf" x="50.466406" y="64.473162" style="stroke: #000000; stroke-width: 0.8"/>
      </g>
     </g>
     <g id="text_12">
      <!-- 0.15 -->
      <g transform="translate(21.200781 68.27199) scale(0.1 -0.1)">
       <use xlink:href="#DejaVuSans-13"/>
       <use xlink:href="#DejaVuSans-11" transform="translate(63.625 0)"/>
       <use xlink:href="#DejaVuSans-14" transform="translate(95.40625 0)"/>
       <use xlink:href="#DejaVuSans-18" transform="translate(159.03125 0)"/>
      </g>
     </g>
    </g>
    <g id="ytick_5">
     <g id="line2d_23">
      <path d="M 50.466406 26.756909 
L 344.864062 26.756909 
" clip-path="url(#p97b145ddc3)" style="fill: none; stroke: #b0b0b0; stroke-opacity: 0.25; stroke-width: 0.6; stroke-linecap: square"/>
     </g>
     <g id="line2d_24">
      <g>
       <use xlink:href="#mde938a47cf" x="50.466406" y="26.756909" style="stroke: #000000; stroke-width: 0.8"/>
      </g>
     </g>
     <g id="text_13">
      <!-- 0.20 -->
      <g transform="translate(21.200781 30.555738) scale(0.1 -0.1)">
       <use xlink:href="#DejaVuSans-13"/>
       <use xlink:href="#DejaVuSans-11" transform="translate(63.625 0)"/>
       <use xlink:href="#DejaVuSans-15" transform="translate(95.40625 0)"/>
       <use xlink:href="#DejaVuSans-13" transform="translate(159.03125 0)"/>
      </g>
     </g>
    </g>
    <g id="text_14">
     <!-- f(x) -->
     <g transform="translate(14.798437 112.879375) rotate(-90) scale(0.1 -0.1)">
      <defs>
       <path id="DejaVuSans-49" d="M 2375 4863 
L 2375 4384 
L 1825 4384 
Q 1516 4384 1395 4259 
Q 1275 4134 1275 3809 
L 1275 3500 
L 2222 3500 
L 2222 3053 
L 1275 3053 
L 1275 0 
L 697 0 
L 697 3053 
L 147 3053 
L 147 3500 
L 697 3500 
L 697 3744 
Q 697 4328 969 4595 
Q 1241 4863 1831 4863 
L 2375 4863 
z
" transform="scale(0.015625)"/>
       <path id="DejaVuSans-b" d="M 1984 4856 
Q 1566 4138 1362 3434 
Q 1159 2731 1159 2009 
Q 1159 1288 1364 580 
Q 1569 -128 1984 -844 
L 1484 -844 
Q 1016 -109 783 600 
Q 550 1309 550 2009 
Q 550 2706 781 3412 
Q 1013 4119 1484 4856 
L 1984 4856 
z
" transform="scale(0.015625)"/>
       <path id="DejaVuSans-c" d="M 513 4856 
L 1013 4856 
Q 1481 4119 1714 3412 
Q 1947 2706 1947 2009 
Q 1947 1309 1714 600 
Q 1481 -109 1013 -844 
L 513 -844 
Q 928 -128 1133 580 
Q 1338 1288 1338 2009 
Q 1338 2731 1133 3434 
Q 928 4138 513 4856 
z
" transform="scale(0.015625)"/>
      </defs>
      <use xlink:href="#DejaVuSans-49"/>
      <use xlink:href="#DejaVuSans-b" transform="translate(35.203125 0)"/>
      <use xlink:href="#DejaVuSans-5b" transform="translate(74.21875 0)"/>
      <use xlink:href="#DejaVuSans-c" transform="translate(133.40625 0)"/>
     </g>
    </g>
   </g>
   <g id="line2d_25">
    <path d="M 63.848118 177.619548 
L 178.548503 177.505854 
L 185.926891 177.314333 
L 189.280703 177.019793 
L 191.292991 176.581366 
L 192.634516 175.956772 
L 193.305278 175.41009 
L 193.976041 174.543919 
L 194.646803 173.052844 
L 195.317566 170.16167 
L 195.988328 163.423339 
L 196.659091 141.933258 
L 197.329853 30.894645 
L 198.000616 30.894645 
L 198.671378 141.933258 
L 199.342141 163.423339 
L 200.012903 170.16167 
L 200.683666 173.052844 
L 201.354428 174.543919 
L 202.025191 175.41009 
L 202.695953 175.956772 
L 204.037478 176.581366 
L 205.379003 176.910846 
L 207.39129 177.174152 
L 211.415865 177.397693 
L 219.465015 177.532655 
L 242.27094 177.600591 
L 331.482351 177.619548 
L 331.482351 177.619548 
" clip-path="url(#p97b145ddc3)" style="fill: none; stroke: #4c78a8; stroke-width: 2; stroke-linecap: square"/>
   </g>
   <g id="patch_3">
    <path d="M 50.466406 184.958281 
L 50.466406 23.558281 
" style="fill: none; stroke: #000000; stroke-width: 0.8; stroke-linejoin: miter; stroke-linecap: square"/>
   </g>
   <g id="patch_4">
    <path d="M 50.466406 184.958281 
L 344.864062 184.958281 
" style="fill: none; stroke: #000000; stroke-width: 0.8; stroke-linejoin: miter; stroke-linecap: square"/>
   </g>
   <g id="text_15">
    <!-- Cauchy -->
    <g transform="translate(177.203516 15.558281) scale(0.11 -0.11)">
     <defs>
      <path id="DejaVuSans-26" d="M 4122 4306 
L 4122 3641 
Q 3803 3938 3442 4084 
Q 3081 4231 2675 4231 
Q 1875 4231 1450 3742 
Q 1025 3253 1025 2328 
Q 1025 1406 1450 917 
Q 1875 428 2675 428 
Q 3081 428 3442 575 
Q 3803 722 4122 1019 
L 4122 359 
Q 3791 134 3420 21 
Q 3050 -91 2638 -91 
Q 1578 -91 968 557 
Q 359 1206 359 2328 
Q 359 3453 968 4101 
Q 1578 4750 2638 4750 
Q 3056 4750 3426 4639 
Q 3797 4528 4122 4306 
z
" transform="scale(0.015625)"/>
      <path id="DejaVuSans-44" d="M 2194 1759 
Q 1497 1759 1228 1600 
Q 959 1441 959 1056 
Q 959 750 1161 570 
Q 1363 391 1709 391 
Q 2188 391 2477 730 
Q 2766 1069 2766 1631 
L 2766 1759 
L 2194 1759 
z
M 3341 1997 
L 3341 0 
L 2766 0 
L 2766 531 
Q 2569 213 2275 61 
Q 1981 -91 1556 -91 
Q 1019 -91 701 211 
Q 384 513 384 1019 
Q 384 1609 779 1909 
Q 1175 2209 1959 2209 
L 2766 2209 
L 2766 2266 
Q 2766 2663 2505 2880 
Q 2244 3097 1772 3097 
Q 1472 3097 1187 3025 
Q 903 2953 641 2809 
L 641 3341 
Q 956 3463 1253 3523 
Q 1550 3584 1831 3584 
Q 2591 3584 2966 3190 
Q 3341 2797 3341 1997 
z
" transform="scale(0.015625)"/>
      <path id="DejaVuSans-58" d="M 544 1381 
L 544 3500 
L 1119 3500 
L 1119 1403 
Q 1119 906 1312 657 
Q 1506 409 1894 409 
Q 2359 409 2629 706 
Q 2900 1003 2900 1516 
L 2900 3500 
L 3475 3500 
L 3475 0 
L 2900 0 
L 2900 538 
Q 2691 219 2414 64 
Q 2138 -91 1772 -91 
Q 1169 -91 856 284 
Q 544 659 544 1381 
z
M 1991 3584 
L 1991 3584 
z
" transform="scale(0.015625)"/>
      <path id="DejaVuSans-46" d="M 3122 3366 
L 3122 2828 
Q 2878 2963 2633 3030 
Q 2388 3097 2138 3097 
Q 1578 3097 1268 2742 
Q 959 2388 959 1747 
Q 959 1106 1268 751 
Q 1578 397 2138 397 
Q 2388 397 2633 464 
Q 2878 531 3122 666 
L 3122 134 
Q 2881 22 2623 -34 
Q 2366 -91 2075 -91 
Q 1284 -91 818 406 
Q 353 903 353 1747 
Q 353 2603 823 3093 
Q 1294 3584 2113 3584 
Q 2378 3584 2631 3529 
Q 2884 3475 3122 3366 
z
" transform="scale(0.015625)"/>
      <path id="DejaVuSans-4b" d="M 3513 2113 
L 3513 0 
L 2938 0 
L 2938 2094 
Q 2938 2591 2744 2837 
Q 2550 3084 2163 3084 
Q 1697 3084 1428 2787 
Q 1159 2491 1159 1978 
L 1159 0 
L 581 0 
L 581 4863 
L 1159 4863 
L 1159 2956 
Q 1366 3272 1645 3428 
Q 1925 3584 2291 3584 
Q 2894 3584 3203 3211 
Q 3513 2838 3513 2113 
z
" transform="scale(0.015625)"/>
      <path id="DejaVuSans-5c" d="M 2059 -325 
Q 1816 -950 1584 -1140 
Q 1353 -1331 966 -1331 
L 506 -1331 
L 506 -850 
L 844 -850 
Q 1081 -850 1212 -737 
Q 1344 -625 1503 -206 
L 1606 56 
L 191 3500 
L 800 3500 
L 1894 763 
L 2988 3500 
L 3597 3500 
L 2059 -325 
z
" transform="scale(0.015625)"/>
     </defs>
     <use xlink:href="#DejaVuSans-26"/>
     <use xlink:href="#DejaVuSans-44" transform="translate(69.828125 0)"/>
     <use xlink:href="#DejaVuSans-58" transform="translate(131.109375 0)"/>
     <use xlink:href="#DejaVuSans-46" transform="translate(194.484375 0)"/>
     <use xlink:href="#DejaVuSans-4b" transform="translate(249.46875 0)"/>
     <use xlink:href="#DejaVuSans-5c" transform="translate(312.84375 0)"/>
    </g>
   </g>
  </g>
 </g>
 <defs>
  <clipPath id="p97b145ddc3">
   <rect x="50.466406" y="23.558281" width="294.397656" height="161.4"/>
  </clipPath>
 </defs>
</svg>
