<?xml version="1.0" encoding="utf-8" standalone="no"?>
<!DOCTYPE svg PUBLIC "-//W3C//DTD SVG 1.1//EN"
  "http://www.w3.org/Graphics/SVG/1.1/DTD/svg11.dtd">
<svg xmlns:xlink="http://www.w3.org/1999/xlink" width="352.064062pt" height="223.158281pt" viewBox="0 0 352.064062 223.158281" xmlns="http://www.w3.org/2000/svg" version="1.1">
 <metadata>
  <rdf:RDF xmlns:dc="http://purl.org/dc/elements/1.1/" xmlns:cc="http://creativecommons.org/ns#" xmlns:rdf="http://www.w3.org/1999/02/22-rdf-syntax-ns#">
   <cc:Work>
    <dc:type rdf:resource="http://purl.org/dc/dcmitype/StillImage"/>
    <dc:date>2026-07-05T02:24:31.228744</dc:date>
    <dc:format>image/svg+xml</dc:format>
    <dc:creator>
     <cc:Agent>
      <dc:title>Matplotlib v3.11.0, https://matplotlib.org/</dc:title>
     </cc:Agent>
    </dc:creator>
   </cc:Work>
  </rdf:RDF>
 </metadata>
 <defs>
  <style type="text/css">*{stroke-linejoin: round; stroke-linecap: butt}</style>
 </defs>
 <g id="figure_1">
  <g id="patch_1">
   <path d="M 0 223.158281 
L 352.064062 223.158281 
L 352.064062 0 
L 0 0 
z
" style="fill: #ffffff"/>
  </g>
  <g id="axes_1">
   <g id="patch_2">
    <path d="M 50.466406 184.958281 
L 344.864062 184.958281 
L 344.864062 23.558281 
L 50.466406 23.558281 
z
" style="fill: #ffffff"/>
   </g>
   <g id="FillBetweenPolyCollection_1">
    <defs>
     <path id="m831308a218" d="M 63.848118 -45.536364 
L 63.848118 -82.789571 
L 64.51888 -105.241745 
L 65.189643 -120.140542 
L 65.860405 -131.568459 
L 66.531168 -140.835635 
L 67.20193 -148.572968 
L 67.872693 -155.145918 
L 68.543455 -160.790722 
L 69.214218 -165.671702 
L 69.88498 -169.909334 
L 70.555743 -173.595516 
L 71.226505 -176.802542 
L 71.897268 -179.588705 
L 72.56803 -182.001964 
L 73.238793 -184.08244 
L 73.909555 -185.86417 
L 74.580318 -187.376374 
L 75.25108 -188.644401 
L 75.921843 -189.690429 
L 76.592605 -190.534019 
L 77.263368 -191.192536 
L 77.93413 -191.681493 
L 78.604893 -192.014816 
L 79.275655 -192.20507 
L 79.946418 -192.263636 
L 80.61718 -192.200867 
L 81.287943 -192.026207 
L 81.958705 -191.748299 
L 82.629468 -191.375078 
L 83.30023 -190.913843 
L 83.970993 -190.371325 
L 84.641755 -189.753744 
L 85.312518 -189.06686 
L 85.98328 -188.316014 
L 86.654043 -187.506165 
L 87.324805 -186.641929 
L 87.995567 -185.727603 
L 88.66633 -184.767195 
L 89.337092 -183.764446 
L 90.007855 -182.722851 
L 90.678617 -181.645679 
L 91.34938 -180.535991 
L 92.020142 -179.396652 
L 92.690905 -178.230348 
L 93.361667 -177.039599 
L 94.03243 -175.826768 
L 94.703192 -174.594075 
L 95.373955 -173.343602 
L 96.044717 -172.077308 
L 96.71548 -170.797033 
L 97.386242 -169.504504 
L 98.057005 -168.201348 
L 98.727767 -166.889093 
L 99.39853 -165.569176 
L 100.069292 -164.242949 
L 100.740055 -162.911681 
L 101.410817 -161.576568 
L 102.08158 -160.238733 
L 102.752342 -158.899232 
L 103.423105 -157.559057 
L 104.093867 -156.219142 
L 104.76463 -154.880361 
L 105.435392 -153.543538 
L 106.106155 -152.209444 
L 106.776917 -150.878804 
L 107.44768 -149.552295 
L 108.118442 -148.230556 
L 108.789205 -146.914182 
L 109.459967 -145.603729 
L 110.13073 -144.29972 
L 110.801492 -143.002641 
L 111.472255 -141.712947 
L 112.143017 -140.431061 
L 112.81378 -139.157377 
L 113.484542 -137.892263 
L 114.155305 -136.636057 
L 114.826067 -135.389076 
L 115.49683 -134.15161 
L 116.167592 -132.92393 
L 116.838354 -131.706282 
L 117.509117 -130.498896 
L 118.179879 -129.301978 
L 118.850642 -128.11572 
L 119.521404 -126.940295 
L 120.192167 -125.775859 
L 120.862929 -124.622554 
L 121.533692 -123.480505 
L 122.204454 -122.349827 
L 122.875217 -121.230618 
L 123.545979 -120.122964 
L 124.216742 -119.026941 
L 124.887504 -117.942613 
L 125.558267 -116.870032 
L 126.229029 -115.809241 
L 126.899792 -114.760274 
L 127.570554 -113.723155 
L 128.241317 -112.697899 
L 128.912079 -111.684514 
L 129.582842 -110.683 
L 130.253604 -109.693349 
L 130.924367 -108.715547 
L 131.595129 -107.749573 
L 132.265892 -106.795401 
L 132.936654 -105.852998 
L 133.607417 -104.922326 
L 134.278179 -104.003342 
L 134.948942 -103.095997 
L 135.619704 -102.200241 
L 136.290467 -101.316015 
L 136.961229 -100.443259 
L 137.631992 -99.581908 
L 138.302754 -98.731896 
L 138.973517 -97.89315 
L 139.644279 -97.065596 
L 140.315042 -96.249158 
L 140.985804 -95.443755 
L 141.656567 -94.649306 
L 142.327329 -93.865725 
L 142.998092 -93.092927 
L 143.668854 -92.330822 
L 144.339617 -91.57932 
L 145.010379 -90.83833 
L 145.681142 -90.107758 
L 146.351904 -89.387509 
L 147.022666 -88.677486 
L 147.693429 -87.977593 
L 148.364191 -87.28773 
L 149.034954 -86.6078 
L 149.705716 -85.937702 
L 150.376479 -85.277335 
L 151.047241 -84.626599 
L 151.718004 -83.98539 
L 152.388766 -83.353608 
L 153.059529 -82.731149 
L 153.730291 -82.11791 
L 154.401054 -81.513789 
L 155.071816 -80.918683 
L 155.742579 -80.332488 
L 156.413341 -79.755101 
L 157.084104 -79.186418 
L 157.754866 -78.626338 
L 158.425629 -78.074757 
L 159.096391 -77.531572 
L 159.767154 -76.996682 
L 160.437916 -76.469983 
L 161.108679 -75.951375 
L 161.779441 -75.440756 
L 162.450204 -74.938025 
L 163.120966 -74.443083 
L 163.791729 -73.955829 
L 164.462491 -73.476163 
L 165.133254 -73.003988 
L 165.804016 -72.539205 
L 166.474779 -72.081717 
L 167.145541 -71.631427 
L 167.816304 -71.188238 
L 168.487066 -70.752055 
L 169.157829 -70.322784 
L 169.828591 -69.90033 
L 170.499354 -69.4846 
L 171.170116 -69.075502 
L 171.840879 -68.672944 
L 172.511641 -68.276835 
L 173.182404 -67.887085 
L 173.853166 -67.503604 
L 174.523929 -67.126304 
L 175.194691 -66.755098 
L 175.865453 -66.389898 
L 176.536216 -66.030619 
L 177.206978 -65.677176 
L 177.877741 -65.329484 
L 178.548503 -64.98746 
L 179.219266 -64.651022 
L 179.890028 -64.320088 
L 180.560791 -63.994577 
L 181.231553 -63.674409 
L 181.902316 -63.359506 
L 182.573078 -63.049789 
L 183.243841 -62.745181 
L 183.914603 -62.445606 
L 184.585366 -62.150989 
L 185.256128 -61.861255 
L 185.926891 -61.57633 
L 186.597653 -61.296142 
L 187.268416 -61.020618 
L 187.939178 -60.749688 
L 188.609941 -60.483282 
L 189.280703 -60.22133 
L 189.951466 -59.963763 
L 190.622228 -59.710515 
L 191.292991 -59.461519 
L 191.963753 -59.216708 
L 192.634516 -58.976019 
L 193.305278 -58.739385 
L 193.976041 -58.506746 
L 194.646803 -58.278037 
L 195.317566 -58.053197 
L 195.988328 -57.832166 
L 196.659091 -57.614884 
L 197.329853 -57.40129 
L 198.000616 -57.191328 
L 198.671378 -56.984939 
L 199.342141 -56.782066 
L 200.012903 -56.582653 
L 200.683666 -56.386646 
L 201.354428 -56.19399 
L 202.025191 -56.00463 
L 202.695953 -55.818514 
L 203.366716 -55.635591 
L 204.037478 -55.455807 
L 204.708241 -55.279113 
L 205.379003 -55.105459 
L 206.049765 -54.934795 
L 206.720528 -54.767072 
L 207.39129 -54.602244 
L 208.062053 -54.440261 
L 208.732815 -54.281079 
L 209.403578 -54.124652 
L 210.07434 -53.970933 
L 210.745103 -53.819879 
L 211.415865 -53.671446 
L 212.086628 -53.525591 
L 212.75739 -53.382271 
L 213.428153 -53.241444 
L 214.098915 -53.103069 
L 214.769678 -52.967106 
L 215.44044 -52.833514 
L 216.111203 -52.702254 
L 216.781965 -52.573287 
L 217.452728 -52.446575 
L 218.12349 -52.32208 
L 218.794253 -52.199766 
L 219.465015 -52.079595 
L 220.135778 -51.961532 
L 220.80654 -51.845542 
L 221.477303 -51.731589 
L 222.148065 -51.61964 
L 222.818828 -51.50966 
L 223.48959 -51.401617 
L 224.160353 -51.295477 
L 224.831115 -51.191209 
L 225.501878 -51.08878 
L 226.17264 -50.98816 
L 226.843403 -50.889319 
L 227.514165 -50.792224 
L 228.184928 -50.696848 
L 228.85569 -50.603161 
L 229.526453 -50.511133 
L 230.197215 -50.420738 
L 230.867978 -50.331946 
L 231.53874 -50.24473 
L 232.209503 -50.159064 
L 232.880265 -50.07492 
L 233.551028 -49.992273 
L 234.22179 -49.911098 
L 234.892552 -49.831367 
L 235.563315 -49.753058 
L 236.234077 -49.676145 
L 236.90484 -49.600604 
L 237.575602 -49.526412 
L 238.246365 -49.453546 
L 238.917127 -49.381981 
L 239.58789 -49.311697 
L 240.258652 -49.24267 
L 240.929415 -49.174879 
L 241.600177 -49.108302 
L 242.27094 -49.042919 
L 242.941702 -48.978708 
L 243.612465 -48.91565 
L 244.283227 -48.853724 
L 244.95399 -48.79291 
L 245.624752 -48.733189 
L 246.295515 -48.674542 
L 246.966277 -48.61695 
L 247.63704 -48.560395 
L 248.307802 -48.504859 
L 248.978565 -48.450323 
L 249.649327 -48.396771 
L 250.32009 -48.344184 
L 250.990852 -48.292547 
L 251.661615 -48.241841 
L 252.332377 -48.192052 
L 253.00314 -48.143163 
L 253.673902 -48.095157 
L 254.344665 -48.048021 
L 255.015427 -48.001737 
L 255.68619 -47.956291 
L 256.356952 -47.911668 
L 257.027715 -47.867855 
L 257.698477 -47.824835 
L 258.36924 -47.782596 
L 259.040002 -47.741124 
L 259.710765 -47.700405 
L 260.381527 -47.660425 
L 261.05229 -47.621171 
L 261.723052 -47.582632 
L 262.393815 -47.544793 
L 263.064577 -47.507643 
L 263.73534 -47.471169 
L 264.406102 -47.435359 
L 265.076864 -47.400202 
L 265.747627 -47.365685 
L 266.418389 -47.331798 
L 267.089152 -47.298529 
L 267.759914 -47.265867 
L 268.430677 -47.233801 
L 269.101439 -47.202321 
L 269.772202 -47.171416 
L 270.442964 -47.141076 
L 271.113727 -47.11129 
L 271.784489 -47.08205 
L 272.455252 -47.053344 
L 273.126014 -47.025164 
L 273.796777 -46.997499 
L 274.467539 -46.970342 
L 275.138302 -46.943682 
L 275.809064 -46.917511 
L 276.479827 -46.89182 
L 277.150589 -46.8666 
L 277.821352 -46.841843 
L 278.492114 -46.81754 
L 279.162877 -46.793684 
L 279.833639 -46.770266 
L 280.504402 -46.747278 
L 281.175164 -46.724713 
L 281.845927 -46.702563 
L 282.516689 -46.680821 
L 283.187452 -46.659478 
L 283.858214 -46.638528 
L 284.528977 -46.617964 
L 285.199739 -46.597779 
L 285.870502 -46.577966 
L 286.541264 -46.558518 
L 287.212027 -46.539429 
L 287.882789 -46.520691 
L 288.553552 -46.5023 
L 289.224314 -46.484248 
L 289.895077 -46.466529 
L 290.565839 -46.449137 
L 291.236602 -46.432067 
L 291.907364 -46.415312 
L 292.578127 -46.398866 
L 293.248889 -46.382725 
L 293.919651 -46.366882 
L 294.590414 -46.351333 
L 295.261176 -46.336071 
L 295.931939 -46.321092 
L 296.602701 -46.30639 
L 297.273464 -46.29196 
L 297.944226 -46.277798 
L 298.614989 -46.263898 
L 299.285751 -46.250256 
L 299.956514 -46.236867 
L 300.627276 -46.223726 
L 301.298039 -46.210829 
L 301.968801 -46.198171 
L 302.639564 -46.185749 
L 303.310326 -46.173557 
L 303.981089 -46.161591 
L 304.651851 -46.149848 
L 305.322614 -46.138323 
L 305.993376 -46.127012 
L 306.664139 -46.115912 
L 307.334901 -46.105018 
L 308.005664 -46.094327 
L 308.676426 -46.083834 
L 309.347189 -46.073537 
L 310.017951 -46.063432 
L 310.688714 -46.053515 
L 311.359476 -46.043782 
L 312.030239 -46.034231 
L 312.701001 -46.024858 
L 313.371764 -46.01566 
L 314.042526 -46.006633 
L 314.713289 -45.997774 
L 315.384051 -45.989081 
L 316.054814 -45.98055 
L 316.725576 -45.972178 
L 317.396339 -45.963963 
L 318.067101 -45.955901 
L 318.737864 -45.947989 
L 319.408626 -45.940225 
L 320.079389 -45.932607 
L 320.750151 -45.92513 
L 321.420914 -45.917794 
L 322.091676 -45.910595 
L 322.762439 -45.90353 
L 323.433201 -45.896597 
L 324.103963 -45.889795 
L 324.774726 -45.883119 
L 325.445488 -45.876569 
L 326.116251 -45.870141 
L 326.787013 -45.863833 
L 327.457776 -45.857644 
L 328.128538 -45.851571 
L 328.799301 -45.845611 
L 329.470063 -45.839763 
L 330.140826 -45.834025 
L 330.811588 -45.828394 
L 331.482351 -45.822869 
L 331.482351 -45.536364 
L 331.482351 -45.536364 
L 330.811588 -45.536364 
L 330.140826 -45.536364 
L 329.470063 -45.536364 
L 328.799301 -45.536364 
L 328.128538 -45.536364 
L 327.457776 -45.536364 
L 326.787013 -45.536364 
L 326.116251 -45.536364 
L 325.445488 -45.536364 
L 324.774726 -45.536364 
L 324.103963 -45.536364 
L 323.433201 -45.536364 
L 322.762439 -45.536364 
L 322.091676 -45.536364 
L 321.420914 -45.536364 
L 320.750151 -45.536364 
L 320.079389 -45.536364 
L 319.408626 -45.536364 
L 318.737864 -45.536364 
L 318.067101 -45.536364 
L 317.396339 -45.536364 
L 316.725576 -45.536364 
L 316.054814 -45.536364 
L 315.384051 -45.536364 
L 314.713289 -45.536364 
L 314.042526 -45.536364 
L 313.371764 -45.536364 
L 312.701001 -45.536364 
L 312.030239 -45.536364 
L 311.359476 -45.536364 
L 310.688714 -45.536364 
L 310.017951 -45.536364 
L 309.347189 -45.536364 
L 308.676426 -45.536364 
L 308.005664 -45.536364 
L 307.334901 -45.536364 
L 306.664139 -45.536364 
L 305.993376 -45.536364 
L 305.322614 -45.536364 
L 304.651851 -45.536364 
L 303.981089 -45.536364 
L 303.310326 -45.536364 
L 302.639564 -45.536364 
L 301.968801 -45.536364 
L 301.298039 -45.536364 
L 300.627276 -45.536364 
L 299.956514 -45.536364 
L 299.285751 -45.536364 
L 298.614989 -45.536364 
L 297.944226 -45.536364 
L 297.273464 -45.536364 
L 296.602701 -45.536364 
L 295.931939 -45.536364 
L 295.261176 -45.536364 
L 294.590414 -45.536364 
L 293.919651 -45.536364 
L 293.248889 -45.536364 
L 292.578127 -45.536364 
L 291.907364 -45.536364 
L 291.236602 -45.536364 
L 290.565839 -45.536364 
L 289.895077 -45.536364 
L 289.224314 -45.536364 
L 288.553552 -45.536364 
L 287.882789 -45.536364 
L 287.212027 -45.536364 
L 286.541264 -45.536364 
L 285.870502 -45.536364 
L 285.199739 -45.536364 
L 284.528977 -45.536364 
L 283.858214 -45.536364 
L 283.187452 -45.536364 
L 282.516689 -45.536364 
L 281.845927 -45.536364 
L 281.175164 -45.536364 
L 280.504402 -45.536364 
L 279.833639 -45.536364 
L 279.162877 -45.536364 
L 278.492114 -45.536364 
L 277.821352 -45.536364 
L 277.150589 -45.536364 
L 276.479827 -45.536364 
L 275.809064 -45.536364 
L 275.138302 -45.536364 
L 274.467539 -45.536364 
L 273.796777 -45.536364 
L 273.126014 -45.536364 
L 272.455252 -45.536364 
L 271.784489 -45.536364 
L 271.113727 -45.536364 
L 270.442964 -45.536364 
L 269.772202 -45.536364 
L 269.101439 -45.536364 
L 268.430677 -45.536364 
L 267.759914 -45.536364 
L 267.089152 -45.536364 
L 266.418389 -45.536364 
L 265.747627 -45.536364 
L 265.076864 -45.536364 
L 264.406102 -45.536364 
L 263.73534 -45.536364 
L 263.064577 -45.536364 
L 262.393815 -45.536364 
L 261.723052 -45.536364 
L 261.05229 -45.536364 
L 260.381527 -45.536364 
L 259.710765 -45.536364 
L 259.040002 -45.536364 
L 258.36924 -45.536364 
L 257.698477 -45.536364 
L 257.027715 -45.536364 
L 256.356952 -45.536364 
L 255.68619 -45.536364 
L 255.015427 -45.536364 
L 254.344665 -45.536364 
L 253.673902 -45.536364 
L 253.00314 -45.536364 
L 252.332377 -45.536364 
L 251.661615 -45.536364 
L 250.990852 -45.536364 
L 250.32009 -45.536364 
L 249.649327 -45.536364 
L 248.978565 -45.536364 
L 248.307802 -45.536364 
L 247.63704 -45.536364 
L 246.966277 -45.536364 
L 246.295515 -45.536364 
L 245.624752 -45.536364 
L 244.95399 -45.536364 
L 244.283227 -45.536364 
L 243.612465 -45.536364 
L 242.941702 -45.536364 
L 242.27094 -45.536364 
L 241.600177 -45.536364 
L 240.929415 -45.536364 
L 240.258652 -45.536364 
L 239.58789 -45.536364 
L 238.917127 -45.536364 
L 238.246365 -45.536364 
L 237.575602 -45.536364 
L 236.90484 -45.536364 
L 236.234077 -45.536364 
L 235.563315 -45.536364 
L 234.892552 -45.536364 
L 234.22179 -45.536364 
L 233.551028 -45.536364 
L 232.880265 -45.536364 
L 232.209503 -45.536364 
L 231.53874 -45.536364 
L 230.867978 -45.536364 
L 230.197215 -45.536364 
L 229.526453 -45.536364 
L 228.85569 -45.536364 
L 228.184928 -45.536364 
L 227.514165 -45.536364 
L 226.843403 -45.536364 
L 226.17264 -45.536364 
L 225.501878 -45.536364 
L 224.831115 -45.536364 
L 224.160353 -45.536364 
L 223.48959 -45.536364 
L 222.818828 -45.536364 
L 222.148065 -45.536364 
L 221.477303 -45.536364 
L 220.80654 -45.536364 
L 220.135778 -45.536364 
L 219.465015 -45.536364 
L 218.794253 -45.536364 
L 218.12349 -45.536364 
L 217.452728 -45.536364 
L 216.781965 -45.536364 
L 216.111203 -45.536364 
L 215.44044 -45.536364 
L 214.769678 -45.536364 
L 214.098915 -45.536364 
L 213.428153 -45.536364 
L 212.75739 -45.536364 
L 212.086628 -45.536364 
L 211.415865 -45.536364 
L 210.745103 -45.536364 
L 210.07434 -45.536364 
L 209.403578 -45.536364 
L 208.732815 -45.536364 
L 208.062053 -45.536364 
L 207.39129 -45.536364 
L 206.720528 -45.536364 
L 206.049765 -45.536364 
L 205.379003 -45.536364 
L 204.708241 -45.536364 
L 204.037478 -45.536364 
L 203.366716 -45.536364 
L 202.695953 -45.536364 
L 202.025191 -45.536364 
L 201.354428 -45.536364 
L 200.683666 -45.536364 
L 200.012903 -45.536364 
L 199.342141 -45.536364 
L 198.671378 -45.536364 
L 198.000616 -45.536364 
L 197.329853 -45.536364 
L 196.659091 -45.536364 
L 195.988328 -45.536364 
L 195.317566 -45.536364 
L 194.646803 -45.536364 
L 193.976041 -45.536364 
L 193.305278 -45.536364 
L 192.634516 -45.536364 
L 191.963753 -45.536364 
L 191.292991 -45.536364 
L 190.622228 -45.536364 
L 189.951466 -45.536364 
L 189.280703 -45.536364 
L 188.609941 -45.536364 
L 187.939178 -45.536364 
L 187.268416 -45.536364 
L 186.597653 -45.536364 
L 185.926891 -45.536364 
L 185.256128 -45.536364 
L 184.585366 -45.536364 
L 183.914603 -45.536364 
L 183.243841 -45.536364 
L 182.573078 -45.536364 
L 181.902316 -45.536364 
L 181.231553 -45.536364 
L 180.560791 -45.536364 
L 179.890028 -45.536364 
L 179.219266 -45.536364 
L 178.548503 -45.536364 
L 177.877741 -45.536364 
L 177.206978 -45.536364 
L 176.536216 -45.536364 
L 175.865453 -45.536364 
L 175.194691 -45.536364 
L 174.523929 -45.536364 
L 173.853166 -45.536364 
L 173.182404 -45.536364 
L 172.511641 -45.536364 
L 171.840879 -45.536364 
L 171.170116 -45.536364 
L 170.499354 -45.536364 
L 169.828591 -45.536364 
L 169.157829 -45.536364 
L 168.487066 -45.536364 
L 167.816304 -45.536364 
L 167.145541 -45.536364 
L 166.474779 -45.536364 
L 165.804016 -45.536364 
L 165.133254 -45.536364 
L 164.462491 -45.536364 
L 163.791729 -45.536364 
L 163.120966 -45.536364 
L 162.450204 -45.536364 
L 161.779441 -45.536364 
L 161.108679 -45.536364 
L 160.437916 -45.536364 
L 159.767154 -45.536364 
L 159.096391 -45.536364 
L 158.425629 -45.536364 
L 157.754866 -45.536364 
L 157.084104 -45.536364 
L 156.413341 -45.536364 
L 155.742579 -45.536364 
L 155.071816 -45.536364 
L 154.401054 -45.536364 
L 153.730291 -45.536364 
L 153.059529 -45.536364 
L 152.388766 -45.536364 
L 151.718004 -45.536364 
L 151.047241 -45.536364 
L 150.376479 -45.536364 
L 149.705716 -45.536364 
L 149.034954 -45.536364 
L 148.364191 -45.536364 
L 147.693429 -45.536364 
L 147.022666 -45.536364 
L 146.351904 -45.536364 
L 145.681142 -45.536364 
L 145.010379 -45.536364 
L 144.339617 -45.536364 
L 143.668854 -45.536364 
L 142.998092 -45.536364 
L 142.327329 -45.536364 
L 141.656567 -45.536364 
L 140.985804 -45.536364 
L 140.315042 -45.536364 
L 139.644279 -45.536364 
L 138.973517 -45.536364 
L 138.302754 -45.536364 
L 137.631992 -45.536364 
L 136.961229 -45.536364 
L 136.290467 -45.536364 
L 135.619704 -45.536364 
L 134.948942 -45.536364 
L 134.278179 -45.536364 
L 133.607417 -45.536364 
L 132.936654 -45.536364 
L 132.265892 -45.536364 
L 131.595129 -45.536364 
L 130.924367 -45.536364 
L 130.253604 -45.536364 
L 129.582842 -45.536364 
L 128.912079 -45.536364 
L 128.241317 -45.536364 
L 127.570554 -45.536364 
L 126.899792 -45.536364 
L 126.229029 -45.536364 
L 125.558267 -45.536364 
L 124.887504 -45.536364 
L 124.216742 -45.536364 
L 123.545979 -45.536364 
L 122.875217 -45.536364 
L 122.204454 -45.536364 
L 121.533692 -45.536364 
L 120.862929 -45.536364 
L 120.192167 -45.536364 
L 119.521404 -45.536364 
L 118.850642 -45.536364 
L 118.179879 -45.536364 
L 117.509117 -45.536364 
L 116.838354 -45.536364 
L 116.167592 -45.536364 
L 115.49683 -45.536364 
L 114.826067 -45.536364 
L 114.155305 -45.536364 
L 113.484542 -45.536364 
L 112.81378 -45.536364 
L 112.143017 -45.536364 
L 111.472255 -45.536364 
L 110.801492 -45.536364 
L 110.13073 -45.536364 
L 109.459967 -45.536364 
L 108.789205 -45.536364 
L 108.118442 -45.536364 
L 107.44768 -45.536364 
L 106.776917 -45.536364 
L 106.106155 -45.536364 
L 105.435392 -45.536364 
L 104.76463 -45.536364 
L 104.093867 -45.536364 
L 103.423105 -45.536364 
L 102.752342 -45.536364 
L 102.08158 -45.536364 
L 101.410817 -45.536364 
L 100.740055 -45.536364 
L 100.069292 -45.536364 
L 99.39853 -45.536364 
L 98.727767 -45.536364 
L 98.057005 -45.536364 
L 97.386242 -45.536364 
L 96.71548 -45.536364 
L 96.044717 -45.536364 
L 95.373955 -45.536364 
L 94.703192 -45.536364 
L 94.03243 -45.536364 
L 93.361667 -45.536364 
L 92.690905 -45.536364 
L 92.020142 -45.536364 
L 91.34938 -45.536364 
L 90.678617 -45.536364 
L 90.007855 -45.536364 
L 89.337092 -45.536364 
L 88.66633 -45.536364 
L 87.995567 -45.536364 
L 87.324805 -45.536364 
L 86.654043 -45.536364 
L 85.98328 -45.536364 
L 85.312518 -45.536364 
L 84.641755 -45.536364 
L 83.970993 -45.536364 
L 83.30023 -45.536364 
L 82.629468 -45.536364 
L 81.958705 -45.536364 
L 81.287943 -45.536364 
L 80.61718 -45.536364 
L 79.946418 -45.536364 
L 79.275655 -45.536364 
L 78.604893 -45.536364 
L 77.93413 -45.536364 
L 77.263368 -45.536364 
L 76.592605 -45.536364 
L 75.921843 -45.536364 
L 75.25108 -45.536364 
L 74.580318 -45.536364 
L 73.909555 -45.536364 
L 73.238793 -45.536364 
L 72.56803 -45.536364 
L 71.897268 -45.536364 
L 71.226505 -45.536364 
L 70.555743 -45.536364 
L 69.88498 -45.536364 
L 69.214218 -45.536364 
L 68.543455 -45.536364 
L 67.872693 -45.536364 
L 67.20193 -45.536364 
L 66.531168 -45.536364 
L 65.860405 -45.536364 
L 65.189643 -45.536364 
L 64.51888 -45.536364 
L 63.848118 -45.536364 
z
" style="stroke: #4c78a8; stroke-opacity: 0.15"/>
    </defs>
    <g clip-path="url(#pd8c4e8128e)">
     <use xlink:href="#m831308a218" x="0" y="223.158281" style="fill: #4c78a8; fill-opacity: 0.15; stroke: #4c78a8; stroke-opacity: 0.15"/>
    </g>
   </g>
   <g id="matplotlib.axis_1">
    <g id="xtick_1">
     <g id="line2d_1">
      <path d="M 63.447743 184.958281 
L 63.447743 23.558281 
" clip-path="url(#pd8c4e8128e)" style="fill: none; stroke: #b0b0b0; stroke-opacity: 0.25; stroke-width: 0.6; stroke-linecap: square"/>
     </g>
     <g id="line2d_2">
      <defs>
       <path id="mfad3befc4a" d="M 0 0 
L 0 3.5 
" style="stroke: #000000; stroke-width: 0.8"/>
      </defs>
      <g>
       <use xlink:href="#mfad3befc4a" x="63.447743" y="184.958281" style="stroke: #000000; stroke-width: 0.8"/>
      </g>
     </g>
     <g id="text_1">
      <!-- 0 -->
      <g transform="translate(60.266493 199.555938) scale(0.1 -0.1)">
       <defs>
        <path id="DejaVuSans-13" d="M 2034 4250 
Q 1547 4250 1301 3770 
Q 1056 3291 1056 2328 
Q 1056 1369 1301 889 
Q 1547 409 2034 409 
Q 2525 409 2770 889 
Q 3016 1369 3016 2328 
Q 3016 3291 2770 3770 
Q 2525 4250 2034 4250 
z
M 2034 4750 
Q 2819 4750 3233 4129 
Q 3647 3509 3647 2328 
Q 3647 1150 3233 529 
Q 2819 -91 2034 -91 
Q 1250 -91 836 529 
Q 422 1150 422 2328 
Q 422 3509 836 4129 
Q 1250 4750 2034 4750 
z
" transform="scale(0.015625)"/>
       </defs>
       <use xlink:href="#DejaVuSans-13"/>
      </g>
     </g>
    </g>
    <g id="xtick_2">
     <g id="line2d_3">
      <path d="M 96.40369 184.958281 
L 96.40369 23.558281 
" clip-path="url(#pd8c4e8128e)" style="fill: none; stroke: #b0b0b0; stroke-opacity: 0.25; stroke-width: 0.6; stroke-linecap: square"/>
     </g>
     <g id="line2d_4">
      <g>
       <use xlink:href="#mfad3befc4a" x="96.40369" y="184.958281" style="stroke: #000000; stroke-width: 0.8"/>
      </g>
     </g>
     <g id="text_2">
      <!-- 2 -->
      <g transform="translate(93.22244 199.555938) scale(0.1 -0.1)">
       <defs>
        <path id="DejaVuSans-15" d="M 1228 531 
L 3431 531 
L 3431 0 
L 469 0 
L 469 531 
Q 828 903 1448 1529 
Q 2069 2156 2228 2338 
Q 2531 2678 2651 2914 
Q 2772 3150 2772 3378 
Q 2772 3750 2511 3984 
Q 2250 4219 1831 4219 
Q 1534 4219 1204 4116 
Q 875 4013 500 3803 
L 500 4441 
Q 881 4594 1212 4672 
Q 1544 4750 1819 4750 
Q 2544 4750 2975 4387 
Q 3406 4025 3406 3419 
Q 3406 3131 3298 2873 
Q 3191 2616 2906 2266 
Q 2828 2175 2409 1742 
Q 1991 1309 1228 531 
z
" transform="scale(0.015625)"/>
       </defs>
       <use xlink:href="#DejaVuSans-15"/>
      </g>
     </g>
    </g>
    <g id="xtick_3">
     <g id="line2d_5">
      <path d="M 129.359637 184.958281 
L 129.359637 23.558281 
" clip-path="url(#pd8c4e8128e)" style="fill: none; stroke: #b0b0b0; stroke-opacity: 0.25; stroke-width: 0.6; stroke-linecap: square"/>
     </g>
     <g id="line2d_6">
      <g>
       <use xlink:href="#mfad3befc4a" x="129.359637" y="184.958281" style="stroke: #000000; stroke-width: 0.8"/>
      </g>
     </g>
     <g id="text_3">
      <!-- 4 -->
      <g transform="translate(126.178387 199.555938) scale(0.1 -0.1)">
       <defs>
        <path id="DejaVuSans-17" d="M 2419 4116 
L 825 1625 
L 2419 1625 
L 2419 4116 
z
M 2253 4666 
L 3047 4666 
L 3047 1625 
L 3713 1625 
L 3713 1100 
L 3047 1100 
L 3047 0 
L 2419 0 
L 2419 1100 
L 313 1100 
L 313 1709 
L 2253 4666 
z
" transform="scale(0.015625)"/>
       </defs>
       <use xlink:href="#DejaVuSans-17"/>
      </g>
     </g>
    </g>
    <g id="xtick_4">
     <g id="line2d_7">
      <path d="M 162.315584 184.958281 
L 162.315584 23.558281 
" clip-path="url(#pd8c4e8128e)" style="fill: none; stroke: #b0b0b0; stroke-opacity: 0.25; stroke-width: 0.6; stroke-linecap: square"/>
     </g>
     <g id="line2d_8">
      <g>
       <use xlink:href="#mfad3befc4a" x="162.315584" y="184.958281" style="stroke: #000000; stroke-width: 0.8"/>
      </g>
     </g>
     <g id="text_4">
      <!-- 6 -->
      <g transform="translate(159.134334 199.555938) scale(0.1 -0.1)">
       <defs>
        <path id="DejaVuSans-19" d="M 2113 2584 
Q 1688 2584 1439 2293 
Q 1191 2003 1191 1497 
Q 1191 994 1439 701 
Q 1688 409 2113 409 
Q 2538 409 2786 701 
Q 3034 994 3034 1497 
Q 3034 2003 2786 2293 
Q 2538 2584 2113 2584 
z
M 3366 4563 
L 3366 3988 
Q 3128 4100 2886 4159 
Q 2644 4219 2406 4219 
Q 1781 4219 1451 3797 
Q 1122 3375 1075 2522 
Q 1259 2794 1537 2939 
Q 1816 3084 2150 3084 
Q 2853 3084 3261 2657 
Q 3669 2231 3669 1497 
Q 3669 778 3244 343 
Q 2819 -91 2113 -91 
Q 1303 -91 875 529 
Q 447 1150 447 2328 
Q 447 3434 972 4092 
Q 1497 4750 2381 4750 
Q 2619 4750 2861 4703 
Q 3103 4656 3366 4563 
z
" transform="scale(0.015625)"/>
       </defs>
       <use xlink:href="#DejaVuSans-19"/>
      </g>
     </g>
    </g>
    <g id="xtick_5">
     <g id="line2d_9">
      <path d="M 195.27153 184.958281 
L 195.27153 23.558281 
" clip-path="url(#pd8c4e8128e)" style="fill: none; stroke: #b0b0b0; stroke-opacity: 0.25; stroke-width: 0.6; stroke-linecap: square"/>
     </g>
     <g id="line2d_10">
      <g>
       <use xlink:href="#mfad3befc4a" x="195.27153" y="184.958281" style="stroke: #000000; stroke-width: 0.8"/>
      </g>
     </g>
     <g id="text_5">
      <!-- 8 -->
      <g transform="translate(192.09028 199.555938) scale(0.1 -0.1)">
       <defs>
        <path id="DejaVuSans-1b" d="M 2034 2216 
Q 1584 2216 1326 1975 
Q 1069 1734 1069 1313 
Q 1069 891 1326 650 
Q 1584 409 2034 409 
Q 2484 409 2743 651 
Q 3003 894 3003 1313 
Q 3003 1734 2745 1975 
Q 2488 2216 2034 2216 
z
M 1403 2484 
Q 997 2584 770 2862 
Q 544 3141 544 3541 
Q 544 4100 942 4425 
Q 1341 4750 2034 4750 
Q 2731 4750 3128 4425 
Q 3525 4100 3525 3541 
Q 3525 3141 3298 2862 
Q 3072 2584 2669 2484 
Q 3125 2378 3379 2068 
Q 3634 1759 3634 1313 
Q 3634 634 3220 271 
Q 2806 -91 2034 -91 
Q 1263 -91 848 271 
Q 434 634 434 1313 
Q 434 1759 690 2068 
Q 947 2378 1403 2484 
z
M 1172 3481 
Q 1172 3119 1398 2916 
Q 1625 2713 2034 2713 
Q 2441 2713 2670 2916 
Q 2900 3119 2900 3481 
Q 2900 3844 2670 4047 
Q 2441 4250 2034 4250 
Q 1625 4250 1398 4047 
Q 1172 3844 1172 3481 
z
" transform="scale(0.015625)"/>
       </defs>
       <use xlink:href="#DejaVuSans-1b"/>
      </g>
     </g>
    </g>
    <g id="xtick_6">
     <g id="line2d_11">
      <path d="M 228.227477 184.958281 
L 228.227477 23.558281 
" clip-path="url(#pd8c4e8128e)" style="fill: none; stroke: #b0b0b0; stroke-opacity: 0.25; stroke-width: 0.6; stroke-linecap: square"/>
     </g>
     <g id="line2d_12">
      <g>
       <use xlink:href="#mfad3befc4a" x="228.227477" y="184.958281" style="stroke: #000000; stroke-width: 0.8"/>
      </g>
     </g>
     <g id="text_6">
      <!-- 10 -->
      <g transform="translate(221.864977 199.555938) scale(0.1 -0.1)">
       <defs>
        <path id="DejaVuSans-14" d="M 794 531 
L 1825 531 
L 1825 4091 
L 703 3866 
L 703 4441 
L 1819 4666 
L 2450 4666 
L 2450 531 
L 3481 531 
L 3481 0 
L 794 0 
L 794 531 
z
" transform="scale(0.015625)"/>
       </defs>
       <use xlink:href="#DejaVuSans-14"/>
       <use xlink:href="#DejaVuSans-13" transform="translate(63.625 0)"/>
      </g>
     </g>
    </g>
    <g id="xtick_7">
     <g id="line2d_13">
      <path d="M 261.183424 184.958281 
L 261.183424 23.558281 
" clip-path="url(#pd8c4e8128e)" style="fill: none; stroke: #b0b0b0; stroke-opacity: 0.25; stroke-width: 0.6; stroke-linecap: square"/>
     </g>
     <g id="line2d_14">
      <g>
       <use xlink:href="#mfad3befc4a" x="261.183424" y="184.958281" style="stroke: #000000; stroke-width: 0.8"/>
      </g>
     </g>
     <g id="text_7">
      <!-- 12 -->
      <g transform="translate(254.820924 199.555938) scale(0.1 -0.1)">
       <use xlink:href="#DejaVuSans-14"/>
       <use xlink:href="#DejaVuSans-15" transform="translate(63.625 0)"/>
      </g>
     </g>
    </g>
    <g id="xtick_8">
     <g id="line2d_15">
      <path d="M 294.139371 184.958281 
L 294.139371 23.558281 
" clip-path="url(#pd8c4e8128e)" style="fill: none; stroke: #b0b0b0; stroke-opacity: 0.25; stroke-width: 0.6; stroke-linecap: square"/>
     </g>
     <g id="line2d_16">
      <g>
       <use xlink:href="#mfad3befc4a" x="294.139371" y="184.958281" style="stroke: #000000; stroke-width: 0.8"/>
      </g>
     </g>
     <g id="text_8">
      <!-- 14 -->
      <g transform="translate(287.776871 199.555938) scale(0.1 -0.1)">
       <use xlink:href="#DejaVuSans-14"/>
       <use xlink:href="#DejaVuSans-17" transform="translate(63.625 0)"/>
      </g>
     </g>
    </g>
    <g id="xtick_9">
     <g id="line2d_17">
      <path d="M 327.095318 184.958281 
L 327.095318 23.558281 
" clip-path="url(#pd8c4e8128e)" style="fill: none; stroke: #b0b0b0; stroke-opacity: 0.25; stroke-width: 0.6; stroke-linecap: square"/>
     </g>
     <g id="line2d_18">
      <g>
       <use xlink:href="#mfad3befc4a" x="327.095318" y="184.958281" style="stroke: #000000; stroke-width: 0.8"/>
      </g>
     </g>
     <g id="text_9">
      <!-- 16 -->
      <g transform="translate(320.732818 199.555938) scale(0.1 -0.1)">
       <use xlink:href="#DejaVuSans-14"/>
       <use xlink:href="#DejaVuSans-19" transform="translate(63.625 0)"/>
      </g>
     </g>
    </g>
    <g id="text_10">
     <!-- x -->
     <g transform="translate(194.705859 213.555938) scale(0.1 -0.1)">
      <defs>
       <path id="DejaVuSans-5b" d="M 3513 3500 
L 2247 1797 
L 3578 0 
L 2900 0 
L 1881 1375 
L 863 0 
L 184 0 
L 1544 1831 
L 300 3500 
L 978 3500 
L 1906 2253 
L 2834 3500 
L 3513 3500 
z
" transform="scale(0.015625)"/>
      </defs>
      <use xlink:href="#DejaVuSans-5b"/>
     </g>
    </g>
   </g>
   <g id="matplotlib.axis_2">
    <g id="ytick_1">
     <g id="line2d_19">
      <path d="M 50.466406 177.621918 
L 344.864062 177.621918 
" clip-path="url(#pd8c4e8128e)" style="fill: none; stroke: #b0b0b0; stroke-opacity: 0.25; stroke-width: 0.6; stroke-linecap: square"/>
     </g>
     <g id="line2d_20">
      <defs>
       <path id="m3bc6c1a24a" d="M 0 0 
L -3.5 0 
" style="stroke: #000000; stroke-width: 0.8"/>
      </defs>
      <g>
       <use xlink:href="#m3bc6c1a24a" x="50.466406" y="177.621918" style="stroke: #000000; stroke-width: 0.8"/>
      </g>
     </g>
     <g id="text_11">
      <!-- 0.00 -->
      <g transform="translate(21.200781 181.420746) scale(0.1 -0.1)">
       <defs>
        <path id="DejaVuSans-11" d="M 684 794 
L 1344 794 
L 1344 0 
L 684 0 
L 684 794 
z
" transform="scale(0.015625)"/>
       </defs>
       <use xlink:href="#DejaVuSans-13"/>
       <use xlink:href="#DejaVuSans-11" transform="translate(63.625 0)"/>
       <use xlink:href="#DejaVuSans-13" transform="translate(95.40625 0)"/>
       <use xlink:href="#DejaVuSans-13" transform="translate(159.03125 0)"/>
      </g>
     </g>
    </g>
    <g id="ytick_2">
     <g id="line2d_21">
      <path d="M 50.466406 147.302686 
L 344.864062 147.302686 
" clip-path="url(#pd8c4e8128e)" style="fill: none; stroke: #b0b0b0; stroke-opacity: 0.25; stroke-width: 0.6; stroke-linecap: square"/>
     </g>
     <g id="line2d_22">
      <g>
       <use xlink:href="#m3bc6c1a24a" x="50.466406" y="147.302686" style="stroke: #000000; stroke-width: 0.8"/>
      </g>
     </g>
     <g id="text_12">
      <!-- 0.05 -->
      <g transform="translate(21.200781 151.101514) scale(0.1 -0.1)">
       <defs>
        <path id="DejaVuSans-18" d="M 691 4666 
L 3169 4666 
L 3169 4134 
L 1269 4134 
L 1269 2991 
Q 1406 3038 1543 3061 
Q 1681 3084 1819 3084 
Q 2600 3084 3056 2656 
Q 3513 2228 3513 1497 
Q 3513 744 3044 326 
Q 2575 -91 1722 -91 
Q 1428 -91 1123 -41 
Q 819 9 494 109 
L 494 744 
Q 775 591 1075 516 
Q 1375 441 1709 441 
Q 2250 441 2565 725 
Q 2881 1009 2881 1497 
Q 2881 1984 2565 2268 
Q 2250 2553 1709 2553 
Q 1456 2553 1204 2497 
Q 953 2441 691 2322 
L 691 4666 
z
" transform="scale(0.015625)"/>
       </defs>
       <use xlink:href="#DejaVuSans-13"/>
       <use xlink:href="#DejaVuSans-11" transform="translate(63.625 0)"/>
       <use xlink:href="#DejaVuSans-13" transform="translate(95.40625 0)"/>
       <use xlink:href="#DejaVuSans-18" transform="translate(159.03125 0)"/>
      </g>
     </g>
    </g>
    <g id="ytick_3">
     <g id="line2d_23">
      <path d="M 50.466406 116.983454 
L 344.864062 116.983454 
" clip-path="url(#pd8c4e8128e)" style="fill: none; stroke: #b0b0b0; stroke-opacity: 0.25; stroke-width: 0.6; stroke-linecap: square"/>
     </g>
     <g id="line2d_24">
      <g>
       <use xlink:href="#m3bc6c1a24a" x="50.466406" y="116.983454" style="stroke: #000000; stroke-width: 0.8"/>
      </g>
     </g>
     <g id="text_13">
      <!-- 0.10 -->
      <g transform="translate(21.200781 120.782282) scale(0.1 -0.1)">
       <use xlink:href="#DejaVuSans-13"/>
       <use xlink:href="#DejaVuSans-11" transform="translate(63.625 0)"/>
       <use xlink:href="#DejaVuSans-14" transform="translate(95.40625 0)"/>
       <use xlink:href="#DejaVuSans-13" transform="translate(159.03125 0)"/>
      </g>
     </g>
    </g>
    <g id="ytick_4">
     <g id="line2d_25">
      <path d="M 50.466406 86.664222 
L 344.864062 86.664222 
" clip-path="url(#pd8c4e8128e)" style="fill: none; stroke: #b0b0b0; stroke-opacity: 0.25; stroke-width: 0.6; stroke-linecap: square"/>
     </g>
     <g id="line2d_26">
      <g>
       <use xlink:href="#m3bc6c1a24a" x="50.466406" y="86.664222" style="stroke: #000000; stroke-width: 0.8"/>
      </g>
     </g>
     <g id="text_14">
      <!-- 0.15 -->
      <g transform="translate(21.200781 90.46305) scale(0.1 -0.1)">
       <use xlink:href="#DejaVuSans-13"/>
       <use xlink:href="#DejaVuSans-11" transform="translate(63.625 0)"/>
       <use xlink:href="#DejaVuSans-14" transform="translate(95.40625 0)"/>
       <use xlink:href="#DejaVuSans-18" transform="translate(159.03125 0)"/>
      </g>
     </g>
    </g>
    <g id="ytick_5">
     <g id="line2d_27">
      <path d="M 50.466406 56.34499 
L 344.864062 56.34499 
" clip-path="url(#pd8c4e8128e)" style="fill: none; stroke: #b0b0b0; stroke-opacity: 0.25; stroke-width: 0.6; stroke-linecap: square"/>
     </g>
     <g id="line2d_28">
      <g>
       <use xlink:href="#m3bc6c1a24a" x="50.466406" y="56.34499" style="stroke: #000000; stroke-width: 0.8"/>
      </g>
     </g>
     <g id="text_15">
      <!-- 0.20 -->
      <g transform="translate(21.200781 60.143818) scale(0.1 -0.1)">
       <use xlink:href="#DejaVuSans-13"/>
       <use xlink:href="#DejaVuSans-11" transform="translate(63.625 0)"/>
       <use xlink:href="#DejaVuSans-15" transform="translate(95.40625 0)"/>
       <use xlink:href="#DejaVuSans-13" transform="translate(159.03125 0)"/>
      </g>
     </g>
    </g>
    <g id="ytick_6">
     <g id="line2d_29">
      <path d="M 50.466406 26.025758 
L 344.864062 26.025758 
" clip-path="url(#pd8c4e8128e)" style="fill: none; stroke: #b0b0b0; stroke-opacity: 0.25; stroke-width: 0.6; stroke-linecap: square"/>
     </g>
     <g id="line2d_30">
      <g>
       <use xlink:href="#m3bc6c1a24a" x="50.466406" y="26.025758" style="stroke: #000000; stroke-width: 0.8"/>
      </g>
     </g>
     <g id="text_16">
      <!-- 0.25 -->
      <g transform="translate(21.200781 29.824586) scale(0.1 -0.1)">
       <use xlink:href="#DejaVuSans-13"/>
       <use xlink:href="#DejaVuSans-11" transform="translate(63.625 0)"/>
       <use xlink:href="#DejaVuSans-15" transform="translate(95.40625 0)"/>
       <use xlink:href="#DejaVuSans-18" transform="translate(159.03125 0)"/>
      </g>
     </g>
    </g>
    <g id="text_17">
     <!-- f(x) -->
     <g transform="translate(14.798437 112.879375) rotate(-90) scale(0.1 -0.1)">
      <defs>
       <path id="DejaVuSans-49" d="M 2375 4863 
L 2375 4384 
L 1825 4384 
Q 1516 4384 1395 4259 
Q 1275 4134 1275 3809 
L 1275 3500 
L 2222 3500 
L 2222 3053 
L 1275 3053 
L 1275 0 
L 697 0 
L 697 3053 
L 147 3053 
L 147 3500 
L 697 3500 
L 697 3744 
Q 697 4328 969 4595 
Q 1241 4863 1831 4863 
L 2375 4863 
z
" transform="scale(0.015625)"/>
       <path id="DejaVuSans-b" d="M 1984 4856 
Q 1566 4138 1362 3434 
Q 1159 2731 1159 2009 
Q 1159 1288 1364 580 
Q 1569 -128 1984 -844 
L 1484 -844 
Q 1016 -109 783 600 
Q 550 1309 550 2009 
Q 550 2706 781 3412 
Q 1013 4119 1484 4856 
L 1984 4856 
z
" transform="scale(0.015625)"/>
       <path id="DejaVuSans-c" d="M 513 4856 
L 1013 4856 
Q 1481 4119 1714 3412 
Q 1947 2706 1947 2009 
Q 1947 1309 1714 600 
Q 1481 -109 1013 -844 
L 513 -844 
Q 928 -128 1133 580 
Q 1338 1288 1338 2009 
Q 1338 2731 1133 3434 
Q 928 4138 513 4856 
z
" transform="scale(0.015625)"/>
      </defs>
      <use xlink:href="#DejaVuSans-49"/>
      <use xlink:href="#DejaVuSans-b" transform="translate(35.203125 0)"/>
      <use xlink:href="#DejaVuSans-5b" transform="translate(74.21875 0)"/>
      <use xlink:href="#DejaVuSans-c" transform="translate(133.40625 0)"/>
     </g>
    </g>
   </g>
   <g id="line2d_31">
    <path d="M 63.848118 140.368711 
L 64.51888 117.916536 
L 65.189643 103.017739 
L 65.860405 91.589822 
L 67.20193 74.585314 
L 68.543455 62.367559 
L 69.88498 53.248947 
L 71.226505 46.35574 
L 72.56803 41.156317 
L 73.909555 37.294111 
L 75.25108 34.51388 
L 76.592605 32.624263 
L 77.263368 31.965745 
L 77.93413 31.476788 
L 78.604893 31.143465 
L 79.275655 30.953212 
L 79.946418 30.894645 
L 80.61718 30.957414 
L 81.958705 31.409982 
L 83.30023 32.244439 
L 84.641755 33.404537 
L 85.98328 34.842267 
L 87.995567 37.430678 
L 90.007855 40.43543 
L 92.690905 44.927933 
L 96.044717 51.080973 
L 100.740055 60.2466 
L 112.143017 82.72722 
L 116.838354 91.451999 
L 121.533692 99.677776 
L 125.558267 106.288249 
L 129.582842 112.475282 
L 133.607417 118.235955 
L 137.631992 123.576373 
L 141.656567 128.508976 
L 145.681142 133.050523 
L 149.705716 137.220579 
L 153.730291 141.040371 
L 157.754866 144.531943 
L 161.779441 147.717525 
L 165.804016 150.619076 
L 169.828591 153.257951 
L 173.853166 155.654677 
L 178.548503 158.170821 
L 183.243841 160.4131 
L 187.939178 162.408593 
L 192.634516 164.182263 
L 198.000616 165.966953 
L 203.366716 167.522691 
L 209.403578 169.03363 
L 215.44044 170.324768 
L 222.148065 171.538641 
L 229.526453 172.647148 
L 237.575602 173.631869 
L 246.966277 174.541331 
L 257.027715 175.290427 
L 269.101439 175.95596 
L 283.187452 176.498803 
L 300.627276 176.934555 
L 322.762439 177.254751 
L 331.482351 177.335412 
L 331.482351 177.335412 
" clip-path="url(#pd8c4e8128e)" style="fill: none; stroke: #4c78a8; stroke-width: 2; stroke-linecap: square"/>
   </g>
   <g id="patch_3">
    <path d="M 50.466406 184.958281 
L 50.466406 23.558281 
" style="fill: none; stroke: #000000; stroke-width: 0.8; stroke-linejoin: miter; stroke-linecap: square"/>
   </g>
   <g id="patch_4">
    <path d="M 50.466406 184.958281 
L 344.864063 184.958281 
" style="fill: none; stroke: #000000; stroke-width: 0.8; stroke-linejoin: miter; stroke-linecap: square"/>
   </g>
   <g id="text_18">
    <!-- Chi Squared -->
    <g transform="translate(164.208047 15.558281) scale(0.11 -0.11)">
     <defs>
      <path id="DejaVuSans-26" d="M 4122 4306 
L 4122 3641 
Q 3803 3938 3442 4084 
Q 3081 4231 2675 4231 
Q 1875 4231 1450 3742 
Q 1025 3253 1025 2328 
Q 1025 1406 1450 917 
Q 1875 428 2675 428 
Q 3081 428 3442 575 
Q 3803 722 4122 1019 
L 4122 359 
Q 3791 134 3420 21 
Q 3050 -91 2638 -91 
Q 1578 -91 968 557 
Q 359 1206 359 2328 
Q 359 3453 968 4101 
Q 1578 4750 2638 4750 
Q 3056 4750 3426 4639 
Q 3797 4528 4122 4306 
z
" transform="scale(0.015625)"/>
      <path id="DejaVuSans-4b" d="M 3513 2113 
L 3513 0 
L 2938 0 
L 2938 2094 
Q 2938 2591 2744 2837 
Q 2550 3084 2163 3084 
Q 1697 3084 1428 2787 
Q 1159 2491 1159 1978 
L 1159 0 
L 581 0 
L 581 4863 
L 1159 4863 
L 1159 2956 
Q 1366 3272 1645 3428 
Q 1925 3584 2291 3584 
Q 2894 3584 3203 3211 
Q 3513 2838 3513 2113 
z
" transform="scale(0.015625)"/>
      <path id="DejaVuSans-4c" d="M 603 3500 
L 1178 3500 
L 1178 0 
L 603 0 
L 603 3500 
z
M 603 4863 
L 1178 4863 
L 1178 4134 
L 603 4134 
L 603 4863 
z
" transform="scale(0.015625)"/>
      <path id="DejaVuSans-3" transform="scale(0.015625)"/>
      <path id="DejaVuSans-36" d="M 3425 4513 
L 3425 3897 
Q 3066 4069 2747 4153 
Q 2428 4238 2131 4238 
Q 1616 4238 1336 4038 
Q 1056 3838 1056 3469 
Q 1056 3159 1242 3001 
Q 1428 2844 1947 2747 
L 2328 2669 
Q 3034 2534 3370 2195 
Q 3706 1856 3706 1288 
Q 3706 609 3251 259 
Q 2797 -91 1919 -91 
Q 1588 -91 1214 -16 
Q 841 59 441 206 
L 441 856 
Q 825 641 1194 531 
Q 1563 422 1919 422 
Q 2459 422 2753 634 
Q 3047 847 3047 1241 
Q 3047 1584 2836 1778 
Q 2625 1972 2144 2069 
L 1759 2144 
Q 1053 2284 737 2584 
Q 422 2884 422 3419 
Q 422 4038 858 4394 
Q 1294 4750 2059 4750 
Q 2388 4750 2728 4690 
Q 3069 4631 3425 4513 
z
" transform="scale(0.015625)"/>
      <path id="DejaVuSans-54" d="M 947 1747 
Q 947 1113 1208 752 
Q 1469 391 1925 391 
Q 2381 391 2643 752 
Q 2906 1113 2906 1747 
Q 2906 2381 2643 2742 
Q 2381 3103 1925 3103 
Q 1469 3103 1208 2742 
Q 947 2381 947 1747 
z
M 2906 525 
Q 2725 213 2448 61 
Q 2172 -91 1784 -91 
Q 1150 -91 751 415 
Q 353 922 353 1747 
Q 353 2572 751 3078 
Q 1150 3584 1784 3584 
Q 2172 3584 2448 3432 
Q 2725 3281 2906 2969 
L 2906 3500 
L 3481 3500 
L 3481 -1331 
L 2906 -1331 
L 2906 525 
z
" transform="scale(0.015625)"/>
      <path id="DejaVuSans-58" d="M 544 1381 
L 544 3500 
L 1119 3500 
L 1119 1403 
Q 1119 906 1312 657 
Q 1506 409 1894 409 
Q 2359 409 2629 706 
Q 2900 1003 2900 1516 
L 2900 3500 
L 3475 3500 
L 3475 0 
L 2900 0 
L 2900 538 
Q 2691 219 2414 64 
Q 2138 -91 1772 -91 
Q 1169 -91 856 284 
Q 544 659 544 1381 
z
M 1991 3584 
L 1991 3584 
z
" transform="scale(0.015625)"/>
      <path id="DejaVuSans-44" d="M 2194 1759 
Q 1497 1759 1228 1600 
Q 959 1441 959 1056 
Q 959 750 1161 570 
Q 1363 391 1709 391 
Q 2188 391 2477 730 
Q 2766 1069 2766 1631 
L 2766 1759 
L 2194 1759 
z
M 3341 1997 
L 3341 0 
L 2766 0 
L 2766 531 
Q 2569 213 2275 61 
Q 1981 -91 1556 -91 
Q 1019 -91 701 211 
Q 384 513 384 1019 
Q 384 1609 779 1909 
Q 1175 2209 1959 2209 
L 2766 2209 
L 2766 2266 
Q 2766 2663 2505 2880 
Q 2244 3097 1772 3097 
Q 1472 3097 1187 3025 
Q 903 2953 641 2809 
L 641 3341 
Q 956 3463 1253 3523 
Q 1550 3584 1831 3584 
Q 2591 3584 2966 3190 
Q 3341 2797 3341 1997 
z
" transform="scale(0.015625)"/>
      <path id="DejaVuSans-55" d="M 2631 2963 
Q 2534 3019 2420 3045 
Q 2306 3072 2169 3072 
Q 1681 3072 1420 2755 
Q 1159 2438 1159 1844 
L 1159 0 
L 581 0 
L 581 3500 
L 1159 3500 
L 1159 2956 
Q 1341 3275 1631 3429 
Q 1922 3584 2338 3584 
Q 2397 3584 2469 3576 
Q 2541 3569 2628 3553 
L 2631 2963 
z
" transform="scale(0.015625)"/>
      <path id="DejaVuSans-48" d="M 3597 1894 
L 3597 1613 
L 953 1613 
Q 991 1019 1311 708 
Q 1631 397 2203 397 
Q 2534 397 2845 478 
Q 3156 559 3463 722 
L 3463 178 
Q 3153 47 2828 -22 
Q 2503 -91 2169 -91 
Q 1331 -91 842 396 
Q 353 884 353 1716 
Q 353 2575 817 3079 
Q 1281 3584 2069 3584 
Q 2775 3584 3186 3129 
Q 3597 2675 3597 1894 
z
M 3022 2063 
Q 3016 2534 2758 2815 
Q 2500 3097 2075 3097 
Q 1594 3097 1305 2825 
Q 1016 2553 972 2059 
L 3022 2063 
z
" transform="scale(0.015625)"/>
      <path id="DejaVuSans-47" d="M 2906 2969 
L 2906 4863 
L 3481 4863 
L 3481 0 
L 2906 0 
L 2906 525 
Q 2725 213 2448 61 
Q 2172 -91 1784 -91 
Q 1150 -91 751 415 
Q 353 922 353 1747 
Q 353 2572 751 3078 
Q 1150 3584 1784 3584 
Q 2172 3584 2448 3432 
Q 2725 3281 2906 2969 
z
M 947 1747 
Q 947 1113 1208 752 
Q 1469 391 1925 391 
Q 2381 391 2643 752 
Q 2906 1113 2906 1747 
Q 2906 2381 2643 2742 
Q 2381 3103 1925 3103 
Q 1469 3103 1208 2742 
Q 947 2381 947 1747 
z
" transform="scale(0.015625)"/>
     </defs>
     <use xlink:href="#DejaVuSans-26"/>
     <use xlink:href="#DejaVuSans-4b" transform="translate(69.828125 0)"/>
     <use xlink:href="#DejaVuSans-4c" transform="translate(133.203125 0)"/>
     <use xlink:href="#DejaVuSans-3" transform="translate(160.984375 0)"/>
     <use xlink:href="#DejaVuSans-36" transform="translate(192.765625 0)"/>
     <use xlink:href="#DejaVuSans-54" transform="translate(256.25 0)"/>
     <use xlink:href="#DejaVuSans-58" transform="translate(319.734375 0)"/>
     <use xlink:href="#DejaVuSans-44" transform="translate(383.109375 0)"/>
     <use xlink:href="#DejaVuSans-55" transform="translate(444.390625 0)"/>
     <use xlink:href="#DejaVuSans-48" transform="translate(483.296875 0)"/>
     <use xlink:href="#DejaVuSans-47" transform="translate(544.828125 0)"/>
    </g>
   </g>
  </g>
 </g>
 <defs>
  <clipPath id="pd8c4e8128e">
   <rect x="50.466406" y="23.558281" width="294.397656" height="161.4"/>
  </clipPath>
 </defs>
</svg>
