<?xml version="1.0" encoding="utf-8" standalone="no"?>
<!DOCTYPE svg PUBLIC "-//W3C//DTD SVG 1.1//EN"
  "http://www.w3.org/Graphics/SVG/1.1/DTD/svg11.dtd">
<svg xmlns:xlink="http://www.w3.org/1999/xlink" width="351.826562pt" height="223.158281pt" viewBox="0 0 351.826562 223.158281" xmlns="http://www.w3.org/2000/svg" version="1.1">
 <metadata>
  <rdf:RDF xmlns:dc="http://purl.org/dc/elements/1.1/" xmlns:cc="http://creativecommons.org/ns#" xmlns:rdf="http://www.w3.org/1999/02/22-rdf-syntax-ns#">
   <cc:Work>
    <dc:type rdf:resource="http://purl.org/dc/dcmitype/StillImage"/>
    <dc:date>2026-07-05T02:24:32.384157</dc:date>
    <dc:format>image/svg+xml</dc:format>
    <dc:creator>
     <cc:Agent>
      <dc:title>Matplotlib v3.11.0, https://matplotlib.org/</dc:title>
     </cc:Agent>
    </dc:creator>
   </cc:Work>
  </rdf:RDF>
 </metadata>
 <defs>
  <style type="text/css">*{stroke-linejoin: round; stroke-linecap: butt}</style>
 </defs>
 <g id="figure_1">
  <g id="patch_1">
   <path d="M 0 223.158281 
L 351.826562 223.158281 
L 351.826562 0 
L 0 0 
z
" style="fill: #ffffff"/>
  </g>
  <g id="axes_1">
   <g id="patch_2">
    <path d="M 56.828906 184.958281 
L 344.626562 184.958281 
L 344.626562 23.558281 
L 56.828906 23.558281 
z
" style="fill: #ffffff"/>
   </g>
   <g id="FillBetweenPolyCollection_1">
    <defs>
     <path id="m168fc719c2" d="M 69.910618 -45.536364 
L 69.910618 -192.263636 
L 70.566343 -192.263636 
L 71.222068 -192.263636 
L 71.877793 -192.263636 
L 72.533517 -192.263636 
L 73.189242 -192.263636 
L 73.844967 -192.263636 
L 74.500692 -192.263636 
L 75.156417 -192.263636 
L 75.812142 -192.263636 
L 76.467867 -192.263636 
L 77.123592 -192.263636 
L 77.779317 -192.263636 
L 78.435042 -192.263636 
L 79.090766 -192.263636 
L 79.746491 -192.263636 
L 80.402216 -192.263636 
L 81.057941 -192.263636 
L 81.713666 -192.263636 
L 82.369391 -192.263636 
L 83.025116 -192.263636 
L 83.680841 -192.263636 
L 84.336566 -192.263636 
L 84.99229 -192.263636 
L 85.648015 -192.263636 
L 86.30374 -192.263636 
L 86.959465 -192.263636 
L 87.61519 -192.263636 
L 88.270915 -192.263636 
L 88.92664 -192.263636 
L 89.582365 -192.263636 
L 90.23809 -192.263636 
L 90.893815 -192.263636 
L 91.549539 -192.263636 
L 92.205264 -192.263636 
L 92.860989 -192.263636 
L 93.516714 -192.263636 
L 94.172439 -192.263636 
L 94.828164 -192.263636 
L 95.483889 -192.263636 
L 96.139614 -192.263636 
L 96.795339 -192.263636 
L 97.451063 -192.263636 
L 98.106788 -192.263636 
L 98.762513 -192.263636 
L 99.418238 -192.263636 
L 100.073963 -192.263636 
L 100.729688 -192.263636 
L 101.385413 -192.263636 
L 102.041138 -192.263636 
L 102.696863 -192.263636 
L 103.352588 -192.263636 
L 104.008312 -192.263636 
L 104.664037 -192.263636 
L 105.319762 -192.263636 
L 105.975487 -192.263636 
L 106.631212 -192.263636 
L 107.286937 -192.263636 
L 107.942662 -192.263636 
L 108.598387 -192.263636 
L 109.254112 -192.263636 
L 109.909836 -192.263636 
L 110.565561 -192.263636 
L 111.221286 -192.263636 
L 111.877011 -192.263636 
L 112.532736 -192.263636 
L 113.188461 -192.263636 
L 113.844186 -192.263636 
L 114.499911 -192.263636 
L 115.155636 -192.263636 
L 115.811361 -192.263636 
L 116.467085 -192.263636 
L 117.12281 -192.263636 
L 117.778535 -192.263636 
L 118.43426 -192.263636 
L 119.089985 -192.263636 
L 119.74571 -192.263636 
L 120.401435 -192.263636 
L 121.05716 -192.263636 
L 121.712885 -192.263636 
L 122.368609 -192.263636 
L 123.024334 -192.263636 
L 123.680059 -192.263636 
L 124.335784 -192.263636 
L 124.991509 -192.263636 
L 125.647234 -192.263636 
L 126.302959 -192.263636 
L 126.958684 -192.263636 
L 127.614409 -192.263636 
L 128.270134 -192.263636 
L 128.925858 -192.263636 
L 129.581583 -192.263636 
L 130.237308 -192.263636 
L 130.893033 -192.263636 
L 131.548758 -192.263636 
L 132.204483 -192.263636 
L 132.860208 -192.263636 
L 133.515933 -192.263636 
L 134.171658 -192.263636 
L 134.827382 -192.263636 
L 135.483107 -192.263636 
L 136.138832 -192.263636 
L 136.794557 -192.263636 
L 137.450282 -192.263636 
L 138.106007 -192.263636 
L 138.761732 -192.263636 
L 139.417457 -192.263636 
L 140.073182 -192.263636 
L 140.728907 -192.263636 
L 141.384631 -192.263636 
L 142.040356 -192.263636 
L 142.696081 -192.263636 
L 143.351806 -192.263636 
L 144.007531 -192.263636 
L 144.663256 -192.263636 
L 145.318981 -192.263636 
L 145.974706 -192.263636 
L 146.630431 -192.263636 
L 147.286155 -192.263636 
L 147.94188 -192.263636 
L 148.597605 -192.263636 
L 149.25333 -192.263636 
L 149.909055 -192.263636 
L 150.56478 -192.263636 
L 151.220505 -192.263636 
L 151.87623 -192.263636 
L 152.531955 -192.263636 
L 153.18768 -192.263636 
L 153.843404 -192.263636 
L 154.499129 -192.263636 
L 155.154854 -192.263636 
L 155.810579 -192.263636 
L 156.466304 -192.263636 
L 157.122029 -192.263636 
L 157.777754 -192.263636 
L 158.433479 -192.263636 
L 159.089204 -192.263636 
L 159.744928 -192.263636 
L 160.400653 -192.263636 
L 161.056378 -192.263636 
L 161.712103 -192.263636 
L 162.367828 -192.263636 
L 163.023553 -192.263636 
L 163.679278 -192.263636 
L 164.335003 -192.263636 
L 164.990728 -192.263636 
L 165.646453 -192.263636 
L 166.302177 -192.263636 
L 166.957902 -192.263636 
L 167.613627 -192.263636 
L 168.269352 -192.263636 
L 168.925077 -192.263636 
L 169.580802 -192.263636 
L 170.236527 -192.263636 
L 170.892252 -192.263636 
L 171.547977 -192.263636 
L 172.203701 -192.263636 
L 172.859426 -192.263636 
L 173.515151 -192.263636 
L 174.170876 -192.263636 
L 174.826601 -192.263636 
L 175.482326 -192.263636 
L 176.138051 -192.263636 
L 176.793776 -192.263636 
L 177.449501 -192.263636 
L 178.105226 -192.263636 
L 178.76095 -192.263636 
L 179.416675 -192.263636 
L 180.0724 -192.263636 
L 180.728125 -192.263636 
L 181.38385 -192.263636 
L 182.039575 -192.263636 
L 182.6953 -192.263636 
L 183.351025 -192.263636 
L 184.00675 -192.263636 
L 184.662474 -192.263636 
L 185.318199 -192.263636 
L 185.973924 -192.263636 
L 186.629649 -192.263636 
L 187.285374 -192.263636 
L 187.941099 -192.263636 
L 188.596824 -192.263636 
L 189.252549 -192.263636 
L 189.908274 -192.263636 
L 190.563999 -192.263636 
L 191.219723 -192.263636 
L 191.875448 -192.263636 
L 192.531173 -192.263636 
L 193.186898 -192.263636 
L 193.842623 -192.263636 
L 194.498348 -192.263636 
L 195.154073 -192.263636 
L 195.809798 -192.263636 
L 196.465523 -192.263636 
L 197.121247 -192.263636 
L 197.776972 -192.263636 
L 198.432697 -192.263636 
L 199.088422 -192.263636 
L 199.744147 -192.263636 
L 200.399872 -192.263636 
L 201.055597 -192.263636 
L 201.711322 -192.263636 
L 202.367047 -192.263636 
L 203.022772 -192.263636 
L 203.678496 -192.263636 
L 204.334221 -192.263636 
L 204.989946 -192.263636 
L 205.645671 -192.263636 
L 206.301396 -192.263636 
L 206.957121 -192.263636 
L 207.612846 -192.263636 
L 208.268571 -192.263636 
L 208.924296 -192.263636 
L 209.58002 -192.263636 
L 210.235745 -192.263636 
L 210.89147 -192.263636 
L 211.547195 -192.263636 
L 212.20292 -192.263636 
L 212.858645 -192.263636 
L 213.51437 -192.263636 
L 214.170095 -192.263636 
L 214.82582 -192.263636 
L 215.481545 -192.263636 
L 216.137269 -192.263636 
L 216.792994 -192.263636 
L 217.448719 -192.263636 
L 218.104444 -192.263636 
L 218.760169 -192.263636 
L 219.415894 -192.263636 
L 220.071619 -192.263636 
L 220.727344 -192.263636 
L 221.383069 -192.263636 
L 222.038793 -192.263636 
L 222.694518 -192.263636 
L 223.350243 -192.263636 
L 224.005968 -192.263636 
L 224.661693 -192.263636 
L 225.317418 -192.263636 
L 225.973143 -192.263636 
L 226.628868 -192.263636 
L 227.284593 -192.263636 
L 227.940318 -192.263636 
L 228.596042 -192.263636 
L 229.251767 -192.263636 
L 229.907492 -192.263636 
L 230.563217 -192.263636 
L 231.218942 -192.263636 
L 231.874667 -192.263636 
L 232.530392 -192.263636 
L 233.186117 -192.263636 
L 233.841842 -192.263636 
L 234.497566 -192.263636 
L 235.153291 -192.263636 
L 235.809016 -192.263636 
L 236.464741 -192.263636 
L 237.120466 -192.263636 
L 237.776191 -192.263636 
L 238.431916 -192.263636 
L 239.087641 -192.263636 
L 239.743366 -192.263636 
L 240.39909 -192.263636 
L 241.054815 -192.263636 
L 241.71054 -192.263636 
L 242.366265 -192.263636 
L 243.02199 -192.263636 
L 243.677715 -192.263636 
L 244.33344 -192.263636 
L 244.989165 -192.263636 
L 245.64489 -192.263636 
L 246.300615 -192.263636 
L 246.956339 -192.263636 
L 247.612064 -192.263636 
L 248.267789 -192.263636 
L 248.923514 -192.263636 
L 249.579239 -192.263636 
L 250.234964 -192.263636 
L 250.890689 -192.263636 
L 251.546414 -192.263636 
L 252.202139 -192.263636 
L 252.857863 -192.263636 
L 253.513588 -192.263636 
L 254.169313 -192.263636 
L 254.825038 -192.263636 
L 255.480763 -192.263636 
L 256.136488 -192.263636 
L 256.792213 -192.263636 
L 257.447938 -192.263636 
L 258.103663 -192.263636 
L 258.759388 -192.263636 
L 259.415112 -192.263636 
L 260.070837 -192.263636 
L 260.726562 -192.263636 
L 261.382287 -192.263636 
L 262.038012 -192.263636 
L 262.693737 -192.263636 
L 263.349462 -192.263636 
L 264.005187 -192.263636 
L 264.660912 -192.263636 
L 265.316636 -192.263636 
L 265.972361 -192.263636 
L 266.628086 -192.263636 
L 267.283811 -192.263636 
L 267.939536 -192.263636 
L 268.595261 -192.263636 
L 269.250986 -192.263636 
L 269.906711 -192.263636 
L 270.562436 -192.263636 
L 271.218161 -192.263636 
L 271.873885 -192.263636 
L 272.52961 -192.263636 
L 273.185335 -192.263636 
L 273.84106 -192.263636 
L 274.496785 -192.263636 
L 275.15251 -192.263636 
L 275.808235 -192.263636 
L 276.46396 -192.263636 
L 277.119685 -192.263636 
L 277.775409 -192.263636 
L 278.431134 -192.263636 
L 279.086859 -192.263636 
L 279.742584 -192.263636 
L 280.398309 -192.263636 
L 281.054034 -192.263636 
L 281.709759 -192.263636 
L 282.365484 -192.263636 
L 283.021209 -192.263636 
L 283.676934 -192.263636 
L 284.332658 -192.263636 
L 284.988383 -192.263636 
L 285.644108 -192.263636 
L 286.299833 -192.263636 
L 286.955558 -192.263636 
L 287.611283 -192.263636 
L 288.267008 -192.263636 
L 288.922733 -192.263636 
L 289.578458 -192.263636 
L 290.234182 -192.263636 
L 290.889907 -192.263636 
L 291.545632 -192.263636 
L 292.201357 -192.263636 
L 292.857082 -192.263636 
L 293.512807 -192.263636 
L 294.168532 -192.263636 
L 294.824257 -192.263636 
L 295.479982 -192.263636 
L 296.135707 -192.263636 
L 296.791431 -192.263636 
L 297.447156 -192.263636 
L 298.102881 -192.263636 
L 298.758606 -192.263636 
L 299.414331 -192.263636 
L 300.070056 -192.263636 
L 300.725781 -192.263636 
L 301.381506 -192.263636 
L 302.037231 -192.263636 
L 302.692955 -192.263636 
L 303.34868 -192.263636 
L 304.004405 -192.263636 
L 304.66013 -192.263636 
L 305.315855 -192.263636 
L 305.97158 -192.263636 
L 306.627305 -192.263636 
L 307.28303 -192.263636 
L 307.938755 -192.263636 
L 308.59448 -192.263636 
L 309.250204 -192.263636 
L 309.905929 -192.263636 
L 310.561654 -192.263636 
L 311.217379 -192.263636 
L 311.873104 -192.263636 
L 312.528829 -192.263636 
L 313.184554 -192.263636 
L 313.840279 -192.263636 
L 314.496004 -192.263636 
L 315.151728 -192.263636 
L 315.807453 -192.263636 
L 316.463178 -192.263636 
L 317.118903 -192.263636 
L 317.774628 -192.263636 
L 318.430353 -192.263636 
L 319.086078 -192.263636 
L 319.741803 -192.263636 
L 320.397528 -192.263636 
L 321.053253 -192.263636 
L 321.708977 -192.263636 
L 322.364702 -192.263636 
L 323.020427 -192.263636 
L 323.676152 -192.263636 
L 324.331877 -192.263636 
L 324.987602 -192.263636 
L 325.643327 -192.263636 
L 326.299052 -192.263636 
L 326.954777 -192.263636 
L 327.610501 -192.263636 
L 328.266226 -192.263636 
L 328.921951 -192.263636 
L 329.577676 -192.263636 
L 330.233401 -192.263636 
L 330.889126 -192.263636 
L 331.544851 -192.263636 
L 331.544851 -45.536364 
L 331.544851 -45.536364 
L 330.889126 -45.536364 
L 330.233401 -45.536364 
L 329.577676 -45.536364 
L 328.921951 -45.536364 
L 328.266226 -45.536364 
L 327.610501 -45.536364 
L 326.954777 -45.536364 
L 326.299052 -45.536364 
L 325.643327 -45.536364 
L 324.987602 -45.536364 
L 324.331877 -45.536364 
L 323.676152 -45.536364 
L 323.020427 -45.536364 
L 322.364702 -45.536364 
L 321.708977 -45.536364 
L 321.053253 -45.536364 
L 320.397528 -45.536364 
L 319.741803 -45.536364 
L 319.086078 -45.536364 
L 318.430353 -45.536364 
L 317.774628 -45.536364 
L 317.118903 -45.536364 
L 316.463178 -45.536364 
L 315.807453 -45.536364 
L 315.151728 -45.536364 
L 314.496004 -45.536364 
L 313.840279 -45.536364 
L 313.184554 -45.536364 
L 312.528829 -45.536364 
L 311.873104 -45.536364 
L 311.217379 -45.536364 
L 310.561654 -45.536364 
L 309.905929 -45.536364 
L 309.250204 -45.536364 
L 308.59448 -45.536364 
L 307.938755 -45.536364 
L 307.28303 -45.536364 
L 306.627305 -45.536364 
L 305.97158 -45.536364 
L 305.315855 -45.536364 
L 304.66013 -45.536364 
L 304.004405 -45.536364 
L 303.34868 -45.536364 
L 302.692955 -45.536364 
L 302.037231 -45.536364 
L 301.381506 -45.536364 
L 300.725781 -45.536364 
L 300.070056 -45.536364 
L 299.414331 -45.536364 
L 298.758606 -45.536364 
L 298.102881 -45.536364 
L 297.447156 -45.536364 
L 296.791431 -45.536364 
L 296.135707 -45.536364 
L 295.479982 -45.536364 
L 294.824257 -45.536364 
L 294.168532 -45.536364 
L 293.512807 -45.536364 
L 292.857082 -45.536364 
L 292.201357 -45.536364 
L 291.545632 -45.536364 
L 290.889907 -45.536364 
L 290.234182 -45.536364 
L 289.578458 -45.536364 
L 288.922733 -45.536364 
L 288.267008 -45.536364 
L 287.611283 -45.536364 
L 286.955558 -45.536364 
L 286.299833 -45.536364 
L 285.644108 -45.536364 
L 284.988383 -45.536364 
L 284.332658 -45.536364 
L 283.676934 -45.536364 
L 283.021209 -45.536364 
L 282.365484 -45.536364 
L 281.709759 -45.536364 
L 281.054034 -45.536364 
L 280.398309 -45.536364 
L 279.742584 -45.536364 
L 279.086859 -45.536364 
L 278.431134 -45.536364 
L 277.775409 -45.536364 
L 277.119685 -45.536364 
L 276.46396 -45.536364 
L 275.808235 -45.536364 
L 275.15251 -45.536364 
L 274.496785 -45.536364 
L 273.84106 -45.536364 
L 273.185335 -45.536364 
L 272.52961 -45.536364 
L 271.873885 -45.536364 
L 271.218161 -45.536364 
L 270.562436 -45.536364 
L 269.906711 -45.536364 
L 269.250986 -45.536364 
L 268.595261 -45.536364 
L 267.939536 -45.536364 
L 267.283811 -45.536364 
L 266.628086 -45.536364 
L 265.972361 -45.536364 
L 265.316636 -45.536364 
L 264.660912 -45.536364 
L 264.005187 -45.536364 
L 263.349462 -45.536364 
L 262.693737 -45.536364 
L 262.038012 -45.536364 
L 261.382287 -45.536364 
L 260.726562 -45.536364 
L 260.070837 -45.536364 
L 259.415112 -45.536364 
L 258.759388 -45.536364 
L 258.103663 -45.536364 
L 257.447938 -45.536364 
L 256.792213 -45.536364 
L 256.136488 -45.536364 
L 255.480763 -45.536364 
L 254.825038 -45.536364 
L 254.169313 -45.536364 
L 253.513588 -45.536364 
L 252.857863 -45.536364 
L 252.202139 -45.536364 
L 251.546414 -45.536364 
L 250.890689 -45.536364 
L 250.234964 -45.536364 
L 249.579239 -45.536364 
L 248.923514 -45.536364 
L 248.267789 -45.536364 
L 247.612064 -45.536364 
L 246.956339 -45.536364 
L 246.300615 -45.536364 
L 245.64489 -45.536364 
L 244.989165 -45.536364 
L 244.33344 -45.536364 
L 243.677715 -45.536364 
L 243.02199 -45.536364 
L 242.366265 -45.536364 
L 241.71054 -45.536364 
L 241.054815 -45.536364 
L 240.39909 -45.536364 
L 239.743366 -45.536364 
L 239.087641 -45.536364 
L 238.431916 -45.536364 
L 237.776191 -45.536364 
L 237.120466 -45.536364 
L 236.464741 -45.536364 
L 235.809016 -45.536364 
L 235.153291 -45.536364 
L 234.497566 -45.536364 
L 233.841842 -45.536364 
L 233.186117 -45.536364 
L 232.530392 -45.536364 
L 231.874667 -45.536364 
L 231.218942 -45.536364 
L 230.563217 -45.536364 
L 229.907492 -45.536364 
L 229.251767 -45.536364 
L 228.596042 -45.536364 
L 227.940318 -45.536364 
L 227.284593 -45.536364 
L 226.628868 -45.536364 
L 225.973143 -45.536364 
L 225.317418 -45.536364 
L 224.661693 -45.536364 
L 224.005968 -45.536364 
L 223.350243 -45.536364 
L 222.694518 -45.536364 
L 222.038793 -45.536364 
L 221.383069 -45.536364 
L 220.727344 -45.536364 
L 220.071619 -45.536364 
L 219.415894 -45.536364 
L 218.760169 -45.536364 
L 218.104444 -45.536364 
L 217.448719 -45.536364 
L 216.792994 -45.536364 
L 216.137269 -45.536364 
L 215.481545 -45.536364 
L 214.82582 -45.536364 
L 214.170095 -45.536364 
L 213.51437 -45.536364 
L 212.858645 -45.536364 
L 212.20292 -45.536364 
L 211.547195 -45.536364 
L 210.89147 -45.536364 
L 210.235745 -45.536364 
L 209.58002 -45.536364 
L 208.924296 -45.536364 
L 208.268571 -45.536364 
L 207.612846 -45.536364 
L 206.957121 -45.536364 
L 206.301396 -45.536364 
L 205.645671 -45.536364 
L 204.989946 -45.536364 
L 204.334221 -45.536364 
L 203.678496 -45.536364 
L 203.022772 -45.536364 
L 202.367047 -45.536364 
L 201.711322 -45.536364 
L 201.055597 -45.536364 
L 200.399872 -45.536364 
L 199.744147 -45.536364 
L 199.088422 -45.536364 
L 198.432697 -45.536364 
L 197.776972 -45.536364 
L 197.121247 -45.536364 
L 196.465523 -45.536364 
L 195.809798 -45.536364 
L 195.154073 -45.536364 
L 194.498348 -45.536364 
L 193.842623 -45.536364 
L 193.186898 -45.536364 
L 192.531173 -45.536364 
L 191.875448 -45.536364 
L 191.219723 -45.536364 
L 190.563999 -45.536364 
L 189.908274 -45.536364 
L 189.252549 -45.536364 
L 188.596824 -45.536364 
L 187.941099 -45.536364 
L 187.285374 -45.536364 
L 186.629649 -45.536364 
L 185.973924 -45.536364 
L 185.318199 -45.536364 
L 184.662474 -45.536364 
L 184.00675 -45.536364 
L 183.351025 -45.536364 
L 182.6953 -45.536364 
L 182.039575 -45.536364 
L 181.38385 -45.536364 
L 180.728125 -45.536364 
L 180.0724 -45.536364 
L 179.416675 -45.536364 
L 178.76095 -45.536364 
L 178.105226 -45.536364 
L 177.449501 -45.536364 
L 176.793776 -45.536364 
L 176.138051 -45.536364 
L 175.482326 -45.536364 
L 174.826601 -45.536364 
L 174.170876 -45.536364 
L 173.515151 -45.536364 
L 172.859426 -45.536364 
L 172.203701 -45.536364 
L 171.547977 -45.536364 
L 170.892252 -45.536364 
L 170.236527 -45.536364 
L 169.580802 -45.536364 
L 168.925077 -45.536364 
L 168.269352 -45.536364 
L 167.613627 -45.536364 
L 166.957902 -45.536364 
L 166.302177 -45.536364 
L 165.646453 -45.536364 
L 164.990728 -45.536364 
L 164.335003 -45.536364 
L 163.679278 -45.536364 
L 163.023553 -45.536364 
L 162.367828 -45.536364 
L 161.712103 -45.536364 
L 161.056378 -45.536364 
L 160.400653 -45.536364 
L 159.744928 -45.536364 
L 159.089204 -45.536364 
L 158.433479 -45.536364 
L 157.777754 -45.536364 
L 157.122029 -45.536364 
L 156.466304 -45.536364 
L 155.810579 -45.536364 
L 155.154854 -45.536364 
L 154.499129 -45.536364 
L 153.843404 -45.536364 
L 153.18768 -45.536364 
L 152.531955 -45.536364 
L 151.87623 -45.536364 
L 151.220505 -45.536364 
L 150.56478 -45.536364 
L 149.909055 -45.536364 
L 149.25333 -45.536364 
L 148.597605 -45.536364 
L 147.94188 -45.536364 
L 147.286155 -45.536364 
L 146.630431 -45.536364 
L 145.974706 -45.536364 
L 145.318981 -45.536364 
L 144.663256 -45.536364 
L 144.007531 -45.536364 
L 143.351806 -45.536364 
L 142.696081 -45.536364 
L 142.040356 -45.536364 
L 141.384631 -45.536364 
L 140.728907 -45.536364 
L 140.073182 -45.536364 
L 139.417457 -45.536364 
L 138.761732 -45.536364 
L 138.106007 -45.536364 
L 137.450282 -45.536364 
L 136.794557 -45.536364 
L 136.138832 -45.536364 
L 135.483107 -45.536364 
L 134.827382 -45.536364 
L 134.171658 -45.536364 
L 133.515933 -45.536364 
L 132.860208 -45.536364 
L 132.204483 -45.536364 
L 131.548758 -45.536364 
L 130.893033 -45.536364 
L 130.237308 -45.536364 
L 129.581583 -45.536364 
L 128.925858 -45.536364 
L 128.270134 -45.536364 
L 127.614409 -45.536364 
L 126.958684 -45.536364 
L 126.302959 -45.536364 
L 125.647234 -45.536364 
L 124.991509 -45.536364 
L 124.335784 -45.536364 
L 123.680059 -45.536364 
L 123.024334 -45.536364 
L 122.368609 -45.536364 
L 121.712885 -45.536364 
L 121.05716 -45.536364 
L 120.401435 -45.536364 
L 119.74571 -45.536364 
L 119.089985 -45.536364 
L 118.43426 -45.536364 
L 117.778535 -45.536364 
L 117.12281 -45.536364 
L 116.467085 -45.536364 
L 115.811361 -45.536364 
L 115.155636 -45.536364 
L 114.499911 -45.536364 
L 113.844186 -45.536364 
L 113.188461 -45.536364 
L 112.532736 -45.536364 
L 111.877011 -45.536364 
L 111.221286 -45.536364 
L 110.565561 -45.536364 
L 109.909836 -45.536364 
L 109.254112 -45.536364 
L 108.598387 -45.536364 
L 107.942662 -45.536364 
L 107.286937 -45.536364 
L 106.631212 -45.536364 
L 105.975487 -45.536364 
L 105.319762 -45.536364 
L 104.664037 -45.536364 
L 104.008312 -45.536364 
L 103.352588 -45.536364 
L 102.696863 -45.536364 
L 102.041138 -45.536364 
L 101.385413 -45.536364 
L 100.729688 -45.536364 
L 100.073963 -45.536364 
L 99.418238 -45.536364 
L 98.762513 -45.536364 
L 98.106788 -45.536364 
L 97.451063 -45.536364 
L 96.795339 -45.536364 
L 96.139614 -45.536364 
L 95.483889 -45.536364 
L 94.828164 -45.536364 
L 94.172439 -45.536364 
L 93.516714 -45.536364 
L 92.860989 -45.536364 
L 92.205264 -45.536364 
L 91.549539 -45.536364 
L 90.893815 -45.536364 
L 90.23809 -45.536364 
L 89.582365 -45.536364 
L 88.92664 -45.536364 
L 88.270915 -45.536364 
L 87.61519 -45.536364 
L 86.959465 -45.536364 
L 86.30374 -45.536364 
L 85.648015 -45.536364 
L 84.99229 -45.536364 
L 84.336566 -45.536364 
L 83.680841 -45.536364 
L 83.025116 -45.536364 
L 82.369391 -45.536364 
L 81.713666 -45.536364 
L 81.057941 -45.536364 
L 80.402216 -45.536364 
L 79.746491 -45.536364 
L 79.090766 -45.536364 
L 78.435042 -45.536364 
L 77.779317 -45.536364 
L 77.123592 -45.536364 
L 76.467867 -45.536364 
L 75.812142 -45.536364 
L 75.156417 -45.536364 
L 74.500692 -45.536364 
L 73.844967 -45.536364 
L 73.189242 -45.536364 
L 72.533517 -45.536364 
L 71.877793 -45.536364 
L 71.222068 -45.536364 
L 70.566343 -45.536364 
L 69.910618 -45.536364 
z
" style="stroke: #4c78a8; stroke-opacity: 0.15"/>
    </defs>
    <g clip-path="url(#p14321a326d)">
     <use xlink:href="#m168fc719c2" x="0" y="223.158281" style="fill: #4c78a8; fill-opacity: 0.15; stroke: #4c78a8; stroke-opacity: 0.15"/>
    </g>
   </g>
   <g id="matplotlib.axis_1">
    <g id="xtick_1">
     <g id="line2d_1">
      <path d="M 75.556247 184.958281 
L 75.556247 23.558281 
" clip-path="url(#p14321a326d)" style="fill: none; stroke: #b0b0b0; stroke-opacity: 0.25; stroke-width: 0.6; stroke-linecap: square"/>
     </g>
     <g id="line2d_2">
      <defs>
       <path id="m669399e99c" d="M 0 0 
L 0 3.5 
" style="stroke: #000000; stroke-width: 0.8"/>
      </defs>
      <g>
       <use xlink:href="#m669399e99c" x="75.556247" y="184.958281" style="stroke: #000000; stroke-width: 0.8"/>
      </g>
     </g>
     <g id="text_1">
      <!-- −3 -->
      <g transform="translate(68.185153 199.555938) scale(0.1 -0.1)">
       <defs>
        <path id="DejaVuSans-c9c" d="M 678 2272 
L 4684 2272 
L 4684 1741 
L 678 1741 
L 678 2272 
z
" transform="scale(0.015625)"/>
        <path id="DejaVuSans-16" d="M 2597 2516 
Q 3050 2419 3304 2112 
Q 3559 1806 3559 1356 
Q 3559 666 3084 287 
Q 2609 -91 1734 -91 
Q 1441 -91 1130 -33 
Q 819 25 488 141 
L 488 750 
Q 750 597 1062 519 
Q 1375 441 1716 441 
Q 2309 441 2620 675 
Q 2931 909 2931 1356 
Q 2931 1769 2642 2001 
Q 2353 2234 1838 2234 
L 1294 2234 
L 1294 2753 
L 1863 2753 
Q 2328 2753 2575 2939 
Q 2822 3125 2822 3475 
Q 2822 3834 2567 4026 
Q 2313 4219 1838 4219 
Q 1578 4219 1281 4162 
Q 984 4106 628 3988 
L 628 4550 
Q 988 4650 1302 4700 
Q 1616 4750 1894 4750 
Q 2613 4750 3031 4423 
Q 3450 4097 3450 3541 
Q 3450 3153 3228 2886 
Q 3006 2619 2597 2516 
z
" transform="scale(0.015625)"/>
       </defs>
       <use xlink:href="#DejaVuSans-c9c"/>
       <use xlink:href="#DejaVuSans-16" transform="translate(83.796875 0)"/>
      </g>
     </g>
    </g>
    <g id="xtick_2">
     <g id="line2d_3">
      <path d="M 117.280076 184.958281 
L 117.280076 23.558281 
" clip-path="url(#p14321a326d)" style="fill: none; stroke: #b0b0b0; stroke-opacity: 0.25; stroke-width: 0.6; stroke-linecap: square"/>
     </g>
     <g id="line2d_4">
      <g>
       <use xlink:href="#m669399e99c" x="117.280076" y="184.958281" style="stroke: #000000; stroke-width: 0.8"/>
      </g>
     </g>
     <g id="text_2">
      <!-- −2 -->
      <g transform="translate(109.908982 199.555938) scale(0.1 -0.1)">
       <defs>
        <path id="DejaVuSans-15" d="M 1228 531 
L 3431 531 
L 3431 0 
L 469 0 
L 469 531 
Q 828 903 1448 1529 
Q 2069 2156 2228 2338 
Q 2531 2678 2651 2914 
Q 2772 3150 2772 3378 
Q 2772 3750 2511 3984 
Q 2250 4219 1831 4219 
Q 1534 4219 1204 4116 
Q 875 4013 500 3803 
L 500 4441 
Q 881 4594 1212 4672 
Q 1544 4750 1819 4750 
Q 2544 4750 2975 4387 
Q 3406 4025 3406 3419 
Q 3406 3131 3298 2873 
Q 3191 2616 2906 2266 
Q 2828 2175 2409 1742 
Q 1991 1309 1228 531 
z
" transform="scale(0.015625)"/>
       </defs>
       <use xlink:href="#DejaVuSans-c9c"/>
       <use xlink:href="#DejaVuSans-15" transform="translate(83.796875 0)"/>
      </g>
     </g>
    </g>
    <g id="xtick_3">
     <g id="line2d_5">
      <path d="M 159.003905 184.958281 
L 159.003905 23.558281 
" clip-path="url(#p14321a326d)" style="fill: none; stroke: #b0b0b0; stroke-opacity: 0.25; stroke-width: 0.6; stroke-linecap: square"/>
     </g>
     <g id="line2d_6">
      <g>
       <use xlink:href="#m669399e99c" x="159.003905" y="184.958281" style="stroke: #000000; stroke-width: 0.8"/>
      </g>
     </g>
     <g id="text_3">
      <!-- −1 -->
      <g transform="translate(151.632812 199.555938) scale(0.1 -0.1)">
       <defs>
        <path id="DejaVuSans-14" d="M 794 531 
L 1825 531 
L 1825 4091 
L 703 3866 
L 703 4441 
L 1819 4666 
L 2450 4666 
L 2450 531 
L 3481 531 
L 3481 0 
L 794 0 
L 794 531 
z
" transform="scale(0.015625)"/>
       </defs>
       <use xlink:href="#DejaVuSans-c9c"/>
       <use xlink:href="#DejaVuSans-14" transform="translate(83.796875 0)"/>
      </g>
     </g>
    </g>
    <g id="xtick_4">
     <g id="line2d_7">
      <path d="M 200.727734 184.958281 
L 200.727734 23.558281 
" clip-path="url(#p14321a326d)" style="fill: none; stroke: #b0b0b0; stroke-opacity: 0.25; stroke-width: 0.6; stroke-linecap: square"/>
     </g>
     <g id="line2d_8">
      <g>
       <use xlink:href="#m669399e99c" x="200.727734" y="184.958281" style="stroke: #000000; stroke-width: 0.8"/>
      </g>
     </g>
     <g id="text_4">
      <!-- 0 -->
      <g transform="translate(197.546484 199.555938) scale(0.1 -0.1)">
       <defs>
        <path id="DejaVuSans-13" d="M 2034 4250 
Q 1547 4250 1301 3770 
Q 1056 3291 1056 2328 
Q 1056 1369 1301 889 
Q 1547 409 2034 409 
Q 2525 409 2770 889 
Q 3016 1369 3016 2328 
Q 3016 3291 2770 3770 
Q 2525 4250 2034 4250 
z
M 2034 4750 
Q 2819 4750 3233 4129 
Q 3647 3509 3647 2328 
Q 3647 1150 3233 529 
Q 2819 -91 2034 -91 
Q 1250 -91 836 529 
Q 422 1150 422 2328 
Q 422 3509 836 4129 
Q 1250 4750 2034 4750 
z
" transform="scale(0.015625)"/>
       </defs>
       <use xlink:href="#DejaVuSans-13"/>
      </g>
     </g>
    </g>
    <g id="xtick_5">
     <g id="line2d_9">
      <path d="M 242.451563 184.958281 
L 242.451563 23.558281 
" clip-path="url(#p14321a326d)" style="fill: none; stroke: #b0b0b0; stroke-opacity: 0.25; stroke-width: 0.6; stroke-linecap: square"/>
     </g>
     <g id="line2d_10">
      <g>
       <use xlink:href="#m669399e99c" x="242.451563" y="184.958281" style="stroke: #000000; stroke-width: 0.8"/>
      </g>
     </g>
     <g id="text_5">
      <!-- 1 -->
      <g transform="translate(239.270313 199.555938) scale(0.1 -0.1)">
       <use xlink:href="#DejaVuSans-14"/>
      </g>
     </g>
    </g>
    <g id="xtick_6">
     <g id="line2d_11">
      <path d="M 284.175393 184.958281 
L 284.175393 23.558281 
" clip-path="url(#p14321a326d)" style="fill: none; stroke: #b0b0b0; stroke-opacity: 0.25; stroke-width: 0.6; stroke-linecap: square"/>
     </g>
     <g id="line2d_12">
      <g>
       <use xlink:href="#m669399e99c" x="284.175393" y="184.958281" style="stroke: #000000; stroke-width: 0.8"/>
      </g>
     </g>
     <g id="text_6">
      <!-- 2 -->
      <g transform="translate(280.994143 199.555938) scale(0.1 -0.1)">
       <use xlink:href="#DejaVuSans-15"/>
      </g>
     </g>
    </g>
    <g id="xtick_7">
     <g id="line2d_13">
      <path d="M 325.899222 184.958281 
L 325.899222 23.558281 
" clip-path="url(#p14321a326d)" style="fill: none; stroke: #b0b0b0; stroke-opacity: 0.25; stroke-width: 0.6; stroke-linecap: square"/>
     </g>
     <g id="line2d_14">
      <g>
       <use xlink:href="#m669399e99c" x="325.899222" y="184.958281" style="stroke: #000000; stroke-width: 0.8"/>
      </g>
     </g>
     <g id="text_7">
      <!-- 3 -->
      <g transform="translate(322.717972 199.555938) scale(0.1 -0.1)">
       <use xlink:href="#DejaVuSans-16"/>
      </g>
     </g>
    </g>
    <g id="text_8">
     <!-- x -->
     <g transform="translate(197.768359 213.555938) scale(0.1 -0.1)">
      <defs>
       <path id="DejaVuSans-5b" d="M 3513 3500 
L 2247 1797 
L 3578 0 
L 2900 0 
L 1881 1375 
L 863 0 
L 184 0 
L 1544 1831 
L 300 3500 
L 978 3500 
L 1906 2253 
L 2834 3500 
L 3513 3500 
z
" transform="scale(0.015625)"/>
      </defs>
      <use xlink:href="#DejaVuSans-5b"/>
     </g>
    </g>
   </g>
   <g id="matplotlib.axis_2">
    <g id="ytick_1">
     <g id="line2d_15">
      <path d="M 56.828906 177.621918 
L 344.626562 177.621918 
" clip-path="url(#p14321a326d)" style="fill: none; stroke: #b0b0b0; stroke-opacity: 0.25; stroke-width: 0.6; stroke-linecap: square"/>
     </g>
     <g id="line2d_16">
      <defs>
       <path id="m6d3d3e228c" d="M 0 0 
L -3.5 0 
" style="stroke: #000000; stroke-width: 0.8"/>
      </defs>
      <g>
       <use xlink:href="#m6d3d3e228c" x="56.828906" y="177.621918" style="stroke: #000000; stroke-width: 0.8"/>
      </g>
     </g>
     <g id="text_9">
      <!-- 0.000 -->
      <g transform="translate(21.200781 181.420746) scale(0.1 -0.1)">
       <defs>
        <path id="DejaVuSans-11" d="M 684 794 
L 1344 794 
L 1344 0 
L 684 0 
L 684 794 
z
" transform="scale(0.015625)"/>
       </defs>
       <use xlink:href="#DejaVuSans-13"/>
       <use xlink:href="#DejaVuSans-11" transform="translate(63.625 0)"/>
       <use xlink:href="#DejaVuSans-13" transform="translate(95.40625 0)"/>
       <use xlink:href="#DejaVuSans-13" transform="translate(159.03125 0)"/>
       <use xlink:href="#DejaVuSans-13" transform="translate(222.65625 0)"/>
      </g>
     </g>
    </g>
    <g id="ytick_2">
     <g id="line2d_17">
      <path d="M 56.828906 154.574052 
L 344.626562 154.574052 
" clip-path="url(#p14321a326d)" style="fill: none; stroke: #b0b0b0; stroke-opacity: 0.25; stroke-width: 0.6; stroke-linecap: square"/>
     </g>
     <g id="line2d_18">
      <g>
       <use xlink:href="#m6d3d3e228c" x="56.828906" y="154.574052" style="stroke: #000000; stroke-width: 0.8"/>
      </g>
     </g>
     <g id="text_10">
      <!-- 0.025 -->
      <g transform="translate(21.200781 158.37288) scale(0.1 -0.1)">
       <defs>
        <path id="DejaVuSans-18" d="M 691 4666 
L 3169 4666 
L 3169 4134 
L 1269 4134 
L 1269 2991 
Q 1406 3038 1543 3061 
Q 1681 3084 1819 3084 
Q 2600 3084 3056 2656 
Q 3513 2228 3513 1497 
Q 3513 744 3044 326 
Q 2575 -91 1722 -91 
Q 1428 -91 1123 -41 
Q 819 9 494 109 
L 494 744 
Q 775 591 1075 516 
Q 1375 441 1709 441 
Q 2250 441 2565 725 
Q 2881 1009 2881 1497 
Q 2881 1984 2565 2268 
Q 2250 2553 1709 2553 
Q 1456 2553 1204 2497 
Q 953 2441 691 2322 
L 691 4666 
z
" transform="scale(0.015625)"/>
       </defs>
       <use xlink:href="#DejaVuSans-13"/>
       <use xlink:href="#DejaVuSans-11" transform="translate(63.625 0)"/>
       <use xlink:href="#DejaVuSans-13" transform="translate(95.40625 0)"/>
       <use xlink:href="#DejaVuSans-15" transform="translate(159.03125 0)"/>
       <use xlink:href="#DejaVuSans-18" transform="translate(222.65625 0)"/>
      </g>
     </g>
    </g>
    <g id="ytick_3">
     <g id="line2d_19">
      <path d="M 56.828906 131.526185 
L 344.626562 131.526185 
" clip-path="url(#p14321a326d)" style="fill: none; stroke: #b0b0b0; stroke-opacity: 0.25; stroke-width: 0.6; stroke-linecap: square"/>
     </g>
     <g id="line2d_20">
      <g>
       <use xlink:href="#m6d3d3e228c" x="56.828906" y="131.526185" style="stroke: #000000; stroke-width: 0.8"/>
      </g>
     </g>
     <g id="text_11">
      <!-- 0.050 -->
      <g transform="translate(21.200781 135.325014) scale(0.1 -0.1)">
       <use xlink:href="#DejaVuSans-13"/>
       <use xlink:href="#DejaVuSans-11" transform="translate(63.625 0)"/>
       <use xlink:href="#DejaVuSans-13" transform="translate(95.40625 0)"/>
       <use xlink:href="#DejaVuSans-18" transform="translate(159.03125 0)"/>
       <use xlink:href="#DejaVuSans-13" transform="translate(222.65625 0)"/>
      </g>
     </g>
    </g>
    <g id="ytick_4">
     <g id="line2d_21">
      <path d="M 56.828906 108.478319 
L 344.626562 108.478319 
" clip-path="url(#p14321a326d)" style="fill: none; stroke: #b0b0b0; stroke-opacity: 0.25; stroke-width: 0.6; stroke-linecap: square"/>
     </g>
     <g id="line2d_22">
      <g>
       <use xlink:href="#m6d3d3e228c" x="56.828906" y="108.478319" style="stroke: #000000; stroke-width: 0.8"/>
      </g>
     </g>
     <g id="text_12">
      <!-- 0.075 -->
      <g transform="translate(21.200781 112.277147) scale(0.1 -0.1)">
       <defs>
        <path id="DejaVuSans-1a" d="M 525 4666 
L 3525 4666 
L 3525 4397 
L 1831 0 
L 1172 0 
L 2766 4134 
L 525 4134 
L 525 4666 
z
" transform="scale(0.015625)"/>
       </defs>
       <use xlink:href="#DejaVuSans-13"/>
       <use xlink:href="#DejaVuSans-11" transform="translate(63.625 0)"/>
       <use xlink:href="#DejaVuSans-13" transform="translate(95.40625 0)"/>
       <use xlink:href="#DejaVuSans-1a" transform="translate(159.03125 0)"/>
       <use xlink:href="#DejaVuSans-18" transform="translate(222.65625 0)"/>
      </g>
     </g>
    </g>
    <g id="ytick_5">
     <g id="line2d_23">
      <path d="M 56.828906 85.430453 
L 344.626562 85.430453 
" clip-path="url(#p14321a326d)" style="fill: none; stroke: #b0b0b0; stroke-opacity: 0.25; stroke-width: 0.6; stroke-linecap: square"/>
     </g>
     <g id="line2d_24">
      <g>
       <use xlink:href="#m6d3d3e228c" x="56.828906" y="85.430453" style="stroke: #000000; stroke-width: 0.8"/>
      </g>
     </g>
     <g id="text_13">
      <!-- 0.100 -->
      <g transform="translate(21.200781 89.229281) scale(0.1 -0.1)">
       <use xlink:href="#DejaVuSans-13"/>
       <use xlink:href="#DejaVuSans-11" transform="translate(63.625 0)"/>
       <use xlink:href="#DejaVuSans-14" transform="translate(95.40625 0)"/>
       <use xlink:href="#DejaVuSans-13" transform="translate(159.03125 0)"/>
       <use xlink:href="#DejaVuSans-13" transform="translate(222.65625 0)"/>
      </g>
     </g>
    </g>
    <g id="ytick_6">
     <g id="line2d_25">
      <path d="M 56.828906 62.382587 
L 344.626562 62.382587 
" clip-path="url(#p14321a326d)" style="fill: none; stroke: #b0b0b0; stroke-opacity: 0.25; stroke-width: 0.6; stroke-linecap: square"/>
     </g>
     <g id="line2d_26">
      <g>
       <use xlink:href="#m6d3d3e228c" x="56.828906" y="62.382587" style="stroke: #000000; stroke-width: 0.8"/>
      </g>
     </g>
     <g id="text_14">
      <!-- 0.125 -->
      <g transform="translate(21.200781 66.181415) scale(0.1 -0.1)">
       <use xlink:href="#DejaVuSans-13"/>
       <use xlink:href="#DejaVuSans-11" transform="translate(63.625 0)"/>
       <use xlink:href="#DejaVuSans-14" transform="translate(95.40625 0)"/>
       <use xlink:href="#DejaVuSans-15" transform="translate(159.03125 0)"/>
       <use xlink:href="#DejaVuSans-18" transform="translate(222.65625 0)"/>
      </g>
     </g>
    </g>
    <g id="ytick_7">
     <g id="line2d_27">
      <path d="M 56.828906 39.334721 
L 344.626562 39.334721 
" clip-path="url(#p14321a326d)" style="fill: none; stroke: #b0b0b0; stroke-opacity: 0.25; stroke-width: 0.6; stroke-linecap: square"/>
     </g>
     <g id="line2d_28">
      <g>
       <use xlink:href="#m6d3d3e228c" x="56.828906" y="39.334721" style="stroke: #000000; stroke-width: 0.8"/>
      </g>
     </g>
     <g id="text_15">
      <!-- 0.150 -->
      <g transform="translate(21.200781 43.133549) scale(0.1 -0.1)">
       <use xlink:href="#DejaVuSans-13"/>
       <use xlink:href="#DejaVuSans-11" transform="translate(63.625 0)"/>
       <use xlink:href="#DejaVuSans-14" transform="translate(95.40625 0)"/>
       <use xlink:href="#DejaVuSans-18" transform="translate(159.03125 0)"/>
       <use xlink:href="#DejaVuSans-13" transform="translate(222.65625 0)"/>
      </g>
     </g>
    </g>
    <g id="text_16">
     <!-- f(x) -->
     <g transform="translate(14.798438 112.879375) rotate(-90) scale(0.1 -0.1)">
      <defs>
       <path id="DejaVuSans-49" d="M 2375 4863 
L 2375 4384 
L 1825 4384 
Q 1516 4384 1395 4259 
Q 1275 4134 1275 3809 
L 1275 3500 
L 2222 3500 
L 2222 3053 
L 1275 3053 
L 1275 0 
L 697 0 
L 697 3053 
L 147 3053 
L 147 3500 
L 697 3500 
L 697 3744 
Q 697 4328 969 4595 
Q 1241 4863 1831 4863 
L 2375 4863 
z
" transform="scale(0.015625)"/>
       <path id="DejaVuSans-b" d="M 1984 4856 
Q 1566 4138 1362 3434 
Q 1159 2731 1159 2009 
Q 1159 1288 1364 580 
Q 1569 -128 1984 -844 
L 1484 -844 
Q 1016 -109 783 600 
Q 550 1309 550 2009 
Q 550 2706 781 3412 
Q 1013 4119 1484 4856 
L 1984 4856 
z
" transform="scale(0.015625)"/>
       <path id="DejaVuSans-c" d="M 513 4856 
L 1013 4856 
Q 1481 4119 1714 3412 
Q 1947 2706 1947 2009 
Q 1947 1309 1714 600 
Q 1481 -109 1013 -844 
L 513 -844 
Q 928 -128 1133 580 
Q 1338 1288 1338 2009 
Q 1338 2731 1133 3434 
Q 928 4138 513 4856 
z
" transform="scale(0.015625)"/>
      </defs>
      <use xlink:href="#DejaVuSans-49"/>
      <use xlink:href="#DejaVuSans-b" transform="translate(35.203125 0)"/>
      <use xlink:href="#DejaVuSans-5b" transform="translate(74.21875 0)"/>
      <use xlink:href="#DejaVuSans-c" transform="translate(133.40625 0)"/>
     </g>
    </g>
   </g>
   <g id="line2d_29">
    <path d="M 69.910618 30.894645 
L 331.544851 30.894645 
L 331.544851 30.894645 
" clip-path="url(#p14321a326d)" style="fill: none; stroke: #4c78a8; stroke-width: 2; stroke-linecap: square"/>
   </g>
   <g id="patch_3">
    <path d="M 56.828906 184.958281 
L 56.828906 23.558281 
" style="fill: none; stroke: #000000; stroke-width: 0.8; stroke-linejoin: miter; stroke-linecap: square"/>
   </g>
   <g id="patch_4">
    <path d="M 56.828906 184.958281 
L 344.626562 184.958281 
" style="fill: none; stroke: #000000; stroke-width: 0.8; stroke-linejoin: miter; stroke-linecap: square"/>
   </g>
   <g id="text_17">
    <!-- Circular Uniform -->
    <g transform="translate(155.939688 15.558281) scale(0.11 -0.11)">
     <defs>
      <path id="DejaVuSans-26" d="M 4122 4306 
L 4122 3641 
Q 3803 3938 3442 4084 
Q 3081 4231 2675 4231 
Q 1875 4231 1450 3742 
Q 1025 3253 1025 2328 
Q 1025 1406 1450 917 
Q 1875 428 2675 428 
Q 3081 428 3442 575 
Q 3803 722 4122 1019 
L 4122 359 
Q 3791 134 3420 21 
Q 3050 -91 2638 -91 
Q 1578 -91 968 557 
Q 359 1206 359 2328 
Q 359 3453 968 4101 
Q 1578 4750 2638 4750 
Q 3056 4750 3426 4639 
Q 3797 4528 4122 4306 
z
" transform="scale(0.015625)"/>
      <path id="DejaVuSans-4c" d="M 603 3500 
L 1178 3500 
L 1178 0 
L 603 0 
L 603 3500 
z
M 603 4863 
L 1178 4863 
L 1178 4134 
L 603 4134 
L 603 4863 
z
" transform="scale(0.015625)"/>
      <path id="DejaVuSans-55" d="M 2631 2963 
Q 2534 3019 2420 3045 
Q 2306 3072 2169 3072 
Q 1681 3072 1420 2755 
Q 1159 2438 1159 1844 
L 1159 0 
L 581 0 
L 581 3500 
L 1159 3500 
L 1159 2956 
Q 1341 3275 1631 3429 
Q 1922 3584 2338 3584 
Q 2397 3584 2469 3576 
Q 2541 3569 2628 3553 
L 2631 2963 
z
" transform="scale(0.015625)"/>
      <path id="DejaVuSans-46" d="M 3122 3366 
L 3122 2828 
Q 2878 2963 2633 3030 
Q 2388 3097 2138 3097 
Q 1578 3097 1268 2742 
Q 959 2388 959 1747 
Q 959 1106 1268 751 
Q 1578 397 2138 397 
Q 2388 397 2633 464 
Q 2878 531 3122 666 
L 3122 134 
Q 2881 22 2623 -34 
Q 2366 -91 2075 -91 
Q 1284 -91 818 406 
Q 353 903 353 1747 
Q 353 2603 823 3093 
Q 1294 3584 2113 3584 
Q 2378 3584 2631 3529 
Q 2884 3475 3122 3366 
z
" transform="scale(0.015625)"/>
      <path id="DejaVuSans-58" d="M 544 1381 
L 544 3500 
L 1119 3500 
L 1119 1403 
Q 1119 906 1312 657 
Q 1506 409 1894 409 
Q 2359 409 2629 706 
Q 2900 1003 2900 1516 
L 2900 3500 
L 3475 3500 
L 3475 0 
L 2900 0 
L 2900 538 
Q 2691 219 2414 64 
Q 2138 -91 1772 -91 
Q 1169 -91 856 284 
Q 544 659 544 1381 
z
M 1991 3584 
L 1991 3584 
z
" transform="scale(0.015625)"/>
      <path id="DejaVuSans-4f" d="M 603 4863 
L 1178 4863 
L 1178 0 
L 603 0 
L 603 4863 
z
" transform="scale(0.015625)"/>
      <path id="DejaVuSans-44" d="M 2194 1759 
Q 1497 1759 1228 1600 
Q 959 1441 959 1056 
Q 959 750 1161 570 
Q 1363 391 1709 391 
Q 2188 391 2477 730 
Q 2766 1069 2766 1631 
L 2766 1759 
L 2194 1759 
z
M 3341 1997 
L 3341 0 
L 2766 0 
L 2766 531 
Q 2569 213 2275 61 
Q 1981 -91 1556 -91 
Q 1019 -91 701 211 
Q 384 513 384 1019 
Q 384 1609 779 1909 
Q 1175 2209 1959 2209 
L 2766 2209 
L 2766 2266 
Q 2766 2663 2505 2880 
Q 2244 3097 1772 3097 
Q 1472 3097 1187 3025 
Q 903 2953 641 2809 
L 641 3341 
Q 956 3463 1253 3523 
Q 1550 3584 1831 3584 
Q 2591 3584 2966 3190 
Q 3341 2797 3341 1997 
z
" transform="scale(0.015625)"/>
      <path id="DejaVuSans-3" transform="scale(0.015625)"/>
      <path id="DejaVuSans-38" d="M 556 4666 
L 1191 4666 
L 1191 1831 
Q 1191 1081 1462 751 
Q 1734 422 2344 422 
Q 2950 422 3222 751 
Q 3494 1081 3494 1831 
L 3494 4666 
L 4128 4666 
L 4128 1753 
Q 4128 841 3676 375 
Q 3225 -91 2344 -91 
Q 1459 -91 1007 375 
Q 556 841 556 1753 
L 556 4666 
z
" transform="scale(0.015625)"/>
      <path id="DejaVuSans-51" d="M 3513 2113 
L 3513 0 
L 2938 0 
L 2938 2094 
Q 2938 2591 2744 2837 
Q 2550 3084 2163 3084 
Q 1697 3084 1428 2787 
Q 1159 2491 1159 1978 
L 1159 0 
L 581 0 
L 581 3500 
L 1159 3500 
L 1159 2956 
Q 1366 3272 1645 3428 
Q 1925 3584 2291 3584 
Q 2894 3584 3203 3211 
Q 3513 2838 3513 2113 
z
" transform="scale(0.015625)"/>
      <path id="DejaVuSans-52" d="M 1959 3097 
Q 1497 3097 1228 2736 
Q 959 2375 959 1747 
Q 959 1119 1226 758 
Q 1494 397 1959 397 
Q 2419 397 2687 759 
Q 2956 1122 2956 1747 
Q 2956 2369 2687 2733 
Q 2419 3097 1959 3097 
z
M 1959 3584 
Q 2709 3584 3137 3096 
Q 3566 2609 3566 1747 
Q 3566 888 3137 398 
Q 2709 -91 1959 -91 
Q 1206 -91 779 398 
Q 353 888 353 1747 
Q 353 2609 779 3096 
Q 1206 3584 1959 3584 
z
" transform="scale(0.015625)"/>
      <path id="DejaVuSans-50" d="M 3328 2828 
Q 3544 3216 3844 3400 
Q 4144 3584 4550 3584 
Q 5097 3584 5394 3201 
Q 5691 2819 5691 2113 
L 5691 0 
L 5113 0 
L 5113 2094 
Q 5113 2597 4934 2840 
Q 4756 3084 4391 3084 
Q 3944 3084 3684 2787 
Q 3425 2491 3425 1978 
L 3425 0 
L 2847 0 
L 2847 2094 
Q 2847 2600 2669 2842 
Q 2491 3084 2119 3084 
Q 1678 3084 1418 2786 
Q 1159 2488 1159 1978 
L 1159 0 
L 581 0 
L 581 3500 
L 1159 3500 
L 1159 2956 
Q 1356 3278 1631 3431 
Q 1906 3584 2284 3584 
Q 2666 3584 2933 3390 
Q 3200 3197 3328 2828 
z
" transform="scale(0.015625)"/>
     </defs>
     <use xlink:href="#DejaVuSans-26"/>
     <use xlink:href="#DejaVuSans-4c" transform="translate(69.828125 0)"/>
     <use xlink:href="#DejaVuSans-55" transform="translate(97.609375 0)"/>
     <use xlink:href="#DejaVuSans-46" transform="translate(136.515625 0)"/>
     <use xlink:href="#DejaVuSans-58" transform="translate(191.5 0)"/>
     <use xlink:href="#DejaVuSans-4f" transform="translate(254.875 0)"/>
     <use xlink:href="#DejaVuSans-44" transform="translate(282.65625 0)"/>
     <use xlink:href="#DejaVuSans-55" transform="translate(343.9375 0)"/>
     <use xlink:href="#DejaVuSans-3" transform="translate(385.046875 0)"/>
     <use xlink:href="#DejaVuSans-38" transform="translate(416.828125 0)"/>
     <use xlink:href="#DejaVuSans-51" transform="translate(490.015625 0)"/>
     <use xlink:href="#DejaVuSans-4c" transform="translate(553.390625 0)"/>
     <use xlink:href="#DejaVuSans-49" transform="translate(581.171875 0)"/>
     <use xlink:href="#DejaVuSans-52" transform="translate(616.375 0)"/>
     <use xlink:href="#DejaVuSans-55" transform="translate(677.5625 0)"/>
     <use xlink:href="#DejaVuSans-50" transform="translate(716.921875 0)"/>
    </g>
   </g>
  </g>
 </g>
 <defs>
  <clipPath id="p14321a326d">
   <rect x="56.828906" y="23.558281" width="287.797656" height="161.4"/>
  </clipPath>
 </defs>
</svg>
