<?xml version="1.0" encoding="utf-8" standalone="no"?>
<!DOCTYPE svg PUBLIC "-//W3C//DTD SVG 1.1//EN"
  "http://www.w3.org/Graphics/SVG/1.1/DTD/svg11.dtd">
<svg xmlns:xlink="http://www.w3.org/1999/xlink" width="352.301562pt" height="223.158281pt" viewBox="0 0 352.301562 223.158281" xmlns="http://www.w3.org/2000/svg" version="1.1">
 <metadata>
  <rdf:RDF xmlns:dc="http://purl.org/dc/elements/1.1/" xmlns:cc="http://creativecommons.org/ns#" xmlns:rdf="http://www.w3.org/1999/02/22-rdf-syntax-ns#">
   <cc:Work>
    <dc:type rdf:resource="http://purl.org/dc/dcmitype/StillImage"/>
    <dc:date>2026-07-05T02:24:31.263979</dc:date>
    <dc:format>image/svg+xml</dc:format>
    <dc:creator>
     <cc:Agent>
      <dc:title>Matplotlib v3.11.0, https://matplotlib.org/</dc:title>
     </cc:Agent>
    </dc:creator>
   </cc:Work>
  </rdf:RDF>
 </metadata>
 <defs>
  <style type="text/css">*{stroke-linejoin: round; stroke-linecap: butt}</style>
 </defs>
 <g id="figure_1">
  <g id="patch_1">
   <path d="M 0 223.158281 
L 352.301562 223.158281 
L 352.301562 0 
L 0 0 
z
" style="fill: #ffffff"/>
  </g>
  <g id="axes_1">
   <g id="patch_2">
    <path d="M 44.103906 184.958281 
L 345.101562 184.958281 
L 345.101562 23.558281 
L 44.103906 23.558281 
z
" style="fill: #ffffff"/>
   </g>
   <g id="FillBetweenPolyCollection_1">
    <defs>
     <path id="me2a9ac5a39" d="M 57.785618 -45.536364 
L 57.785618 -62.841961 
L 58.471418 -71.02548 
L 59.157218 -78.827443 
L 59.843018 -86.260983 
L 60.528818 -93.338828 
L 61.214618 -100.073323 
L 61.900418 -106.47643 
L 62.586218 -112.559748 
L 63.272019 -118.334519 
L 63.957819 -123.811637 
L 64.643619 -129.001662 
L 65.329419 -133.914827 
L 66.015219 -138.561046 
L 66.701019 -142.949929 
L 67.386819 -147.090783 
L 68.072619 -150.992626 
L 68.758419 -154.664194 
L 69.444219 -158.11395 
L 70.130019 -161.35009 
L 70.815819 -164.380551 
L 71.50162 -167.213022 
L 72.18742 -169.854945 
L 72.87322 -172.313529 
L 73.55902 -174.595751 
L 74.24482 -176.708368 
L 74.93062 -178.657918 
L 75.61642 -180.45073 
L 76.30222 -182.092931 
L 76.98802 -183.590449 
L 77.67382 -184.94902 
L 78.35962 -186.174194 
L 79.04542 -187.27134 
L 79.731221 -188.245653 
L 80.417021 -189.102156 
L 81.102821 -189.845709 
L 81.788621 -190.481009 
L 82.474421 -191.0126 
L 83.160221 -191.444875 
L 83.846021 -191.782081 
L 84.531821 -192.02832 
L 85.217621 -192.187561 
L 85.903421 -192.263636 
L 86.589221 -192.26025 
L 87.275021 -192.180981 
L 87.960822 -192.029285 
L 88.646622 -191.808502 
L 89.332422 -191.521855 
L 90.018222 -191.172457 
L 90.704022 -190.763313 
L 91.389822 -190.297326 
L 92.075622 -189.777295 
L 92.761422 -189.205923 
L 93.447222 -188.585815 
L 94.133022 -187.919488 
L 94.818822 -187.209366 
L 95.504622 -186.45779 
L 96.190423 -185.667014 
L 96.876223 -184.839213 
L 97.562023 -183.976481 
L 98.247823 -183.08084 
L 98.933623 -182.154233 
L 99.619423 -181.198535 
L 100.305223 -180.215551 
L 100.991023 -179.207018 
L 101.676823 -178.174609 
L 102.362623 -177.119933 
L 103.048423 -176.044539 
L 103.734223 -174.949918 
L 104.420024 -173.837501 
L 105.105824 -172.708667 
L 105.791624 -171.564739 
L 106.477424 -170.406989 
L 107.163224 -169.23664 
L 107.849024 -168.054865 
L 108.534824 -166.86279 
L 109.220624 -165.661498 
L 109.906424 -164.452026 
L 110.592224 -163.235368 
L 111.278024 -162.012478 
L 111.963824 -160.784271 
L 112.649625 -159.551623 
L 113.335425 -158.315372 
L 114.021225 -157.076321 
L 114.707025 -155.835238 
L 115.392825 -154.592858 
L 116.078625 -153.349883 
L 116.764425 -152.106984 
L 117.450225 -150.864802 
L 118.136025 -149.623947 
L 118.821825 -148.385004 
L 119.507625 -147.148528 
L 120.193425 -145.91505 
L 120.879225 -144.685072 
L 121.565026 -143.459076 
L 122.250826 -142.237517 
L 122.936626 -141.020829 
L 123.622426 -139.809423 
L 124.308226 -138.603689 
L 124.994026 -137.403996 
L 125.679826 -136.210694 
L 126.365626 -135.024115 
L 127.051426 -133.844569 
L 127.737226 -132.672353 
L 128.423026 -131.507743 
L 129.108826 -130.351001 
L 129.794627 -129.202372 
L 130.480427 -128.062086 
L 131.166227 -126.930359 
L 131.852027 -125.807391 
L 132.537827 -124.693371 
L 133.223627 -123.588473 
L 133.909427 -122.492859 
L 134.595227 -121.406678 
L 135.281027 -120.33007 
L 135.966827 -119.263161 
L 136.652627 -118.206068 
L 137.338427 -117.158896 
L 138.024228 -116.121742 
L 138.710028 -115.094692 
L 139.395828 -114.077823 
L 140.081628 -113.071205 
L 140.767428 -112.074898 
L 141.453228 -111.088953 
L 142.139028 -110.113416 
L 142.824828 -109.148323 
L 143.510628 -108.193704 
L 144.196428 -107.249583 
L 144.882228 -106.315977 
L 145.568028 -105.392896 
L 146.253829 -104.480344 
L 146.939629 -103.578321 
L 147.625429 -102.68682 
L 148.311229 -101.80583 
L 148.997029 -100.935333 
L 149.682829 -100.075309 
L 150.368629 -99.225733 
L 151.054429 -98.386573 
L 151.740229 -97.557796 
L 152.426029 -96.739365 
L 153.111829 -95.931237 
L 153.797629 -95.133369 
L 154.48343 -94.34571 
L 155.16923 -93.568211 
L 155.85503 -92.800816 
L 156.54083 -92.043469 
L 157.22663 -91.296109 
L 157.91243 -90.558675 
L 158.59823 -89.831102 
L 159.28403 -89.113323 
L 159.96983 -88.405269 
L 160.65563 -87.70687 
L 161.34143 -87.018053 
L 162.02723 -86.338743 
L 162.713031 -85.668864 
L 163.398831 -85.00834 
L 164.084631 -84.357091 
L 164.770431 -83.715038 
L 165.456231 -83.082099 
L 166.142031 -82.458192 
L 166.827831 -81.843234 
L 167.513631 -81.23714 
L 168.199431 -80.639826 
L 168.885231 -80.051207 
L 169.571031 -79.471195 
L 170.256831 -78.899705 
L 170.942632 -78.336647 
L 171.628432 -77.781936 
L 172.314232 -77.235483 
L 173.000032 -76.697198 
L 173.685832 -76.166994 
L 174.371632 -75.644781 
L 175.057432 -75.130471 
L 175.743232 -74.623974 
L 176.429032 -74.1252 
L 177.114832 -73.634062 
L 177.800632 -73.150469 
L 178.486432 -72.674333 
L 179.172233 -72.205565 
L 179.858033 -71.744075 
L 180.543833 -71.289777 
L 181.229633 -70.84258 
L 181.915433 -70.402398 
L 182.601233 -69.969143 
L 183.287033 -69.542727 
L 183.972833 -69.123064 
L 184.658633 -68.710068 
L 185.344433 -68.303651 
L 186.030233 -67.903729 
L 186.716033 -67.510217 
L 187.401834 -67.123029 
L 188.087634 -66.742083 
L 188.773434 -66.367293 
L 189.459234 -65.998579 
L 190.145034 -65.635856 
L 190.830834 -65.279044 
L 191.516634 -64.928061 
L 192.202434 -64.582827 
L 192.888234 -64.243262 
L 193.574034 -63.909287 
L 194.259834 -63.580823 
L 194.945634 -63.257792 
L 195.631434 -62.940118 
L 196.317235 -62.627723 
L 197.003035 -62.320533 
L 197.688835 -62.018471 
L 198.374635 -61.721464 
L 199.060435 -61.429438 
L 199.746235 -61.14232 
L 200.432035 -60.860038 
L 201.117835 -60.582521 
L 201.803635 -60.309698 
L 202.489435 -60.041499 
L 203.175235 -59.777854 
L 203.861035 -59.518697 
L 204.546836 -59.263958 
L 205.232636 -59.013572 
L 205.918436 -58.767471 
L 206.604236 -58.525591 
L 207.290036 -58.287867 
L 207.975836 -58.054235 
L 208.661636 -57.824631 
L 209.347436 -57.598995 
L 210.033236 -57.377263 
L 210.719036 -57.159375 
L 211.404836 -56.945272 
L 212.090636 -56.734892 
L 212.776437 -56.528179 
L 213.462237 -56.325075 
L 214.148037 -56.125521 
L 214.833837 -55.929461 
L 215.519637 -55.736841 
L 216.205437 -55.547604 
L 216.891237 -55.361697 
L 217.577037 -55.179066 
L 218.262837 -54.999658 
L 218.948637 -54.823422 
L 219.634437 -54.650305 
L 220.320237 -54.480258 
L 221.006038 -54.313229 
L 221.691838 -54.14917 
L 222.377638 -53.988032 
L 223.063438 -53.829768 
L 223.749238 -53.674329 
L 224.435038 -53.521669 
L 225.120838 -53.371743 
L 225.806638 -53.224504 
L 226.492438 -53.079908 
L 227.178238 -52.937912 
L 227.864038 -52.798471 
L 228.549838 -52.661543 
L 229.235639 -52.527086 
L 229.921439 -52.395059 
L 230.607239 -52.265419 
L 231.293039 -52.138128 
L 231.978839 -52.013145 
L 232.664639 -51.890431 
L 233.350439 -51.769948 
L 234.036239 -51.651657 
L 234.722039 -51.535522 
L 235.407839 -51.421505 
L 236.093639 -51.30957 
L 236.779439 -51.199682 
L 237.46524 -51.091805 
L 238.15104 -50.985905 
L 238.83684 -50.881947 
L 239.52264 -50.779899 
L 240.20844 -50.679726 
L 240.89424 -50.581397 
L 241.58004 -50.484879 
L 242.26584 -50.390141 
L 242.95164 -50.297152 
L 243.63744 -50.205881 
L 244.32324 -50.116299 
L 245.00904 -50.028375 
L 245.694841 -49.942081 
L 246.380641 -49.857388 
L 247.066441 -49.774268 
L 247.752241 -49.692693 
L 248.438041 -49.612636 
L 249.123841 -49.53407 
L 249.809641 -49.456969 
L 250.495441 -49.381306 
L 251.181241 -49.307056 
L 251.867041 -49.234194 
L 252.552841 -49.162696 
L 253.238641 -49.092536 
L 253.924442 -49.023692 
L 254.610242 -48.956139 
L 255.296042 -48.889854 
L 255.981842 -48.824816 
L 256.667642 -48.761 
L 257.353442 -48.698386 
L 258.039242 -48.636951 
L 258.725042 -48.576675 
L 259.410842 -48.517536 
L 260.096642 -48.459515 
L 260.782442 -48.40259 
L 261.468242 -48.346742 
L 262.154043 -48.291951 
L 262.839843 -48.238199 
L 263.525643 -48.185465 
L 264.211443 -48.133733 
L 264.897243 -48.082983 
L 265.583043 -48.033198 
L 266.268843 -47.984359 
L 266.954643 -47.93645 
L 267.640443 -47.889454 
L 268.326243 -47.843354 
L 269.012043 -47.798133 
L 269.697843 -47.753776 
L 270.383644 -47.710266 
L 271.069444 -47.667588 
L 271.755244 -47.625726 
L 272.441044 -47.584666 
L 273.126844 -47.544393 
L 273.812644 -47.504891 
L 274.498444 -47.466148 
L 275.184244 -47.428148 
L 275.870044 -47.390879 
L 276.555844 -47.354325 
L 277.241644 -47.318475 
L 277.927444 -47.283316 
L 278.613244 -47.248833 
L 279.299045 -47.215015 
L 279.984845 -47.181849 
L 280.670645 -47.149324 
L 281.356445 -47.117426 
L 282.042245 -47.086145 
L 282.728045 -47.055469 
L 283.413845 -47.025386 
L 284.099645 -46.995886 
L 284.785445 -46.966957 
L 285.471245 -46.938589 
L 286.157045 -46.910771 
L 286.842845 -46.883493 
L 287.528646 -46.856745 
L 288.214446 -46.830516 
L 288.900246 -46.804797 
L 289.586046 -46.779579 
L 290.271846 -46.754851 
L 290.957646 -46.730605 
L 291.643446 -46.706832 
L 292.329246 -46.683522 
L 293.015046 -46.660666 
L 293.700846 -46.638257 
L 294.386646 -46.616285 
L 295.072446 -46.594743 
L 295.758247 -46.573622 
L 296.444047 -46.552914 
L 297.129847 -46.532611 
L 297.815647 -46.512706 
L 298.501447 -46.493191 
L 299.187247 -46.474058 
L 299.873047 -46.455301 
L 300.558847 -46.436912 
L 301.244647 -46.418883 
L 301.930447 -46.401209 
L 302.616247 -46.383883 
L 303.302047 -46.366896 
L 303.987848 -46.350244 
L 304.673648 -46.33392 
L 305.359448 -46.317917 
L 306.045248 -46.30223 
L 306.731048 -46.286852 
L 307.416848 -46.271777 
L 308.102648 -46.256999 
L 308.788448 -46.242513 
L 309.474248 -46.228314 
L 310.160048 -46.214394 
L 310.845848 -46.20075 
L 311.531648 -46.187376 
L 312.217449 -46.174266 
L 312.903249 -46.161416 
L 313.589049 -46.148821 
L 314.274849 -46.136474 
L 314.960649 -46.124373 
L 315.646449 -46.112512 
L 316.332249 -46.100886 
L 317.018049 -46.08949 
L 317.703849 -46.078321 
L 318.389649 -46.067374 
L 319.075449 -46.056644 
L 319.761249 -46.046128 
L 320.44705 -46.035821 
L 321.13285 -46.025719 
L 321.81865 -46.015818 
L 322.50445 -46.006114 
L 323.19025 -45.996604 
L 323.87605 -45.987283 
L 324.56185 -45.978148 
L 325.24765 -45.969195 
L 325.93345 -45.960421 
L 326.61925 -45.951822 
L 327.30505 -45.943395 
L 327.99085 -45.935136 
L 328.676651 -45.927042 
L 329.362451 -45.919111 
L 330.048251 -45.911337 
L 330.734051 -45.90372 
L 331.419851 -45.896255 
L 331.419851 -45.536364 
L 331.419851 -45.536364 
L 330.734051 -45.536364 
L 330.048251 -45.536364 
L 329.362451 -45.536364 
L 328.676651 -45.536364 
L 327.99085 -45.536364 
L 327.30505 -45.536364 
L 326.61925 -45.536364 
L 325.93345 -45.536364 
L 325.24765 -45.536364 
L 324.56185 -45.536364 
L 323.87605 -45.536364 
L 323.19025 -45.536364 
L 322.50445 -45.536364 
L 321.81865 -45.536364 
L 321.13285 -45.536364 
L 320.44705 -45.536364 
L 319.761249 -45.536364 
L 319.075449 -45.536364 
L 318.389649 -45.536364 
L 317.703849 -45.536364 
L 317.018049 -45.536364 
L 316.332249 -45.536364 
L 315.646449 -45.536364 
L 314.960649 -45.536364 
L 314.274849 -45.536364 
L 313.589049 -45.536364 
L 312.903249 -45.536364 
L 312.217449 -45.536364 
L 311.531648 -45.536364 
L 310.845848 -45.536364 
L 310.160048 -45.536364 
L 309.474248 -45.536364 
L 308.788448 -45.536364 
L 308.102648 -45.536364 
L 307.416848 -45.536364 
L 306.731048 -45.536364 
L 306.045248 -45.536364 
L 305.359448 -45.536364 
L 304.673648 -45.536364 
L 303.987848 -45.536364 
L 303.302047 -45.536364 
L 302.616247 -45.536364 
L 301.930447 -45.536364 
L 301.244647 -45.536364 
L 300.558847 -45.536364 
L 299.873047 -45.536364 
L 299.187247 -45.536364 
L 298.501447 -45.536364 
L 297.815647 -45.536364 
L 297.129847 -45.536364 
L 296.444047 -45.536364 
L 295.758247 -45.536364 
L 295.072446 -45.536364 
L 294.386646 -45.536364 
L 293.700846 -45.536364 
L 293.015046 -45.536364 
L 292.329246 -45.536364 
L 291.643446 -45.536364 
L 290.957646 -45.536364 
L 290.271846 -45.536364 
L 289.586046 -45.536364 
L 288.900246 -45.536364 
L 288.214446 -45.536364 
L 287.528646 -45.536364 
L 286.842845 -45.536364 
L 286.157045 -45.536364 
L 285.471245 -45.536364 
L 284.785445 -45.536364 
L 284.099645 -45.536364 
L 283.413845 -45.536364 
L 282.728045 -45.536364 
L 282.042245 -45.536364 
L 281.356445 -45.536364 
L 280.670645 -45.536364 
L 279.984845 -45.536364 
L 279.299045 -45.536364 
L 278.613244 -45.536364 
L 277.927444 -45.536364 
L 277.241644 -45.536364 
L 276.555844 -45.536364 
L 275.870044 -45.536364 
L 275.184244 -45.536364 
L 274.498444 -45.536364 
L 273.812644 -45.536364 
L 273.126844 -45.536364 
L 272.441044 -45.536364 
L 271.755244 -45.536364 
L 271.069444 -45.536364 
L 270.383644 -45.536364 
L 269.697843 -45.536364 
L 269.012043 -45.536364 
L 268.326243 -45.536364 
L 267.640443 -45.536364 
L 266.954643 -45.536364 
L 266.268843 -45.536364 
L 265.583043 -45.536364 
L 264.897243 -45.536364 
L 264.211443 -45.536364 
L 263.525643 -45.536364 
L 262.839843 -45.536364 
L 262.154043 -45.536364 
L 261.468242 -45.536364 
L 260.782442 -45.536364 
L 260.096642 -45.536364 
L 259.410842 -45.536364 
L 258.725042 -45.536364 
L 258.039242 -45.536364 
L 257.353442 -45.536364 
L 256.667642 -45.536364 
L 255.981842 -45.536364 
L 255.296042 -45.536364 
L 254.610242 -45.536364 
L 253.924442 -45.536364 
L 253.238641 -45.536364 
L 252.552841 -45.536364 
L 251.867041 -45.536364 
L 251.181241 -45.536364 
L 250.495441 -45.536364 
L 249.809641 -45.536364 
L 249.123841 -45.536364 
L 248.438041 -45.536364 
L 247.752241 -45.536364 
L 247.066441 -45.536364 
L 246.380641 -45.536364 
L 245.694841 -45.536364 
L 245.00904 -45.536364 
L 244.32324 -45.536364 
L 243.63744 -45.536364 
L 242.95164 -45.536364 
L 242.26584 -45.536364 
L 241.58004 -45.536364 
L 240.89424 -45.536364 
L 240.20844 -45.536364 
L 239.52264 -45.536364 
L 238.83684 -45.536364 
L 238.15104 -45.536364 
L 237.46524 -45.536364 
L 236.779439 -45.536364 
L 236.093639 -45.536364 
L 235.407839 -45.536364 
L 234.722039 -45.536364 
L 234.036239 -45.536364 
L 233.350439 -45.536364 
L 232.664639 -45.536364 
L 231.978839 -45.536364 
L 231.293039 -45.536364 
L 230.607239 -45.536364 
L 229.921439 -45.536364 
L 229.235639 -45.536364 
L 228.549838 -45.536364 
L 227.864038 -45.536364 
L 227.178238 -45.536364 
L 226.492438 -45.536364 
L 225.806638 -45.536364 
L 225.120838 -45.536364 
L 224.435038 -45.536364 
L 223.749238 -45.536364 
L 223.063438 -45.536364 
L 222.377638 -45.536364 
L 221.691838 -45.536364 
L 221.006038 -45.536364 
L 220.320237 -45.536364 
L 219.634437 -45.536364 
L 218.948637 -45.536364 
L 218.262837 -45.536364 
L 217.577037 -45.536364 
L 216.891237 -45.536364 
L 216.205437 -45.536364 
L 215.519637 -45.536364 
L 214.833837 -45.536364 
L 214.148037 -45.536364 
L 213.462237 -45.536364 
L 212.776437 -45.536364 
L 212.090636 -45.536364 
L 211.404836 -45.536364 
L 210.719036 -45.536364 
L 210.033236 -45.536364 
L 209.347436 -45.536364 
L 208.661636 -45.536364 
L 207.975836 -45.536364 
L 207.290036 -45.536364 
L 206.604236 -45.536364 
L 205.918436 -45.536364 
L 205.232636 -45.536364 
L 204.546836 -45.536364 
L 203.861035 -45.536364 
L 203.175235 -45.536364 
L 202.489435 -45.536364 
L 201.803635 -45.536364 
L 201.117835 -45.536364 
L 200.432035 -45.536364 
L 199.746235 -45.536364 
L 199.060435 -45.536364 
L 198.374635 -45.536364 
L 197.688835 -45.536364 
L 197.003035 -45.536364 
L 196.317235 -45.536364 
L 195.631434 -45.536364 
L 194.945634 -45.536364 
L 194.259834 -45.536364 
L 193.574034 -45.536364 
L 192.888234 -45.536364 
L 192.202434 -45.536364 
L 191.516634 -45.536364 
L 190.830834 -45.536364 
L 190.145034 -45.536364 
L 189.459234 -45.536364 
L 188.773434 -45.536364 
L 188.087634 -45.536364 
L 187.401834 -45.536364 
L 186.716033 -45.536364 
L 186.030233 -45.536364 
L 185.344433 -45.536364 
L 184.658633 -45.536364 
L 183.972833 -45.536364 
L 183.287033 -45.536364 
L 182.601233 -45.536364 
L 181.915433 -45.536364 
L 181.229633 -45.536364 
L 180.543833 -45.536364 
L 179.858033 -45.536364 
L 179.172233 -45.536364 
L 178.486432 -45.536364 
L 177.800632 -45.536364 
L 177.114832 -45.536364 
L 176.429032 -45.536364 
L 175.743232 -45.536364 
L 175.057432 -45.536364 
L 174.371632 -45.536364 
L 173.685832 -45.536364 
L 173.000032 -45.536364 
L 172.314232 -45.536364 
L 171.628432 -45.536364 
L 170.942632 -45.536364 
L 170.256831 -45.536364 
L 169.571031 -45.536364 
L 168.885231 -45.536364 
L 168.199431 -45.536364 
L 167.513631 -45.536364 
L 166.827831 -45.536364 
L 166.142031 -45.536364 
L 165.456231 -45.536364 
L 164.770431 -45.536364 
L 164.084631 -45.536364 
L 163.398831 -45.536364 
L 162.713031 -45.536364 
L 162.02723 -45.536364 
L 161.34143 -45.536364 
L 160.65563 -45.536364 
L 159.96983 -45.536364 
L 159.28403 -45.536364 
L 158.59823 -45.536364 
L 157.91243 -45.536364 
L 157.22663 -45.536364 
L 156.54083 -45.536364 
L 155.85503 -45.536364 
L 155.16923 -45.536364 
L 154.48343 -45.536364 
L 153.797629 -45.536364 
L 153.111829 -45.536364 
L 152.426029 -45.536364 
L 151.740229 -45.536364 
L 151.054429 -45.536364 
L 150.368629 -45.536364 
L 149.682829 -45.536364 
L 148.997029 -45.536364 
L 148.311229 -45.536364 
L 147.625429 -45.536364 
L 146.939629 -45.536364 
L 146.253829 -45.536364 
L 145.568028 -45.536364 
L 144.882228 -45.536364 
L 144.196428 -45.536364 
L 143.510628 -45.536364 
L 142.824828 -45.536364 
L 142.139028 -45.536364 
L 141.453228 -45.536364 
L 140.767428 -45.536364 
L 140.081628 -45.536364 
L 139.395828 -45.536364 
L 138.710028 -45.536364 
L 138.024228 -45.536364 
L 137.338427 -45.536364 
L 136.652627 -45.536364 
L 135.966827 -45.536364 
L 135.281027 -45.536364 
L 134.595227 -45.536364 
L 133.909427 -45.536364 
L 133.223627 -45.536364 
L 132.537827 -45.536364 
L 131.852027 -45.536364 
L 131.166227 -45.536364 
L 130.480427 -45.536364 
L 129.794627 -45.536364 
L 129.108826 -45.536364 
L 128.423026 -45.536364 
L 127.737226 -45.536364 
L 127.051426 -45.536364 
L 126.365626 -45.536364 
L 125.679826 -45.536364 
L 124.994026 -45.536364 
L 124.308226 -45.536364 
L 123.622426 -45.536364 
L 122.936626 -45.536364 
L 122.250826 -45.536364 
L 121.565026 -45.536364 
L 120.879225 -45.536364 
L 120.193425 -45.536364 
L 119.507625 -45.536364 
L 118.821825 -45.536364 
L 118.136025 -45.536364 
L 117.450225 -45.536364 
L 116.764425 -45.536364 
L 116.078625 -45.536364 
L 115.392825 -45.536364 
L 114.707025 -45.536364 
L 114.021225 -45.536364 
L 113.335425 -45.536364 
L 112.649625 -45.536364 
L 111.963824 -45.536364 
L 111.278024 -45.536364 
L 110.592224 -45.536364 
L 109.906424 -45.536364 
L 109.220624 -45.536364 
L 108.534824 -45.536364 
L 107.849024 -45.536364 
L 107.163224 -45.536364 
L 106.477424 -45.536364 
L 105.791624 -45.536364 
L 105.105824 -45.536364 
L 104.420024 -45.536364 
L 103.734223 -45.536364 
L 103.048423 -45.536364 
L 102.362623 -45.536364 
L 101.676823 -45.536364 
L 100.991023 -45.536364 
L 100.305223 -45.536364 
L 99.619423 -45.536364 
L 98.933623 -45.536364 
L 98.247823 -45.536364 
L 97.562023 -45.536364 
L 96.876223 -45.536364 
L 96.190423 -45.536364 
L 95.504622 -45.536364 
L 94.818822 -45.536364 
L 94.133022 -45.536364 
L 93.447222 -45.536364 
L 92.761422 -45.536364 
L 92.075622 -45.536364 
L 91.389822 -45.536364 
L 90.704022 -45.536364 
L 90.018222 -45.536364 
L 89.332422 -45.536364 
L 88.646622 -45.536364 
L 87.960822 -45.536364 
L 87.275021 -45.536364 
L 86.589221 -45.536364 
L 85.903421 -45.536364 
L 85.217621 -45.536364 
L 84.531821 -45.536364 
L 83.846021 -45.536364 
L 83.160221 -45.536364 
L 82.474421 -45.536364 
L 81.788621 -45.536364 
L 81.102821 -45.536364 
L 80.417021 -45.536364 
L 79.731221 -45.536364 
L 79.04542 -45.536364 
L 78.35962 -45.536364 
L 77.67382 -45.536364 
L 76.98802 -45.536364 
L 76.30222 -45.536364 
L 75.61642 -45.536364 
L 74.93062 -45.536364 
L 74.24482 -45.536364 
L 73.55902 -45.536364 
L 72.87322 -45.536364 
L 72.18742 -45.536364 
L 71.50162 -45.536364 
L 70.815819 -45.536364 
L 70.130019 -45.536364 
L 69.444219 -45.536364 
L 68.758419 -45.536364 
L 68.072619 -45.536364 
L 67.386819 -45.536364 
L 66.701019 -45.536364 
L 66.015219 -45.536364 
L 65.329419 -45.536364 
L 64.643619 -45.536364 
L 63.957819 -45.536364 
L 63.272019 -45.536364 
L 62.586218 -45.536364 
L 61.900418 -45.536364 
L 61.214618 -45.536364 
L 60.528818 -45.536364 
L 59.843018 -45.536364 
L 59.157218 -45.536364 
L 58.471418 -45.536364 
L 57.785618 -45.536364 
z
" style="stroke: #4c78a8; stroke-opacity: 0.15"/>
    </defs>
    <g clip-path="url(#p9120ef5f9b)">
     <use xlink:href="#me2a9ac5a39" x="0" y="223.158281" style="fill: #4c78a8; fill-opacity: 0.15; stroke: #4c78a8; stroke-opacity: 0.15"/>
    </g>
   </g>
   <g id="matplotlib.axis_1">
    <g id="xtick_1">
     <g id="line2d_1">
      <path d="M 56.43347 184.958281 
L 56.43347 23.558281 
" clip-path="url(#p9120ef5f9b)" style="fill: none; stroke: #b0b0b0; stroke-opacity: 0.25; stroke-width: 0.6; stroke-linecap: square"/>
     </g>
     <g id="line2d_2">
      <defs>
       <path id="mf4d962c8d3" d="M 0 0 
L 0 3.5 
" style="stroke: #000000; stroke-width: 0.8"/>
      </defs>
      <g>
       <use xlink:href="#mf4d962c8d3" x="56.43347" y="184.958281" style="stroke: #000000; stroke-width: 0.8"/>
      </g>
     </g>
     <g id="text_1">
      <!-- 0 -->
      <g transform="translate(53.25222 199.555938) scale(0.1 -0.1)">
       <defs>
        <path id="DejaVuSans-13" d="M 2034 4250 
Q 1547 4250 1301 3770 
Q 1056 3291 1056 2328 
Q 1056 1369 1301 889 
Q 1547 409 2034 409 
Q 2525 409 2770 889 
Q 3016 1369 3016 2328 
Q 3016 3291 2770 3770 
Q 2525 4250 2034 4250 
z
M 2034 4750 
Q 2819 4750 3233 4129 
Q 3647 3509 3647 2328 
Q 3647 1150 3233 529 
Q 2819 -91 2034 -91 
Q 1250 -91 836 529 
Q 422 1150 422 2328 
Q 422 3509 836 4129 
Q 1250 4750 2034 4750 
z
" transform="scale(0.015625)"/>
       </defs>
       <use xlink:href="#DejaVuSans-13"/>
      </g>
     </g>
    </g>
    <g id="xtick_2">
     <g id="line2d_3">
      <path d="M 115.99679 184.958281 
L 115.99679 23.558281 
" clip-path="url(#p9120ef5f9b)" style="fill: none; stroke: #b0b0b0; stroke-opacity: 0.25; stroke-width: 0.6; stroke-linecap: square"/>
     </g>
     <g id="line2d_4">
      <g>
       <use xlink:href="#mf4d962c8d3" x="115.99679" y="184.958281" style="stroke: #000000; stroke-width: 0.8"/>
      </g>
     </g>
     <g id="text_2">
      <!-- 2 -->
      <g transform="translate(112.81554 199.555938) scale(0.1 -0.1)">
       <defs>
        <path id="DejaVuSans-15" d="M 1228 531 
L 3431 531 
L 3431 0 
L 469 0 
L 469 531 
Q 828 903 1448 1529 
Q 2069 2156 2228 2338 
Q 2531 2678 2651 2914 
Q 2772 3150 2772 3378 
Q 2772 3750 2511 3984 
Q 2250 4219 1831 4219 
Q 1534 4219 1204 4116 
Q 875 4013 500 3803 
L 500 4441 
Q 881 4594 1212 4672 
Q 1544 4750 1819 4750 
Q 2544 4750 2975 4387 
Q 3406 4025 3406 3419 
Q 3406 3131 3298 2873 
Q 3191 2616 2906 2266 
Q 2828 2175 2409 1742 
Q 1991 1309 1228 531 
z
" transform="scale(0.015625)"/>
       </defs>
       <use xlink:href="#DejaVuSans-15"/>
      </g>
     </g>
    </g>
    <g id="xtick_3">
     <g id="line2d_5">
      <path d="M 175.56011 184.958281 
L 175.56011 23.558281 
" clip-path="url(#p9120ef5f9b)" style="fill: none; stroke: #b0b0b0; stroke-opacity: 0.25; stroke-width: 0.6; stroke-linecap: square"/>
     </g>
     <g id="line2d_6">
      <g>
       <use xlink:href="#mf4d962c8d3" x="175.56011" y="184.958281" style="stroke: #000000; stroke-width: 0.8"/>
      </g>
     </g>
     <g id="text_3">
      <!-- 4 -->
      <g transform="translate(172.37886 199.555938) scale(0.1 -0.1)">
       <defs>
        <path id="DejaVuSans-17" d="M 2419 4116 
L 825 1625 
L 2419 1625 
L 2419 4116 
z
M 2253 4666 
L 3047 4666 
L 3047 1625 
L 3713 1625 
L 3713 1100 
L 3047 1100 
L 3047 0 
L 2419 0 
L 2419 1100 
L 313 1100 
L 313 1709 
L 2253 4666 
z
" transform="scale(0.015625)"/>
       </defs>
       <use xlink:href="#DejaVuSans-17"/>
      </g>
     </g>
    </g>
    <g id="xtick_4">
     <g id="line2d_7">
      <path d="M 235.12343 184.958281 
L 235.12343 23.558281 
" clip-path="url(#p9120ef5f9b)" style="fill: none; stroke: #b0b0b0; stroke-opacity: 0.25; stroke-width: 0.6; stroke-linecap: square"/>
     </g>
     <g id="line2d_8">
      <g>
       <use xlink:href="#mf4d962c8d3" x="235.12343" y="184.958281" style="stroke: #000000; stroke-width: 0.8"/>
      </g>
     </g>
     <g id="text_4">
      <!-- 6 -->
      <g transform="translate(231.94218 199.555938) scale(0.1 -0.1)">
       <defs>
        <path id="DejaVuSans-19" d="M 2113 2584 
Q 1688 2584 1439 2293 
Q 1191 2003 1191 1497 
Q 1191 994 1439 701 
Q 1688 409 2113 409 
Q 2538 409 2786 701 
Q 3034 994 3034 1497 
Q 3034 2003 2786 2293 
Q 2538 2584 2113 2584 
z
M 3366 4563 
L 3366 3988 
Q 3128 4100 2886 4159 
Q 2644 4219 2406 4219 
Q 1781 4219 1451 3797 
Q 1122 3375 1075 2522 
Q 1259 2794 1537 2939 
Q 1816 3084 2150 3084 
Q 2853 3084 3261 2657 
Q 3669 2231 3669 1497 
Q 3669 778 3244 343 
Q 2819 -91 2113 -91 
Q 1303 -91 875 529 
Q 447 1150 447 2328 
Q 447 3434 972 4092 
Q 1497 4750 2381 4750 
Q 2619 4750 2861 4703 
Q 3103 4656 3366 4563 
z
" transform="scale(0.015625)"/>
       </defs>
       <use xlink:href="#DejaVuSans-19"/>
      </g>
     </g>
    </g>
    <g id="xtick_5">
     <g id="line2d_9">
      <path d="M 294.68675 184.958281 
L 294.68675 23.558281 
" clip-path="url(#p9120ef5f9b)" style="fill: none; stroke: #b0b0b0; stroke-opacity: 0.25; stroke-width: 0.6; stroke-linecap: square"/>
     </g>
     <g id="line2d_10">
      <g>
       <use xlink:href="#mf4d962c8d3" x="294.68675" y="184.958281" style="stroke: #000000; stroke-width: 0.8"/>
      </g>
     </g>
     <g id="text_5">
      <!-- 8 -->
      <g transform="translate(291.5055 199.555938) scale(0.1 -0.1)">
       <defs>
        <path id="DejaVuSans-1b" d="M 2034 2216 
Q 1584 2216 1326 1975 
Q 1069 1734 1069 1313 
Q 1069 891 1326 650 
Q 1584 409 2034 409 
Q 2484 409 2743 651 
Q 3003 894 3003 1313 
Q 3003 1734 2745 1975 
Q 2488 2216 2034 2216 
z
M 1403 2484 
Q 997 2584 770 2862 
Q 544 3141 544 3541 
Q 544 4100 942 4425 
Q 1341 4750 2034 4750 
Q 2731 4750 3128 4425 
Q 3525 4100 3525 3541 
Q 3525 3141 3298 2862 
Q 3072 2584 2669 2484 
Q 3125 2378 3379 2068 
Q 3634 1759 3634 1313 
Q 3634 634 3220 271 
Q 2806 -91 2034 -91 
Q 1263 -91 848 271 
Q 434 634 434 1313 
Q 434 1759 690 2068 
Q 947 2378 1403 2484 
z
M 1172 3481 
Q 1172 3119 1398 2916 
Q 1625 2713 2034 2713 
Q 2441 2713 2670 2916 
Q 2900 3119 2900 3481 
Q 2900 3844 2670 4047 
Q 2441 4250 2034 4250 
Q 1625 4250 1398 4047 
Q 1172 3844 1172 3481 
z
" transform="scale(0.015625)"/>
       </defs>
       <use xlink:href="#DejaVuSans-1b"/>
      </g>
     </g>
    </g>
    <g id="text_6">
     <!-- x -->
     <g transform="translate(191.643359 213.555938) scale(0.1 -0.1)">
      <defs>
       <path id="DejaVuSans-5b" d="M 3513 3500 
L 2247 1797 
L 3578 0 
L 2900 0 
L 1881 1375 
L 863 0 
L 184 0 
L 1544 1831 
L 300 3500 
L 978 3500 
L 1906 2253 
L 2834 3500 
L 3513 3500 
z
" transform="scale(0.015625)"/>
      </defs>
      <use xlink:href="#DejaVuSans-5b"/>
     </g>
    </g>
   </g>
   <g id="matplotlib.axis_2">
    <g id="ytick_1">
     <g id="line2d_11">
      <path d="M 44.103906 177.621918 
L 345.101562 177.621918 
" clip-path="url(#p9120ef5f9b)" style="fill: none; stroke: #b0b0b0; stroke-opacity: 0.25; stroke-width: 0.6; stroke-linecap: square"/>
     </g>
     <g id="line2d_12">
      <defs>
       <path id="m27885d47a1" d="M 0 0 
L -3.5 0 
" style="stroke: #000000; stroke-width: 0.8"/>
      </defs>
      <g>
       <use xlink:href="#m27885d47a1" x="44.103906" y="177.621918" style="stroke: #000000; stroke-width: 0.8"/>
      </g>
     </g>
     <g id="text_7">
      <!-- 0.0 -->
      <g transform="translate(21.200781 181.420746) scale(0.1 -0.1)">
       <defs>
        <path id="DejaVuSans-11" d="M 684 794 
L 1344 794 
L 1344 0 
L 684 0 
L 684 794 
z
" transform="scale(0.015625)"/>
       </defs>
       <use xlink:href="#DejaVuSans-13"/>
       <use xlink:href="#DejaVuSans-11" transform="translate(63.625 0)"/>
       <use xlink:href="#DejaVuSans-13" transform="translate(95.40625 0)"/>
      </g>
     </g>
    </g>
    <g id="ytick_2">
     <g id="line2d_13">
      <path d="M 44.103906 137.73511 
L 345.101562 137.73511 
" clip-path="url(#p9120ef5f9b)" style="fill: none; stroke: #b0b0b0; stroke-opacity: 0.25; stroke-width: 0.6; stroke-linecap: square"/>
     </g>
     <g id="line2d_14">
      <g>
       <use xlink:href="#m27885d47a1" x="44.103906" y="137.73511" style="stroke: #000000; stroke-width: 0.8"/>
      </g>
     </g>
     <g id="text_8">
      <!-- 0.1 -->
      <g transform="translate(21.200781 141.533938) scale(0.1 -0.1)">
       <defs>
        <path id="DejaVuSans-14" d="M 794 531 
L 1825 531 
L 1825 4091 
L 703 3866 
L 703 4441 
L 1819 4666 
L 2450 4666 
L 2450 531 
L 3481 531 
L 3481 0 
L 794 0 
L 794 531 
z
" transform="scale(0.015625)"/>
       </defs>
       <use xlink:href="#DejaVuSans-13"/>
       <use xlink:href="#DejaVuSans-11" transform="translate(63.625 0)"/>
       <use xlink:href="#DejaVuSans-14" transform="translate(95.40625 0)"/>
      </g>
     </g>
    </g>
    <g id="ytick_3">
     <g id="line2d_15">
      <path d="M 44.103906 97.848302 
L 345.101562 97.848302 
" clip-path="url(#p9120ef5f9b)" style="fill: none; stroke: #b0b0b0; stroke-opacity: 0.25; stroke-width: 0.6; stroke-linecap: square"/>
     </g>
     <g id="line2d_16">
      <g>
       <use xlink:href="#m27885d47a1" x="44.103906" y="97.848302" style="stroke: #000000; stroke-width: 0.8"/>
      </g>
     </g>
     <g id="text_9">
      <!-- 0.2 -->
      <g transform="translate(21.200781 101.64713) scale(0.1 -0.1)">
       <use xlink:href="#DejaVuSans-13"/>
       <use xlink:href="#DejaVuSans-11" transform="translate(63.625 0)"/>
       <use xlink:href="#DejaVuSans-15" transform="translate(95.40625 0)"/>
      </g>
     </g>
    </g>
    <g id="ytick_4">
     <g id="line2d_17">
      <path d="M 44.103906 57.961494 
L 345.101562 57.961494 
" clip-path="url(#p9120ef5f9b)" style="fill: none; stroke: #b0b0b0; stroke-opacity: 0.25; stroke-width: 0.6; stroke-linecap: square"/>
     </g>
     <g id="line2d_18">
      <g>
       <use xlink:href="#m27885d47a1" x="44.103906" y="57.961494" style="stroke: #000000; stroke-width: 0.8"/>
      </g>
     </g>
     <g id="text_10">
      <!-- 0.3 -->
      <g transform="translate(21.200781 61.760322) scale(0.1 -0.1)">
       <defs>
        <path id="DejaVuSans-16" d="M 2597 2516 
Q 3050 2419 3304 2112 
Q 3559 1806 3559 1356 
Q 3559 666 3084 287 
Q 2609 -91 1734 -91 
Q 1441 -91 1130 -33 
Q 819 25 488 141 
L 488 750 
Q 750 597 1062 519 
Q 1375 441 1716 441 
Q 2309 441 2620 675 
Q 2931 909 2931 1356 
Q 2931 1769 2642 2001 
Q 2353 2234 1838 2234 
L 1294 2234 
L 1294 2753 
L 1863 2753 
Q 2328 2753 2575 2939 
Q 2822 3125 2822 3475 
Q 2822 3834 2567 4026 
Q 2313 4219 1838 4219 
Q 1578 4219 1281 4162 
Q 984 4106 628 3988 
L 628 4550 
Q 988 4650 1302 4700 
Q 1616 4750 1894 4750 
Q 2613 4750 3031 4423 
Q 3450 4097 3450 3541 
Q 3450 3153 3228 2886 
Q 3006 2619 2597 2516 
z
" transform="scale(0.015625)"/>
       </defs>
       <use xlink:href="#DejaVuSans-13"/>
       <use xlink:href="#DejaVuSans-11" transform="translate(63.625 0)"/>
       <use xlink:href="#DejaVuSans-16" transform="translate(95.40625 0)"/>
      </g>
     </g>
    </g>
    <g id="text_11">
     <!-- f(x) -->
     <g transform="translate(14.798438 112.879375) rotate(-90) scale(0.1 -0.1)">
      <defs>
       <path id="DejaVuSans-49" d="M 2375 4863 
L 2375 4384 
L 1825 4384 
Q 1516 4384 1395 4259 
Q 1275 4134 1275 3809 
L 1275 3500 
L 2222 3500 
L 2222 3053 
L 1275 3053 
L 1275 0 
L 697 0 
L 697 3053 
L 147 3053 
L 147 3500 
L 697 3500 
L 697 3744 
Q 697 4328 969 4595 
Q 1241 4863 1831 4863 
L 2375 4863 
z
" transform="scale(0.015625)"/>
       <path id="DejaVuSans-b" d="M 1984 4856 
Q 1566 4138 1362 3434 
Q 1159 2731 1159 2009 
Q 1159 1288 1364 580 
Q 1569 -128 1984 -844 
L 1484 -844 
Q 1016 -109 783 600 
Q 550 1309 550 2009 
Q 550 2706 781 3412 
Q 1013 4119 1484 4856 
L 1984 4856 
z
" transform="scale(0.015625)"/>
       <path id="DejaVuSans-c" d="M 513 4856 
L 1013 4856 
Q 1481 4119 1714 3412 
Q 1947 2706 1947 2009 
Q 1947 1309 1714 600 
Q 1481 -109 1013 -844 
L 513 -844 
Q 928 -128 1133 580 
Q 1338 1288 1338 2009 
Q 1338 2731 1133 3434 
Q 928 4138 513 4856 
z
" transform="scale(0.015625)"/>
      </defs>
      <use xlink:href="#DejaVuSans-49"/>
      <use xlink:href="#DejaVuSans-b" transform="translate(35.203125 0)"/>
      <use xlink:href="#DejaVuSans-5b" transform="translate(74.21875 0)"/>
      <use xlink:href="#DejaVuSans-c" transform="translate(133.40625 0)"/>
     </g>
    </g>
   </g>
   <g id="line2d_19">
    <path d="M 57.785618 160.31632 
L 59.843018 136.897299 
L 61.900418 116.681851 
L 63.957819 99.346644 
L 66.015219 84.597235 
L 67.386819 76.067499 
L 68.758419 68.494087 
L 70.130019 61.808191 
L 71.50162 55.945259 
L 72.87322 50.844752 
L 74.24482 46.449914 
L 75.61642 42.707551 
L 76.98802 39.567832 
L 78.35962 36.984087 
L 79.731221 34.912628 
L 81.102821 33.312573 
L 82.474421 32.145681 
L 83.846021 31.376201 
L 85.217621 30.97072 
L 86.589221 30.898031 
L 87.960822 31.128996 
L 89.332422 31.636427 
L 90.704022 32.394968 
L 92.075622 33.380986 
L 94.133022 35.238793 
L 96.190423 37.491267 
L 98.247823 40.077441 
L 100.991023 43.951263 
L 103.734223 48.208363 
L 107.163224 53.921642 
L 111.963824 62.37401 
L 127.051426 89.313712 
L 131.852027 97.35089 
L 136.652627 104.952213 
L 140.767428 111.083384 
L 144.882228 116.842304 
L 148.997029 122.222948 
L 153.111829 127.227044 
L 157.22663 131.862172 
L 161.34143 136.140229 
L 165.456231 140.076183 
L 169.571031 143.687086 
L 173.685832 146.991287 
L 177.800632 150.007812 
L 181.915433 152.755883 
L 186.030233 155.254552 
L 190.145034 157.522425 
L 194.945634 159.900489 
L 199.746235 162.015961 
L 204.546836 163.894323 
L 210.033236 165.781018 
L 215.519637 167.421441 
L 221.006038 168.845052 
L 227.178238 170.220369 
L 234.036239 171.506624 
L 241.58004 172.673402 
L 249.809641 173.701313 
L 258.725042 174.581606 
L 269.012043 175.360148 
L 280.670645 176.008958 
L 294.386646 176.541996 
L 311.531648 176.970905 
L 331.419851 177.262027 
L 331.419851 177.262027 
" clip-path="url(#p9120ef5f9b)" style="fill: none; stroke: #4c78a8; stroke-width: 2; stroke-linecap: square"/>
   </g>
   <g id="patch_3">
    <path d="M 44.103906 184.958281 
L 44.103906 23.558281 
" style="fill: none; stroke: #000000; stroke-width: 0.8; stroke-linejoin: miter; stroke-linecap: square"/>
   </g>
   <g id="patch_4">
    <path d="M 44.103906 184.958281 
L 345.101562 184.958281 
" style="fill: none; stroke: #000000; stroke-width: 0.8; stroke-linejoin: miter; stroke-linecap: square"/>
   </g>
   <g id="text_12">
    <!-- Erlang -->
    <g transform="translate(176.990703 15.558281) scale(0.11 -0.11)">
     <defs>
      <path id="DejaVuSans-28" d="M 628 4666 
L 3578 4666 
L 3578 4134 
L 1259 4134 
L 1259 2753 
L 3481 2753 
L 3481 2222 
L 1259 2222 
L 1259 531 
L 3634 531 
L 3634 0 
L 628 0 
L 628 4666 
z
" transform="scale(0.015625)"/>
      <path id="DejaVuSans-55" d="M 2631 2963 
Q 2534 3019 2420 3045 
Q 2306 3072 2169 3072 
Q 1681 3072 1420 2755 
Q 1159 2438 1159 1844 
L 1159 0 
L 581 0 
L 581 3500 
L 1159 3500 
L 1159 2956 
Q 1341 3275 1631 3429 
Q 1922 3584 2338 3584 
Q 2397 3584 2469 3576 
Q 2541 3569 2628 3553 
L 2631 2963 
z
" transform="scale(0.015625)"/>
      <path id="DejaVuSans-4f" d="M 603 4863 
L 1178 4863 
L 1178 0 
L 603 0 
L 603 4863 
z
" transform="scale(0.015625)"/>
      <path id="DejaVuSans-44" d="M 2194 1759 
Q 1497 1759 1228 1600 
Q 959 1441 959 1056 
Q 959 750 1161 570 
Q 1363 391 1709 391 
Q 2188 391 2477 730 
Q 2766 1069 2766 1631 
L 2766 1759 
L 2194 1759 
z
M 3341 1997 
L 3341 0 
L 2766 0 
L 2766 531 
Q 2569 213 2275 61 
Q 1981 -91 1556 -91 
Q 1019 -91 701 211 
Q 384 513 384 1019 
Q 384 1609 779 1909 
Q 1175 2209 1959 2209 
L 2766 2209 
L 2766 2266 
Q 2766 2663 2505 2880 
Q 2244 3097 1772 3097 
Q 1472 3097 1187 3025 
Q 903 2953 641 2809 
L 641 3341 
Q 956 3463 1253 3523 
Q 1550 3584 1831 3584 
Q 2591 3584 2966 3190 
Q 3341 2797 3341 1997 
z
" transform="scale(0.015625)"/>
      <path id="DejaVuSans-51" d="M 3513 2113 
L 3513 0 
L 2938 0 
L 2938 2094 
Q 2938 2591 2744 2837 
Q 2550 3084 2163 3084 
Q 1697 3084 1428 2787 
Q 1159 2491 1159 1978 
L 1159 0 
L 581 0 
L 581 3500 
L 1159 3500 
L 1159 2956 
Q 1366 3272 1645 3428 
Q 1925 3584 2291 3584 
Q 2894 3584 3203 3211 
Q 3513 2838 3513 2113 
z
" transform="scale(0.015625)"/>
      <path id="DejaVuSans-4a" d="M 2906 1791 
Q 2906 2416 2648 2759 
Q 2391 3103 1925 3103 
Q 1463 3103 1205 2759 
Q 947 2416 947 1791 
Q 947 1169 1205 825 
Q 1463 481 1925 481 
Q 2391 481 2648 825 
Q 2906 1169 2906 1791 
z
M 3481 434 
Q 3481 -459 3084 -895 
Q 2688 -1331 1869 -1331 
Q 1566 -1331 1297 -1286 
Q 1028 -1241 775 -1147 
L 775 -588 
Q 1028 -725 1275 -790 
Q 1522 -856 1778 -856 
Q 2344 -856 2625 -561 
Q 2906 -266 2906 331 
L 2906 616 
Q 2728 306 2450 153 
Q 2172 0 1784 0 
Q 1141 0 747 490 
Q 353 981 353 1791 
Q 353 2603 747 3093 
Q 1141 3584 1784 3584 
Q 2172 3584 2450 3431 
Q 2728 3278 2906 2969 
L 2906 3500 
L 3481 3500 
L 3481 434 
z
" transform="scale(0.015625)"/>
     </defs>
     <use xlink:href="#DejaVuSans-28"/>
     <use xlink:href="#DejaVuSans-55" transform="translate(63.1875 0)"/>
     <use xlink:href="#DejaVuSans-4f" transform="translate(104.296875 0)"/>
     <use xlink:href="#DejaVuSans-44" transform="translate(132.078125 0)"/>
     <use xlink:href="#DejaVuSans-51" transform="translate(193.359375 0)"/>
     <use xlink:href="#DejaVuSans-4a" transform="translate(256.734375 0)"/>
    </g>
   </g>
  </g>
 </g>
 <defs>
  <clipPath id="p9120ef5f9b">
   <rect x="44.103906" y="23.558281" width="300.997656" height="161.4"/>
  </clipPath>
 </defs>
</svg>
