<?xml version="1.0" encoding="utf-8" standalone="no"?>
<!DOCTYPE svg PUBLIC "-//W3C//DTD SVG 1.1//EN"
  "http://www.w3.org/Graphics/SVG/1.1/DTD/svg11.dtd">
<svg xmlns:xlink="http://www.w3.org/1999/xlink" width="352.301562pt" height="223.158281pt" viewBox="0 0 352.301562 223.158281" xmlns="http://www.w3.org/2000/svg" version="1.1">
 <metadata>
  <rdf:RDF xmlns:dc="http://purl.org/dc/elements/1.1/" xmlns:cc="http://creativecommons.org/ns#" xmlns:rdf="http://www.w3.org/1999/02/22-rdf-syntax-ns#">
   <cc:Work>
    <dc:type rdf:resource="http://purl.org/dc/dcmitype/StillImage"/>
    <dc:date>2026-07-05T02:24:31.342887</dc:date>
    <dc:format>image/svg+xml</dc:format>
    <dc:creator>
     <cc:Agent>
      <dc:title>Matplotlib v3.11.0, https://matplotlib.org/</dc:title>
     </cc:Agent>
    </dc:creator>
   </cc:Work>
  </rdf:RDF>
 </metadata>
 <defs>
  <style type="text/css">*{stroke-linejoin: round; stroke-linecap: butt}</style>
 </defs>
 <g id="figure_1">
  <g id="patch_1">
   <path d="M 0 223.158281 
L 352.301562 223.158281 
L 352.301562 0 
L 0 0 
z
" style="fill: #ffffff"/>
  </g>
  <g id="axes_1">
   <g id="patch_2">
    <path d="M 44.103906 184.958281 
L 345.101562 184.958281 
L 345.101562 23.558281 
L 44.103906 23.558281 
z
" style="fill: #ffffff"/>
   </g>
   <g id="FillBetweenPolyCollection_1">
    <defs>
     <path id="mf1332ab57a" d="M 57.785618 -45.536364 
L 57.785618 -192.263636 
L 58.471418 -189.74562 
L 59.157218 -187.270816 
L 59.843018 -184.838482 
L 60.528818 -182.44789 
L 61.214618 -180.098324 
L 61.900418 -177.789079 
L 62.586218 -175.519463 
L 63.272019 -173.288797 
L 63.957819 -171.096412 
L 64.643619 -168.94165 
L 65.329419 -166.823867 
L 66.015219 -164.742428 
L 66.701019 -162.696708 
L 67.386819 -160.686096 
L 68.072619 -158.709988 
L 68.758419 -156.767793 
L 69.444219 -154.858928 
L 70.130019 -152.982821 
L 70.815819 -151.138911 
L 71.50162 -149.326644 
L 72.18742 -147.545478 
L 72.87322 -145.794879 
L 73.55902 -144.074322 
L 74.24482 -142.383293 
L 74.93062 -140.721283 
L 75.61642 -139.087795 
L 76.30222 -137.48234 
L 76.98802 -135.904437 
L 77.67382 -134.353612 
L 78.35962 -132.829401 
L 79.04542 -131.331348 
L 79.731221 -129.859003 
L 80.417021 -128.411925 
L 81.102821 -126.98968 
L 81.788621 -125.591844 
L 82.474421 -124.217995 
L 83.160221 -122.867724 
L 83.846021 -121.540625 
L 84.531821 -120.2363 
L 85.217621 -118.95436 
L 85.903421 -117.694419 
L 86.589221 -116.4561 
L 87.275021 -115.239032 
L 87.960822 -114.04285 
L 88.646622 -112.867196 
L 89.332422 -111.711718 
L 90.018222 -110.57607 
L 90.704022 -109.45991 
L 91.389822 -108.362905 
L 92.075622 -107.284726 
L 92.761422 -106.22505 
L 93.447222 -105.183559 
L 94.133022 -104.159942 
L 94.818822 -103.153891 
L 95.504622 -102.165105 
L 96.190423 -101.193287 
L 96.876223 -100.238148 
L 97.562023 -99.299399 
L 98.247823 -98.376761 
L 98.933623 -97.469956 
L 99.619423 -96.578713 
L 100.305223 -95.702765 
L 100.991023 -94.841849 
L 101.676823 -93.995708 
L 102.362623 -93.164087 
L 103.048423 -92.346738 
L 103.734223 -91.543416 
L 104.420024 -90.75388 
L 105.105824 -89.977893 
L 105.791624 -89.215223 
L 106.477424 -88.465641 
L 107.163224 -87.728923 
L 107.849024 -87.004848 
L 108.534824 -86.293199 
L 109.220624 -85.593763 
L 109.906424 -84.906329 
L 110.592224 -84.230694 
L 111.278024 -83.566652 
L 111.963824 -82.914007 
L 112.649625 -82.272562 
L 113.335425 -81.642124 
L 114.021225 -81.022506 
L 114.707025 -80.413521 
L 115.392825 -79.814987 
L 116.078625 -79.226725 
L 116.764425 -78.648558 
L 117.450225 -78.080313 
L 118.136025 -77.521819 
L 118.821825 -76.97291 
L 119.507625 -76.433421 
L 120.193425 -75.903191 
L 120.879225 -75.38206 
L 121.565026 -74.869872 
L 122.250826 -74.366473 
L 122.936626 -73.871714 
L 123.622426 -73.385445 
L 124.308226 -72.907522 
L 124.994026 -72.4378 
L 125.679826 -71.976139 
L 126.365626 -71.5224 
L 127.051426 -71.076449 
L 127.737226 -70.63815 
L 128.423026 -70.207373 
L 129.108826 -69.783989 
L 129.794627 -69.367871 
L 130.480427 -68.958893 
L 131.166227 -68.556935 
L 131.852027 -68.161874 
L 132.537827 -67.773593 
L 133.223627 -67.391975 
L 133.909427 -67.016907 
L 134.595227 -66.648275 
L 135.281027 -66.285969 
L 135.966827 -65.929881 
L 136.652627 -65.579904 
L 137.338427 -65.235932 
L 138.024228 -64.897864 
L 138.710028 -64.565597 
L 139.395828 -64.239033 
L 140.081628 -63.918073 
L 140.767428 -63.60262 
L 141.453228 -63.292582 
L 142.139028 -62.987864 
L 142.824828 -62.688375 
L 143.510628 -62.394026 
L 144.196428 -62.104728 
L 144.882228 -61.820395 
L 145.568028 -61.540941 
L 146.253829 -61.266284 
L 146.939629 -60.996339 
L 147.625429 -60.731028 
L 148.311229 -60.470269 
L 148.997029 -60.213985 
L 149.682829 -59.962099 
L 150.368629 -59.714536 
L 151.054429 -59.471222 
L 151.740229 -59.232083 
L 152.426029 -58.997048 
L 153.111829 -58.766047 
L 153.797629 -58.539009 
L 154.48343 -58.315868 
L 155.16923 -58.096557 
L 155.85503 -57.881009 
L 156.54083 -57.66916 
L 157.22663 -57.460946 
L 157.91243 -57.256306 
L 158.59823 -57.055178 
L 159.28403 -56.857501 
L 159.96983 -56.663217 
L 160.65563 -56.472267 
L 161.34143 -56.284593 
L 162.02723 -56.100141 
L 162.713031 -55.918854 
L 163.398831 -55.740678 
L 164.084631 -55.565559 
L 164.770431 -55.393446 
L 165.456231 -55.224287 
L 166.142031 -55.058031 
L 166.827831 -54.894627 
L 167.513631 -54.734028 
L 168.199431 -54.576185 
L 168.885231 -54.421051 
L 169.571031 -54.268579 
L 170.256831 -54.118724 
L 170.942632 -53.97144 
L 171.628432 -53.826684 
L 172.314232 -53.684412 
L 173.000032 -53.544582 
L 173.685832 -53.407151 
L 174.371632 -53.272079 
L 175.057432 -53.139325 
L 175.743232 -53.008849 
L 176.429032 -52.880612 
L 177.114832 -52.754576 
L 177.800632 -52.630703 
L 178.486432 -52.508955 
L 179.172233 -52.389297 
L 179.858033 -52.271693 
L 180.543833 -52.156106 
L 181.229633 -52.042504 
L 181.915433 -51.93085 
L 182.601233 -51.821113 
L 183.287033 -51.71326 
L 183.972833 -51.607257 
L 184.658633 -51.503073 
L 185.344433 -51.400677 
L 186.030233 -51.300038 
L 186.716033 -51.201127 
L 187.401834 -51.103912 
L 188.087634 -51.008367 
L 188.773434 -50.91446 
L 189.459234 -50.822166 
L 190.145034 -50.731455 
L 190.830834 -50.642301 
L 191.516634 -50.554677 
L 192.202434 -50.468557 
L 192.888234 -50.383914 
L 193.574034 -50.300725 
L 194.259834 -50.218962 
L 194.945634 -50.138603 
L 195.631434 -50.059624 
L 196.317235 -49.981999 
L 197.003035 -49.905706 
L 197.688835 -49.830723 
L 198.374635 -49.757027 
L 199.060435 -49.684595 
L 199.746235 -49.613407 
L 200.432035 -49.54344 
L 201.117835 -49.474673 
L 201.803635 -49.407087 
L 202.489435 -49.340661 
L 203.175235 -49.275375 
L 203.861035 -49.211209 
L 204.546836 -49.148144 
L 205.232636 -49.086162 
L 205.918436 -49.025243 
L 206.604236 -48.965369 
L 207.290036 -48.906524 
L 207.975836 -48.848688 
L 208.661636 -48.791844 
L 209.347436 -48.735976 
L 210.033236 -48.681067 
L 210.719036 -48.6271 
L 211.404836 -48.574059 
L 212.090636 -48.521929 
L 212.776437 -48.470693 
L 213.462237 -48.420336 
L 214.148037 -48.370844 
L 214.833837 -48.322201 
L 215.519637 -48.274392 
L 216.205437 -48.227405 
L 216.891237 -48.181223 
L 217.577037 -48.135834 
L 218.262837 -48.091224 
L 218.948637 -48.04738 
L 219.634437 -48.004288 
L 220.320237 -47.961935 
L 221.006038 -47.920309 
L 221.691838 -47.879398 
L 222.377638 -47.839189 
L 223.063438 -47.799669 
L 223.749238 -47.760828 
L 224.435038 -47.722654 
L 225.120838 -47.685134 
L 225.806638 -47.648259 
L 226.492438 -47.612016 
L 227.178238 -47.576396 
L 227.864038 -47.541386 
L 228.549838 -47.506978 
L 229.235639 -47.473159 
L 229.921439 -47.439922 
L 230.607239 -47.407254 
L 231.293039 -47.375148 
L 231.978839 -47.343592 
L 232.664639 -47.312578 
L 233.350439 -47.282096 
L 234.036239 -47.252137 
L 234.722039 -47.222692 
L 235.407839 -47.193753 
L 236.093639 -47.16531 
L 236.779439 -47.137355 
L 237.46524 -47.10988 
L 238.15104 -47.082877 
L 238.83684 -47.056337 
L 239.52264 -47.030252 
L 240.20844 -47.004615 
L 240.89424 -46.979418 
L 241.58004 -46.954654 
L 242.26584 -46.930314 
L 242.95164 -46.906392 
L 243.63744 -46.882881 
L 244.32324 -46.859773 
L 245.00904 -46.837062 
L 245.694841 -46.81474 
L 246.380641 -46.792802 
L 247.066441 -46.77124 
L 247.752241 -46.750048 
L 248.438041 -46.72922 
L 249.123841 -46.708749 
L 249.809641 -46.688629 
L 250.495441 -46.668855 
L 251.181241 -46.64942 
L 251.867041 -46.630319 
L 252.552841 -46.611545 
L 253.238641 -46.593094 
L 253.924442 -46.574959 
L 254.610242 -46.557135 
L 255.296042 -46.539618 
L 255.981842 -46.522401 
L 256.667642 -46.505479 
L 257.353442 -46.488848 
L 258.039242 -46.472502 
L 258.725042 -46.456437 
L 259.410842 -46.440647 
L 260.096642 -46.425129 
L 260.782442 -46.409876 
L 261.468242 -46.394886 
L 262.154043 -46.380153 
L 262.839843 -46.365672 
L 263.525643 -46.35144 
L 264.211443 -46.337453 
L 264.897243 -46.323705 
L 265.583043 -46.310193 
L 266.268843 -46.296913 
L 266.954643 -46.283861 
L 267.640443 -46.271033 
L 268.326243 -46.258426 
L 269.012043 -46.246034 
L 269.697843 -46.233855 
L 270.383644 -46.221886 
L 271.069444 -46.210121 
L 271.755244 -46.198559 
L 272.441044 -46.187195 
L 273.126844 -46.176026 
L 273.812644 -46.165048 
L 274.498444 -46.154259 
L 275.184244 -46.143655 
L 275.870044 -46.133234 
L 276.555844 -46.122991 
L 277.241644 -46.112923 
L 277.927444 -46.103029 
L 278.613244 -46.093304 
L 279.299045 -46.083746 
L 279.984845 -46.074353 
L 280.670645 -46.06512 
L 281.356445 -46.056046 
L 282.042245 -46.047128 
L 282.728045 -46.038362 
L 283.413845 -46.029747 
L 284.099645 -46.02128 
L 284.785445 -46.012959 
L 285.471245 -46.00478 
L 286.157045 -45.996741 
L 286.842845 -45.98884 
L 287.528646 -45.981075 
L 288.214446 -45.973444 
L 288.900246 -45.965943 
L 289.586046 -45.958571 
L 290.271846 -45.951325 
L 290.957646 -45.944204 
L 291.643446 -45.937205 
L 292.329246 -45.930326 
L 293.015046 -45.923565 
L 293.700846 -45.91692 
L 294.386646 -45.910389 
L 295.072446 -45.903971 
L 295.758247 -45.897662 
L 296.444047 -45.891462 
L 297.129847 -45.885368 
L 297.815647 -45.879379 
L 298.501447 -45.873492 
L 299.187247 -45.867707 
L 299.873047 -45.86202 
L 300.558847 -45.856432 
L 301.244647 -45.850939 
L 301.930447 -45.84554 
L 302.616247 -45.840235 
L 303.302047 -45.83502 
L 303.987848 -45.829894 
L 304.673648 -45.824857 
L 305.359448 -45.819906 
L 306.045248 -45.81504 
L 306.731048 -45.810258 
L 307.416848 -45.805557 
L 308.102648 -45.800938 
L 308.788448 -45.796397 
L 309.474248 -45.791935 
L 310.160048 -45.787549 
L 310.845848 -45.783238 
L 311.531648 -45.779002 
L 312.217449 -45.774838 
L 312.903249 -45.770745 
L 313.589049 -45.766723 
L 314.274849 -45.76277 
L 314.960649 -45.758884 
L 315.646449 -45.755066 
L 316.332249 -45.751312 
L 317.018049 -45.747624 
L 317.703849 -45.743998 
L 318.389649 -45.740435 
L 319.075449 -45.736933 
L 319.761249 -45.733491 
L 320.44705 -45.730108 
L 321.13285 -45.726783 
L 321.81865 -45.723515 
L 322.50445 -45.720303 
L 323.19025 -45.717147 
L 323.87605 -45.714044 
L 324.56185 -45.710995 
L 325.24765 -45.707998 
L 325.93345 -45.705053 
L 326.61925 -45.702158 
L 327.30505 -45.699313 
L 327.99085 -45.696516 
L 328.676651 -45.693768 
L 329.362451 -45.691067 
L 330.048251 -45.688412 
L 330.734051 -45.685802 
L 331.419851 -45.683238 
L 331.419851 -45.536364 
L 331.419851 -45.536364 
L 330.734051 -45.536364 
L 330.048251 -45.536364 
L 329.362451 -45.536364 
L 328.676651 -45.536364 
L 327.99085 -45.536364 
L 327.30505 -45.536364 
L 326.61925 -45.536364 
L 325.93345 -45.536364 
L 325.24765 -45.536364 
L 324.56185 -45.536364 
L 323.87605 -45.536364 
L 323.19025 -45.536364 
L 322.50445 -45.536364 
L 321.81865 -45.536364 
L 321.13285 -45.536364 
L 320.44705 -45.536364 
L 319.761249 -45.536364 
L 319.075449 -45.536364 
L 318.389649 -45.536364 
L 317.703849 -45.536364 
L 317.018049 -45.536364 
L 316.332249 -45.536364 
L 315.646449 -45.536364 
L 314.960649 -45.536364 
L 314.274849 -45.536364 
L 313.589049 -45.536364 
L 312.903249 -45.536364 
L 312.217449 -45.536364 
L 311.531648 -45.536364 
L 310.845848 -45.536364 
L 310.160048 -45.536364 
L 309.474248 -45.536364 
L 308.788448 -45.536364 
L 308.102648 -45.536364 
L 307.416848 -45.536364 
L 306.731048 -45.536364 
L 306.045248 -45.536364 
L 305.359448 -45.536364 
L 304.673648 -45.536364 
L 303.987848 -45.536364 
L 303.302047 -45.536364 
L 302.616247 -45.536364 
L 301.930447 -45.536364 
L 301.244647 -45.536364 
L 300.558847 -45.536364 
L 299.873047 -45.536364 
L 299.187247 -45.536364 
L 298.501447 -45.536364 
L 297.815647 -45.536364 
L 297.129847 -45.536364 
L 296.444047 -45.536364 
L 295.758247 -45.536364 
L 295.072446 -45.536364 
L 294.386646 -45.536364 
L 293.700846 -45.536364 
L 293.015046 -45.536364 
L 292.329246 -45.536364 
L 291.643446 -45.536364 
L 290.957646 -45.536364 
L 290.271846 -45.536364 
L 289.586046 -45.536364 
L 288.900246 -45.536364 
L 288.214446 -45.536364 
L 287.528646 -45.536364 
L 286.842845 -45.536364 
L 286.157045 -45.536364 
L 285.471245 -45.536364 
L 284.785445 -45.536364 
L 284.099645 -45.536364 
L 283.413845 -45.536364 
L 282.728045 -45.536364 
L 282.042245 -45.536364 
L 281.356445 -45.536364 
L 280.670645 -45.536364 
L 279.984845 -45.536364 
L 279.299045 -45.536364 
L 278.613244 -45.536364 
L 277.927444 -45.536364 
L 277.241644 -45.536364 
L 276.555844 -45.536364 
L 275.870044 -45.536364 
L 275.184244 -45.536364 
L 274.498444 -45.536364 
L 273.812644 -45.536364 
L 273.126844 -45.536364 
L 272.441044 -45.536364 
L 271.755244 -45.536364 
L 271.069444 -45.536364 
L 270.383644 -45.536364 
L 269.697843 -45.536364 
L 269.012043 -45.536364 
L 268.326243 -45.536364 
L 267.640443 -45.536364 
L 266.954643 -45.536364 
L 266.268843 -45.536364 
L 265.583043 -45.536364 
L 264.897243 -45.536364 
L 264.211443 -45.536364 
L 263.525643 -45.536364 
L 262.839843 -45.536364 
L 262.154043 -45.536364 
L 261.468242 -45.536364 
L 260.782442 -45.536364 
L 260.096642 -45.536364 
L 259.410842 -45.536364 
L 258.725042 -45.536364 
L 258.039242 -45.536364 
L 257.353442 -45.536364 
L 256.667642 -45.536364 
L 255.981842 -45.536364 
L 255.296042 -45.536364 
L 254.610242 -45.536364 
L 253.924442 -45.536364 
L 253.238641 -45.536364 
L 252.552841 -45.536364 
L 251.867041 -45.536364 
L 251.181241 -45.536364 
L 250.495441 -45.536364 
L 249.809641 -45.536364 
L 249.123841 -45.536364 
L 248.438041 -45.536364 
L 247.752241 -45.536364 
L 247.066441 -45.536364 
L 246.380641 -45.536364 
L 245.694841 -45.536364 
L 245.00904 -45.536364 
L 244.32324 -45.536364 
L 243.63744 -45.536364 
L 242.95164 -45.536364 
L 242.26584 -45.536364 
L 241.58004 -45.536364 
L 240.89424 -45.536364 
L 240.20844 -45.536364 
L 239.52264 -45.536364 
L 238.83684 -45.536364 
L 238.15104 -45.536364 
L 237.46524 -45.536364 
L 236.779439 -45.536364 
L 236.093639 -45.536364 
L 235.407839 -45.536364 
L 234.722039 -45.536364 
L 234.036239 -45.536364 
L 233.350439 -45.536364 
L 232.664639 -45.536364 
L 231.978839 -45.536364 
L 231.293039 -45.536364 
L 230.607239 -45.536364 
L 229.921439 -45.536364 
L 229.235639 -45.536364 
L 228.549838 -45.536364 
L 227.864038 -45.536364 
L 227.178238 -45.536364 
L 226.492438 -45.536364 
L 225.806638 -45.536364 
L 225.120838 -45.536364 
L 224.435038 -45.536364 
L 223.749238 -45.536364 
L 223.063438 -45.536364 
L 222.377638 -45.536364 
L 221.691838 -45.536364 
L 221.006038 -45.536364 
L 220.320237 -45.536364 
L 219.634437 -45.536364 
L 218.948637 -45.536364 
L 218.262837 -45.536364 
L 217.577037 -45.536364 
L 216.891237 -45.536364 
L 216.205437 -45.536364 
L 215.519637 -45.536364 
L 214.833837 -45.536364 
L 214.148037 -45.536364 
L 213.462237 -45.536364 
L 212.776437 -45.536364 
L 212.090636 -45.536364 
L 211.404836 -45.536364 
L 210.719036 -45.536364 
L 210.033236 -45.536364 
L 209.347436 -45.536364 
L 208.661636 -45.536364 
L 207.975836 -45.536364 
L 207.290036 -45.536364 
L 206.604236 -45.536364 
L 205.918436 -45.536364 
L 205.232636 -45.536364 
L 204.546836 -45.536364 
L 203.861035 -45.536364 
L 203.175235 -45.536364 
L 202.489435 -45.536364 
L 201.803635 -45.536364 
L 201.117835 -45.536364 
L 200.432035 -45.536364 
L 199.746235 -45.536364 
L 199.060435 -45.536364 
L 198.374635 -45.536364 
L 197.688835 -45.536364 
L 197.003035 -45.536364 
L 196.317235 -45.536364 
L 195.631434 -45.536364 
L 194.945634 -45.536364 
L 194.259834 -45.536364 
L 193.574034 -45.536364 
L 192.888234 -45.536364 
L 192.202434 -45.536364 
L 191.516634 -45.536364 
L 190.830834 -45.536364 
L 190.145034 -45.536364 
L 189.459234 -45.536364 
L 188.773434 -45.536364 
L 188.087634 -45.536364 
L 187.401834 -45.536364 
L 186.716033 -45.536364 
L 186.030233 -45.536364 
L 185.344433 -45.536364 
L 184.658633 -45.536364 
L 183.972833 -45.536364 
L 183.287033 -45.536364 
L 182.601233 -45.536364 
L 181.915433 -45.536364 
L 181.229633 -45.536364 
L 180.543833 -45.536364 
L 179.858033 -45.536364 
L 179.172233 -45.536364 
L 178.486432 -45.536364 
L 177.800632 -45.536364 
L 177.114832 -45.536364 
L 176.429032 -45.536364 
L 175.743232 -45.536364 
L 175.057432 -45.536364 
L 174.371632 -45.536364 
L 173.685832 -45.536364 
L 173.000032 -45.536364 
L 172.314232 -45.536364 
L 171.628432 -45.536364 
L 170.942632 -45.536364 
L 170.256831 -45.536364 
L 169.571031 -45.536364 
L 168.885231 -45.536364 
L 168.199431 -45.536364 
L 167.513631 -45.536364 
L 166.827831 -45.536364 
L 166.142031 -45.536364 
L 165.456231 -45.536364 
L 164.770431 -45.536364 
L 164.084631 -45.536364 
L 163.398831 -45.536364 
L 162.713031 -45.536364 
L 162.02723 -45.536364 
L 161.34143 -45.536364 
L 160.65563 -45.536364 
L 159.96983 -45.536364 
L 159.28403 -45.536364 
L 158.59823 -45.536364 
L 157.91243 -45.536364 
L 157.22663 -45.536364 
L 156.54083 -45.536364 
L 155.85503 -45.536364 
L 155.16923 -45.536364 
L 154.48343 -45.536364 
L 153.797629 -45.536364 
L 153.111829 -45.536364 
L 152.426029 -45.536364 
L 151.740229 -45.536364 
L 151.054429 -45.536364 
L 150.368629 -45.536364 
L 149.682829 -45.536364 
L 148.997029 -45.536364 
L 148.311229 -45.536364 
L 147.625429 -45.536364 
L 146.939629 -45.536364 
L 146.253829 -45.536364 
L 145.568028 -45.536364 
L 144.882228 -45.536364 
L 144.196428 -45.536364 
L 143.510628 -45.536364 
L 142.824828 -45.536364 
L 142.139028 -45.536364 
L 141.453228 -45.536364 
L 140.767428 -45.536364 
L 140.081628 -45.536364 
L 139.395828 -45.536364 
L 138.710028 -45.536364 
L 138.024228 -45.536364 
L 137.338427 -45.536364 
L 136.652627 -45.536364 
L 135.966827 -45.536364 
L 135.281027 -45.536364 
L 134.595227 -45.536364 
L 133.909427 -45.536364 
L 133.223627 -45.536364 
L 132.537827 -45.536364 
L 131.852027 -45.536364 
L 131.166227 -45.536364 
L 130.480427 -45.536364 
L 129.794627 -45.536364 
L 129.108826 -45.536364 
L 128.423026 -45.536364 
L 127.737226 -45.536364 
L 127.051426 -45.536364 
L 126.365626 -45.536364 
L 125.679826 -45.536364 
L 124.994026 -45.536364 
L 124.308226 -45.536364 
L 123.622426 -45.536364 
L 122.936626 -45.536364 
L 122.250826 -45.536364 
L 121.565026 -45.536364 
L 120.879225 -45.536364 
L 120.193425 -45.536364 
L 119.507625 -45.536364 
L 118.821825 -45.536364 
L 118.136025 -45.536364 
L 117.450225 -45.536364 
L 116.764425 -45.536364 
L 116.078625 -45.536364 
L 115.392825 -45.536364 
L 114.707025 -45.536364 
L 114.021225 -45.536364 
L 113.335425 -45.536364 
L 112.649625 -45.536364 
L 111.963824 -45.536364 
L 111.278024 -45.536364 
L 110.592224 -45.536364 
L 109.906424 -45.536364 
L 109.220624 -45.536364 
L 108.534824 -45.536364 
L 107.849024 -45.536364 
L 107.163224 -45.536364 
L 106.477424 -45.536364 
L 105.791624 -45.536364 
L 105.105824 -45.536364 
L 104.420024 -45.536364 
L 103.734223 -45.536364 
L 103.048423 -45.536364 
L 102.362623 -45.536364 
L 101.676823 -45.536364 
L 100.991023 -45.536364 
L 100.305223 -45.536364 
L 99.619423 -45.536364 
L 98.933623 -45.536364 
L 98.247823 -45.536364 
L 97.562023 -45.536364 
L 96.876223 -45.536364 
L 96.190423 -45.536364 
L 95.504622 -45.536364 
L 94.818822 -45.536364 
L 94.133022 -45.536364 
L 93.447222 -45.536364 
L 92.761422 -45.536364 
L 92.075622 -45.536364 
L 91.389822 -45.536364 
L 90.704022 -45.536364 
L 90.018222 -45.536364 
L 89.332422 -45.536364 
L 88.646622 -45.536364 
L 87.960822 -45.536364 
L 87.275021 -45.536364 
L 86.589221 -45.536364 
L 85.903421 -45.536364 
L 85.217621 -45.536364 
L 84.531821 -45.536364 
L 83.846021 -45.536364 
L 83.160221 -45.536364 
L 82.474421 -45.536364 
L 81.788621 -45.536364 
L 81.102821 -45.536364 
L 80.417021 -45.536364 
L 79.731221 -45.536364 
L 79.04542 -45.536364 
L 78.35962 -45.536364 
L 77.67382 -45.536364 
L 76.98802 -45.536364 
L 76.30222 -45.536364 
L 75.61642 -45.536364 
L 74.93062 -45.536364 
L 74.24482 -45.536364 
L 73.55902 -45.536364 
L 72.87322 -45.536364 
L 72.18742 -45.536364 
L 71.50162 -45.536364 
L 70.815819 -45.536364 
L 70.130019 -45.536364 
L 69.444219 -45.536364 
L 68.758419 -45.536364 
L 68.072619 -45.536364 
L 67.386819 -45.536364 
L 66.701019 -45.536364 
L 66.015219 -45.536364 
L 65.329419 -45.536364 
L 64.643619 -45.536364 
L 63.957819 -45.536364 
L 63.272019 -45.536364 
L 62.586218 -45.536364 
L 61.900418 -45.536364 
L 61.214618 -45.536364 
L 60.528818 -45.536364 
L 59.843018 -45.536364 
L 59.157218 -45.536364 
L 58.471418 -45.536364 
L 57.785618 -45.536364 
z
" style="stroke: #4c78a8; stroke-opacity: 0.15"/>
    </defs>
    <g clip-path="url(#pced8536873)">
     <use xlink:href="#mf1332ab57a" x="0" y="223.158281" style="fill: #4c78a8; fill-opacity: 0.15; stroke: #4c78a8; stroke-opacity: 0.15"/>
    </g>
   </g>
   <g id="matplotlib.axis_1">
    <g id="xtick_1">
     <g id="line2d_1">
      <path d="M 57.74598 184.958281 
L 57.74598 23.558281 
" clip-path="url(#pced8536873)" style="fill: none; stroke: #b0b0b0; stroke-opacity: 0.25; stroke-width: 0.6; stroke-linecap: square"/>
     </g>
     <g id="line2d_2">
      <defs>
       <path id="m138730314d" d="M 0 0 
L 0 3.5 
" style="stroke: #000000; stroke-width: 0.8"/>
      </defs>
      <g>
       <use xlink:href="#m138730314d" x="57.74598" y="184.958281" style="stroke: #000000; stroke-width: 0.8"/>
      </g>
     </g>
     <g id="text_1">
      <!-- 0 -->
      <g transform="translate(54.56473 199.555938) scale(0.1 -0.1)">
       <defs>
        <path id="DejaVuSans-13" d="M 2034 4250 
Q 1547 4250 1301 3770 
Q 1056 3291 1056 2328 
Q 1056 1369 1301 889 
Q 1547 409 2034 409 
Q 2525 409 2770 889 
Q 3016 1369 3016 2328 
Q 3016 3291 2770 3770 
Q 2525 4250 2034 4250 
z
M 2034 4750 
Q 2819 4750 3233 4129 
Q 3647 3509 3647 2328 
Q 3647 1150 3233 529 
Q 2819 -91 2034 -91 
Q 1250 -91 836 529 
Q 422 1150 422 2328 
Q 422 3509 836 4129 
Q 1250 4750 2034 4750 
z
" transform="scale(0.015625)"/>
       </defs>
       <use xlink:href="#DejaVuSans-13"/>
      </g>
     </g>
    </g>
    <g id="xtick_2">
     <g id="line2d_3">
      <path d="M 97.36433 184.958281 
L 97.36433 23.558281 
" clip-path="url(#pced8536873)" style="fill: none; stroke: #b0b0b0; stroke-opacity: 0.25; stroke-width: 0.6; stroke-linecap: square"/>
     </g>
     <g id="line2d_4">
      <g>
       <use xlink:href="#m138730314d" x="97.36433" y="184.958281" style="stroke: #000000; stroke-width: 0.8"/>
      </g>
     </g>
     <g id="text_2">
      <!-- 1 -->
      <g transform="translate(94.18308 199.555938) scale(0.1 -0.1)">
       <defs>
        <path id="DejaVuSans-14" d="M 794 531 
L 1825 531 
L 1825 4091 
L 703 3866 
L 703 4441 
L 1819 4666 
L 2450 4666 
L 2450 531 
L 3481 531 
L 3481 0 
L 794 0 
L 794 531 
z
" transform="scale(0.015625)"/>
       </defs>
       <use xlink:href="#DejaVuSans-14"/>
      </g>
     </g>
    </g>
    <g id="xtick_3">
     <g id="line2d_5">
      <path d="M 136.982681 184.958281 
L 136.982681 23.558281 
" clip-path="url(#pced8536873)" style="fill: none; stroke: #b0b0b0; stroke-opacity: 0.25; stroke-width: 0.6; stroke-linecap: square"/>
     </g>
     <g id="line2d_6">
      <g>
       <use xlink:href="#m138730314d" x="136.982681" y="184.958281" style="stroke: #000000; stroke-width: 0.8"/>
      </g>
     </g>
     <g id="text_3">
      <!-- 2 -->
      <g transform="translate(133.801431 199.555938) scale(0.1 -0.1)">
       <defs>
        <path id="DejaVuSans-15" d="M 1228 531 
L 3431 531 
L 3431 0 
L 469 0 
L 469 531 
Q 828 903 1448 1529 
Q 2069 2156 2228 2338 
Q 2531 2678 2651 2914 
Q 2772 3150 2772 3378 
Q 2772 3750 2511 3984 
Q 2250 4219 1831 4219 
Q 1534 4219 1204 4116 
Q 875 4013 500 3803 
L 500 4441 
Q 881 4594 1212 4672 
Q 1544 4750 1819 4750 
Q 2544 4750 2975 4387 
Q 3406 4025 3406 3419 
Q 3406 3131 3298 2873 
Q 3191 2616 2906 2266 
Q 2828 2175 2409 1742 
Q 1991 1309 1228 531 
z
" transform="scale(0.015625)"/>
       </defs>
       <use xlink:href="#DejaVuSans-15"/>
      </g>
     </g>
    </g>
    <g id="xtick_4">
     <g id="line2d_7">
      <path d="M 176.601032 184.958281 
L 176.601032 23.558281 
" clip-path="url(#pced8536873)" style="fill: none; stroke: #b0b0b0; stroke-opacity: 0.25; stroke-width: 0.6; stroke-linecap: square"/>
     </g>
     <g id="line2d_8">
      <g>
       <use xlink:href="#m138730314d" x="176.601032" y="184.958281" style="stroke: #000000; stroke-width: 0.8"/>
      </g>
     </g>
     <g id="text_4">
      <!-- 3 -->
      <g transform="translate(173.419782 199.555938) scale(0.1 -0.1)">
       <defs>
        <path id="DejaVuSans-16" d="M 2597 2516 
Q 3050 2419 3304 2112 
Q 3559 1806 3559 1356 
Q 3559 666 3084 287 
Q 2609 -91 1734 -91 
Q 1441 -91 1130 -33 
Q 819 25 488 141 
L 488 750 
Q 750 597 1062 519 
Q 1375 441 1716 441 
Q 2309 441 2620 675 
Q 2931 909 2931 1356 
Q 2931 1769 2642 2001 
Q 2353 2234 1838 2234 
L 1294 2234 
L 1294 2753 
L 1863 2753 
Q 2328 2753 2575 2939 
Q 2822 3125 2822 3475 
Q 2822 3834 2567 4026 
Q 2313 4219 1838 4219 
Q 1578 4219 1281 4162 
Q 984 4106 628 3988 
L 628 4550 
Q 988 4650 1302 4700 
Q 1616 4750 1894 4750 
Q 2613 4750 3031 4423 
Q 3450 4097 3450 3541 
Q 3450 3153 3228 2886 
Q 3006 2619 2597 2516 
z
" transform="scale(0.015625)"/>
       </defs>
       <use xlink:href="#DejaVuSans-16"/>
      </g>
     </g>
    </g>
    <g id="xtick_5">
     <g id="line2d_9">
      <path d="M 216.219382 184.958281 
L 216.219382 23.558281 
" clip-path="url(#pced8536873)" style="fill: none; stroke: #b0b0b0; stroke-opacity: 0.25; stroke-width: 0.6; stroke-linecap: square"/>
     </g>
     <g id="line2d_10">
      <g>
       <use xlink:href="#m138730314d" x="216.219382" y="184.958281" style="stroke: #000000; stroke-width: 0.8"/>
      </g>
     </g>
     <g id="text_5">
      <!-- 4 -->
      <g transform="translate(213.038132 199.555938) scale(0.1 -0.1)">
       <defs>
        <path id="DejaVuSans-17" d="M 2419 4116 
L 825 1625 
L 2419 1625 
L 2419 4116 
z
M 2253 4666 
L 3047 4666 
L 3047 1625 
L 3713 1625 
L 3713 1100 
L 3047 1100 
L 3047 0 
L 2419 0 
L 2419 1100 
L 313 1100 
L 313 1709 
L 2253 4666 
z
" transform="scale(0.015625)"/>
       </defs>
       <use xlink:href="#DejaVuSans-17"/>
      </g>
     </g>
    </g>
    <g id="xtick_6">
     <g id="line2d_11">
      <path d="M 255.837733 184.958281 
L 255.837733 23.558281 
" clip-path="url(#pced8536873)" style="fill: none; stroke: #b0b0b0; stroke-opacity: 0.25; stroke-width: 0.6; stroke-linecap: square"/>
     </g>
     <g id="line2d_12">
      <g>
       <use xlink:href="#m138730314d" x="255.837733" y="184.958281" style="stroke: #000000; stroke-width: 0.8"/>
      </g>
     </g>
     <g id="text_6">
      <!-- 5 -->
      <g transform="translate(252.656483 199.555938) scale(0.1 -0.1)">
       <defs>
        <path id="DejaVuSans-18" d="M 691 4666 
L 3169 4666 
L 3169 4134 
L 1269 4134 
L 1269 2991 
Q 1406 3038 1543 3061 
Q 1681 3084 1819 3084 
Q 2600 3084 3056 2656 
Q 3513 2228 3513 1497 
Q 3513 744 3044 326 
Q 2575 -91 1722 -91 
Q 1428 -91 1123 -41 
Q 819 9 494 109 
L 494 744 
Q 775 591 1075 516 
Q 1375 441 1709 441 
Q 2250 441 2565 725 
Q 2881 1009 2881 1497 
Q 2881 1984 2565 2268 
Q 2250 2553 1709 2553 
Q 1456 2553 1204 2497 
Q 953 2441 691 2322 
L 691 4666 
z
" transform="scale(0.015625)"/>
       </defs>
       <use xlink:href="#DejaVuSans-18"/>
      </g>
     </g>
    </g>
    <g id="xtick_7">
     <g id="line2d_13">
      <path d="M 295.456084 184.958281 
L 295.456084 23.558281 
" clip-path="url(#pced8536873)" style="fill: none; stroke: #b0b0b0; stroke-opacity: 0.25; stroke-width: 0.6; stroke-linecap: square"/>
     </g>
     <g id="line2d_14">
      <g>
       <use xlink:href="#m138730314d" x="295.456084" y="184.958281" style="stroke: #000000; stroke-width: 0.8"/>
      </g>
     </g>
     <g id="text_7">
      <!-- 6 -->
      <g transform="translate(292.274834 199.555938) scale(0.1 -0.1)">
       <defs>
        <path id="DejaVuSans-19" d="M 2113 2584 
Q 1688 2584 1439 2293 
Q 1191 2003 1191 1497 
Q 1191 994 1439 701 
Q 1688 409 2113 409 
Q 2538 409 2786 701 
Q 3034 994 3034 1497 
Q 3034 2003 2786 2293 
Q 2538 2584 2113 2584 
z
M 3366 4563 
L 3366 3988 
Q 3128 4100 2886 4159 
Q 2644 4219 2406 4219 
Q 1781 4219 1451 3797 
Q 1122 3375 1075 2522 
Q 1259 2794 1537 2939 
Q 1816 3084 2150 3084 
Q 2853 3084 3261 2657 
Q 3669 2231 3669 1497 
Q 3669 778 3244 343 
Q 2819 -91 2113 -91 
Q 1303 -91 875 529 
Q 447 1150 447 2328 
Q 447 3434 972 4092 
Q 1497 4750 2381 4750 
Q 2619 4750 2861 4703 
Q 3103 4656 3366 4563 
z
" transform="scale(0.015625)"/>
       </defs>
       <use xlink:href="#DejaVuSans-19"/>
      </g>
     </g>
    </g>
    <g id="xtick_8">
     <g id="line2d_15">
      <path d="M 335.074435 184.958281 
L 335.074435 23.558281 
" clip-path="url(#pced8536873)" style="fill: none; stroke: #b0b0b0; stroke-opacity: 0.25; stroke-width: 0.6; stroke-linecap: square"/>
     </g>
     <g id="line2d_16">
      <g>
       <use xlink:href="#m138730314d" x="335.074435" y="184.958281" style="stroke: #000000; stroke-width: 0.8"/>
      </g>
     </g>
     <g id="text_8">
      <!-- 7 -->
      <g transform="translate(331.893185 199.555938) scale(0.1 -0.1)">
       <defs>
        <path id="DejaVuSans-1a" d="M 525 4666 
L 3525 4666 
L 3525 4397 
L 1831 0 
L 1172 0 
L 2766 4134 
L 525 4134 
L 525 4666 
z
" transform="scale(0.015625)"/>
       </defs>
       <use xlink:href="#DejaVuSans-1a"/>
      </g>
     </g>
    </g>
    <g id="text_9">
     <!-- x -->
     <g transform="translate(191.643359 213.555938) scale(0.1 -0.1)">
      <defs>
       <path id="DejaVuSans-5b" d="M 3513 3500 
L 2247 1797 
L 3578 0 
L 2900 0 
L 1881 1375 
L 863 0 
L 184 0 
L 1544 1831 
L 300 3500 
L 978 3500 
L 1906 2253 
L 2834 3500 
L 3513 3500 
z
" transform="scale(0.015625)"/>
      </defs>
      <use xlink:href="#DejaVuSans-5b"/>
     </g>
    </g>
   </g>
   <g id="matplotlib.axis_2">
    <g id="ytick_1">
     <g id="line2d_17">
      <path d="M 44.103906 177.621918 
L 345.101562 177.621918 
" clip-path="url(#pced8536873)" style="fill: none; stroke: #b0b0b0; stroke-opacity: 0.25; stroke-width: 0.6; stroke-linecap: square"/>
     </g>
     <g id="line2d_18">
      <defs>
       <path id="maef28800c0" d="M 0 0 
L -3.5 0 
" style="stroke: #000000; stroke-width: 0.8"/>
      </defs>
      <g>
       <use xlink:href="#maef28800c0" x="44.103906" y="177.621918" style="stroke: #000000; stroke-width: 0.8"/>
      </g>
     </g>
     <g id="text_10">
      <!-- 0.0 -->
      <g transform="translate(21.200781 181.420746) scale(0.1 -0.1)">
       <defs>
        <path id="DejaVuSans-11" d="M 684 794 
L 1344 794 
L 1344 0 
L 684 0 
L 684 794 
z
" transform="scale(0.015625)"/>
       </defs>
       <use xlink:href="#DejaVuSans-13"/>
       <use xlink:href="#DejaVuSans-11" transform="translate(63.625 0)"/>
       <use xlink:href="#DejaVuSans-13" transform="translate(95.40625 0)"/>
      </g>
     </g>
    </g>
    <g id="ytick_2">
     <g id="line2d_19">
      <path d="M 44.103906 148.247088 
L 345.101562 148.247088 
" clip-path="url(#pced8536873)" style="fill: none; stroke: #b0b0b0; stroke-opacity: 0.25; stroke-width: 0.6; stroke-linecap: square"/>
     </g>
     <g id="line2d_20">
      <g>
       <use xlink:href="#maef28800c0" x="44.103906" y="148.247088" style="stroke: #000000; stroke-width: 0.8"/>
      </g>
     </g>
     <g id="text_11">
      <!-- 0.2 -->
      <g transform="translate(21.200781 152.045916) scale(0.1 -0.1)">
       <use xlink:href="#DejaVuSans-13"/>
       <use xlink:href="#DejaVuSans-11" transform="translate(63.625 0)"/>
       <use xlink:href="#DejaVuSans-15" transform="translate(95.40625 0)"/>
      </g>
     </g>
    </g>
    <g id="ytick_3">
     <g id="line2d_21">
      <path d="M 44.103906 118.872259 
L 345.101562 118.872259 
" clip-path="url(#pced8536873)" style="fill: none; stroke: #b0b0b0; stroke-opacity: 0.25; stroke-width: 0.6; stroke-linecap: square"/>
     </g>
     <g id="line2d_22">
      <g>
       <use xlink:href="#maef28800c0" x="44.103906" y="118.872259" style="stroke: #000000; stroke-width: 0.8"/>
      </g>
     </g>
     <g id="text_12">
      <!-- 0.4 -->
      <g transform="translate(21.200781 122.671087) scale(0.1 -0.1)">
       <use xlink:href="#DejaVuSans-13"/>
       <use xlink:href="#DejaVuSans-11" transform="translate(63.625 0)"/>
       <use xlink:href="#DejaVuSans-17" transform="translate(95.40625 0)"/>
      </g>
     </g>
    </g>
    <g id="ytick_4">
     <g id="line2d_23">
      <path d="M 44.103906 89.497429 
L 345.101562 89.497429 
" clip-path="url(#pced8536873)" style="fill: none; stroke: #b0b0b0; stroke-opacity: 0.25; stroke-width: 0.6; stroke-linecap: square"/>
     </g>
     <g id="line2d_24">
      <g>
       <use xlink:href="#maef28800c0" x="44.103906" y="89.497429" style="stroke: #000000; stroke-width: 0.8"/>
      </g>
     </g>
     <g id="text_13">
      <!-- 0.6 -->
      <g transform="translate(21.200781 93.296258) scale(0.1 -0.1)">
       <use xlink:href="#DejaVuSans-13"/>
       <use xlink:href="#DejaVuSans-11" transform="translate(63.625 0)"/>
       <use xlink:href="#DejaVuSans-19" transform="translate(95.40625 0)"/>
      </g>
     </g>
    </g>
    <g id="ytick_5">
     <g id="line2d_25">
      <path d="M 44.103906 60.1226 
L 345.101562 60.1226 
" clip-path="url(#pced8536873)" style="fill: none; stroke: #b0b0b0; stroke-opacity: 0.25; stroke-width: 0.6; stroke-linecap: square"/>
     </g>
     <g id="line2d_26">
      <g>
       <use xlink:href="#maef28800c0" x="44.103906" y="60.1226" style="stroke: #000000; stroke-width: 0.8"/>
      </g>
     </g>
     <g id="text_14">
      <!-- 0.8 -->
      <g transform="translate(21.200781 63.921428) scale(0.1 -0.1)">
       <defs>
        <path id="DejaVuSans-1b" d="M 2034 2216 
Q 1584 2216 1326 1975 
Q 1069 1734 1069 1313 
Q 1069 891 1326 650 
Q 1584 409 2034 409 
Q 2484 409 2743 651 
Q 3003 894 3003 1313 
Q 3003 1734 2745 1975 
Q 2488 2216 2034 2216 
z
M 1403 2484 
Q 997 2584 770 2862 
Q 544 3141 544 3541 
Q 544 4100 942 4425 
Q 1341 4750 2034 4750 
Q 2731 4750 3128 4425 
Q 3525 4100 3525 3541 
Q 3525 3141 3298 2862 
Q 3072 2584 2669 2484 
Q 3125 2378 3379 2068 
Q 3634 1759 3634 1313 
Q 3634 634 3220 271 
Q 2806 -91 2034 -91 
Q 1263 -91 848 271 
Q 434 634 434 1313 
Q 434 1759 690 2068 
Q 947 2378 1403 2484 
z
M 1172 3481 
Q 1172 3119 1398 2916 
Q 1625 2713 2034 2713 
Q 2441 2713 2670 2916 
Q 2900 3119 2900 3481 
Q 2900 3844 2670 4047 
Q 2441 4250 2034 4250 
Q 1625 4250 1398 4047 
Q 1172 3844 1172 3481 
z
" transform="scale(0.015625)"/>
       </defs>
       <use xlink:href="#DejaVuSans-13"/>
       <use xlink:href="#DejaVuSans-11" transform="translate(63.625 0)"/>
       <use xlink:href="#DejaVuSans-1b" transform="translate(95.40625 0)"/>
      </g>
     </g>
    </g>
    <g id="ytick_6">
     <g id="line2d_27">
      <path d="M 44.103906 30.747771 
L 345.101562 30.747771 
" clip-path="url(#pced8536873)" style="fill: none; stroke: #b0b0b0; stroke-opacity: 0.25; stroke-width: 0.6; stroke-linecap: square"/>
     </g>
     <g id="line2d_28">
      <g>
       <use xlink:href="#maef28800c0" x="44.103906" y="30.747771" style="stroke: #000000; stroke-width: 0.8"/>
      </g>
     </g>
     <g id="text_15">
      <!-- 1.0 -->
      <g transform="translate(21.200781 34.546599) scale(0.1 -0.1)">
       <use xlink:href="#DejaVuSans-14"/>
       <use xlink:href="#DejaVuSans-11" transform="translate(63.625 0)"/>
       <use xlink:href="#DejaVuSans-13" transform="translate(95.40625 0)"/>
      </g>
     </g>
    </g>
    <g id="text_16">
     <!-- f(x) -->
     <g transform="translate(14.798438 112.879375) rotate(-90) scale(0.1 -0.1)">
      <defs>
       <path id="DejaVuSans-49" d="M 2375 4863 
L 2375 4384 
L 1825 4384 
Q 1516 4384 1395 4259 
Q 1275 4134 1275 3809 
L 1275 3500 
L 2222 3500 
L 2222 3053 
L 1275 3053 
L 1275 0 
L 697 0 
L 697 3053 
L 147 3053 
L 147 3500 
L 697 3500 
L 697 3744 
Q 697 4328 969 4595 
Q 1241 4863 1831 4863 
L 2375 4863 
z
" transform="scale(0.015625)"/>
       <path id="DejaVuSans-b" d="M 1984 4856 
Q 1566 4138 1362 3434 
Q 1159 2731 1159 2009 
Q 1159 1288 1364 580 
Q 1569 -128 1984 -844 
L 1484 -844 
Q 1016 -109 783 600 
Q 550 1309 550 2009 
Q 550 2706 781 3412 
Q 1013 4119 1484 4856 
L 1984 4856 
z
" transform="scale(0.015625)"/>
       <path id="DejaVuSans-c" d="M 513 4856 
L 1013 4856 
Q 1481 4119 1714 3412 
Q 1947 2706 1947 2009 
Q 1947 1309 1714 600 
Q 1481 -109 1013 -844 
L 513 -844 
Q 928 -128 1133 580 
Q 1338 1288 1338 2009 
Q 1338 2731 1133 3434 
Q 928 4138 513 4856 
z
" transform="scale(0.015625)"/>
      </defs>
      <use xlink:href="#DejaVuSans-49"/>
      <use xlink:href="#DejaVuSans-b" transform="translate(35.203125 0)"/>
      <use xlink:href="#DejaVuSans-5b" transform="translate(74.21875 0)"/>
      <use xlink:href="#DejaVuSans-c" transform="translate(133.40625 0)"/>
     </g>
    </g>
   </g>
   <g id="line2d_29">
    <path d="M 57.785618 30.894645 
L 60.528818 40.710391 
L 63.957819 52.06187 
L 67.386819 62.472185 
L 70.815819 72.019371 
L 74.24482 80.774989 
L 77.67382 88.804669 
L 81.102821 96.168601 
L 84.531821 102.921981 
L 87.960822 109.115431 
L 91.389822 114.795376 
L 94.818822 120.004391 
L 98.247823 124.78152 
L 101.676823 129.162573 
L 105.105824 133.180388 
L 108.534824 136.865082 
L 111.963824 140.244274 
L 115.392825 143.343294 
L 118.821825 146.185371 
L 122.936626 149.286567 
L 127.051426 152.081833 
L 131.166227 154.601347 
L 135.281027 156.872312 
L 140.081628 159.240209 
L 144.882228 161.337886 
L 149.682829 163.196182 
L 155.16923 165.061725 
L 160.65563 166.686015 
L 166.827831 168.263654 
L 173.000032 169.613699 
L 179.858033 170.886588 
L 187.401834 172.054369 
L 195.631434 173.098658 
L 204.546836 174.010137 
L 214.833837 174.836081 
L 226.492438 175.546265 
L 240.20844 176.153666 
L 256.667642 176.652802 
L 277.241644 177.045358 
L 304.673648 177.333424 
L 331.419851 177.475043 
L 331.419851 177.475043 
" clip-path="url(#pced8536873)" style="fill: none; stroke: #4c78a8; stroke-width: 2; stroke-linecap: square"/>
   </g>
   <g id="patch_3">
    <path d="M 44.103906 184.958281 
L 44.103906 23.558281 
" style="fill: none; stroke: #000000; stroke-width: 0.8; stroke-linejoin: miter; stroke-linecap: square"/>
   </g>
   <g id="patch_4">
    <path d="M 44.103906 184.958281 
L 345.101562 184.958281 
" style="fill: none; stroke: #000000; stroke-width: 0.8; stroke-linejoin: miter; stroke-linecap: square"/>
   </g>
   <g id="text_17">
    <!-- Exponential -->
    <g transform="translate(162.077109 15.558281) scale(0.11 -0.11)">
     <defs>
      <path id="DejaVuSans-28" d="M 628 4666 
L 3578 4666 
L 3578 4134 
L 1259 4134 
L 1259 2753 
L 3481 2753 
L 3481 2222 
L 1259 2222 
L 1259 531 
L 3634 531 
L 3634 0 
L 628 0 
L 628 4666 
z
" transform="scale(0.015625)"/>
      <path id="DejaVuSans-53" d="M 1159 525 
L 1159 -1331 
L 581 -1331 
L 581 3500 
L 1159 3500 
L 1159 2969 
Q 1341 3281 1617 3432 
Q 1894 3584 2278 3584 
Q 2916 3584 3314 3078 
Q 3713 2572 3713 1747 
Q 3713 922 3314 415 
Q 2916 -91 2278 -91 
Q 1894 -91 1617 61 
Q 1341 213 1159 525 
z
M 3116 1747 
Q 3116 2381 2855 2742 
Q 2594 3103 2138 3103 
Q 1681 3103 1420 2742 
Q 1159 2381 1159 1747 
Q 1159 1113 1420 752 
Q 1681 391 2138 391 
Q 2594 391 2855 752 
Q 3116 1113 3116 1747 
z
" transform="scale(0.015625)"/>
      <path id="DejaVuSans-52" d="M 1959 3097 
Q 1497 3097 1228 2736 
Q 959 2375 959 1747 
Q 959 1119 1226 758 
Q 1494 397 1959 397 
Q 2419 397 2687 759 
Q 2956 1122 2956 1747 
Q 2956 2369 2687 2733 
Q 2419 3097 1959 3097 
z
M 1959 3584 
Q 2709 3584 3137 3096 
Q 3566 2609 3566 1747 
Q 3566 888 3137 398 
Q 2709 -91 1959 -91 
Q 1206 -91 779 398 
Q 353 888 353 1747 
Q 353 2609 779 3096 
Q 1206 3584 1959 3584 
z
" transform="scale(0.015625)"/>
      <path id="DejaVuSans-51" d="M 3513 2113 
L 3513 0 
L 2938 0 
L 2938 2094 
Q 2938 2591 2744 2837 
Q 2550 3084 2163 3084 
Q 1697 3084 1428 2787 
Q 1159 2491 1159 1978 
L 1159 0 
L 581 0 
L 581 3500 
L 1159 3500 
L 1159 2956 
Q 1366 3272 1645 3428 
Q 1925 3584 2291 3584 
Q 2894 3584 3203 3211 
Q 3513 2838 3513 2113 
z
" transform="scale(0.015625)"/>
      <path id="DejaVuSans-48" d="M 3597 1894 
L 3597 1613 
L 953 1613 
Q 991 1019 1311 708 
Q 1631 397 2203 397 
Q 2534 397 2845 478 
Q 3156 559 3463 722 
L 3463 178 
Q 3153 47 2828 -22 
Q 2503 -91 2169 -91 
Q 1331 -91 842 396 
Q 353 884 353 1716 
Q 353 2575 817 3079 
Q 1281 3584 2069 3584 
Q 2775 3584 3186 3129 
Q 3597 2675 3597 1894 
z
M 3022 2063 
Q 3016 2534 2758 2815 
Q 2500 3097 2075 3097 
Q 1594 3097 1305 2825 
Q 1016 2553 972 2059 
L 3022 2063 
z
" transform="scale(0.015625)"/>
      <path id="DejaVuSans-57" d="M 1172 4494 
L 1172 3500 
L 2356 3500 
L 2356 3053 
L 1172 3053 
L 1172 1153 
Q 1172 725 1289 603 
Q 1406 481 1766 481 
L 2356 481 
L 2356 0 
L 1766 0 
Q 1100 0 847 248 
Q 594 497 594 1153 
L 594 3053 
L 172 3053 
L 172 3500 
L 594 3500 
L 594 4494 
L 1172 4494 
z
" transform="scale(0.015625)"/>
      <path id="DejaVuSans-4c" d="M 603 3500 
L 1178 3500 
L 1178 0 
L 603 0 
L 603 3500 
z
M 603 4863 
L 1178 4863 
L 1178 4134 
L 603 4134 
L 603 4863 
z
" transform="scale(0.015625)"/>
      <path id="DejaVuSans-44" d="M 2194 1759 
Q 1497 1759 1228 1600 
Q 959 1441 959 1056 
Q 959 750 1161 570 
Q 1363 391 1709 391 
Q 2188 391 2477 730 
Q 2766 1069 2766 1631 
L 2766 1759 
L 2194 1759 
z
M 3341 1997 
L 3341 0 
L 2766 0 
L 2766 531 
Q 2569 213 2275 61 
Q 1981 -91 1556 -91 
Q 1019 -91 701 211 
Q 384 513 384 1019 
Q 384 1609 779 1909 
Q 1175 2209 1959 2209 
L 2766 2209 
L 2766 2266 
Q 2766 2663 2505 2880 
Q 2244 3097 1772 3097 
Q 1472 3097 1187 3025 
Q 903 2953 641 2809 
L 641 3341 
Q 956 3463 1253 3523 
Q 1550 3584 1831 3584 
Q 2591 3584 2966 3190 
Q 3341 2797 3341 1997 
z
" transform="scale(0.015625)"/>
      <path id="DejaVuSans-4f" d="M 603 4863 
L 1178 4863 
L 1178 0 
L 603 0 
L 603 4863 
z
" transform="scale(0.015625)"/>
     </defs>
     <use xlink:href="#DejaVuSans-28"/>
     <use xlink:href="#DejaVuSans-5b" transform="translate(63.1875 0)"/>
     <use xlink:href="#DejaVuSans-53" transform="translate(122.375 0)"/>
     <use xlink:href="#DejaVuSans-52" transform="translate(185.859375 0)"/>
     <use xlink:href="#DejaVuSans-51" transform="translate(247.046875 0)"/>
     <use xlink:href="#DejaVuSans-48" transform="translate(310.421875 0)"/>
     <use xlink:href="#DejaVuSans-51" transform="translate(371.953125 0)"/>
     <use xlink:href="#DejaVuSans-57" transform="translate(435.328125 0)"/>
     <use xlink:href="#DejaVuSans-4c" transform="translate(474.53125 0)"/>
     <use xlink:href="#DejaVuSans-44" transform="translate(502.3125 0)"/>
     <use xlink:href="#DejaVuSans-4f" transform="translate(563.59375 0)"/>
    </g>
   </g>
  </g>
 </g>
 <defs>
  <clipPath id="pced8536873">
   <rect x="44.103906" y="23.558281" width="300.997656" height="161.4"/>
  </clipPath>
 </defs>
</svg>
