<?xml version="1.0" encoding="utf-8" standalone="no"?>
<!DOCTYPE svg PUBLIC "-//W3C//DTD SVG 1.1//EN"
  "http://www.w3.org/Graphics/SVG/1.1/DTD/svg11.dtd">
<svg xmlns:xlink="http://www.w3.org/1999/xlink" width="352.301562pt" height="223.2pt" viewBox="0 0 352.301562 223.2" xmlns="http://www.w3.org/2000/svg" version="1.1">
 <metadata>
  <rdf:RDF xmlns:dc="http://purl.org/dc/elements/1.1/" xmlns:cc="http://creativecommons.org/ns#" xmlns:rdf="http://www.w3.org/1999/02/22-rdf-syntax-ns#">
   <cc:Work>
    <dc:type rdf:resource="http://purl.org/dc/dcmitype/StillImage"/>
    <dc:date>2026-07-05T02:24:31.422554</dc:date>
    <dc:format>image/svg+xml</dc:format>
    <dc:creator>
     <cc:Agent>
      <dc:title>Matplotlib v3.11.0, https://matplotlib.org/</dc:title>
     </cc:Agent>
    </dc:creator>
   </cc:Work>
  </rdf:RDF>
 </metadata>
 <defs>
  <style type="text/css">*{stroke-linejoin: round; stroke-linecap: butt}</style>
 </defs>
 <g id="figure_1">
  <g id="patch_1">
   <path d="M 0 223.2 
L 352.301562 223.2 
L 352.301562 0 
L 0 0 
z
" style="fill: #ffffff"/>
  </g>
  <g id="axes_1">
   <g id="patch_2">
    <path d="M 44.103906 185 
L 345.101562 185 
L 345.101562 23.557422 
L 44.103906 23.557422 
z
" style="fill: #ffffff"/>
   </g>
   <g id="FillBetweenPolyCollection_1">
    <defs>
     <path id="mba73a6b062" d="M 57.785618 -45.538299 
L 57.785618 -59.34488 
L 58.471418 -73.457766 
L 59.157218 -88.216993 
L 59.843018 -102.657611 
L 60.528818 -116.270161 
L 61.214618 -128.78493 
L 61.900418 -140.072662 
L 62.586218 -150.090522 
L 63.272019 -158.849832 
L 63.957819 -166.395683 
L 64.643619 -172.793625 
L 65.329419 -178.120781 
L 66.015219 -182.459867 
L 66.701019 -185.895167 
L 67.386819 -188.509839 
L 68.072619 -190.384158 
L 68.758419 -191.594407 
L 69.444219 -192.212226 
L 70.130019 -192.304279 
L 70.815819 -191.932153 
L 71.50162 -191.152401 
L 72.18742 -190.016697 
L 72.87322 -188.572053 
L 73.55902 -186.861078 
L 74.24482 -184.922266 
L 74.93062 -182.790283 
L 75.61642 -180.496259 
L 76.30222 -178.068076 
L 76.98802 -175.53064 
L 77.67382 -172.90614 
L 78.35962 -170.214293 
L 79.04542 -167.472575 
L 79.731221 -164.696427 
L 80.417021 -161.899457 
L 81.102821 -159.093614 
L 81.788621 -156.289357 
L 82.474421 -153.495804 
L 83.160221 -150.720867 
L 83.846021 -147.971382 
L 84.531821 -145.253216 
L 85.217621 -142.571375 
L 85.903421 -139.930093 
L 86.589221 -137.33292 
L 87.275021 -134.782792 
L 87.960822 -132.282106 
L 88.646622 -129.832777 
L 89.332422 -127.436295 
L 90.018222 -125.093775 
L 90.704022 -122.806 
L 91.389822 -120.573463 
L 92.075622 -118.396404 
L 92.761422 -116.274838 
L 93.447222 -114.208589 
L 94.133022 -112.197311 
L 94.818822 -110.240515 
L 95.504622 -108.337588 
L 96.190423 -106.48781 
L 96.876223 -104.690373 
L 97.562023 -102.944392 
L 98.247823 -101.248923 
L 98.933623 -99.602969 
L 99.619423 -98.005493 
L 100.305223 -96.455427 
L 100.991023 -94.951679 
L 101.676823 -93.493141 
L 102.362623 -92.078694 
L 103.048423 -90.707212 
L 103.734223 -89.377571 
L 104.420024 -88.08865 
L 105.105824 -86.839334 
L 105.791624 -85.628517 
L 106.477424 -84.455108 
L 107.163224 -83.31803 
L 107.849024 -82.216222 
L 108.534824 -81.148641 
L 109.220624 -80.114265 
L 109.906424 -79.112091 
L 110.592224 -78.141138 
L 111.278024 -77.200447 
L 111.963824 -76.289082 
L 112.649625 -75.40613 
L 113.335425 -74.5507 
L 114.021225 -73.721925 
L 114.707025 -72.918962 
L 115.392825 -72.140989 
L 116.078625 -71.38721 
L 116.764425 -70.656848 
L 117.450225 -69.949152 
L 118.136025 -69.263393 
L 118.821825 -68.59886 
L 119.507625 -67.954869 
L 120.193425 -67.330753 
L 120.879225 -66.725868 
L 121.565026 -66.139588 
L 122.250826 -65.571308 
L 122.936626 -65.020444 
L 123.622426 -64.486427 
L 124.308226 -63.968709 
L 124.994026 -63.46676 
L 125.679826 -62.980065 
L 126.365626 -62.508128 
L 127.051426 -62.050469 
L 127.737226 -61.606623 
L 128.423026 -61.176141 
L 129.108826 -60.758589 
L 129.794627 -60.353547 
L 130.480427 -59.960609 
L 131.166227 -59.579384 
L 131.852027 -59.209493 
L 132.537827 -58.85057 
L 133.223627 -58.50226 
L 133.909427 -58.164222 
L 134.595227 -57.836125 
L 135.281027 -57.51765 
L 135.966827 -57.20849 
L 136.652627 -56.908345 
L 137.338427 -56.616928 
L 138.024228 -56.33396 
L 138.710028 -56.059174 
L 139.395828 -55.792308 
L 140.081628 -55.533113 
L 140.767428 -55.281345 
L 141.453228 -55.03677 
L 142.139028 -54.799162 
L 142.824828 -54.568302 
L 143.510628 -54.343979 
L 144.196428 -54.125988 
L 144.882228 -53.914131 
L 145.568028 -53.708218 
L 146.253829 -53.508065 
L 146.939629 -53.313492 
L 147.625429 -53.124328 
L 148.311229 -52.940406 
L 148.997029 -52.761565 
L 149.682829 -52.587649 
L 150.368629 -52.418508 
L 151.054429 -52.253996 
L 151.740229 -52.093972 
L 152.426029 -51.9383 
L 153.111829 -51.786848 
L 153.797629 -51.639489 
L 154.48343 -51.496101 
L 155.16923 -51.356563 
L 155.85503 -51.220761 
L 156.54083 -51.088583 
L 157.22663 -50.959922 
L 157.91243 -50.834672 
L 158.59823 -50.712733 
L 159.28403 -50.594008 
L 159.96983 -50.478401 
L 160.65563 -50.365821 
L 161.34143 -50.25618 
L 162.02723 -50.149392 
L 162.713031 -50.045373 
L 163.398831 -49.944044 
L 164.084631 -49.845327 
L 164.770431 -49.749146 
L 165.456231 -49.655429 
L 166.142031 -49.564104 
L 166.827831 -49.475103 
L 167.513631 -49.388361 
L 168.199431 -49.303812 
L 168.885231 -49.221394 
L 169.571031 -49.141048 
L 170.256831 -49.062715 
L 170.942632 -48.986339 
L 171.628432 -48.911863 
L 172.314232 -48.839236 
L 173.000032 -48.768406 
L 173.685832 -48.699323 
L 174.371632 -48.631939 
L 175.057432 -48.566206 
L 175.743232 -48.502079 
L 176.429032 -48.439514 
L 177.114832 -48.378469 
L 177.800632 -48.318901 
L 178.486432 -48.260771 
L 179.172233 -48.204039 
L 179.858033 -48.148668 
L 180.543833 -48.094621 
L 181.229633 -48.041863 
L 181.915433 -47.990358 
L 182.601233 -47.940073 
L 183.287033 -47.890976 
L 183.972833 -47.843035 
L 184.658633 -47.796219 
L 185.344433 -47.750499 
L 186.030233 -47.705846 
L 186.716033 -47.662231 
L 187.401834 -47.619628 
L 188.087634 -47.57801 
L 188.773434 -47.537352 
L 189.459234 -47.497627 
L 190.145034 -47.458813 
L 190.830834 -47.420886 
L 191.516634 -47.383822 
L 192.202434 -47.347601 
L 192.888234 -47.312199 
L 193.574034 -47.277596 
L 194.259834 -47.243772 
L 194.945634 -47.210707 
L 195.631434 -47.178382 
L 196.317235 -47.146778 
L 197.003035 -47.115877 
L 197.688835 -47.085661 
L 198.374635 -47.056113 
L 199.060435 -47.027217 
L 199.746235 -46.998956 
L 200.432035 -46.971314 
L 201.117835 -46.944276 
L 201.803635 -46.917828 
L 202.489435 -46.891954 
L 203.175235 -46.866641 
L 203.861035 -46.841874 
L 204.546836 -46.817641 
L 205.232636 -46.793928 
L 205.918436 -46.770724 
L 206.604236 -46.748014 
L 207.290036 -46.725789 
L 207.975836 -46.704035 
L 208.661636 -46.682742 
L 209.347436 -46.661898 
L 210.033236 -46.641494 
L 210.719036 -46.621517 
L 211.404836 -46.601959 
L 212.090636 -46.582809 
L 212.776437 -46.564058 
L 213.462237 -46.545696 
L 214.148037 -46.527714 
L 214.833837 -46.510103 
L 215.519637 -46.492855 
L 216.205437 -46.475961 
L 216.891237 -46.459413 
L 217.577037 -46.443203 
L 218.262837 -46.427322 
L 218.948637 -46.411764 
L 219.634437 -46.396521 
L 220.320237 -46.381586 
L 221.006038 -46.366952 
L 221.691838 -46.352611 
L 222.377638 -46.338558 
L 223.063438 -46.324785 
L 223.749238 -46.311287 
L 224.435038 -46.298057 
L 225.120838 -46.285089 
L 225.806638 -46.272377 
L 226.492438 -46.259916 
L 227.178238 -46.247699 
L 227.864038 -46.235722 
L 228.549838 -46.223979 
L 229.235639 -46.212465 
L 229.921439 -46.201175 
L 230.607239 -46.190104 
L 231.293039 -46.179247 
L 231.978839 -46.168599 
L 232.664639 -46.158157 
L 233.350439 -46.147914 
L 234.036239 -46.137868 
L 234.722039 -46.128013 
L 235.407839 -46.118346 
L 236.093639 -46.108863 
L 236.779439 -46.099559 
L 237.46524 -46.090431 
L 238.15104 -46.081475 
L 238.83684 -46.072687 
L 239.52264 -46.064064 
L 240.20844 -46.055602 
L 240.89424 -46.047298 
L 241.58004 -46.039149 
L 242.26584 -46.03115 
L 242.95164 -46.0233 
L 243.63744 -46.015595 
L 244.32324 -46.008031 
L 245.00904 -46.000606 
L 245.694841 -45.993318 
L 246.380641 -45.986162 
L 247.066441 -45.979137 
L 247.752241 -45.97224 
L 248.438041 -45.965468 
L 249.123841 -45.958818 
L 249.809641 -45.952289 
L 250.495441 -45.945877 
L 251.181241 -45.93958 
L 251.867041 -45.933395 
L 252.552841 -45.927322 
L 253.238641 -45.921356 
L 253.924442 -45.915497 
L 254.610242 -45.909742 
L 255.296042 -45.904088 
L 255.981842 -45.898534 
L 256.667642 -45.893078 
L 257.353442 -45.887718 
L 258.039242 -45.882452 
L 258.725042 -45.877278 
L 259.410842 -45.872194 
L 260.096642 -45.867198 
L 260.782442 -45.862289 
L 261.468242 -45.857465 
L 262.154043 -45.852725 
L 262.839843 -45.848066 
L 263.525643 -45.843487 
L 264.211443 -45.838987 
L 264.897243 -45.834564 
L 265.583043 -45.830216 
L 266.268843 -45.825942 
L 266.954643 -45.821741 
L 267.640443 -45.817611 
L 268.326243 -45.813551 
L 269.012043 -45.809559 
L 269.697843 -45.805634 
L 270.383644 -45.801776 
L 271.069444 -45.797982 
L 271.755244 -45.794251 
L 272.441044 -45.790583 
L 273.126844 -45.786975 
L 273.812644 -45.783428 
L 274.498444 -45.779939 
L 275.184244 -45.776508 
L 275.870044 -45.773133 
L 276.555844 -45.769814 
L 277.241644 -45.766549 
L 277.927444 -45.763338 
L 278.613244 -45.760179 
L 279.299045 -45.757071 
L 279.984845 -45.754015 
L 280.670645 -45.751007 
L 281.356445 -45.748049 
L 282.042245 -45.745138 
L 282.728045 -45.742274 
L 283.413845 -45.739456 
L 284.099645 -45.736683 
L 284.785445 -45.733955 
L 285.471245 -45.73127 
L 286.157045 -45.728628 
L 286.842845 -45.726028 
L 287.528646 -45.723469 
L 288.214446 -45.720951 
L 288.900246 -45.718472 
L 289.586046 -45.716033 
L 290.271846 -45.713632 
L 290.957646 -45.711268 
L 291.643446 -45.708942 
L 292.329246 -45.706652 
L 293.015046 -45.704397 
L 293.700846 -45.702178 
L 294.386646 -45.699993 
L 295.072446 -45.697842 
L 295.758247 -45.695724 
L 296.444047 -45.693639 
L 297.129847 -45.691586 
L 297.815647 -45.689564 
L 298.501447 -45.687573 
L 299.187247 -45.685613 
L 299.873047 -45.683683 
L 300.558847 -45.681782 
L 301.244647 -45.67991 
L 301.930447 -45.678066 
L 302.616247 -45.67625 
L 303.302047 -45.674462 
L 303.987848 -45.6727 
L 304.673648 -45.670965 
L 305.359448 -45.669256 
L 306.045248 -45.667573 
L 306.731048 -45.665914 
L 307.416848 -45.664281 
L 308.102648 -45.662671 
L 308.788448 -45.661086 
L 309.474248 -45.659524 
L 310.160048 -45.657985 
L 310.845848 -45.656469 
L 311.531648 -45.654975 
L 312.217449 -45.653503 
L 312.903249 -45.652053 
L 313.589049 -45.650624 
L 314.274849 -45.649216 
L 314.960649 -45.647828 
L 315.646449 -45.64646 
L 316.332249 -45.645112 
L 317.018049 -45.643784 
L 317.703849 -45.642475 
L 318.389649 -45.641185 
L 319.075449 -45.639913 
L 319.761249 -45.63866 
L 320.44705 -45.637425 
L 321.13285 -45.636207 
L 321.81865 -45.635007 
L 322.50445 -45.633824 
L 323.19025 -45.632657 
L 323.87605 -45.631507 
L 324.56185 -45.630374 
L 325.24765 -45.629256 
L 325.93345 -45.628154 
L 326.61925 -45.627068 
L 327.30505 -45.625997 
L 327.99085 -45.624941 
L 328.676651 -45.6239 
L 329.362451 -45.622873 
L 330.048251 -45.621861 
L 330.734051 -45.620863 
L 331.419851 -45.619878 
L 331.419851 -45.538299 
L 331.419851 -45.538299 
L 330.734051 -45.538299 
L 330.048251 -45.538299 
L 329.362451 -45.538299 
L 328.676651 -45.538299 
L 327.99085 -45.538299 
L 327.30505 -45.538299 
L 326.61925 -45.538299 
L 325.93345 -45.538299 
L 325.24765 -45.538299 
L 324.56185 -45.538299 
L 323.87605 -45.538299 
L 323.19025 -45.538299 
L 322.50445 -45.538299 
L 321.81865 -45.538299 
L 321.13285 -45.538299 
L 320.44705 -45.538299 
L 319.761249 -45.538299 
L 319.075449 -45.538299 
L 318.389649 -45.538299 
L 317.703849 -45.538299 
L 317.018049 -45.538299 
L 316.332249 -45.538299 
L 315.646449 -45.538299 
L 314.960649 -45.538299 
L 314.274849 -45.538299 
L 313.589049 -45.538299 
L 312.903249 -45.538299 
L 312.217449 -45.538299 
L 311.531648 -45.538299 
L 310.845848 -45.538299 
L 310.160048 -45.538299 
L 309.474248 -45.538299 
L 308.788448 -45.538299 
L 308.102648 -45.538299 
L 307.416848 -45.538299 
L 306.731048 -45.538299 
L 306.045248 -45.538299 
L 305.359448 -45.538299 
L 304.673648 -45.538299 
L 303.987848 -45.538299 
L 303.302047 -45.538299 
L 302.616247 -45.538299 
L 301.930447 -45.538299 
L 301.244647 -45.538299 
L 300.558847 -45.538299 
L 299.873047 -45.538299 
L 299.187247 -45.538299 
L 298.501447 -45.538299 
L 297.815647 -45.538299 
L 297.129847 -45.538299 
L 296.444047 -45.538299 
L 295.758247 -45.538299 
L 295.072446 -45.538299 
L 294.386646 -45.538299 
L 293.700846 -45.538299 
L 293.015046 -45.538299 
L 292.329246 -45.538299 
L 291.643446 -45.538299 
L 290.957646 -45.538299 
L 290.271846 -45.538299 
L 289.586046 -45.538299 
L 288.900246 -45.538299 
L 288.214446 -45.538299 
L 287.528646 -45.538299 
L 286.842845 -45.538299 
L 286.157045 -45.538299 
L 285.471245 -45.538299 
L 284.785445 -45.538299 
L 284.099645 -45.538299 
L 283.413845 -45.538299 
L 282.728045 -45.538299 
L 282.042245 -45.538299 
L 281.356445 -45.538299 
L 280.670645 -45.538299 
L 279.984845 -45.538299 
L 279.299045 -45.538299 
L 278.613244 -45.538299 
L 277.927444 -45.538299 
L 277.241644 -45.538299 
L 276.555844 -45.538299 
L 275.870044 -45.538299 
L 275.184244 -45.538299 
L 274.498444 -45.538299 
L 273.812644 -45.538299 
L 273.126844 -45.538299 
L 272.441044 -45.538299 
L 271.755244 -45.538299 
L 271.069444 -45.538299 
L 270.383644 -45.538299 
L 269.697843 -45.538299 
L 269.012043 -45.538299 
L 268.326243 -45.538299 
L 267.640443 -45.538299 
L 266.954643 -45.538299 
L 266.268843 -45.538299 
L 265.583043 -45.538299 
L 264.897243 -45.538299 
L 264.211443 -45.538299 
L 263.525643 -45.538299 
L 262.839843 -45.538299 
L 262.154043 -45.538299 
L 261.468242 -45.538299 
L 260.782442 -45.538299 
L 260.096642 -45.538299 
L 259.410842 -45.538299 
L 258.725042 -45.538299 
L 258.039242 -45.538299 
L 257.353442 -45.538299 
L 256.667642 -45.538299 
L 255.981842 -45.538299 
L 255.296042 -45.538299 
L 254.610242 -45.538299 
L 253.924442 -45.538299 
L 253.238641 -45.538299 
L 252.552841 -45.538299 
L 251.867041 -45.538299 
L 251.181241 -45.538299 
L 250.495441 -45.538299 
L 249.809641 -45.538299 
L 249.123841 -45.538299 
L 248.438041 -45.538299 
L 247.752241 -45.538299 
L 247.066441 -45.538299 
L 246.380641 -45.538299 
L 245.694841 -45.538299 
L 245.00904 -45.538299 
L 244.32324 -45.538299 
L 243.63744 -45.538299 
L 242.95164 -45.538299 
L 242.26584 -45.538299 
L 241.58004 -45.538299 
L 240.89424 -45.538299 
L 240.20844 -45.538299 
L 239.52264 -45.538299 
L 238.83684 -45.538299 
L 238.15104 -45.538299 
L 237.46524 -45.538299 
L 236.779439 -45.538299 
L 236.093639 -45.538299 
L 235.407839 -45.538299 
L 234.722039 -45.538299 
L 234.036239 -45.538299 
L 233.350439 -45.538299 
L 232.664639 -45.538299 
L 231.978839 -45.538299 
L 231.293039 -45.538299 
L 230.607239 -45.538299 
L 229.921439 -45.538299 
L 229.235639 -45.538299 
L 228.549838 -45.538299 
L 227.864038 -45.538299 
L 227.178238 -45.538299 
L 226.492438 -45.538299 
L 225.806638 -45.538299 
L 225.120838 -45.538299 
L 224.435038 -45.538299 
L 223.749238 -45.538299 
L 223.063438 -45.538299 
L 222.377638 -45.538299 
L 221.691838 -45.538299 
L 221.006038 -45.538299 
L 220.320237 -45.538299 
L 219.634437 -45.538299 
L 218.948637 -45.538299 
L 218.262837 -45.538299 
L 217.577037 -45.538299 
L 216.891237 -45.538299 
L 216.205437 -45.538299 
L 215.519637 -45.538299 
L 214.833837 -45.538299 
L 214.148037 -45.538299 
L 213.462237 -45.538299 
L 212.776437 -45.538299 
L 212.090636 -45.538299 
L 211.404836 -45.538299 
L 210.719036 -45.538299 
L 210.033236 -45.538299 
L 209.347436 -45.538299 
L 208.661636 -45.538299 
L 207.975836 -45.538299 
L 207.290036 -45.538299 
L 206.604236 -45.538299 
L 205.918436 -45.538299 
L 205.232636 -45.538299 
L 204.546836 -45.538299 
L 203.861035 -45.538299 
L 203.175235 -45.538299 
L 202.489435 -45.538299 
L 201.803635 -45.538299 
L 201.117835 -45.538299 
L 200.432035 -45.538299 
L 199.746235 -45.538299 
L 199.060435 -45.538299 
L 198.374635 -45.538299 
L 197.688835 -45.538299 
L 197.003035 -45.538299 
L 196.317235 -45.538299 
L 195.631434 -45.538299 
L 194.945634 -45.538299 
L 194.259834 -45.538299 
L 193.574034 -45.538299 
L 192.888234 -45.538299 
L 192.202434 -45.538299 
L 191.516634 -45.538299 
L 190.830834 -45.538299 
L 190.145034 -45.538299 
L 189.459234 -45.538299 
L 188.773434 -45.538299 
L 188.087634 -45.538299 
L 187.401834 -45.538299 
L 186.716033 -45.538299 
L 186.030233 -45.538299 
L 185.344433 -45.538299 
L 184.658633 -45.538299 
L 183.972833 -45.538299 
L 183.287033 -45.538299 
L 182.601233 -45.538299 
L 181.915433 -45.538299 
L 181.229633 -45.538299 
L 180.543833 -45.538299 
L 179.858033 -45.538299 
L 179.172233 -45.538299 
L 178.486432 -45.538299 
L 177.800632 -45.538299 
L 177.114832 -45.538299 
L 176.429032 -45.538299 
L 175.743232 -45.538299 
L 175.057432 -45.538299 
L 174.371632 -45.538299 
L 173.685832 -45.538299 
L 173.000032 -45.538299 
L 172.314232 -45.538299 
L 171.628432 -45.538299 
L 170.942632 -45.538299 
L 170.256831 -45.538299 
L 169.571031 -45.538299 
L 168.885231 -45.538299 
L 168.199431 -45.538299 
L 167.513631 -45.538299 
L 166.827831 -45.538299 
L 166.142031 -45.538299 
L 165.456231 -45.538299 
L 164.770431 -45.538299 
L 164.084631 -45.538299 
L 163.398831 -45.538299 
L 162.713031 -45.538299 
L 162.02723 -45.538299 
L 161.34143 -45.538299 
L 160.65563 -45.538299 
L 159.96983 -45.538299 
L 159.28403 -45.538299 
L 158.59823 -45.538299 
L 157.91243 -45.538299 
L 157.22663 -45.538299 
L 156.54083 -45.538299 
L 155.85503 -45.538299 
L 155.16923 -45.538299 
L 154.48343 -45.538299 
L 153.797629 -45.538299 
L 153.111829 -45.538299 
L 152.426029 -45.538299 
L 151.740229 -45.538299 
L 151.054429 -45.538299 
L 150.368629 -45.538299 
L 149.682829 -45.538299 
L 148.997029 -45.538299 
L 148.311229 -45.538299 
L 147.625429 -45.538299 
L 146.939629 -45.538299 
L 146.253829 -45.538299 
L 145.568028 -45.538299 
L 144.882228 -45.538299 
L 144.196428 -45.538299 
L 143.510628 -45.538299 
L 142.824828 -45.538299 
L 142.139028 -45.538299 
L 141.453228 -45.538299 
L 140.767428 -45.538299 
L 140.081628 -45.538299 
L 139.395828 -45.538299 
L 138.710028 -45.538299 
L 138.024228 -45.538299 
L 137.338427 -45.538299 
L 136.652627 -45.538299 
L 135.966827 -45.538299 
L 135.281027 -45.538299 
L 134.595227 -45.538299 
L 133.909427 -45.538299 
L 133.223627 -45.538299 
L 132.537827 -45.538299 
L 131.852027 -45.538299 
L 131.166227 -45.538299 
L 130.480427 -45.538299 
L 129.794627 -45.538299 
L 129.108826 -45.538299 
L 128.423026 -45.538299 
L 127.737226 -45.538299 
L 127.051426 -45.538299 
L 126.365626 -45.538299 
L 125.679826 -45.538299 
L 124.994026 -45.538299 
L 124.308226 -45.538299 
L 123.622426 -45.538299 
L 122.936626 -45.538299 
L 122.250826 -45.538299 
L 121.565026 -45.538299 
L 120.879225 -45.538299 
L 120.193425 -45.538299 
L 119.507625 -45.538299 
L 118.821825 -45.538299 
L 118.136025 -45.538299 
L 117.450225 -45.538299 
L 116.764425 -45.538299 
L 116.078625 -45.538299 
L 115.392825 -45.538299 
L 114.707025 -45.538299 
L 114.021225 -45.538299 
L 113.335425 -45.538299 
L 112.649625 -45.538299 
L 111.963824 -45.538299 
L 111.278024 -45.538299 
L 110.592224 -45.538299 
L 109.906424 -45.538299 
L 109.220624 -45.538299 
L 108.534824 -45.538299 
L 107.849024 -45.538299 
L 107.163224 -45.538299 
L 106.477424 -45.538299 
L 105.791624 -45.538299 
L 105.105824 -45.538299 
L 104.420024 -45.538299 
L 103.734223 -45.538299 
L 103.048423 -45.538299 
L 102.362623 -45.538299 
L 101.676823 -45.538299 
L 100.991023 -45.538299 
L 100.305223 -45.538299 
L 99.619423 -45.538299 
L 98.933623 -45.538299 
L 98.247823 -45.538299 
L 97.562023 -45.538299 
L 96.876223 -45.538299 
L 96.190423 -45.538299 
L 95.504622 -45.538299 
L 94.818822 -45.538299 
L 94.133022 -45.538299 
L 93.447222 -45.538299 
L 92.761422 -45.538299 
L 92.075622 -45.538299 
L 91.389822 -45.538299 
L 90.704022 -45.538299 
L 90.018222 -45.538299 
L 89.332422 -45.538299 
L 88.646622 -45.538299 
L 87.960822 -45.538299 
L 87.275021 -45.538299 
L 86.589221 -45.538299 
L 85.903421 -45.538299 
L 85.217621 -45.538299 
L 84.531821 -45.538299 
L 83.846021 -45.538299 
L 83.160221 -45.538299 
L 82.474421 -45.538299 
L 81.788621 -45.538299 
L 81.102821 -45.538299 
L 80.417021 -45.538299 
L 79.731221 -45.538299 
L 79.04542 -45.538299 
L 78.35962 -45.538299 
L 77.67382 -45.538299 
L 76.98802 -45.538299 
L 76.30222 -45.538299 
L 75.61642 -45.538299 
L 74.93062 -45.538299 
L 74.24482 -45.538299 
L 73.55902 -45.538299 
L 72.87322 -45.538299 
L 72.18742 -45.538299 
L 71.50162 -45.538299 
L 70.815819 -45.538299 
L 70.130019 -45.538299 
L 69.444219 -45.538299 
L 68.758419 -45.538299 
L 68.072619 -45.538299 
L 67.386819 -45.538299 
L 66.701019 -45.538299 
L 66.015219 -45.538299 
L 65.329419 -45.538299 
L 64.643619 -45.538299 
L 63.957819 -45.538299 
L 63.272019 -45.538299 
L 62.586218 -45.538299 
L 61.900418 -45.538299 
L 61.214618 -45.538299 
L 60.528818 -45.538299 
L 59.843018 -45.538299 
L 59.157218 -45.538299 
L 58.471418 -45.538299 
L 57.785618 -45.538299 
z
" style="stroke: #4c78a8; stroke-opacity: 0.15"/>
    </defs>
    <g clip-path="url(#p956f65151b)">
     <use xlink:href="#mba73a6b062" x="0" y="223.2" style="fill: #4c78a8; fill-opacity: 0.15; stroke: #4c78a8; stroke-opacity: 0.15"/>
    </g>
   </g>
   <g id="matplotlib.axis_1">
    <g id="xtick_1">
     <g id="line2d_1">
      <path d="M 56.812195 185 
L 56.812195 23.557422 
" clip-path="url(#p956f65151b)" style="fill: none; stroke: #b0b0b0; stroke-opacity: 0.25; stroke-width: 0.6; stroke-linecap: square"/>
     </g>
     <g id="line2d_2">
      <defs>
       <path id="mbbd8b27180" d="M 0 0 
L 0 3.5 
" style="stroke: #000000; stroke-width: 0.8"/>
      </defs>
      <g>
       <use xlink:href="#mbbd8b27180" x="56.812195" y="185" style="stroke: #000000; stroke-width: 0.8"/>
      </g>
     </g>
     <g id="text_1">
      <!-- 0 -->
      <g transform="translate(53.630945 199.597656) scale(0.1 -0.1)">
       <defs>
        <path id="DejaVuSans-13" d="M 2034 4250 
Q 1547 4250 1301 3770 
Q 1056 3291 1056 2328 
Q 1056 1369 1301 889 
Q 1547 409 2034 409 
Q 2525 409 2770 889 
Q 3016 1369 3016 2328 
Q 3016 3291 2770 3770 
Q 2525 4250 2034 4250 
z
M 2034 4750 
Q 2819 4750 3233 4129 
Q 3647 3509 3647 2328 
Q 3647 1150 3233 529 
Q 2819 -91 2034 -91 
Q 1250 -91 836 529 
Q 422 1150 422 2328 
Q 422 3509 836 4129 
Q 1250 4750 2034 4750 
z
" transform="scale(0.015625)"/>
       </defs>
       <use xlink:href="#DejaVuSans-13"/>
      </g>
     </g>
    </g>
    <g id="xtick_2">
     <g id="line2d_3">
      <path d="M 109.214623 185 
L 109.214623 23.557422 
" clip-path="url(#p956f65151b)" style="fill: none; stroke: #b0b0b0; stroke-opacity: 0.25; stroke-width: 0.6; stroke-linecap: square"/>
     </g>
     <g id="line2d_4">
      <g>
       <use xlink:href="#mbbd8b27180" x="109.214623" y="185" style="stroke: #000000; stroke-width: 0.8"/>
      </g>
     </g>
     <g id="text_2">
      <!-- 2 -->
      <g transform="translate(106.033373 199.597656) scale(0.1 -0.1)">
       <defs>
        <path id="DejaVuSans-15" d="M 1228 531 
L 3431 531 
L 3431 0 
L 469 0 
L 469 531 
Q 828 903 1448 1529 
Q 2069 2156 2228 2338 
Q 2531 2678 2651 2914 
Q 2772 3150 2772 3378 
Q 2772 3750 2511 3984 
Q 2250 4219 1831 4219 
Q 1534 4219 1204 4116 
Q 875 4013 500 3803 
L 500 4441 
Q 881 4594 1212 4672 
Q 1544 4750 1819 4750 
Q 2544 4750 2975 4387 
Q 3406 4025 3406 3419 
Q 3406 3131 3298 2873 
Q 3191 2616 2906 2266 
Q 2828 2175 2409 1742 
Q 1991 1309 1228 531 
z
" transform="scale(0.015625)"/>
       </defs>
       <use xlink:href="#DejaVuSans-15"/>
      </g>
     </g>
    </g>
    <g id="xtick_3">
     <g id="line2d_5">
      <path d="M 161.617052 185 
L 161.617052 23.557422 
" clip-path="url(#p956f65151b)" style="fill: none; stroke: #b0b0b0; stroke-opacity: 0.25; stroke-width: 0.6; stroke-linecap: square"/>
     </g>
     <g id="line2d_6">
      <g>
       <use xlink:href="#mbbd8b27180" x="161.617052" y="185" style="stroke: #000000; stroke-width: 0.8"/>
      </g>
     </g>
     <g id="text_3">
      <!-- 4 -->
      <g transform="translate(158.435802 199.597656) scale(0.1 -0.1)">
       <defs>
        <path id="DejaVuSans-17" d="M 2419 4116 
L 825 1625 
L 2419 1625 
L 2419 4116 
z
M 2253 4666 
L 3047 4666 
L 3047 1625 
L 3713 1625 
L 3713 1100 
L 3047 1100 
L 3047 0 
L 2419 0 
L 2419 1100 
L 313 1100 
L 313 1709 
L 2253 4666 
z
" transform="scale(0.015625)"/>
       </defs>
       <use xlink:href="#DejaVuSans-17"/>
      </g>
     </g>
    </g>
    <g id="xtick_4">
     <g id="line2d_7">
      <path d="M 214.019481 185 
L 214.019481 23.557422 
" clip-path="url(#p956f65151b)" style="fill: none; stroke: #b0b0b0; stroke-opacity: 0.25; stroke-width: 0.6; stroke-linecap: square"/>
     </g>
     <g id="line2d_8">
      <g>
       <use xlink:href="#mbbd8b27180" x="214.019481" y="185" style="stroke: #000000; stroke-width: 0.8"/>
      </g>
     </g>
     <g id="text_4">
      <!-- 6 -->
      <g transform="translate(210.838231 199.597656) scale(0.1 -0.1)">
       <defs>
        <path id="DejaVuSans-19" d="M 2113 2584 
Q 1688 2584 1439 2293 
Q 1191 2003 1191 1497 
Q 1191 994 1439 701 
Q 1688 409 2113 409 
Q 2538 409 2786 701 
Q 3034 994 3034 1497 
Q 3034 2003 2786 2293 
Q 2538 2584 2113 2584 
z
M 3366 4563 
L 3366 3988 
Q 3128 4100 2886 4159 
Q 2644 4219 2406 4219 
Q 1781 4219 1451 3797 
Q 1122 3375 1075 2522 
Q 1259 2794 1537 2939 
Q 1816 3084 2150 3084 
Q 2853 3084 3261 2657 
Q 3669 2231 3669 1497 
Q 3669 778 3244 343 
Q 2819 -91 2113 -91 
Q 1303 -91 875 529 
Q 447 1150 447 2328 
Q 447 3434 972 4092 
Q 1497 4750 2381 4750 
Q 2619 4750 2861 4703 
Q 3103 4656 3366 4563 
z
" transform="scale(0.015625)"/>
       </defs>
       <use xlink:href="#DejaVuSans-19"/>
      </g>
     </g>
    </g>
    <g id="xtick_5">
     <g id="line2d_9">
      <path d="M 266.42191 185 
L 266.42191 23.557422 
" clip-path="url(#p956f65151b)" style="fill: none; stroke: #b0b0b0; stroke-opacity: 0.25; stroke-width: 0.6; stroke-linecap: square"/>
     </g>
     <g id="line2d_10">
      <g>
       <use xlink:href="#mbbd8b27180" x="266.42191" y="185" style="stroke: #000000; stroke-width: 0.8"/>
      </g>
     </g>
     <g id="text_5">
      <!-- 8 -->
      <g transform="translate(263.24066 199.597656) scale(0.1 -0.1)">
       <defs>
        <path id="DejaVuSans-1b" d="M 2034 2216 
Q 1584 2216 1326 1975 
Q 1069 1734 1069 1313 
Q 1069 891 1326 650 
Q 1584 409 2034 409 
Q 2484 409 2743 651 
Q 3003 894 3003 1313 
Q 3003 1734 2745 1975 
Q 2488 2216 2034 2216 
z
M 1403 2484 
Q 997 2584 770 2862 
Q 544 3141 544 3541 
Q 544 4100 942 4425 
Q 1341 4750 2034 4750 
Q 2731 4750 3128 4425 
Q 3525 4100 3525 3541 
Q 3525 3141 3298 2862 
Q 3072 2584 2669 2484 
Q 3125 2378 3379 2068 
Q 3634 1759 3634 1313 
Q 3634 634 3220 271 
Q 2806 -91 2034 -91 
Q 1263 -91 848 271 
Q 434 634 434 1313 
Q 434 1759 690 2068 
Q 947 2378 1403 2484 
z
M 1172 3481 
Q 1172 3119 1398 2916 
Q 1625 2713 2034 2713 
Q 2441 2713 2670 2916 
Q 2900 3119 2900 3481 
Q 2900 3844 2670 4047 
Q 2441 4250 2034 4250 
Q 1625 4250 1398 4047 
Q 1172 3844 1172 3481 
z
" transform="scale(0.015625)"/>
       </defs>
       <use xlink:href="#DejaVuSans-1b"/>
      </g>
     </g>
    </g>
    <g id="xtick_6">
     <g id="line2d_11">
      <path d="M 318.824338 185 
L 318.824338 23.557422 
" clip-path="url(#p956f65151b)" style="fill: none; stroke: #b0b0b0; stroke-opacity: 0.25; stroke-width: 0.6; stroke-linecap: square"/>
     </g>
     <g id="line2d_12">
      <g>
       <use xlink:href="#mbbd8b27180" x="318.824338" y="185" style="stroke: #000000; stroke-width: 0.8"/>
      </g>
     </g>
     <g id="text_6">
      <!-- 10 -->
      <g transform="translate(312.461838 199.597656) scale(0.1 -0.1)">
       <defs>
        <path id="DejaVuSans-14" d="M 794 531 
L 1825 531 
L 1825 4091 
L 703 3866 
L 703 4441 
L 1819 4666 
L 2450 4666 
L 2450 531 
L 3481 531 
L 3481 0 
L 794 0 
L 794 531 
z
" transform="scale(0.015625)"/>
       </defs>
       <use xlink:href="#DejaVuSans-14"/>
       <use xlink:href="#DejaVuSans-13" transform="translate(63.625 0)"/>
      </g>
     </g>
    </g>
    <g id="text_7">
     <!-- x -->
     <g transform="translate(191.643359 213.597656) scale(0.1 -0.1)">
      <defs>
       <path id="DejaVuSans-5b" d="M 3513 3500 
L 2247 1797 
L 3578 0 
L 2900 0 
L 1881 1375 
L 863 0 
L 184 0 
L 1544 1831 
L 300 3500 
L 978 3500 
L 1906 2253 
L 2834 3500 
L 3513 3500 
z
" transform="scale(0.015625)"/>
      </defs>
      <use xlink:href="#DejaVuSans-5b"/>
     </g>
    </g>
   </g>
   <g id="matplotlib.axis_2">
    <g id="ytick_1">
     <g id="line2d_13">
      <path d="M 44.103906 177.661701 
L 345.101562 177.661701 
" clip-path="url(#p956f65151b)" style="fill: none; stroke: #b0b0b0; stroke-opacity: 0.25; stroke-width: 0.6; stroke-linecap: square"/>
     </g>
     <g id="line2d_14">
      <defs>
       <path id="mfe502ce6ce" d="M 0 0 
L -3.5 0 
" style="stroke: #000000; stroke-width: 0.8"/>
      </defs>
      <g>
       <use xlink:href="#mfe502ce6ce" x="44.103906" y="177.661701" style="stroke: #000000; stroke-width: 0.8"/>
      </g>
     </g>
     <g id="text_8">
      <!-- 0.0 -->
      <g transform="translate(21.200781 181.460529) scale(0.1 -0.1)">
       <defs>
        <path id="DejaVuSans-11" d="M 684 794 
L 1344 794 
L 1344 0 
L 684 0 
L 684 794 
z
" transform="scale(0.015625)"/>
       </defs>
       <use xlink:href="#DejaVuSans-13"/>
       <use xlink:href="#DejaVuSans-11" transform="translate(63.625 0)"/>
       <use xlink:href="#DejaVuSans-13" transform="translate(95.40625 0)"/>
      </g>
     </g>
    </g>
    <g id="ytick_2">
     <g id="line2d_15">
      <path d="M 44.103906 156.313769 
L 345.101562 156.313769 
" clip-path="url(#p956f65151b)" style="fill: none; stroke: #b0b0b0; stroke-opacity: 0.25; stroke-width: 0.6; stroke-linecap: square"/>
     </g>
     <g id="line2d_16">
      <g>
       <use xlink:href="#mfe502ce6ce" x="44.103906" y="156.313769" style="stroke: #000000; stroke-width: 0.8"/>
      </g>
     </g>
     <g id="text_9">
      <!-- 0.1 -->
      <g transform="translate(21.200781 160.112597) scale(0.1 -0.1)">
       <use xlink:href="#DejaVuSans-13"/>
       <use xlink:href="#DejaVuSans-11" transform="translate(63.625 0)"/>
       <use xlink:href="#DejaVuSans-14" transform="translate(95.40625 0)"/>
      </g>
     </g>
    </g>
    <g id="ytick_3">
     <g id="line2d_17">
      <path d="M 44.103906 134.965837 
L 345.101562 134.965837 
" clip-path="url(#p956f65151b)" style="fill: none; stroke: #b0b0b0; stroke-opacity: 0.25; stroke-width: 0.6; stroke-linecap: square"/>
     </g>
     <g id="line2d_18">
      <g>
       <use xlink:href="#mfe502ce6ce" x="44.103906" y="134.965837" style="stroke: #000000; stroke-width: 0.8"/>
      </g>
     </g>
     <g id="text_10">
      <!-- 0.2 -->
      <g transform="translate(21.200781 138.764665) scale(0.1 -0.1)">
       <use xlink:href="#DejaVuSans-13"/>
       <use xlink:href="#DejaVuSans-11" transform="translate(63.625 0)"/>
       <use xlink:href="#DejaVuSans-15" transform="translate(95.40625 0)"/>
      </g>
     </g>
    </g>
    <g id="ytick_4">
     <g id="line2d_19">
      <path d="M 44.103906 113.617905 
L 345.101562 113.617905 
" clip-path="url(#p956f65151b)" style="fill: none; stroke: #b0b0b0; stroke-opacity: 0.25; stroke-width: 0.6; stroke-linecap: square"/>
     </g>
     <g id="line2d_20">
      <g>
       <use xlink:href="#mfe502ce6ce" x="44.103906" y="113.617905" style="stroke: #000000; stroke-width: 0.8"/>
      </g>
     </g>
     <g id="text_11">
      <!-- 0.3 -->
      <g transform="translate(21.200781 117.416734) scale(0.1 -0.1)">
       <defs>
        <path id="DejaVuSans-16" d="M 2597 2516 
Q 3050 2419 3304 2112 
Q 3559 1806 3559 1356 
Q 3559 666 3084 287 
Q 2609 -91 1734 -91 
Q 1441 -91 1130 -33 
Q 819 25 488 141 
L 488 750 
Q 750 597 1062 519 
Q 1375 441 1716 441 
Q 2309 441 2620 675 
Q 2931 909 2931 1356 
Q 2931 1769 2642 2001 
Q 2353 2234 1838 2234 
L 1294 2234 
L 1294 2753 
L 1863 2753 
Q 2328 2753 2575 2939 
Q 2822 3125 2822 3475 
Q 2822 3834 2567 4026 
Q 2313 4219 1838 4219 
Q 1578 4219 1281 4162 
Q 984 4106 628 3988 
L 628 4550 
Q 988 4650 1302 4700 
Q 1616 4750 1894 4750 
Q 2613 4750 3031 4423 
Q 3450 4097 3450 3541 
Q 3450 3153 3228 2886 
Q 3006 2619 2597 2516 
z
" transform="scale(0.015625)"/>
       </defs>
       <use xlink:href="#DejaVuSans-13"/>
       <use xlink:href="#DejaVuSans-11" transform="translate(63.625 0)"/>
       <use xlink:href="#DejaVuSans-16" transform="translate(95.40625 0)"/>
      </g>
     </g>
    </g>
    <g id="ytick_5">
     <g id="line2d_21">
      <path d="M 44.103906 92.269974 
L 345.101562 92.269974 
" clip-path="url(#p956f65151b)" style="fill: none; stroke: #b0b0b0; stroke-opacity: 0.25; stroke-width: 0.6; stroke-linecap: square"/>
     </g>
     <g id="line2d_22">
      <g>
       <use xlink:href="#mfe502ce6ce" x="44.103906" y="92.269974" style="stroke: #000000; stroke-width: 0.8"/>
      </g>
     </g>
     <g id="text_12">
      <!-- 0.4 -->
      <g transform="translate(21.200781 96.068802) scale(0.1 -0.1)">
       <use xlink:href="#DejaVuSans-13"/>
       <use xlink:href="#DejaVuSans-11" transform="translate(63.625 0)"/>
       <use xlink:href="#DejaVuSans-17" transform="translate(95.40625 0)"/>
      </g>
     </g>
    </g>
    <g id="ytick_6">
     <g id="line2d_23">
      <path d="M 44.103906 70.922042 
L 345.101562 70.922042 
" clip-path="url(#p956f65151b)" style="fill: none; stroke: #b0b0b0; stroke-opacity: 0.25; stroke-width: 0.6; stroke-linecap: square"/>
     </g>
     <g id="line2d_24">
      <g>
       <use xlink:href="#mfe502ce6ce" x="44.103906" y="70.922042" style="stroke: #000000; stroke-width: 0.8"/>
      </g>
     </g>
     <g id="text_13">
      <!-- 0.5 -->
      <g transform="translate(21.200781 74.72087) scale(0.1 -0.1)">
       <defs>
        <path id="DejaVuSans-18" d="M 691 4666 
L 3169 4666 
L 3169 4134 
L 1269 4134 
L 1269 2991 
Q 1406 3038 1543 3061 
Q 1681 3084 1819 3084 
Q 2600 3084 3056 2656 
Q 3513 2228 3513 1497 
Q 3513 744 3044 326 
Q 2575 -91 1722 -91 
Q 1428 -91 1123 -41 
Q 819 9 494 109 
L 494 744 
Q 775 591 1075 516 
Q 1375 441 1709 441 
Q 2250 441 2565 725 
Q 2881 1009 2881 1497 
Q 2881 1984 2565 2268 
Q 2250 2553 1709 2553 
Q 1456 2553 1204 2497 
Q 953 2441 691 2322 
L 691 4666 
z
" transform="scale(0.015625)"/>
       </defs>
       <use xlink:href="#DejaVuSans-13"/>
       <use xlink:href="#DejaVuSans-11" transform="translate(63.625 0)"/>
       <use xlink:href="#DejaVuSans-18" transform="translate(95.40625 0)"/>
      </g>
     </g>
    </g>
    <g id="ytick_7">
     <g id="line2d_25">
      <path d="M 44.103906 49.57411 
L 345.101562 49.57411 
" clip-path="url(#p956f65151b)" style="fill: none; stroke: #b0b0b0; stroke-opacity: 0.25; stroke-width: 0.6; stroke-linecap: square"/>
     </g>
     <g id="line2d_26">
      <g>
       <use xlink:href="#mfe502ce6ce" x="44.103906" y="49.57411" style="stroke: #000000; stroke-width: 0.8"/>
      </g>
     </g>
     <g id="text_14">
      <!-- 0.6 -->
      <g transform="translate(21.200781 53.372938) scale(0.1 -0.1)">
       <use xlink:href="#DejaVuSans-13"/>
       <use xlink:href="#DejaVuSans-11" transform="translate(63.625 0)"/>
       <use xlink:href="#DejaVuSans-19" transform="translate(95.40625 0)"/>
      </g>
     </g>
    </g>
    <g id="ytick_8">
     <g id="line2d_27">
      <path d="M 44.103906 28.226178 
L 345.101562 28.226178 
" clip-path="url(#p956f65151b)" style="fill: none; stroke: #b0b0b0; stroke-opacity: 0.25; stroke-width: 0.6; stroke-linecap: square"/>
     </g>
     <g id="line2d_28">
      <g>
       <use xlink:href="#mfe502ce6ce" x="44.103906" y="28.226178" style="stroke: #000000; stroke-width: 0.8"/>
      </g>
     </g>
     <g id="text_15">
      <!-- 0.7 -->
      <g transform="translate(21.200781 32.025006) scale(0.1 -0.1)">
       <defs>
        <path id="DejaVuSans-1a" d="M 525 4666 
L 3525 4666 
L 3525 4397 
L 1831 0 
L 1172 0 
L 2766 4134 
L 525 4134 
L 525 4666 
z
" transform="scale(0.015625)"/>
       </defs>
       <use xlink:href="#DejaVuSans-13"/>
       <use xlink:href="#DejaVuSans-11" transform="translate(63.625 0)"/>
       <use xlink:href="#DejaVuSans-1a" transform="translate(95.40625 0)"/>
      </g>
     </g>
    </g>
    <g id="text_16">
     <!-- f(x) -->
     <g transform="translate(14.798438 112.899805) rotate(-90) scale(0.1 -0.1)">
      <defs>
       <path id="DejaVuSans-49" d="M 2375 4863 
L 2375 4384 
L 1825 4384 
Q 1516 4384 1395 4259 
Q 1275 4134 1275 3809 
L 1275 3500 
L 2222 3500 
L 2222 3053 
L 1275 3053 
L 1275 0 
L 697 0 
L 697 3053 
L 147 3053 
L 147 3500 
L 697 3500 
L 697 3744 
Q 697 4328 969 4595 
Q 1241 4863 1831 4863 
L 2375 4863 
z
" transform="scale(0.015625)"/>
       <path id="DejaVuSans-b" d="M 1984 4856 
Q 1566 4138 1362 3434 
Q 1159 2731 1159 2009 
Q 1159 1288 1364 580 
Q 1569 -128 1984 -844 
L 1484 -844 
Q 1016 -109 783 600 
Q 550 1309 550 2009 
Q 550 2706 781 3412 
Q 1013 4119 1484 4856 
L 1984 4856 
z
" transform="scale(0.015625)"/>
       <path id="DejaVuSans-c" d="M 513 4856 
L 1013 4856 
Q 1481 4119 1714 3412 
Q 1947 2706 1947 2009 
Q 1947 1309 1714 600 
Q 1481 -109 1013 -844 
L 513 -844 
Q 928 -128 1133 580 
Q 1338 1288 1338 2009 
Q 1338 2731 1133 3434 
Q 928 4138 513 4856 
z
" transform="scale(0.015625)"/>
      </defs>
      <use xlink:href="#DejaVuSans-49"/>
      <use xlink:href="#DejaVuSans-b" transform="translate(35.203125 0)"/>
      <use xlink:href="#DejaVuSans-5b" transform="translate(74.21875 0)"/>
      <use xlink:href="#DejaVuSans-c" transform="translate(133.40625 0)"/>
     </g>
    </g>
   </g>
   <g id="line2d_29">
    <path d="M 57.785618 163.85512 
L 61.214618 94.41507 
L 62.586218 73.109478 
L 63.957819 56.804317 
L 64.643619 50.406375 
L 65.329419 45.079219 
L 66.015219 40.740133 
L 66.701019 37.304833 
L 67.386819 34.690161 
L 68.072619 32.815842 
L 68.758419 31.605593 
L 69.444219 30.987774 
L 70.130019 30.895721 
L 70.815819 31.267847 
L 71.50162 32.047599 
L 72.18742 33.183303 
L 72.87322 34.627947 
L 74.24482 38.277734 
L 75.61642 42.703741 
L 77.67382 50.29386 
L 81.102821 64.106386 
L 85.903421 83.269907 
L 88.646622 93.367223 
L 91.389822 102.626537 
L 94.133022 111.002689 
L 96.876223 118.509627 
L 99.619423 125.194507 
L 102.362623 131.121306 
L 105.105824 136.360666 
L 107.849024 140.983778 
L 110.592224 145.058862 
L 113.335425 148.6493 
L 116.078625 151.81279 
L 118.821825 154.60114 
L 121.565026 157.060412 
L 124.308226 159.231291 
L 127.051426 161.149531 
L 130.480427 163.239391 
L 133.909427 165.035778 
L 137.338427 166.583072 
L 141.453228 168.16323 
L 145.568028 169.491782 
L 150.368629 170.781492 
L 155.16923 171.843437 
L 160.65563 172.834179 
L 166.827831 173.724897 
L 174.371632 174.568061 
L 182.601233 175.259927 
L 192.888234 175.887801 
L 205.232636 176.406072 
L 221.006038 176.833048 
L 242.26584 177.16885 
L 273.126844 177.413025 
L 324.56185 177.569626 
L 331.419851 177.580122 
L 331.419851 177.580122 
" clip-path="url(#p956f65151b)" style="fill: none; stroke: #4c78a8; stroke-width: 2; stroke-linecap: square"/>
   </g>
   <g id="patch_3">
    <path d="M 44.103906 185 
L 44.103906 23.557422 
" style="fill: none; stroke: #000000; stroke-width: 0.8; stroke-linejoin: miter; stroke-linecap: square"/>
   </g>
   <g id="patch_4">
    <path d="M 44.103906 185 
L 345.101562 185 
" style="fill: none; stroke: #000000; stroke-width: 0.8; stroke-linejoin: miter; stroke-linecap: square"/>
   </g>
   <g id="text_17">
    <!-- F -->
    <g transform="translate(191.439375 15.557422) scale(0.11 -0.11)">
     <defs>
      <path id="DejaVuSans-29" d="M 628 4666 
L 3309 4666 
L 3309 4134 
L 1259 4134 
L 1259 2759 
L 3109 2759 
L 3109 2228 
L 1259 2228 
L 1259 0 
L 628 0 
L 628 4666 
z
" transform="scale(0.015625)"/>
     </defs>
     <use xlink:href="#DejaVuSans-29"/>
    </g>
   </g>
  </g>
 </g>
 <defs>
  <clipPath id="p956f65151b">
   <rect x="44.103906" y="23.557422" width="300.997656" height="161.442578"/>
  </clipPath>
 </defs>
</svg>
