<?xml version="1.0" encoding="utf-8" standalone="no"?>
<!DOCTYPE svg PUBLIC "-//W3C//DTD SVG 1.1//EN"
  "http://www.w3.org/Graphics/SVG/1.1/DTD/svg11.dtd">
<svg xmlns:xlink="http://www.w3.org/1999/xlink" width="352.301562pt" height="223.158281pt" viewBox="0 0 352.301562 223.158281" xmlns="http://www.w3.org/2000/svg" version="1.1">
 <metadata>
  <rdf:RDF xmlns:dc="http://purl.org/dc/elements/1.1/" xmlns:cc="http://creativecommons.org/ns#" xmlns:rdf="http://www.w3.org/1999/02/22-rdf-syntax-ns#">
   <cc:Work>
    <dc:type rdf:resource="http://purl.org/dc/dcmitype/StillImage"/>
    <dc:date>2026-07-05T02:24:31.463043</dc:date>
    <dc:format>image/svg+xml</dc:format>
    <dc:creator>
     <cc:Agent>
      <dc:title>Matplotlib v3.11.0, https://matplotlib.org/</dc:title>
     </cc:Agent>
    </dc:creator>
   </cc:Work>
  </rdf:RDF>
 </metadata>
 <defs>
  <style type="text/css">*{stroke-linejoin: round; stroke-linecap: butt}</style>
 </defs>
 <g id="figure_1">
  <g id="patch_1">
   <path d="M 0 223.158281 
L 352.301562 223.158281 
L 352.301562 0 
L 0 0 
z
" style="fill: #ffffff"/>
  </g>
  <g id="axes_1">
   <g id="patch_2">
    <path d="M 44.103906 184.958281 
L 345.101562 184.958281 
L 345.101562 23.558281 
L 44.103906 23.558281 
z
" style="fill: #ffffff"/>
   </g>
   <g id="FillBetweenPolyCollection_1">
    <defs>
     <path id="m4ae7aa1fb2" d="M 57.785618 -45.536364 
L 57.785618 -192.263636 
L 58.471418 -192.263636 
L 59.157218 -192.263633 
L 59.843018 -192.263622 
L 60.528818 -192.263594 
L 61.214618 -192.263538 
L 61.900418 -192.263437 
L 62.586218 -192.263274 
L 63.272019 -192.263028 
L 63.957819 -192.262673 
L 64.643619 -192.262181 
L 65.329419 -192.261522 
L 66.015219 -192.260662 
L 66.701019 -192.259563 
L 67.386819 -192.258185 
L 68.072619 -192.256486 
L 68.758419 -192.254419 
L 69.444219 -192.251934 
L 70.130019 -192.248981 
L 70.815819 -192.245504 
L 71.50162 -192.241446 
L 72.18742 -192.236746 
L 72.87322 -192.231342 
L 73.55902 -192.225167 
L 74.24482 -192.218154 
L 74.93062 -192.210232 
L 75.61642 -192.201327 
L 76.30222 -192.191364 
L 76.98802 -192.180265 
L 77.67382 -192.16795 
L 78.35962 -192.154336 
L 79.04542 -192.139338 
L 79.731221 -192.12287 
L 80.417021 -192.104843 
L 81.102821 -192.085166 
L 81.788621 -192.063747 
L 82.474421 -192.040492 
L 83.160221 -192.015305 
L 83.846021 -191.988087 
L 84.531821 -191.958741 
L 85.217621 -191.927165 
L 85.903421 -191.893258 
L 86.589221 -191.856915 
L 87.275021 -191.818034 
L 87.960822 -191.776508 
L 88.646622 -191.732231 
L 89.332422 -191.685095 
L 90.018222 -191.634992 
L 90.704022 -191.581814 
L 91.389822 -191.525449 
L 92.075622 -191.465788 
L 92.761422 -191.402721 
L 93.447222 -191.336135 
L 94.133022 -191.26592 
L 94.818822 -191.191964 
L 95.504622 -191.114155 
L 96.190423 -191.032381 
L 96.876223 -190.946531 
L 97.562023 -190.856493 
L 98.247823 -190.762156 
L 98.933623 -190.663409 
L 99.619423 -190.560141 
L 100.305223 -190.452243 
L 100.991023 -190.339606 
L 101.676823 -190.22212 
L 102.362623 -190.099677 
L 103.048423 -189.972173 
L 103.734223 -189.839499 
L 104.420024 -189.701552 
L 105.105824 -189.558228 
L 105.791624 -189.409424 
L 106.477424 -189.25504 
L 107.163224 -189.094976 
L 107.849024 -188.929134 
L 108.534824 -188.757417 
L 109.220624 -188.57973 
L 109.906424 -188.395982 
L 110.592224 -188.206079 
L 111.278024 -188.009933 
L 111.963824 -187.807457 
L 112.649625 -187.598565 
L 113.335425 -187.383174 
L 114.021225 -187.161202 
L 114.707025 -186.932572 
L 115.392825 -186.697207 
L 116.078625 -186.455033 
L 116.764425 -186.205977 
L 117.450225 -185.949972 
L 118.136025 -185.68695 
L 118.821825 -185.416848 
L 119.507625 -185.139604 
L 120.193425 -184.855161 
L 120.879225 -184.563462 
L 121.565026 -184.264454 
L 122.250826 -183.958088 
L 122.936626 -183.644317 
L 123.622426 -183.323096 
L 124.308226 -182.994386 
L 124.994026 -182.658146 
L 125.679826 -182.314344 
L 126.365626 -181.962946 
L 127.051426 -181.603925 
L 127.737226 -181.237254 
L 128.423026 -180.862913 
L 129.108826 -180.480881 
L 129.794627 -180.091142 
L 130.480427 -179.693686 
L 131.166227 -179.288501 
L 131.852027 -178.875582 
L 132.537827 -178.454927 
L 133.223627 -178.026536 
L 133.909427 -177.590414 
L 134.595227 -177.146567 
L 135.281027 -176.695006 
L 135.966827 -176.235746 
L 136.652627 -175.768803 
L 137.338427 -175.294199 
L 138.024228 -174.811957 
L 138.710028 -174.322104 
L 139.395828 -173.824672 
L 140.081628 -173.319693 
L 140.767428 -172.807206 
L 141.453228 -172.287251 
L 142.139028 -171.759871 
L 142.824828 -171.225112 
L 143.510628 -170.683026 
L 144.196428 -170.133665 
L 144.882228 -169.577086 
L 145.568028 -169.013347 
L 146.253829 -168.442512 
L 146.939629 -167.864646 
L 147.625429 -167.279817 
L 148.311229 -166.688096 
L 148.997029 -166.089559 
L 149.682829 -165.484282 
L 150.368629 -164.872345 
L 151.054429 -164.253831 
L 151.740229 -163.628826 
L 152.426029 -162.997417 
L 153.111829 -162.359697 
L 153.797629 -161.715757 
L 154.48343 -161.065695 
L 155.16923 -160.409608 
L 155.85503 -159.747598 
L 156.54083 -159.079768 
L 157.22663 -158.406222 
L 157.91243 -157.72707 
L 158.59823 -157.04242 
L 159.28403 -156.352386 
L 159.96983 -155.65708 
L 160.65563 -154.95662 
L 161.34143 -154.251123 
L 162.02723 -153.540709 
L 162.713031 -152.8255 
L 163.398831 -152.105619 
L 164.084631 -151.381192 
L 164.770431 -150.652344 
L 165.456231 -149.919205 
L 166.142031 -149.181903 
L 166.827831 -148.44057 
L 167.513631 -147.695338 
L 168.199431 -146.94634 
L 168.885231 -146.193711 
L 169.571031 -145.437588 
L 170.256831 -144.678106 
L 170.942632 -143.915404 
L 171.628432 -143.149619 
L 172.314232 -142.380892 
L 173.000032 -141.609363 
L 173.685832 -140.835172 
L 174.371632 -140.058461 
L 175.057432 -139.279371 
L 175.743232 -138.498045 
L 176.429032 -137.714625 
L 177.114832 -136.929255 
L 177.800632 -136.142077 
L 178.486432 -135.353236 
L 179.172233 -134.562873 
L 179.858033 -133.771133 
L 180.543833 -132.978159 
L 181.229633 -132.184095 
L 181.915433 -131.389082 
L 182.601233 -130.593265 
L 183.287033 -129.796784 
L 183.972833 -128.999783 
L 184.658633 -128.202403 
L 185.344433 -127.404785 
L 186.030233 -126.607069 
L 186.716033 -125.809395 
L 187.401834 -125.011902 
L 188.087634 -124.214728 
L 188.773434 -123.418011 
L 189.459234 -122.621888 
L 190.145034 -121.826493 
L 190.830834 -121.031962 
L 191.516634 -120.238427 
L 192.202434 -119.446022 
L 192.888234 -118.654878 
L 193.574034 -117.865124 
L 194.259834 -117.076889 
L 194.945634 -116.290301 
L 195.631434 -115.505485 
L 196.317235 -114.722567 
L 197.003035 -113.941669 
L 197.688835 -113.162913 
L 198.374635 -112.386419 
L 199.060435 -111.612305 
L 199.746235 -110.840689 
L 200.432035 -110.071685 
L 201.117835 -109.305407 
L 201.803635 -108.541967 
L 202.489435 -107.781474 
L 203.175235 -107.024037 
L 203.861035 -106.269762 
L 204.546836 -105.518753 
L 205.232636 -104.771113 
L 205.918436 -104.026942 
L 206.604236 -103.28634 
L 207.290036 -102.549402 
L 207.975836 -101.816223 
L 208.661636 -101.086897 
L 209.347436 -100.361512 
L 210.033236 -99.640159 
L 210.719036 -98.922923 
L 211.404836 -98.209888 
L 212.090636 -97.501138 
L 212.776437 -96.796751 
L 213.462237 -96.096806 
L 214.148037 -95.401379 
L 214.833837 -94.710542 
L 215.519637 -94.024369 
L 216.205437 -93.342927 
L 216.891237 -92.666285 
L 217.577037 -91.994506 
L 218.262837 -91.327654 
L 218.948637 -90.66579 
L 219.634437 -90.008971 
L 220.320237 -89.357254 
L 221.006038 -88.710693 
L 221.691838 -88.06934 
L 222.377638 -87.433244 
L 223.063438 -86.802453 
L 223.749238 -86.177013 
L 224.435038 -85.556965 
L 225.120838 -84.942353 
L 225.806638 -84.333214 
L 226.492438 -83.729585 
L 227.178238 -83.131501 
L 227.864038 -82.538995 
L 228.549838 -81.952097 
L 229.235639 -81.370835 
L 229.921439 -80.795237 
L 230.607239 -80.225326 
L 231.293039 -79.661124 
L 231.978839 -79.102653 
L 232.664639 -78.549931 
L 233.350439 -78.002973 
L 234.036239 -77.461795 
L 234.722039 -76.92641 
L 235.407839 -76.396827 
L 236.093639 -75.873056 
L 236.779439 -75.355104 
L 237.46524 -74.842976 
L 238.15104 -74.336675 
L 238.83684 -73.836204 
L 239.52264 -73.341562 
L 240.20844 -72.852747 
L 240.89424 -72.369757 
L 241.58004 -71.892584 
L 242.26584 -71.421224 
L 242.95164 -70.955668 
L 243.63744 -70.495906 
L 244.32324 -70.041925 
L 245.00904 -69.593715 
L 245.694841 -69.151259 
L 246.380641 -68.714542 
L 247.066441 -68.283548 
L 247.752241 -67.858256 
L 248.438041 -67.438647 
L 249.123841 -67.024701 
L 249.809641 -66.616393 
L 250.495441 -66.2137 
L 251.181241 -65.816598 
L 251.867041 -65.425059 
L 252.552841 -65.039057 
L 253.238641 -64.658562 
L 253.924442 -64.283545 
L 254.610242 -63.913974 
L 255.296042 -63.549819 
L 255.981842 -63.191047 
L 256.667642 -62.837623 
L 257.353442 -62.489512 
L 258.039242 -62.14668 
L 258.725042 -61.809089 
L 259.410842 -61.476702 
L 260.096642 -61.149481 
L 260.782442 -60.827387 
L 261.468242 -60.510379 
L 262.154043 -60.198419 
L 262.839843 -59.891464 
L 263.525643 -59.589472 
L 264.211443 -59.292402 
L 264.897243 -59.000209 
L 265.583043 -58.712851 
L 266.268843 -58.430283 
L 266.954643 -58.15246 
L 267.640443 -57.879338 
L 268.326243 -57.61087 
L 269.012043 -57.347011 
L 269.697843 -57.087714 
L 270.383644 -56.832931 
L 271.069444 -56.582617 
L 271.755244 -56.336723 
L 272.441044 -56.095201 
L 273.126844 -55.858004 
L 273.812644 -55.625083 
L 274.498444 -55.39639 
L 275.184244 -55.171874 
L 275.870044 -54.951489 
L 276.555844 -54.735184 
L 277.241644 -54.522911 
L 277.927444 -54.31462 
L 278.613244 -54.110261 
L 279.299045 -53.909785 
L 279.984845 -53.713143 
L 280.670645 -53.520285 
L 281.356445 -53.331162 
L 282.042245 -53.145724 
L 282.728045 -52.963921 
L 283.413845 -52.785704 
L 284.099645 -52.611025 
L 284.785445 -52.439832 
L 285.471245 -52.272079 
L 286.157045 -52.107715 
L 286.842845 -51.946691 
L 287.528646 -51.78896 
L 288.214446 -51.634472 
L 288.900246 -51.483179 
L 289.586046 -51.335034 
L 290.271846 -51.189988 
L 290.957646 -51.047993 
L 291.643446 -50.909003 
L 292.329246 -50.77297 
L 293.015046 -50.639848 
L 293.700846 -50.509589 
L 294.386646 -50.382148 
L 295.072446 -50.257479 
L 295.758247 -50.135536 
L 296.444047 -50.016274 
L 297.129847 -49.899647 
L 297.815647 -49.785613 
L 298.501447 -49.674125 
L 299.187247 -49.565141 
L 299.873047 -49.458617 
L 300.558847 -49.354509 
L 301.244647 -49.252776 
L 301.930447 -49.153375 
L 302.616247 -49.056264 
L 303.302047 -48.961401 
L 303.987848 -48.868746 
L 304.673648 -48.778258 
L 305.359448 -48.689897 
L 306.045248 -48.603623 
L 306.731048 -48.519397 
L 307.416848 -48.43718 
L 308.102648 -48.356934 
L 308.788448 -48.27862 
L 309.474248 -48.202201 
L 310.160048 -48.127641 
L 310.845848 -48.054901 
L 311.531648 -47.983948 
L 312.217449 -47.914744 
L 312.903249 -47.847254 
L 313.589049 -47.781445 
L 314.274849 -47.717281 
L 314.960649 -47.654729 
L 315.646449 -47.593755 
L 316.332249 -47.534327 
L 317.018049 -47.476412 
L 317.703849 -47.419979 
L 318.389649 -47.364995 
L 319.075449 -47.311431 
L 319.761249 -47.259255 
L 320.44705 -47.208437 
L 321.13285 -47.158948 
L 321.81865 -47.110759 
L 322.50445 -47.06384 
L 323.19025 -47.018165 
L 323.87605 -46.973705 
L 324.56185 -46.930432 
L 325.24765 -46.888321 
L 325.93345 -46.847344 
L 326.61925 -46.807476 
L 327.30505 -46.768691 
L 327.99085 -46.730965 
L 328.676651 -46.694271 
L 329.362451 -46.658588 
L 330.048251 -46.62389 
L 330.734051 -46.590154 
L 331.419851 -46.557357 
L 331.419851 -45.536364 
L 331.419851 -45.536364 
L 330.734051 -45.536364 
L 330.048251 -45.536364 
L 329.362451 -45.536364 
L 328.676651 -45.536364 
L 327.99085 -45.536364 
L 327.30505 -45.536364 
L 326.61925 -45.536364 
L 325.93345 -45.536364 
L 325.24765 -45.536364 
L 324.56185 -45.536364 
L 323.87605 -45.536364 
L 323.19025 -45.536364 
L 322.50445 -45.536364 
L 321.81865 -45.536364 
L 321.13285 -45.536364 
L 320.44705 -45.536364 
L 319.761249 -45.536364 
L 319.075449 -45.536364 
L 318.389649 -45.536364 
L 317.703849 -45.536364 
L 317.018049 -45.536364 
L 316.332249 -45.536364 
L 315.646449 -45.536364 
L 314.960649 -45.536364 
L 314.274849 -45.536364 
L 313.589049 -45.536364 
L 312.903249 -45.536364 
L 312.217449 -45.536364 
L 311.531648 -45.536364 
L 310.845848 -45.536364 
L 310.160048 -45.536364 
L 309.474248 -45.536364 
L 308.788448 -45.536364 
L 308.102648 -45.536364 
L 307.416848 -45.536364 
L 306.731048 -45.536364 
L 306.045248 -45.536364 
L 305.359448 -45.536364 
L 304.673648 -45.536364 
L 303.987848 -45.536364 
L 303.302047 -45.536364 
L 302.616247 -45.536364 
L 301.930447 -45.536364 
L 301.244647 -45.536364 
L 300.558847 -45.536364 
L 299.873047 -45.536364 
L 299.187247 -45.536364 
L 298.501447 -45.536364 
L 297.815647 -45.536364 
L 297.129847 -45.536364 
L 296.444047 -45.536364 
L 295.758247 -45.536364 
L 295.072446 -45.536364 
L 294.386646 -45.536364 
L 293.700846 -45.536364 
L 293.015046 -45.536364 
L 292.329246 -45.536364 
L 291.643446 -45.536364 
L 290.957646 -45.536364 
L 290.271846 -45.536364 
L 289.586046 -45.536364 
L 288.900246 -45.536364 
L 288.214446 -45.536364 
L 287.528646 -45.536364 
L 286.842845 -45.536364 
L 286.157045 -45.536364 
L 285.471245 -45.536364 
L 284.785445 -45.536364 
L 284.099645 -45.536364 
L 283.413845 -45.536364 
L 282.728045 -45.536364 
L 282.042245 -45.536364 
L 281.356445 -45.536364 
L 280.670645 -45.536364 
L 279.984845 -45.536364 
L 279.299045 -45.536364 
L 278.613244 -45.536364 
L 277.927444 -45.536364 
L 277.241644 -45.536364 
L 276.555844 -45.536364 
L 275.870044 -45.536364 
L 275.184244 -45.536364 
L 274.498444 -45.536364 
L 273.812644 -45.536364 
L 273.126844 -45.536364 
L 272.441044 -45.536364 
L 271.755244 -45.536364 
L 271.069444 -45.536364 
L 270.383644 -45.536364 
L 269.697843 -45.536364 
L 269.012043 -45.536364 
L 268.326243 -45.536364 
L 267.640443 -45.536364 
L 266.954643 -45.536364 
L 266.268843 -45.536364 
L 265.583043 -45.536364 
L 264.897243 -45.536364 
L 264.211443 -45.536364 
L 263.525643 -45.536364 
L 262.839843 -45.536364 
L 262.154043 -45.536364 
L 261.468242 -45.536364 
L 260.782442 -45.536364 
L 260.096642 -45.536364 
L 259.410842 -45.536364 
L 258.725042 -45.536364 
L 258.039242 -45.536364 
L 257.353442 -45.536364 
L 256.667642 -45.536364 
L 255.981842 -45.536364 
L 255.296042 -45.536364 
L 254.610242 -45.536364 
L 253.924442 -45.536364 
L 253.238641 -45.536364 
L 252.552841 -45.536364 
L 251.867041 -45.536364 
L 251.181241 -45.536364 
L 250.495441 -45.536364 
L 249.809641 -45.536364 
L 249.123841 -45.536364 
L 248.438041 -45.536364 
L 247.752241 -45.536364 
L 247.066441 -45.536364 
L 246.380641 -45.536364 
L 245.694841 -45.536364 
L 245.00904 -45.536364 
L 244.32324 -45.536364 
L 243.63744 -45.536364 
L 242.95164 -45.536364 
L 242.26584 -45.536364 
L 241.58004 -45.536364 
L 240.89424 -45.536364 
L 240.20844 -45.536364 
L 239.52264 -45.536364 
L 238.83684 -45.536364 
L 238.15104 -45.536364 
L 237.46524 -45.536364 
L 236.779439 -45.536364 
L 236.093639 -45.536364 
L 235.407839 -45.536364 
L 234.722039 -45.536364 
L 234.036239 -45.536364 
L 233.350439 -45.536364 
L 232.664639 -45.536364 
L 231.978839 -45.536364 
L 231.293039 -45.536364 
L 230.607239 -45.536364 
L 229.921439 -45.536364 
L 229.235639 -45.536364 
L 228.549838 -45.536364 
L 227.864038 -45.536364 
L 227.178238 -45.536364 
L 226.492438 -45.536364 
L 225.806638 -45.536364 
L 225.120838 -45.536364 
L 224.435038 -45.536364 
L 223.749238 -45.536364 
L 223.063438 -45.536364 
L 222.377638 -45.536364 
L 221.691838 -45.536364 
L 221.006038 -45.536364 
L 220.320237 -45.536364 
L 219.634437 -45.536364 
L 218.948637 -45.536364 
L 218.262837 -45.536364 
L 217.577037 -45.536364 
L 216.891237 -45.536364 
L 216.205437 -45.536364 
L 215.519637 -45.536364 
L 214.833837 -45.536364 
L 214.148037 -45.536364 
L 213.462237 -45.536364 
L 212.776437 -45.536364 
L 212.090636 -45.536364 
L 211.404836 -45.536364 
L 210.719036 -45.536364 
L 210.033236 -45.536364 
L 209.347436 -45.536364 
L 208.661636 -45.536364 
L 207.975836 -45.536364 
L 207.290036 -45.536364 
L 206.604236 -45.536364 
L 205.918436 -45.536364 
L 205.232636 -45.536364 
L 204.546836 -45.536364 
L 203.861035 -45.536364 
L 203.175235 -45.536364 
L 202.489435 -45.536364 
L 201.803635 -45.536364 
L 201.117835 -45.536364 
L 200.432035 -45.536364 
L 199.746235 -45.536364 
L 199.060435 -45.536364 
L 198.374635 -45.536364 
L 197.688835 -45.536364 
L 197.003035 -45.536364 
L 196.317235 -45.536364 
L 195.631434 -45.536364 
L 194.945634 -45.536364 
L 194.259834 -45.536364 
L 193.574034 -45.536364 
L 192.888234 -45.536364 
L 192.202434 -45.536364 
L 191.516634 -45.536364 
L 190.830834 -45.536364 
L 190.145034 -45.536364 
L 189.459234 -45.536364 
L 188.773434 -45.536364 
L 188.087634 -45.536364 
L 187.401834 -45.536364 
L 186.716033 -45.536364 
L 186.030233 -45.536364 
L 185.344433 -45.536364 
L 184.658633 -45.536364 
L 183.972833 -45.536364 
L 183.287033 -45.536364 
L 182.601233 -45.536364 
L 181.915433 -45.536364 
L 181.229633 -45.536364 
L 180.543833 -45.536364 
L 179.858033 -45.536364 
L 179.172233 -45.536364 
L 178.486432 -45.536364 
L 177.800632 -45.536364 
L 177.114832 -45.536364 
L 176.429032 -45.536364 
L 175.743232 -45.536364 
L 175.057432 -45.536364 
L 174.371632 -45.536364 
L 173.685832 -45.536364 
L 173.000032 -45.536364 
L 172.314232 -45.536364 
L 171.628432 -45.536364 
L 170.942632 -45.536364 
L 170.256831 -45.536364 
L 169.571031 -45.536364 
L 168.885231 -45.536364 
L 168.199431 -45.536364 
L 167.513631 -45.536364 
L 166.827831 -45.536364 
L 166.142031 -45.536364 
L 165.456231 -45.536364 
L 164.770431 -45.536364 
L 164.084631 -45.536364 
L 163.398831 -45.536364 
L 162.713031 -45.536364 
L 162.02723 -45.536364 
L 161.34143 -45.536364 
L 160.65563 -45.536364 
L 159.96983 -45.536364 
L 159.28403 -45.536364 
L 158.59823 -45.536364 
L 157.91243 -45.536364 
L 157.22663 -45.536364 
L 156.54083 -45.536364 
L 155.85503 -45.536364 
L 155.16923 -45.536364 
L 154.48343 -45.536364 
L 153.797629 -45.536364 
L 153.111829 -45.536364 
L 152.426029 -45.536364 
L 151.740229 -45.536364 
L 151.054429 -45.536364 
L 150.368629 -45.536364 
L 149.682829 -45.536364 
L 148.997029 -45.536364 
L 148.311229 -45.536364 
L 147.625429 -45.536364 
L 146.939629 -45.536364 
L 146.253829 -45.536364 
L 145.568028 -45.536364 
L 144.882228 -45.536364 
L 144.196428 -45.536364 
L 143.510628 -45.536364 
L 142.824828 -45.536364 
L 142.139028 -45.536364 
L 141.453228 -45.536364 
L 140.767428 -45.536364 
L 140.081628 -45.536364 
L 139.395828 -45.536364 
L 138.710028 -45.536364 
L 138.024228 -45.536364 
L 137.338427 -45.536364 
L 136.652627 -45.536364 
L 135.966827 -45.536364 
L 135.281027 -45.536364 
L 134.595227 -45.536364 
L 133.909427 -45.536364 
L 133.223627 -45.536364 
L 132.537827 -45.536364 
L 131.852027 -45.536364 
L 131.166227 -45.536364 
L 130.480427 -45.536364 
L 129.794627 -45.536364 
L 129.108826 -45.536364 
L 128.423026 -45.536364 
L 127.737226 -45.536364 
L 127.051426 -45.536364 
L 126.365626 -45.536364 
L 125.679826 -45.536364 
L 124.994026 -45.536364 
L 124.308226 -45.536364 
L 123.622426 -45.536364 
L 122.936626 -45.536364 
L 122.250826 -45.536364 
L 121.565026 -45.536364 
L 120.879225 -45.536364 
L 120.193425 -45.536364 
L 119.507625 -45.536364 
L 118.821825 -45.536364 
L 118.136025 -45.536364 
L 117.450225 -45.536364 
L 116.764425 -45.536364 
L 116.078625 -45.536364 
L 115.392825 -45.536364 
L 114.707025 -45.536364 
L 114.021225 -45.536364 
L 113.335425 -45.536364 
L 112.649625 -45.536364 
L 111.963824 -45.536364 
L 111.278024 -45.536364 
L 110.592224 -45.536364 
L 109.906424 -45.536364 
L 109.220624 -45.536364 
L 108.534824 -45.536364 
L 107.849024 -45.536364 
L 107.163224 -45.536364 
L 106.477424 -45.536364 
L 105.791624 -45.536364 
L 105.105824 -45.536364 
L 104.420024 -45.536364 
L 103.734223 -45.536364 
L 103.048423 -45.536364 
L 102.362623 -45.536364 
L 101.676823 -45.536364 
L 100.991023 -45.536364 
L 100.305223 -45.536364 
L 99.619423 -45.536364 
L 98.933623 -45.536364 
L 98.247823 -45.536364 
L 97.562023 -45.536364 
L 96.876223 -45.536364 
L 96.190423 -45.536364 
L 95.504622 -45.536364 
L 94.818822 -45.536364 
L 94.133022 -45.536364 
L 93.447222 -45.536364 
L 92.761422 -45.536364 
L 92.075622 -45.536364 
L 91.389822 -45.536364 
L 90.704022 -45.536364 
L 90.018222 -45.536364 
L 89.332422 -45.536364 
L 88.646622 -45.536364 
L 87.960822 -45.536364 
L 87.275021 -45.536364 
L 86.589221 -45.536364 
L 85.903421 -45.536364 
L 85.217621 -45.536364 
L 84.531821 -45.536364 
L 83.846021 -45.536364 
L 83.160221 -45.536364 
L 82.474421 -45.536364 
L 81.788621 -45.536364 
L 81.102821 -45.536364 
L 80.417021 -45.536364 
L 79.731221 -45.536364 
L 79.04542 -45.536364 
L 78.35962 -45.536364 
L 77.67382 -45.536364 
L 76.98802 -45.536364 
L 76.30222 -45.536364 
L 75.61642 -45.536364 
L 74.93062 -45.536364 
L 74.24482 -45.536364 
L 73.55902 -45.536364 
L 72.87322 -45.536364 
L 72.18742 -45.536364 
L 71.50162 -45.536364 
L 70.815819 -45.536364 
L 70.130019 -45.536364 
L 69.444219 -45.536364 
L 68.758419 -45.536364 
L 68.072619 -45.536364 
L 67.386819 -45.536364 
L 66.701019 -45.536364 
L 66.015219 -45.536364 
L 65.329419 -45.536364 
L 64.643619 -45.536364 
L 63.957819 -45.536364 
L 63.272019 -45.536364 
L 62.586218 -45.536364 
L 61.900418 -45.536364 
L 61.214618 -45.536364 
L 60.528818 -45.536364 
L 59.843018 -45.536364 
L 59.157218 -45.536364 
L 58.471418 -45.536364 
L 57.785618 -45.536364 
z
" style="stroke: #4c78a8; stroke-opacity: 0.15"/>
    </defs>
    <g clip-path="url(#pb457416354)">
     <use xlink:href="#m4ae7aa1fb2" x="0" y="223.158281" style="fill: #4c78a8; fill-opacity: 0.15; stroke: #4c78a8; stroke-opacity: 0.15"/>
    </g>
   </g>
   <g id="matplotlib.axis_1">
    <g id="xtick_1">
     <g id="line2d_1">
      <path d="M 57.647311 184.958281 
L 57.647311 23.558281 
" clip-path="url(#pb457416354)" style="fill: none; stroke: #b0b0b0; stroke-opacity: 0.25; stroke-width: 0.6; stroke-linecap: square"/>
     </g>
     <g id="line2d_2">
      <defs>
       <path id="mc2aeb37f8f" d="M 0 0 
L 0 3.5 
" style="stroke: #000000; stroke-width: 0.8"/>
      </defs>
      <g>
       <use xlink:href="#mc2aeb37f8f" x="57.647311" y="184.958281" style="stroke: #000000; stroke-width: 0.8"/>
      </g>
     </g>
     <g id="text_1">
      <!-- 0.0 -->
      <g transform="translate(49.695749 199.555938) scale(0.1 -0.1)">
       <defs>
        <path id="DejaVuSans-13" d="M 2034 4250 
Q 1547 4250 1301 3770 
Q 1056 3291 1056 2328 
Q 1056 1369 1301 889 
Q 1547 409 2034 409 
Q 2525 409 2770 889 
Q 3016 1369 3016 2328 
Q 3016 3291 2770 3770 
Q 2525 4250 2034 4250 
z
M 2034 4750 
Q 2819 4750 3233 4129 
Q 3647 3509 3647 2328 
Q 3647 1150 3233 529 
Q 2819 -91 2034 -91 
Q 1250 -91 836 529 
Q 422 1150 422 2328 
Q 422 3509 836 4129 
Q 1250 4750 2034 4750 
z
" transform="scale(0.015625)"/>
        <path id="DejaVuSans-11" d="M 684 794 
L 1344 794 
L 1344 0 
L 684 0 
L 684 794 
z
" transform="scale(0.015625)"/>
       </defs>
       <use xlink:href="#DejaVuSans-13"/>
       <use xlink:href="#DejaVuSans-11" transform="translate(63.625 0)"/>
       <use xlink:href="#DejaVuSans-13" transform="translate(95.40625 0)"/>
      </g>
     </g>
    </g>
    <g id="xtick_2">
     <g id="line2d_3">
      <path d="M 91.113501 184.958281 
L 91.113501 23.558281 
" clip-path="url(#pb457416354)" style="fill: none; stroke: #b0b0b0; stroke-opacity: 0.25; stroke-width: 0.6; stroke-linecap: square"/>
     </g>
     <g id="line2d_4">
      <g>
       <use xlink:href="#mc2aeb37f8f" x="91.113501" y="184.958281" style="stroke: #000000; stroke-width: 0.8"/>
      </g>
     </g>
     <g id="text_2">
      <!-- 0.5 -->
      <g transform="translate(83.161939 199.555938) scale(0.1 -0.1)">
       <defs>
        <path id="DejaVuSans-18" d="M 691 4666 
L 3169 4666 
L 3169 4134 
L 1269 4134 
L 1269 2991 
Q 1406 3038 1543 3061 
Q 1681 3084 1819 3084 
Q 2600 3084 3056 2656 
Q 3513 2228 3513 1497 
Q 3513 744 3044 326 
Q 2575 -91 1722 -91 
Q 1428 -91 1123 -41 
Q 819 9 494 109 
L 494 744 
Q 775 591 1075 516 
Q 1375 441 1709 441 
Q 2250 441 2565 725 
Q 2881 1009 2881 1497 
Q 2881 1984 2565 2268 
Q 2250 2553 1709 2553 
Q 1456 2553 1204 2497 
Q 953 2441 691 2322 
L 691 4666 
z
" transform="scale(0.015625)"/>
       </defs>
       <use xlink:href="#DejaVuSans-13"/>
       <use xlink:href="#DejaVuSans-11" transform="translate(63.625 0)"/>
       <use xlink:href="#DejaVuSans-18" transform="translate(95.40625 0)"/>
      </g>
     </g>
    </g>
    <g id="xtick_3">
     <g id="line2d_5">
      <path d="M 124.579692 184.958281 
L 124.579692 23.558281 
" clip-path="url(#pb457416354)" style="fill: none; stroke: #b0b0b0; stroke-opacity: 0.25; stroke-width: 0.6; stroke-linecap: square"/>
     </g>
     <g id="line2d_6">
      <g>
       <use xlink:href="#mc2aeb37f8f" x="124.579692" y="184.958281" style="stroke: #000000; stroke-width: 0.8"/>
      </g>
     </g>
     <g id="text_3">
      <!-- 1.0 -->
      <g transform="translate(116.628129 199.555938) scale(0.1 -0.1)">
       <defs>
        <path id="DejaVuSans-14" d="M 794 531 
L 1825 531 
L 1825 4091 
L 703 3866 
L 703 4441 
L 1819 4666 
L 2450 4666 
L 2450 531 
L 3481 531 
L 3481 0 
L 794 0 
L 794 531 
z
" transform="scale(0.015625)"/>
       </defs>
       <use xlink:href="#DejaVuSans-14"/>
       <use xlink:href="#DejaVuSans-11" transform="translate(63.625 0)"/>
       <use xlink:href="#DejaVuSans-13" transform="translate(95.40625 0)"/>
      </g>
     </g>
    </g>
    <g id="xtick_4">
     <g id="line2d_7">
      <path d="M 158.045882 184.958281 
L 158.045882 23.558281 
" clip-path="url(#pb457416354)" style="fill: none; stroke: #b0b0b0; stroke-opacity: 0.25; stroke-width: 0.6; stroke-linecap: square"/>
     </g>
     <g id="line2d_8">
      <g>
       <use xlink:href="#mc2aeb37f8f" x="158.045882" y="184.958281" style="stroke: #000000; stroke-width: 0.8"/>
      </g>
     </g>
     <g id="text_4">
      <!-- 1.5 -->
      <g transform="translate(150.09432 199.555938) scale(0.1 -0.1)">
       <use xlink:href="#DejaVuSans-14"/>
       <use xlink:href="#DejaVuSans-11" transform="translate(63.625 0)"/>
       <use xlink:href="#DejaVuSans-18" transform="translate(95.40625 0)"/>
      </g>
     </g>
    </g>
    <g id="xtick_5">
     <g id="line2d_9">
      <path d="M 191.512073 184.958281 
L 191.512073 23.558281 
" clip-path="url(#pb457416354)" style="fill: none; stroke: #b0b0b0; stroke-opacity: 0.25; stroke-width: 0.6; stroke-linecap: square"/>
     </g>
     <g id="line2d_10">
      <g>
       <use xlink:href="#mc2aeb37f8f" x="191.512073" y="184.958281" style="stroke: #000000; stroke-width: 0.8"/>
      </g>
     </g>
     <g id="text_5">
      <!-- 2.0 -->
      <g transform="translate(183.56051 199.555938) scale(0.1 -0.1)">
       <defs>
        <path id="DejaVuSans-15" d="M 1228 531 
L 3431 531 
L 3431 0 
L 469 0 
L 469 531 
Q 828 903 1448 1529 
Q 2069 2156 2228 2338 
Q 2531 2678 2651 2914 
Q 2772 3150 2772 3378 
Q 2772 3750 2511 3984 
Q 2250 4219 1831 4219 
Q 1534 4219 1204 4116 
Q 875 4013 500 3803 
L 500 4441 
Q 881 4594 1212 4672 
Q 1544 4750 1819 4750 
Q 2544 4750 2975 4387 
Q 3406 4025 3406 3419 
Q 3406 3131 3298 2873 
Q 3191 2616 2906 2266 
Q 2828 2175 2409 1742 
Q 1991 1309 1228 531 
z
" transform="scale(0.015625)"/>
       </defs>
       <use xlink:href="#DejaVuSans-15"/>
       <use xlink:href="#DejaVuSans-11" transform="translate(63.625 0)"/>
       <use xlink:href="#DejaVuSans-13" transform="translate(95.40625 0)"/>
      </g>
     </g>
    </g>
    <g id="xtick_6">
     <g id="line2d_11">
      <path d="M 224.978263 184.958281 
L 224.978263 23.558281 
" clip-path="url(#pb457416354)" style="fill: none; stroke: #b0b0b0; stroke-opacity: 0.25; stroke-width: 0.6; stroke-linecap: square"/>
     </g>
     <g id="line2d_12">
      <g>
       <use xlink:href="#mc2aeb37f8f" x="224.978263" y="184.958281" style="stroke: #000000; stroke-width: 0.8"/>
      </g>
     </g>
     <g id="text_6">
      <!-- 2.5 -->
      <g transform="translate(217.0267 199.555938) scale(0.1 -0.1)">
       <use xlink:href="#DejaVuSans-15"/>
       <use xlink:href="#DejaVuSans-11" transform="translate(63.625 0)"/>
       <use xlink:href="#DejaVuSans-18" transform="translate(95.40625 0)"/>
      </g>
     </g>
    </g>
    <g id="xtick_7">
     <g id="line2d_13">
      <path d="M 258.444453 184.958281 
L 258.444453 23.558281 
" clip-path="url(#pb457416354)" style="fill: none; stroke: #b0b0b0; stroke-opacity: 0.25; stroke-width: 0.6; stroke-linecap: square"/>
     </g>
     <g id="line2d_14">
      <g>
       <use xlink:href="#mc2aeb37f8f" x="258.444453" y="184.958281" style="stroke: #000000; stroke-width: 0.8"/>
      </g>
     </g>
     <g id="text_7">
      <!-- 3.0 -->
      <g transform="translate(250.492891 199.555938) scale(0.1 -0.1)">
       <defs>
        <path id="DejaVuSans-16" d="M 2597 2516 
Q 3050 2419 3304 2112 
Q 3559 1806 3559 1356 
Q 3559 666 3084 287 
Q 2609 -91 1734 -91 
Q 1441 -91 1130 -33 
Q 819 25 488 141 
L 488 750 
Q 750 597 1062 519 
Q 1375 441 1716 441 
Q 2309 441 2620 675 
Q 2931 909 2931 1356 
Q 2931 1769 2642 2001 
Q 2353 2234 1838 2234 
L 1294 2234 
L 1294 2753 
L 1863 2753 
Q 2328 2753 2575 2939 
Q 2822 3125 2822 3475 
Q 2822 3834 2567 4026 
Q 2313 4219 1838 4219 
Q 1578 4219 1281 4162 
Q 984 4106 628 3988 
L 628 4550 
Q 988 4650 1302 4700 
Q 1616 4750 1894 4750 
Q 2613 4750 3031 4423 
Q 3450 4097 3450 3541 
Q 3450 3153 3228 2886 
Q 3006 2619 2597 2516 
z
" transform="scale(0.015625)"/>
       </defs>
       <use xlink:href="#DejaVuSans-16"/>
       <use xlink:href="#DejaVuSans-11" transform="translate(63.625 0)"/>
       <use xlink:href="#DejaVuSans-13" transform="translate(95.40625 0)"/>
      </g>
     </g>
    </g>
    <g id="xtick_8">
     <g id="line2d_15">
      <path d="M 291.910644 184.958281 
L 291.910644 23.558281 
" clip-path="url(#pb457416354)" style="fill: none; stroke: #b0b0b0; stroke-opacity: 0.25; stroke-width: 0.6; stroke-linecap: square"/>
     </g>
     <g id="line2d_16">
      <g>
       <use xlink:href="#mc2aeb37f8f" x="291.910644" y="184.958281" style="stroke: #000000; stroke-width: 0.8"/>
      </g>
     </g>
     <g id="text_8">
      <!-- 3.5 -->
      <g transform="translate(283.959081 199.555938) scale(0.1 -0.1)">
       <use xlink:href="#DejaVuSans-16"/>
       <use xlink:href="#DejaVuSans-11" transform="translate(63.625 0)"/>
       <use xlink:href="#DejaVuSans-18" transform="translate(95.40625 0)"/>
      </g>
     </g>
    </g>
    <g id="xtick_9">
     <g id="line2d_17">
      <path d="M 325.376834 184.958281 
L 325.376834 23.558281 
" clip-path="url(#pb457416354)" style="fill: none; stroke: #b0b0b0; stroke-opacity: 0.25; stroke-width: 0.6; stroke-linecap: square"/>
     </g>
     <g id="line2d_18">
      <g>
       <use xlink:href="#mc2aeb37f8f" x="325.376834" y="184.958281" style="stroke: #000000; stroke-width: 0.8"/>
      </g>
     </g>
     <g id="text_9">
      <!-- 4.0 -->
      <g transform="translate(317.425271 199.555938) scale(0.1 -0.1)">
       <defs>
        <path id="DejaVuSans-17" d="M 2419 4116 
L 825 1625 
L 2419 1625 
L 2419 4116 
z
M 2253 4666 
L 3047 4666 
L 3047 1625 
L 3713 1625 
L 3713 1100 
L 3047 1100 
L 3047 0 
L 2419 0 
L 2419 1100 
L 313 1100 
L 313 1709 
L 2253 4666 
z
" transform="scale(0.015625)"/>
       </defs>
       <use xlink:href="#DejaVuSans-17"/>
       <use xlink:href="#DejaVuSans-11" transform="translate(63.625 0)"/>
       <use xlink:href="#DejaVuSans-13" transform="translate(95.40625 0)"/>
      </g>
     </g>
    </g>
    <g id="text_10">
     <!-- x -->
     <g transform="translate(191.643359 213.555938) scale(0.1 -0.1)">
      <defs>
       <path id="DejaVuSans-5b" d="M 3513 3500 
L 2247 1797 
L 3578 0 
L 2900 0 
L 1881 1375 
L 863 0 
L 184 0 
L 1544 1831 
L 300 3500 
L 978 3500 
L 1906 2253 
L 2834 3500 
L 3513 3500 
z
" transform="scale(0.015625)"/>
      </defs>
      <use xlink:href="#DejaVuSans-5b"/>
     </g>
    </g>
   </g>
   <g id="matplotlib.axis_2">
    <g id="ytick_1">
     <g id="line2d_19">
      <path d="M 44.103906 177.621918 
L 345.101562 177.621918 
" clip-path="url(#pb457416354)" style="fill: none; stroke: #b0b0b0; stroke-opacity: 0.25; stroke-width: 0.6; stroke-linecap: square"/>
     </g>
     <g id="line2d_20">
      <defs>
       <path id="m0dcbf66c92" d="M 0 0 
L -3.5 0 
" style="stroke: #000000; stroke-width: 0.8"/>
      </defs>
      <g>
       <use xlink:href="#m0dcbf66c92" x="44.103906" y="177.621918" style="stroke: #000000; stroke-width: 0.8"/>
      </g>
     </g>
     <g id="text_11">
      <!-- 0.0 -->
      <g transform="translate(21.200781 181.420746) scale(0.1 -0.1)">
       <use xlink:href="#DejaVuSans-13"/>
       <use xlink:href="#DejaVuSans-11" transform="translate(63.625 0)"/>
       <use xlink:href="#DejaVuSans-13" transform="translate(95.40625 0)"/>
      </g>
     </g>
    </g>
    <g id="ytick_2">
     <g id="line2d_21">
      <path d="M 44.103906 147.302698 
L 345.101562 147.302698 
" clip-path="url(#pb457416354)" style="fill: none; stroke: #b0b0b0; stroke-opacity: 0.25; stroke-width: 0.6; stroke-linecap: square"/>
     </g>
     <g id="line2d_22">
      <g>
       <use xlink:href="#m0dcbf66c92" x="44.103906" y="147.302698" style="stroke: #000000; stroke-width: 0.8"/>
      </g>
     </g>
     <g id="text_12">
      <!-- 0.1 -->
      <g transform="translate(21.200781 151.101526) scale(0.1 -0.1)">
       <use xlink:href="#DejaVuSans-13"/>
       <use xlink:href="#DejaVuSans-11" transform="translate(63.625 0)"/>
       <use xlink:href="#DejaVuSans-14" transform="translate(95.40625 0)"/>
      </g>
     </g>
    </g>
    <g id="ytick_3">
     <g id="line2d_23">
      <path d="M 44.103906 116.983478 
L 345.101562 116.983478 
" clip-path="url(#pb457416354)" style="fill: none; stroke: #b0b0b0; stroke-opacity: 0.25; stroke-width: 0.6; stroke-linecap: square"/>
     </g>
     <g id="line2d_24">
      <g>
       <use xlink:href="#m0dcbf66c92" x="44.103906" y="116.983478" style="stroke: #000000; stroke-width: 0.8"/>
      </g>
     </g>
     <g id="text_13">
      <!-- 0.2 -->
      <g transform="translate(21.200781 120.782306) scale(0.1 -0.1)">
       <use xlink:href="#DejaVuSans-13"/>
       <use xlink:href="#DejaVuSans-11" transform="translate(63.625 0)"/>
       <use xlink:href="#DejaVuSans-15" transform="translate(95.40625 0)"/>
      </g>
     </g>
    </g>
    <g id="ytick_4">
     <g id="line2d_25">
      <path d="M 44.103906 86.664258 
L 345.101562 86.664258 
" clip-path="url(#pb457416354)" style="fill: none; stroke: #b0b0b0; stroke-opacity: 0.25; stroke-width: 0.6; stroke-linecap: square"/>
     </g>
     <g id="line2d_26">
      <g>
       <use xlink:href="#m0dcbf66c92" x="44.103906" y="86.664258" style="stroke: #000000; stroke-width: 0.8"/>
      </g>
     </g>
     <g id="text_14">
      <!-- 0.3 -->
      <g transform="translate(21.200781 90.463086) scale(0.1 -0.1)">
       <use xlink:href="#DejaVuSans-13"/>
       <use xlink:href="#DejaVuSans-11" transform="translate(63.625 0)"/>
       <use xlink:href="#DejaVuSans-16" transform="translate(95.40625 0)"/>
      </g>
     </g>
    </g>
    <g id="ytick_5">
     <g id="line2d_27">
      <path d="M 44.103906 56.345038 
L 345.101562 56.345038 
" clip-path="url(#pb457416354)" style="fill: none; stroke: #b0b0b0; stroke-opacity: 0.25; stroke-width: 0.6; stroke-linecap: square"/>
     </g>
     <g id="line2d_28">
      <g>
       <use xlink:href="#m0dcbf66c92" x="44.103906" y="56.345038" style="stroke: #000000; stroke-width: 0.8"/>
      </g>
     </g>
     <g id="text_15">
      <!-- 0.4 -->
      <g transform="translate(21.200781 60.143866) scale(0.1 -0.1)">
       <use xlink:href="#DejaVuSans-13"/>
       <use xlink:href="#DejaVuSans-11" transform="translate(63.625 0)"/>
       <use xlink:href="#DejaVuSans-17" transform="translate(95.40625 0)"/>
      </g>
     </g>
    </g>
    <g id="ytick_6">
     <g id="line2d_29">
      <path d="M 44.103906 26.025817 
L 345.101562 26.025817 
" clip-path="url(#pb457416354)" style="fill: none; stroke: #b0b0b0; stroke-opacity: 0.25; stroke-width: 0.6; stroke-linecap: square"/>
     </g>
     <g id="line2d_30">
      <g>
       <use xlink:href="#m0dcbf66c92" x="44.103906" y="26.025817" style="stroke: #000000; stroke-width: 0.8"/>
      </g>
     </g>
     <g id="text_16">
      <!-- 0.5 -->
      <g transform="translate(21.200781 29.824646) scale(0.1 -0.1)">
       <use xlink:href="#DejaVuSans-13"/>
       <use xlink:href="#DejaVuSans-11" transform="translate(63.625 0)"/>
       <use xlink:href="#DejaVuSans-18" transform="translate(95.40625 0)"/>
      </g>
     </g>
    </g>
    <g id="text_17">
     <!-- f(x) -->
     <g transform="translate(14.798438 112.879375) rotate(-90) scale(0.1 -0.1)">
      <defs>
       <path id="DejaVuSans-49" d="M 2375 4863 
L 2375 4384 
L 1825 4384 
Q 1516 4384 1395 4259 
Q 1275 4134 1275 3809 
L 1275 3500 
L 2222 3500 
L 2222 3053 
L 1275 3053 
L 1275 0 
L 697 0 
L 697 3053 
L 147 3053 
L 147 3500 
L 697 3500 
L 697 3744 
Q 697 4328 969 4595 
Q 1241 4863 1831 4863 
L 2375 4863 
z
" transform="scale(0.015625)"/>
       <path id="DejaVuSans-b" d="M 1984 4856 
Q 1566 4138 1362 3434 
Q 1159 2731 1159 2009 
Q 1159 1288 1364 580 
Q 1569 -128 1984 -844 
L 1484 -844 
Q 1016 -109 783 600 
Q 550 1309 550 2009 
Q 550 2706 781 3412 
Q 1013 4119 1484 4856 
L 1984 4856 
z
" transform="scale(0.015625)"/>
       <path id="DejaVuSans-c" d="M 513 4856 
L 1013 4856 
Q 1481 4119 1714 3412 
Q 1947 2706 1947 2009 
Q 1947 1309 1714 600 
Q 1481 -109 1013 -844 
L 513 -844 
Q 928 -128 1133 580 
Q 1338 1288 1338 2009 
Q 1338 2731 1133 3434 
Q 928 4138 513 4856 
z
" transform="scale(0.015625)"/>
      </defs>
      <use xlink:href="#DejaVuSans-49"/>
      <use xlink:href="#DejaVuSans-b" transform="translate(35.203125 0)"/>
      <use xlink:href="#DejaVuSans-5b" transform="translate(74.21875 0)"/>
      <use xlink:href="#DejaVuSans-c" transform="translate(133.40625 0)"/>
     </g>
    </g>
   </g>
   <g id="line2d_31">
    <path d="M 57.785618 30.894645 
L 78.35962 31.003946 
L 85.903421 31.265024 
L 92.075622 31.692493 
L 97.562023 32.301788 
L 102.362623 33.058604 
L 107.163224 34.063305 
L 111.278024 35.148348 
L 115.392825 36.461074 
L 119.507625 38.018677 
L 123.622426 39.835185 
L 127.737226 41.921027 
L 131.852027 44.282699 
L 135.966827 46.922536 
L 140.081628 49.838588 
L 144.196428 53.024616 
L 148.311229 56.470185 
L 153.111829 60.798584 
L 157.91243 65.431212 
L 163.398831 71.052662 
L 169.571031 77.720693 
L 177.114832 86.229026 
L 192.202434 103.712259 
L 201.117835 113.852874 
L 207.975836 121.342058 
L 214.148037 127.756903 
L 219.634437 133.14931 
L 225.120838 138.215928 
L 229.921439 142.363045 
L 234.722039 146.231872 
L 239.52264 149.816719 
L 244.32324 153.116356 
L 249.123841 156.133581 
L 253.924442 158.874737 
L 258.725042 161.349192 
L 263.525643 163.568809 
L 268.326243 165.547411 
L 273.126844 167.300277 
L 278.613244 169.04802 
L 284.099645 170.547257 
L 289.586046 171.823247 
L 295.758247 173.022745 
L 301.930447 174.004907 
L 308.788448 174.879661 
L 316.332249 175.623954 
L 325.24765 176.26996 
L 331.419851 176.600924 
L 331.419851 176.600924 
" clip-path="url(#pb457416354)" style="fill: none; stroke: #4c78a8; stroke-width: 2; stroke-linecap: square"/>
   </g>
   <g id="patch_3">
    <path d="M 44.103906 184.958281 
L 44.103906 23.558281 
" style="fill: none; stroke: #000000; stroke-width: 0.8; stroke-linejoin: miter; stroke-linecap: square"/>
   </g>
   <g id="patch_4">
    <path d="M 44.103906 184.958281 
L 345.101562 184.958281 
" style="fill: none; stroke: #000000; stroke-width: 0.8; stroke-linejoin: miter; stroke-linecap: square"/>
   </g>
   <g id="text_18">
    <!-- Folded Normal -->
    <g transform="translate(154.726016 15.558281) scale(0.11 -0.11)">
     <defs>
      <path id="DejaVuSans-29" d="M 628 4666 
L 3309 4666 
L 3309 4134 
L 1259 4134 
L 1259 2759 
L 3109 2759 
L 3109 2228 
L 1259 2228 
L 1259 0 
L 628 0 
L 628 4666 
z
" transform="scale(0.015625)"/>
      <path id="DejaVuSans-52" d="M 1959 3097 
Q 1497 3097 1228 2736 
Q 959 2375 959 1747 
Q 959 1119 1226 758 
Q 1494 397 1959 397 
Q 2419 397 2687 759 
Q 2956 1122 2956 1747 
Q 2956 2369 2687 2733 
Q 2419 3097 1959 3097 
z
M 1959 3584 
Q 2709 3584 3137 3096 
Q 3566 2609 3566 1747 
Q 3566 888 3137 398 
Q 2709 -91 1959 -91 
Q 1206 -91 779 398 
Q 353 888 353 1747 
Q 353 2609 779 3096 
Q 1206 3584 1959 3584 
z
" transform="scale(0.015625)"/>
      <path id="DejaVuSans-4f" d="M 603 4863 
L 1178 4863 
L 1178 0 
L 603 0 
L 603 4863 
z
" transform="scale(0.015625)"/>
      <path id="DejaVuSans-47" d="M 2906 2969 
L 2906 4863 
L 3481 4863 
L 3481 0 
L 2906 0 
L 2906 525 
Q 2725 213 2448 61 
Q 2172 -91 1784 -91 
Q 1150 -91 751 415 
Q 353 922 353 1747 
Q 353 2572 751 3078 
Q 1150 3584 1784 3584 
Q 2172 3584 2448 3432 
Q 2725 3281 2906 2969 
z
M 947 1747 
Q 947 1113 1208 752 
Q 1469 391 1925 391 
Q 2381 391 2643 752 
Q 2906 1113 2906 1747 
Q 2906 2381 2643 2742 
Q 2381 3103 1925 3103 
Q 1469 3103 1208 2742 
Q 947 2381 947 1747 
z
" transform="scale(0.015625)"/>
      <path id="DejaVuSans-48" d="M 3597 1894 
L 3597 1613 
L 953 1613 
Q 991 1019 1311 708 
Q 1631 397 2203 397 
Q 2534 397 2845 478 
Q 3156 559 3463 722 
L 3463 178 
Q 3153 47 2828 -22 
Q 2503 -91 2169 -91 
Q 1331 -91 842 396 
Q 353 884 353 1716 
Q 353 2575 817 3079 
Q 1281 3584 2069 3584 
Q 2775 3584 3186 3129 
Q 3597 2675 3597 1894 
z
M 3022 2063 
Q 3016 2534 2758 2815 
Q 2500 3097 2075 3097 
Q 1594 3097 1305 2825 
Q 1016 2553 972 2059 
L 3022 2063 
z
" transform="scale(0.015625)"/>
      <path id="DejaVuSans-3" transform="scale(0.015625)"/>
      <path id="DejaVuSans-31" d="M 628 4666 
L 1478 4666 
L 3547 763 
L 3547 4666 
L 4159 4666 
L 4159 0 
L 3309 0 
L 1241 3903 
L 1241 0 
L 628 0 
L 628 4666 
z
" transform="scale(0.015625)"/>
      <path id="DejaVuSans-55" d="M 2631 2963 
Q 2534 3019 2420 3045 
Q 2306 3072 2169 3072 
Q 1681 3072 1420 2755 
Q 1159 2438 1159 1844 
L 1159 0 
L 581 0 
L 581 3500 
L 1159 3500 
L 1159 2956 
Q 1341 3275 1631 3429 
Q 1922 3584 2338 3584 
Q 2397 3584 2469 3576 
Q 2541 3569 2628 3553 
L 2631 2963 
z
" transform="scale(0.015625)"/>
      <path id="DejaVuSans-50" d="M 3328 2828 
Q 3544 3216 3844 3400 
Q 4144 3584 4550 3584 
Q 5097 3584 5394 3201 
Q 5691 2819 5691 2113 
L 5691 0 
L 5113 0 
L 5113 2094 
Q 5113 2597 4934 2840 
Q 4756 3084 4391 3084 
Q 3944 3084 3684 2787 
Q 3425 2491 3425 1978 
L 3425 0 
L 2847 0 
L 2847 2094 
Q 2847 2600 2669 2842 
Q 2491 3084 2119 3084 
Q 1678 3084 1418 2786 
Q 1159 2488 1159 1978 
L 1159 0 
L 581 0 
L 581 3500 
L 1159 3500 
L 1159 2956 
Q 1356 3278 1631 3431 
Q 1906 3584 2284 3584 
Q 2666 3584 2933 3390 
Q 3200 3197 3328 2828 
z
" transform="scale(0.015625)"/>
      <path id="DejaVuSans-44" d="M 2194 1759 
Q 1497 1759 1228 1600 
Q 959 1441 959 1056 
Q 959 750 1161 570 
Q 1363 391 1709 391 
Q 2188 391 2477 730 
Q 2766 1069 2766 1631 
L 2766 1759 
L 2194 1759 
z
M 3341 1997 
L 3341 0 
L 2766 0 
L 2766 531 
Q 2569 213 2275 61 
Q 1981 -91 1556 -91 
Q 1019 -91 701 211 
Q 384 513 384 1019 
Q 384 1609 779 1909 
Q 1175 2209 1959 2209 
L 2766 2209 
L 2766 2266 
Q 2766 2663 2505 2880 
Q 2244 3097 1772 3097 
Q 1472 3097 1187 3025 
Q 903 2953 641 2809 
L 641 3341 
Q 956 3463 1253 3523 
Q 1550 3584 1831 3584 
Q 2591 3584 2966 3190 
Q 3341 2797 3341 1997 
z
" transform="scale(0.015625)"/>
     </defs>
     <use xlink:href="#DejaVuSans-29"/>
     <use xlink:href="#DejaVuSans-52" transform="translate(53.953125 0)"/>
     <use xlink:href="#DejaVuSans-4f" transform="translate(115.140625 0)"/>
     <use xlink:href="#DejaVuSans-47" transform="translate(142.921875 0)"/>
     <use xlink:href="#DejaVuSans-48" transform="translate(206.40625 0)"/>
     <use xlink:href="#DejaVuSans-47" transform="translate(267.9375 0)"/>
     <use xlink:href="#DejaVuSans-3" transform="translate(331.421875 0)"/>
     <use xlink:href="#DejaVuSans-31" transform="translate(363.203125 0)"/>
     <use xlink:href="#DejaVuSans-52" transform="translate(438.015625 0)"/>
     <use xlink:href="#DejaVuSans-55" transform="translate(499.203125 0)"/>
     <use xlink:href="#DejaVuSans-50" transform="translate(538.5625 0)"/>
     <use xlink:href="#DejaVuSans-44" transform="translate(635.96875 0)"/>
     <use xlink:href="#DejaVuSans-4f" transform="translate(697.25 0)"/>
    </g>
   </g>
  </g>
 </g>
 <defs>
  <clipPath id="pb457416354">
   <rect x="44.103906" y="23.558281" width="300.997656" height="161.4"/>
  </clipPath>
 </defs>
</svg>
