<?xml version="1.0" encoding="utf-8" standalone="no"?>
<!DOCTYPE svg PUBLIC "-//W3C//DTD SVG 1.1//EN"
  "http://www.w3.org/Graphics/SVG/1.1/DTD/svg11.dtd">
<svg xmlns:xlink="http://www.w3.org/1999/xlink" width="352.064062pt" height="223.2pt" viewBox="0 0 352.064062 223.2" xmlns="http://www.w3.org/2000/svg" version="1.1">
 <metadata>
  <rdf:RDF xmlns:dc="http://purl.org/dc/elements/1.1/" xmlns:cc="http://creativecommons.org/ns#" xmlns:rdf="http://www.w3.org/1999/02/22-rdf-syntax-ns#">
   <cc:Work>
    <dc:type rdf:resource="http://purl.org/dc/dcmitype/StillImage"/>
    <dc:date>2026-07-05T02:24:31.617450</dc:date>
    <dc:format>image/svg+xml</dc:format>
    <dc:creator>
     <cc:Agent>
      <dc:title>Matplotlib v3.11.0, https://matplotlib.org/</dc:title>
     </cc:Agent>
    </dc:creator>
   </cc:Work>
  </rdf:RDF>
 </metadata>
 <defs>
  <style type="text/css">*{stroke-linejoin: round; stroke-linecap: butt}</style>
 </defs>
 <g id="figure_1">
  <g id="patch_1">
   <path d="M 0 223.2 
L 352.064062 223.2 
L 352.064062 0 
L 0 0 
z
" style="fill: #ffffff"/>
  </g>
  <g id="axes_1">
   <g id="patch_2">
    <path d="M 50.466406 185 
L 344.864062 185 
L 344.864062 23.557422 
L 50.466406 23.557422 
z
" style="fill: #ffffff"/>
   </g>
   <g id="FillBetweenPolyCollection_1">
    <defs>
     <path id="me1a0c33dbf" d="M 63.848118 -45.538299 
L 63.848118 -62.848462 
L 64.51888 -71.034139 
L 65.189643 -78.838161 
L 65.860405 -86.273661 
L 66.531168 -93.353374 
L 67.20193 -100.089645 
L 67.872693 -106.494442 
L 68.543455 -112.579365 
L 69.214218 -118.355659 
L 69.88498 -123.834222 
L 70.555743 -129.025616 
L 71.226505 -133.940077 
L 71.897268 -138.587522 
L 72.56803 -142.977562 
L 73.238793 -147.119509 
L 73.909555 -151.022381 
L 74.580318 -154.694918 
L 75.25108 -158.145584 
L 75.921843 -161.382577 
L 76.592605 -164.413838 
L 77.263368 -167.247056 
L 77.93413 -169.889676 
L 78.604893 -172.348909 
L 79.275655 -174.631733 
L 79.946418 -176.744907 
L 80.61718 -178.694971 
L 81.287943 -180.488257 
L 81.958705 -182.130891 
L 82.629468 -183.628804 
L 83.30023 -184.987733 
L 83.970993 -186.21323 
L 84.641755 -187.310666 
L 85.312518 -188.285236 
L 85.98328 -189.141965 
L 86.654043 -189.885713 
L 87.324805 -190.521181 
L 87.995567 -191.052913 
L 88.66633 -191.485302 
L 89.337092 -191.822596 
L 90.007855 -192.068901 
L 90.678617 -192.228184 
L 91.34938 -192.304279 
L 92.020142 -192.300892 
L 92.690905 -192.221602 
L 93.361667 -192.069866 
L 94.03243 -191.849025 
L 94.703192 -191.562302 
L 95.373955 -191.212811 
L 96.044717 -190.80356 
L 96.71548 -190.33745 
L 97.386242 -189.817282 
L 98.057005 -189.245759 
L 98.727767 -188.625488 
L 99.39853 -187.958985 
L 100.069292 -187.248676 
L 100.740055 -186.496901 
L 101.410817 -185.705916 
L 102.08158 -184.877897 
L 102.752342 -184.014938 
L 103.423105 -183.11906 
L 104.093867 -182.192209 
L 104.76463 -181.236259 
L 105.435392 -180.253015 
L 106.106155 -179.244216 
L 106.776917 -178.211535 
L 107.44768 -177.156581 
L 108.118442 -176.080903 
L 108.789205 -174.985993 
L 109.459967 -173.873283 
L 110.13073 -172.744151 
L 110.801492 -171.599921 
L 111.472255 -170.441866 
L 112.143017 -169.271208 
L 112.81378 -168.089121 
L 113.484542 -166.896732 
L 114.155305 -165.695123 
L 114.826067 -164.485331 
L 115.49683 -163.268353 
L 116.167592 -162.04514 
L 116.838354 -160.81661 
L 117.509117 -159.583636 
L 118.179879 -158.347059 
L 118.850642 -157.107681 
L 119.521404 -155.866271 
L 120.192167 -154.623563 
L 120.862929 -153.38026 
L 121.533692 -152.137033 
L 122.204454 -150.894523 
L 122.875217 -149.653341 
L 123.545979 -148.414071 
L 124.216742 -147.177269 
L 124.887504 -145.943465 
L 125.558267 -144.713164 
L 126.229029 -143.486844 
L 126.899792 -142.264963 
L 127.570554 -141.047954 
L 128.241317 -139.836228 
L 128.912079 -138.630176 
L 129.582842 -137.430166 
L 130.253604 -136.23655 
L 130.924367 -135.049657 
L 131.595129 -133.869801 
L 132.265892 -132.697275 
L 132.936654 -131.532358 
L 133.607417 -130.375311 
L 134.278179 -129.226379 
L 134.948942 -128.085792 
L 135.619704 -126.953767 
L 136.290467 -125.830503 
L 136.961229 -124.716189 
L 137.631992 -123.610999 
L 138.302754 -122.515096 
L 138.973517 -121.428629 
L 139.644279 -120.351737 
L 140.315042 -119.284546 
L 140.985804 -118.227174 
L 141.656567 -117.179726 
L 142.327329 -116.142298 
L 142.998092 -115.114977 
L 143.668854 -114.09784 
L 144.339617 -113.090956 
L 145.010379 -112.094386 
L 145.681142 -111.108181 
L 146.351904 -110.132387 
L 147.022666 -109.167039 
L 147.693429 -108.212169 
L 148.364191 -107.267799 
L 149.034954 -106.333946 
L 149.705716 -105.410622 
L 150.376479 -104.497829 
L 151.047241 -103.595568 
L 151.718004 -102.703832 
L 152.388766 -101.822609 
L 153.059529 -100.951883 
L 153.730291 -100.091632 
L 154.401054 -99.241832 
L 155.071816 -98.402451 
L 155.742579 -97.573455 
L 156.413341 -96.754808 
L 157.084104 -95.946467 
L 157.754866 -95.148388 
L 158.425629 -94.360522 
L 159.096391 -93.582817 
L 159.767154 -92.81522 
L 160.437916 -92.057673 
L 161.108679 -91.310116 
L 161.779441 -90.572488 
L 162.450204 -89.844723 
L 163.120966 -89.126754 
L 163.791729 -88.418514 
L 164.462491 -87.71993 
L 165.133254 -87.030931 
L 165.804016 -86.351442 
L 166.474779 -85.681387 
L 167.145541 -85.020688 
L 167.816304 -84.369268 
L 168.487066 -83.727045 
L 169.157829 -83.093939 
L 169.828591 -82.469867 
L 170.499354 -81.854747 
L 171.170116 -81.248493 
L 171.840879 -80.651022 
L 172.511641 -80.062247 
L 173.182404 -79.482083 
L 173.853166 -78.910441 
L 174.523929 -78.347236 
L 175.194691 -77.792378 
L 175.865453 -77.24578 
L 176.536216 -76.707354 
L 177.206978 -76.17701 
L 177.877741 -75.654659 
L 178.548503 -75.140213 
L 179.219266 -74.633582 
L 179.890028 -74.134678 
L 180.560791 -73.64341 
L 181.231553 -73.159689 
L 181.902316 -72.683428 
L 182.573078 -72.214535 
L 183.243841 -71.752924 
L 183.914603 -71.298506 
L 184.585366 -70.851191 
L 185.256128 -70.410893 
L 185.926891 -69.977524 
L 186.597653 -69.550996 
L 187.268416 -69.131222 
L 187.939178 -68.718116 
L 188.609941 -68.311593 
L 189.280703 -67.911565 
L 189.951466 -67.517949 
L 190.622228 -67.130659 
L 191.292991 -66.749612 
L 191.963753 -66.374724 
L 192.634516 -66.005912 
L 193.305278 -65.643094 
L 193.976041 -65.286188 
L 194.646803 -64.935112 
L 195.317566 -64.589787 
L 195.988328 -64.250133 
L 196.659091 -63.916069 
L 197.329853 -63.587519 
L 198.000616 -63.264403 
L 198.671378 -62.946644 
L 199.342141 -62.634167 
L 200.012903 -62.326896 
L 200.683666 -62.024754 
L 201.354428 -61.727669 
L 202.025191 -61.435566 
L 202.695953 -61.148372 
L 203.366716 -60.866016 
L 204.037478 -60.588425 
L 204.708241 -60.31553 
L 205.379003 -60.04726 
L 206.049765 -59.783547 
L 206.720528 -59.524321 
L 207.39129 -59.269515 
L 208.062053 -59.019062 
L 208.732815 -58.772897 
L 209.403578 -58.530953 
L 210.07434 -58.293166 
L 210.745103 -58.059472 
L 211.415865 -57.829808 
L 212.086628 -57.604112 
L 212.75739 -57.382322 
L 213.428153 -57.164377 
L 214.098915 -56.950217 
L 214.769678 -56.739782 
L 215.44044 -56.533015 
L 216.111203 -56.329856 
L 216.781965 -56.130249 
L 217.452728 -55.934138 
L 218.12349 -55.741467 
L 218.794253 -55.55218 
L 219.465015 -55.366224 
L 220.135778 -55.183545 
L 220.80654 -55.00409 
L 221.477303 -54.827807 
L 222.148065 -54.654645 
L 222.818828 -54.484552 
L 223.48959 -54.31748 
L 224.160353 -54.153378 
L 224.831115 -53.992197 
L 225.501878 -53.833891 
L 226.17264 -53.678411 
L 226.843403 -53.525711 
L 227.514165 -53.375745 
L 228.184928 -53.228467 
L 228.85569 -53.083834 
L 229.526453 -52.9418 
L 230.197215 -52.802322 
L 230.867978 -52.665358 
L 231.53874 -52.530866 
L 232.209503 -52.398803 
L 232.880265 -52.26913 
L 233.551028 -52.141805 
L 234.22179 -52.016789 
L 234.892552 -51.894043 
L 235.563315 -51.773528 
L 236.234077 -51.655206 
L 236.90484 -51.53904 
L 237.575602 -51.424993 
L 238.246365 -51.313029 
L 238.917127 -51.203111 
L 239.58789 -51.095206 
L 240.258652 -50.989278 
L 240.929415 -50.885293 
L 241.600177 -50.783217 
L 242.27094 -50.683018 
L 242.941702 -50.584663 
L 243.612465 -50.48812 
L 244.283227 -50.393357 
L 244.95399 -50.300343 
L 245.624752 -50.209048 
L 246.295515 -50.119442 
L 246.966277 -50.031496 
L 247.63704 -49.945179 
L 248.307802 -49.860464 
L 248.978565 -49.777322 
L 249.649327 -49.695725 
L 250.32009 -49.615647 
L 250.990852 -49.53706 
L 251.661615 -49.459938 
L 252.332377 -49.384255 
L 253.00314 -49.309986 
L 253.673902 -49.237105 
L 254.344665 -49.165588 
L 255.015427 -49.09541 
L 255.68619 -49.026547 
L 256.356952 -48.958976 
L 257.027715 -48.892674 
L 257.698477 -48.827618 
L 258.36924 -48.763786 
L 259.040002 -48.701155 
L 259.710765 -48.639704 
L 260.381527 -48.579412 
L 261.05229 -48.520258 
L 261.723052 -48.462221 
L 262.393815 -48.405281 
L 263.064577 -48.349419 
L 263.73534 -48.294613 
L 264.406102 -48.240847 
L 265.076864 -48.1881 
L 265.747627 -48.136354 
L 266.418389 -48.08559 
L 267.089152 -48.035792 
L 267.759914 -47.98694 
L 268.430677 -47.939019 
L 269.101439 -47.89201 
L 269.772202 -47.845898 
L 270.442964 -47.800665 
L 271.113727 -47.756296 
L 271.784489 -47.712775 
L 272.455252 -47.670085 
L 273.126014 -47.628213 
L 273.796777 -47.587142 
L 274.467539 -47.546858 
L 275.138302 -47.507346 
L 275.809064 -47.468592 
L 276.479827 -47.430583 
L 277.150589 -47.393303 
L 277.821352 -47.35674 
L 278.492114 -47.320881 
L 279.162877 -47.285712 
L 279.833639 -47.25122 
L 280.504402 -47.217393 
L 281.175164 -47.184219 
L 281.845927 -47.151685 
L 282.516689 -47.119779 
L 283.187452 -47.088489 
L 283.858214 -47.057805 
L 284.528977 -47.027714 
L 285.199739 -46.998206 
L 285.870502 -46.96927 
L 286.541264 -46.940894 
L 287.212027 -46.913069 
L 287.882789 -46.885784 
L 288.553552 -46.859028 
L 289.224314 -46.832793 
L 289.895077 -46.807067 
L 290.565839 -46.781842 
L 291.236602 -46.757108 
L 291.907364 -46.732856 
L 292.578127 -46.709076 
L 293.248889 -46.68576 
L 293.919651 -46.662898 
L 294.590414 -46.640483 
L 295.261176 -46.618506 
L 295.931939 -46.596958 
L 296.602701 -46.575831 
L 297.273464 -46.555118 
L 297.944226 -46.53481 
L 298.614989 -46.514899 
L 299.285751 -46.495379 
L 299.956514 -46.476241 
L 300.627276 -46.457479 
L 301.298039 -46.439085 
L 301.968801 -46.421052 
L 302.639564 -46.403373 
L 303.310326 -46.386041 
L 303.981089 -46.369051 
L 304.651851 -46.352395 
L 305.322614 -46.336066 
L 305.993376 -46.320059 
L 306.664139 -46.304367 
L 307.334901 -46.288985 
L 308.005664 -46.273906 
L 308.676426 -46.259125 
L 309.347189 -46.244635 
L 310.017951 -46.230431 
L 310.688714 -46.216509 
L 311.359476 -46.202861 
L 312.030239 -46.189483 
L 312.701001 -46.17637 
L 313.371764 -46.163516 
L 314.042526 -46.150917 
L 314.713289 -46.138568 
L 315.384051 -46.126464 
L 316.054814 -46.114599 
L 316.725576 -46.10297 
L 317.396339 -46.091571 
L 318.067101 -46.080399 
L 318.737864 -46.069449 
L 319.408626 -46.058717 
L 320.079389 -46.048198 
L 320.750151 -46.037888 
L 321.420914 -46.027783 
L 322.091676 -46.01788 
L 322.762439 -46.008173 
L 323.433201 -45.99866 
L 324.103963 -45.989337 
L 324.774726 -45.9802 
L 325.445488 -45.971245 
L 326.116251 -45.962468 
L 326.787013 -45.953867 
L 327.457776 -45.945438 
L 328.128538 -45.937177 
L 328.799301 -45.929081 
L 329.470063 -45.921147 
L 330.140826 -45.913372 
L 330.811588 -45.905752 
L 331.482351 -45.898285 
L 331.482351 -45.538299 
L 331.482351 -45.538299 
L 330.811588 -45.538299 
L 330.140826 -45.538299 
L 329.470063 -45.538299 
L 328.799301 -45.538299 
L 328.128538 -45.538299 
L 327.457776 -45.538299 
L 326.787013 -45.538299 
L 326.116251 -45.538299 
L 325.445488 -45.538299 
L 324.774726 -45.538299 
L 324.103963 -45.538299 
L 323.433201 -45.538299 
L 322.762439 -45.538299 
L 322.091676 -45.538299 
L 321.420914 -45.538299 
L 320.750151 -45.538299 
L 320.079389 -45.538299 
L 319.408626 -45.538299 
L 318.737864 -45.538299 
L 318.067101 -45.538299 
L 317.396339 -45.538299 
L 316.725576 -45.538299 
L 316.054814 -45.538299 
L 315.384051 -45.538299 
L 314.713289 -45.538299 
L 314.042526 -45.538299 
L 313.371764 -45.538299 
L 312.701001 -45.538299 
L 312.030239 -45.538299 
L 311.359476 -45.538299 
L 310.688714 -45.538299 
L 310.017951 -45.538299 
L 309.347189 -45.538299 
L 308.676426 -45.538299 
L 308.005664 -45.538299 
L 307.334901 -45.538299 
L 306.664139 -45.538299 
L 305.993376 -45.538299 
L 305.322614 -45.538299 
L 304.651851 -45.538299 
L 303.981089 -45.538299 
L 303.310326 -45.538299 
L 302.639564 -45.538299 
L 301.968801 -45.538299 
L 301.298039 -45.538299 
L 300.627276 -45.538299 
L 299.956514 -45.538299 
L 299.285751 -45.538299 
L 298.614989 -45.538299 
L 297.944226 -45.538299 
L 297.273464 -45.538299 
L 296.602701 -45.538299 
L 295.931939 -45.538299 
L 295.261176 -45.538299 
L 294.590414 -45.538299 
L 293.919651 -45.538299 
L 293.248889 -45.538299 
L 292.578127 -45.538299 
L 291.907364 -45.538299 
L 291.236602 -45.538299 
L 290.565839 -45.538299 
L 289.895077 -45.538299 
L 289.224314 -45.538299 
L 288.553552 -45.538299 
L 287.882789 -45.538299 
L 287.212027 -45.538299 
L 286.541264 -45.538299 
L 285.870502 -45.538299 
L 285.199739 -45.538299 
L 284.528977 -45.538299 
L 283.858214 -45.538299 
L 283.187452 -45.538299 
L 282.516689 -45.538299 
L 281.845927 -45.538299 
L 281.175164 -45.538299 
L 280.504402 -45.538299 
L 279.833639 -45.538299 
L 279.162877 -45.538299 
L 278.492114 -45.538299 
L 277.821352 -45.538299 
L 277.150589 -45.538299 
L 276.479827 -45.538299 
L 275.809064 -45.538299 
L 275.138302 -45.538299 
L 274.467539 -45.538299 
L 273.796777 -45.538299 
L 273.126014 -45.538299 
L 272.455252 -45.538299 
L 271.784489 -45.538299 
L 271.113727 -45.538299 
L 270.442964 -45.538299 
L 269.772202 -45.538299 
L 269.101439 -45.538299 
L 268.430677 -45.538299 
L 267.759914 -45.538299 
L 267.089152 -45.538299 
L 266.418389 -45.538299 
L 265.747627 -45.538299 
L 265.076864 -45.538299 
L 264.406102 -45.538299 
L 263.73534 -45.538299 
L 263.064577 -45.538299 
L 262.393815 -45.538299 
L 261.723052 -45.538299 
L 261.05229 -45.538299 
L 260.381527 -45.538299 
L 259.710765 -45.538299 
L 259.040002 -45.538299 
L 258.36924 -45.538299 
L 257.698477 -45.538299 
L 257.027715 -45.538299 
L 256.356952 -45.538299 
L 255.68619 -45.538299 
L 255.015427 -45.538299 
L 254.344665 -45.538299 
L 253.673902 -45.538299 
L 253.00314 -45.538299 
L 252.332377 -45.538299 
L 251.661615 -45.538299 
L 250.990852 -45.538299 
L 250.32009 -45.538299 
L 249.649327 -45.538299 
L 248.978565 -45.538299 
L 248.307802 -45.538299 
L 247.63704 -45.538299 
L 246.966277 -45.538299 
L 246.295515 -45.538299 
L 245.624752 -45.538299 
L 244.95399 -45.538299 
L 244.283227 -45.538299 
L 243.612465 -45.538299 
L 242.941702 -45.538299 
L 242.27094 -45.538299 
L 241.600177 -45.538299 
L 240.929415 -45.538299 
L 240.258652 -45.538299 
L 239.58789 -45.538299 
L 238.917127 -45.538299 
L 238.246365 -45.538299 
L 237.575602 -45.538299 
L 236.90484 -45.538299 
L 236.234077 -45.538299 
L 235.563315 -45.538299 
L 234.892552 -45.538299 
L 234.22179 -45.538299 
L 233.551028 -45.538299 
L 232.880265 -45.538299 
L 232.209503 -45.538299 
L 231.53874 -45.538299 
L 230.867978 -45.538299 
L 230.197215 -45.538299 
L 229.526453 -45.538299 
L 228.85569 -45.538299 
L 228.184928 -45.538299 
L 227.514165 -45.538299 
L 226.843403 -45.538299 
L 226.17264 -45.538299 
L 225.501878 -45.538299 
L 224.831115 -45.538299 
L 224.160353 -45.538299 
L 223.48959 -45.538299 
L 222.818828 -45.538299 
L 222.148065 -45.538299 
L 221.477303 -45.538299 
L 220.80654 -45.538299 
L 220.135778 -45.538299 
L 219.465015 -45.538299 
L 218.794253 -45.538299 
L 218.12349 -45.538299 
L 217.452728 -45.538299 
L 216.781965 -45.538299 
L 216.111203 -45.538299 
L 215.44044 -45.538299 
L 214.769678 -45.538299 
L 214.098915 -45.538299 
L 213.428153 -45.538299 
L 212.75739 -45.538299 
L 212.086628 -45.538299 
L 211.415865 -45.538299 
L 210.745103 -45.538299 
L 210.07434 -45.538299 
L 209.403578 -45.538299 
L 208.732815 -45.538299 
L 208.062053 -45.538299 
L 207.39129 -45.538299 
L 206.720528 -45.538299 
L 206.049765 -45.538299 
L 205.379003 -45.538299 
L 204.708241 -45.538299 
L 204.037478 -45.538299 
L 203.366716 -45.538299 
L 202.695953 -45.538299 
L 202.025191 -45.538299 
L 201.354428 -45.538299 
L 200.683666 -45.538299 
L 200.012903 -45.538299 
L 199.342141 -45.538299 
L 198.671378 -45.538299 
L 198.000616 -45.538299 
L 197.329853 -45.538299 
L 196.659091 -45.538299 
L 195.988328 -45.538299 
L 195.317566 -45.538299 
L 194.646803 -45.538299 
L 193.976041 -45.538299 
L 193.305278 -45.538299 
L 192.634516 -45.538299 
L 191.963753 -45.538299 
L 191.292991 -45.538299 
L 190.622228 -45.538299 
L 189.951466 -45.538299 
L 189.280703 -45.538299 
L 188.609941 -45.538299 
L 187.939178 -45.538299 
L 187.268416 -45.538299 
L 186.597653 -45.538299 
L 185.926891 -45.538299 
L 185.256128 -45.538299 
L 184.585366 -45.538299 
L 183.914603 -45.538299 
L 183.243841 -45.538299 
L 182.573078 -45.538299 
L 181.902316 -45.538299 
L 181.231553 -45.538299 
L 180.560791 -45.538299 
L 179.890028 -45.538299 
L 179.219266 -45.538299 
L 178.548503 -45.538299 
L 177.877741 -45.538299 
L 177.206978 -45.538299 
L 176.536216 -45.538299 
L 175.865453 -45.538299 
L 175.194691 -45.538299 
L 174.523929 -45.538299 
L 173.853166 -45.538299 
L 173.182404 -45.538299 
L 172.511641 -45.538299 
L 171.840879 -45.538299 
L 171.170116 -45.538299 
L 170.499354 -45.538299 
L 169.828591 -45.538299 
L 169.157829 -45.538299 
L 168.487066 -45.538299 
L 167.816304 -45.538299 
L 167.145541 -45.538299 
L 166.474779 -45.538299 
L 165.804016 -45.538299 
L 165.133254 -45.538299 
L 164.462491 -45.538299 
L 163.791729 -45.538299 
L 163.120966 -45.538299 
L 162.450204 -45.538299 
L 161.779441 -45.538299 
L 161.108679 -45.538299 
L 160.437916 -45.538299 
L 159.767154 -45.538299 
L 159.096391 -45.538299 
L 158.425629 -45.538299 
L 157.754866 -45.538299 
L 157.084104 -45.538299 
L 156.413341 -45.538299 
L 155.742579 -45.538299 
L 155.071816 -45.538299 
L 154.401054 -45.538299 
L 153.730291 -45.538299 
L 153.059529 -45.538299 
L 152.388766 -45.538299 
L 151.718004 -45.538299 
L 151.047241 -45.538299 
L 150.376479 -45.538299 
L 149.705716 -45.538299 
L 149.034954 -45.538299 
L 148.364191 -45.538299 
L 147.693429 -45.538299 
L 147.022666 -45.538299 
L 146.351904 -45.538299 
L 145.681142 -45.538299 
L 145.010379 -45.538299 
L 144.339617 -45.538299 
L 143.668854 -45.538299 
L 142.998092 -45.538299 
L 142.327329 -45.538299 
L 141.656567 -45.538299 
L 140.985804 -45.538299 
L 140.315042 -45.538299 
L 139.644279 -45.538299 
L 138.973517 -45.538299 
L 138.302754 -45.538299 
L 137.631992 -45.538299 
L 136.961229 -45.538299 
L 136.290467 -45.538299 
L 135.619704 -45.538299 
L 134.948942 -45.538299 
L 134.278179 -45.538299 
L 133.607417 -45.538299 
L 132.936654 -45.538299 
L 132.265892 -45.538299 
L 131.595129 -45.538299 
L 130.924367 -45.538299 
L 130.253604 -45.538299 
L 129.582842 -45.538299 
L 128.912079 -45.538299 
L 128.241317 -45.538299 
L 127.570554 -45.538299 
L 126.899792 -45.538299 
L 126.229029 -45.538299 
L 125.558267 -45.538299 
L 124.887504 -45.538299 
L 124.216742 -45.538299 
L 123.545979 -45.538299 
L 122.875217 -45.538299 
L 122.204454 -45.538299 
L 121.533692 -45.538299 
L 120.862929 -45.538299 
L 120.192167 -45.538299 
L 119.521404 -45.538299 
L 118.850642 -45.538299 
L 118.179879 -45.538299 
L 117.509117 -45.538299 
L 116.838354 -45.538299 
L 116.167592 -45.538299 
L 115.49683 -45.538299 
L 114.826067 -45.538299 
L 114.155305 -45.538299 
L 113.484542 -45.538299 
L 112.81378 -45.538299 
L 112.143017 -45.538299 
L 111.472255 -45.538299 
L 110.801492 -45.538299 
L 110.13073 -45.538299 
L 109.459967 -45.538299 
L 108.789205 -45.538299 
L 108.118442 -45.538299 
L 107.44768 -45.538299 
L 106.776917 -45.538299 
L 106.106155 -45.538299 
L 105.435392 -45.538299 
L 104.76463 -45.538299 
L 104.093867 -45.538299 
L 103.423105 -45.538299 
L 102.752342 -45.538299 
L 102.08158 -45.538299 
L 101.410817 -45.538299 
L 100.740055 -45.538299 
L 100.069292 -45.538299 
L 99.39853 -45.538299 
L 98.727767 -45.538299 
L 98.057005 -45.538299 
L 97.386242 -45.538299 
L 96.71548 -45.538299 
L 96.044717 -45.538299 
L 95.373955 -45.538299 
L 94.703192 -45.538299 
L 94.03243 -45.538299 
L 93.361667 -45.538299 
L 92.690905 -45.538299 
L 92.020142 -45.538299 
L 91.34938 -45.538299 
L 90.678617 -45.538299 
L 90.007855 -45.538299 
L 89.337092 -45.538299 
L 88.66633 -45.538299 
L 87.995567 -45.538299 
L 87.324805 -45.538299 
L 86.654043 -45.538299 
L 85.98328 -45.538299 
L 85.312518 -45.538299 
L 84.641755 -45.538299 
L 83.970993 -45.538299 
L 83.30023 -45.538299 
L 82.629468 -45.538299 
L 81.958705 -45.538299 
L 81.287943 -45.538299 
L 80.61718 -45.538299 
L 79.946418 -45.538299 
L 79.275655 -45.538299 
L 78.604893 -45.538299 
L 77.93413 -45.538299 
L 77.263368 -45.538299 
L 76.592605 -45.538299 
L 75.921843 -45.538299 
L 75.25108 -45.538299 
L 74.580318 -45.538299 
L 73.909555 -45.538299 
L 73.238793 -45.538299 
L 72.56803 -45.538299 
L 71.897268 -45.538299 
L 71.226505 -45.538299 
L 70.555743 -45.538299 
L 69.88498 -45.538299 
L 69.214218 -45.538299 
L 68.543455 -45.538299 
L 67.872693 -45.538299 
L 67.20193 -45.538299 
L 66.531168 -45.538299 
L 65.860405 -45.538299 
L 65.189643 -45.538299 
L 64.51888 -45.538299 
L 63.848118 -45.538299 
z
" style="stroke: #4c78a8; stroke-opacity: 0.15"/>
    </defs>
    <g clip-path="url(#p6c33f09299)">
     <use xlink:href="#me1a0c33dbf" x="0" y="223.2" style="fill: #4c78a8; fill-opacity: 0.15; stroke: #4c78a8; stroke-opacity: 0.15"/>
    </g>
   </g>
   <g id="matplotlib.axis_1">
    <g id="xtick_1">
     <g id="line2d_1">
      <path d="M 62.525619 185 
L 62.525619 23.557422 
" clip-path="url(#p6c33f09299)" style="fill: none; stroke: #b0b0b0; stroke-opacity: 0.25; stroke-width: 0.6; stroke-linecap: square"/>
     </g>
     <g id="line2d_2">
      <defs>
       <path id="m5b86a29c2a" d="M 0 0 
L 0 3.5 
" style="stroke: #000000; stroke-width: 0.8"/>
      </defs>
      <g>
       <use xlink:href="#m5b86a29c2a" x="62.525619" y="185" style="stroke: #000000; stroke-width: 0.8"/>
      </g>
     </g>
     <g id="text_1">
      <!-- 0.0 -->
      <g transform="translate(54.574057 199.597656) scale(0.1 -0.1)">
       <defs>
        <path id="DejaVuSans-13" d="M 2034 4250 
Q 1547 4250 1301 3770 
Q 1056 3291 1056 2328 
Q 1056 1369 1301 889 
Q 1547 409 2034 409 
Q 2525 409 2770 889 
Q 3016 1369 3016 2328 
Q 3016 3291 2770 3770 
Q 2525 4250 2034 4250 
z
M 2034 4750 
Q 2819 4750 3233 4129 
Q 3647 3509 3647 2328 
Q 3647 1150 3233 529 
Q 2819 -91 2034 -91 
Q 1250 -91 836 529 
Q 422 1150 422 2328 
Q 422 3509 836 4129 
Q 1250 4750 2034 4750 
z
" transform="scale(0.015625)"/>
        <path id="DejaVuSans-11" d="M 684 794 
L 1344 794 
L 1344 0 
L 684 0 
L 684 794 
z
" transform="scale(0.015625)"/>
       </defs>
       <use xlink:href="#DejaVuSans-13"/>
       <use xlink:href="#DejaVuSans-11" transform="translate(63.625 0)"/>
       <use xlink:href="#DejaVuSans-13" transform="translate(95.40625 0)"/>
      </g>
     </g>
    </g>
    <g id="xtick_2">
     <g id="line2d_3">
      <path d="M 98.936413 185 
L 98.936413 23.557422 
" clip-path="url(#p6c33f09299)" style="fill: none; stroke: #b0b0b0; stroke-opacity: 0.25; stroke-width: 0.6; stroke-linecap: square"/>
     </g>
     <g id="line2d_4">
      <g>
       <use xlink:href="#m5b86a29c2a" x="98.936413" y="185" style="stroke: #000000; stroke-width: 0.8"/>
      </g>
     </g>
     <g id="text_2">
      <!-- 2.5 -->
      <g transform="translate(90.98485 199.597656) scale(0.1 -0.1)">
       <defs>
        <path id="DejaVuSans-15" d="M 1228 531 
L 3431 531 
L 3431 0 
L 469 0 
L 469 531 
Q 828 903 1448 1529 
Q 2069 2156 2228 2338 
Q 2531 2678 2651 2914 
Q 2772 3150 2772 3378 
Q 2772 3750 2511 3984 
Q 2250 4219 1831 4219 
Q 1534 4219 1204 4116 
Q 875 4013 500 3803 
L 500 4441 
Q 881 4594 1212 4672 
Q 1544 4750 1819 4750 
Q 2544 4750 2975 4387 
Q 3406 4025 3406 3419 
Q 3406 3131 3298 2873 
Q 3191 2616 2906 2266 
Q 2828 2175 2409 1742 
Q 1991 1309 1228 531 
z
" transform="scale(0.015625)"/>
        <path id="DejaVuSans-18" d="M 691 4666 
L 3169 4666 
L 3169 4134 
L 1269 4134 
L 1269 2991 
Q 1406 3038 1543 3061 
Q 1681 3084 1819 3084 
Q 2600 3084 3056 2656 
Q 3513 2228 3513 1497 
Q 3513 744 3044 326 
Q 2575 -91 1722 -91 
Q 1428 -91 1123 -41 
Q 819 9 494 109 
L 494 744 
Q 775 591 1075 516 
Q 1375 441 1709 441 
Q 2250 441 2565 725 
Q 2881 1009 2881 1497 
Q 2881 1984 2565 2268 
Q 2250 2553 1709 2553 
Q 1456 2553 1204 2497 
Q 953 2441 691 2322 
L 691 4666 
z
" transform="scale(0.015625)"/>
       </defs>
       <use xlink:href="#DejaVuSans-15"/>
       <use xlink:href="#DejaVuSans-11" transform="translate(63.625 0)"/>
       <use xlink:href="#DejaVuSans-18" transform="translate(95.40625 0)"/>
      </g>
     </g>
    </g>
    <g id="xtick_3">
     <g id="line2d_5">
      <path d="M 135.347207 185 
L 135.347207 23.557422 
" clip-path="url(#p6c33f09299)" style="fill: none; stroke: #b0b0b0; stroke-opacity: 0.25; stroke-width: 0.6; stroke-linecap: square"/>
     </g>
     <g id="line2d_6">
      <g>
       <use xlink:href="#m5b86a29c2a" x="135.347207" y="185" style="stroke: #000000; stroke-width: 0.8"/>
      </g>
     </g>
     <g id="text_3">
      <!-- 5.0 -->
      <g transform="translate(127.395644 199.597656) scale(0.1 -0.1)">
       <use xlink:href="#DejaVuSans-18"/>
       <use xlink:href="#DejaVuSans-11" transform="translate(63.625 0)"/>
       <use xlink:href="#DejaVuSans-13" transform="translate(95.40625 0)"/>
      </g>
     </g>
    </g>
    <g id="xtick_4">
     <g id="line2d_7">
      <path d="M 171.758001 185 
L 171.758001 23.557422 
" clip-path="url(#p6c33f09299)" style="fill: none; stroke: #b0b0b0; stroke-opacity: 0.25; stroke-width: 0.6; stroke-linecap: square"/>
     </g>
     <g id="line2d_8">
      <g>
       <use xlink:href="#m5b86a29c2a" x="171.758001" y="185" style="stroke: #000000; stroke-width: 0.8"/>
      </g>
     </g>
     <g id="text_4">
      <!-- 7.5 -->
      <g transform="translate(163.806438 199.597656) scale(0.1 -0.1)">
       <defs>
        <path id="DejaVuSans-1a" d="M 525 4666 
L 3525 4666 
L 3525 4397 
L 1831 0 
L 1172 0 
L 2766 4134 
L 525 4134 
L 525 4666 
z
" transform="scale(0.015625)"/>
       </defs>
       <use xlink:href="#DejaVuSans-1a"/>
       <use xlink:href="#DejaVuSans-11" transform="translate(63.625 0)"/>
       <use xlink:href="#DejaVuSans-18" transform="translate(95.40625 0)"/>
      </g>
     </g>
    </g>
    <g id="xtick_5">
     <g id="line2d_9">
      <path d="M 208.168795 185 
L 208.168795 23.557422 
" clip-path="url(#p6c33f09299)" style="fill: none; stroke: #b0b0b0; stroke-opacity: 0.25; stroke-width: 0.6; stroke-linecap: square"/>
     </g>
     <g id="line2d_10">
      <g>
       <use xlink:href="#m5b86a29c2a" x="208.168795" y="185" style="stroke: #000000; stroke-width: 0.8"/>
      </g>
     </g>
     <g id="text_5">
      <!-- 10.0 -->
      <g transform="translate(197.035982 199.597656) scale(0.1 -0.1)">
       <defs>
        <path id="DejaVuSans-14" d="M 794 531 
L 1825 531 
L 1825 4091 
L 703 3866 
L 703 4441 
L 1819 4666 
L 2450 4666 
L 2450 531 
L 3481 531 
L 3481 0 
L 794 0 
L 794 531 
z
" transform="scale(0.015625)"/>
       </defs>
       <use xlink:href="#DejaVuSans-14"/>
       <use xlink:href="#DejaVuSans-13" transform="translate(63.625 0)"/>
       <use xlink:href="#DejaVuSans-11" transform="translate(127.25 0)"/>
       <use xlink:href="#DejaVuSans-13" transform="translate(159.03125 0)"/>
      </g>
     </g>
    </g>
    <g id="xtick_6">
     <g id="line2d_11">
      <path d="M 244.579588 185 
L 244.579588 23.557422 
" clip-path="url(#p6c33f09299)" style="fill: none; stroke: #b0b0b0; stroke-opacity: 0.25; stroke-width: 0.6; stroke-linecap: square"/>
     </g>
     <g id="line2d_12">
      <g>
       <use xlink:href="#m5b86a29c2a" x="244.579588" y="185" style="stroke: #000000; stroke-width: 0.8"/>
      </g>
     </g>
     <g id="text_6">
      <!-- 12.5 -->
      <g transform="translate(233.446776 199.597656) scale(0.1 -0.1)">
       <use xlink:href="#DejaVuSans-14"/>
       <use xlink:href="#DejaVuSans-15" transform="translate(63.625 0)"/>
       <use xlink:href="#DejaVuSans-11" transform="translate(127.25 0)"/>
       <use xlink:href="#DejaVuSans-18" transform="translate(159.03125 0)"/>
      </g>
     </g>
    </g>
    <g id="xtick_7">
     <g id="line2d_13">
      <path d="M 280.990382 185 
L 280.990382 23.557422 
" clip-path="url(#p6c33f09299)" style="fill: none; stroke: #b0b0b0; stroke-opacity: 0.25; stroke-width: 0.6; stroke-linecap: square"/>
     </g>
     <g id="line2d_14">
      <g>
       <use xlink:href="#m5b86a29c2a" x="280.990382" y="185" style="stroke: #000000; stroke-width: 0.8"/>
      </g>
     </g>
     <g id="text_7">
      <!-- 15.0 -->
      <g transform="translate(269.85757 199.597656) scale(0.1 -0.1)">
       <use xlink:href="#DejaVuSans-14"/>
       <use xlink:href="#DejaVuSans-18" transform="translate(63.625 0)"/>
       <use xlink:href="#DejaVuSans-11" transform="translate(127.25 0)"/>
       <use xlink:href="#DejaVuSans-13" transform="translate(159.03125 0)"/>
      </g>
     </g>
    </g>
    <g id="xtick_8">
     <g id="line2d_15">
      <path d="M 317.401176 185 
L 317.401176 23.557422 
" clip-path="url(#p6c33f09299)" style="fill: none; stroke: #b0b0b0; stroke-opacity: 0.25; stroke-width: 0.6; stroke-linecap: square"/>
     </g>
     <g id="line2d_16">
      <g>
       <use xlink:href="#m5b86a29c2a" x="317.401176" y="185" style="stroke: #000000; stroke-width: 0.8"/>
      </g>
     </g>
     <g id="text_8">
      <!-- 17.5 -->
      <g transform="translate(306.268364 199.597656) scale(0.1 -0.1)">
       <use xlink:href="#DejaVuSans-14"/>
       <use xlink:href="#DejaVuSans-1a" transform="translate(63.625 0)"/>
       <use xlink:href="#DejaVuSans-11" transform="translate(127.25 0)"/>
       <use xlink:href="#DejaVuSans-18" transform="translate(159.03125 0)"/>
      </g>
     </g>
    </g>
    <g id="text_9">
     <!-- x -->
     <g transform="translate(194.705859 213.597656) scale(0.1 -0.1)">
      <defs>
       <path id="DejaVuSans-5b" d="M 3513 3500 
L 2247 1797 
L 3578 0 
L 2900 0 
L 1881 1375 
L 863 0 
L 184 0 
L 1544 1831 
L 300 3500 
L 978 3500 
L 1906 2253 
L 2834 3500 
L 3513 3500 
z
" transform="scale(0.015625)"/>
      </defs>
      <use xlink:href="#DejaVuSans-5b"/>
     </g>
    </g>
   </g>
   <g id="matplotlib.axis_2">
    <g id="ytick_1">
     <g id="line2d_17">
      <path d="M 50.466406 177.661701 
L 344.864062 177.661701 
" clip-path="url(#p6c33f09299)" style="fill: none; stroke: #b0b0b0; stroke-opacity: 0.25; stroke-width: 0.6; stroke-linecap: square"/>
     </g>
     <g id="line2d_18">
      <defs>
       <path id="m6b9566fade" d="M 0 0 
L -3.5 0 
" style="stroke: #000000; stroke-width: 0.8"/>
      </defs>
      <g>
       <use xlink:href="#m6b9566fade" x="50.466406" y="177.661701" style="stroke: #000000; stroke-width: 0.8"/>
      </g>
     </g>
     <g id="text_10">
      <!-- 0.00 -->
      <g transform="translate(21.200781 181.460529) scale(0.1 -0.1)">
       <use xlink:href="#DejaVuSans-13"/>
       <use xlink:href="#DejaVuSans-11" transform="translate(63.625 0)"/>
       <use xlink:href="#DejaVuSans-13" transform="translate(95.40625 0)"/>
       <use xlink:href="#DejaVuSans-13" transform="translate(159.03125 0)"/>
      </g>
     </g>
    </g>
    <g id="ytick_2">
     <g id="line2d_19">
      <path d="M 50.466406 137.764371 
L 344.864062 137.764371 
" clip-path="url(#p6c33f09299)" style="fill: none; stroke: #b0b0b0; stroke-opacity: 0.25; stroke-width: 0.6; stroke-linecap: square"/>
     </g>
     <g id="line2d_20">
      <g>
       <use xlink:href="#m6b9566fade" x="50.466406" y="137.764371" style="stroke: #000000; stroke-width: 0.8"/>
      </g>
     </g>
     <g id="text_11">
      <!-- 0.05 -->
      <g transform="translate(21.200781 141.563199) scale(0.1 -0.1)">
       <use xlink:href="#DejaVuSans-13"/>
       <use xlink:href="#DejaVuSans-11" transform="translate(63.625 0)"/>
       <use xlink:href="#DejaVuSans-13" transform="translate(95.40625 0)"/>
       <use xlink:href="#DejaVuSans-18" transform="translate(159.03125 0)"/>
      </g>
     </g>
    </g>
    <g id="ytick_3">
     <g id="line2d_21">
      <path d="M 50.466406 97.86704 
L 344.864062 97.86704 
" clip-path="url(#p6c33f09299)" style="fill: none; stroke: #b0b0b0; stroke-opacity: 0.25; stroke-width: 0.6; stroke-linecap: square"/>
     </g>
     <g id="line2d_22">
      <g>
       <use xlink:href="#m6b9566fade" x="50.466406" y="97.86704" style="stroke: #000000; stroke-width: 0.8"/>
      </g>
     </g>
     <g id="text_12">
      <!-- 0.10 -->
      <g transform="translate(21.200781 101.665869) scale(0.1 -0.1)">
       <use xlink:href="#DejaVuSans-13"/>
       <use xlink:href="#DejaVuSans-11" transform="translate(63.625 0)"/>
       <use xlink:href="#DejaVuSans-14" transform="translate(95.40625 0)"/>
       <use xlink:href="#DejaVuSans-13" transform="translate(159.03125 0)"/>
      </g>
     </g>
    </g>
    <g id="ytick_4">
     <g id="line2d_23">
      <path d="M 50.466406 57.96971 
L 344.864062 57.96971 
" clip-path="url(#p6c33f09299)" style="fill: none; stroke: #b0b0b0; stroke-opacity: 0.25; stroke-width: 0.6; stroke-linecap: square"/>
     </g>
     <g id="line2d_24">
      <g>
       <use xlink:href="#m6b9566fade" x="50.466406" y="57.96971" style="stroke: #000000; stroke-width: 0.8"/>
      </g>
     </g>
     <g id="text_13">
      <!-- 0.15 -->
      <g transform="translate(21.200781 61.768538) scale(0.1 -0.1)">
       <use xlink:href="#DejaVuSans-13"/>
       <use xlink:href="#DejaVuSans-11" transform="translate(63.625 0)"/>
       <use xlink:href="#DejaVuSans-14" transform="translate(95.40625 0)"/>
       <use xlink:href="#DejaVuSans-18" transform="translate(159.03125 0)"/>
      </g>
     </g>
    </g>
    <g id="text_14">
     <!-- f(x) -->
     <g transform="translate(14.798437 112.899805) rotate(-90) scale(0.1 -0.1)">
      <defs>
       <path id="DejaVuSans-49" d="M 2375 4863 
L 2375 4384 
L 1825 4384 
Q 1516 4384 1395 4259 
Q 1275 4134 1275 3809 
L 1275 3500 
L 2222 3500 
L 2222 3053 
L 1275 3053 
L 1275 0 
L 697 0 
L 697 3053 
L 147 3053 
L 147 3500 
L 697 3500 
L 697 3744 
Q 697 4328 969 4595 
Q 1241 4863 1831 4863 
L 2375 4863 
z
" transform="scale(0.015625)"/>
       <path id="DejaVuSans-b" d="M 1984 4856 
Q 1566 4138 1362 3434 
Q 1159 2731 1159 2009 
Q 1159 1288 1364 580 
Q 1569 -128 1984 -844 
L 1484 -844 
Q 1016 -109 783 600 
Q 550 1309 550 2009 
Q 550 2706 781 3412 
Q 1013 4119 1484 4856 
L 1984 4856 
z
" transform="scale(0.015625)"/>
       <path id="DejaVuSans-c" d="M 513 4856 
L 1013 4856 
Q 1481 4119 1714 3412 
Q 1947 2706 1947 2009 
Q 1947 1309 1714 600 
Q 1481 -109 1013 -844 
L 513 -844 
Q 928 -128 1133 580 
Q 1338 1288 1338 2009 
Q 1338 2731 1133 3434 
Q 928 4138 513 4856 
z
" transform="scale(0.015625)"/>
      </defs>
      <use xlink:href="#DejaVuSans-49"/>
      <use xlink:href="#DejaVuSans-b" transform="translate(35.203125 0)"/>
      <use xlink:href="#DejaVuSans-5b" transform="translate(74.21875 0)"/>
      <use xlink:href="#DejaVuSans-c" transform="translate(133.40625 0)"/>
     </g>
    </g>
   </g>
   <g id="line2d_25">
    <path d="M 63.848118 160.351538 
L 65.860405 136.926339 
L 67.872693 116.705558 
L 69.88498 99.365778 
L 71.897268 84.612478 
L 73.909555 72.177619 
L 75.25108 65.054416 
L 76.592605 58.786162 
L 77.93413 53.310324 
L 79.275655 48.568267 
L 80.61718 44.505029 
L 81.958705 41.069109 
L 83.30023 38.212267 
L 84.641755 35.889334 
L 85.98328 34.058035 
L 87.324805 32.678819 
L 88.66633 31.714698 
L 90.007855 31.131099 
L 91.34938 30.895721 
L 92.690905 30.978398 
L 94.03243 31.350975 
L 95.373955 31.987189 
L 96.71548 32.86255 
L 98.057005 33.954241 
L 100.069292 35.951324 
L 102.08158 38.322103 
L 104.093867 41.007791 
L 106.776917 44.988465 
L 110.13073 50.455849 
L 114.155305 57.504877 
L 120.862929 69.81974 
L 129.582842 85.769834 
L 134.948942 95.114208 
L 139.644279 102.848263 
L 143.668854 109.10216 
L 147.693429 114.987831 
L 151.718004 120.496168 
L 155.742579 125.626545 
L 159.767154 130.38478 
L 163.791729 134.781486 
L 167.816304 138.830732 
L 171.840879 142.548978 
L 175.865453 145.95422 
L 179.890028 149.065322 
L 183.914603 151.901494 
L 187.939178 154.481884 
L 191.963753 156.825276 
L 196.659091 159.283931 
L 201.354428 161.472331 
L 206.049765 163.416453 
L 210.745103 165.140528 
L 216.111203 166.870144 
L 221.477303 168.372193 
L 227.514165 169.824255 
L 233.551028 171.058195 
L 240.258652 172.210722 
L 247.63704 173.254821 
L 255.68619 174.173453 
L 265.076864 175.0119 
L 275.809064 175.731408 
L 287.882789 176.314216 
L 302.639564 176.796627 
L 321.420914 177.172217 
L 331.482351 177.301715 
L 331.482351 177.301715 
" clip-path="url(#p6c33f09299)" style="fill: none; stroke: #4c78a8; stroke-width: 2; stroke-linecap: square"/>
   </g>
   <g id="patch_3">
    <path d="M 50.466406 185 
L 50.466406 23.557422 
" style="fill: none; stroke: #000000; stroke-width: 0.8; stroke-linejoin: miter; stroke-linecap: square"/>
   </g>
   <g id="patch_4">
    <path d="M 50.466406 185 
L 344.864062 185 
" style="fill: none; stroke: #000000; stroke-width: 0.8; stroke-linejoin: miter; stroke-linecap: square"/>
   </g>
   <g id="text_15">
    <!-- Gamma Gompertz -->
    <g transform="translate(147.036016 15.557422) scale(0.11 -0.11)">
     <defs>
      <path id="DejaVuSans-2a" d="M 3809 666 
L 3809 1919 
L 2778 1919 
L 2778 2438 
L 4434 2438 
L 4434 434 
Q 4069 175 3628 42 
Q 3188 -91 2688 -91 
Q 1594 -91 976 548 
Q 359 1188 359 2328 
Q 359 3472 976 4111 
Q 1594 4750 2688 4750 
Q 3144 4750 3555 4637 
Q 3966 4525 4313 4306 
L 4313 3634 
Q 3963 3931 3569 4081 
Q 3175 4231 2741 4231 
Q 1884 4231 1454 3753 
Q 1025 3275 1025 2328 
Q 1025 1384 1454 906 
Q 1884 428 2741 428 
Q 3075 428 3337 486 
Q 3600 544 3809 666 
z
" transform="scale(0.015625)"/>
      <path id="DejaVuSans-44" d="M 2194 1759 
Q 1497 1759 1228 1600 
Q 959 1441 959 1056 
Q 959 750 1161 570 
Q 1363 391 1709 391 
Q 2188 391 2477 730 
Q 2766 1069 2766 1631 
L 2766 1759 
L 2194 1759 
z
M 3341 1997 
L 3341 0 
L 2766 0 
L 2766 531 
Q 2569 213 2275 61 
Q 1981 -91 1556 -91 
Q 1019 -91 701 211 
Q 384 513 384 1019 
Q 384 1609 779 1909 
Q 1175 2209 1959 2209 
L 2766 2209 
L 2766 2266 
Q 2766 2663 2505 2880 
Q 2244 3097 1772 3097 
Q 1472 3097 1187 3025 
Q 903 2953 641 2809 
L 641 3341 
Q 956 3463 1253 3523 
Q 1550 3584 1831 3584 
Q 2591 3584 2966 3190 
Q 3341 2797 3341 1997 
z
" transform="scale(0.015625)"/>
      <path id="DejaVuSans-50" d="M 3328 2828 
Q 3544 3216 3844 3400 
Q 4144 3584 4550 3584 
Q 5097 3584 5394 3201 
Q 5691 2819 5691 2113 
L 5691 0 
L 5113 0 
L 5113 2094 
Q 5113 2597 4934 2840 
Q 4756 3084 4391 3084 
Q 3944 3084 3684 2787 
Q 3425 2491 3425 1978 
L 3425 0 
L 2847 0 
L 2847 2094 
Q 2847 2600 2669 2842 
Q 2491 3084 2119 3084 
Q 1678 3084 1418 2786 
Q 1159 2488 1159 1978 
L 1159 0 
L 581 0 
L 581 3500 
L 1159 3500 
L 1159 2956 
Q 1356 3278 1631 3431 
Q 1906 3584 2284 3584 
Q 2666 3584 2933 3390 
Q 3200 3197 3328 2828 
z
" transform="scale(0.015625)"/>
      <path id="DejaVuSans-3" transform="scale(0.015625)"/>
      <path id="DejaVuSans-52" d="M 1959 3097 
Q 1497 3097 1228 2736 
Q 959 2375 959 1747 
Q 959 1119 1226 758 
Q 1494 397 1959 397 
Q 2419 397 2687 759 
Q 2956 1122 2956 1747 
Q 2956 2369 2687 2733 
Q 2419 3097 1959 3097 
z
M 1959 3584 
Q 2709 3584 3137 3096 
Q 3566 2609 3566 1747 
Q 3566 888 3137 398 
Q 2709 -91 1959 -91 
Q 1206 -91 779 398 
Q 353 888 353 1747 
Q 353 2609 779 3096 
Q 1206 3584 1959 3584 
z
" transform="scale(0.015625)"/>
      <path id="DejaVuSans-53" d="M 1159 525 
L 1159 -1331 
L 581 -1331 
L 581 3500 
L 1159 3500 
L 1159 2969 
Q 1341 3281 1617 3432 
Q 1894 3584 2278 3584 
Q 2916 3584 3314 3078 
Q 3713 2572 3713 1747 
Q 3713 922 3314 415 
Q 2916 -91 2278 -91 
Q 1894 -91 1617 61 
Q 1341 213 1159 525 
z
M 3116 1747 
Q 3116 2381 2855 2742 
Q 2594 3103 2138 3103 
Q 1681 3103 1420 2742 
Q 1159 2381 1159 1747 
Q 1159 1113 1420 752 
Q 1681 391 2138 391 
Q 2594 391 2855 752 
Q 3116 1113 3116 1747 
z
" transform="scale(0.015625)"/>
      <path id="DejaVuSans-48" d="M 3597 1894 
L 3597 1613 
L 953 1613 
Q 991 1019 1311 708 
Q 1631 397 2203 397 
Q 2534 397 2845 478 
Q 3156 559 3463 722 
L 3463 178 
Q 3153 47 2828 -22 
Q 2503 -91 2169 -91 
Q 1331 -91 842 396 
Q 353 884 353 1716 
Q 353 2575 817 3079 
Q 1281 3584 2069 3584 
Q 2775 3584 3186 3129 
Q 3597 2675 3597 1894 
z
M 3022 2063 
Q 3016 2534 2758 2815 
Q 2500 3097 2075 3097 
Q 1594 3097 1305 2825 
Q 1016 2553 972 2059 
L 3022 2063 
z
" transform="scale(0.015625)"/>
      <path id="DejaVuSans-55" d="M 2631 2963 
Q 2534 3019 2420 3045 
Q 2306 3072 2169 3072 
Q 1681 3072 1420 2755 
Q 1159 2438 1159 1844 
L 1159 0 
L 581 0 
L 581 3500 
L 1159 3500 
L 1159 2956 
Q 1341 3275 1631 3429 
Q 1922 3584 2338 3584 
Q 2397 3584 2469 3576 
Q 2541 3569 2628 3553 
L 2631 2963 
z
" transform="scale(0.015625)"/>
      <path id="DejaVuSans-57" d="M 1172 4494 
L 1172 3500 
L 2356 3500 
L 2356 3053 
L 1172 3053 
L 1172 1153 
Q 1172 725 1289 603 
Q 1406 481 1766 481 
L 2356 481 
L 2356 0 
L 1766 0 
Q 1100 0 847 248 
Q 594 497 594 1153 
L 594 3053 
L 172 3053 
L 172 3500 
L 594 3500 
L 594 4494 
L 1172 4494 
z
" transform="scale(0.015625)"/>
      <path id="DejaVuSans-5d" d="M 353 3500 
L 3084 3500 
L 3084 2975 
L 922 459 
L 3084 459 
L 3084 0 
L 275 0 
L 275 525 
L 2438 3041 
L 353 3041 
L 353 3500 
z
" transform="scale(0.015625)"/>
     </defs>
     <use xlink:href="#DejaVuSans-2a"/>
     <use xlink:href="#DejaVuSans-44" transform="translate(77.484375 0)"/>
     <use xlink:href="#DejaVuSans-50" transform="translate(138.765625 0)"/>
     <use xlink:href="#DejaVuSans-50" transform="translate(236.171875 0)"/>
     <use xlink:href="#DejaVuSans-44" transform="translate(333.578125 0)"/>
     <use xlink:href="#DejaVuSans-3" transform="translate(394.859375 0)"/>
     <use xlink:href="#DejaVuSans-2a" transform="translate(426.640625 0)"/>
     <use xlink:href="#DejaVuSans-52" transform="translate(504.125 0)"/>
     <use xlink:href="#DejaVuSans-50" transform="translate(565.3125 0)"/>
     <use xlink:href="#DejaVuSans-53" transform="translate(662.71875 0)"/>
     <use xlink:href="#DejaVuSans-48" transform="translate(726.203125 0)"/>
     <use xlink:href="#DejaVuSans-55" transform="translate(787.734375 0)"/>
     <use xlink:href="#DejaVuSans-57" transform="translate(828.84375 0)"/>
     <use xlink:href="#DejaVuSans-5d" transform="translate(868.046875 0)"/>
    </g>
   </g>
  </g>
 </g>
 <defs>
  <clipPath id="p6c33f09299">
   <rect x="50.466406" y="23.557422" width="294.397656" height="161.442578"/>
  </clipPath>
 </defs>
</svg>
