<?xml version="1.0" encoding="utf-8" standalone="no"?>
<!DOCTYPE svg PUBLIC "-//W3C//DTD SVG 1.1//EN"
  "http://www.w3.org/Graphics/SVG/1.1/DTD/svg11.dtd">
<svg xmlns:xlink="http://www.w3.org/1999/xlink" width="352.301562pt" height="223.158281pt" viewBox="0 0 352.301562 223.158281" xmlns="http://www.w3.org/2000/svg" version="1.1">
 <metadata>
  <rdf:RDF xmlns:dc="http://purl.org/dc/elements/1.1/" xmlns:cc="http://creativecommons.org/ns#" xmlns:rdf="http://www.w3.org/1999/02/22-rdf-syntax-ns#">
   <cc:Work>
    <dc:type rdf:resource="http://purl.org/dc/dcmitype/StillImage"/>
    <dc:date>2026-07-05T02:24:32.149108</dc:date>
    <dc:format>image/svg+xml</dc:format>
    <dc:creator>
     <cc:Agent>
      <dc:title>Matplotlib v3.11.0, https://matplotlib.org/</dc:title>
     </cc:Agent>
    </dc:creator>
   </cc:Work>
  </rdf:RDF>
 </metadata>
 <defs>
  <style type="text/css">*{stroke-linejoin: round; stroke-linecap: butt}</style>
 </defs>
 <g id="figure_1">
  <g id="patch_1">
   <path d="M 0 223.158281 
L 352.301562 223.158281 
L 352.301562 0 
L 0 0 
z
" style="fill: #ffffff"/>
  </g>
  <g id="axes_1">
   <g id="patch_2">
    <path d="M 44.103906 184.958281 
L 345.101562 184.958281 
L 345.101562 23.558281 
L 44.103906 23.558281 
z
" style="fill: #ffffff"/>
   </g>
   <g id="FillBetweenPolyCollection_1">
    <defs>
     <path id="mc316693b74" d="M 57.785618 -45.536364 
L 57.785618 -48.291531 
L 58.471418 -48.671531 
L 59.157218 -49.092129 
L 59.843018 -49.556091 
L 60.528818 -50.066198 
L 61.214618 -50.62522 
L 61.900418 -51.235905 
L 62.586218 -51.900953 
L 63.272019 -52.622993 
L 63.957819 -53.404569 
L 64.643619 -54.24811 
L 65.329419 -55.155915 
L 66.015219 -56.130127 
L 66.701019 -57.172717 
L 67.386819 -58.285462 
L 68.072619 -59.469925 
L 68.758419 -60.72744 
L 69.444219 -62.059097 
L 70.130019 -63.465723 
L 70.815819 -64.947874 
L 71.50162 -66.505824 
L 72.18742 -68.139551 
L 72.87322 -69.848737 
L 73.55902 -71.63276 
L 74.24482 -73.49069 
L 74.93062 -75.421293 
L 75.61642 -77.42303 
L 76.30222 -79.494058 
L 76.98802 -81.632243 
L 77.67382 -83.835162 
L 78.35962 -86.100115 
L 79.04542 -88.424136 
L 79.731221 -90.804006 
L 80.417021 -93.236269 
L 81.102821 -95.717245 
L 81.788621 -98.243051 
L 82.474421 -100.809614 
L 83.160221 -103.412696 
L 83.846021 -106.04791 
L 84.531821 -108.710739 
L 85.217621 -111.396562 
L 85.903421 -114.100668 
L 86.589221 -116.818282 
L 87.275021 -119.544584 
L 87.960822 -122.274728 
L 88.646622 -125.003867 
L 89.332422 -127.727165 
L 90.018222 -130.439823 
L 90.704022 -133.137094 
L 91.389822 -135.814301 
L 92.075622 -138.466855 
L 92.761422 -141.090268 
L 93.447222 -143.68017 
L 94.133022 -146.232321 
L 94.818822 -148.742626 
L 95.504622 -151.207144 
L 96.190423 -153.622098 
L 96.876223 -155.983888 
L 97.562023 -158.289095 
L 98.247823 -160.534487 
L 98.933623 -162.71703 
L 99.619423 -164.833888 
L 100.305223 -166.882429 
L 100.991023 -168.860226 
L 101.676823 -170.765059 
L 102.362623 -172.594917 
L 103.048423 -174.347996 
L 103.734223 -176.022699 
L 104.420024 -177.617632 
L 105.105824 -179.131605 
L 105.791624 -180.563625 
L 106.477424 -181.912895 
L 107.163224 -183.178808 
L 107.849024 -184.36094 
L 108.534824 -185.459048 
L 109.220624 -186.473062 
L 109.906424 -187.40308 
L 110.592224 -188.249359 
L 111.278024 -189.01231 
L 111.963824 -189.692492 
L 112.649625 -190.290601 
L 113.335425 -190.807465 
L 114.021225 -191.244038 
L 114.707025 -191.60139 
L 115.392825 -191.880698 
L 116.078625 -192.083245 
L 116.764425 -192.210403 
L 117.450225 -192.263636 
L 118.136025 -192.244484 
L 118.821825 -192.154561 
L 119.507625 -191.995545 
L 120.193425 -191.769174 
L 120.879225 -191.477237 
L 121.565026 -191.121569 
L 122.250826 -190.704043 
L 122.936626 -190.226567 
L 123.622426 -189.691075 
L 124.308226 -189.099524 
L 124.994026 -188.453886 
L 125.679826 -187.756147 
L 126.365626 -187.008296 
L 127.051426 -186.212329 
L 127.737226 -185.370236 
L 128.423026 -184.484002 
L 129.108826 -183.555602 
L 129.794627 -182.586999 
L 130.480427 -181.580136 
L 131.166227 -180.536939 
L 131.852027 -179.459309 
L 132.537827 -178.349125 
L 133.223627 -177.208233 
L 133.909427 -176.038453 
L 134.595227 -174.841573 
L 135.281027 -173.619344 
L 135.966827 -172.373484 
L 136.652627 -171.105674 
L 137.338427 -169.817556 
L 138.024228 -168.510734 
L 138.710028 -167.186771 
L 139.395828 -165.847188 
L 140.081628 -164.493466 
L 140.767428 -163.127044 
L 141.453228 -161.749318 
L 142.139028 -160.36164 
L 142.824828 -158.965322 
L 143.510628 -157.56163 
L 144.196428 -156.151789 
L 144.882228 -154.736981 
L 145.568028 -153.318345 
L 146.253829 -151.896977 
L 146.939629 -150.473934 
L 147.625429 -149.050229 
L 148.311229 -147.626834 
L 148.997029 -146.204683 
L 149.682829 -144.784667 
L 150.368629 -143.367641 
L 151.054429 -141.954421 
L 151.740229 -140.545783 
L 152.426029 -139.142469 
L 153.111829 -137.745182 
L 153.797629 -136.354593 
L 154.48343 -134.971337 
L 155.16923 -133.596013 
L 155.85503 -132.229192 
L 156.54083 -130.871409 
L 157.22663 -129.523169 
L 157.91243 -128.184948 
L 158.59823 -126.857193 
L 159.28403 -125.54032 
L 159.96983 -124.234719 
L 160.65563 -122.940755 
L 161.34143 -121.658764 
L 162.02723 -120.38906 
L 162.713031 -119.131931 
L 163.398831 -117.887643 
L 164.084631 -116.656438 
L 164.770431 -115.43854 
L 165.456231 -114.234147 
L 166.142031 -113.043442 
L 166.827831 -111.866586 
L 167.513631 -110.703723 
L 168.199431 -109.554979 
L 168.885231 -108.420462 
L 169.571031 -107.300265 
L 170.256831 -106.194466 
L 170.942632 -105.103127 
L 171.628432 -104.026297 
L 172.314232 -102.964011 
L 173.000032 -101.916291 
L 173.685832 -100.883147 
L 174.371632 -99.864577 
L 175.057432 -98.860569 
L 175.743232 -97.871099 
L 176.429032 -96.896136 
L 177.114832 -95.935635 
L 177.800632 -94.989547 
L 178.486432 -94.057811 
L 179.172233 -93.14036 
L 179.858033 -92.237118 
L 180.543833 -91.348005 
L 181.229633 -90.472931 
L 181.915433 -89.611802 
L 182.601233 -88.764517 
L 183.287033 -87.93097 
L 183.972833 -87.11105 
L 184.658633 -86.304643 
L 185.344433 -85.511628 
L 186.030233 -84.731881 
L 186.716033 -83.965275 
L 187.401834 -83.211679 
L 188.087634 -82.470959 
L 188.773434 -81.742979 
L 189.459234 -81.027598 
L 190.145034 -80.324676 
L 190.830834 -79.634069 
L 191.516634 -78.955631 
L 192.202434 -78.289214 
L 192.888234 -77.634672 
L 193.574034 -76.991853 
L 194.259834 -76.360607 
L 194.945634 -75.740783 
L 195.631434 -75.132228 
L 196.317235 -74.534789 
L 197.003035 -73.948314 
L 197.688835 -73.372648 
L 198.374635 -72.807639 
L 199.060435 -72.253133 
L 199.746235 -71.708977 
L 200.432035 -71.175018 
L 201.117835 -70.651104 
L 201.803635 -70.137082 
L 202.489435 -69.632801 
L 203.175235 -69.138111 
L 203.861035 -68.652862 
L 204.546836 -68.176904 
L 205.232636 -67.71009 
L 205.918436 -67.252272 
L 206.604236 -66.803304 
L 207.290036 -66.363042 
L 207.975836 -65.931341 
L 208.661636 -65.50806 
L 209.347436 -65.093057 
L 210.033236 -64.686193 
L 210.719036 -64.287328 
L 211.404836 -63.896325 
L 212.090636 -63.51305 
L 212.776437 -63.137368 
L 213.462237 -62.769145 
L 214.148037 -62.408252 
L 214.833837 -62.054558 
L 215.519637 -61.707936 
L 216.205437 -61.368258 
L 216.891237 -61.035401 
L 217.577037 -60.70924 
L 218.262837 -60.389654 
L 218.948637 -60.076524 
L 219.634437 -59.76973 
L 220.320237 -59.469157 
L 221.006038 -59.174688 
L 221.691838 -58.88621 
L 222.377638 -58.603613 
L 223.063438 -58.326784 
L 223.749238 -58.055617 
L 224.435038 -57.790003 
L 225.120838 -57.529838 
L 225.806638 -57.275018 
L 226.492438 -57.025441 
L 227.178238 -56.781007 
L 227.864038 -56.541616 
L 228.549838 -56.307172 
L 229.235639 -56.077578 
L 229.921439 -55.852741 
L 230.607239 -55.632568 
L 231.293039 -55.416968 
L 231.978839 -55.205851 
L 232.664639 -54.99913 
L 233.350439 -54.796717 
L 234.036239 -54.598529 
L 234.722039 -54.404481 
L 235.407839 -54.214491 
L 236.093639 -54.028478 
L 236.779439 -53.846365 
L 237.46524 -53.668071 
L 238.15104 -53.493522 
L 238.83684 -53.322641 
L 239.52264 -53.155356 
L 240.20844 -52.991594 
L 240.89424 -52.831283 
L 241.58004 -52.674354 
L 242.26584 -52.520738 
L 242.95164 -52.370369 
L 243.63744 -52.22318 
L 244.32324 -52.079106 
L 245.00904 -51.938084 
L 245.694841 -51.800051 
L 246.380641 -51.664946 
L 247.066441 -51.53271 
L 247.752241 -51.403283 
L 248.438041 -51.276608 
L 249.123841 -51.152627 
L 249.809641 -51.031286 
L 250.495441 -50.912529 
L 251.181241 -50.796304 
L 251.867041 -50.682558 
L 252.552841 -50.571239 
L 253.238641 -50.462297 
L 253.924442 -50.355682 
L 254.610242 -50.251347 
L 255.296042 -50.149244 
L 255.981842 -50.049326 
L 256.667642 -49.951547 
L 257.353442 -49.855863 
L 258.039242 -49.76223 
L 258.725042 -49.670605 
L 259.410842 -49.580946 
L 260.096642 -49.493211 
L 260.782442 -49.40736 
L 261.468242 -49.323354 
L 262.154043 -49.241153 
L 262.839843 -49.16072 
L 263.525643 -49.082018 
L 264.211443 -49.005009 
L 264.897243 -48.929658 
L 265.583043 -48.855929 
L 266.268843 -48.78379 
L 266.954643 -48.713205 
L 267.640443 -48.644143 
L 268.326243 -48.57657 
L 269.012043 -48.510455 
L 269.697843 -48.445767 
L 270.383644 -48.382475 
L 271.069444 -48.320551 
L 271.755244 -48.259965 
L 272.441044 -48.200688 
L 273.126844 -48.142693 
L 273.812644 -48.085952 
L 274.498444 -48.030438 
L 275.184244 -47.976125 
L 275.870044 -47.922988 
L 276.555844 -47.871002 
L 277.241644 -47.820141 
L 277.927444 -47.770382 
L 278.613244 -47.721701 
L 279.299045 -47.674075 
L 279.984845 -47.627481 
L 280.670645 -47.581898 
L 281.356445 -47.537303 
L 282.042245 -47.493676 
L 282.728045 -47.450995 
L 283.413845 -47.40924 
L 284.099645 -47.368392 
L 284.785445 -47.328431 
L 285.471245 -47.289337 
L 286.157045 -47.251093 
L 286.842845 -47.213679 
L 287.528646 -47.177078 
L 288.214446 -47.141273 
L 288.900246 -47.106246 
L 289.586046 -47.07198 
L 290.271846 -47.03846 
L 290.957646 -47.005668 
L 291.643446 -46.97359 
L 292.329246 -46.94221 
L 293.015046 -46.911512 
L 293.700846 -46.881483 
L 294.386646 -46.852107 
L 295.072446 -46.82337 
L 295.758247 -46.795259 
L 296.444047 -46.76776 
L 297.129847 -46.74086 
L 297.815647 -46.714546 
L 298.501447 -46.688805 
L 299.187247 -46.663625 
L 299.873047 -46.638993 
L 300.558847 -46.614899 
L 301.244647 -46.591329 
L 301.930447 -46.568273 
L 302.616247 -46.54572 
L 303.302047 -46.523658 
L 303.987848 -46.502077 
L 304.673648 -46.480967 
L 305.359448 -46.460318 
L 306.045248 -46.440118 
L 306.731048 -46.42036 
L 307.416848 -46.401032 
L 308.102648 -46.382126 
L 308.788448 -46.363633 
L 309.474248 -46.345543 
L 310.160048 -46.327848 
L 310.845848 -46.310539 
L 311.531648 -46.293608 
L 312.217449 -46.277046 
L 312.903249 -46.260846 
L 313.589049 -46.245 
L 314.274849 -46.2295 
L 314.960649 -46.214338 
L 315.646449 -46.199507 
L 316.332249 -46.185001 
L 317.018049 -46.170811 
L 317.703849 -46.156931 
L 318.389649 -46.143354 
L 319.075449 -46.130074 
L 319.761249 -46.117083 
L 320.44705 -46.104377 
L 321.13285 -46.091948 
L 321.81865 -46.079791 
L 322.50445 -46.0679 
L 323.19025 -46.056268 
L 323.87605 -46.044891 
L 324.56185 -46.033762 
L 325.24765 -46.022877 
L 325.93345 -46.012229 
L 326.61925 -46.001815 
L 327.30505 -45.991627 
L 327.99085 -45.981663 
L 328.676651 -45.971917 
L 329.362451 -45.962383 
L 330.048251 -45.953058 
L 330.734051 -45.943937 
L 331.419851 -45.935016 
L 331.419851 -45.536364 
L 331.419851 -45.536364 
L 330.734051 -45.536364 
L 330.048251 -45.536364 
L 329.362451 -45.536364 
L 328.676651 -45.536364 
L 327.99085 -45.536364 
L 327.30505 -45.536364 
L 326.61925 -45.536364 
L 325.93345 -45.536364 
L 325.24765 -45.536364 
L 324.56185 -45.536364 
L 323.87605 -45.536364 
L 323.19025 -45.536364 
L 322.50445 -45.536364 
L 321.81865 -45.536364 
L 321.13285 -45.536364 
L 320.44705 -45.536364 
L 319.761249 -45.536364 
L 319.075449 -45.536364 
L 318.389649 -45.536364 
L 317.703849 -45.536364 
L 317.018049 -45.536364 
L 316.332249 -45.536364 
L 315.646449 -45.536364 
L 314.960649 -45.536364 
L 314.274849 -45.536364 
L 313.589049 -45.536364 
L 312.903249 -45.536364 
L 312.217449 -45.536364 
L 311.531648 -45.536364 
L 310.845848 -45.536364 
L 310.160048 -45.536364 
L 309.474248 -45.536364 
L 308.788448 -45.536364 
L 308.102648 -45.536364 
L 307.416848 -45.536364 
L 306.731048 -45.536364 
L 306.045248 -45.536364 
L 305.359448 -45.536364 
L 304.673648 -45.536364 
L 303.987848 -45.536364 
L 303.302047 -45.536364 
L 302.616247 -45.536364 
L 301.930447 -45.536364 
L 301.244647 -45.536364 
L 300.558847 -45.536364 
L 299.873047 -45.536364 
L 299.187247 -45.536364 
L 298.501447 -45.536364 
L 297.815647 -45.536364 
L 297.129847 -45.536364 
L 296.444047 -45.536364 
L 295.758247 -45.536364 
L 295.072446 -45.536364 
L 294.386646 -45.536364 
L 293.700846 -45.536364 
L 293.015046 -45.536364 
L 292.329246 -45.536364 
L 291.643446 -45.536364 
L 290.957646 -45.536364 
L 290.271846 -45.536364 
L 289.586046 -45.536364 
L 288.900246 -45.536364 
L 288.214446 -45.536364 
L 287.528646 -45.536364 
L 286.842845 -45.536364 
L 286.157045 -45.536364 
L 285.471245 -45.536364 
L 284.785445 -45.536364 
L 284.099645 -45.536364 
L 283.413845 -45.536364 
L 282.728045 -45.536364 
L 282.042245 -45.536364 
L 281.356445 -45.536364 
L 280.670645 -45.536364 
L 279.984845 -45.536364 
L 279.299045 -45.536364 
L 278.613244 -45.536364 
L 277.927444 -45.536364 
L 277.241644 -45.536364 
L 276.555844 -45.536364 
L 275.870044 -45.536364 
L 275.184244 -45.536364 
L 274.498444 -45.536364 
L 273.812644 -45.536364 
L 273.126844 -45.536364 
L 272.441044 -45.536364 
L 271.755244 -45.536364 
L 271.069444 -45.536364 
L 270.383644 -45.536364 
L 269.697843 -45.536364 
L 269.012043 -45.536364 
L 268.326243 -45.536364 
L 267.640443 -45.536364 
L 266.954643 -45.536364 
L 266.268843 -45.536364 
L 265.583043 -45.536364 
L 264.897243 -45.536364 
L 264.211443 -45.536364 
L 263.525643 -45.536364 
L 262.839843 -45.536364 
L 262.154043 -45.536364 
L 261.468242 -45.536364 
L 260.782442 -45.536364 
L 260.096642 -45.536364 
L 259.410842 -45.536364 
L 258.725042 -45.536364 
L 258.039242 -45.536364 
L 257.353442 -45.536364 
L 256.667642 -45.536364 
L 255.981842 -45.536364 
L 255.296042 -45.536364 
L 254.610242 -45.536364 
L 253.924442 -45.536364 
L 253.238641 -45.536364 
L 252.552841 -45.536364 
L 251.867041 -45.536364 
L 251.181241 -45.536364 
L 250.495441 -45.536364 
L 249.809641 -45.536364 
L 249.123841 -45.536364 
L 248.438041 -45.536364 
L 247.752241 -45.536364 
L 247.066441 -45.536364 
L 246.380641 -45.536364 
L 245.694841 -45.536364 
L 245.00904 -45.536364 
L 244.32324 -45.536364 
L 243.63744 -45.536364 
L 242.95164 -45.536364 
L 242.26584 -45.536364 
L 241.58004 -45.536364 
L 240.89424 -45.536364 
L 240.20844 -45.536364 
L 239.52264 -45.536364 
L 238.83684 -45.536364 
L 238.15104 -45.536364 
L 237.46524 -45.536364 
L 236.779439 -45.536364 
L 236.093639 -45.536364 
L 235.407839 -45.536364 
L 234.722039 -45.536364 
L 234.036239 -45.536364 
L 233.350439 -45.536364 
L 232.664639 -45.536364 
L 231.978839 -45.536364 
L 231.293039 -45.536364 
L 230.607239 -45.536364 
L 229.921439 -45.536364 
L 229.235639 -45.536364 
L 228.549838 -45.536364 
L 227.864038 -45.536364 
L 227.178238 -45.536364 
L 226.492438 -45.536364 
L 225.806638 -45.536364 
L 225.120838 -45.536364 
L 224.435038 -45.536364 
L 223.749238 -45.536364 
L 223.063438 -45.536364 
L 222.377638 -45.536364 
L 221.691838 -45.536364 
L 221.006038 -45.536364 
L 220.320237 -45.536364 
L 219.634437 -45.536364 
L 218.948637 -45.536364 
L 218.262837 -45.536364 
L 217.577037 -45.536364 
L 216.891237 -45.536364 
L 216.205437 -45.536364 
L 215.519637 -45.536364 
L 214.833837 -45.536364 
L 214.148037 -45.536364 
L 213.462237 -45.536364 
L 212.776437 -45.536364 
L 212.090636 -45.536364 
L 211.404836 -45.536364 
L 210.719036 -45.536364 
L 210.033236 -45.536364 
L 209.347436 -45.536364 
L 208.661636 -45.536364 
L 207.975836 -45.536364 
L 207.290036 -45.536364 
L 206.604236 -45.536364 
L 205.918436 -45.536364 
L 205.232636 -45.536364 
L 204.546836 -45.536364 
L 203.861035 -45.536364 
L 203.175235 -45.536364 
L 202.489435 -45.536364 
L 201.803635 -45.536364 
L 201.117835 -45.536364 
L 200.432035 -45.536364 
L 199.746235 -45.536364 
L 199.060435 -45.536364 
L 198.374635 -45.536364 
L 197.688835 -45.536364 
L 197.003035 -45.536364 
L 196.317235 -45.536364 
L 195.631434 -45.536364 
L 194.945634 -45.536364 
L 194.259834 -45.536364 
L 193.574034 -45.536364 
L 192.888234 -45.536364 
L 192.202434 -45.536364 
L 191.516634 -45.536364 
L 190.830834 -45.536364 
L 190.145034 -45.536364 
L 189.459234 -45.536364 
L 188.773434 -45.536364 
L 188.087634 -45.536364 
L 187.401834 -45.536364 
L 186.716033 -45.536364 
L 186.030233 -45.536364 
L 185.344433 -45.536364 
L 184.658633 -45.536364 
L 183.972833 -45.536364 
L 183.287033 -45.536364 
L 182.601233 -45.536364 
L 181.915433 -45.536364 
L 181.229633 -45.536364 
L 180.543833 -45.536364 
L 179.858033 -45.536364 
L 179.172233 -45.536364 
L 178.486432 -45.536364 
L 177.800632 -45.536364 
L 177.114832 -45.536364 
L 176.429032 -45.536364 
L 175.743232 -45.536364 
L 175.057432 -45.536364 
L 174.371632 -45.536364 
L 173.685832 -45.536364 
L 173.000032 -45.536364 
L 172.314232 -45.536364 
L 171.628432 -45.536364 
L 170.942632 -45.536364 
L 170.256831 -45.536364 
L 169.571031 -45.536364 
L 168.885231 -45.536364 
L 168.199431 -45.536364 
L 167.513631 -45.536364 
L 166.827831 -45.536364 
L 166.142031 -45.536364 
L 165.456231 -45.536364 
L 164.770431 -45.536364 
L 164.084631 -45.536364 
L 163.398831 -45.536364 
L 162.713031 -45.536364 
L 162.02723 -45.536364 
L 161.34143 -45.536364 
L 160.65563 -45.536364 
L 159.96983 -45.536364 
L 159.28403 -45.536364 
L 158.59823 -45.536364 
L 157.91243 -45.536364 
L 157.22663 -45.536364 
L 156.54083 -45.536364 
L 155.85503 -45.536364 
L 155.16923 -45.536364 
L 154.48343 -45.536364 
L 153.797629 -45.536364 
L 153.111829 -45.536364 
L 152.426029 -45.536364 
L 151.740229 -45.536364 
L 151.054429 -45.536364 
L 150.368629 -45.536364 
L 149.682829 -45.536364 
L 148.997029 -45.536364 
L 148.311229 -45.536364 
L 147.625429 -45.536364 
L 146.939629 -45.536364 
L 146.253829 -45.536364 
L 145.568028 -45.536364 
L 144.882228 -45.536364 
L 144.196428 -45.536364 
L 143.510628 -45.536364 
L 142.824828 -45.536364 
L 142.139028 -45.536364 
L 141.453228 -45.536364 
L 140.767428 -45.536364 
L 140.081628 -45.536364 
L 139.395828 -45.536364 
L 138.710028 -45.536364 
L 138.024228 -45.536364 
L 137.338427 -45.536364 
L 136.652627 -45.536364 
L 135.966827 -45.536364 
L 135.281027 -45.536364 
L 134.595227 -45.536364 
L 133.909427 -45.536364 
L 133.223627 -45.536364 
L 132.537827 -45.536364 
L 131.852027 -45.536364 
L 131.166227 -45.536364 
L 130.480427 -45.536364 
L 129.794627 -45.536364 
L 129.108826 -45.536364 
L 128.423026 -45.536364 
L 127.737226 -45.536364 
L 127.051426 -45.536364 
L 126.365626 -45.536364 
L 125.679826 -45.536364 
L 124.994026 -45.536364 
L 124.308226 -45.536364 
L 123.622426 -45.536364 
L 122.936626 -45.536364 
L 122.250826 -45.536364 
L 121.565026 -45.536364 
L 120.879225 -45.536364 
L 120.193425 -45.536364 
L 119.507625 -45.536364 
L 118.821825 -45.536364 
L 118.136025 -45.536364 
L 117.450225 -45.536364 
L 116.764425 -45.536364 
L 116.078625 -45.536364 
L 115.392825 -45.536364 
L 114.707025 -45.536364 
L 114.021225 -45.536364 
L 113.335425 -45.536364 
L 112.649625 -45.536364 
L 111.963824 -45.536364 
L 111.278024 -45.536364 
L 110.592224 -45.536364 
L 109.906424 -45.536364 
L 109.220624 -45.536364 
L 108.534824 -45.536364 
L 107.849024 -45.536364 
L 107.163224 -45.536364 
L 106.477424 -45.536364 
L 105.791624 -45.536364 
L 105.105824 -45.536364 
L 104.420024 -45.536364 
L 103.734223 -45.536364 
L 103.048423 -45.536364 
L 102.362623 -45.536364 
L 101.676823 -45.536364 
L 100.991023 -45.536364 
L 100.305223 -45.536364 
L 99.619423 -45.536364 
L 98.933623 -45.536364 
L 98.247823 -45.536364 
L 97.562023 -45.536364 
L 96.876223 -45.536364 
L 96.190423 -45.536364 
L 95.504622 -45.536364 
L 94.818822 -45.536364 
L 94.133022 -45.536364 
L 93.447222 -45.536364 
L 92.761422 -45.536364 
L 92.075622 -45.536364 
L 91.389822 -45.536364 
L 90.704022 -45.536364 
L 90.018222 -45.536364 
L 89.332422 -45.536364 
L 88.646622 -45.536364 
L 87.960822 -45.536364 
L 87.275021 -45.536364 
L 86.589221 -45.536364 
L 85.903421 -45.536364 
L 85.217621 -45.536364 
L 84.531821 -45.536364 
L 83.846021 -45.536364 
L 83.160221 -45.536364 
L 82.474421 -45.536364 
L 81.788621 -45.536364 
L 81.102821 -45.536364 
L 80.417021 -45.536364 
L 79.731221 -45.536364 
L 79.04542 -45.536364 
L 78.35962 -45.536364 
L 77.67382 -45.536364 
L 76.98802 -45.536364 
L 76.30222 -45.536364 
L 75.61642 -45.536364 
L 74.93062 -45.536364 
L 74.24482 -45.536364 
L 73.55902 -45.536364 
L 72.87322 -45.536364 
L 72.18742 -45.536364 
L 71.50162 -45.536364 
L 70.815819 -45.536364 
L 70.130019 -45.536364 
L 69.444219 -45.536364 
L 68.758419 -45.536364 
L 68.072619 -45.536364 
L 67.386819 -45.536364 
L 66.701019 -45.536364 
L 66.015219 -45.536364 
L 65.329419 -45.536364 
L 64.643619 -45.536364 
L 63.957819 -45.536364 
L 63.272019 -45.536364 
L 62.586218 -45.536364 
L 61.900418 -45.536364 
L 61.214618 -45.536364 
L 60.528818 -45.536364 
L 59.843018 -45.536364 
L 59.157218 -45.536364 
L 58.471418 -45.536364 
L 57.785618 -45.536364 
z
" style="stroke: #4c78a8; stroke-opacity: 0.15"/>
    </defs>
    <g clip-path="url(#pc3ee941a45)">
     <use xlink:href="#mc316693b74" x="0" y="223.158281" style="fill: #4c78a8; fill-opacity: 0.15; stroke: #4c78a8; stroke-opacity: 0.15"/>
    </g>
   </g>
   <g id="matplotlib.axis_1">
    <g id="xtick_1">
     <g id="line2d_1">
      <path d="M 55.700673 184.958281 
L 55.700673 23.558281 
" clip-path="url(#pc3ee941a45)" style="fill: none; stroke: #b0b0b0; stroke-opacity: 0.25; stroke-width: 0.6; stroke-linecap: square"/>
     </g>
     <g id="line2d_2">
      <defs>
       <path id="mb6c037784f" d="M 0 0 
L 0 3.5 
" style="stroke: #000000; stroke-width: 0.8"/>
      </defs>
      <g>
       <use xlink:href="#mb6c037784f" x="55.700673" y="184.958281" style="stroke: #000000; stroke-width: 0.8"/>
      </g>
     </g>
     <g id="text_1">
      <!-- −2 -->
      <g transform="translate(48.329579 199.555938) scale(0.1 -0.1)">
       <defs>
        <path id="DejaVuSans-c9c" d="M 678 2272 
L 4684 2272 
L 4684 1741 
L 678 1741 
L 678 2272 
z
" transform="scale(0.015625)"/>
        <path id="DejaVuSans-15" d="M 1228 531 
L 3431 531 
L 3431 0 
L 469 0 
L 469 531 
Q 828 903 1448 1529 
Q 2069 2156 2228 2338 
Q 2531 2678 2651 2914 
Q 2772 3150 2772 3378 
Q 2772 3750 2511 3984 
Q 2250 4219 1831 4219 
Q 1534 4219 1204 4116 
Q 875 4013 500 3803 
L 500 4441 
Q 881 4594 1212 4672 
Q 1544 4750 1819 4750 
Q 2544 4750 2975 4387 
Q 3406 4025 3406 3419 
Q 3406 3131 3298 2873 
Q 3191 2616 2906 2266 
Q 2828 2175 2409 1742 
Q 1991 1309 1228 531 
z
" transform="scale(0.015625)"/>
       </defs>
       <use xlink:href="#DejaVuSans-c9c"/>
       <use xlink:href="#DejaVuSans-15" transform="translate(83.796875 0)"/>
      </g>
     </g>
    </g>
    <g id="xtick_2">
     <g id="line2d_3">
      <path d="M 117.609572 184.958281 
L 117.609572 23.558281 
" clip-path="url(#pc3ee941a45)" style="fill: none; stroke: #b0b0b0; stroke-opacity: 0.25; stroke-width: 0.6; stroke-linecap: square"/>
     </g>
     <g id="line2d_4">
      <g>
       <use xlink:href="#mb6c037784f" x="117.609572" y="184.958281" style="stroke: #000000; stroke-width: 0.8"/>
      </g>
     </g>
     <g id="text_2">
      <!-- 0 -->
      <g transform="translate(114.428322 199.555938) scale(0.1 -0.1)">
       <defs>
        <path id="DejaVuSans-13" d="M 2034 4250 
Q 1547 4250 1301 3770 
Q 1056 3291 1056 2328 
Q 1056 1369 1301 889 
Q 1547 409 2034 409 
Q 2525 409 2770 889 
Q 3016 1369 3016 2328 
Q 3016 3291 2770 3770 
Q 2525 4250 2034 4250 
z
M 2034 4750 
Q 2819 4750 3233 4129 
Q 3647 3509 3647 2328 
Q 3647 1150 3233 529 
Q 2819 -91 2034 -91 
Q 1250 -91 836 529 
Q 422 1150 422 2328 
Q 422 3509 836 4129 
Q 1250 4750 2034 4750 
z
" transform="scale(0.015625)"/>
       </defs>
       <use xlink:href="#DejaVuSans-13"/>
      </g>
     </g>
    </g>
    <g id="xtick_3">
     <g id="line2d_5">
      <path d="M 179.518471 184.958281 
L 179.518471 23.558281 
" clip-path="url(#pc3ee941a45)" style="fill: none; stroke: #b0b0b0; stroke-opacity: 0.25; stroke-width: 0.6; stroke-linecap: square"/>
     </g>
     <g id="line2d_6">
      <g>
       <use xlink:href="#mb6c037784f" x="179.518471" y="184.958281" style="stroke: #000000; stroke-width: 0.8"/>
      </g>
     </g>
     <g id="text_3">
      <!-- 2 -->
      <g transform="translate(176.337221 199.555938) scale(0.1 -0.1)">
       <use xlink:href="#DejaVuSans-15"/>
      </g>
     </g>
    </g>
    <g id="xtick_4">
     <g id="line2d_7">
      <path d="M 241.42737 184.958281 
L 241.42737 23.558281 
" clip-path="url(#pc3ee941a45)" style="fill: none; stroke: #b0b0b0; stroke-opacity: 0.25; stroke-width: 0.6; stroke-linecap: square"/>
     </g>
     <g id="line2d_8">
      <g>
       <use xlink:href="#mb6c037784f" x="241.42737" y="184.958281" style="stroke: #000000; stroke-width: 0.8"/>
      </g>
     </g>
     <g id="text_4">
      <!-- 4 -->
      <g transform="translate(238.24612 199.555938) scale(0.1 -0.1)">
       <defs>
        <path id="DejaVuSans-17" d="M 2419 4116 
L 825 1625 
L 2419 1625 
L 2419 4116 
z
M 2253 4666 
L 3047 4666 
L 3047 1625 
L 3713 1625 
L 3713 1100 
L 3047 1100 
L 3047 0 
L 2419 0 
L 2419 1100 
L 313 1100 
L 313 1709 
L 2253 4666 
z
" transform="scale(0.015625)"/>
       </defs>
       <use xlink:href="#DejaVuSans-17"/>
      </g>
     </g>
    </g>
    <g id="xtick_5">
     <g id="line2d_9">
      <path d="M 303.336269 184.958281 
L 303.336269 23.558281 
" clip-path="url(#pc3ee941a45)" style="fill: none; stroke: #b0b0b0; stroke-opacity: 0.25; stroke-width: 0.6; stroke-linecap: square"/>
     </g>
     <g id="line2d_10">
      <g>
       <use xlink:href="#mb6c037784f" x="303.336269" y="184.958281" style="stroke: #000000; stroke-width: 0.8"/>
      </g>
     </g>
     <g id="text_5">
      <!-- 6 -->
      <g transform="translate(300.155019 199.555938) scale(0.1 -0.1)">
       <defs>
        <path id="DejaVuSans-19" d="M 2113 2584 
Q 1688 2584 1439 2293 
Q 1191 2003 1191 1497 
Q 1191 994 1439 701 
Q 1688 409 2113 409 
Q 2538 409 2786 701 
Q 3034 994 3034 1497 
Q 3034 2003 2786 2293 
Q 2538 2584 2113 2584 
z
M 3366 4563 
L 3366 3988 
Q 3128 4100 2886 4159 
Q 2644 4219 2406 4219 
Q 1781 4219 1451 3797 
Q 1122 3375 1075 2522 
Q 1259 2794 1537 2939 
Q 1816 3084 2150 3084 
Q 2853 3084 3261 2657 
Q 3669 2231 3669 1497 
Q 3669 778 3244 343 
Q 2819 -91 2113 -91 
Q 1303 -91 875 529 
Q 447 1150 447 2328 
Q 447 3434 972 4092 
Q 1497 4750 2381 4750 
Q 2619 4750 2861 4703 
Q 3103 4656 3366 4563 
z
" transform="scale(0.015625)"/>
       </defs>
       <use xlink:href="#DejaVuSans-19"/>
      </g>
     </g>
    </g>
    <g id="text_6">
     <!-- x -->
     <g transform="translate(191.643359 213.555938) scale(0.1 -0.1)">
      <defs>
       <path id="DejaVuSans-5b" d="M 3513 3500 
L 2247 1797 
L 3578 0 
L 2900 0 
L 1881 1375 
L 863 0 
L 184 0 
L 1544 1831 
L 300 3500 
L 978 3500 
L 1906 2253 
L 2834 3500 
L 3513 3500 
z
" transform="scale(0.015625)"/>
      </defs>
      <use xlink:href="#DejaVuSans-5b"/>
     </g>
    </g>
   </g>
   <g id="matplotlib.axis_2">
    <g id="ytick_1">
     <g id="line2d_11">
      <path d="M 44.103906 177.621918 
L 345.101562 177.621918 
" clip-path="url(#pc3ee941a45)" style="fill: none; stroke: #b0b0b0; stroke-opacity: 0.25; stroke-width: 0.6; stroke-linecap: square"/>
     </g>
     <g id="line2d_12">
      <defs>
       <path id="m016cf6f238" d="M 0 0 
L -3.5 0 
" style="stroke: #000000; stroke-width: 0.8"/>
      </defs>
      <g>
       <use xlink:href="#m016cf6f238" x="44.103906" y="177.621918" style="stroke: #000000; stroke-width: 0.8"/>
      </g>
     </g>
     <g id="text_7">
      <!-- 0.0 -->
      <g transform="translate(21.200781 181.420746) scale(0.1 -0.1)">
       <defs>
        <path id="DejaVuSans-11" d="M 684 794 
L 1344 794 
L 1344 0 
L 684 0 
L 684 794 
z
" transform="scale(0.015625)"/>
       </defs>
       <use xlink:href="#DejaVuSans-13"/>
       <use xlink:href="#DejaVuSans-11" transform="translate(63.625 0)"/>
       <use xlink:href="#DejaVuSans-13" transform="translate(95.40625 0)"/>
      </g>
     </g>
    </g>
    <g id="ytick_2">
     <g id="line2d_13">
      <path d="M 44.103906 137.73678 
L 345.101562 137.73678 
" clip-path="url(#pc3ee941a45)" style="fill: none; stroke: #b0b0b0; stroke-opacity: 0.25; stroke-width: 0.6; stroke-linecap: square"/>
     </g>
     <g id="line2d_14">
      <g>
       <use xlink:href="#m016cf6f238" x="44.103906" y="137.73678" style="stroke: #000000; stroke-width: 0.8"/>
      </g>
     </g>
     <g id="text_8">
      <!-- 0.1 -->
      <g transform="translate(21.200781 141.535608) scale(0.1 -0.1)">
       <defs>
        <path id="DejaVuSans-14" d="M 794 531 
L 1825 531 
L 1825 4091 
L 703 3866 
L 703 4441 
L 1819 4666 
L 2450 4666 
L 2450 531 
L 3481 531 
L 3481 0 
L 794 0 
L 794 531 
z
" transform="scale(0.015625)"/>
       </defs>
       <use xlink:href="#DejaVuSans-13"/>
       <use xlink:href="#DejaVuSans-11" transform="translate(63.625 0)"/>
       <use xlink:href="#DejaVuSans-14" transform="translate(95.40625 0)"/>
      </g>
     </g>
    </g>
    <g id="ytick_3">
     <g id="line2d_15">
      <path d="M 44.103906 97.851643 
L 345.101562 97.851643 
" clip-path="url(#pc3ee941a45)" style="fill: none; stroke: #b0b0b0; stroke-opacity: 0.25; stroke-width: 0.6; stroke-linecap: square"/>
     </g>
     <g id="line2d_16">
      <g>
       <use xlink:href="#m016cf6f238" x="44.103906" y="97.851643" style="stroke: #000000; stroke-width: 0.8"/>
      </g>
     </g>
     <g id="text_9">
      <!-- 0.2 -->
      <g transform="translate(21.200781 101.650471) scale(0.1 -0.1)">
       <use xlink:href="#DejaVuSans-13"/>
       <use xlink:href="#DejaVuSans-11" transform="translate(63.625 0)"/>
       <use xlink:href="#DejaVuSans-15" transform="translate(95.40625 0)"/>
      </g>
     </g>
    </g>
    <g id="ytick_4">
     <g id="line2d_17">
      <path d="M 44.103906 57.966506 
L 345.101562 57.966506 
" clip-path="url(#pc3ee941a45)" style="fill: none; stroke: #b0b0b0; stroke-opacity: 0.25; stroke-width: 0.6; stroke-linecap: square"/>
     </g>
     <g id="line2d_18">
      <g>
       <use xlink:href="#m016cf6f238" x="44.103906" y="57.966506" style="stroke: #000000; stroke-width: 0.8"/>
      </g>
     </g>
     <g id="text_10">
      <!-- 0.3 -->
      <g transform="translate(21.200781 61.765334) scale(0.1 -0.1)">
       <defs>
        <path id="DejaVuSans-16" d="M 2597 2516 
Q 3050 2419 3304 2112 
Q 3559 1806 3559 1356 
Q 3559 666 3084 287 
Q 2609 -91 1734 -91 
Q 1441 -91 1130 -33 
Q 819 25 488 141 
L 488 750 
Q 750 597 1062 519 
Q 1375 441 1716 441 
Q 2309 441 2620 675 
Q 2931 909 2931 1356 
Q 2931 1769 2642 2001 
Q 2353 2234 1838 2234 
L 1294 2234 
L 1294 2753 
L 1863 2753 
Q 2328 2753 2575 2939 
Q 2822 3125 2822 3475 
Q 2822 3834 2567 4026 
Q 2313 4219 1838 4219 
Q 1578 4219 1281 4162 
Q 984 4106 628 3988 
L 628 4550 
Q 988 4650 1302 4700 
Q 1616 4750 1894 4750 
Q 2613 4750 3031 4423 
Q 3450 4097 3450 3541 
Q 3450 3153 3228 2886 
Q 3006 2619 2597 2516 
z
" transform="scale(0.015625)"/>
       </defs>
       <use xlink:href="#DejaVuSans-13"/>
       <use xlink:href="#DejaVuSans-11" transform="translate(63.625 0)"/>
       <use xlink:href="#DejaVuSans-16" transform="translate(95.40625 0)"/>
      </g>
     </g>
    </g>
    <g id="text_11">
     <!-- f(x) -->
     <g transform="translate(14.798438 112.879375) rotate(-90) scale(0.1 -0.1)">
      <defs>
       <path id="DejaVuSans-49" d="M 2375 4863 
L 2375 4384 
L 1825 4384 
Q 1516 4384 1395 4259 
Q 1275 4134 1275 3809 
L 1275 3500 
L 2222 3500 
L 2222 3053 
L 1275 3053 
L 1275 0 
L 697 0 
L 697 3053 
L 147 3053 
L 147 3500 
L 697 3500 
L 697 3744 
Q 697 4328 969 4595 
Q 1241 4863 1831 4863 
L 2375 4863 
z
" transform="scale(0.015625)"/>
       <path id="DejaVuSans-b" d="M 1984 4856 
Q 1566 4138 1362 3434 
Q 1159 2731 1159 2009 
Q 1159 1288 1364 580 
Q 1569 -128 1984 -844 
L 1484 -844 
Q 1016 -109 783 600 
Q 550 1309 550 2009 
Q 550 2706 781 3412 
Q 1013 4119 1484 4856 
L 1984 4856 
z
" transform="scale(0.015625)"/>
       <path id="DejaVuSans-c" d="M 513 4856 
L 1013 4856 
Q 1481 4119 1714 3412 
Q 1947 2706 1947 2009 
Q 1947 1309 1714 600 
Q 1481 -109 1013 -844 
L 513 -844 
Q 928 -128 1133 580 
Q 1338 1288 1338 2009 
Q 1338 2731 1133 3434 
Q 928 4138 513 4856 
z
" transform="scale(0.015625)"/>
      </defs>
      <use xlink:href="#DejaVuSans-49"/>
      <use xlink:href="#DejaVuSans-b" transform="translate(35.203125 0)"/>
      <use xlink:href="#DejaVuSans-5b" transform="translate(74.21875 0)"/>
      <use xlink:href="#DejaVuSans-c" transform="translate(133.40625 0)"/>
     </g>
    </g>
   </g>
   <g id="line2d_19">
    <path d="M 57.785618 174.86675 
L 59.843018 173.60219 
L 61.214618 172.533061 
L 62.586218 171.257328 
L 63.957819 169.753712 
L 65.329419 168.002367 
L 66.701019 165.985564 
L 68.072619 163.688356 
L 70.130019 159.692558 
L 72.18742 155.01873 
L 74.24482 149.667591 
L 76.30222 143.664223 
L 78.35962 137.058166 
L 81.102821 127.441036 
L 84.531821 114.447542 
L 94.818822 74.415655 
L 97.562023 64.869187 
L 99.619423 58.324393 
L 101.676823 52.393222 
L 103.734223 47.135583 
L 105.791624 42.594656 
L 107.163224 39.979473 
L 108.534824 37.699234 
L 109.906424 35.755201 
L 111.278024 34.145971 
L 112.649625 32.86768 
L 114.021225 31.914243 
L 115.392825 31.277583 
L 116.764425 30.947878 
L 118.136025 30.913797 
L 119.507625 31.162736 
L 120.879225 31.681044 
L 122.250826 32.454239 
L 123.622426 33.467206 
L 124.994026 34.704395 
L 127.051426 36.945952 
L 129.108826 39.602679 
L 131.166227 42.621342 
L 133.909427 47.119828 
L 136.652627 52.052607 
L 140.081628 58.664815 
L 145.568028 69.839937 
L 155.85503 90.929089 
L 160.65563 100.217526 
L 164.770431 107.719742 
L 168.885231 114.73782 
L 172.314232 120.19427 
L 175.743232 125.287182 
L 179.172233 130.017922 
L 182.601233 134.393765 
L 186.030233 138.4264 
L 189.459234 142.130683 
L 192.888234 145.523609 
L 196.317235 148.623492 
L 199.746235 151.449304 
L 203.175235 154.02017 
L 206.604236 156.354977 
L 210.719036 158.870954 
L 214.833837 161.103723 
L 218.948637 163.081757 
L 223.063438 164.831497 
L 227.864038 166.616665 
L 232.664639 168.159152 
L 238.15104 169.66476 
L 243.63744 170.935102 
L 249.809641 172.126995 
L 256.667642 173.206734 
L 264.211443 174.153273 
L 272.441044 174.957593 
L 282.042245 175.664606 
L 293.015046 176.246769 
L 306.731048 176.737921 
L 323.87605 177.11339 
L 331.419851 177.223266 
L 331.419851 177.223266 
" clip-path="url(#pc3ee941a45)" style="fill: none; stroke: #4c78a8; stroke-width: 2; stroke-linecap: square"/>
   </g>
   <g id="patch_3">
    <path d="M 44.103906 184.958281 
L 44.103906 23.558281 
" style="fill: none; stroke: #000000; stroke-width: 0.8; stroke-linejoin: miter; stroke-linecap: square"/>
   </g>
   <g id="patch_4">
    <path d="M 44.103906 184.958281 
L 345.101562 184.958281 
" style="fill: none; stroke: #000000; stroke-width: 0.8; stroke-linejoin: miter; stroke-linecap: square"/>
   </g>
   <g id="text_12">
    <!-- Gumbel -->
    <g transform="translate(173.094297 15.558281) scale(0.11 -0.11)">
     <defs>
      <path id="DejaVuSans-2a" d="M 3809 666 
L 3809 1919 
L 2778 1919 
L 2778 2438 
L 4434 2438 
L 4434 434 
Q 4069 175 3628 42 
Q 3188 -91 2688 -91 
Q 1594 -91 976 548 
Q 359 1188 359 2328 
Q 359 3472 976 4111 
Q 1594 4750 2688 4750 
Q 3144 4750 3555 4637 
Q 3966 4525 4313 4306 
L 4313 3634 
Q 3963 3931 3569 4081 
Q 3175 4231 2741 4231 
Q 1884 4231 1454 3753 
Q 1025 3275 1025 2328 
Q 1025 1384 1454 906 
Q 1884 428 2741 428 
Q 3075 428 3337 486 
Q 3600 544 3809 666 
z
" transform="scale(0.015625)"/>
      <path id="DejaVuSans-58" d="M 544 1381 
L 544 3500 
L 1119 3500 
L 1119 1403 
Q 1119 906 1312 657 
Q 1506 409 1894 409 
Q 2359 409 2629 706 
Q 2900 1003 2900 1516 
L 2900 3500 
L 3475 3500 
L 3475 0 
L 2900 0 
L 2900 538 
Q 2691 219 2414 64 
Q 2138 -91 1772 -91 
Q 1169 -91 856 284 
Q 544 659 544 1381 
z
M 1991 3584 
L 1991 3584 
z
" transform="scale(0.015625)"/>
      <path id="DejaVuSans-50" d="M 3328 2828 
Q 3544 3216 3844 3400 
Q 4144 3584 4550 3584 
Q 5097 3584 5394 3201 
Q 5691 2819 5691 2113 
L 5691 0 
L 5113 0 
L 5113 2094 
Q 5113 2597 4934 2840 
Q 4756 3084 4391 3084 
Q 3944 3084 3684 2787 
Q 3425 2491 3425 1978 
L 3425 0 
L 2847 0 
L 2847 2094 
Q 2847 2600 2669 2842 
Q 2491 3084 2119 3084 
Q 1678 3084 1418 2786 
Q 1159 2488 1159 1978 
L 1159 0 
L 581 0 
L 581 3500 
L 1159 3500 
L 1159 2956 
Q 1356 3278 1631 3431 
Q 1906 3584 2284 3584 
Q 2666 3584 2933 3390 
Q 3200 3197 3328 2828 
z
" transform="scale(0.015625)"/>
      <path id="DejaVuSans-45" d="M 3116 1747 
Q 3116 2381 2855 2742 
Q 2594 3103 2138 3103 
Q 1681 3103 1420 2742 
Q 1159 2381 1159 1747 
Q 1159 1113 1420 752 
Q 1681 391 2138 391 
Q 2594 391 2855 752 
Q 3116 1113 3116 1747 
z
M 1159 2969 
Q 1341 3281 1617 3432 
Q 1894 3584 2278 3584 
Q 2916 3584 3314 3078 
Q 3713 2572 3713 1747 
Q 3713 922 3314 415 
Q 2916 -91 2278 -91 
Q 1894 -91 1617 61 
Q 1341 213 1159 525 
L 1159 0 
L 581 0 
L 581 4863 
L 1159 4863 
L 1159 2969 
z
" transform="scale(0.015625)"/>
      <path id="DejaVuSans-48" d="M 3597 1894 
L 3597 1613 
L 953 1613 
Q 991 1019 1311 708 
Q 1631 397 2203 397 
Q 2534 397 2845 478 
Q 3156 559 3463 722 
L 3463 178 
Q 3153 47 2828 -22 
Q 2503 -91 2169 -91 
Q 1331 -91 842 396 
Q 353 884 353 1716 
Q 353 2575 817 3079 
Q 1281 3584 2069 3584 
Q 2775 3584 3186 3129 
Q 3597 2675 3597 1894 
z
M 3022 2063 
Q 3016 2534 2758 2815 
Q 2500 3097 2075 3097 
Q 1594 3097 1305 2825 
Q 1016 2553 972 2059 
L 3022 2063 
z
" transform="scale(0.015625)"/>
      <path id="DejaVuSans-4f" d="M 603 4863 
L 1178 4863 
L 1178 0 
L 603 0 
L 603 4863 
z
" transform="scale(0.015625)"/>
     </defs>
     <use xlink:href="#DejaVuSans-2a"/>
     <use xlink:href="#DejaVuSans-58" transform="translate(77.484375 0)"/>
     <use xlink:href="#DejaVuSans-50" transform="translate(140.859375 0)"/>
     <use xlink:href="#DejaVuSans-45" transform="translate(238.265625 0)"/>
     <use xlink:href="#DejaVuSans-48" transform="translate(301.75 0)"/>
     <use xlink:href="#DejaVuSans-4f" transform="translate(363.28125 0)"/>
    </g>
   </g>
  </g>
 </g>
 <defs>
  <clipPath id="pc3ee941a45">
   <rect x="44.103906" y="23.558281" width="300.997656" height="161.4"/>
  </clipPath>
 </defs>
</svg>
