<?xml version="1.0" encoding="utf-8" standalone="no"?>
<!DOCTYPE svg PUBLIC "-//W3C//DTD SVG 1.1//EN"
  "http://www.w3.org/Graphics/SVG/1.1/DTD/svg11.dtd">
<svg xmlns:xlink="http://www.w3.org/1999/xlink" width="352.301562pt" height="223.158281pt" viewBox="0 0 352.301562 223.158281" xmlns="http://www.w3.org/2000/svg" version="1.1">
 <metadata>
  <rdf:RDF xmlns:dc="http://purl.org/dc/elements/1.1/" xmlns:cc="http://creativecommons.org/ns#" xmlns:rdf="http://www.w3.org/1999/02/22-rdf-syntax-ns#">
   <cc:Work>
    <dc:type rdf:resource="http://purl.org/dc/dcmitype/StillImage"/>
    <dc:date>2026-07-05T02:24:31.693371</dc:date>
    <dc:format>image/svg+xml</dc:format>
    <dc:creator>
     <cc:Agent>
      <dc:title>Matplotlib v3.11.0, https://matplotlib.org/</dc:title>
     </cc:Agent>
    </dc:creator>
   </cc:Work>
  </rdf:RDF>
 </metadata>
 <defs>
  <style type="text/css">*{stroke-linejoin: round; stroke-linecap: butt}</style>
 </defs>
 <g id="figure_1">
  <g id="patch_1">
   <path d="M 0 223.158281 
L 352.301562 223.158281 
L 352.301562 0 
L 0 0 
z
" style="fill: #ffffff"/>
  </g>
  <g id="axes_1">
   <g id="patch_2">
    <path d="M 44.103906 184.958281 
L 345.101562 184.958281 
L 345.101562 23.558281 
L 44.103906 23.558281 
z
" style="fill: #ffffff"/>
   </g>
   <g id="FillBetweenPolyCollection_1">
    <defs>
     <path id="m05b4dcd322" d="M 57.785618 -45.536364 
L 57.785618 -192.263636 
L 58.471418 -192.257135 
L 59.157218 -192.240663 
L 59.843018 -192.214224 
L 60.528818 -192.177825 
L 61.214618 -192.131471 
L 61.900418 -192.075173 
L 62.586218 -192.008941 
L 63.272019 -191.932791 
L 63.957819 -191.846736 
L 64.643619 -191.750795 
L 65.329419 -191.644986 
L 66.015219 -191.529333 
L 66.701019 -191.403857 
L 67.386819 -191.268585 
L 68.072619 -191.123543 
L 68.758419 -190.968763 
L 69.444219 -190.804274 
L 70.130019 -190.63011 
L 70.815819 -190.446306 
L 71.50162 -190.2529 
L 72.18742 -190.049931 
L 72.87322 -189.837439 
L 73.55902 -189.615468 
L 74.24482 -189.384062 
L 74.93062 -189.143268 
L 75.61642 -188.893134 
L 76.30222 -188.63371 
L 76.98802 -188.365049 
L 77.67382 -188.087205 
L 78.35962 -187.800232 
L 79.04542 -187.504188 
L 79.731221 -187.199133 
L 80.417021 -186.885126 
L 81.102821 -186.562232 
L 81.788621 -186.230513 
L 82.474421 -185.890035 
L 83.160221 -185.540866 
L 83.846021 -185.183076 
L 84.531821 -184.816734 
L 85.217621 -184.441912 
L 85.903421 -184.058685 
L 86.589221 -183.667127 
L 87.275021 -183.267316 
L 87.960822 -182.859329 
L 88.646622 -182.443247 
L 89.332422 -182.019149 
L 90.018222 -181.587118 
L 90.704022 -181.147239 
L 91.389822 -180.699596 
L 92.075622 -180.244275 
L 92.761422 -179.781365 
L 93.447222 -179.310954 
L 94.133022 -178.833132 
L 94.818822 -178.34799 
L 95.504622 -177.855622 
L 96.190423 -177.35612 
L 96.876223 -176.849579 
L 97.562023 -176.336095 
L 98.247823 -175.815766 
L 98.933623 -175.288687 
L 99.619423 -174.754959 
L 100.305223 -174.214682 
L 100.991023 -173.667955 
L 101.676823 -173.11488 
L 102.362623 -172.55556 
L 103.048423 -171.990099 
L 103.734223 -171.418599 
L 104.420024 -170.841166 
L 105.105824 -170.257906 
L 105.791624 -169.668924 
L 106.477424 -169.074327 
L 107.163224 -168.474224 
L 107.849024 -167.868722 
L 108.534824 -167.257929 
L 109.220624 -166.641955 
L 109.906424 -166.02091 
L 110.592224 -165.394904 
L 111.278024 -164.764048 
L 111.963824 -164.128452 
L 112.649625 -163.488228 
L 113.335425 -162.843488 
L 114.021225 -162.194344 
L 114.707025 -161.540908 
L 115.392825 -160.883293 
L 116.078625 -160.221612 
L 116.764425 -159.555977 
L 117.450225 -158.886502 
L 118.136025 -158.2133 
L 118.821825 -157.536485 
L 119.507625 -156.856169 
L 120.193425 -156.172467 
L 120.879225 -155.485491 
L 121.565026 -154.795356 
L 122.250826 -154.102174 
L 122.936626 -153.406059 
L 123.622426 -152.707124 
L 124.308226 -152.005481 
L 124.994026 -151.301244 
L 125.679826 -150.594525 
L 126.365626 -149.885437 
L 127.051426 -149.174091 
L 127.737226 -148.460599 
L 128.423026 -147.745074 
L 129.108826 -147.027624 
L 129.794627 -146.308363 
L 130.480427 -145.587398 
L 131.166227 -144.864842 
L 131.852027 -144.140802 
L 132.537827 -143.415388 
L 133.223627 -142.688708 
L 133.909427 -141.960869 
L 134.595227 -141.23198 
L 135.281027 -140.502146 
L 135.966827 -139.771474 
L 136.652627 -139.04007 
L 137.338427 -138.308037 
L 138.024228 -137.57548 
L 138.710028 -136.842502 
L 139.395828 -136.109205 
L 140.081628 -135.375692 
L 140.767428 -134.642064 
L 141.453228 -133.908421 
L 142.139028 -133.174862 
L 142.824828 -132.441486 
L 143.510628 -131.70839 
L 144.196428 -130.975672 
L 144.882228 -130.243427 
L 145.568028 -129.51175 
L 146.253829 -128.780736 
L 146.939629 -128.050478 
L 147.625429 -127.321068 
L 148.311229 -126.592597 
L 148.997029 -125.865155 
L 149.682829 -125.138831 
L 150.368629 -124.413714 
L 151.054429 -123.689891 
L 151.740229 -122.967448 
L 152.426029 -122.246469 
L 153.111829 -121.527039 
L 153.797629 -120.809241 
L 154.48343 -120.093156 
L 155.16923 -119.378864 
L 155.85503 -118.666446 
L 156.54083 -117.955979 
L 157.22663 -117.247541 
L 157.91243 -116.541208 
L 158.59823 -115.837053 
L 159.28403 -115.135152 
L 159.96983 -114.435576 
L 160.65563 -113.738397 
L 161.34143 -113.043684 
L 162.02723 -112.351507 
L 162.713031 -111.661933 
L 163.398831 -110.975029 
L 164.084631 -110.290859 
L 164.770431 -109.609488 
L 165.456231 -108.930977 
L 166.142031 -108.25539 
L 166.827831 -107.582785 
L 167.513631 -106.913222 
L 168.199431 -106.246759 
L 168.885231 -105.583451 
L 169.571031 -104.923354 
L 170.256831 -104.266523 
L 170.942632 -103.613009 
L 171.628432 -102.962864 
L 172.314232 -102.316138 
L 173.000032 -101.672881 
L 173.685832 -101.033139 
L 174.371632 -100.396959 
L 175.057432 -99.764387 
L 175.743232 -99.135466 
L 176.429032 -98.510238 
L 177.114832 -97.888746 
L 177.800632 -97.271029 
L 178.486432 -96.657127 
L 179.172233 -96.047076 
L 179.858033 -95.440914 
L 180.543833 -94.838676 
L 181.229633 -94.240395 
L 181.915433 -93.646105 
L 182.601233 -93.055836 
L 183.287033 -92.46962 
L 183.972833 -91.887486 
L 184.658633 -91.309461 
L 185.344433 -90.735573 
L 186.030233 -90.165847 
L 186.716033 -89.600307 
L 187.401834 -89.038978 
L 188.087634 -88.48188 
L 188.773434 -87.929036 
L 189.459234 -87.380464 
L 190.145034 -86.836185 
L 190.830834 -86.296215 
L 191.516634 -85.760571 
L 192.202434 -85.229268 
L 192.888234 -84.702321 
L 193.574034 -84.179744 
L 194.259834 -83.661548 
L 194.945634 -83.147745 
L 195.631434 -82.638344 
L 196.317235 -82.133356 
L 197.003035 -81.632788 
L 197.688835 -81.136647 
L 198.374635 -80.644939 
L 199.060435 -80.15767 
L 199.746235 -79.674843 
L 200.432035 -79.196462 
L 201.117835 -78.72253 
L 201.803635 -78.253046 
L 202.489435 -77.788013 
L 203.175235 -77.327429 
L 203.861035 -76.871293 
L 204.546836 -76.419603 
L 205.232636 -75.972355 
L 205.918436 -75.529546 
L 206.604236 -75.09117 
L 207.290036 -74.657223 
L 207.975836 -74.227697 
L 208.661636 -73.802586 
L 209.347436 -73.381881 
L 210.033236 -72.965573 
L 210.719036 -72.553654 
L 211.404836 -72.146112 
L 212.090636 -71.742936 
L 212.776437 -71.344115 
L 213.462237 -70.949637 
L 214.148037 -70.559487 
L 214.833837 -70.173653 
L 215.519637 -69.792119 
L 216.205437 -69.414871 
L 216.891237 -69.041893 
L 217.577037 -68.673169 
L 218.262837 -68.30868 
L 218.948637 -67.948411 
L 219.634437 -67.592342 
L 220.320237 -67.240455 
L 221.006038 -66.892731 
L 221.691838 -66.54915 
L 222.377638 -66.209691 
L 223.063438 -65.874334 
L 223.749238 -65.543057 
L 224.435038 -65.215839 
L 225.120838 -64.892657 
L 225.806638 -64.573489 
L 226.492438 -64.258311 
L 227.178238 -63.9471 
L 227.864038 -63.639831 
L 228.549838 -63.336482 
L 229.235639 -63.037026 
L 229.921439 -62.741438 
L 230.607239 -62.449693 
L 231.293039 -62.161766 
L 231.978839 -61.87763 
L 232.664639 -61.597258 
L 233.350439 -61.320624 
L 234.036239 -61.0477 
L 234.722039 -60.77846 
L 235.407839 -60.512875 
L 236.093639 -60.250918 
L 236.779439 -59.99256 
L 237.46524 -59.737773 
L 238.15104 -59.486529 
L 238.83684 -59.238798 
L 239.52264 -58.994552 
L 240.20844 -58.753762 
L 240.89424 -58.516397 
L 241.58004 -58.282429 
L 242.26584 -58.051828 
L 242.95164 -57.824563 
L 243.63744 -57.600606 
L 244.32324 -57.379925 
L 245.00904 -57.162491 
L 245.694841 -56.948273 
L 246.380641 -56.737241 
L 247.066441 -56.529364 
L 247.752241 -56.324612 
L 248.438041 -56.122954 
L 249.123841 -55.92436 
L 249.809641 -55.728798 
L 250.495441 -55.536239 
L 251.181241 -55.34665 
L 251.867041 -55.160002 
L 252.552841 -54.976264 
L 253.238641 -54.795404 
L 253.924442 -54.617392 
L 254.610242 -54.442198 
L 255.296042 -54.269789 
L 255.981842 -54.100137 
L 256.667642 -53.933209 
L 257.353442 -53.768976 
L 258.039242 -53.607406 
L 258.725042 -53.448469 
L 259.410842 -53.292136 
L 260.096642 -53.138374 
L 260.782442 -52.987155 
L 261.468242 -52.838447 
L 262.154043 -52.692221 
L 262.839843 -52.548447 
L 263.525643 -52.407094 
L 264.211443 -52.268133 
L 264.897243 -52.131535 
L 265.583043 -51.997269 
L 266.268843 -51.865307 
L 266.954643 -51.735618 
L 267.640443 -51.608175 
L 268.326243 -51.482947 
L 269.012043 -51.359906 
L 269.697843 -51.239023 
L 270.383644 -51.120271 
L 271.069444 -51.003619 
L 271.755244 -50.889041 
L 272.441044 -50.776508 
L 273.126844 -50.665992 
L 273.812644 -50.557465 
L 274.498444 -50.450901 
L 275.184244 -50.346271 
L 275.870044 -50.243549 
L 276.555844 -50.142708 
L 277.241644 -50.043721 
L 277.927444 -49.946561 
L 278.613244 -49.851202 
L 279.299045 -49.757619 
L 279.984845 -49.665784 
L 280.670645 -49.575673 
L 281.356445 -49.487259 
L 282.042245 -49.400518 
L 282.728045 -49.315425 
L 283.413845 -49.231955 
L 284.099645 -49.150082 
L 284.785445 -49.069783 
L 285.471245 -48.991034 
L 286.157045 -48.91381 
L 286.842845 -48.838088 
L 287.528646 -48.763844 
L 288.214446 -48.691056 
L 288.900246 -48.619699 
L 289.586046 -48.549752 
L 290.271846 -48.481191 
L 290.957646 -48.413995 
L 291.643446 -48.348141 
L 292.329246 -48.283607 
L 293.015046 -48.220372 
L 293.700846 -48.158414 
L 294.386646 -48.097713 
L 295.072446 -48.038247 
L 295.758247 -47.979995 
L 296.444047 -47.922937 
L 297.129847 -47.867053 
L 297.815647 -47.812323 
L 298.501447 -47.758728 
L 299.187247 -47.706246 
L 299.873047 -47.654861 
L 300.558847 -47.604551 
L 301.244647 -47.555299 
L 301.930447 -47.507086 
L 302.616247 -47.459894 
L 303.302047 -47.413704 
L 303.987848 -47.368499 
L 304.673648 -47.324261 
L 305.359448 -47.280972 
L 306.045248 -47.238616 
L 306.731048 -47.197175 
L 307.416848 -47.156633 
L 308.102648 -47.116973 
L 308.788448 -47.07818 
L 309.474248 -47.040236 
L 310.160048 -47.003126 
L 310.845848 -46.966835 
L 311.531648 -46.931347 
L 312.217449 -46.896647 
L 312.903249 -46.862719 
L 313.589049 -46.829551 
L 314.274849 -46.797126 
L 314.960649 -46.76543 
L 315.646449 -46.73445 
L 316.332249 -46.704171 
L 317.018049 -46.674581 
L 317.703849 -46.645664 
L 318.389649 -46.617409 
L 319.075449 -46.589802 
L 319.761249 -46.56283 
L 320.44705 -46.536481 
L 321.13285 -46.510742 
L 321.81865 -46.485601 
L 322.50445 -46.461045 
L 323.19025 -46.437064 
L 323.87605 -46.413645 
L 324.56185 -46.390777 
L 325.24765 -46.368448 
L 325.93345 -46.346648 
L 326.61925 -46.325365 
L 327.30505 -46.30459 
L 327.99085 -46.28431 
L 328.676651 -46.264516 
L 329.362451 -46.245198 
L 330.048251 -46.226346 
L 330.734051 -46.207949 
L 331.419851 -46.189998 
L 331.419851 -45.536364 
L 331.419851 -45.536364 
L 330.734051 -45.536364 
L 330.048251 -45.536364 
L 329.362451 -45.536364 
L 328.676651 -45.536364 
L 327.99085 -45.536364 
L 327.30505 -45.536364 
L 326.61925 -45.536364 
L 325.93345 -45.536364 
L 325.24765 -45.536364 
L 324.56185 -45.536364 
L 323.87605 -45.536364 
L 323.19025 -45.536364 
L 322.50445 -45.536364 
L 321.81865 -45.536364 
L 321.13285 -45.536364 
L 320.44705 -45.536364 
L 319.761249 -45.536364 
L 319.075449 -45.536364 
L 318.389649 -45.536364 
L 317.703849 -45.536364 
L 317.018049 -45.536364 
L 316.332249 -45.536364 
L 315.646449 -45.536364 
L 314.960649 -45.536364 
L 314.274849 -45.536364 
L 313.589049 -45.536364 
L 312.903249 -45.536364 
L 312.217449 -45.536364 
L 311.531648 -45.536364 
L 310.845848 -45.536364 
L 310.160048 -45.536364 
L 309.474248 -45.536364 
L 308.788448 -45.536364 
L 308.102648 -45.536364 
L 307.416848 -45.536364 
L 306.731048 -45.536364 
L 306.045248 -45.536364 
L 305.359448 -45.536364 
L 304.673648 -45.536364 
L 303.987848 -45.536364 
L 303.302047 -45.536364 
L 302.616247 -45.536364 
L 301.930447 -45.536364 
L 301.244647 -45.536364 
L 300.558847 -45.536364 
L 299.873047 -45.536364 
L 299.187247 -45.536364 
L 298.501447 -45.536364 
L 297.815647 -45.536364 
L 297.129847 -45.536364 
L 296.444047 -45.536364 
L 295.758247 -45.536364 
L 295.072446 -45.536364 
L 294.386646 -45.536364 
L 293.700846 -45.536364 
L 293.015046 -45.536364 
L 292.329246 -45.536364 
L 291.643446 -45.536364 
L 290.957646 -45.536364 
L 290.271846 -45.536364 
L 289.586046 -45.536364 
L 288.900246 -45.536364 
L 288.214446 -45.536364 
L 287.528646 -45.536364 
L 286.842845 -45.536364 
L 286.157045 -45.536364 
L 285.471245 -45.536364 
L 284.785445 -45.536364 
L 284.099645 -45.536364 
L 283.413845 -45.536364 
L 282.728045 -45.536364 
L 282.042245 -45.536364 
L 281.356445 -45.536364 
L 280.670645 -45.536364 
L 279.984845 -45.536364 
L 279.299045 -45.536364 
L 278.613244 -45.536364 
L 277.927444 -45.536364 
L 277.241644 -45.536364 
L 276.555844 -45.536364 
L 275.870044 -45.536364 
L 275.184244 -45.536364 
L 274.498444 -45.536364 
L 273.812644 -45.536364 
L 273.126844 -45.536364 
L 272.441044 -45.536364 
L 271.755244 -45.536364 
L 271.069444 -45.536364 
L 270.383644 -45.536364 
L 269.697843 -45.536364 
L 269.012043 -45.536364 
L 268.326243 -45.536364 
L 267.640443 -45.536364 
L 266.954643 -45.536364 
L 266.268843 -45.536364 
L 265.583043 -45.536364 
L 264.897243 -45.536364 
L 264.211443 -45.536364 
L 263.525643 -45.536364 
L 262.839843 -45.536364 
L 262.154043 -45.536364 
L 261.468242 -45.536364 
L 260.782442 -45.536364 
L 260.096642 -45.536364 
L 259.410842 -45.536364 
L 258.725042 -45.536364 
L 258.039242 -45.536364 
L 257.353442 -45.536364 
L 256.667642 -45.536364 
L 255.981842 -45.536364 
L 255.296042 -45.536364 
L 254.610242 -45.536364 
L 253.924442 -45.536364 
L 253.238641 -45.536364 
L 252.552841 -45.536364 
L 251.867041 -45.536364 
L 251.181241 -45.536364 
L 250.495441 -45.536364 
L 249.809641 -45.536364 
L 249.123841 -45.536364 
L 248.438041 -45.536364 
L 247.752241 -45.536364 
L 247.066441 -45.536364 
L 246.380641 -45.536364 
L 245.694841 -45.536364 
L 245.00904 -45.536364 
L 244.32324 -45.536364 
L 243.63744 -45.536364 
L 242.95164 -45.536364 
L 242.26584 -45.536364 
L 241.58004 -45.536364 
L 240.89424 -45.536364 
L 240.20844 -45.536364 
L 239.52264 -45.536364 
L 238.83684 -45.536364 
L 238.15104 -45.536364 
L 237.46524 -45.536364 
L 236.779439 -45.536364 
L 236.093639 -45.536364 
L 235.407839 -45.536364 
L 234.722039 -45.536364 
L 234.036239 -45.536364 
L 233.350439 -45.536364 
L 232.664639 -45.536364 
L 231.978839 -45.536364 
L 231.293039 -45.536364 
L 230.607239 -45.536364 
L 229.921439 -45.536364 
L 229.235639 -45.536364 
L 228.549838 -45.536364 
L 227.864038 -45.536364 
L 227.178238 -45.536364 
L 226.492438 -45.536364 
L 225.806638 -45.536364 
L 225.120838 -45.536364 
L 224.435038 -45.536364 
L 223.749238 -45.536364 
L 223.063438 -45.536364 
L 222.377638 -45.536364 
L 221.691838 -45.536364 
L 221.006038 -45.536364 
L 220.320237 -45.536364 
L 219.634437 -45.536364 
L 218.948637 -45.536364 
L 218.262837 -45.536364 
L 217.577037 -45.536364 
L 216.891237 -45.536364 
L 216.205437 -45.536364 
L 215.519637 -45.536364 
L 214.833837 -45.536364 
L 214.148037 -45.536364 
L 213.462237 -45.536364 
L 212.776437 -45.536364 
L 212.090636 -45.536364 
L 211.404836 -45.536364 
L 210.719036 -45.536364 
L 210.033236 -45.536364 
L 209.347436 -45.536364 
L 208.661636 -45.536364 
L 207.975836 -45.536364 
L 207.290036 -45.536364 
L 206.604236 -45.536364 
L 205.918436 -45.536364 
L 205.232636 -45.536364 
L 204.546836 -45.536364 
L 203.861035 -45.536364 
L 203.175235 -45.536364 
L 202.489435 -45.536364 
L 201.803635 -45.536364 
L 201.117835 -45.536364 
L 200.432035 -45.536364 
L 199.746235 -45.536364 
L 199.060435 -45.536364 
L 198.374635 -45.536364 
L 197.688835 -45.536364 
L 197.003035 -45.536364 
L 196.317235 -45.536364 
L 195.631434 -45.536364 
L 194.945634 -45.536364 
L 194.259834 -45.536364 
L 193.574034 -45.536364 
L 192.888234 -45.536364 
L 192.202434 -45.536364 
L 191.516634 -45.536364 
L 190.830834 -45.536364 
L 190.145034 -45.536364 
L 189.459234 -45.536364 
L 188.773434 -45.536364 
L 188.087634 -45.536364 
L 187.401834 -45.536364 
L 186.716033 -45.536364 
L 186.030233 -45.536364 
L 185.344433 -45.536364 
L 184.658633 -45.536364 
L 183.972833 -45.536364 
L 183.287033 -45.536364 
L 182.601233 -45.536364 
L 181.915433 -45.536364 
L 181.229633 -45.536364 
L 180.543833 -45.536364 
L 179.858033 -45.536364 
L 179.172233 -45.536364 
L 178.486432 -45.536364 
L 177.800632 -45.536364 
L 177.114832 -45.536364 
L 176.429032 -45.536364 
L 175.743232 -45.536364 
L 175.057432 -45.536364 
L 174.371632 -45.536364 
L 173.685832 -45.536364 
L 173.000032 -45.536364 
L 172.314232 -45.536364 
L 171.628432 -45.536364 
L 170.942632 -45.536364 
L 170.256831 -45.536364 
L 169.571031 -45.536364 
L 168.885231 -45.536364 
L 168.199431 -45.536364 
L 167.513631 -45.536364 
L 166.827831 -45.536364 
L 166.142031 -45.536364 
L 165.456231 -45.536364 
L 164.770431 -45.536364 
L 164.084631 -45.536364 
L 163.398831 -45.536364 
L 162.713031 -45.536364 
L 162.02723 -45.536364 
L 161.34143 -45.536364 
L 160.65563 -45.536364 
L 159.96983 -45.536364 
L 159.28403 -45.536364 
L 158.59823 -45.536364 
L 157.91243 -45.536364 
L 157.22663 -45.536364 
L 156.54083 -45.536364 
L 155.85503 -45.536364 
L 155.16923 -45.536364 
L 154.48343 -45.536364 
L 153.797629 -45.536364 
L 153.111829 -45.536364 
L 152.426029 -45.536364 
L 151.740229 -45.536364 
L 151.054429 -45.536364 
L 150.368629 -45.536364 
L 149.682829 -45.536364 
L 148.997029 -45.536364 
L 148.311229 -45.536364 
L 147.625429 -45.536364 
L 146.939629 -45.536364 
L 146.253829 -45.536364 
L 145.568028 -45.536364 
L 144.882228 -45.536364 
L 144.196428 -45.536364 
L 143.510628 -45.536364 
L 142.824828 -45.536364 
L 142.139028 -45.536364 
L 141.453228 -45.536364 
L 140.767428 -45.536364 
L 140.081628 -45.536364 
L 139.395828 -45.536364 
L 138.710028 -45.536364 
L 138.024228 -45.536364 
L 137.338427 -45.536364 
L 136.652627 -45.536364 
L 135.966827 -45.536364 
L 135.281027 -45.536364 
L 134.595227 -45.536364 
L 133.909427 -45.536364 
L 133.223627 -45.536364 
L 132.537827 -45.536364 
L 131.852027 -45.536364 
L 131.166227 -45.536364 
L 130.480427 -45.536364 
L 129.794627 -45.536364 
L 129.108826 -45.536364 
L 128.423026 -45.536364 
L 127.737226 -45.536364 
L 127.051426 -45.536364 
L 126.365626 -45.536364 
L 125.679826 -45.536364 
L 124.994026 -45.536364 
L 124.308226 -45.536364 
L 123.622426 -45.536364 
L 122.936626 -45.536364 
L 122.250826 -45.536364 
L 121.565026 -45.536364 
L 120.879225 -45.536364 
L 120.193425 -45.536364 
L 119.507625 -45.536364 
L 118.821825 -45.536364 
L 118.136025 -45.536364 
L 117.450225 -45.536364 
L 116.764425 -45.536364 
L 116.078625 -45.536364 
L 115.392825 -45.536364 
L 114.707025 -45.536364 
L 114.021225 -45.536364 
L 113.335425 -45.536364 
L 112.649625 -45.536364 
L 111.963824 -45.536364 
L 111.278024 -45.536364 
L 110.592224 -45.536364 
L 109.906424 -45.536364 
L 109.220624 -45.536364 
L 108.534824 -45.536364 
L 107.849024 -45.536364 
L 107.163224 -45.536364 
L 106.477424 -45.536364 
L 105.791624 -45.536364 
L 105.105824 -45.536364 
L 104.420024 -45.536364 
L 103.734223 -45.536364 
L 103.048423 -45.536364 
L 102.362623 -45.536364 
L 101.676823 -45.536364 
L 100.991023 -45.536364 
L 100.305223 -45.536364 
L 99.619423 -45.536364 
L 98.933623 -45.536364 
L 98.247823 -45.536364 
L 97.562023 -45.536364 
L 96.876223 -45.536364 
L 96.190423 -45.536364 
L 95.504622 -45.536364 
L 94.818822 -45.536364 
L 94.133022 -45.536364 
L 93.447222 -45.536364 
L 92.761422 -45.536364 
L 92.075622 -45.536364 
L 91.389822 -45.536364 
L 90.704022 -45.536364 
L 90.018222 -45.536364 
L 89.332422 -45.536364 
L 88.646622 -45.536364 
L 87.960822 -45.536364 
L 87.275021 -45.536364 
L 86.589221 -45.536364 
L 85.903421 -45.536364 
L 85.217621 -45.536364 
L 84.531821 -45.536364 
L 83.846021 -45.536364 
L 83.160221 -45.536364 
L 82.474421 -45.536364 
L 81.788621 -45.536364 
L 81.102821 -45.536364 
L 80.417021 -45.536364 
L 79.731221 -45.536364 
L 79.04542 -45.536364 
L 78.35962 -45.536364 
L 77.67382 -45.536364 
L 76.98802 -45.536364 
L 76.30222 -45.536364 
L 75.61642 -45.536364 
L 74.93062 -45.536364 
L 74.24482 -45.536364 
L 73.55902 -45.536364 
L 72.87322 -45.536364 
L 72.18742 -45.536364 
L 71.50162 -45.536364 
L 70.815819 -45.536364 
L 70.130019 -45.536364 
L 69.444219 -45.536364 
L 68.758419 -45.536364 
L 68.072619 -45.536364 
L 67.386819 -45.536364 
L 66.701019 -45.536364 
L 66.015219 -45.536364 
L 65.329419 -45.536364 
L 64.643619 -45.536364 
L 63.957819 -45.536364 
L 63.272019 -45.536364 
L 62.586218 -45.536364 
L 61.900418 -45.536364 
L 61.214618 -45.536364 
L 60.528818 -45.536364 
L 59.843018 -45.536364 
L 59.157218 -45.536364 
L 58.471418 -45.536364 
L 57.785618 -45.536364 
z
" style="stroke: #4c78a8; stroke-opacity: 0.15"/>
    </defs>
    <g clip-path="url(#peebb235a60)">
     <use xlink:href="#m05b4dcd322" x="0" y="223.158281" style="fill: #4c78a8; fill-opacity: 0.15; stroke: #4c78a8; stroke-opacity: 0.15"/>
    </g>
   </g>
   <g id="matplotlib.axis_1">
    <g id="xtick_1">
     <g id="line2d_1">
      <path d="M 57.681355 184.958281 
L 57.681355 23.558281 
" clip-path="url(#peebb235a60)" style="fill: none; stroke: #b0b0b0; stroke-opacity: 0.25; stroke-width: 0.6; stroke-linecap: square"/>
     </g>
     <g id="line2d_2">
      <defs>
       <path id="m7a9e3e0eaf" d="M 0 0 
L 0 3.5 
" style="stroke: #000000; stroke-width: 0.8"/>
      </defs>
      <g>
       <use xlink:href="#m7a9e3e0eaf" x="57.681355" y="184.958281" style="stroke: #000000; stroke-width: 0.8"/>
      </g>
     </g>
     <g id="text_1">
      <!-- 0.0 -->
      <g transform="translate(49.729792 199.555938) scale(0.1 -0.1)">
       <defs>
        <path id="DejaVuSans-13" d="M 2034 4250 
Q 1547 4250 1301 3770 
Q 1056 3291 1056 2328 
Q 1056 1369 1301 889 
Q 1547 409 2034 409 
Q 2525 409 2770 889 
Q 3016 1369 3016 2328 
Q 3016 3291 2770 3770 
Q 2525 4250 2034 4250 
z
M 2034 4750 
Q 2819 4750 3233 4129 
Q 3647 3509 3647 2328 
Q 3647 1150 3233 529 
Q 2819 -91 2034 -91 
Q 1250 -91 836 529 
Q 422 1150 422 2328 
Q 422 3509 836 4129 
Q 1250 4750 2034 4750 
z
" transform="scale(0.015625)"/>
        <path id="DejaVuSans-11" d="M 684 794 
L 1344 794 
L 1344 0 
L 684 0 
L 684 794 
z
" transform="scale(0.015625)"/>
       </defs>
       <use xlink:href="#DejaVuSans-13"/>
       <use xlink:href="#DejaVuSans-11" transform="translate(63.625 0)"/>
       <use xlink:href="#DejaVuSans-13" transform="translate(95.40625 0)"/>
      </g>
     </g>
    </g>
    <g id="xtick_2">
     <g id="line2d_3">
      <path d="M 99.276291 184.958281 
L 99.276291 23.558281 
" clip-path="url(#peebb235a60)" style="fill: none; stroke: #b0b0b0; stroke-opacity: 0.25; stroke-width: 0.6; stroke-linecap: square"/>
     </g>
     <g id="line2d_4">
      <g>
       <use xlink:href="#m7a9e3e0eaf" x="99.276291" y="184.958281" style="stroke: #000000; stroke-width: 0.8"/>
      </g>
     </g>
     <g id="text_2">
      <!-- 0.5 -->
      <g transform="translate(91.324728 199.555938) scale(0.1 -0.1)">
       <defs>
        <path id="DejaVuSans-18" d="M 691 4666 
L 3169 4666 
L 3169 4134 
L 1269 4134 
L 1269 2991 
Q 1406 3038 1543 3061 
Q 1681 3084 1819 3084 
Q 2600 3084 3056 2656 
Q 3513 2228 3513 1497 
Q 3513 744 3044 326 
Q 2575 -91 1722 -91 
Q 1428 -91 1123 -41 
Q 819 9 494 109 
L 494 744 
Q 775 591 1075 516 
Q 1375 441 1709 441 
Q 2250 441 2565 725 
Q 2881 1009 2881 1497 
Q 2881 1984 2565 2268 
Q 2250 2553 1709 2553 
Q 1456 2553 1204 2497 
Q 953 2441 691 2322 
L 691 4666 
z
" transform="scale(0.015625)"/>
       </defs>
       <use xlink:href="#DejaVuSans-13"/>
       <use xlink:href="#DejaVuSans-11" transform="translate(63.625 0)"/>
       <use xlink:href="#DejaVuSans-18" transform="translate(95.40625 0)"/>
      </g>
     </g>
    </g>
    <g id="xtick_3">
     <g id="line2d_5">
      <path d="M 140.871226 184.958281 
L 140.871226 23.558281 
" clip-path="url(#peebb235a60)" style="fill: none; stroke: #b0b0b0; stroke-opacity: 0.25; stroke-width: 0.6; stroke-linecap: square"/>
     </g>
     <g id="line2d_6">
      <g>
       <use xlink:href="#m7a9e3e0eaf" x="140.871226" y="184.958281" style="stroke: #000000; stroke-width: 0.8"/>
      </g>
     </g>
     <g id="text_3">
      <!-- 1.0 -->
      <g transform="translate(132.919664 199.555938) scale(0.1 -0.1)">
       <defs>
        <path id="DejaVuSans-14" d="M 794 531 
L 1825 531 
L 1825 4091 
L 703 3866 
L 703 4441 
L 1819 4666 
L 2450 4666 
L 2450 531 
L 3481 531 
L 3481 0 
L 794 0 
L 794 531 
z
" transform="scale(0.015625)"/>
       </defs>
       <use xlink:href="#DejaVuSans-14"/>
       <use xlink:href="#DejaVuSans-11" transform="translate(63.625 0)"/>
       <use xlink:href="#DejaVuSans-13" transform="translate(95.40625 0)"/>
      </g>
     </g>
    </g>
    <g id="xtick_4">
     <g id="line2d_7">
      <path d="M 182.466162 184.958281 
L 182.466162 23.558281 
" clip-path="url(#peebb235a60)" style="fill: none; stroke: #b0b0b0; stroke-opacity: 0.25; stroke-width: 0.6; stroke-linecap: square"/>
     </g>
     <g id="line2d_8">
      <g>
       <use xlink:href="#m7a9e3e0eaf" x="182.466162" y="184.958281" style="stroke: #000000; stroke-width: 0.8"/>
      </g>
     </g>
     <g id="text_4">
      <!-- 1.5 -->
      <g transform="translate(174.5146 199.555938) scale(0.1 -0.1)">
       <use xlink:href="#DejaVuSans-14"/>
       <use xlink:href="#DejaVuSans-11" transform="translate(63.625 0)"/>
       <use xlink:href="#DejaVuSans-18" transform="translate(95.40625 0)"/>
      </g>
     </g>
    </g>
    <g id="xtick_5">
     <g id="line2d_9">
      <path d="M 224.061098 184.958281 
L 224.061098 23.558281 
" clip-path="url(#peebb235a60)" style="fill: none; stroke: #b0b0b0; stroke-opacity: 0.25; stroke-width: 0.6; stroke-linecap: square"/>
     </g>
     <g id="line2d_10">
      <g>
       <use xlink:href="#m7a9e3e0eaf" x="224.061098" y="184.958281" style="stroke: #000000; stroke-width: 0.8"/>
      </g>
     </g>
     <g id="text_5">
      <!-- 2.0 -->
      <g transform="translate(216.109535 199.555938) scale(0.1 -0.1)">
       <defs>
        <path id="DejaVuSans-15" d="M 1228 531 
L 3431 531 
L 3431 0 
L 469 0 
L 469 531 
Q 828 903 1448 1529 
Q 2069 2156 2228 2338 
Q 2531 2678 2651 2914 
Q 2772 3150 2772 3378 
Q 2772 3750 2511 3984 
Q 2250 4219 1831 4219 
Q 1534 4219 1204 4116 
Q 875 4013 500 3803 
L 500 4441 
Q 881 4594 1212 4672 
Q 1544 4750 1819 4750 
Q 2544 4750 2975 4387 
Q 3406 4025 3406 3419 
Q 3406 3131 3298 2873 
Q 3191 2616 2906 2266 
Q 2828 2175 2409 1742 
Q 1991 1309 1228 531 
z
" transform="scale(0.015625)"/>
       </defs>
       <use xlink:href="#DejaVuSans-15"/>
       <use xlink:href="#DejaVuSans-11" transform="translate(63.625 0)"/>
       <use xlink:href="#DejaVuSans-13" transform="translate(95.40625 0)"/>
      </g>
     </g>
    </g>
    <g id="xtick_6">
     <g id="line2d_11">
      <path d="M 265.656034 184.958281 
L 265.656034 23.558281 
" clip-path="url(#peebb235a60)" style="fill: none; stroke: #b0b0b0; stroke-opacity: 0.25; stroke-width: 0.6; stroke-linecap: square"/>
     </g>
     <g id="line2d_12">
      <g>
       <use xlink:href="#m7a9e3e0eaf" x="265.656034" y="184.958281" style="stroke: #000000; stroke-width: 0.8"/>
      </g>
     </g>
     <g id="text_6">
      <!-- 2.5 -->
      <g transform="translate(257.704471 199.555938) scale(0.1 -0.1)">
       <use xlink:href="#DejaVuSans-15"/>
       <use xlink:href="#DejaVuSans-11" transform="translate(63.625 0)"/>
       <use xlink:href="#DejaVuSans-18" transform="translate(95.40625 0)"/>
      </g>
     </g>
    </g>
    <g id="xtick_7">
     <g id="line2d_13">
      <path d="M 307.250969 184.958281 
L 307.250969 23.558281 
" clip-path="url(#peebb235a60)" style="fill: none; stroke: #b0b0b0; stroke-opacity: 0.25; stroke-width: 0.6; stroke-linecap: square"/>
     </g>
     <g id="line2d_14">
      <g>
       <use xlink:href="#m7a9e3e0eaf" x="307.250969" y="184.958281" style="stroke: #000000; stroke-width: 0.8"/>
      </g>
     </g>
     <g id="text_7">
      <!-- 3.0 -->
      <g transform="translate(299.299407 199.555938) scale(0.1 -0.1)">
       <defs>
        <path id="DejaVuSans-16" d="M 2597 2516 
Q 3050 2419 3304 2112 
Q 3559 1806 3559 1356 
Q 3559 666 3084 287 
Q 2609 -91 1734 -91 
Q 1441 -91 1130 -33 
Q 819 25 488 141 
L 488 750 
Q 750 597 1062 519 
Q 1375 441 1716 441 
Q 2309 441 2620 675 
Q 2931 909 2931 1356 
Q 2931 1769 2642 2001 
Q 2353 2234 1838 2234 
L 1294 2234 
L 1294 2753 
L 1863 2753 
Q 2328 2753 2575 2939 
Q 2822 3125 2822 3475 
Q 2822 3834 2567 4026 
Q 2313 4219 1838 4219 
Q 1578 4219 1281 4162 
Q 984 4106 628 3988 
L 628 4550 
Q 988 4650 1302 4700 
Q 1616 4750 1894 4750 
Q 2613 4750 3031 4423 
Q 3450 4097 3450 3541 
Q 3450 3153 3228 2886 
Q 3006 2619 2597 2516 
z
" transform="scale(0.015625)"/>
       </defs>
       <use xlink:href="#DejaVuSans-16"/>
       <use xlink:href="#DejaVuSans-11" transform="translate(63.625 0)"/>
       <use xlink:href="#DejaVuSans-13" transform="translate(95.40625 0)"/>
      </g>
     </g>
    </g>
    <g id="text_8">
     <!-- x -->
     <g transform="translate(191.643359 213.555938) scale(0.1 -0.1)">
      <defs>
       <path id="DejaVuSans-5b" d="M 3513 3500 
L 2247 1797 
L 3578 0 
L 2900 0 
L 1881 1375 
L 863 0 
L 184 0 
L 1544 1831 
L 300 3500 
L 978 3500 
L 1906 2253 
L 2834 3500 
L 3513 3500 
z
" transform="scale(0.015625)"/>
      </defs>
      <use xlink:href="#DejaVuSans-5b"/>
     </g>
    </g>
   </g>
   <g id="matplotlib.axis_2">
    <g id="ytick_1">
     <g id="line2d_15">
      <path d="M 44.103906 177.621918 
L 345.101562 177.621918 
" clip-path="url(#peebb235a60)" style="fill: none; stroke: #b0b0b0; stroke-opacity: 0.25; stroke-width: 0.6; stroke-linecap: square"/>
     </g>
     <g id="line2d_16">
      <defs>
       <path id="m1e8628050b" d="M 0 0 
L -3.5 0 
" style="stroke: #000000; stroke-width: 0.8"/>
      </defs>
      <g>
       <use xlink:href="#m1e8628050b" x="44.103906" y="177.621918" style="stroke: #000000; stroke-width: 0.8"/>
      </g>
     </g>
     <g id="text_9">
      <!-- 0.0 -->
      <g transform="translate(21.200781 181.420746) scale(0.1 -0.1)">
       <use xlink:href="#DejaVuSans-13"/>
       <use xlink:href="#DejaVuSans-11" transform="translate(63.625 0)"/>
       <use xlink:href="#DejaVuSans-13" transform="translate(95.40625 0)"/>
      </g>
     </g>
    </g>
    <g id="ytick_2">
     <g id="line2d_17">
      <path d="M 44.103906 140.842816 
L 345.101562 140.842816 
" clip-path="url(#peebb235a60)" style="fill: none; stroke: #b0b0b0; stroke-opacity: 0.25; stroke-width: 0.6; stroke-linecap: square"/>
     </g>
     <g id="line2d_18">
      <g>
       <use xlink:href="#m1e8628050b" x="44.103906" y="140.842816" style="stroke: #000000; stroke-width: 0.8"/>
      </g>
     </g>
     <g id="text_10">
      <!-- 0.2 -->
      <g transform="translate(21.200781 144.641644) scale(0.1 -0.1)">
       <use xlink:href="#DejaVuSans-13"/>
       <use xlink:href="#DejaVuSans-11" transform="translate(63.625 0)"/>
       <use xlink:href="#DejaVuSans-15" transform="translate(95.40625 0)"/>
      </g>
     </g>
    </g>
    <g id="ytick_3">
     <g id="line2d_19">
      <path d="M 44.103906 104.063714 
L 345.101562 104.063714 
" clip-path="url(#peebb235a60)" style="fill: none; stroke: #b0b0b0; stroke-opacity: 0.25; stroke-width: 0.6; stroke-linecap: square"/>
     </g>
     <g id="line2d_20">
      <g>
       <use xlink:href="#m1e8628050b" x="44.103906" y="104.063714" style="stroke: #000000; stroke-width: 0.8"/>
      </g>
     </g>
     <g id="text_11">
      <!-- 0.4 -->
      <g transform="translate(21.200781 107.862542) scale(0.1 -0.1)">
       <defs>
        <path id="DejaVuSans-17" d="M 2419 4116 
L 825 1625 
L 2419 1625 
L 2419 4116 
z
M 2253 4666 
L 3047 4666 
L 3047 1625 
L 3713 1625 
L 3713 1100 
L 3047 1100 
L 3047 0 
L 2419 0 
L 2419 1100 
L 313 1100 
L 313 1709 
L 2253 4666 
z
" transform="scale(0.015625)"/>
       </defs>
       <use xlink:href="#DejaVuSans-13"/>
       <use xlink:href="#DejaVuSans-11" transform="translate(63.625 0)"/>
       <use xlink:href="#DejaVuSans-17" transform="translate(95.40625 0)"/>
      </g>
     </g>
    </g>
    <g id="ytick_4">
     <g id="line2d_21">
      <path d="M 44.103906 67.284612 
L 345.101562 67.284612 
" clip-path="url(#peebb235a60)" style="fill: none; stroke: #b0b0b0; stroke-opacity: 0.25; stroke-width: 0.6; stroke-linecap: square"/>
     </g>
     <g id="line2d_22">
      <g>
       <use xlink:href="#m1e8628050b" x="44.103906" y="67.284612" style="stroke: #000000; stroke-width: 0.8"/>
      </g>
     </g>
     <g id="text_12">
      <!-- 0.6 -->
      <g transform="translate(21.200781 71.08344) scale(0.1 -0.1)">
       <defs>
        <path id="DejaVuSans-19" d="M 2113 2584 
Q 1688 2584 1439 2293 
Q 1191 2003 1191 1497 
Q 1191 994 1439 701 
Q 1688 409 2113 409 
Q 2538 409 2786 701 
Q 3034 994 3034 1497 
Q 3034 2003 2786 2293 
Q 2538 2584 2113 2584 
z
M 3366 4563 
L 3366 3988 
Q 3128 4100 2886 4159 
Q 2644 4219 2406 4219 
Q 1781 4219 1451 3797 
Q 1122 3375 1075 2522 
Q 1259 2794 1537 2939 
Q 1816 3084 2150 3084 
Q 2853 3084 3261 2657 
Q 3669 2231 3669 1497 
Q 3669 778 3244 343 
Q 2819 -91 2113 -91 
Q 1303 -91 875 529 
Q 447 1150 447 2328 
Q 447 3434 972 4092 
Q 1497 4750 2381 4750 
Q 2619 4750 2861 4703 
Q 3103 4656 3366 4563 
z
" transform="scale(0.015625)"/>
       </defs>
       <use xlink:href="#DejaVuSans-13"/>
       <use xlink:href="#DejaVuSans-11" transform="translate(63.625 0)"/>
       <use xlink:href="#DejaVuSans-19" transform="translate(95.40625 0)"/>
      </g>
     </g>
    </g>
    <g id="ytick_5">
     <g id="line2d_23">
      <path d="M 44.103906 30.50551 
L 345.101562 30.50551 
" clip-path="url(#peebb235a60)" style="fill: none; stroke: #b0b0b0; stroke-opacity: 0.25; stroke-width: 0.6; stroke-linecap: square"/>
     </g>
     <g id="line2d_24">
      <g>
       <use xlink:href="#m1e8628050b" x="44.103906" y="30.50551" style="stroke: #000000; stroke-width: 0.8"/>
      </g>
     </g>
     <g id="text_13">
      <!-- 0.8 -->
      <g transform="translate(21.200781 34.304338) scale(0.1 -0.1)">
       <defs>
        <path id="DejaVuSans-1b" d="M 2034 2216 
Q 1584 2216 1326 1975 
Q 1069 1734 1069 1313 
Q 1069 891 1326 650 
Q 1584 409 2034 409 
Q 2484 409 2743 651 
Q 3003 894 3003 1313 
Q 3003 1734 2745 1975 
Q 2488 2216 2034 2216 
z
M 1403 2484 
Q 997 2584 770 2862 
Q 544 3141 544 3541 
Q 544 4100 942 4425 
Q 1341 4750 2034 4750 
Q 2731 4750 3128 4425 
Q 3525 4100 3525 3541 
Q 3525 3141 3298 2862 
Q 3072 2584 2669 2484 
Q 3125 2378 3379 2068 
Q 3634 1759 3634 1313 
Q 3634 634 3220 271 
Q 2806 -91 2034 -91 
Q 1263 -91 848 271 
Q 434 634 434 1313 
Q 434 1759 690 2068 
Q 947 2378 1403 2484 
z
M 1172 3481 
Q 1172 3119 1398 2916 
Q 1625 2713 2034 2713 
Q 2441 2713 2670 2916 
Q 2900 3119 2900 3481 
Q 2900 3844 2670 4047 
Q 2441 4250 2034 4250 
Q 1625 4250 1398 4047 
Q 1172 3844 1172 3481 
z
" transform="scale(0.015625)"/>
       </defs>
       <use xlink:href="#DejaVuSans-13"/>
       <use xlink:href="#DejaVuSans-11" transform="translate(63.625 0)"/>
       <use xlink:href="#DejaVuSans-1b" transform="translate(95.40625 0)"/>
      </g>
     </g>
    </g>
    <g id="text_14">
     <!-- f(x) -->
     <g transform="translate(14.798438 112.879375) rotate(-90) scale(0.1 -0.1)">
      <defs>
       <path id="DejaVuSans-49" d="M 2375 4863 
L 2375 4384 
L 1825 4384 
Q 1516 4384 1395 4259 
Q 1275 4134 1275 3809 
L 1275 3500 
L 2222 3500 
L 2222 3053 
L 1275 3053 
L 1275 0 
L 697 0 
L 697 3053 
L 147 3053 
L 147 3500 
L 697 3500 
L 697 3744 
Q 697 4328 969 4595 
Q 1241 4863 1831 4863 
L 2375 4863 
z
" transform="scale(0.015625)"/>
       <path id="DejaVuSans-b" d="M 1984 4856 
Q 1566 4138 1362 3434 
Q 1159 2731 1159 2009 
Q 1159 1288 1364 580 
Q 1569 -128 1984 -844 
L 1484 -844 
Q 1016 -109 783 600 
Q 550 1309 550 2009 
Q 550 2706 781 3412 
Q 1013 4119 1484 4856 
L 1984 4856 
z
" transform="scale(0.015625)"/>
       <path id="DejaVuSans-c" d="M 513 4856 
L 1013 4856 
Q 1481 4119 1714 3412 
Q 1947 2706 1947 2009 
Q 1947 1309 1714 600 
Q 1481 -109 1013 -844 
L 513 -844 
Q 928 -128 1133 580 
Q 1338 1288 1338 2009 
Q 1338 2731 1133 3434 
Q 928 4138 513 4856 
z
" transform="scale(0.015625)"/>
      </defs>
      <use xlink:href="#DejaVuSans-49"/>
      <use xlink:href="#DejaVuSans-b" transform="translate(35.203125 0)"/>
      <use xlink:href="#DejaVuSans-5b" transform="translate(74.21875 0)"/>
      <use xlink:href="#DejaVuSans-c" transform="translate(133.40625 0)"/>
     </g>
    </g>
   </g>
   <g id="line2d_25">
    <path d="M 57.785618 30.894645 
L 61.214618 31.02681 
L 64.643619 31.407487 
L 68.072619 32.034738 
L 71.50162 32.905381 
L 74.93062 34.015013 
L 78.35962 35.35805 
L 81.788621 36.927769 
L 85.217621 38.716369 
L 89.332422 41.139132 
L 93.447222 43.847327 
L 97.562023 46.822186 
L 102.362623 50.602721 
L 107.163224 54.684057 
L 112.649625 59.670053 
L 118.821825 65.621796 
L 125.679826 72.563756 
L 134.595227 81.926301 
L 158.59823 107.321228 
L 166.142031 114.902891 
L 173.000032 121.485401 
L 179.172233 127.111205 
L 185.344433 132.422708 
L 190.830834 136.862067 
L 196.317235 141.024925 
L 201.803635 144.905235 
L 207.290036 148.501058 
L 212.776437 151.814166 
L 218.262837 154.849601 
L 223.749238 157.615224 
L 229.235639 160.121256 
L 234.722039 162.379822 
L 240.20844 164.40452 
L 245.694841 166.210008 
L 251.867041 167.998279 
L 258.039242 169.550875 
L 264.897243 171.026746 
L 271.755244 172.26924 
L 279.299045 173.400663 
L 287.528646 174.394437 
L 296.444047 175.235344 
L 306.045248 175.919665 
L 317.018049 176.483701 
L 330.048251 176.931936 
L 331.419851 176.968283 
L 331.419851 176.968283 
" clip-path="url(#peebb235a60)" style="fill: none; stroke: #4c78a8; stroke-width: 2; stroke-linecap: square"/>
   </g>
   <g id="patch_3">
    <path d="M 44.103906 184.958281 
L 44.103906 23.558281 
" style="fill: none; stroke: #000000; stroke-width: 0.8; stroke-linejoin: miter; stroke-linecap: square"/>
   </g>
   <g id="patch_4">
    <path d="M 44.103906 184.958281 
L 345.101562 184.958281 
" style="fill: none; stroke: #000000; stroke-width: 0.8; stroke-linejoin: miter; stroke-linecap: square"/>
   </g>
   <g id="text_15">
    <!-- Half Normal -->
    <g transform="translate(161.983438 15.558281) scale(0.11 -0.11)">
     <defs>
      <path id="DejaVuSans-2b" d="M 628 4666 
L 1259 4666 
L 1259 2753 
L 3553 2753 
L 3553 4666 
L 4184 4666 
L 4184 0 
L 3553 0 
L 3553 2222 
L 1259 2222 
L 1259 0 
L 628 0 
L 628 4666 
z
" transform="scale(0.015625)"/>
      <path id="DejaVuSans-44" d="M 2194 1759 
Q 1497 1759 1228 1600 
Q 959 1441 959 1056 
Q 959 750 1161 570 
Q 1363 391 1709 391 
Q 2188 391 2477 730 
Q 2766 1069 2766 1631 
L 2766 1759 
L 2194 1759 
z
M 3341 1997 
L 3341 0 
L 2766 0 
L 2766 531 
Q 2569 213 2275 61 
Q 1981 -91 1556 -91 
Q 1019 -91 701 211 
Q 384 513 384 1019 
Q 384 1609 779 1909 
Q 1175 2209 1959 2209 
L 2766 2209 
L 2766 2266 
Q 2766 2663 2505 2880 
Q 2244 3097 1772 3097 
Q 1472 3097 1187 3025 
Q 903 2953 641 2809 
L 641 3341 
Q 956 3463 1253 3523 
Q 1550 3584 1831 3584 
Q 2591 3584 2966 3190 
Q 3341 2797 3341 1997 
z
" transform="scale(0.015625)"/>
      <path id="DejaVuSans-4f" d="M 603 4863 
L 1178 4863 
L 1178 0 
L 603 0 
L 603 4863 
z
" transform="scale(0.015625)"/>
      <path id="DejaVuSans-3" transform="scale(0.015625)"/>
      <path id="DejaVuSans-31" d="M 628 4666 
L 1478 4666 
L 3547 763 
L 3547 4666 
L 4159 4666 
L 4159 0 
L 3309 0 
L 1241 3903 
L 1241 0 
L 628 0 
L 628 4666 
z
" transform="scale(0.015625)"/>
      <path id="DejaVuSans-52" d="M 1959 3097 
Q 1497 3097 1228 2736 
Q 959 2375 959 1747 
Q 959 1119 1226 758 
Q 1494 397 1959 397 
Q 2419 397 2687 759 
Q 2956 1122 2956 1747 
Q 2956 2369 2687 2733 
Q 2419 3097 1959 3097 
z
M 1959 3584 
Q 2709 3584 3137 3096 
Q 3566 2609 3566 1747 
Q 3566 888 3137 398 
Q 2709 -91 1959 -91 
Q 1206 -91 779 398 
Q 353 888 353 1747 
Q 353 2609 779 3096 
Q 1206 3584 1959 3584 
z
" transform="scale(0.015625)"/>
      <path id="DejaVuSans-55" d="M 2631 2963 
Q 2534 3019 2420 3045 
Q 2306 3072 2169 3072 
Q 1681 3072 1420 2755 
Q 1159 2438 1159 1844 
L 1159 0 
L 581 0 
L 581 3500 
L 1159 3500 
L 1159 2956 
Q 1341 3275 1631 3429 
Q 1922 3584 2338 3584 
Q 2397 3584 2469 3576 
Q 2541 3569 2628 3553 
L 2631 2963 
z
" transform="scale(0.015625)"/>
      <path id="DejaVuSans-50" d="M 3328 2828 
Q 3544 3216 3844 3400 
Q 4144 3584 4550 3584 
Q 5097 3584 5394 3201 
Q 5691 2819 5691 2113 
L 5691 0 
L 5113 0 
L 5113 2094 
Q 5113 2597 4934 2840 
Q 4756 3084 4391 3084 
Q 3944 3084 3684 2787 
Q 3425 2491 3425 1978 
L 3425 0 
L 2847 0 
L 2847 2094 
Q 2847 2600 2669 2842 
Q 2491 3084 2119 3084 
Q 1678 3084 1418 2786 
Q 1159 2488 1159 1978 
L 1159 0 
L 581 0 
L 581 3500 
L 1159 3500 
L 1159 2956 
Q 1356 3278 1631 3431 
Q 1906 3584 2284 3584 
Q 2666 3584 2933 3390 
Q 3200 3197 3328 2828 
z
" transform="scale(0.015625)"/>
     </defs>
     <use xlink:href="#DejaVuSans-2b"/>
     <use xlink:href="#DejaVuSans-44" transform="translate(75.203125 0)"/>
     <use xlink:href="#DejaVuSans-4f" transform="translate(136.484375 0)"/>
     <use xlink:href="#DejaVuSans-49" transform="translate(164.265625 0)"/>
     <use xlink:href="#DejaVuSans-3" transform="translate(199.46875 0)"/>
     <use xlink:href="#DejaVuSans-31" transform="translate(231.25 0)"/>
     <use xlink:href="#DejaVuSans-52" transform="translate(306.0625 0)"/>
     <use xlink:href="#DejaVuSans-55" transform="translate(367.25 0)"/>
     <use xlink:href="#DejaVuSans-50" transform="translate(406.609375 0)"/>
     <use xlink:href="#DejaVuSans-44" transform="translate(504.015625 0)"/>
     <use xlink:href="#DejaVuSans-4f" transform="translate(565.296875 0)"/>
    </g>
   </g>
  </g>
 </g>
 <defs>
  <clipPath id="peebb235a60">
   <rect x="44.103906" y="23.558281" width="300.997656" height="161.4"/>
  </clipPath>
 </defs>
</svg>
