<?xml version="1.0" encoding="utf-8" standalone="no"?>
<!DOCTYPE svg PUBLIC "-//W3C//DTD SVG 1.1//EN"
  "http://www.w3.org/Graphics/SVG/1.1/DTD/svg11.dtd">
<svg xmlns:xlink="http://www.w3.org/1999/xlink" width="352.301562pt" height="223.158281pt" viewBox="0 0 352.301562 223.158281" xmlns="http://www.w3.org/2000/svg" version="1.1">
 <metadata>
  <rdf:RDF xmlns:dc="http://purl.org/dc/elements/1.1/" xmlns:cc="http://creativecommons.org/ns#" xmlns:rdf="http://www.w3.org/1999/02/22-rdf-syntax-ns#">
   <cc:Work>
    <dc:type rdf:resource="http://purl.org/dc/dcmitype/StillImage"/>
    <dc:date>2026-07-05T02:24:31.656298</dc:date>
    <dc:format>image/svg+xml</dc:format>
    <dc:creator>
     <cc:Agent>
      <dc:title>Matplotlib v3.11.0, https://matplotlib.org/</dc:title>
     </cc:Agent>
    </dc:creator>
   </cc:Work>
  </rdf:RDF>
 </metadata>
 <defs>
  <style type="text/css">*{stroke-linejoin: round; stroke-linecap: butt}</style>
 </defs>
 <g id="figure_1">
  <g id="patch_1">
   <path d="M 0 223.158281 
L 352.301562 223.158281 
L 352.301562 0 
L 0 0 
z
" style="fill: #ffffff"/>
  </g>
  <g id="axes_1">
   <g id="patch_2">
    <path d="M 44.103906 184.958281 
L 345.101562 184.958281 
L 345.101562 23.558281 
L 44.103906 23.558281 
z
" style="fill: #ffffff"/>
   </g>
   <g id="FillBetweenPolyCollection_1">
    <defs>
     <path id="m0f2e992d08" d="M 57.785618 -45.536364 
L 57.785618 -192.263636 
L 58.471418 -192.24754 
L 59.157218 -192.204852 
L 59.843018 -192.135601 
L 60.528818 -192.039839 
L 61.214618 -191.917635 
L 61.900418 -191.769077 
L 62.586218 -191.594273 
L 63.272019 -191.393348 
L 63.957819 -191.166447 
L 64.643619 -190.913733 
L 65.329419 -190.635387 
L 66.015219 -190.331607 
L 66.701019 -190.002611 
L 67.386819 -189.648631 
L 68.072619 -189.269918 
L 68.758419 -188.866738 
L 69.444219 -188.439375 
L 70.130019 -187.988127 
L 70.815819 -187.513307 
L 71.50162 -187.015245 
L 72.18742 -186.494282 
L 72.87322 -185.950776 
L 73.55902 -185.385096 
L 74.24482 -184.797625 
L 74.93062 -184.188757 
L 75.61642 -183.5589 
L 76.30222 -182.90847 
L 76.98802 -182.237896 
L 77.67382 -181.547617 
L 78.35962 -180.838078 
L 79.04542 -180.109738 
L 79.731221 -179.36306 
L 80.417021 -178.598517 
L 81.102821 -177.816588 
L 81.788621 -177.017758 
L 82.474421 -176.202519 
L 83.160221 -175.371368 
L 83.846021 -174.524805 
L 84.531821 -173.663336 
L 85.217621 -172.78747 
L 85.903421 -171.897719 
L 86.589221 -170.994595 
L 87.275021 -170.078616 
L 87.960822 -169.150297 
L 88.646622 -168.210156 
L 89.332422 -167.25871 
L 90.018222 -166.296477 
L 90.704022 -165.323972 
L 91.389822 -164.34171 
L 92.075622 -163.350204 
L 92.761422 -162.349964 
L 93.447222 -161.341497 
L 94.133022 -160.325307 
L 94.818822 -159.301895 
L 95.504622 -158.271755 
L 96.190423 -157.235381 
L 96.876223 -156.193258 
L 97.562023 -155.145867 
L 98.247823 -154.093684 
L 98.933623 -153.037178 
L 99.619423 -151.976813 
L 100.305223 -150.913044 
L 100.991023 -149.846322 
L 101.676823 -148.777089 
L 102.362623 -147.70578 
L 103.048423 -146.632822 
L 103.734223 -145.558634 
L 104.420024 -144.483629 
L 105.105824 -143.408209 
L 105.791624 -142.332768 
L 106.477424 -141.257694 
L 107.163224 -140.183363 
L 107.849024 -139.110144 
L 108.534824 -138.038396 
L 109.220624 -136.968472 
L 109.906424 -135.900711 
L 110.592224 -134.835447 
L 111.278024 -133.773002 
L 111.963824 -132.713691 
L 112.649625 -131.657819 
L 113.335425 -130.605681 
L 114.021225 -129.557562 
L 114.707025 -128.513741 
L 115.392825 -127.474485 
L 116.078625 -126.440052 
L 116.764425 -125.410692 
L 117.450225 -124.386645 
L 118.136025 -123.368142 
L 118.821825 -122.355406 
L 119.507625 -121.348649 
L 120.193425 -120.348078 
L 120.879225 -119.353886 
L 121.565026 -118.366263 
L 122.250826 -117.385386 
L 122.936626 -116.411426 
L 123.622426 -115.444545 
L 124.308226 -114.484897 
L 124.994026 -113.532628 
L 125.679826 -112.587877 
L 126.365626 -111.650774 
L 127.051426 -110.721441 
L 127.737226 -109.799994 
L 128.423026 -108.886541 
L 129.108826 -107.981183 
L 129.794627 -107.084013 
L 130.480427 -106.19512 
L 131.166227 -105.314583 
L 131.852027 -104.442476 
L 132.537827 -103.578867 
L 133.223627 -102.723817 
L 133.909427 -101.87738 
L 134.595227 -101.039608 
L 135.281027 -100.210542 
L 135.966827 -99.390221 
L 136.652627 -98.578678 
L 137.338427 -97.77594 
L 138.024228 -96.982028 
L 138.710028 -96.196962 
L 139.395828 -95.420752 
L 140.081628 -94.653407 
L 140.767428 -93.89493 
L 141.453228 -93.14532 
L 142.139028 -92.404573 
L 142.824828 -91.672678 
L 143.510628 -90.949623 
L 144.196428 -90.235391 
L 144.882228 -89.529962 
L 145.568028 -88.833312 
L 146.253829 -88.145414 
L 146.939629 -87.466236 
L 147.625429 -86.795747 
L 148.311229 -86.133909 
L 148.997029 -85.480683 
L 149.682829 -84.836028 
L 150.368629 -84.199899 
L 151.054429 -83.572249 
L 151.740229 -82.953029 
L 152.426029 -82.342188 
L 153.111829 -81.739673 
L 153.797629 -81.145428 
L 154.48343 -80.559395 
L 155.16923 -79.981516 
L 155.85503 -79.41173 
L 156.54083 -78.849974 
L 157.22663 -78.296186 
L 157.91243 -77.750299 
L 158.59823 -77.212247 
L 159.28403 -76.681962 
L 159.96983 -76.159377 
L 160.65563 -75.64442 
L 161.34143 -75.137021 
L 162.02723 -74.637109 
L 162.713031 -74.144611 
L 163.398831 -73.659453 
L 164.084631 -73.181562 
L 164.770431 -72.710863 
L 165.456231 -72.247282 
L 166.142031 -71.790742 
L 166.827831 -71.341169 
L 167.513631 -70.898484 
L 168.199431 -70.462613 
L 168.885231 -70.033478 
L 169.571031 -69.611002 
L 170.256831 -69.195108 
L 170.942632 -68.785719 
L 171.628432 -68.382758 
L 172.314232 -67.986147 
L 173.000032 -67.595809 
L 173.685832 -67.211667 
L 174.371632 -66.833644 
L 175.057432 -66.461663 
L 175.743232 -66.095647 
L 176.429032 -65.735521 
L 177.114832 -65.381207 
L 177.800632 -65.032629 
L 178.486432 -64.689714 
L 179.172233 -64.352384 
L 179.858033 -64.020566 
L 180.543833 -63.694184 
L 181.229633 -63.373165 
L 181.915433 -63.057435 
L 182.601233 -62.746922 
L 183.287033 -62.441551 
L 183.972833 -62.141252 
L 184.658633 -61.845953 
L 185.344433 -61.555583 
L 186.030233 -61.27007 
L 186.716033 -60.989346 
L 187.401834 -60.713341 
L 188.087634 -60.441986 
L 188.773434 -60.175213 
L 189.459234 -59.912954 
L 190.145034 -59.655143 
L 190.830834 -59.401713 
L 191.516634 -59.152599 
L 192.202434 -58.907736 
L 192.888234 -58.667059 
L 193.574034 -58.430505 
L 194.259834 -58.198011 
L 194.945634 -57.969514 
L 195.631434 -57.744953 
L 196.317235 -57.524268 
L 197.003035 -57.307397 
L 197.688835 -57.094281 
L 198.374635 -56.884862 
L 199.060435 -56.679081 
L 199.746235 -56.47688 
L 200.432035 -56.278204 
L 201.117835 -56.082995 
L 201.803635 -55.891199 
L 202.489435 -55.702761 
L 203.175235 -55.517627 
L 203.861035 -55.335743 
L 204.546836 -55.157057 
L 205.232636 -54.981517 
L 205.918436 -54.809071 
L 206.604236 -54.63967 
L 207.290036 -54.473263 
L 207.975836 -54.309801 
L 208.661636 -54.149235 
L 209.347436 -53.991518 
L 210.033236 -53.836602 
L 210.719036 -53.684441 
L 211.404836 -53.534989 
L 212.090636 -53.388201 
L 212.776437 -53.244032 
L 213.462237 -53.102437 
L 214.148037 -52.963375 
L 214.833837 -52.826801 
L 215.519637 -52.692674 
L 216.205437 -52.560953 
L 216.891237 -52.431597 
L 217.577037 -52.304565 
L 218.262837 -52.179817 
L 218.948637 -52.057316 
L 219.634437 -51.937021 
L 220.320237 -51.818896 
L 221.006038 -51.702903 
L 221.691838 -51.589006 
L 222.377638 -51.477168 
L 223.063438 -51.367354 
L 223.749238 -51.259528 
L 224.435038 -51.153656 
L 225.120838 -51.049705 
L 225.806638 -50.94764 
L 226.492438 -50.84743 
L 227.178238 -50.74904 
L 227.864038 -50.652441 
L 228.549838 -50.5576 
L 229.235639 -50.464487 
L 229.921439 -50.373071 
L 230.607239 -50.283322 
L 231.293039 -50.195211 
L 231.978839 -50.108709 
L 232.664639 -50.023789 
L 233.350439 -49.94042 
L 234.036239 -49.858578 
L 234.722039 -49.778233 
L 235.407839 -49.69936 
L 236.093639 -49.621933 
L 236.779439 -49.545926 
L 237.46524 -49.471313 
L 238.15104 -49.398069 
L 238.83684 -49.326171 
L 239.52264 -49.255594 
L 240.20844 -49.186315 
L 240.89424 -49.11831 
L 241.58004 -49.051557 
L 242.26584 -48.986032 
L 242.95164 -48.921715 
L 243.63744 -48.858583 
L 244.32324 -48.796614 
L 245.00904 -48.735789 
L 245.694841 -48.676086 
L 246.380641 -48.617485 
L 247.066441 -48.559967 
L 247.752241 -48.503511 
L 248.438041 -48.448099 
L 249.123841 -48.393711 
L 249.809641 -48.340329 
L 250.495441 -48.287935 
L 251.181241 -48.23651 
L 251.867041 -48.186038 
L 252.552841 -48.136501 
L 253.238641 -48.087882 
L 253.924442 -48.040164 
L 254.610242 -47.993331 
L 255.296042 -47.947367 
L 255.981842 -47.902255 
L 256.667642 -47.857981 
L 257.353442 -47.814528 
L 258.039242 -47.771883 
L 258.725042 -47.73003 
L 259.410842 -47.688954 
L 260.096642 -47.648643 
L 260.782442 -47.60908 
L 261.468242 -47.570254 
L 262.154043 -47.532149 
L 262.839843 -47.494754 
L 263.525643 -47.458055 
L 264.211443 -47.422039 
L 264.897243 -47.386693 
L 265.583043 -47.352006 
L 266.268843 -47.317966 
L 266.954643 -47.284559 
L 267.640443 -47.251776 
L 268.326243 -47.219603 
L 269.012043 -47.188031 
L 269.697843 -47.157047 
L 270.383644 -47.126642 
L 271.069444 -47.096804 
L 271.755244 -47.067522 
L 272.441044 -47.038788 
L 273.126844 -47.01059 
L 273.812644 -46.982918 
L 274.498444 -46.955763 
L 275.184244 -46.929116 
L 275.870044 -46.902967 
L 276.555844 -46.877306 
L 277.241644 -46.852125 
L 277.927444 -46.827414 
L 278.613244 -46.803166 
L 279.299045 -46.779371 
L 279.984845 -46.756022 
L 280.670645 -46.733109 
L 281.356445 -46.710625 
L 282.042245 -46.688561 
L 282.728045 -46.666911 
L 283.413845 -46.645665 
L 284.099645 -46.624818 
L 284.785445 -46.604361 
L 285.471245 -46.584287 
L 286.157045 -46.564589 
L 286.842845 -46.54526 
L 287.528646 -46.526293 
L 288.214446 -46.507681 
L 288.900246 -46.489418 
L 289.586046 -46.471498 
L 290.271846 -46.453913 
L 290.957646 -46.436658 
L 291.643446 -46.419727 
L 292.329246 -46.403113 
L 293.015046 -46.386811 
L 293.700846 -46.370814 
L 294.386646 -46.355117 
L 295.072446 -46.339715 
L 295.758247 -46.324602 
L 296.444047 -46.309772 
L 297.129847 -46.295221 
L 297.815647 -46.280943 
L 298.501447 -46.266932 
L 299.187247 -46.253185 
L 299.873047 -46.239696 
L 300.558847 -46.22646 
L 301.244647 -46.213472 
L 301.930447 -46.200729 
L 302.616247 -46.188224 
L 303.302047 -46.175955 
L 303.987848 -46.163916 
L 304.673648 -46.152103 
L 305.359448 -46.140512 
L 306.045248 -46.129138 
L 306.731048 -46.117979 
L 307.416848 -46.107029 
L 308.102648 -46.096285 
L 308.788448 -46.085743 
L 309.474248 -46.075398 
L 310.160048 -46.065249 
L 310.845848 -46.05529 
L 311.531648 -46.045518 
L 312.217449 -46.03593 
L 312.903249 -46.026522 
L 313.589049 -46.017291 
L 314.274849 -46.008234 
L 314.960649 -45.999347 
L 315.646449 -45.990627 
L 316.332249 -45.982071 
L 317.018049 -45.973676 
L 317.703849 -45.965439 
L 318.389649 -45.957357 
L 319.075449 -45.949427 
L 319.761249 -45.941646 
L 320.44705 -45.934011 
L 321.13285 -45.92652 
L 321.81865 -45.91917 
L 322.50445 -45.911958 
L 323.19025 -45.904882 
L 323.87605 -45.897939 
L 324.56185 -45.891127 
L 325.24765 -45.884443 
L 325.93345 -45.877884 
L 326.61925 -45.871449 
L 327.30505 -45.865136 
L 327.99085 -45.858941 
L 328.676651 -45.852862 
L 329.362451 -45.846898 
L 330.048251 -45.841047 
L 330.734051 -45.835305 
L 331.419851 -45.829672 
L 331.419851 -45.536364 
L 331.419851 -45.536364 
L 330.734051 -45.536364 
L 330.048251 -45.536364 
L 329.362451 -45.536364 
L 328.676651 -45.536364 
L 327.99085 -45.536364 
L 327.30505 -45.536364 
L 326.61925 -45.536364 
L 325.93345 -45.536364 
L 325.24765 -45.536364 
L 324.56185 -45.536364 
L 323.87605 -45.536364 
L 323.19025 -45.536364 
L 322.50445 -45.536364 
L 321.81865 -45.536364 
L 321.13285 -45.536364 
L 320.44705 -45.536364 
L 319.761249 -45.536364 
L 319.075449 -45.536364 
L 318.389649 -45.536364 
L 317.703849 -45.536364 
L 317.018049 -45.536364 
L 316.332249 -45.536364 
L 315.646449 -45.536364 
L 314.960649 -45.536364 
L 314.274849 -45.536364 
L 313.589049 -45.536364 
L 312.903249 -45.536364 
L 312.217449 -45.536364 
L 311.531648 -45.536364 
L 310.845848 -45.536364 
L 310.160048 -45.536364 
L 309.474248 -45.536364 
L 308.788448 -45.536364 
L 308.102648 -45.536364 
L 307.416848 -45.536364 
L 306.731048 -45.536364 
L 306.045248 -45.536364 
L 305.359448 -45.536364 
L 304.673648 -45.536364 
L 303.987848 -45.536364 
L 303.302047 -45.536364 
L 302.616247 -45.536364 
L 301.930447 -45.536364 
L 301.244647 -45.536364 
L 300.558847 -45.536364 
L 299.873047 -45.536364 
L 299.187247 -45.536364 
L 298.501447 -45.536364 
L 297.815647 -45.536364 
L 297.129847 -45.536364 
L 296.444047 -45.536364 
L 295.758247 -45.536364 
L 295.072446 -45.536364 
L 294.386646 -45.536364 
L 293.700846 -45.536364 
L 293.015046 -45.536364 
L 292.329246 -45.536364 
L 291.643446 -45.536364 
L 290.957646 -45.536364 
L 290.271846 -45.536364 
L 289.586046 -45.536364 
L 288.900246 -45.536364 
L 288.214446 -45.536364 
L 287.528646 -45.536364 
L 286.842845 -45.536364 
L 286.157045 -45.536364 
L 285.471245 -45.536364 
L 284.785445 -45.536364 
L 284.099645 -45.536364 
L 283.413845 -45.536364 
L 282.728045 -45.536364 
L 282.042245 -45.536364 
L 281.356445 -45.536364 
L 280.670645 -45.536364 
L 279.984845 -45.536364 
L 279.299045 -45.536364 
L 278.613244 -45.536364 
L 277.927444 -45.536364 
L 277.241644 -45.536364 
L 276.555844 -45.536364 
L 275.870044 -45.536364 
L 275.184244 -45.536364 
L 274.498444 -45.536364 
L 273.812644 -45.536364 
L 273.126844 -45.536364 
L 272.441044 -45.536364 
L 271.755244 -45.536364 
L 271.069444 -45.536364 
L 270.383644 -45.536364 
L 269.697843 -45.536364 
L 269.012043 -45.536364 
L 268.326243 -45.536364 
L 267.640443 -45.536364 
L 266.954643 -45.536364 
L 266.268843 -45.536364 
L 265.583043 -45.536364 
L 264.897243 -45.536364 
L 264.211443 -45.536364 
L 263.525643 -45.536364 
L 262.839843 -45.536364 
L 262.154043 -45.536364 
L 261.468242 -45.536364 
L 260.782442 -45.536364 
L 260.096642 -45.536364 
L 259.410842 -45.536364 
L 258.725042 -45.536364 
L 258.039242 -45.536364 
L 257.353442 -45.536364 
L 256.667642 -45.536364 
L 255.981842 -45.536364 
L 255.296042 -45.536364 
L 254.610242 -45.536364 
L 253.924442 -45.536364 
L 253.238641 -45.536364 
L 252.552841 -45.536364 
L 251.867041 -45.536364 
L 251.181241 -45.536364 
L 250.495441 -45.536364 
L 249.809641 -45.536364 
L 249.123841 -45.536364 
L 248.438041 -45.536364 
L 247.752241 -45.536364 
L 247.066441 -45.536364 
L 246.380641 -45.536364 
L 245.694841 -45.536364 
L 245.00904 -45.536364 
L 244.32324 -45.536364 
L 243.63744 -45.536364 
L 242.95164 -45.536364 
L 242.26584 -45.536364 
L 241.58004 -45.536364 
L 240.89424 -45.536364 
L 240.20844 -45.536364 
L 239.52264 -45.536364 
L 238.83684 -45.536364 
L 238.15104 -45.536364 
L 237.46524 -45.536364 
L 236.779439 -45.536364 
L 236.093639 -45.536364 
L 235.407839 -45.536364 
L 234.722039 -45.536364 
L 234.036239 -45.536364 
L 233.350439 -45.536364 
L 232.664639 -45.536364 
L 231.978839 -45.536364 
L 231.293039 -45.536364 
L 230.607239 -45.536364 
L 229.921439 -45.536364 
L 229.235639 -45.536364 
L 228.549838 -45.536364 
L 227.864038 -45.536364 
L 227.178238 -45.536364 
L 226.492438 -45.536364 
L 225.806638 -45.536364 
L 225.120838 -45.536364 
L 224.435038 -45.536364 
L 223.749238 -45.536364 
L 223.063438 -45.536364 
L 222.377638 -45.536364 
L 221.691838 -45.536364 
L 221.006038 -45.536364 
L 220.320237 -45.536364 
L 219.634437 -45.536364 
L 218.948637 -45.536364 
L 218.262837 -45.536364 
L 217.577037 -45.536364 
L 216.891237 -45.536364 
L 216.205437 -45.536364 
L 215.519637 -45.536364 
L 214.833837 -45.536364 
L 214.148037 -45.536364 
L 213.462237 -45.536364 
L 212.776437 -45.536364 
L 212.090636 -45.536364 
L 211.404836 -45.536364 
L 210.719036 -45.536364 
L 210.033236 -45.536364 
L 209.347436 -45.536364 
L 208.661636 -45.536364 
L 207.975836 -45.536364 
L 207.290036 -45.536364 
L 206.604236 -45.536364 
L 205.918436 -45.536364 
L 205.232636 -45.536364 
L 204.546836 -45.536364 
L 203.861035 -45.536364 
L 203.175235 -45.536364 
L 202.489435 -45.536364 
L 201.803635 -45.536364 
L 201.117835 -45.536364 
L 200.432035 -45.536364 
L 199.746235 -45.536364 
L 199.060435 -45.536364 
L 198.374635 -45.536364 
L 197.688835 -45.536364 
L 197.003035 -45.536364 
L 196.317235 -45.536364 
L 195.631434 -45.536364 
L 194.945634 -45.536364 
L 194.259834 -45.536364 
L 193.574034 -45.536364 
L 192.888234 -45.536364 
L 192.202434 -45.536364 
L 191.516634 -45.536364 
L 190.830834 -45.536364 
L 190.145034 -45.536364 
L 189.459234 -45.536364 
L 188.773434 -45.536364 
L 188.087634 -45.536364 
L 187.401834 -45.536364 
L 186.716033 -45.536364 
L 186.030233 -45.536364 
L 185.344433 -45.536364 
L 184.658633 -45.536364 
L 183.972833 -45.536364 
L 183.287033 -45.536364 
L 182.601233 -45.536364 
L 181.915433 -45.536364 
L 181.229633 -45.536364 
L 180.543833 -45.536364 
L 179.858033 -45.536364 
L 179.172233 -45.536364 
L 178.486432 -45.536364 
L 177.800632 -45.536364 
L 177.114832 -45.536364 
L 176.429032 -45.536364 
L 175.743232 -45.536364 
L 175.057432 -45.536364 
L 174.371632 -45.536364 
L 173.685832 -45.536364 
L 173.000032 -45.536364 
L 172.314232 -45.536364 
L 171.628432 -45.536364 
L 170.942632 -45.536364 
L 170.256831 -45.536364 
L 169.571031 -45.536364 
L 168.885231 -45.536364 
L 168.199431 -45.536364 
L 167.513631 -45.536364 
L 166.827831 -45.536364 
L 166.142031 -45.536364 
L 165.456231 -45.536364 
L 164.770431 -45.536364 
L 164.084631 -45.536364 
L 163.398831 -45.536364 
L 162.713031 -45.536364 
L 162.02723 -45.536364 
L 161.34143 -45.536364 
L 160.65563 -45.536364 
L 159.96983 -45.536364 
L 159.28403 -45.536364 
L 158.59823 -45.536364 
L 157.91243 -45.536364 
L 157.22663 -45.536364 
L 156.54083 -45.536364 
L 155.85503 -45.536364 
L 155.16923 -45.536364 
L 154.48343 -45.536364 
L 153.797629 -45.536364 
L 153.111829 -45.536364 
L 152.426029 -45.536364 
L 151.740229 -45.536364 
L 151.054429 -45.536364 
L 150.368629 -45.536364 
L 149.682829 -45.536364 
L 148.997029 -45.536364 
L 148.311229 -45.536364 
L 147.625429 -45.536364 
L 146.939629 -45.536364 
L 146.253829 -45.536364 
L 145.568028 -45.536364 
L 144.882228 -45.536364 
L 144.196428 -45.536364 
L 143.510628 -45.536364 
L 142.824828 -45.536364 
L 142.139028 -45.536364 
L 141.453228 -45.536364 
L 140.767428 -45.536364 
L 140.081628 -45.536364 
L 139.395828 -45.536364 
L 138.710028 -45.536364 
L 138.024228 -45.536364 
L 137.338427 -45.536364 
L 136.652627 -45.536364 
L 135.966827 -45.536364 
L 135.281027 -45.536364 
L 134.595227 -45.536364 
L 133.909427 -45.536364 
L 133.223627 -45.536364 
L 132.537827 -45.536364 
L 131.852027 -45.536364 
L 131.166227 -45.536364 
L 130.480427 -45.536364 
L 129.794627 -45.536364 
L 129.108826 -45.536364 
L 128.423026 -45.536364 
L 127.737226 -45.536364 
L 127.051426 -45.536364 
L 126.365626 -45.536364 
L 125.679826 -45.536364 
L 124.994026 -45.536364 
L 124.308226 -45.536364 
L 123.622426 -45.536364 
L 122.936626 -45.536364 
L 122.250826 -45.536364 
L 121.565026 -45.536364 
L 120.879225 -45.536364 
L 120.193425 -45.536364 
L 119.507625 -45.536364 
L 118.821825 -45.536364 
L 118.136025 -45.536364 
L 117.450225 -45.536364 
L 116.764425 -45.536364 
L 116.078625 -45.536364 
L 115.392825 -45.536364 
L 114.707025 -45.536364 
L 114.021225 -45.536364 
L 113.335425 -45.536364 
L 112.649625 -45.536364 
L 111.963824 -45.536364 
L 111.278024 -45.536364 
L 110.592224 -45.536364 
L 109.906424 -45.536364 
L 109.220624 -45.536364 
L 108.534824 -45.536364 
L 107.849024 -45.536364 
L 107.163224 -45.536364 
L 106.477424 -45.536364 
L 105.791624 -45.536364 
L 105.105824 -45.536364 
L 104.420024 -45.536364 
L 103.734223 -45.536364 
L 103.048423 -45.536364 
L 102.362623 -45.536364 
L 101.676823 -45.536364 
L 100.991023 -45.536364 
L 100.305223 -45.536364 
L 99.619423 -45.536364 
L 98.933623 -45.536364 
L 98.247823 -45.536364 
L 97.562023 -45.536364 
L 96.876223 -45.536364 
L 96.190423 -45.536364 
L 95.504622 -45.536364 
L 94.818822 -45.536364 
L 94.133022 -45.536364 
L 93.447222 -45.536364 
L 92.761422 -45.536364 
L 92.075622 -45.536364 
L 91.389822 -45.536364 
L 90.704022 -45.536364 
L 90.018222 -45.536364 
L 89.332422 -45.536364 
L 88.646622 -45.536364 
L 87.960822 -45.536364 
L 87.275021 -45.536364 
L 86.589221 -45.536364 
L 85.903421 -45.536364 
L 85.217621 -45.536364 
L 84.531821 -45.536364 
L 83.846021 -45.536364 
L 83.160221 -45.536364 
L 82.474421 -45.536364 
L 81.788621 -45.536364 
L 81.102821 -45.536364 
L 80.417021 -45.536364 
L 79.731221 -45.536364 
L 79.04542 -45.536364 
L 78.35962 -45.536364 
L 77.67382 -45.536364 
L 76.98802 -45.536364 
L 76.30222 -45.536364 
L 75.61642 -45.536364 
L 74.93062 -45.536364 
L 74.24482 -45.536364 
L 73.55902 -45.536364 
L 72.87322 -45.536364 
L 72.18742 -45.536364 
L 71.50162 -45.536364 
L 70.815819 -45.536364 
L 70.130019 -45.536364 
L 69.444219 -45.536364 
L 68.758419 -45.536364 
L 68.072619 -45.536364 
L 67.386819 -45.536364 
L 66.701019 -45.536364 
L 66.015219 -45.536364 
L 65.329419 -45.536364 
L 64.643619 -45.536364 
L 63.957819 -45.536364 
L 63.272019 -45.536364 
L 62.586218 -45.536364 
L 61.900418 -45.536364 
L 61.214618 -45.536364 
L 60.528818 -45.536364 
L 59.843018 -45.536364 
L 59.157218 -45.536364 
L 58.471418 -45.536364 
L 57.785618 -45.536364 
z
" style="stroke: #4c78a8; stroke-opacity: 0.15"/>
    </defs>
    <g clip-path="url(#p03a9e6e6f8)">
     <use xlink:href="#m0f2e992d08" x="0" y="223.158281" style="fill: #4c78a8; fill-opacity: 0.15; stroke: #4c78a8; stroke-opacity: 0.15"/>
    </g>
   </g>
   <g id="matplotlib.axis_1">
    <g id="xtick_1">
     <g id="line2d_1">
      <path d="M 57.713594 184.958281 
L 57.713594 23.558281 
" clip-path="url(#p03a9e6e6f8)" style="fill: none; stroke: #b0b0b0; stroke-opacity: 0.25; stroke-width: 0.6; stroke-linecap: square"/>
     </g>
     <g id="line2d_2">
      <defs>
       <path id="mb8a9022932" d="M 0 0 
L 0 3.5 
" style="stroke: #000000; stroke-width: 0.8"/>
      </defs>
      <g>
       <use xlink:href="#mb8a9022932" x="57.713594" y="184.958281" style="stroke: #000000; stroke-width: 0.8"/>
      </g>
     </g>
     <g id="text_1">
      <!-- 0 -->
      <g transform="translate(54.532344 199.555938) scale(0.1 -0.1)">
       <defs>
        <path id="DejaVuSans-13" d="M 2034 4250 
Q 1547 4250 1301 3770 
Q 1056 3291 1056 2328 
Q 1056 1369 1301 889 
Q 1547 409 2034 409 
Q 2525 409 2770 889 
Q 3016 1369 3016 2328 
Q 3016 3291 2770 3770 
Q 2525 4250 2034 4250 
z
M 2034 4750 
Q 2819 4750 3233 4129 
Q 3647 3509 3647 2328 
Q 3647 1150 3233 529 
Q 2819 -91 2034 -91 
Q 1250 -91 836 529 
Q 422 1150 422 2328 
Q 422 3509 836 4129 
Q 1250 4750 2034 4750 
z
" transform="scale(0.015625)"/>
       </defs>
       <use xlink:href="#DejaVuSans-13"/>
      </g>
     </g>
    </g>
    <g id="xtick_2">
     <g id="line2d_3">
      <path d="M 93.725668 184.958281 
L 93.725668 23.558281 
" clip-path="url(#p03a9e6e6f8)" style="fill: none; stroke: #b0b0b0; stroke-opacity: 0.25; stroke-width: 0.6; stroke-linecap: square"/>
     </g>
     <g id="line2d_4">
      <g>
       <use xlink:href="#mb8a9022932" x="93.725668" y="184.958281" style="stroke: #000000; stroke-width: 0.8"/>
      </g>
     </g>
     <g id="text_2">
      <!-- 1 -->
      <g transform="translate(90.544418 199.555938) scale(0.1 -0.1)">
       <defs>
        <path id="DejaVuSans-14" d="M 794 531 
L 1825 531 
L 1825 4091 
L 703 3866 
L 703 4441 
L 1819 4666 
L 2450 4666 
L 2450 531 
L 3481 531 
L 3481 0 
L 794 0 
L 794 531 
z
" transform="scale(0.015625)"/>
       </defs>
       <use xlink:href="#DejaVuSans-14"/>
      </g>
     </g>
    </g>
    <g id="xtick_3">
     <g id="line2d_5">
      <path d="M 129.737743 184.958281 
L 129.737743 23.558281 
" clip-path="url(#p03a9e6e6f8)" style="fill: none; stroke: #b0b0b0; stroke-opacity: 0.25; stroke-width: 0.6; stroke-linecap: square"/>
     </g>
     <g id="line2d_6">
      <g>
       <use xlink:href="#mb8a9022932" x="129.737743" y="184.958281" style="stroke: #000000; stroke-width: 0.8"/>
      </g>
     </g>
     <g id="text_3">
      <!-- 2 -->
      <g transform="translate(126.556493 199.555938) scale(0.1 -0.1)">
       <defs>
        <path id="DejaVuSans-15" d="M 1228 531 
L 3431 531 
L 3431 0 
L 469 0 
L 469 531 
Q 828 903 1448 1529 
Q 2069 2156 2228 2338 
Q 2531 2678 2651 2914 
Q 2772 3150 2772 3378 
Q 2772 3750 2511 3984 
Q 2250 4219 1831 4219 
Q 1534 4219 1204 4116 
Q 875 4013 500 3803 
L 500 4441 
Q 881 4594 1212 4672 
Q 1544 4750 1819 4750 
Q 2544 4750 2975 4387 
Q 3406 4025 3406 3419 
Q 3406 3131 3298 2873 
Q 3191 2616 2906 2266 
Q 2828 2175 2409 1742 
Q 1991 1309 1228 531 
z
" transform="scale(0.015625)"/>
       </defs>
       <use xlink:href="#DejaVuSans-15"/>
      </g>
     </g>
    </g>
    <g id="xtick_4">
     <g id="line2d_7">
      <path d="M 165.749818 184.958281 
L 165.749818 23.558281 
" clip-path="url(#p03a9e6e6f8)" style="fill: none; stroke: #b0b0b0; stroke-opacity: 0.25; stroke-width: 0.6; stroke-linecap: square"/>
     </g>
     <g id="line2d_8">
      <g>
       <use xlink:href="#mb8a9022932" x="165.749818" y="184.958281" style="stroke: #000000; stroke-width: 0.8"/>
      </g>
     </g>
     <g id="text_4">
      <!-- 3 -->
      <g transform="translate(162.568568 199.555938) scale(0.1 -0.1)">
       <defs>
        <path id="DejaVuSans-16" d="M 2597 2516 
Q 3050 2419 3304 2112 
Q 3559 1806 3559 1356 
Q 3559 666 3084 287 
Q 2609 -91 1734 -91 
Q 1441 -91 1130 -33 
Q 819 25 488 141 
L 488 750 
Q 750 597 1062 519 
Q 1375 441 1716 441 
Q 2309 441 2620 675 
Q 2931 909 2931 1356 
Q 2931 1769 2642 2001 
Q 2353 2234 1838 2234 
L 1294 2234 
L 1294 2753 
L 1863 2753 
Q 2328 2753 2575 2939 
Q 2822 3125 2822 3475 
Q 2822 3834 2567 4026 
Q 2313 4219 1838 4219 
Q 1578 4219 1281 4162 
Q 984 4106 628 3988 
L 628 4550 
Q 988 4650 1302 4700 
Q 1616 4750 1894 4750 
Q 2613 4750 3031 4423 
Q 3450 4097 3450 3541 
Q 3450 3153 3228 2886 
Q 3006 2619 2597 2516 
z
" transform="scale(0.015625)"/>
       </defs>
       <use xlink:href="#DejaVuSans-16"/>
      </g>
     </g>
    </g>
    <g id="xtick_5">
     <g id="line2d_9">
      <path d="M 201.761893 184.958281 
L 201.761893 23.558281 
" clip-path="url(#p03a9e6e6f8)" style="fill: none; stroke: #b0b0b0; stroke-opacity: 0.25; stroke-width: 0.6; stroke-linecap: square"/>
     </g>
     <g id="line2d_10">
      <g>
       <use xlink:href="#mb8a9022932" x="201.761893" y="184.958281" style="stroke: #000000; stroke-width: 0.8"/>
      </g>
     </g>
     <g id="text_5">
      <!-- 4 -->
      <g transform="translate(198.580643 199.555938) scale(0.1 -0.1)">
       <defs>
        <path id="DejaVuSans-17" d="M 2419 4116 
L 825 1625 
L 2419 1625 
L 2419 4116 
z
M 2253 4666 
L 3047 4666 
L 3047 1625 
L 3713 1625 
L 3713 1100 
L 3047 1100 
L 3047 0 
L 2419 0 
L 2419 1100 
L 313 1100 
L 313 1709 
L 2253 4666 
z
" transform="scale(0.015625)"/>
       </defs>
       <use xlink:href="#DejaVuSans-17"/>
      </g>
     </g>
    </g>
    <g id="xtick_6">
     <g id="line2d_11">
      <path d="M 237.773968 184.958281 
L 237.773968 23.558281 
" clip-path="url(#p03a9e6e6f8)" style="fill: none; stroke: #b0b0b0; stroke-opacity: 0.25; stroke-width: 0.6; stroke-linecap: square"/>
     </g>
     <g id="line2d_12">
      <g>
       <use xlink:href="#mb8a9022932" x="237.773968" y="184.958281" style="stroke: #000000; stroke-width: 0.8"/>
      </g>
     </g>
     <g id="text_6">
      <!-- 5 -->
      <g transform="translate(234.592718 199.555938) scale(0.1 -0.1)">
       <defs>
        <path id="DejaVuSans-18" d="M 691 4666 
L 3169 4666 
L 3169 4134 
L 1269 4134 
L 1269 2991 
Q 1406 3038 1543 3061 
Q 1681 3084 1819 3084 
Q 2600 3084 3056 2656 
Q 3513 2228 3513 1497 
Q 3513 744 3044 326 
Q 2575 -91 1722 -91 
Q 1428 -91 1123 -41 
Q 819 9 494 109 
L 494 744 
Q 775 591 1075 516 
Q 1375 441 1709 441 
Q 2250 441 2565 725 
Q 2881 1009 2881 1497 
Q 2881 1984 2565 2268 
Q 2250 2553 1709 2553 
Q 1456 2553 1204 2497 
Q 953 2441 691 2322 
L 691 4666 
z
" transform="scale(0.015625)"/>
       </defs>
       <use xlink:href="#DejaVuSans-18"/>
      </g>
     </g>
    </g>
    <g id="xtick_7">
     <g id="line2d_13">
      <path d="M 273.786042 184.958281 
L 273.786042 23.558281 
" clip-path="url(#p03a9e6e6f8)" style="fill: none; stroke: #b0b0b0; stroke-opacity: 0.25; stroke-width: 0.6; stroke-linecap: square"/>
     </g>
     <g id="line2d_14">
      <g>
       <use xlink:href="#mb8a9022932" x="273.786042" y="184.958281" style="stroke: #000000; stroke-width: 0.8"/>
      </g>
     </g>
     <g id="text_7">
      <!-- 6 -->
      <g transform="translate(270.604792 199.555938) scale(0.1 -0.1)">
       <defs>
        <path id="DejaVuSans-19" d="M 2113 2584 
Q 1688 2584 1439 2293 
Q 1191 2003 1191 1497 
Q 1191 994 1439 701 
Q 1688 409 2113 409 
Q 2538 409 2786 701 
Q 3034 994 3034 1497 
Q 3034 2003 2786 2293 
Q 2538 2584 2113 2584 
z
M 3366 4563 
L 3366 3988 
Q 3128 4100 2886 4159 
Q 2644 4219 2406 4219 
Q 1781 4219 1451 3797 
Q 1122 3375 1075 2522 
Q 1259 2794 1537 2939 
Q 1816 3084 2150 3084 
Q 2853 3084 3261 2657 
Q 3669 2231 3669 1497 
Q 3669 778 3244 343 
Q 2819 -91 2113 -91 
Q 1303 -91 875 529 
Q 447 1150 447 2328 
Q 447 3434 972 4092 
Q 1497 4750 2381 4750 
Q 2619 4750 2861 4703 
Q 3103 4656 3366 4563 
z
" transform="scale(0.015625)"/>
       </defs>
       <use xlink:href="#DejaVuSans-19"/>
      </g>
     </g>
    </g>
    <g id="xtick_8">
     <g id="line2d_15">
      <path d="M 309.798117 184.958281 
L 309.798117 23.558281 
" clip-path="url(#p03a9e6e6f8)" style="fill: none; stroke: #b0b0b0; stroke-opacity: 0.25; stroke-width: 0.6; stroke-linecap: square"/>
     </g>
     <g id="line2d_16">
      <g>
       <use xlink:href="#mb8a9022932" x="309.798117" y="184.958281" style="stroke: #000000; stroke-width: 0.8"/>
      </g>
     </g>
     <g id="text_8">
      <!-- 7 -->
      <g transform="translate(306.616867 199.555938) scale(0.1 -0.1)">
       <defs>
        <path id="DejaVuSans-1a" d="M 525 4666 
L 3525 4666 
L 3525 4397 
L 1831 0 
L 1172 0 
L 2766 4134 
L 525 4134 
L 525 4666 
z
" transform="scale(0.015625)"/>
       </defs>
       <use xlink:href="#DejaVuSans-1a"/>
      </g>
     </g>
    </g>
    <g id="text_9">
     <!-- x -->
     <g transform="translate(191.643359 213.555938) scale(0.1 -0.1)">
      <defs>
       <path id="DejaVuSans-5b" d="M 3513 3500 
L 2247 1797 
L 3578 0 
L 2900 0 
L 1881 1375 
L 863 0 
L 184 0 
L 1544 1831 
L 300 3500 
L 978 3500 
L 1906 2253 
L 2834 3500 
L 3513 3500 
z
" transform="scale(0.015625)"/>
      </defs>
      <use xlink:href="#DejaVuSans-5b"/>
     </g>
    </g>
   </g>
   <g id="matplotlib.axis_2">
    <g id="ytick_1">
     <g id="line2d_17">
      <path d="M 44.103906 177.621918 
L 345.101562 177.621918 
" clip-path="url(#p03a9e6e6f8)" style="fill: none; stroke: #b0b0b0; stroke-opacity: 0.25; stroke-width: 0.6; stroke-linecap: square"/>
     </g>
     <g id="line2d_18">
      <defs>
       <path id="m25f6dca99e" d="M 0 0 
L -3.5 0 
" style="stroke: #000000; stroke-width: 0.8"/>
      </defs>
      <g>
       <use xlink:href="#m25f6dca99e" x="44.103906" y="177.621918" style="stroke: #000000; stroke-width: 0.8"/>
      </g>
     </g>
     <g id="text_10">
      <!-- 0.0 -->
      <g transform="translate(21.200781 181.420746) scale(0.1 -0.1)">
       <defs>
        <path id="DejaVuSans-11" d="M 684 794 
L 1344 794 
L 1344 0 
L 684 0 
L 684 794 
z
" transform="scale(0.015625)"/>
       </defs>
       <use xlink:href="#DejaVuSans-13"/>
       <use xlink:href="#DejaVuSans-11" transform="translate(63.625 0)"/>
       <use xlink:href="#DejaVuSans-13" transform="translate(95.40625 0)"/>
      </g>
     </g>
    </g>
    <g id="ytick_2">
     <g id="line2d_19">
      <path d="M 44.103906 148.276434 
L 345.101562 148.276434 
" clip-path="url(#p03a9e6e6f8)" style="fill: none; stroke: #b0b0b0; stroke-opacity: 0.25; stroke-width: 0.6; stroke-linecap: square"/>
     </g>
     <g id="line2d_20">
      <g>
       <use xlink:href="#m25f6dca99e" x="44.103906" y="148.276434" style="stroke: #000000; stroke-width: 0.8"/>
      </g>
     </g>
     <g id="text_11">
      <!-- 0.1 -->
      <g transform="translate(21.200781 152.075262) scale(0.1 -0.1)">
       <use xlink:href="#DejaVuSans-13"/>
       <use xlink:href="#DejaVuSans-11" transform="translate(63.625 0)"/>
       <use xlink:href="#DejaVuSans-14" transform="translate(95.40625 0)"/>
      </g>
     </g>
    </g>
    <g id="ytick_3">
     <g id="line2d_21">
      <path d="M 44.103906 118.93095 
L 345.101562 118.93095 
" clip-path="url(#p03a9e6e6f8)" style="fill: none; stroke: #b0b0b0; stroke-opacity: 0.25; stroke-width: 0.6; stroke-linecap: square"/>
     </g>
     <g id="line2d_22">
      <g>
       <use xlink:href="#m25f6dca99e" x="44.103906" y="118.93095" style="stroke: #000000; stroke-width: 0.8"/>
      </g>
     </g>
     <g id="text_12">
      <!-- 0.2 -->
      <g transform="translate(21.200781 122.729778) scale(0.1 -0.1)">
       <use xlink:href="#DejaVuSans-13"/>
       <use xlink:href="#DejaVuSans-11" transform="translate(63.625 0)"/>
       <use xlink:href="#DejaVuSans-15" transform="translate(95.40625 0)"/>
      </g>
     </g>
    </g>
    <g id="ytick_4">
     <g id="line2d_23">
      <path d="M 44.103906 89.585466 
L 345.101562 89.585466 
" clip-path="url(#p03a9e6e6f8)" style="fill: none; stroke: #b0b0b0; stroke-opacity: 0.25; stroke-width: 0.6; stroke-linecap: square"/>
     </g>
     <g id="line2d_24">
      <g>
       <use xlink:href="#m25f6dca99e" x="44.103906" y="89.585466" style="stroke: #000000; stroke-width: 0.8"/>
      </g>
     </g>
     <g id="text_13">
      <!-- 0.3 -->
      <g transform="translate(21.200781 93.384294) scale(0.1 -0.1)">
       <use xlink:href="#DejaVuSans-13"/>
       <use xlink:href="#DejaVuSans-11" transform="translate(63.625 0)"/>
       <use xlink:href="#DejaVuSans-16" transform="translate(95.40625 0)"/>
      </g>
     </g>
    </g>
    <g id="ytick_5">
     <g id="line2d_25">
      <path d="M 44.103906 60.239982 
L 345.101562 60.239982 
" clip-path="url(#p03a9e6e6f8)" style="fill: none; stroke: #b0b0b0; stroke-opacity: 0.25; stroke-width: 0.6; stroke-linecap: square"/>
     </g>
     <g id="line2d_26">
      <g>
       <use xlink:href="#m25f6dca99e" x="44.103906" y="60.239982" style="stroke: #000000; stroke-width: 0.8"/>
      </g>
     </g>
     <g id="text_14">
      <!-- 0.4 -->
      <g transform="translate(21.200781 64.03881) scale(0.1 -0.1)">
       <use xlink:href="#DejaVuSans-13"/>
       <use xlink:href="#DejaVuSans-11" transform="translate(63.625 0)"/>
       <use xlink:href="#DejaVuSans-17" transform="translate(95.40625 0)"/>
      </g>
     </g>
    </g>
    <g id="ytick_6">
     <g id="line2d_27">
      <path d="M 44.103906 30.894498 
L 345.101562 30.894498 
" clip-path="url(#p03a9e6e6f8)" style="fill: none; stroke: #b0b0b0; stroke-opacity: 0.25; stroke-width: 0.6; stroke-linecap: square"/>
     </g>
     <g id="line2d_28">
      <g>
       <use xlink:href="#m25f6dca99e" x="44.103906" y="30.894498" style="stroke: #000000; stroke-width: 0.8"/>
      </g>
     </g>
     <g id="text_15">
      <!-- 0.5 -->
      <g transform="translate(21.200781 34.693326) scale(0.1 -0.1)">
       <use xlink:href="#DejaVuSans-13"/>
       <use xlink:href="#DejaVuSans-11" transform="translate(63.625 0)"/>
       <use xlink:href="#DejaVuSans-18" transform="translate(95.40625 0)"/>
      </g>
     </g>
    </g>
    <g id="text_16">
     <!-- f(x) -->
     <g transform="translate(14.798438 112.879375) rotate(-90) scale(0.1 -0.1)">
      <defs>
       <path id="DejaVuSans-49" d="M 2375 4863 
L 2375 4384 
L 1825 4384 
Q 1516 4384 1395 4259 
Q 1275 4134 1275 3809 
L 1275 3500 
L 2222 3500 
L 2222 3053 
L 1275 3053 
L 1275 0 
L 697 0 
L 697 3053 
L 147 3053 
L 147 3500 
L 697 3500 
L 697 3744 
Q 697 4328 969 4595 
Q 1241 4863 1831 4863 
L 2375 4863 
z
" transform="scale(0.015625)"/>
       <path id="DejaVuSans-b" d="M 1984 4856 
Q 1566 4138 1362 3434 
Q 1159 2731 1159 2009 
Q 1159 1288 1364 580 
Q 1569 -128 1984 -844 
L 1484 -844 
Q 1016 -109 783 600 
Q 550 1309 550 2009 
Q 550 2706 781 3412 
Q 1013 4119 1484 4856 
L 1984 4856 
z
" transform="scale(0.015625)"/>
       <path id="DejaVuSans-c" d="M 513 4856 
L 1013 4856 
Q 1481 4119 1714 3412 
Q 1947 2706 1947 2009 
Q 1947 1309 1714 600 
Q 1481 -109 1013 -844 
L 513 -844 
Q 928 -128 1133 580 
Q 1338 1288 1338 2009 
Q 1338 2731 1133 3434 
Q 928 4138 513 4856 
z
" transform="scale(0.015625)"/>
      </defs>
      <use xlink:href="#DejaVuSans-49"/>
      <use xlink:href="#DejaVuSans-b" transform="translate(35.203125 0)"/>
      <use xlink:href="#DejaVuSans-5b" transform="translate(74.21875 0)"/>
      <use xlink:href="#DejaVuSans-c" transform="translate(133.40625 0)"/>
     </g>
    </g>
   </g>
   <g id="line2d_29">
    <path d="M 57.785618 30.894645 
L 59.843018 31.02268 
L 61.900418 31.389204 
L 63.957819 31.991834 
L 66.015219 32.826674 
L 68.072619 33.888363 
L 70.130019 35.170154 
L 72.18742 36.663999 
L 74.93062 38.969524 
L 77.67382 41.610665 
L 80.417021 44.559764 
L 83.846021 48.633476 
L 87.275021 53.079666 
L 91.389822 58.816571 
L 96.190423 65.9229 
L 103.048423 76.525459 
L 115.392825 95.683796 
L 120.879225 103.804395 
L 125.679826 110.570404 
L 130.480427 116.963161 
L 135.281027 122.947739 
L 139.395828 127.737529 
L 143.510628 132.208658 
L 147.625429 136.362535 
L 151.740229 140.205252 
L 155.85503 143.746551 
L 159.96983 146.998905 
L 164.084631 149.976719 
L 168.199431 152.695668 
L 172.314232 155.172134 
L 177.114832 157.777075 
L 181.915433 160.100846 
L 186.716033 162.168935 
L 191.516634 164.005682 
L 197.003035 165.850884 
L 202.489435 167.45552 
L 208.661636 169.009046 
L 214.833837 170.33148 
L 221.691838 171.569275 
L 229.235639 172.693795 
L 237.46524 173.686969 
L 246.380641 174.540796 
L 256.667642 175.300301 
L 268.326243 175.938678 
L 282.728045 176.491371 
L 299.873047 176.918586 
L 322.50445 177.246323 
L 331.419851 177.32861 
L 331.419851 177.32861 
" clip-path="url(#p03a9e6e6f8)" style="fill: none; stroke: #4c78a8; stroke-width: 2; stroke-linecap: square"/>
   </g>
   <g id="patch_3">
    <path d="M 44.103906 184.958281 
L 44.103906 23.558281 
" style="fill: none; stroke: #000000; stroke-width: 0.8; stroke-linejoin: miter; stroke-linecap: square"/>
   </g>
   <g id="patch_4">
    <path d="M 44.103906 184.958281 
L 345.101562 184.958281 
" style="fill: none; stroke: #000000; stroke-width: 0.8; stroke-linejoin: miter; stroke-linecap: square"/>
   </g>
   <g id="text_17">
    <!-- Half Logistic -->
    <g transform="translate(160.957344 15.558281) scale(0.11 -0.11)">
     <defs>
      <path id="DejaVuSans-2b" d="M 628 4666 
L 1259 4666 
L 1259 2753 
L 3553 2753 
L 3553 4666 
L 4184 4666 
L 4184 0 
L 3553 0 
L 3553 2222 
L 1259 2222 
L 1259 0 
L 628 0 
L 628 4666 
z
" transform="scale(0.015625)"/>
      <path id="DejaVuSans-44" d="M 2194 1759 
Q 1497 1759 1228 1600 
Q 959 1441 959 1056 
Q 959 750 1161 570 
Q 1363 391 1709 391 
Q 2188 391 2477 730 
Q 2766 1069 2766 1631 
L 2766 1759 
L 2194 1759 
z
M 3341 1997 
L 3341 0 
L 2766 0 
L 2766 531 
Q 2569 213 2275 61 
Q 1981 -91 1556 -91 
Q 1019 -91 701 211 
Q 384 513 384 1019 
Q 384 1609 779 1909 
Q 1175 2209 1959 2209 
L 2766 2209 
L 2766 2266 
Q 2766 2663 2505 2880 
Q 2244 3097 1772 3097 
Q 1472 3097 1187 3025 
Q 903 2953 641 2809 
L 641 3341 
Q 956 3463 1253 3523 
Q 1550 3584 1831 3584 
Q 2591 3584 2966 3190 
Q 3341 2797 3341 1997 
z
" transform="scale(0.015625)"/>
      <path id="DejaVuSans-4f" d="M 603 4863 
L 1178 4863 
L 1178 0 
L 603 0 
L 603 4863 
z
" transform="scale(0.015625)"/>
      <path id="DejaVuSans-3" transform="scale(0.015625)"/>
      <path id="DejaVuSans-2f" d="M 628 4666 
L 1259 4666 
L 1259 531 
L 3531 531 
L 3531 0 
L 628 0 
L 628 4666 
z
" transform="scale(0.015625)"/>
      <path id="DejaVuSans-52" d="M 1959 3097 
Q 1497 3097 1228 2736 
Q 959 2375 959 1747 
Q 959 1119 1226 758 
Q 1494 397 1959 397 
Q 2419 397 2687 759 
Q 2956 1122 2956 1747 
Q 2956 2369 2687 2733 
Q 2419 3097 1959 3097 
z
M 1959 3584 
Q 2709 3584 3137 3096 
Q 3566 2609 3566 1747 
Q 3566 888 3137 398 
Q 2709 -91 1959 -91 
Q 1206 -91 779 398 
Q 353 888 353 1747 
Q 353 2609 779 3096 
Q 1206 3584 1959 3584 
z
" transform="scale(0.015625)"/>
      <path id="DejaVuSans-4a" d="M 2906 1791 
Q 2906 2416 2648 2759 
Q 2391 3103 1925 3103 
Q 1463 3103 1205 2759 
Q 947 2416 947 1791 
Q 947 1169 1205 825 
Q 1463 481 1925 481 
Q 2391 481 2648 825 
Q 2906 1169 2906 1791 
z
M 3481 434 
Q 3481 -459 3084 -895 
Q 2688 -1331 1869 -1331 
Q 1566 -1331 1297 -1286 
Q 1028 -1241 775 -1147 
L 775 -588 
Q 1028 -725 1275 -790 
Q 1522 -856 1778 -856 
Q 2344 -856 2625 -561 
Q 2906 -266 2906 331 
L 2906 616 
Q 2728 306 2450 153 
Q 2172 0 1784 0 
Q 1141 0 747 490 
Q 353 981 353 1791 
Q 353 2603 747 3093 
Q 1141 3584 1784 3584 
Q 2172 3584 2450 3431 
Q 2728 3278 2906 2969 
L 2906 3500 
L 3481 3500 
L 3481 434 
z
" transform="scale(0.015625)"/>
      <path id="DejaVuSans-4c" d="M 603 3500 
L 1178 3500 
L 1178 0 
L 603 0 
L 603 3500 
z
M 603 4863 
L 1178 4863 
L 1178 4134 
L 603 4134 
L 603 4863 
z
" transform="scale(0.015625)"/>
      <path id="DejaVuSans-56" d="M 2834 3397 
L 2834 2853 
Q 2591 2978 2328 3040 
Q 2066 3103 1784 3103 
Q 1356 3103 1142 2972 
Q 928 2841 928 2578 
Q 928 2378 1081 2264 
Q 1234 2150 1697 2047 
L 1894 2003 
Q 2506 1872 2764 1633 
Q 3022 1394 3022 966 
Q 3022 478 2636 193 
Q 2250 -91 1575 -91 
Q 1294 -91 989 -36 
Q 684 19 347 128 
L 347 722 
Q 666 556 975 473 
Q 1284 391 1588 391 
Q 1994 391 2212 530 
Q 2431 669 2431 922 
Q 2431 1156 2273 1281 
Q 2116 1406 1581 1522 
L 1381 1569 
Q 847 1681 609 1914 
Q 372 2147 372 2553 
Q 372 3047 722 3315 
Q 1072 3584 1716 3584 
Q 2034 3584 2315 3537 
Q 2597 3491 2834 3397 
z
" transform="scale(0.015625)"/>
      <path id="DejaVuSans-57" d="M 1172 4494 
L 1172 3500 
L 2356 3500 
L 2356 3053 
L 1172 3053 
L 1172 1153 
Q 1172 725 1289 603 
Q 1406 481 1766 481 
L 2356 481 
L 2356 0 
L 1766 0 
Q 1100 0 847 248 
Q 594 497 594 1153 
L 594 3053 
L 172 3053 
L 172 3500 
L 594 3500 
L 594 4494 
L 1172 4494 
z
" transform="scale(0.015625)"/>
      <path id="DejaVuSans-46" d="M 3122 3366 
L 3122 2828 
Q 2878 2963 2633 3030 
Q 2388 3097 2138 3097 
Q 1578 3097 1268 2742 
Q 959 2388 959 1747 
Q 959 1106 1268 751 
Q 1578 397 2138 397 
Q 2388 397 2633 464 
Q 2878 531 3122 666 
L 3122 134 
Q 2881 22 2623 -34 
Q 2366 -91 2075 -91 
Q 1284 -91 818 406 
Q 353 903 353 1747 
Q 353 2603 823 3093 
Q 1294 3584 2113 3584 
Q 2378 3584 2631 3529 
Q 2884 3475 3122 3366 
z
" transform="scale(0.015625)"/>
     </defs>
     <use xlink:href="#DejaVuSans-2b"/>
     <use xlink:href="#DejaVuSans-44" transform="translate(75.203125 0)"/>
     <use xlink:href="#DejaVuSans-4f" transform="translate(136.484375 0)"/>
     <use xlink:href="#DejaVuSans-49" transform="translate(164.265625 0)"/>
     <use xlink:href="#DejaVuSans-3" transform="translate(199.46875 0)"/>
     <use xlink:href="#DejaVuSans-2f" transform="translate(231.25 0)"/>
     <use xlink:href="#DejaVuSans-52" transform="translate(285.21875 0)"/>
     <use xlink:href="#DejaVuSans-4a" transform="translate(346.40625 0)"/>
     <use xlink:href="#DejaVuSans-4c" transform="translate(409.890625 0)"/>
     <use xlink:href="#DejaVuSans-56" transform="translate(437.671875 0)"/>
     <use xlink:href="#DejaVuSans-57" transform="translate(489.765625 0)"/>
     <use xlink:href="#DejaVuSans-4c" transform="translate(528.96875 0)"/>
     <use xlink:href="#DejaVuSans-46" transform="translate(556.75 0)"/>
    </g>
   </g>
  </g>
 </g>
 <defs>
  <clipPath id="p03a9e6e6f8">
   <rect x="44.103906" y="23.558281" width="300.997656" height="161.4"/>
  </clipPath>
 </defs>
</svg>
