<?xml version="1.0" encoding="utf-8" standalone="no"?>
<!DOCTYPE svg PUBLIC "-//W3C//DTD SVG 1.1//EN"
  "http://www.w3.org/Graphics/SVG/1.1/DTD/svg11.dtd">
<svg xmlns:xlink="http://www.w3.org/1999/xlink" width="352.301562pt" height="223.2pt" viewBox="0 0 352.301562 223.2" xmlns="http://www.w3.org/2000/svg" version="1.1">
 <metadata>
  <rdf:RDF xmlns:dc="http://purl.org/dc/elements/1.1/" xmlns:cc="http://creativecommons.org/ns#" xmlns:rdf="http://www.w3.org/1999/02/22-rdf-syntax-ns#">
   <cc:Work>
    <dc:type rdf:resource="http://purl.org/dc/dcmitype/StillImage"/>
    <dc:date>2026-07-05T02:24:31.581403</dc:date>
    <dc:format>image/svg+xml</dc:format>
    <dc:creator>
     <cc:Agent>
      <dc:title>Matplotlib v3.11.0, https://matplotlib.org/</dc:title>
     </cc:Agent>
    </dc:creator>
   </cc:Work>
  </rdf:RDF>
 </metadata>
 <defs>
  <style type="text/css">*{stroke-linejoin: round; stroke-linecap: butt}</style>
 </defs>
 <g id="figure_1">
  <g id="patch_1">
   <path d="M 0 223.2 
L 352.301562 223.2 
L 352.301562 0 
L 0 0 
z
" style="fill: #ffffff"/>
  </g>
  <g id="axes_1">
   <g id="patch_2">
    <path d="M 44.103906 185 
L 345.101562 185 
L 345.101562 23.557422 
L 44.103906 23.557422 
z
" style="fill: #ffffff"/>
   </g>
   <g id="FillBetweenPolyCollection_1">
    <defs>
     <path id="m3cbdd97e24" d="M 57.785618 -45.538299 
L 57.785618 -52.156635 
L 58.471418 -61.516491 
L 59.157218 -75.413735 
L 59.843018 -92.561386 
L 60.528818 -111.14576 
L 61.214618 -129.449026 
L 61.900418 -146.172087 
L 62.586218 -160.50891 
L 63.272019 -172.084474 
L 63.957819 -180.843973 
L 64.643619 -186.942135 
L 65.329419 -190.652966 
L 66.015219 -192.304279 
L 66.701019 -192.234275 
L 67.386819 -190.765177 
L 68.072619 -188.18898 
L 68.758419 -184.761264 
L 69.444219 -180.700043 
L 70.130019 -176.187544 
L 70.815819 -171.373521 
L 71.50162 -166.379186 
L 72.18742 -161.301256 
L 72.87322 -156.21578 
L 73.55902 -151.181607 
L 74.24482 -146.243439 
L 74.93062 -141.434448 
L 75.61642 -136.778495 
L 76.30222 -132.291986 
L 76.98802 -127.985406 
L 77.67382 -123.864584 
L 78.35962 -119.93172 
L 79.04542 -116.186221 
L 79.731221 -112.625379 
L 80.417021 -109.24491 
L 81.102821 -106.039386 
L 81.788621 -103.002581 
L 82.474421 -100.127741 
L 83.160221 -97.407798 
L 83.846021 -94.835531 
L 84.531821 -92.403699 
L 85.217621 -90.105134 
L 85.903421 -87.932813 
L 86.589221 -85.879914 
L 87.275021 -83.93985 
L 87.960822 -82.106294 
L 88.646622 -80.373198 
L 89.332422 -78.7348 
L 90.018222 -77.185623 
L 90.704022 -75.720478 
L 91.389822 -74.334458 
L 92.075622 -73.022926 
L 92.761422 -71.781515 
L 93.447222 -70.606106 
L 94.133022 -69.492827 
L 94.818822 -68.438037 
L 95.504622 -67.438312 
L 96.190423 -66.49044 
L 96.876223 -65.591403 
L 97.562023 -64.738368 
L 98.247823 -63.928679 
L 98.933623 -63.159842 
L 99.619423 -62.429516 
L 100.305223 -61.735509 
L 100.991023 -61.075761 
L 101.676823 -60.448339 
L 102.362623 -59.85143 
L 103.048423 -59.283334 
L 103.734223 -58.742453 
L 104.420024 -58.227286 
L 105.105824 -57.736427 
L 105.791624 -57.268551 
L 106.477424 -56.822415 
L 107.163224 -56.396853 
L 107.849024 -55.990764 
L 108.534824 -55.603117 
L 109.220624 -55.232939 
L 109.906424 -54.879317 
L 110.592224 -54.54139 
L 111.278024 -54.218347 
L 111.963824 -53.909425 
L 112.649625 -53.613905 
L 113.335425 -53.331108 
L 114.021225 -53.060396 
L 114.707025 -52.801165 
L 115.392825 -52.552847 
L 116.078625 -52.314903 
L 116.764425 -52.086828 
L 117.450225 -51.868141 
L 118.136025 -51.658391 
L 118.821825 -51.457149 
L 119.507625 -51.264011 
L 120.193425 -51.078593 
L 120.879225 -50.900534 
L 121.565026 -50.729491 
L 122.250826 -50.565138 
L 122.936626 -50.407169 
L 123.622426 -50.255291 
L 124.308226 -50.10923 
L 124.994026 -49.968721 
L 125.679826 -49.833518 
L 126.365626 -49.703384 
L 127.051426 -49.578095 
L 127.737226 -49.45744 
L 128.423026 -49.341215 
L 129.108826 -49.229229 
L 129.794627 -49.1213 
L 130.480427 -49.017254 
L 131.166227 -48.916927 
L 131.852027 -48.820161 
L 132.537827 -48.726808 
L 133.223627 -48.636726 
L 133.909427 -48.549778 
L 134.595227 -48.465836 
L 135.281027 -48.384778 
L 135.966827 -48.306486 
L 136.652627 -48.230848 
L 137.338427 -48.157759 
L 138.024228 -48.087117 
L 138.710028 -48.018824 
L 139.395828 -47.952788 
L 140.081628 -47.888922 
L 140.767428 -47.82714 
L 141.453228 -47.767362 
L 142.139028 -47.709512 
L 142.824828 -47.653515 
L 143.510628 -47.599301 
L 144.196428 -47.546803 
L 144.882228 -47.495957 
L 145.568028 -47.446701 
L 146.253829 -47.398976 
L 146.939629 -47.352726 
L 147.625429 -47.307896 
L 148.311229 -47.264435 
L 148.997029 -47.222294 
L 149.682829 -47.181424 
L 150.368629 -47.141781 
L 151.054429 -47.10332 
L 151.740229 -47.066001 
L 152.426029 -47.029781 
L 153.111829 -46.994624 
L 153.797629 -46.960492 
L 154.48343 -46.92735 
L 155.16923 -46.895164 
L 155.85503 -46.8639 
L 156.54083 -46.833528 
L 157.22663 -46.804017 
L 157.91243 -46.775338 
L 158.59823 -46.747464 
L 159.28403 -46.720367 
L 159.96983 -46.694022 
L 160.65563 -46.668404 
L 161.34143 -46.643489 
L 162.02723 -46.619255 
L 162.713031 -46.595678 
L 163.398831 -46.572739 
L 164.084631 -46.550416 
L 164.770431 -46.52869 
L 165.456231 -46.507542 
L 166.142031 -46.486953 
L 166.827831 -46.466906 
L 167.513631 -46.447384 
L 168.199431 -46.428371 
L 168.885231 -46.40985 
L 169.571031 -46.391807 
L 170.256831 -46.374228 
L 170.942632 -46.357097 
L 171.628432 -46.340401 
L 172.314232 -46.324127 
L 173.000032 -46.308263 
L 173.685832 -46.292796 
L 174.371632 -46.277714 
L 175.057432 -46.263006 
L 175.743232 -46.248661 
L 176.429032 -46.234668 
L 177.114832 -46.221017 
L 177.800632 -46.207698 
L 178.486432 -46.194701 
L 179.172233 -46.182017 
L 179.858033 -46.169637 
L 180.543833 -46.157553 
L 181.229633 -46.145756 
L 181.915433 -46.134237 
L 182.601233 -46.12299 
L 183.287033 -46.112006 
L 183.972833 -46.101278 
L 184.658633 -46.090799 
L 185.344433 -46.080562 
L 186.030233 -46.070561 
L 186.716033 -46.060788 
L 187.401834 -46.051239 
L 188.087634 -46.041906 
L 188.773434 -46.032783 
L 189.459234 -46.023866 
L 190.145034 -46.015149 
L 190.830834 -46.006626 
L 191.516634 -45.998292 
L 192.202434 -45.990142 
L 192.888234 -45.982171 
L 193.574034 -45.974376 
L 194.259834 -45.96675 
L 194.945634 -45.959289 
L 195.631434 -45.951991 
L 196.317235 -45.944849 
L 197.003035 -45.93786 
L 197.688835 -45.931021 
L 198.374635 -45.924327 
L 199.060435 -45.917775 
L 199.746235 -45.911361 
L 200.432035 -45.905081 
L 201.117835 -45.898933 
L 201.803635 -45.892913 
L 202.489435 -45.887018 
L 203.175235 -45.881245 
L 203.861035 -45.87559 
L 204.546836 -45.870051 
L 205.232636 -45.864625 
L 205.918436 -45.85931 
L 206.604236 -45.854102 
L 207.290036 -45.848999 
L 207.975836 -45.843999 
L 208.661636 -45.839098 
L 209.347436 -45.834296 
L 210.033236 -45.829588 
L 210.719036 -45.824974 
L 211.404836 -45.82045 
L 212.090636 -45.816016 
L 212.776437 -45.811667 
L 213.462237 -45.807404 
L 214.148037 -45.803223 
L 214.833837 -45.799123 
L 215.519637 -45.795102 
L 216.205437 -45.791158 
L 216.891237 -45.787289 
L 217.577037 -45.783494 
L 218.262837 -45.77977 
L 218.948637 -45.776117 
L 219.634437 -45.772533 
L 220.320237 -45.769016 
L 221.006038 -45.765564 
L 221.691838 -45.762177 
L 222.377638 -45.758853 
L 223.063438 -45.75559 
L 223.749238 -45.752387 
L 224.435038 -45.749242 
L 225.120838 -45.746155 
L 225.806638 -45.743125 
L 226.492438 -45.740149 
L 227.178238 -45.737227 
L 227.864038 -45.734358 
L 228.549838 -45.73154 
L 229.235639 -45.728772 
L 229.921439 -45.726054 
L 230.607239 -45.723384 
L 231.293039 -45.720762 
L 231.978839 -45.718185 
L 232.664639 -45.715654 
L 233.350439 -45.713167 
L 234.036239 -45.710724 
L 234.722039 -45.708323 
L 235.407839 -45.705963 
L 236.093639 -45.703644 
L 236.779439 -45.701366 
L 237.46524 -45.699126 
L 238.15104 -45.696924 
L 238.83684 -45.69476 
L 239.52264 -45.692633 
L 240.20844 -45.690542 
L 240.89424 -45.688486 
L 241.58004 -45.686465 
L 242.26584 -45.684477 
L 242.95164 -45.682523 
L 243.63744 -45.680601 
L 244.32324 -45.678711 
L 245.00904 -45.676852 
L 245.694841 -45.675024 
L 246.380641 -45.673226 
L 247.066441 -45.671457 
L 247.752241 -45.669717 
L 248.438041 -45.668006 
L 249.123841 -45.666322 
L 249.809641 -45.664665 
L 250.495441 -45.663035 
L 251.181241 -45.661432 
L 251.867041 -45.659854 
L 252.552841 -45.658301 
L 253.238641 -45.656773 
L 253.924442 -45.655269 
L 254.610242 -45.653788 
L 255.296042 -45.652331 
L 255.981842 -45.650897 
L 256.667642 -45.649486 
L 257.353442 -45.648096 
L 258.039242 -45.646728 
L 258.725042 -45.645382 
L 259.410842 -45.644056 
L 260.096642 -45.64275 
L 260.782442 -45.641465 
L 261.468242 -45.640199 
L 262.154043 -45.638953 
L 262.839843 -45.637726 
L 263.525643 -45.636517 
L 264.211443 -45.635326 
L 264.897243 -45.634154 
L 265.583043 -45.632999 
L 266.268843 -45.631862 
L 266.954643 -45.630741 
L 267.640443 -45.629637 
L 268.326243 -45.62855 
L 269.012043 -45.627479 
L 269.697843 -45.626423 
L 270.383644 -45.625383 
L 271.069444 -45.624359 
L 271.755244 -45.623349 
L 272.441044 -45.622354 
L 273.126844 -45.621374 
L 273.812644 -45.620408 
L 274.498444 -45.619456 
L 275.184244 -45.618518 
L 275.870044 -45.617593 
L 276.555844 -45.616681 
L 277.241644 -45.615783 
L 277.927444 -45.614897 
L 278.613244 -45.614024 
L 279.299045 -45.613163 
L 279.984845 -45.612315 
L 280.670645 -45.611478 
L 281.356445 -45.610653 
L 282.042245 -45.60984 
L 282.728045 -45.609039 
L 283.413845 -45.608248 
L 284.099645 -45.607468 
L 284.785445 -45.6067 
L 285.471245 -45.605941 
L 286.157045 -45.605194 
L 286.842845 -45.604456 
L 287.528646 -45.603729 
L 288.214446 -45.603012 
L 288.900246 -45.602304 
L 289.586046 -45.601607 
L 290.271846 -45.600918 
L 290.957646 -45.600239 
L 291.643446 -45.599569 
L 292.329246 -45.598908 
L 293.015046 -45.598257 
L 293.700846 -45.597613 
L 294.386646 -45.596979 
L 295.072446 -45.596352 
L 295.758247 -45.595735 
L 296.444047 -45.595125 
L 297.129847 -45.594523 
L 297.815647 -45.59393 
L 298.501447 -45.593344 
L 299.187247 -45.592766 
L 299.873047 -45.592195 
L 300.558847 -45.591632 
L 301.244647 -45.591076 
L 301.930447 -45.590528 
L 302.616247 -45.589986 
L 303.302047 -45.589452 
L 303.987848 -45.588924 
L 304.673648 -45.588403 
L 305.359448 -45.587889 
L 306.045248 -45.587381 
L 306.731048 -45.58688 
L 307.416848 -45.586386 
L 308.102648 -45.585897 
L 308.788448 -45.585415 
L 309.474248 -45.584939 
L 310.160048 -45.584468 
L 310.845848 -45.584004 
L 311.531648 -45.583546 
L 312.217449 -45.583093 
L 312.903249 -45.582646 
L 313.589049 -45.582204 
L 314.274849 -45.581768 
L 314.960649 -45.581338 
L 315.646449 -45.580912 
L 316.332249 -45.580492 
L 317.018049 -45.580077 
L 317.703849 -45.579667 
L 318.389649 -45.579263 
L 319.075449 -45.578863 
L 319.761249 -45.578468 
L 320.44705 -45.578077 
L 321.13285 -45.577692 
L 321.81865 -45.577311 
L 322.50445 -45.576935 
L 323.19025 -45.576563 
L 323.87605 -45.576196 
L 324.56185 -45.575833 
L 325.24765 -45.575474 
L 325.93345 -45.57512 
L 326.61925 -45.57477 
L 327.30505 -45.574424 
L 327.99085 -45.574082 
L 328.676651 -45.573744 
L 329.362451 -45.573411 
L 330.048251 -45.573081 
L 330.734051 -45.572755 
L 331.419851 -45.572432 
L 331.419851 -45.538299 
L 331.419851 -45.538299 
L 330.734051 -45.538299 
L 330.048251 -45.538299 
L 329.362451 -45.538299 
L 328.676651 -45.538299 
L 327.99085 -45.538299 
L 327.30505 -45.538299 
L 326.61925 -45.538299 
L 325.93345 -45.538299 
L 325.24765 -45.538299 
L 324.56185 -45.538299 
L 323.87605 -45.538299 
L 323.19025 -45.538299 
L 322.50445 -45.538299 
L 321.81865 -45.538299 
L 321.13285 -45.538299 
L 320.44705 -45.538299 
L 319.761249 -45.538299 
L 319.075449 -45.538299 
L 318.389649 -45.538299 
L 317.703849 -45.538299 
L 317.018049 -45.538299 
L 316.332249 -45.538299 
L 315.646449 -45.538299 
L 314.960649 -45.538299 
L 314.274849 -45.538299 
L 313.589049 -45.538299 
L 312.903249 -45.538299 
L 312.217449 -45.538299 
L 311.531648 -45.538299 
L 310.845848 -45.538299 
L 310.160048 -45.538299 
L 309.474248 -45.538299 
L 308.788448 -45.538299 
L 308.102648 -45.538299 
L 307.416848 -45.538299 
L 306.731048 -45.538299 
L 306.045248 -45.538299 
L 305.359448 -45.538299 
L 304.673648 -45.538299 
L 303.987848 -45.538299 
L 303.302047 -45.538299 
L 302.616247 -45.538299 
L 301.930447 -45.538299 
L 301.244647 -45.538299 
L 300.558847 -45.538299 
L 299.873047 -45.538299 
L 299.187247 -45.538299 
L 298.501447 -45.538299 
L 297.815647 -45.538299 
L 297.129847 -45.538299 
L 296.444047 -45.538299 
L 295.758247 -45.538299 
L 295.072446 -45.538299 
L 294.386646 -45.538299 
L 293.700846 -45.538299 
L 293.015046 -45.538299 
L 292.329246 -45.538299 
L 291.643446 -45.538299 
L 290.957646 -45.538299 
L 290.271846 -45.538299 
L 289.586046 -45.538299 
L 288.900246 -45.538299 
L 288.214446 -45.538299 
L 287.528646 -45.538299 
L 286.842845 -45.538299 
L 286.157045 -45.538299 
L 285.471245 -45.538299 
L 284.785445 -45.538299 
L 284.099645 -45.538299 
L 283.413845 -45.538299 
L 282.728045 -45.538299 
L 282.042245 -45.538299 
L 281.356445 -45.538299 
L 280.670645 -45.538299 
L 279.984845 -45.538299 
L 279.299045 -45.538299 
L 278.613244 -45.538299 
L 277.927444 -45.538299 
L 277.241644 -45.538299 
L 276.555844 -45.538299 
L 275.870044 -45.538299 
L 275.184244 -45.538299 
L 274.498444 -45.538299 
L 273.812644 -45.538299 
L 273.126844 -45.538299 
L 272.441044 -45.538299 
L 271.755244 -45.538299 
L 271.069444 -45.538299 
L 270.383644 -45.538299 
L 269.697843 -45.538299 
L 269.012043 -45.538299 
L 268.326243 -45.538299 
L 267.640443 -45.538299 
L 266.954643 -45.538299 
L 266.268843 -45.538299 
L 265.583043 -45.538299 
L 264.897243 -45.538299 
L 264.211443 -45.538299 
L 263.525643 -45.538299 
L 262.839843 -45.538299 
L 262.154043 -45.538299 
L 261.468242 -45.538299 
L 260.782442 -45.538299 
L 260.096642 -45.538299 
L 259.410842 -45.538299 
L 258.725042 -45.538299 
L 258.039242 -45.538299 
L 257.353442 -45.538299 
L 256.667642 -45.538299 
L 255.981842 -45.538299 
L 255.296042 -45.538299 
L 254.610242 -45.538299 
L 253.924442 -45.538299 
L 253.238641 -45.538299 
L 252.552841 -45.538299 
L 251.867041 -45.538299 
L 251.181241 -45.538299 
L 250.495441 -45.538299 
L 249.809641 -45.538299 
L 249.123841 -45.538299 
L 248.438041 -45.538299 
L 247.752241 -45.538299 
L 247.066441 -45.538299 
L 246.380641 -45.538299 
L 245.694841 -45.538299 
L 245.00904 -45.538299 
L 244.32324 -45.538299 
L 243.63744 -45.538299 
L 242.95164 -45.538299 
L 242.26584 -45.538299 
L 241.58004 -45.538299 
L 240.89424 -45.538299 
L 240.20844 -45.538299 
L 239.52264 -45.538299 
L 238.83684 -45.538299 
L 238.15104 -45.538299 
L 237.46524 -45.538299 
L 236.779439 -45.538299 
L 236.093639 -45.538299 
L 235.407839 -45.538299 
L 234.722039 -45.538299 
L 234.036239 -45.538299 
L 233.350439 -45.538299 
L 232.664639 -45.538299 
L 231.978839 -45.538299 
L 231.293039 -45.538299 
L 230.607239 -45.538299 
L 229.921439 -45.538299 
L 229.235639 -45.538299 
L 228.549838 -45.538299 
L 227.864038 -45.538299 
L 227.178238 -45.538299 
L 226.492438 -45.538299 
L 225.806638 -45.538299 
L 225.120838 -45.538299 
L 224.435038 -45.538299 
L 223.749238 -45.538299 
L 223.063438 -45.538299 
L 222.377638 -45.538299 
L 221.691838 -45.538299 
L 221.006038 -45.538299 
L 220.320237 -45.538299 
L 219.634437 -45.538299 
L 218.948637 -45.538299 
L 218.262837 -45.538299 
L 217.577037 -45.538299 
L 216.891237 -45.538299 
L 216.205437 -45.538299 
L 215.519637 -45.538299 
L 214.833837 -45.538299 
L 214.148037 -45.538299 
L 213.462237 -45.538299 
L 212.776437 -45.538299 
L 212.090636 -45.538299 
L 211.404836 -45.538299 
L 210.719036 -45.538299 
L 210.033236 -45.538299 
L 209.347436 -45.538299 
L 208.661636 -45.538299 
L 207.975836 -45.538299 
L 207.290036 -45.538299 
L 206.604236 -45.538299 
L 205.918436 -45.538299 
L 205.232636 -45.538299 
L 204.546836 -45.538299 
L 203.861035 -45.538299 
L 203.175235 -45.538299 
L 202.489435 -45.538299 
L 201.803635 -45.538299 
L 201.117835 -45.538299 
L 200.432035 -45.538299 
L 199.746235 -45.538299 
L 199.060435 -45.538299 
L 198.374635 -45.538299 
L 197.688835 -45.538299 
L 197.003035 -45.538299 
L 196.317235 -45.538299 
L 195.631434 -45.538299 
L 194.945634 -45.538299 
L 194.259834 -45.538299 
L 193.574034 -45.538299 
L 192.888234 -45.538299 
L 192.202434 -45.538299 
L 191.516634 -45.538299 
L 190.830834 -45.538299 
L 190.145034 -45.538299 
L 189.459234 -45.538299 
L 188.773434 -45.538299 
L 188.087634 -45.538299 
L 187.401834 -45.538299 
L 186.716033 -45.538299 
L 186.030233 -45.538299 
L 185.344433 -45.538299 
L 184.658633 -45.538299 
L 183.972833 -45.538299 
L 183.287033 -45.538299 
L 182.601233 -45.538299 
L 181.915433 -45.538299 
L 181.229633 -45.538299 
L 180.543833 -45.538299 
L 179.858033 -45.538299 
L 179.172233 -45.538299 
L 178.486432 -45.538299 
L 177.800632 -45.538299 
L 177.114832 -45.538299 
L 176.429032 -45.538299 
L 175.743232 -45.538299 
L 175.057432 -45.538299 
L 174.371632 -45.538299 
L 173.685832 -45.538299 
L 173.000032 -45.538299 
L 172.314232 -45.538299 
L 171.628432 -45.538299 
L 170.942632 -45.538299 
L 170.256831 -45.538299 
L 169.571031 -45.538299 
L 168.885231 -45.538299 
L 168.199431 -45.538299 
L 167.513631 -45.538299 
L 166.827831 -45.538299 
L 166.142031 -45.538299 
L 165.456231 -45.538299 
L 164.770431 -45.538299 
L 164.084631 -45.538299 
L 163.398831 -45.538299 
L 162.713031 -45.538299 
L 162.02723 -45.538299 
L 161.34143 -45.538299 
L 160.65563 -45.538299 
L 159.96983 -45.538299 
L 159.28403 -45.538299 
L 158.59823 -45.538299 
L 157.91243 -45.538299 
L 157.22663 -45.538299 
L 156.54083 -45.538299 
L 155.85503 -45.538299 
L 155.16923 -45.538299 
L 154.48343 -45.538299 
L 153.797629 -45.538299 
L 153.111829 -45.538299 
L 152.426029 -45.538299 
L 151.740229 -45.538299 
L 151.054429 -45.538299 
L 150.368629 -45.538299 
L 149.682829 -45.538299 
L 148.997029 -45.538299 
L 148.311229 -45.538299 
L 147.625429 -45.538299 
L 146.939629 -45.538299 
L 146.253829 -45.538299 
L 145.568028 -45.538299 
L 144.882228 -45.538299 
L 144.196428 -45.538299 
L 143.510628 -45.538299 
L 142.824828 -45.538299 
L 142.139028 -45.538299 
L 141.453228 -45.538299 
L 140.767428 -45.538299 
L 140.081628 -45.538299 
L 139.395828 -45.538299 
L 138.710028 -45.538299 
L 138.024228 -45.538299 
L 137.338427 -45.538299 
L 136.652627 -45.538299 
L 135.966827 -45.538299 
L 135.281027 -45.538299 
L 134.595227 -45.538299 
L 133.909427 -45.538299 
L 133.223627 -45.538299 
L 132.537827 -45.538299 
L 131.852027 -45.538299 
L 131.166227 -45.538299 
L 130.480427 -45.538299 
L 129.794627 -45.538299 
L 129.108826 -45.538299 
L 128.423026 -45.538299 
L 127.737226 -45.538299 
L 127.051426 -45.538299 
L 126.365626 -45.538299 
L 125.679826 -45.538299 
L 124.994026 -45.538299 
L 124.308226 -45.538299 
L 123.622426 -45.538299 
L 122.936626 -45.538299 
L 122.250826 -45.538299 
L 121.565026 -45.538299 
L 120.879225 -45.538299 
L 120.193425 -45.538299 
L 119.507625 -45.538299 
L 118.821825 -45.538299 
L 118.136025 -45.538299 
L 117.450225 -45.538299 
L 116.764425 -45.538299 
L 116.078625 -45.538299 
L 115.392825 -45.538299 
L 114.707025 -45.538299 
L 114.021225 -45.538299 
L 113.335425 -45.538299 
L 112.649625 -45.538299 
L 111.963824 -45.538299 
L 111.278024 -45.538299 
L 110.592224 -45.538299 
L 109.906424 -45.538299 
L 109.220624 -45.538299 
L 108.534824 -45.538299 
L 107.849024 -45.538299 
L 107.163224 -45.538299 
L 106.477424 -45.538299 
L 105.791624 -45.538299 
L 105.105824 -45.538299 
L 104.420024 -45.538299 
L 103.734223 -45.538299 
L 103.048423 -45.538299 
L 102.362623 -45.538299 
L 101.676823 -45.538299 
L 100.991023 -45.538299 
L 100.305223 -45.538299 
L 99.619423 -45.538299 
L 98.933623 -45.538299 
L 98.247823 -45.538299 
L 97.562023 -45.538299 
L 96.876223 -45.538299 
L 96.190423 -45.538299 
L 95.504622 -45.538299 
L 94.818822 -45.538299 
L 94.133022 -45.538299 
L 93.447222 -45.538299 
L 92.761422 -45.538299 
L 92.075622 -45.538299 
L 91.389822 -45.538299 
L 90.704022 -45.538299 
L 90.018222 -45.538299 
L 89.332422 -45.538299 
L 88.646622 -45.538299 
L 87.960822 -45.538299 
L 87.275021 -45.538299 
L 86.589221 -45.538299 
L 85.903421 -45.538299 
L 85.217621 -45.538299 
L 84.531821 -45.538299 
L 83.846021 -45.538299 
L 83.160221 -45.538299 
L 82.474421 -45.538299 
L 81.788621 -45.538299 
L 81.102821 -45.538299 
L 80.417021 -45.538299 
L 79.731221 -45.538299 
L 79.04542 -45.538299 
L 78.35962 -45.538299 
L 77.67382 -45.538299 
L 76.98802 -45.538299 
L 76.30222 -45.538299 
L 75.61642 -45.538299 
L 74.93062 -45.538299 
L 74.24482 -45.538299 
L 73.55902 -45.538299 
L 72.87322 -45.538299 
L 72.18742 -45.538299 
L 71.50162 -45.538299 
L 70.815819 -45.538299 
L 70.130019 -45.538299 
L 69.444219 -45.538299 
L 68.758419 -45.538299 
L 68.072619 -45.538299 
L 67.386819 -45.538299 
L 66.701019 -45.538299 
L 66.015219 -45.538299 
L 65.329419 -45.538299 
L 64.643619 -45.538299 
L 63.957819 -45.538299 
L 63.272019 -45.538299 
L 62.586218 -45.538299 
L 61.900418 -45.538299 
L 61.214618 -45.538299 
L 60.528818 -45.538299 
L 59.843018 -45.538299 
L 59.157218 -45.538299 
L 58.471418 -45.538299 
L 57.785618 -45.538299 
z
" style="stroke: #4c78a8; stroke-opacity: 0.15"/>
    </defs>
    <g clip-path="url(#p747a660b3f)">
     <use xlink:href="#m3cbdd97e24" x="0" y="223.2" style="fill: #4c78a8; fill-opacity: 0.15; stroke: #4c78a8; stroke-opacity: 0.15"/>
    </g>
   </g>
   <g id="matplotlib.axis_1">
    <g id="xtick_1">
     <g id="line2d_1">
      <path d="M 53.062402 185 
L 53.062402 23.557422 
" clip-path="url(#p747a660b3f)" style="fill: none; stroke: #b0b0b0; stroke-opacity: 0.25; stroke-width: 0.6; stroke-linecap: square"/>
     </g>
     <g id="line2d_2">
      <defs>
       <path id="m69bb7d5038" d="M 0 0 
L 0 3.5 
" style="stroke: #000000; stroke-width: 0.8"/>
      </defs>
      <g>
       <use xlink:href="#m69bb7d5038" x="53.062402" y="185" style="stroke: #000000; stroke-width: 0.8"/>
      </g>
     </g>
     <g id="text_1">
      <!-- 0 -->
      <g transform="translate(49.881152 199.597656) scale(0.1 -0.1)">
       <defs>
        <path id="DejaVuSans-13" d="M 2034 4250 
Q 1547 4250 1301 3770 
Q 1056 3291 1056 2328 
Q 1056 1369 1301 889 
Q 1547 409 2034 409 
Q 2525 409 2770 889 
Q 3016 1369 3016 2328 
Q 3016 3291 2770 3770 
Q 2525 4250 2034 4250 
z
M 2034 4750 
Q 2819 4750 3233 4129 
Q 3647 3509 3647 2328 
Q 3647 1150 3233 529 
Q 2819 -91 2034 -91 
Q 1250 -91 836 529 
Q 422 1150 422 2328 
Q 422 3509 836 4129 
Q 1250 4750 2034 4750 
z
" transform="scale(0.015625)"/>
       </defs>
       <use xlink:href="#DejaVuSans-13"/>
      </g>
     </g>
    </g>
    <g id="xtick_2">
     <g id="line2d_3">
      <path d="M 106.098787 185 
L 106.098787 23.557422 
" clip-path="url(#p747a660b3f)" style="fill: none; stroke: #b0b0b0; stroke-opacity: 0.25; stroke-width: 0.6; stroke-linecap: square"/>
     </g>
     <g id="line2d_4">
      <g>
       <use xlink:href="#m69bb7d5038" x="106.098787" y="185" style="stroke: #000000; stroke-width: 0.8"/>
      </g>
     </g>
     <g id="text_2">
      <!-- 1 -->
      <g transform="translate(102.917537 199.597656) scale(0.1 -0.1)">
       <defs>
        <path id="DejaVuSans-14" d="M 794 531 
L 1825 531 
L 1825 4091 
L 703 3866 
L 703 4441 
L 1819 4666 
L 2450 4666 
L 2450 531 
L 3481 531 
L 3481 0 
L 794 0 
L 794 531 
z
" transform="scale(0.015625)"/>
       </defs>
       <use xlink:href="#DejaVuSans-14"/>
      </g>
     </g>
    </g>
    <g id="xtick_3">
     <g id="line2d_5">
      <path d="M 159.135172 185 
L 159.135172 23.557422 
" clip-path="url(#p747a660b3f)" style="fill: none; stroke: #b0b0b0; stroke-opacity: 0.25; stroke-width: 0.6; stroke-linecap: square"/>
     </g>
     <g id="line2d_6">
      <g>
       <use xlink:href="#m69bb7d5038" x="159.135172" y="185" style="stroke: #000000; stroke-width: 0.8"/>
      </g>
     </g>
     <g id="text_3">
      <!-- 2 -->
      <g transform="translate(155.953922 199.597656) scale(0.1 -0.1)">
       <defs>
        <path id="DejaVuSans-15" d="M 1228 531 
L 3431 531 
L 3431 0 
L 469 0 
L 469 531 
Q 828 903 1448 1529 
Q 2069 2156 2228 2338 
Q 2531 2678 2651 2914 
Q 2772 3150 2772 3378 
Q 2772 3750 2511 3984 
Q 2250 4219 1831 4219 
Q 1534 4219 1204 4116 
Q 875 4013 500 3803 
L 500 4441 
Q 881 4594 1212 4672 
Q 1544 4750 1819 4750 
Q 2544 4750 2975 4387 
Q 3406 4025 3406 3419 
Q 3406 3131 3298 2873 
Q 3191 2616 2906 2266 
Q 2828 2175 2409 1742 
Q 1991 1309 1228 531 
z
" transform="scale(0.015625)"/>
       </defs>
       <use xlink:href="#DejaVuSans-15"/>
      </g>
     </g>
    </g>
    <g id="xtick_4">
     <g id="line2d_7">
      <path d="M 212.171557 185 
L 212.171557 23.557422 
" clip-path="url(#p747a660b3f)" style="fill: none; stroke: #b0b0b0; stroke-opacity: 0.25; stroke-width: 0.6; stroke-linecap: square"/>
     </g>
     <g id="line2d_8">
      <g>
       <use xlink:href="#m69bb7d5038" x="212.171557" y="185" style="stroke: #000000; stroke-width: 0.8"/>
      </g>
     </g>
     <g id="text_4">
      <!-- 3 -->
      <g transform="translate(208.990307 199.597656) scale(0.1 -0.1)">
       <defs>
        <path id="DejaVuSans-16" d="M 2597 2516 
Q 3050 2419 3304 2112 
Q 3559 1806 3559 1356 
Q 3559 666 3084 287 
Q 2609 -91 1734 -91 
Q 1441 -91 1130 -33 
Q 819 25 488 141 
L 488 750 
Q 750 597 1062 519 
Q 1375 441 1716 441 
Q 2309 441 2620 675 
Q 2931 909 2931 1356 
Q 2931 1769 2642 2001 
Q 2353 2234 1838 2234 
L 1294 2234 
L 1294 2753 
L 1863 2753 
Q 2328 2753 2575 2939 
Q 2822 3125 2822 3475 
Q 2822 3834 2567 4026 
Q 2313 4219 1838 4219 
Q 1578 4219 1281 4162 
Q 984 4106 628 3988 
L 628 4550 
Q 988 4650 1302 4700 
Q 1616 4750 1894 4750 
Q 2613 4750 3031 4423 
Q 3450 4097 3450 3541 
Q 3450 3153 3228 2886 
Q 3006 2619 2597 2516 
z
" transform="scale(0.015625)"/>
       </defs>
       <use xlink:href="#DejaVuSans-16"/>
      </g>
     </g>
    </g>
    <g id="xtick_5">
     <g id="line2d_9">
      <path d="M 265.207942 185 
L 265.207942 23.557422 
" clip-path="url(#p747a660b3f)" style="fill: none; stroke: #b0b0b0; stroke-opacity: 0.25; stroke-width: 0.6; stroke-linecap: square"/>
     </g>
     <g id="line2d_10">
      <g>
       <use xlink:href="#m69bb7d5038" x="265.207942" y="185" style="stroke: #000000; stroke-width: 0.8"/>
      </g>
     </g>
     <g id="text_5">
      <!-- 4 -->
      <g transform="translate(262.026692 199.597656) scale(0.1 -0.1)">
       <defs>
        <path id="DejaVuSans-17" d="M 2419 4116 
L 825 1625 
L 2419 1625 
L 2419 4116 
z
M 2253 4666 
L 3047 4666 
L 3047 1625 
L 3713 1625 
L 3713 1100 
L 3047 1100 
L 3047 0 
L 2419 0 
L 2419 1100 
L 313 1100 
L 313 1709 
L 2253 4666 
z
" transform="scale(0.015625)"/>
       </defs>
       <use xlink:href="#DejaVuSans-17"/>
      </g>
     </g>
    </g>
    <g id="xtick_6">
     <g id="line2d_11">
      <path d="M 318.244327 185 
L 318.244327 23.557422 
" clip-path="url(#p747a660b3f)" style="fill: none; stroke: #b0b0b0; stroke-opacity: 0.25; stroke-width: 0.6; stroke-linecap: square"/>
     </g>
     <g id="line2d_12">
      <g>
       <use xlink:href="#m69bb7d5038" x="318.244327" y="185" style="stroke: #000000; stroke-width: 0.8"/>
      </g>
     </g>
     <g id="text_6">
      <!-- 5 -->
      <g transform="translate(315.063077 199.597656) scale(0.1 -0.1)">
       <defs>
        <path id="DejaVuSans-18" d="M 691 4666 
L 3169 4666 
L 3169 4134 
L 1269 4134 
L 1269 2991 
Q 1406 3038 1543 3061 
Q 1681 3084 1819 3084 
Q 2600 3084 3056 2656 
Q 3513 2228 3513 1497 
Q 3513 744 3044 326 
Q 2575 -91 1722 -91 
Q 1428 -91 1123 -41 
Q 819 9 494 109 
L 494 744 
Q 775 591 1075 516 
Q 1375 441 1709 441 
Q 2250 441 2565 725 
Q 2881 1009 2881 1497 
Q 2881 1984 2565 2268 
Q 2250 2553 1709 2553 
Q 1456 2553 1204 2497 
Q 953 2441 691 2322 
L 691 4666 
z
" transform="scale(0.015625)"/>
       </defs>
       <use xlink:href="#DejaVuSans-18"/>
      </g>
     </g>
    </g>
    <g id="text_7">
     <!-- x -->
     <g transform="translate(191.643359 213.597656) scale(0.1 -0.1)">
      <defs>
       <path id="DejaVuSans-5b" d="M 3513 3500 
L 2247 1797 
L 3578 0 
L 2900 0 
L 1881 1375 
L 863 0 
L 184 0 
L 1544 1831 
L 300 3500 
L 978 3500 
L 1906 2253 
L 2834 3500 
L 3513 3500 
z
" transform="scale(0.015625)"/>
      </defs>
      <use xlink:href="#DejaVuSans-5b"/>
     </g>
    </g>
   </g>
   <g id="matplotlib.axis_2">
    <g id="ytick_1">
     <g id="line2d_13">
      <path d="M 44.103906 177.661701 
L 345.101562 177.661701 
" clip-path="url(#p747a660b3f)" style="fill: none; stroke: #b0b0b0; stroke-opacity: 0.25; stroke-width: 0.6; stroke-linecap: square"/>
     </g>
     <g id="line2d_14">
      <defs>
       <path id="m74d146104e" d="M 0 0 
L -3.5 0 
" style="stroke: #000000; stroke-width: 0.8"/>
      </defs>
      <g>
       <use xlink:href="#m74d146104e" x="44.103906" y="177.661701" style="stroke: #000000; stroke-width: 0.8"/>
      </g>
     </g>
     <g id="text_8">
      <!-- 0.0 -->
      <g transform="translate(21.200781 181.460529) scale(0.1 -0.1)">
       <defs>
        <path id="DejaVuSans-11" d="M 684 794 
L 1344 794 
L 1344 0 
L 684 0 
L 684 794 
z
" transform="scale(0.015625)"/>
       </defs>
       <use xlink:href="#DejaVuSans-13"/>
       <use xlink:href="#DejaVuSans-11" transform="translate(63.625 0)"/>
       <use xlink:href="#DejaVuSans-13" transform="translate(95.40625 0)"/>
      </g>
     </g>
    </g>
    <g id="ytick_2">
     <g id="line2d_15">
      <path d="M 44.103906 146.32585 
L 345.101562 146.32585 
" clip-path="url(#p747a660b3f)" style="fill: none; stroke: #b0b0b0; stroke-opacity: 0.25; stroke-width: 0.6; stroke-linecap: square"/>
     </g>
     <g id="line2d_16">
      <g>
       <use xlink:href="#m74d146104e" x="44.103906" y="146.32585" style="stroke: #000000; stroke-width: 0.8"/>
      </g>
     </g>
     <g id="text_9">
      <!-- 0.5 -->
      <g transform="translate(21.200781 150.124679) scale(0.1 -0.1)">
       <use xlink:href="#DejaVuSans-13"/>
       <use xlink:href="#DejaVuSans-11" transform="translate(63.625 0)"/>
       <use xlink:href="#DejaVuSans-18" transform="translate(95.40625 0)"/>
      </g>
     </g>
    </g>
    <g id="ytick_3">
     <g id="line2d_17">
      <path d="M 44.103906 114.99 
L 345.101562 114.99 
" clip-path="url(#p747a660b3f)" style="fill: none; stroke: #b0b0b0; stroke-opacity: 0.25; stroke-width: 0.6; stroke-linecap: square"/>
     </g>
     <g id="line2d_18">
      <g>
       <use xlink:href="#m74d146104e" x="44.103906" y="114.99" style="stroke: #000000; stroke-width: 0.8"/>
      </g>
     </g>
     <g id="text_10">
      <!-- 1.0 -->
      <g transform="translate(21.200781 118.788828) scale(0.1 -0.1)">
       <use xlink:href="#DejaVuSans-14"/>
       <use xlink:href="#DejaVuSans-11" transform="translate(63.625 0)"/>
       <use xlink:href="#DejaVuSans-13" transform="translate(95.40625 0)"/>
      </g>
     </g>
    </g>
    <g id="ytick_4">
     <g id="line2d_19">
      <path d="M 44.103906 83.654149 
L 345.101562 83.654149 
" clip-path="url(#p747a660b3f)" style="fill: none; stroke: #b0b0b0; stroke-opacity: 0.25; stroke-width: 0.6; stroke-linecap: square"/>
     </g>
     <g id="line2d_20">
      <g>
       <use xlink:href="#m74d146104e" x="44.103906" y="83.654149" style="stroke: #000000; stroke-width: 0.8"/>
      </g>
     </g>
     <g id="text_11">
      <!-- 1.5 -->
      <g transform="translate(21.200781 87.452977) scale(0.1 -0.1)">
       <use xlink:href="#DejaVuSans-14"/>
       <use xlink:href="#DejaVuSans-11" transform="translate(63.625 0)"/>
       <use xlink:href="#DejaVuSans-18" transform="translate(95.40625 0)"/>
      </g>
     </g>
    </g>
    <g id="ytick_5">
     <g id="line2d_21">
      <path d="M 44.103906 52.318299 
L 345.101562 52.318299 
" clip-path="url(#p747a660b3f)" style="fill: none; stroke: #b0b0b0; stroke-opacity: 0.25; stroke-width: 0.6; stroke-linecap: square"/>
     </g>
     <g id="line2d_22">
      <g>
       <use xlink:href="#m74d146104e" x="44.103906" y="52.318299" style="stroke: #000000; stroke-width: 0.8"/>
      </g>
     </g>
     <g id="text_12">
      <!-- 2.0 -->
      <g transform="translate(21.200781 56.117127) scale(0.1 -0.1)">
       <use xlink:href="#DejaVuSans-15"/>
       <use xlink:href="#DejaVuSans-11" transform="translate(63.625 0)"/>
       <use xlink:href="#DejaVuSans-13" transform="translate(95.40625 0)"/>
      </g>
     </g>
    </g>
    <g id="text_13">
     <!-- f(x) -->
     <g transform="translate(14.798438 112.899805) rotate(-90) scale(0.1 -0.1)">
      <defs>
       <path id="DejaVuSans-49" d="M 2375 4863 
L 2375 4384 
L 1825 4384 
Q 1516 4384 1395 4259 
Q 1275 4134 1275 3809 
L 1275 3500 
L 2222 3500 
L 2222 3053 
L 1275 3053 
L 1275 0 
L 697 0 
L 697 3053 
L 147 3053 
L 147 3500 
L 697 3500 
L 697 3744 
Q 697 4328 969 4595 
Q 1241 4863 1831 4863 
L 2375 4863 
z
" transform="scale(0.015625)"/>
       <path id="DejaVuSans-b" d="M 1984 4856 
Q 1566 4138 1362 3434 
Q 1159 2731 1159 2009 
Q 1159 1288 1364 580 
Q 1569 -128 1984 -844 
L 1484 -844 
Q 1016 -109 783 600 
Q 550 1309 550 2009 
Q 550 2706 781 3412 
Q 1013 4119 1484 4856 
L 1984 4856 
z
" transform="scale(0.015625)"/>
       <path id="DejaVuSans-c" d="M 513 4856 
L 1013 4856 
Q 1481 4119 1714 3412 
Q 1947 2706 1947 2009 
Q 1947 1309 1714 600 
Q 1481 -109 1013 -844 
L 513 -844 
Q 928 -128 1133 580 
Q 1338 1288 1338 2009 
Q 1338 2731 1133 3434 
Q 928 4138 513 4856 
z
" transform="scale(0.015625)"/>
      </defs>
      <use xlink:href="#DejaVuSans-49"/>
      <use xlink:href="#DejaVuSans-b" transform="translate(35.203125 0)"/>
      <use xlink:href="#DejaVuSans-5b" transform="translate(74.21875 0)"/>
      <use xlink:href="#DejaVuSans-c" transform="translate(133.40625 0)"/>
     </g>
    </g>
   </g>
   <g id="line2d_23">
    <path d="M 57.785618 171.043365 
L 58.471418 161.683509 
L 59.157218 147.786265 
L 62.586218 62.69109 
L 63.272019 51.115526 
L 63.957819 42.356027 
L 64.643619 36.257865 
L 65.329419 32.547034 
L 66.015219 30.895721 
L 66.701019 30.965725 
L 67.386819 32.434823 
L 68.072619 35.01102 
L 68.758419 38.438736 
L 70.130019 47.012456 
L 72.87322 66.98422 
L 75.61642 86.421505 
L 77.67382 99.335416 
L 79.731221 110.574621 
L 81.788621 120.197419 
L 83.846021 128.364469 
L 85.903421 135.267187 
L 87.960822 141.093706 
L 90.018222 146.014377 
L 92.075622 150.177074 
L 94.133022 153.707173 
L 96.190423 156.70956 
L 98.247823 159.271321 
L 100.305223 161.464491 
L 102.362623 163.34857 
L 104.420024 164.972714 
L 107.163224 166.803147 
L 109.906424 168.320683 
L 112.649625 169.586095 
L 116.078625 170.885097 
L 119.507625 171.935989 
L 123.622426 172.944709 
L 128.423026 173.858785 
L 133.909427 174.650222 
L 140.081628 175.311078 
L 147.625429 175.892104 
L 157.22663 176.395983 
L 169.571031 176.808193 
L 186.716033 177.139212 
L 212.090636 177.383984 
L 255.296042 177.547669 
L 331.419851 177.627568 
L 331.419851 177.627568 
" clip-path="url(#p747a660b3f)" style="fill: none; stroke: #4c78a8; stroke-width: 2; stroke-linecap: square"/>
   </g>
   <g id="patch_3">
    <path d="M 44.103906 185 
L 44.103906 23.557422 
" style="fill: none; stroke: #000000; stroke-width: 0.8; stroke-linejoin: miter; stroke-linecap: square"/>
   </g>
   <g id="patch_4">
    <path d="M 44.103906 185 
L 345.101562 185 
" style="fill: none; stroke: #000000; stroke-width: 0.8; stroke-linejoin: miter; stroke-linecap: square"/>
   </g>
   <g id="text_14">
    <!-- Inverse Gamma -->
    <g transform="translate(150.879453 15.557422) scale(0.11 -0.11)">
     <defs>
      <path id="DejaVuSans-2c" d="M 628 4666 
L 1259 4666 
L 1259 0 
L 628 0 
L 628 4666 
z
" transform="scale(0.015625)"/>
      <path id="DejaVuSans-51" d="M 3513 2113 
L 3513 0 
L 2938 0 
L 2938 2094 
Q 2938 2591 2744 2837 
Q 2550 3084 2163 3084 
Q 1697 3084 1428 2787 
Q 1159 2491 1159 1978 
L 1159 0 
L 581 0 
L 581 3500 
L 1159 3500 
L 1159 2956 
Q 1366 3272 1645 3428 
Q 1925 3584 2291 3584 
Q 2894 3584 3203 3211 
Q 3513 2838 3513 2113 
z
" transform="scale(0.015625)"/>
      <path id="DejaVuSans-59" d="M 191 3500 
L 800 3500 
L 1894 563 
L 2988 3500 
L 3597 3500 
L 2284 0 
L 1503 0 
L 191 3500 
z
" transform="scale(0.015625)"/>
      <path id="DejaVuSans-48" d="M 3597 1894 
L 3597 1613 
L 953 1613 
Q 991 1019 1311 708 
Q 1631 397 2203 397 
Q 2534 397 2845 478 
Q 3156 559 3463 722 
L 3463 178 
Q 3153 47 2828 -22 
Q 2503 -91 2169 -91 
Q 1331 -91 842 396 
Q 353 884 353 1716 
Q 353 2575 817 3079 
Q 1281 3584 2069 3584 
Q 2775 3584 3186 3129 
Q 3597 2675 3597 1894 
z
M 3022 2063 
Q 3016 2534 2758 2815 
Q 2500 3097 2075 3097 
Q 1594 3097 1305 2825 
Q 1016 2553 972 2059 
L 3022 2063 
z
" transform="scale(0.015625)"/>
      <path id="DejaVuSans-55" d="M 2631 2963 
Q 2534 3019 2420 3045 
Q 2306 3072 2169 3072 
Q 1681 3072 1420 2755 
Q 1159 2438 1159 1844 
L 1159 0 
L 581 0 
L 581 3500 
L 1159 3500 
L 1159 2956 
Q 1341 3275 1631 3429 
Q 1922 3584 2338 3584 
Q 2397 3584 2469 3576 
Q 2541 3569 2628 3553 
L 2631 2963 
z
" transform="scale(0.015625)"/>
      <path id="DejaVuSans-56" d="M 2834 3397 
L 2834 2853 
Q 2591 2978 2328 3040 
Q 2066 3103 1784 3103 
Q 1356 3103 1142 2972 
Q 928 2841 928 2578 
Q 928 2378 1081 2264 
Q 1234 2150 1697 2047 
L 1894 2003 
Q 2506 1872 2764 1633 
Q 3022 1394 3022 966 
Q 3022 478 2636 193 
Q 2250 -91 1575 -91 
Q 1294 -91 989 -36 
Q 684 19 347 128 
L 347 722 
Q 666 556 975 473 
Q 1284 391 1588 391 
Q 1994 391 2212 530 
Q 2431 669 2431 922 
Q 2431 1156 2273 1281 
Q 2116 1406 1581 1522 
L 1381 1569 
Q 847 1681 609 1914 
Q 372 2147 372 2553 
Q 372 3047 722 3315 
Q 1072 3584 1716 3584 
Q 2034 3584 2315 3537 
Q 2597 3491 2834 3397 
z
" transform="scale(0.015625)"/>
      <path id="DejaVuSans-3" transform="scale(0.015625)"/>
      <path id="DejaVuSans-2a" d="M 3809 666 
L 3809 1919 
L 2778 1919 
L 2778 2438 
L 4434 2438 
L 4434 434 
Q 4069 175 3628 42 
Q 3188 -91 2688 -91 
Q 1594 -91 976 548 
Q 359 1188 359 2328 
Q 359 3472 976 4111 
Q 1594 4750 2688 4750 
Q 3144 4750 3555 4637 
Q 3966 4525 4313 4306 
L 4313 3634 
Q 3963 3931 3569 4081 
Q 3175 4231 2741 4231 
Q 1884 4231 1454 3753 
Q 1025 3275 1025 2328 
Q 1025 1384 1454 906 
Q 1884 428 2741 428 
Q 3075 428 3337 486 
Q 3600 544 3809 666 
z
" transform="scale(0.015625)"/>
      <path id="DejaVuSans-44" d="M 2194 1759 
Q 1497 1759 1228 1600 
Q 959 1441 959 1056 
Q 959 750 1161 570 
Q 1363 391 1709 391 
Q 2188 391 2477 730 
Q 2766 1069 2766 1631 
L 2766 1759 
L 2194 1759 
z
M 3341 1997 
L 3341 0 
L 2766 0 
L 2766 531 
Q 2569 213 2275 61 
Q 1981 -91 1556 -91 
Q 1019 -91 701 211 
Q 384 513 384 1019 
Q 384 1609 779 1909 
Q 1175 2209 1959 2209 
L 2766 2209 
L 2766 2266 
Q 2766 2663 2505 2880 
Q 2244 3097 1772 3097 
Q 1472 3097 1187 3025 
Q 903 2953 641 2809 
L 641 3341 
Q 956 3463 1253 3523 
Q 1550 3584 1831 3584 
Q 2591 3584 2966 3190 
Q 3341 2797 3341 1997 
z
" transform="scale(0.015625)"/>
      <path id="DejaVuSans-50" d="M 3328 2828 
Q 3544 3216 3844 3400 
Q 4144 3584 4550 3584 
Q 5097 3584 5394 3201 
Q 5691 2819 5691 2113 
L 5691 0 
L 5113 0 
L 5113 2094 
Q 5113 2597 4934 2840 
Q 4756 3084 4391 3084 
Q 3944 3084 3684 2787 
Q 3425 2491 3425 1978 
L 3425 0 
L 2847 0 
L 2847 2094 
Q 2847 2600 2669 2842 
Q 2491 3084 2119 3084 
Q 1678 3084 1418 2786 
Q 1159 2488 1159 1978 
L 1159 0 
L 581 0 
L 581 3500 
L 1159 3500 
L 1159 2956 
Q 1356 3278 1631 3431 
Q 1906 3584 2284 3584 
Q 2666 3584 2933 3390 
Q 3200 3197 3328 2828 
z
" transform="scale(0.015625)"/>
     </defs>
     <use xlink:href="#DejaVuSans-2c"/>
     <use xlink:href="#DejaVuSans-51" transform="translate(29.5 0)"/>
     <use xlink:href="#DejaVuSans-59" transform="translate(92.875 0)"/>
     <use xlink:href="#DejaVuSans-48" transform="translate(152.0625 0)"/>
     <use xlink:href="#DejaVuSans-55" transform="translate(213.59375 0)"/>
     <use xlink:href="#DejaVuSans-56" transform="translate(254.703125 0)"/>
     <use xlink:href="#DejaVuSans-48" transform="translate(306.796875 0)"/>
     <use xlink:href="#DejaVuSans-3" transform="translate(368.328125 0)"/>
     <use xlink:href="#DejaVuSans-2a" transform="translate(400.109375 0)"/>
     <use xlink:href="#DejaVuSans-44" transform="translate(477.59375 0)"/>
     <use xlink:href="#DejaVuSans-50" transform="translate(538.875 0)"/>
     <use xlink:href="#DejaVuSans-50" transform="translate(636.28125 0)"/>
     <use xlink:href="#DejaVuSans-44" transform="translate(733.6875 0)"/>
    </g>
   </g>
  </g>
 </g>
 <defs>
  <clipPath id="p747a660b3f">
   <rect x="44.103906" y="23.557422" width="300.997656" height="161.442578"/>
  </clipPath>
 </defs>
</svg>
