<?xml version="1.0" encoding="utf-8" standalone="no"?>
<!DOCTYPE svg PUBLIC "-//W3C//DTD SVG 1.1//EN"
  "http://www.w3.org/Graphics/SVG/1.1/DTD/svg11.dtd">
<svg xmlns:xlink="http://www.w3.org/1999/xlink" width="352.301562pt" height="223.158281pt" viewBox="0 0 352.301562 223.158281" xmlns="http://www.w3.org/2000/svg" version="1.1">
 <metadata>
  <rdf:RDF xmlns:dc="http://purl.org/dc/elements/1.1/" xmlns:cc="http://creativecommons.org/ns#" xmlns:rdf="http://www.w3.org/1999/02/22-rdf-syntax-ns#">
   <cc:Work>
    <dc:type rdf:resource="http://purl.org/dc/dcmitype/StillImage"/>
    <dc:date>2026-07-05T02:24:30.868020</dc:date>
    <dc:format>image/svg+xml</dc:format>
    <dc:creator>
     <cc:Agent>
      <dc:title>Matplotlib v3.11.0, https://matplotlib.org/</dc:title>
     </cc:Agent>
    </dc:creator>
   </cc:Work>
  </rdf:RDF>
 </metadata>
 <defs>
  <style type="text/css">*{stroke-linejoin: round; stroke-linecap: butt}</style>
 </defs>
 <g id="figure_1">
  <g id="patch_1">
   <path d="M 0 223.158281 
L 352.301562 223.158281 
L 352.301562 0 
L 0 0 
z
" style="fill: #ffffff"/>
  </g>
  <g id="axes_1">
   <g id="patch_2">
    <path d="M 44.103906 184.958281 
L 345.101562 184.958281 
L 345.101562 23.558281 
L 44.103906 23.558281 
z
" style="fill: #ffffff"/>
   </g>
   <g id="FillBetweenPolyCollection_1">
    <defs>
     <path id="mcde2882944" d="M 57.785618 -45.536364 
L 57.785618 -47.773126 
L 58.471418 -47.913231 
L 59.157218 -48.059068 
L 59.843018 -48.210751 
L 60.528818 -48.368396 
L 61.214618 -48.532118 
L 61.900418 -48.70203 
L 62.586218 -48.878249 
L 63.272019 -49.060889 
L 63.957819 -49.250065 
L 64.643619 -49.445892 
L 65.329419 -49.648485 
L 66.015219 -49.857959 
L 66.701019 -50.074428 
L 67.386819 -50.298008 
L 68.072619 -50.528814 
L 68.758419 -50.766959 
L 69.444219 -51.012561 
L 70.130019 -51.265732 
L 70.815819 -51.526588 
L 71.50162 -51.795245 
L 72.18742 -52.071816 
L 72.87322 -52.356418 
L 73.55902 -52.649163 
L 74.24482 -52.950169 
L 74.93062 -53.259549 
L 75.61642 -53.577419 
L 76.30222 -53.903893 
L 76.98802 -54.239086 
L 77.67382 -54.583114 
L 78.35962 -54.93609 
L 79.04542 -55.298131 
L 79.731221 -55.669351 
L 80.417021 -56.049864 
L 81.102821 -56.439786 
L 81.788621 -56.839232 
L 82.474421 -57.248316 
L 83.160221 -57.667153 
L 83.846021 -58.095859 
L 84.531821 -58.534549 
L 85.217621 -58.983336 
L 85.903421 -59.442337 
L 86.589221 -59.911665 
L 87.275021 -60.391437 
L 87.960822 -60.881766 
L 88.646622 -61.382768 
L 89.332422 -61.894557 
L 90.018222 -62.417249 
L 90.704022 -62.950958 
L 91.389822 -63.4958 
L 92.075622 -64.051889 
L 92.761422 -64.61934 
L 93.447222 -65.198268 
L 94.133022 -65.788788 
L 94.818822 -66.391015 
L 95.504622 -67.005064 
L 96.190423 -67.63105 
L 96.876223 -68.269087 
L 97.562023 -68.91929 
L 98.247823 -69.581775 
L 98.933623 -70.256656 
L 99.619423 -70.944049 
L 100.305223 -71.644067 
L 100.991023 -72.356827 
L 101.676823 -73.082442 
L 102.362623 -73.821029 
L 103.048423 -74.572701 
L 103.734223 -75.337574 
L 104.420024 -76.115762 
L 105.105824 -76.907381 
L 105.791624 -77.712545 
L 106.477424 -78.531369 
L 107.163224 -79.363969 
L 107.849024 -80.210459 
L 108.534824 -81.070953 
L 109.220624 -81.945568 
L 109.906424 -82.834392 
L 110.592224 -83.737246 
L 111.278024 -84.653788 
L 111.963824 -85.583673 
L 112.649625 -86.526556 
L 113.335425 -87.482092 
L 114.021225 -88.449937 
L 114.707025 -89.429746 
L 115.392825 -90.421175 
L 116.078625 -91.423878 
L 116.764425 -92.43751 
L 117.450225 -93.461728 
L 118.136025 -94.496186 
L 118.821825 -95.54054 
L 119.507625 -96.594445 
L 120.193425 -97.657556 
L 120.879225 -98.729528 
L 121.565026 -99.810018 
L 122.250826 -100.898679 
L 122.936626 -101.995168 
L 123.622426 -103.099139 
L 124.308226 -104.210248 
L 124.994026 -105.328151 
L 125.679826 -106.452501 
L 126.365626 -107.582956 
L 127.051426 -108.719169 
L 127.737226 -109.860797 
L 128.423026 -111.007495 
L 129.108826 -112.158917 
L 129.794627 -113.314719 
L 130.480427 -114.474557 
L 131.166227 -115.638086 
L 131.852027 -116.80496 
L 132.537827 -117.974836 
L 133.223627 -119.147368 
L 133.909427 -120.322212 
L 134.595227 -121.499023 
L 135.281027 -122.677456 
L 135.966827 -123.857167 
L 136.652627 -125.037811 
L 137.338427 -126.219043 
L 138.024228 -127.400519 
L 138.710028 -128.581893 
L 139.395828 -129.762822 
L 140.081628 -130.942959 
L 140.767428 -132.121962 
L 141.453228 -133.299484 
L 142.139028 -134.475181 
L 142.824828 -135.648709 
L 143.510628 -136.819722 
L 144.196428 -137.987877 
L 144.882228 -139.152827 
L 145.568028 -140.31423 
L 146.253829 -141.471739 
L 146.939629 -142.62501 
L 147.625429 -143.773698 
L 148.311229 -144.917459 
L 148.997029 -146.055948 
L 149.682829 -147.188821 
L 150.368629 -148.315731 
L 151.054429 -149.436336 
L 151.740229 -150.550289 
L 152.426029 -151.657247 
L 153.111829 -152.756865 
L 153.797629 -153.848797 
L 154.48343 -154.9327 
L 155.16923 -156.008228 
L 155.85503 -157.075036 
L 156.54083 -158.132781 
L 157.22663 -159.181117 
L 157.91243 -160.2197 
L 158.59823 -161.248184 
L 159.28403 -162.266226 
L 159.96983 -163.273479 
L 160.65563 -164.269601 
L 161.34143 -165.254245 
L 162.02723 -166.227068 
L 162.713031 -167.187724 
L 163.398831 -168.135869 
L 164.084631 -169.071159 
L 164.770431 -169.993247 
L 165.456231 -170.90179 
L 166.142031 -171.796443 
L 166.827831 -172.676861 
L 167.513631 -173.5427 
L 168.199431 -174.393614 
L 168.885231 -175.22926 
L 169.571031 -176.049291 
L 170.256831 -176.853364 
L 170.942632 -177.641134 
L 171.628432 -178.412257 
L 172.314232 -179.166386 
L 173.000032 -179.903179 
L 173.685832 -180.622289 
L 174.371632 -181.323372 
L 175.057432 -182.006085 
L 175.743232 -182.67008 
L 176.429032 -183.315015 
L 177.114832 -183.940545 
L 177.800632 -184.546324 
L 178.486432 -185.132008 
L 179.172233 -185.697252 
L 179.858033 -186.241711 
L 180.543833 -186.765042 
L 181.229633 -187.266898 
L 181.915433 -187.746936 
L 182.601233 -188.20481 
L 183.287033 -188.640176 
L 183.972833 -189.052689 
L 184.658633 -189.442005 
L 185.344433 -189.807778 
L 186.030233 -190.149665 
L 186.716033 -190.467319 
L 187.401834 -190.760398 
L 188.087634 -191.028555 
L 188.773434 -191.271446 
L 189.459234 -191.488726 
L 190.145034 -191.680052 
L 190.830834 -191.845077 
L 191.516634 -191.983457 
L 192.202434 -192.094848 
L 192.888234 -192.178905 
L 193.574034 -192.235282 
L 194.259834 -192.263636 
L 194.945634 -192.263636 
L 195.631434 -192.235282 
L 196.317235 -192.178905 
L 197.003035 -192.094848 
L 197.688835 -191.983457 
L 198.374635 -191.845077 
L 199.060435 -191.680052 
L 199.746235 -191.488726 
L 200.432035 -191.271446 
L 201.117835 -191.028555 
L 201.803635 -190.760398 
L 202.489435 -190.467319 
L 203.175235 -190.149665 
L 203.861035 -189.807778 
L 204.546836 -189.442005 
L 205.232636 -189.052689 
L 205.918436 -188.640176 
L 206.604236 -188.20481 
L 207.290036 -187.746936 
L 207.975836 -187.266898 
L 208.661636 -186.765042 
L 209.347436 -186.241711 
L 210.033236 -185.697252 
L 210.719036 -185.132008 
L 211.404836 -184.546324 
L 212.090636 -183.940545 
L 212.776437 -183.315015 
L 213.462237 -182.67008 
L 214.148037 -182.006085 
L 214.833837 -181.323372 
L 215.519637 -180.622289 
L 216.205437 -179.903179 
L 216.891237 -179.166386 
L 217.577037 -178.412257 
L 218.262837 -177.641134 
L 218.948637 -176.853364 
L 219.634437 -176.049291 
L 220.320237 -175.22926 
L 221.006038 -174.393614 
L 221.691838 -173.5427 
L 222.377638 -172.676861 
L 223.063438 -171.796443 
L 223.749238 -170.90179 
L 224.435038 -169.993247 
L 225.120838 -169.071159 
L 225.806638 -168.135869 
L 226.492438 -167.187724 
L 227.178238 -166.227068 
L 227.864038 -165.254245 
L 228.549838 -164.269601 
L 229.235639 -163.273479 
L 229.921439 -162.266226 
L 230.607239 -161.248184 
L 231.293039 -160.2197 
L 231.978839 -159.181117 
L 232.664639 -158.132781 
L 233.350439 -157.075036 
L 234.036239 -156.008228 
L 234.722039 -154.9327 
L 235.407839 -153.848797 
L 236.093639 -152.756865 
L 236.779439 -151.657247 
L 237.46524 -150.550289 
L 238.15104 -149.436336 
L 238.83684 -148.315731 
L 239.52264 -147.188821 
L 240.20844 -146.055948 
L 240.89424 -144.917459 
L 241.58004 -143.773698 
L 242.26584 -142.62501 
L 242.95164 -141.471739 
L 243.63744 -140.31423 
L 244.32324 -139.152827 
L 245.00904 -137.987877 
L 245.694841 -136.819722 
L 246.380641 -135.648709 
L 247.066441 -134.475181 
L 247.752241 -133.299484 
L 248.438041 -132.121962 
L 249.123841 -130.942959 
L 249.809641 -129.762822 
L 250.495441 -128.581893 
L 251.181241 -127.400519 
L 251.867041 -126.219043 
L 252.552841 -125.037811 
L 253.238641 -123.857167 
L 253.924442 -122.677456 
L 254.610242 -121.499023 
L 255.296042 -120.322212 
L 255.981842 -119.147368 
L 256.667642 -117.974836 
L 257.353442 -116.80496 
L 258.039242 -115.638086 
L 258.725042 -114.474557 
L 259.410842 -113.314719 
L 260.096642 -112.158917 
L 260.782442 -111.007495 
L 261.468242 -109.860797 
L 262.154043 -108.719169 
L 262.839843 -107.582956 
L 263.525643 -106.452501 
L 264.211443 -105.328151 
L 264.897243 -104.210248 
L 265.583043 -103.099139 
L 266.268843 -101.995168 
L 266.954643 -100.898679 
L 267.640443 -99.810018 
L 268.326243 -98.729528 
L 269.012043 -97.657556 
L 269.697843 -96.594445 
L 270.383644 -95.54054 
L 271.069444 -94.496186 
L 271.755244 -93.461728 
L 272.441044 -92.43751 
L 273.126844 -91.423878 
L 273.812644 -90.421175 
L 274.498444 -89.429746 
L 275.184244 -88.449937 
L 275.870044 -87.482092 
L 276.555844 -86.526556 
L 277.241644 -85.583673 
L 277.927444 -84.653788 
L 278.613244 -83.737246 
L 279.299045 -82.834392 
L 279.984845 -81.945568 
L 280.670645 -81.070953 
L 281.356445 -80.210459 
L 282.042245 -79.363969 
L 282.728045 -78.531369 
L 283.413845 -77.712545 
L 284.099645 -76.907381 
L 284.785445 -76.115762 
L 285.471245 -75.337574 
L 286.157045 -74.572701 
L 286.842845 -73.821029 
L 287.528646 -73.082442 
L 288.214446 -72.356827 
L 288.900246 -71.644067 
L 289.586046 -70.944049 
L 290.271846 -70.256656 
L 290.957646 -69.581775 
L 291.643446 -68.91929 
L 292.329246 -68.269087 
L 293.015046 -67.63105 
L 293.700846 -67.005064 
L 294.386646 -66.391015 
L 295.072446 -65.788788 
L 295.758247 -65.198268 
L 296.444047 -64.61934 
L 297.129847 -64.051889 
L 297.815647 -63.4958 
L 298.501447 -62.950958 
L 299.187247 -62.417249 
L 299.873047 -61.894557 
L 300.558847 -61.382768 
L 301.244647 -60.881766 
L 301.930447 -60.391437 
L 302.616247 -59.911665 
L 303.302047 -59.442337 
L 303.987848 -58.983336 
L 304.673648 -58.534549 
L 305.359448 -58.095859 
L 306.045248 -57.667153 
L 306.731048 -57.248316 
L 307.416848 -56.839232 
L 308.102648 -56.439786 
L 308.788448 -56.049864 
L 309.474248 -55.669351 
L 310.160048 -55.298131 
L 310.845848 -54.93609 
L 311.531648 -54.583114 
L 312.217449 -54.239086 
L 312.903249 -53.903893 
L 313.589049 -53.577419 
L 314.274849 -53.259549 
L 314.960649 -52.950169 
L 315.646449 -52.649163 
L 316.332249 -52.356418 
L 317.018049 -52.071816 
L 317.703849 -51.795245 
L 318.389649 -51.526588 
L 319.075449 -51.265732 
L 319.761249 -51.012561 
L 320.44705 -50.766959 
L 321.13285 -50.528814 
L 321.81865 -50.298008 
L 322.50445 -50.074428 
L 323.19025 -49.857959 
L 323.87605 -49.648485 
L 324.56185 -49.445892 
L 325.24765 -49.250065 
L 325.93345 -49.060889 
L 326.61925 -48.878249 
L 327.30505 -48.70203 
L 327.99085 -48.532118 
L 328.676651 -48.368396 
L 329.362451 -48.210751 
L 330.048251 -48.059068 
L 330.734051 -47.913231 
L 331.419851 -47.773126 
L 331.419851 -45.536364 
L 331.419851 -45.536364 
L 330.734051 -45.536364 
L 330.048251 -45.536364 
L 329.362451 -45.536364 
L 328.676651 -45.536364 
L 327.99085 -45.536364 
L 327.30505 -45.536364 
L 326.61925 -45.536364 
L 325.93345 -45.536364 
L 325.24765 -45.536364 
L 324.56185 -45.536364 
L 323.87605 -45.536364 
L 323.19025 -45.536364 
L 322.50445 -45.536364 
L 321.81865 -45.536364 
L 321.13285 -45.536364 
L 320.44705 -45.536364 
L 319.761249 -45.536364 
L 319.075449 -45.536364 
L 318.389649 -45.536364 
L 317.703849 -45.536364 
L 317.018049 -45.536364 
L 316.332249 -45.536364 
L 315.646449 -45.536364 
L 314.960649 -45.536364 
L 314.274849 -45.536364 
L 313.589049 -45.536364 
L 312.903249 -45.536364 
L 312.217449 -45.536364 
L 311.531648 -45.536364 
L 310.845848 -45.536364 
L 310.160048 -45.536364 
L 309.474248 -45.536364 
L 308.788448 -45.536364 
L 308.102648 -45.536364 
L 307.416848 -45.536364 
L 306.731048 -45.536364 
L 306.045248 -45.536364 
L 305.359448 -45.536364 
L 304.673648 -45.536364 
L 303.987848 -45.536364 
L 303.302047 -45.536364 
L 302.616247 -45.536364 
L 301.930447 -45.536364 
L 301.244647 -45.536364 
L 300.558847 -45.536364 
L 299.873047 -45.536364 
L 299.187247 -45.536364 
L 298.501447 -45.536364 
L 297.815647 -45.536364 
L 297.129847 -45.536364 
L 296.444047 -45.536364 
L 295.758247 -45.536364 
L 295.072446 -45.536364 
L 294.386646 -45.536364 
L 293.700846 -45.536364 
L 293.015046 -45.536364 
L 292.329246 -45.536364 
L 291.643446 -45.536364 
L 290.957646 -45.536364 
L 290.271846 -45.536364 
L 289.586046 -45.536364 
L 288.900246 -45.536364 
L 288.214446 -45.536364 
L 287.528646 -45.536364 
L 286.842845 -45.536364 
L 286.157045 -45.536364 
L 285.471245 -45.536364 
L 284.785445 -45.536364 
L 284.099645 -45.536364 
L 283.413845 -45.536364 
L 282.728045 -45.536364 
L 282.042245 -45.536364 
L 281.356445 -45.536364 
L 280.670645 -45.536364 
L 279.984845 -45.536364 
L 279.299045 -45.536364 
L 278.613244 -45.536364 
L 277.927444 -45.536364 
L 277.241644 -45.536364 
L 276.555844 -45.536364 
L 275.870044 -45.536364 
L 275.184244 -45.536364 
L 274.498444 -45.536364 
L 273.812644 -45.536364 
L 273.126844 -45.536364 
L 272.441044 -45.536364 
L 271.755244 -45.536364 
L 271.069444 -45.536364 
L 270.383644 -45.536364 
L 269.697843 -45.536364 
L 269.012043 -45.536364 
L 268.326243 -45.536364 
L 267.640443 -45.536364 
L 266.954643 -45.536364 
L 266.268843 -45.536364 
L 265.583043 -45.536364 
L 264.897243 -45.536364 
L 264.211443 -45.536364 
L 263.525643 -45.536364 
L 262.839843 -45.536364 
L 262.154043 -45.536364 
L 261.468242 -45.536364 
L 260.782442 -45.536364 
L 260.096642 -45.536364 
L 259.410842 -45.536364 
L 258.725042 -45.536364 
L 258.039242 -45.536364 
L 257.353442 -45.536364 
L 256.667642 -45.536364 
L 255.981842 -45.536364 
L 255.296042 -45.536364 
L 254.610242 -45.536364 
L 253.924442 -45.536364 
L 253.238641 -45.536364 
L 252.552841 -45.536364 
L 251.867041 -45.536364 
L 251.181241 -45.536364 
L 250.495441 -45.536364 
L 249.809641 -45.536364 
L 249.123841 -45.536364 
L 248.438041 -45.536364 
L 247.752241 -45.536364 
L 247.066441 -45.536364 
L 246.380641 -45.536364 
L 245.694841 -45.536364 
L 245.00904 -45.536364 
L 244.32324 -45.536364 
L 243.63744 -45.536364 
L 242.95164 -45.536364 
L 242.26584 -45.536364 
L 241.58004 -45.536364 
L 240.89424 -45.536364 
L 240.20844 -45.536364 
L 239.52264 -45.536364 
L 238.83684 -45.536364 
L 238.15104 -45.536364 
L 237.46524 -45.536364 
L 236.779439 -45.536364 
L 236.093639 -45.536364 
L 235.407839 -45.536364 
L 234.722039 -45.536364 
L 234.036239 -45.536364 
L 233.350439 -45.536364 
L 232.664639 -45.536364 
L 231.978839 -45.536364 
L 231.293039 -45.536364 
L 230.607239 -45.536364 
L 229.921439 -45.536364 
L 229.235639 -45.536364 
L 228.549838 -45.536364 
L 227.864038 -45.536364 
L 227.178238 -45.536364 
L 226.492438 -45.536364 
L 225.806638 -45.536364 
L 225.120838 -45.536364 
L 224.435038 -45.536364 
L 223.749238 -45.536364 
L 223.063438 -45.536364 
L 222.377638 -45.536364 
L 221.691838 -45.536364 
L 221.006038 -45.536364 
L 220.320237 -45.536364 
L 219.634437 -45.536364 
L 218.948637 -45.536364 
L 218.262837 -45.536364 
L 217.577037 -45.536364 
L 216.891237 -45.536364 
L 216.205437 -45.536364 
L 215.519637 -45.536364 
L 214.833837 -45.536364 
L 214.148037 -45.536364 
L 213.462237 -45.536364 
L 212.776437 -45.536364 
L 212.090636 -45.536364 
L 211.404836 -45.536364 
L 210.719036 -45.536364 
L 210.033236 -45.536364 
L 209.347436 -45.536364 
L 208.661636 -45.536364 
L 207.975836 -45.536364 
L 207.290036 -45.536364 
L 206.604236 -45.536364 
L 205.918436 -45.536364 
L 205.232636 -45.536364 
L 204.546836 -45.536364 
L 203.861035 -45.536364 
L 203.175235 -45.536364 
L 202.489435 -45.536364 
L 201.803635 -45.536364 
L 201.117835 -45.536364 
L 200.432035 -45.536364 
L 199.746235 -45.536364 
L 199.060435 -45.536364 
L 198.374635 -45.536364 
L 197.688835 -45.536364 
L 197.003035 -45.536364 
L 196.317235 -45.536364 
L 195.631434 -45.536364 
L 194.945634 -45.536364 
L 194.259834 -45.536364 
L 193.574034 -45.536364 
L 192.888234 -45.536364 
L 192.202434 -45.536364 
L 191.516634 -45.536364 
L 190.830834 -45.536364 
L 190.145034 -45.536364 
L 189.459234 -45.536364 
L 188.773434 -45.536364 
L 188.087634 -45.536364 
L 187.401834 -45.536364 
L 186.716033 -45.536364 
L 186.030233 -45.536364 
L 185.344433 -45.536364 
L 184.658633 -45.536364 
L 183.972833 -45.536364 
L 183.287033 -45.536364 
L 182.601233 -45.536364 
L 181.915433 -45.536364 
L 181.229633 -45.536364 
L 180.543833 -45.536364 
L 179.858033 -45.536364 
L 179.172233 -45.536364 
L 178.486432 -45.536364 
L 177.800632 -45.536364 
L 177.114832 -45.536364 
L 176.429032 -45.536364 
L 175.743232 -45.536364 
L 175.057432 -45.536364 
L 174.371632 -45.536364 
L 173.685832 -45.536364 
L 173.000032 -45.536364 
L 172.314232 -45.536364 
L 171.628432 -45.536364 
L 170.942632 -45.536364 
L 170.256831 -45.536364 
L 169.571031 -45.536364 
L 168.885231 -45.536364 
L 168.199431 -45.536364 
L 167.513631 -45.536364 
L 166.827831 -45.536364 
L 166.142031 -45.536364 
L 165.456231 -45.536364 
L 164.770431 -45.536364 
L 164.084631 -45.536364 
L 163.398831 -45.536364 
L 162.713031 -45.536364 
L 162.02723 -45.536364 
L 161.34143 -45.536364 
L 160.65563 -45.536364 
L 159.96983 -45.536364 
L 159.28403 -45.536364 
L 158.59823 -45.536364 
L 157.91243 -45.536364 
L 157.22663 -45.536364 
L 156.54083 -45.536364 
L 155.85503 -45.536364 
L 155.16923 -45.536364 
L 154.48343 -45.536364 
L 153.797629 -45.536364 
L 153.111829 -45.536364 
L 152.426029 -45.536364 
L 151.740229 -45.536364 
L 151.054429 -45.536364 
L 150.368629 -45.536364 
L 149.682829 -45.536364 
L 148.997029 -45.536364 
L 148.311229 -45.536364 
L 147.625429 -45.536364 
L 146.939629 -45.536364 
L 146.253829 -45.536364 
L 145.568028 -45.536364 
L 144.882228 -45.536364 
L 144.196428 -45.536364 
L 143.510628 -45.536364 
L 142.824828 -45.536364 
L 142.139028 -45.536364 
L 141.453228 -45.536364 
L 140.767428 -45.536364 
L 140.081628 -45.536364 
L 139.395828 -45.536364 
L 138.710028 -45.536364 
L 138.024228 -45.536364 
L 137.338427 -45.536364 
L 136.652627 -45.536364 
L 135.966827 -45.536364 
L 135.281027 -45.536364 
L 134.595227 -45.536364 
L 133.909427 -45.536364 
L 133.223627 -45.536364 
L 132.537827 -45.536364 
L 131.852027 -45.536364 
L 131.166227 -45.536364 
L 130.480427 -45.536364 
L 129.794627 -45.536364 
L 129.108826 -45.536364 
L 128.423026 -45.536364 
L 127.737226 -45.536364 
L 127.051426 -45.536364 
L 126.365626 -45.536364 
L 125.679826 -45.536364 
L 124.994026 -45.536364 
L 124.308226 -45.536364 
L 123.622426 -45.536364 
L 122.936626 -45.536364 
L 122.250826 -45.536364 
L 121.565026 -45.536364 
L 120.879225 -45.536364 
L 120.193425 -45.536364 
L 119.507625 -45.536364 
L 118.821825 -45.536364 
L 118.136025 -45.536364 
L 117.450225 -45.536364 
L 116.764425 -45.536364 
L 116.078625 -45.536364 
L 115.392825 -45.536364 
L 114.707025 -45.536364 
L 114.021225 -45.536364 
L 113.335425 -45.536364 
L 112.649625 -45.536364 
L 111.963824 -45.536364 
L 111.278024 -45.536364 
L 110.592224 -45.536364 
L 109.906424 -45.536364 
L 109.220624 -45.536364 
L 108.534824 -45.536364 
L 107.849024 -45.536364 
L 107.163224 -45.536364 
L 106.477424 -45.536364 
L 105.791624 -45.536364 
L 105.105824 -45.536364 
L 104.420024 -45.536364 
L 103.734223 -45.536364 
L 103.048423 -45.536364 
L 102.362623 -45.536364 
L 101.676823 -45.536364 
L 100.991023 -45.536364 
L 100.305223 -45.536364 
L 99.619423 -45.536364 
L 98.933623 -45.536364 
L 98.247823 -45.536364 
L 97.562023 -45.536364 
L 96.876223 -45.536364 
L 96.190423 -45.536364 
L 95.504622 -45.536364 
L 94.818822 -45.536364 
L 94.133022 -45.536364 
L 93.447222 -45.536364 
L 92.761422 -45.536364 
L 92.075622 -45.536364 
L 91.389822 -45.536364 
L 90.704022 -45.536364 
L 90.018222 -45.536364 
L 89.332422 -45.536364 
L 88.646622 -45.536364 
L 87.960822 -45.536364 
L 87.275021 -45.536364 
L 86.589221 -45.536364 
L 85.903421 -45.536364 
L 85.217621 -45.536364 
L 84.531821 -45.536364 
L 83.846021 -45.536364 
L 83.160221 -45.536364 
L 82.474421 -45.536364 
L 81.788621 -45.536364 
L 81.102821 -45.536364 
L 80.417021 -45.536364 
L 79.731221 -45.536364 
L 79.04542 -45.536364 
L 78.35962 -45.536364 
L 77.67382 -45.536364 
L 76.98802 -45.536364 
L 76.30222 -45.536364 
L 75.61642 -45.536364 
L 74.93062 -45.536364 
L 74.24482 -45.536364 
L 73.55902 -45.536364 
L 72.87322 -45.536364 
L 72.18742 -45.536364 
L 71.50162 -45.536364 
L 70.815819 -45.536364 
L 70.130019 -45.536364 
L 69.444219 -45.536364 
L 68.758419 -45.536364 
L 68.072619 -45.536364 
L 67.386819 -45.536364 
L 66.701019 -45.536364 
L 66.015219 -45.536364 
L 65.329419 -45.536364 
L 64.643619 -45.536364 
L 63.957819 -45.536364 
L 63.272019 -45.536364 
L 62.586218 -45.536364 
L 61.900418 -45.536364 
L 61.214618 -45.536364 
L 60.528818 -45.536364 
L 59.843018 -45.536364 
L 59.157218 -45.536364 
L 58.471418 -45.536364 
L 57.785618 -45.536364 
z
" style="stroke: #4c78a8; stroke-opacity: 0.15"/>
    </defs>
    <g clip-path="url(#p129ae6c94c)">
     <use xlink:href="#mcde2882944" x="0" y="223.158281" style="fill: #4c78a8; fill-opacity: 0.15; stroke: #4c78a8; stroke-opacity: 0.15"/>
    </g>
   </g>
   <g id="matplotlib.axis_1">
    <g id="xtick_1">
     <g id="line2d_1">
      <path d="M 66.847872 184.958281 
L 66.847872 23.558281 
" clip-path="url(#p129ae6c94c)" style="fill: none; stroke: #b0b0b0; stroke-opacity: 0.25; stroke-width: 0.6; stroke-linecap: square"/>
     </g>
     <g id="line2d_2">
      <defs>
       <path id="m9c7d77e6be" d="M 0 0 
L 0 3.5 
" style="stroke: #000000; stroke-width: 0.8"/>
      </defs>
      <g>
       <use xlink:href="#m9c7d77e6be" x="66.847872" y="184.958281" style="stroke: #000000; stroke-width: 0.8"/>
      </g>
     </g>
     <g id="text_1">
      <!-- 0.5 -->
      <g transform="translate(58.89631 199.555938) scale(0.1 -0.1)">
       <defs>
        <path id="DejaVuSans-13" d="M 2034 4250 
Q 1547 4250 1301 3770 
Q 1056 3291 1056 2328 
Q 1056 1369 1301 889 
Q 1547 409 2034 409 
Q 2525 409 2770 889 
Q 3016 1369 3016 2328 
Q 3016 3291 2770 3770 
Q 2525 4250 2034 4250 
z
M 2034 4750 
Q 2819 4750 3233 4129 
Q 3647 3509 3647 2328 
Q 3647 1150 3233 529 
Q 2819 -91 2034 -91 
Q 1250 -91 836 529 
Q 422 1150 422 2328 
Q 422 3509 836 4129 
Q 1250 4750 2034 4750 
z
" transform="scale(0.015625)"/>
        <path id="DejaVuSans-11" d="M 684 794 
L 1344 794 
L 1344 0 
L 684 0 
L 684 794 
z
" transform="scale(0.015625)"/>
        <path id="DejaVuSans-18" d="M 691 4666 
L 3169 4666 
L 3169 4134 
L 1269 4134 
L 1269 2991 
Q 1406 3038 1543 3061 
Q 1681 3084 1819 3084 
Q 2600 3084 3056 2656 
Q 3513 2228 3513 1497 
Q 3513 744 3044 326 
Q 2575 -91 1722 -91 
Q 1428 -91 1123 -41 
Q 819 9 494 109 
L 494 744 
Q 775 591 1075 516 
Q 1375 441 1709 441 
Q 2250 441 2565 725 
Q 2881 1009 2881 1497 
Q 2881 1984 2565 2268 
Q 2250 2553 1709 2553 
Q 1456 2553 1204 2497 
Q 953 2441 691 2322 
L 691 4666 
z
" transform="scale(0.015625)"/>
       </defs>
       <use xlink:href="#DejaVuSans-13"/>
       <use xlink:href="#DejaVuSans-11" transform="translate(63.625 0)"/>
       <use xlink:href="#DejaVuSans-18" transform="translate(95.40625 0)"/>
      </g>
     </g>
    </g>
    <g id="xtick_2">
     <g id="line2d_3">
      <path d="M 109.432826 184.958281 
L 109.432826 23.558281 
" clip-path="url(#p129ae6c94c)" style="fill: none; stroke: #b0b0b0; stroke-opacity: 0.25; stroke-width: 0.6; stroke-linecap: square"/>
     </g>
     <g id="line2d_4">
      <g>
       <use xlink:href="#m9c7d77e6be" x="109.432826" y="184.958281" style="stroke: #000000; stroke-width: 0.8"/>
      </g>
     </g>
     <g id="text_2">
      <!-- 1.0 -->
      <g transform="translate(101.481264 199.555938) scale(0.1 -0.1)">
       <defs>
        <path id="DejaVuSans-14" d="M 794 531 
L 1825 531 
L 1825 4091 
L 703 3866 
L 703 4441 
L 1819 4666 
L 2450 4666 
L 2450 531 
L 3481 531 
L 3481 0 
L 794 0 
L 794 531 
z
" transform="scale(0.015625)"/>
       </defs>
       <use xlink:href="#DejaVuSans-14"/>
       <use xlink:href="#DejaVuSans-11" transform="translate(63.625 0)"/>
       <use xlink:href="#DejaVuSans-13" transform="translate(95.40625 0)"/>
      </g>
     </g>
    </g>
    <g id="xtick_3">
     <g id="line2d_5">
      <path d="M 152.01778 184.958281 
L 152.01778 23.558281 
" clip-path="url(#p129ae6c94c)" style="fill: none; stroke: #b0b0b0; stroke-opacity: 0.25; stroke-width: 0.6; stroke-linecap: square"/>
     </g>
     <g id="line2d_6">
      <g>
       <use xlink:href="#m9c7d77e6be" x="152.01778" y="184.958281" style="stroke: #000000; stroke-width: 0.8"/>
      </g>
     </g>
     <g id="text_3">
      <!-- 1.5 -->
      <g transform="translate(144.066218 199.555938) scale(0.1 -0.1)">
       <use xlink:href="#DejaVuSans-14"/>
       <use xlink:href="#DejaVuSans-11" transform="translate(63.625 0)"/>
       <use xlink:href="#DejaVuSans-18" transform="translate(95.40625 0)"/>
      </g>
     </g>
    </g>
    <g id="xtick_4">
     <g id="line2d_7">
      <path d="M 194.602734 184.958281 
L 194.602734 23.558281 
" clip-path="url(#p129ae6c94c)" style="fill: none; stroke: #b0b0b0; stroke-opacity: 0.25; stroke-width: 0.6; stroke-linecap: square"/>
     </g>
     <g id="line2d_8">
      <g>
       <use xlink:href="#m9c7d77e6be" x="194.602734" y="184.958281" style="stroke: #000000; stroke-width: 0.8"/>
      </g>
     </g>
     <g id="text_4">
      <!-- 2.0 -->
      <g transform="translate(186.651172 199.555938) scale(0.1 -0.1)">
       <defs>
        <path id="DejaVuSans-15" d="M 1228 531 
L 3431 531 
L 3431 0 
L 469 0 
L 469 531 
Q 828 903 1448 1529 
Q 2069 2156 2228 2338 
Q 2531 2678 2651 2914 
Q 2772 3150 2772 3378 
Q 2772 3750 2511 3984 
Q 2250 4219 1831 4219 
Q 1534 4219 1204 4116 
Q 875 4013 500 3803 
L 500 4441 
Q 881 4594 1212 4672 
Q 1544 4750 1819 4750 
Q 2544 4750 2975 4387 
Q 3406 4025 3406 3419 
Q 3406 3131 3298 2873 
Q 3191 2616 2906 2266 
Q 2828 2175 2409 1742 
Q 1991 1309 1228 531 
z
" transform="scale(0.015625)"/>
       </defs>
       <use xlink:href="#DejaVuSans-15"/>
       <use xlink:href="#DejaVuSans-11" transform="translate(63.625 0)"/>
       <use xlink:href="#DejaVuSans-13" transform="translate(95.40625 0)"/>
      </g>
     </g>
    </g>
    <g id="xtick_5">
     <g id="line2d_9">
      <path d="M 237.187688 184.958281 
L 237.187688 23.558281 
" clip-path="url(#p129ae6c94c)" style="fill: none; stroke: #b0b0b0; stroke-opacity: 0.25; stroke-width: 0.6; stroke-linecap: square"/>
     </g>
     <g id="line2d_10">
      <g>
       <use xlink:href="#m9c7d77e6be" x="237.187688" y="184.958281" style="stroke: #000000; stroke-width: 0.8"/>
      </g>
     </g>
     <g id="text_5">
      <!-- 2.5 -->
      <g transform="translate(229.236126 199.555938) scale(0.1 -0.1)">
       <use xlink:href="#DejaVuSans-15"/>
       <use xlink:href="#DejaVuSans-11" transform="translate(63.625 0)"/>
       <use xlink:href="#DejaVuSans-18" transform="translate(95.40625 0)"/>
      </g>
     </g>
    </g>
    <g id="xtick_6">
     <g id="line2d_11">
      <path d="M 279.772643 184.958281 
L 279.772643 23.558281 
" clip-path="url(#p129ae6c94c)" style="fill: none; stroke: #b0b0b0; stroke-opacity: 0.25; stroke-width: 0.6; stroke-linecap: square"/>
     </g>
     <g id="line2d_12">
      <g>
       <use xlink:href="#m9c7d77e6be" x="279.772643" y="184.958281" style="stroke: #000000; stroke-width: 0.8"/>
      </g>
     </g>
     <g id="text_6">
      <!-- 3.0 -->
      <g transform="translate(271.82108 199.555938) scale(0.1 -0.1)">
       <defs>
        <path id="DejaVuSans-16" d="M 2597 2516 
Q 3050 2419 3304 2112 
Q 3559 1806 3559 1356 
Q 3559 666 3084 287 
Q 2609 -91 1734 -91 
Q 1441 -91 1130 -33 
Q 819 25 488 141 
L 488 750 
Q 750 597 1062 519 
Q 1375 441 1716 441 
Q 2309 441 2620 675 
Q 2931 909 2931 1356 
Q 2931 1769 2642 2001 
Q 2353 2234 1838 2234 
L 1294 2234 
L 1294 2753 
L 1863 2753 
Q 2328 2753 2575 2939 
Q 2822 3125 2822 3475 
Q 2822 3834 2567 4026 
Q 2313 4219 1838 4219 
Q 1578 4219 1281 4162 
Q 984 4106 628 3988 
L 628 4550 
Q 988 4650 1302 4700 
Q 1616 4750 1894 4750 
Q 2613 4750 3031 4423 
Q 3450 4097 3450 3541 
Q 3450 3153 3228 2886 
Q 3006 2619 2597 2516 
z
" transform="scale(0.015625)"/>
       </defs>
       <use xlink:href="#DejaVuSans-16"/>
       <use xlink:href="#DejaVuSans-11" transform="translate(63.625 0)"/>
       <use xlink:href="#DejaVuSans-13" transform="translate(95.40625 0)"/>
      </g>
     </g>
    </g>
    <g id="xtick_7">
     <g id="line2d_13">
      <path d="M 322.357597 184.958281 
L 322.357597 23.558281 
" clip-path="url(#p129ae6c94c)" style="fill: none; stroke: #b0b0b0; stroke-opacity: 0.25; stroke-width: 0.6; stroke-linecap: square"/>
     </g>
     <g id="line2d_14">
      <g>
       <use xlink:href="#m9c7d77e6be" x="322.357597" y="184.958281" style="stroke: #000000; stroke-width: 0.8"/>
      </g>
     </g>
     <g id="text_7">
      <!-- 3.5 -->
      <g transform="translate(314.406034 199.555938) scale(0.1 -0.1)">
       <use xlink:href="#DejaVuSans-16"/>
       <use xlink:href="#DejaVuSans-11" transform="translate(63.625 0)"/>
       <use xlink:href="#DejaVuSans-18" transform="translate(95.40625 0)"/>
      </g>
     </g>
    </g>
    <g id="text_8">
     <!-- x -->
     <g transform="translate(191.643359 213.555938) scale(0.1 -0.1)">
      <defs>
       <path id="DejaVuSans-5b" d="M 3513 3500 
L 2247 1797 
L 3578 0 
L 2900 0 
L 1881 1375 
L 863 0 
L 184 0 
L 1544 1831 
L 300 3500 
L 978 3500 
L 1906 2253 
L 2834 3500 
L 3513 3500 
z
" transform="scale(0.015625)"/>
      </defs>
      <use xlink:href="#DejaVuSans-5b"/>
     </g>
    </g>
   </g>
   <g id="matplotlib.axis_2">
    <g id="ytick_1">
     <g id="line2d_15">
      <path d="M 44.103906 177.621918 
L 345.101562 177.621918 
" clip-path="url(#p129ae6c94c)" style="fill: none; stroke: #b0b0b0; stroke-opacity: 0.25; stroke-width: 0.6; stroke-linecap: square"/>
     </g>
     <g id="line2d_16">
      <defs>
       <path id="mbd47af159d" d="M 0 0 
L -3.5 0 
" style="stroke: #000000; stroke-width: 0.8"/>
      </defs>
      <g>
       <use xlink:href="#mbd47af159d" x="44.103906" y="177.621918" style="stroke: #000000; stroke-width: 0.8"/>
      </g>
     </g>
     <g id="text_9">
      <!-- 0.0 -->
      <g transform="translate(21.200781 181.420746) scale(0.1 -0.1)">
       <use xlink:href="#DejaVuSans-13"/>
       <use xlink:href="#DejaVuSans-11" transform="translate(63.625 0)"/>
       <use xlink:href="#DejaVuSans-13" transform="translate(95.40625 0)"/>
      </g>
     </g>
    </g>
    <g id="ytick_2">
     <g id="line2d_17">
      <path d="M 44.103906 155.612293 
L 345.101562 155.612293 
" clip-path="url(#p129ae6c94c)" style="fill: none; stroke: #b0b0b0; stroke-opacity: 0.25; stroke-width: 0.6; stroke-linecap: square"/>
     </g>
     <g id="line2d_18">
      <g>
       <use xlink:href="#mbd47af159d" x="44.103906" y="155.612293" style="stroke: #000000; stroke-width: 0.8"/>
      </g>
     </g>
     <g id="text_10">
      <!-- 0.1 -->
      <g transform="translate(21.200781 159.411121) scale(0.1 -0.1)">
       <use xlink:href="#DejaVuSans-13"/>
       <use xlink:href="#DejaVuSans-11" transform="translate(63.625 0)"/>
       <use xlink:href="#DejaVuSans-14" transform="translate(95.40625 0)"/>
      </g>
     </g>
    </g>
    <g id="ytick_3">
     <g id="line2d_19">
      <path d="M 44.103906 133.602668 
L 345.101562 133.602668 
" clip-path="url(#p129ae6c94c)" style="fill: none; stroke: #b0b0b0; stroke-opacity: 0.25; stroke-width: 0.6; stroke-linecap: square"/>
     </g>
     <g id="line2d_20">
      <g>
       <use xlink:href="#mbd47af159d" x="44.103906" y="133.602668" style="stroke: #000000; stroke-width: 0.8"/>
      </g>
     </g>
     <g id="text_11">
      <!-- 0.2 -->
      <g transform="translate(21.200781 137.401496) scale(0.1 -0.1)">
       <use xlink:href="#DejaVuSans-13"/>
       <use xlink:href="#DejaVuSans-11" transform="translate(63.625 0)"/>
       <use xlink:href="#DejaVuSans-15" transform="translate(95.40625 0)"/>
      </g>
     </g>
    </g>
    <g id="ytick_4">
     <g id="line2d_21">
      <path d="M 44.103906 111.593043 
L 345.101562 111.593043 
" clip-path="url(#p129ae6c94c)" style="fill: none; stroke: #b0b0b0; stroke-opacity: 0.25; stroke-width: 0.6; stroke-linecap: square"/>
     </g>
     <g id="line2d_22">
      <g>
       <use xlink:href="#mbd47af159d" x="44.103906" y="111.593043" style="stroke: #000000; stroke-width: 0.8"/>
      </g>
     </g>
     <g id="text_12">
      <!-- 0.3 -->
      <g transform="translate(21.200781 115.391871) scale(0.1 -0.1)">
       <use xlink:href="#DejaVuSans-13"/>
       <use xlink:href="#DejaVuSans-11" transform="translate(63.625 0)"/>
       <use xlink:href="#DejaVuSans-16" transform="translate(95.40625 0)"/>
      </g>
     </g>
    </g>
    <g id="ytick_5">
     <g id="line2d_23">
      <path d="M 44.103906 89.583418 
L 345.101562 89.583418 
" clip-path="url(#p129ae6c94c)" style="fill: none; stroke: #b0b0b0; stroke-opacity: 0.25; stroke-width: 0.6; stroke-linecap: square"/>
     </g>
     <g id="line2d_24">
      <g>
       <use xlink:href="#mbd47af159d" x="44.103906" y="89.583418" style="stroke: #000000; stroke-width: 0.8"/>
      </g>
     </g>
     <g id="text_13">
      <!-- 0.4 -->
      <g transform="translate(21.200781 93.382246) scale(0.1 -0.1)">
       <defs>
        <path id="DejaVuSans-17" d="M 2419 4116 
L 825 1625 
L 2419 1625 
L 2419 4116 
z
M 2253 4666 
L 3047 4666 
L 3047 1625 
L 3713 1625 
L 3713 1100 
L 3047 1100 
L 3047 0 
L 2419 0 
L 2419 1100 
L 313 1100 
L 313 1709 
L 2253 4666 
z
" transform="scale(0.015625)"/>
       </defs>
       <use xlink:href="#DejaVuSans-13"/>
       <use xlink:href="#DejaVuSans-11" transform="translate(63.625 0)"/>
       <use xlink:href="#DejaVuSans-17" transform="translate(95.40625 0)"/>
      </g>
     </g>
    </g>
    <g id="ytick_6">
     <g id="line2d_25">
      <path d="M 44.103906 67.573793 
L 345.101562 67.573793 
" clip-path="url(#p129ae6c94c)" style="fill: none; stroke: #b0b0b0; stroke-opacity: 0.25; stroke-width: 0.6; stroke-linecap: square"/>
     </g>
     <g id="line2d_26">
      <g>
       <use xlink:href="#mbd47af159d" x="44.103906" y="67.573793" style="stroke: #000000; stroke-width: 0.8"/>
      </g>
     </g>
     <g id="text_14">
      <!-- 0.5 -->
      <g transform="translate(21.200781 71.372621) scale(0.1 -0.1)">
       <use xlink:href="#DejaVuSans-13"/>
       <use xlink:href="#DejaVuSans-11" transform="translate(63.625 0)"/>
       <use xlink:href="#DejaVuSans-18" transform="translate(95.40625 0)"/>
      </g>
     </g>
    </g>
    <g id="ytick_7">
     <g id="line2d_27">
      <path d="M 44.103906 45.564168 
L 345.101562 45.564168 
" clip-path="url(#p129ae6c94c)" style="fill: none; stroke: #b0b0b0; stroke-opacity: 0.25; stroke-width: 0.6; stroke-linecap: square"/>
     </g>
     <g id="line2d_28">
      <g>
       <use xlink:href="#mbd47af159d" x="44.103906" y="45.564168" style="stroke: #000000; stroke-width: 0.8"/>
      </g>
     </g>
     <g id="text_15">
      <!-- 0.6 -->
      <g transform="translate(21.200781 49.362996) scale(0.1 -0.1)">
       <defs>
        <path id="DejaVuSans-19" d="M 2113 2584 
Q 1688 2584 1439 2293 
Q 1191 2003 1191 1497 
Q 1191 994 1439 701 
Q 1688 409 2113 409 
Q 2538 409 2786 701 
Q 3034 994 3034 1497 
Q 3034 2003 2786 2293 
Q 2538 2584 2113 2584 
z
M 3366 4563 
L 3366 3988 
Q 3128 4100 2886 4159 
Q 2644 4219 2406 4219 
Q 1781 4219 1451 3797 
Q 1122 3375 1075 2522 
Q 1259 2794 1537 2939 
Q 1816 3084 2150 3084 
Q 2853 3084 3261 2657 
Q 3669 2231 3669 1497 
Q 3669 778 3244 343 
Q 2819 -91 2113 -91 
Q 1303 -91 875 529 
Q 447 1150 447 2328 
Q 447 3434 972 4092 
Q 1497 4750 2381 4750 
Q 2619 4750 2861 4703 
Q 3103 4656 3366 4563 
z
" transform="scale(0.015625)"/>
       </defs>
       <use xlink:href="#DejaVuSans-13"/>
       <use xlink:href="#DejaVuSans-11" transform="translate(63.625 0)"/>
       <use xlink:href="#DejaVuSans-19" transform="translate(95.40625 0)"/>
      </g>
     </g>
    </g>
    <g id="text_16">
     <!-- f(x) -->
     <g transform="translate(14.798438 112.879375) rotate(-90) scale(0.1 -0.1)">
      <defs>
       <path id="DejaVuSans-49" d="M 2375 4863 
L 2375 4384 
L 1825 4384 
Q 1516 4384 1395 4259 
Q 1275 4134 1275 3809 
L 1275 3500 
L 2222 3500 
L 2222 3053 
L 1275 3053 
L 1275 0 
L 697 0 
L 697 3053 
L 147 3053 
L 147 3500 
L 697 3500 
L 697 3744 
Q 697 4328 969 4595 
Q 1241 4863 1831 4863 
L 2375 4863 
z
" transform="scale(0.015625)"/>
       <path id="DejaVuSans-b" d="M 1984 4856 
Q 1566 4138 1362 3434 
Q 1159 2731 1159 2009 
Q 1159 1288 1364 580 
Q 1569 -128 1984 -844 
L 1484 -844 
Q 1016 -109 783 600 
Q 550 1309 550 2009 
Q 550 2706 781 3412 
Q 1013 4119 1484 4856 
L 1984 4856 
z
" transform="scale(0.015625)"/>
       <path id="DejaVuSans-c" d="M 513 4856 
L 1013 4856 
Q 1481 4119 1714 3412 
Q 1947 2706 1947 2009 
Q 1947 1309 1714 600 
Q 1481 -109 1013 -844 
L 513 -844 
Q 928 -128 1133 580 
Q 1338 1288 1338 2009 
Q 1338 2731 1133 3434 
Q 928 4138 513 4856 
z
" transform="scale(0.015625)"/>
      </defs>
      <use xlink:href="#DejaVuSans-49"/>
      <use xlink:href="#DejaVuSans-b" transform="translate(35.203125 0)"/>
      <use xlink:href="#DejaVuSans-5b" transform="translate(74.21875 0)"/>
      <use xlink:href="#DejaVuSans-c" transform="translate(133.40625 0)"/>
     </g>
    </g>
   </g>
   <g id="line2d_29">
    <path d="M 57.785618 175.385155 
L 61.900418 174.456251 
L 66.015219 173.300322 
L 70.130019 171.892549 
L 73.55902 170.509118 
L 76.98802 168.919195 
L 80.417021 167.108417 
L 83.846021 165.062422 
L 87.275021 162.766845 
L 90.704022 160.207323 
L 94.133022 157.369493 
L 97.562023 154.238991 
L 100.991023 150.801454 
L 104.420024 147.042519 
L 107.849024 142.947823 
L 111.278024 138.504493 
L 114.707025 133.728535 
L 118.821825 127.617741 
L 123.622426 120.059142 
L 129.108826 110.999364 
L 138.024228 95.757762 
L 148.311229 78.240822 
L 153.797629 69.309484 
L 158.59823 61.910097 
L 162.713031 55.970557 
L 166.142031 51.361838 
L 169.571031 47.10899 
L 173.000032 43.255103 
L 175.743232 40.488201 
L 178.486432 38.026274 
L 181.229633 35.891383 
L 183.972833 34.105592 
L 186.030233 33.008616 
L 188.087634 32.129726 
L 190.145034 31.47823 
L 192.202434 31.063433 
L 194.259834 30.894645 
L 196.317235 30.979377 
L 198.374635 31.313204 
L 200.432035 31.886835 
L 202.489435 32.690962 
L 204.546836 33.716276 
L 206.604236 34.953471 
L 209.347436 36.91657 
L 212.090636 39.217737 
L 214.833837 41.834909 
L 217.577037 44.746025 
L 221.006038 48.764667 
L 224.435038 53.165034 
L 227.864038 57.904036 
L 231.978839 63.977164 
L 236.779439 71.501034 
L 242.26584 80.533272 
L 250.495441 94.576388 
L 262.154043 114.439112 
L 267.640443 123.348264 
L 272.441044 130.720771 
L 276.555844 136.631725 
L 279.984845 141.212713 
L 283.413845 145.445736 
L 286.842845 149.337253 
L 290.271846 152.901625 
L 293.700846 156.153217 
L 297.129847 159.106392 
L 300.558847 161.775514 
L 303.987848 164.174945 
L 307.416848 166.31905 
L 310.845848 168.222191 
L 314.274849 169.898732 
L 317.703849 171.363036 
L 321.81865 172.860273 
L 325.93345 174.097392 
L 330.048251 175.099213 
L 331.419851 175.385155 
L 331.419851 175.385155 
" clip-path="url(#p129ae6c94c)" style="fill: none; stroke: #4c78a8; stroke-width: 2; stroke-linecap: square"/>
   </g>
   <g id="patch_3">
    <path d="M 44.103906 184.958281 
L 44.103906 23.558281 
" style="fill: none; stroke: #000000; stroke-width: 0.8; stroke-linejoin: miter; stroke-linecap: square"/>
   </g>
   <g id="patch_4">
    <path d="M 44.103906 184.958281 
L 345.101562 184.958281 
" style="fill: none; stroke: #000000; stroke-width: 0.8; stroke-linejoin: miter; stroke-linecap: square"/>
   </g>
   <g id="text_17">
    <!-- Irwinhall -->
    <g transform="translate(171.295625 15.558281) scale(0.11 -0.11)">
     <defs>
      <path id="DejaVuSans-2c" d="M 628 4666 
L 1259 4666 
L 1259 0 
L 628 0 
L 628 4666 
z
" transform="scale(0.015625)"/>
      <path id="DejaVuSans-55" d="M 2631 2963 
Q 2534 3019 2420 3045 
Q 2306 3072 2169 3072 
Q 1681 3072 1420 2755 
Q 1159 2438 1159 1844 
L 1159 0 
L 581 0 
L 581 3500 
L 1159 3500 
L 1159 2956 
Q 1341 3275 1631 3429 
Q 1922 3584 2338 3584 
Q 2397 3584 2469 3576 
Q 2541 3569 2628 3553 
L 2631 2963 
z
" transform="scale(0.015625)"/>
      <path id="DejaVuSans-5a" d="M 269 3500 
L 844 3500 
L 1563 769 
L 2278 3500 
L 2956 3500 
L 3675 769 
L 4391 3500 
L 4966 3500 
L 4050 0 
L 3372 0 
L 2619 2869 
L 1863 0 
L 1184 0 
L 269 3500 
z
" transform="scale(0.015625)"/>
      <path id="DejaVuSans-4c" d="M 603 3500 
L 1178 3500 
L 1178 0 
L 603 0 
L 603 3500 
z
M 603 4863 
L 1178 4863 
L 1178 4134 
L 603 4134 
L 603 4863 
z
" transform="scale(0.015625)"/>
      <path id="DejaVuSans-51" d="M 3513 2113 
L 3513 0 
L 2938 0 
L 2938 2094 
Q 2938 2591 2744 2837 
Q 2550 3084 2163 3084 
Q 1697 3084 1428 2787 
Q 1159 2491 1159 1978 
L 1159 0 
L 581 0 
L 581 3500 
L 1159 3500 
L 1159 2956 
Q 1366 3272 1645 3428 
Q 1925 3584 2291 3584 
Q 2894 3584 3203 3211 
Q 3513 2838 3513 2113 
z
" transform="scale(0.015625)"/>
      <path id="DejaVuSans-4b" d="M 3513 2113 
L 3513 0 
L 2938 0 
L 2938 2094 
Q 2938 2591 2744 2837 
Q 2550 3084 2163 3084 
Q 1697 3084 1428 2787 
Q 1159 2491 1159 1978 
L 1159 0 
L 581 0 
L 581 4863 
L 1159 4863 
L 1159 2956 
Q 1366 3272 1645 3428 
Q 1925 3584 2291 3584 
Q 2894 3584 3203 3211 
Q 3513 2838 3513 2113 
z
" transform="scale(0.015625)"/>
      <path id="DejaVuSans-44" d="M 2194 1759 
Q 1497 1759 1228 1600 
Q 959 1441 959 1056 
Q 959 750 1161 570 
Q 1363 391 1709 391 
Q 2188 391 2477 730 
Q 2766 1069 2766 1631 
L 2766 1759 
L 2194 1759 
z
M 3341 1997 
L 3341 0 
L 2766 0 
L 2766 531 
Q 2569 213 2275 61 
Q 1981 -91 1556 -91 
Q 1019 -91 701 211 
Q 384 513 384 1019 
Q 384 1609 779 1909 
Q 1175 2209 1959 2209 
L 2766 2209 
L 2766 2266 
Q 2766 2663 2505 2880 
Q 2244 3097 1772 3097 
Q 1472 3097 1187 3025 
Q 903 2953 641 2809 
L 641 3341 
Q 956 3463 1253 3523 
Q 1550 3584 1831 3584 
Q 2591 3584 2966 3190 
Q 3341 2797 3341 1997 
z
" transform="scale(0.015625)"/>
      <path id="DejaVuSans-4f" d="M 603 4863 
L 1178 4863 
L 1178 0 
L 603 0 
L 603 4863 
z
" transform="scale(0.015625)"/>
     </defs>
     <use xlink:href="#DejaVuSans-2c"/>
     <use xlink:href="#DejaVuSans-55" transform="translate(29.5 0)"/>
     <use xlink:href="#DejaVuSans-5a" transform="translate(70.609375 0)"/>
     <use xlink:href="#DejaVuSans-4c" transform="translate(152.390625 0)"/>
     <use xlink:href="#DejaVuSans-51" transform="translate(180.171875 0)"/>
     <use xlink:href="#DejaVuSans-4b" transform="translate(243.546875 0)"/>
     <use xlink:href="#DejaVuSans-44" transform="translate(306.921875 0)"/>
     <use xlink:href="#DejaVuSans-4f" transform="translate(368.203125 0)"/>
     <use xlink:href="#DejaVuSans-4f" transform="translate(395.984375 0)"/>
    </g>
   </g>
  </g>
 </g>
 <defs>
  <clipPath id="p129ae6c94c">
   <rect x="44.103906" y="23.558281" width="300.997656" height="161.4"/>
  </clipPath>
 </defs>
</svg>
