<?xml version="1.0" encoding="utf-8" standalone="no"?>
<!DOCTYPE svg PUBLIC "-//W3C//DTD SVG 1.1//EN"
  "http://www.w3.org/Graphics/SVG/1.1/DTD/svg11.dtd">
<svg xmlns:xlink="http://www.w3.org/1999/xlink" width="352.301562pt" height="223.158281pt" viewBox="0 0 352.301562 223.158281" xmlns="http://www.w3.org/2000/svg" version="1.1">
 <metadata>
  <rdf:RDF xmlns:dc="http://purl.org/dc/elements/1.1/" xmlns:cc="http://creativecommons.org/ns#" xmlns:rdf="http://www.w3.org/1999/02/22-rdf-syntax-ns#">
   <cc:Work>
    <dc:type rdf:resource="http://purl.org/dc/dcmitype/StillImage"/>
    <dc:date>2026-07-05T02:24:32.184253</dc:date>
    <dc:format>image/svg+xml</dc:format>
    <dc:creator>
     <cc:Agent>
      <dc:title>Matplotlib v3.11.0, https://matplotlib.org/</dc:title>
     </cc:Agent>
    </dc:creator>
   </cc:Work>
  </rdf:RDF>
 </metadata>
 <defs>
  <style type="text/css">*{stroke-linejoin: round; stroke-linecap: butt}</style>
 </defs>
 <g id="figure_1">
  <g id="patch_1">
   <path d="M 0 223.158281 
L 352.301562 223.158281 
L 352.301562 0 
L 0 0 
z
" style="fill: #ffffff"/>
  </g>
  <g id="axes_1">
   <g id="patch_2">
    <path d="M 44.103906 184.958281 
L 345.101562 184.958281 
L 345.101562 23.558281 
L 44.103906 23.558281 
z
" style="fill: #ffffff"/>
   </g>
   <g id="FillBetweenPolyCollection_1">
    <defs>
     <path id="m744e468f07" d="M 57.785618 -45.536364 
L 57.785618 -45.834425 
L 58.471418 -45.843856 
L 59.157218 -45.853585 
L 59.843018 -45.863622 
L 60.528818 -45.873977 
L 61.214618 -45.88466 
L 61.900418 -45.89568 
L 62.586218 -45.907049 
L 63.272019 -45.918778 
L 63.957819 -45.930878 
L 64.643619 -45.943361 
L 65.329419 -45.956239 
L 66.015219 -45.969525 
L 66.701019 -45.98323 
L 67.386819 -45.99737 
L 68.072619 -46.011956 
L 68.758419 -46.027005 
L 69.444219 -46.042529 
L 70.130019 -46.058545 
L 70.815819 -46.075067 
L 71.50162 -46.092113 
L 72.18742 -46.109697 
L 72.87322 -46.127838 
L 73.55902 -46.146553 
L 74.24482 -46.16586 
L 74.93062 -46.185778 
L 75.61642 -46.206326 
L 76.30222 -46.227525 
L 76.98802 -46.249394 
L 77.67382 -46.271955 
L 78.35962 -46.29523 
L 79.04542 -46.319241 
L 79.731221 -46.344013 
L 80.417021 -46.369568 
L 81.102821 -46.395931 
L 81.788621 -46.423129 
L 82.474421 -46.451187 
L 83.160221 -46.480133 
L 83.846021 -46.509995 
L 84.531821 -46.540802 
L 85.217621 -46.572584 
L 85.903421 -46.605371 
L 86.589221 -46.639196 
L 87.275021 -46.674091 
L 87.960822 -46.71009 
L 88.646622 -46.747228 
L 89.332422 -46.785541 
L 90.018222 -46.825066 
L 90.704022 -46.865842 
L 91.389822 -46.907909 
L 92.075622 -46.951306 
L 92.761422 -46.996076 
L 93.447222 -47.042264 
L 94.133022 -47.089912 
L 94.818822 -47.139068 
L 95.504622 -47.18978 
L 96.190423 -47.242096 
L 96.876223 -47.296067 
L 97.562023 -47.351746 
L 98.247823 -47.409187 
L 98.933623 -47.468445 
L 99.619423 -47.529579 
L 100.305223 -47.592646 
L 100.991023 -47.65771 
L 101.676823 -47.724831 
L 102.362623 -47.794077 
L 103.048423 -47.865514 
L 103.734223 -47.939211 
L 104.420024 -48.01524 
L 105.105824 -48.093675 
L 105.791624 -48.174591 
L 106.477424 -48.258067 
L 107.163224 -48.344185 
L 107.849024 -48.433028 
L 108.534824 -48.524682 
L 109.220624 -48.619236 
L 109.906424 -48.716782 
L 110.592224 -48.817414 
L 111.278024 -48.92123 
L 111.963824 -49.028332 
L 112.649625 -49.138822 
L 113.335425 -49.252808 
L 114.021225 -49.3704 
L 114.707025 -49.491714 
L 115.392825 -49.616866 
L 116.078625 -49.745978 
L 116.764425 -49.879175 
L 117.450225 -50.016586 
L 118.136025 -50.158346 
L 118.821825 -50.304591 
L 119.507625 -50.455463 
L 120.193425 -50.61111 
L 120.879225 -50.771681 
L 121.565026 -50.937332 
L 122.250826 -51.108225 
L 122.936626 -51.284525 
L 123.622426 -51.466404 
L 124.308226 -51.654038 
L 124.994026 -51.847608 
L 125.679826 -52.047303 
L 126.365626 -52.253317 
L 127.051426 -52.46585 
L 127.737226 -52.685107 
L 128.423026 -52.911301 
L 129.108826 -53.144653 
L 129.794627 -53.385389 
L 130.480427 -53.633741 
L 131.166227 -53.889952 
L 131.852027 -54.154269 
L 132.537827 -54.42695 
L 133.223627 -54.708258 
L 133.909427 -54.998468 
L 134.595227 -55.29786 
L 135.281027 -55.606726 
L 135.966827 -55.925364 
L 136.652627 -56.254084 
L 137.338427 -56.593205 
L 138.024228 -56.943057 
L 138.710028 -57.303978 
L 139.395828 -57.67632 
L 140.081628 -58.060442 
L 140.767428 -58.456719 
L 141.453228 -58.865534 
L 142.139028 -59.287285 
L 142.824828 -59.72238 
L 143.510628 -60.171243 
L 144.196428 -60.634308 
L 144.882228 -61.112025 
L 145.568028 -61.604857 
L 146.253829 -62.113283 
L 146.939629 -62.637796 
L 147.625429 -63.178906 
L 148.311229 -63.737137 
L 148.997029 -64.313031 
L 149.682829 -64.907147 
L 150.368629 -65.520062 
L 151.054429 -66.152369 
L 151.740229 -66.804684 
L 152.426029 -67.477639 
L 153.111829 -68.171887 
L 153.797629 -68.888102 
L 154.48343 -69.626979 
L 155.16923 -70.389234 
L 155.85503 -71.175608 
L 156.54083 -71.986865 
L 157.22663 -72.82379 
L 157.91243 -73.687196 
L 158.59823 -74.577922 
L 159.28403 -75.496831 
L 159.96983 -76.444816 
L 160.65563 -77.422796 
L 161.34143 -78.431721 
L 162.02723 -79.472569 
L 162.713031 -80.54635 
L 163.398831 -81.654108 
L 164.084631 -82.796916 
L 164.770431 -83.975884 
L 165.456231 -85.192156 
L 166.142031 -86.446912 
L 166.827831 -87.741371 
L 167.513631 -89.076787 
L 168.199431 -90.454458 
L 168.885231 -91.875719 
L 169.571031 -93.341952 
L 170.256831 -94.854577 
L 170.942632 -96.415064 
L 171.628432 -98.024926 
L 172.314232 -99.685726 
L 173.000032 -101.399076 
L 173.685832 -103.166639 
L 174.371632 -104.990129 
L 175.057432 -106.871317 
L 175.743232 -108.812027 
L 176.429032 -110.814144 
L 177.114832 -112.879611 
L 177.800632 -115.010431 
L 178.486432 -117.208673 
L 179.172233 -119.476469 
L 179.858033 -121.816022 
L 180.543833 -124.229601 
L 181.229633 -126.719548 
L 181.915433 -129.28828 
L 182.601233 -131.93829 
L 183.287033 -134.67215 
L 183.972833 -137.492511 
L 184.658633 -140.402113 
L 185.344433 -143.403778 
L 186.030233 -146.500419 
L 186.716033 -149.695041 
L 187.401834 -152.990745 
L 188.087634 -156.390729 
L 188.773434 -159.898292 
L 189.459234 -163.516839 
L 190.145034 -167.249882 
L 190.830834 -171.101041 
L 191.516634 -175.074057 
L 192.202434 -179.172783 
L 192.888234 -183.401198 
L 193.574034 -187.763404 
L 194.259834 -192.263636 
L 194.945634 -192.263636 
L 195.631434 -187.763404 
L 196.317235 -183.401198 
L 197.003035 -179.172783 
L 197.688835 -175.074057 
L 198.374635 -171.101041 
L 199.060435 -167.249882 
L 199.746235 -163.516839 
L 200.432035 -159.898292 
L 201.117835 -156.390729 
L 201.803635 -152.990745 
L 202.489435 -149.695041 
L 203.175235 -146.500419 
L 203.861035 -143.403778 
L 204.546836 -140.402113 
L 205.232636 -137.492511 
L 205.918436 -134.67215 
L 206.604236 -131.93829 
L 207.290036 -129.28828 
L 207.975836 -126.719548 
L 208.661636 -124.229601 
L 209.347436 -121.816022 
L 210.033236 -119.476469 
L 210.719036 -117.208673 
L 211.404836 -115.010431 
L 212.090636 -112.879611 
L 212.776437 -110.814144 
L 213.462237 -108.812027 
L 214.148037 -106.871317 
L 214.833837 -104.990129 
L 215.519637 -103.166639 
L 216.205437 -101.399076 
L 216.891237 -99.685726 
L 217.577037 -98.024926 
L 218.262837 -96.415064 
L 218.948637 -94.854577 
L 219.634437 -93.341952 
L 220.320237 -91.875719 
L 221.006038 -90.454458 
L 221.691838 -89.076787 
L 222.377638 -87.741371 
L 223.063438 -86.446912 
L 223.749238 -85.192156 
L 224.435038 -83.975884 
L 225.120838 -82.796916 
L 225.806638 -81.654108 
L 226.492438 -80.54635 
L 227.178238 -79.472569 
L 227.864038 -78.431721 
L 228.549838 -77.422796 
L 229.235639 -76.444816 
L 229.921439 -75.496831 
L 230.607239 -74.577922 
L 231.293039 -73.687196 
L 231.978839 -72.82379 
L 232.664639 -71.986865 
L 233.350439 -71.175608 
L 234.036239 -70.389234 
L 234.722039 -69.626979 
L 235.407839 -68.888102 
L 236.093639 -68.171887 
L 236.779439 -67.477639 
L 237.46524 -66.804684 
L 238.15104 -66.152369 
L 238.83684 -65.520062 
L 239.52264 -64.907147 
L 240.20844 -64.313031 
L 240.89424 -63.737137 
L 241.58004 -63.178906 
L 242.26584 -62.637796 
L 242.95164 -62.113283 
L 243.63744 -61.604857 
L 244.32324 -61.112025 
L 245.00904 -60.634308 
L 245.694841 -60.171243 
L 246.380641 -59.72238 
L 247.066441 -59.287285 
L 247.752241 -58.865534 
L 248.438041 -58.456719 
L 249.123841 -58.060442 
L 249.809641 -57.67632 
L 250.495441 -57.303978 
L 251.181241 -56.943057 
L 251.867041 -56.593205 
L 252.552841 -56.254084 
L 253.238641 -55.925364 
L 253.924442 -55.606726 
L 254.610242 -55.29786 
L 255.296042 -54.998468 
L 255.981842 -54.708258 
L 256.667642 -54.42695 
L 257.353442 -54.154269 
L 258.039242 -53.889952 
L 258.725042 -53.633741 
L 259.410842 -53.385389 
L 260.096642 -53.144653 
L 260.782442 -52.911301 
L 261.468242 -52.685107 
L 262.154043 -52.46585 
L 262.839843 -52.253317 
L 263.525643 -52.047303 
L 264.211443 -51.847608 
L 264.897243 -51.654038 
L 265.583043 -51.466404 
L 266.268843 -51.284525 
L 266.954643 -51.108225 
L 267.640443 -50.937332 
L 268.326243 -50.771681 
L 269.012043 -50.61111 
L 269.697843 -50.455463 
L 270.383644 -50.304591 
L 271.069444 -50.158346 
L 271.755244 -50.016586 
L 272.441044 -49.879175 
L 273.126844 -49.745978 
L 273.812644 -49.616866 
L 274.498444 -49.491714 
L 275.184244 -49.3704 
L 275.870044 -49.252808 
L 276.555844 -49.138822 
L 277.241644 -49.028332 
L 277.927444 -48.92123 
L 278.613244 -48.817414 
L 279.299045 -48.716782 
L 279.984845 -48.619236 
L 280.670645 -48.524682 
L 281.356445 -48.433028 
L 282.042245 -48.344185 
L 282.728045 -48.258067 
L 283.413845 -48.174591 
L 284.099645 -48.093675 
L 284.785445 -48.01524 
L 285.471245 -47.939211 
L 286.157045 -47.865514 
L 286.842845 -47.794077 
L 287.528646 -47.724831 
L 288.214446 -47.65771 
L 288.900246 -47.592646 
L 289.586046 -47.529579 
L 290.271846 -47.468445 
L 290.957646 -47.409187 
L 291.643446 -47.351746 
L 292.329246 -47.296067 
L 293.015046 -47.242096 
L 293.700846 -47.18978 
L 294.386646 -47.139068 
L 295.072446 -47.089912 
L 295.758247 -47.042264 
L 296.444047 -46.996076 
L 297.129847 -46.951306 
L 297.815647 -46.907909 
L 298.501447 -46.865842 
L 299.187247 -46.825066 
L 299.873047 -46.785541 
L 300.558847 -46.747228 
L 301.244647 -46.71009 
L 301.930447 -46.674091 
L 302.616247 -46.639196 
L 303.302047 -46.605371 
L 303.987848 -46.572584 
L 304.673648 -46.540802 
L 305.359448 -46.509995 
L 306.045248 -46.480133 
L 306.731048 -46.451187 
L 307.416848 -46.423129 
L 308.102648 -46.395931 
L 308.788448 -46.369568 
L 309.474248 -46.344013 
L 310.160048 -46.319241 
L 310.845848 -46.29523 
L 311.531648 -46.271955 
L 312.217449 -46.249394 
L 312.903249 -46.227525 
L 313.589049 -46.206326 
L 314.274849 -46.185778 
L 314.960649 -46.16586 
L 315.646449 -46.146553 
L 316.332249 -46.127838 
L 317.018049 -46.109697 
L 317.703849 -46.092113 
L 318.389649 -46.075067 
L 319.075449 -46.058545 
L 319.761249 -46.042529 
L 320.44705 -46.027005 
L 321.13285 -46.011956 
L 321.81865 -45.99737 
L 322.50445 -45.98323 
L 323.19025 -45.969525 
L 323.87605 -45.956239 
L 324.56185 -45.943361 
L 325.24765 -45.930878 
L 325.93345 -45.918778 
L 326.61925 -45.907049 
L 327.30505 -45.89568 
L 327.99085 -45.88466 
L 328.676651 -45.873977 
L 329.362451 -45.863622 
L 330.048251 -45.853585 
L 330.734051 -45.843856 
L 331.419851 -45.834425 
L 331.419851 -45.536364 
L 331.419851 -45.536364 
L 330.734051 -45.536364 
L 330.048251 -45.536364 
L 329.362451 -45.536364 
L 328.676651 -45.536364 
L 327.99085 -45.536364 
L 327.30505 -45.536364 
L 326.61925 -45.536364 
L 325.93345 -45.536364 
L 325.24765 -45.536364 
L 324.56185 -45.536364 
L 323.87605 -45.536364 
L 323.19025 -45.536364 
L 322.50445 -45.536364 
L 321.81865 -45.536364 
L 321.13285 -45.536364 
L 320.44705 -45.536364 
L 319.761249 -45.536364 
L 319.075449 -45.536364 
L 318.389649 -45.536364 
L 317.703849 -45.536364 
L 317.018049 -45.536364 
L 316.332249 -45.536364 
L 315.646449 -45.536364 
L 314.960649 -45.536364 
L 314.274849 -45.536364 
L 313.589049 -45.536364 
L 312.903249 -45.536364 
L 312.217449 -45.536364 
L 311.531648 -45.536364 
L 310.845848 -45.536364 
L 310.160048 -45.536364 
L 309.474248 -45.536364 
L 308.788448 -45.536364 
L 308.102648 -45.536364 
L 307.416848 -45.536364 
L 306.731048 -45.536364 
L 306.045248 -45.536364 
L 305.359448 -45.536364 
L 304.673648 -45.536364 
L 303.987848 -45.536364 
L 303.302047 -45.536364 
L 302.616247 -45.536364 
L 301.930447 -45.536364 
L 301.244647 -45.536364 
L 300.558847 -45.536364 
L 299.873047 -45.536364 
L 299.187247 -45.536364 
L 298.501447 -45.536364 
L 297.815647 -45.536364 
L 297.129847 -45.536364 
L 296.444047 -45.536364 
L 295.758247 -45.536364 
L 295.072446 -45.536364 
L 294.386646 -45.536364 
L 293.700846 -45.536364 
L 293.015046 -45.536364 
L 292.329246 -45.536364 
L 291.643446 -45.536364 
L 290.957646 -45.536364 
L 290.271846 -45.536364 
L 289.586046 -45.536364 
L 288.900246 -45.536364 
L 288.214446 -45.536364 
L 287.528646 -45.536364 
L 286.842845 -45.536364 
L 286.157045 -45.536364 
L 285.471245 -45.536364 
L 284.785445 -45.536364 
L 284.099645 -45.536364 
L 283.413845 -45.536364 
L 282.728045 -45.536364 
L 282.042245 -45.536364 
L 281.356445 -45.536364 
L 280.670645 -45.536364 
L 279.984845 -45.536364 
L 279.299045 -45.536364 
L 278.613244 -45.536364 
L 277.927444 -45.536364 
L 277.241644 -45.536364 
L 276.555844 -45.536364 
L 275.870044 -45.536364 
L 275.184244 -45.536364 
L 274.498444 -45.536364 
L 273.812644 -45.536364 
L 273.126844 -45.536364 
L 272.441044 -45.536364 
L 271.755244 -45.536364 
L 271.069444 -45.536364 
L 270.383644 -45.536364 
L 269.697843 -45.536364 
L 269.012043 -45.536364 
L 268.326243 -45.536364 
L 267.640443 -45.536364 
L 266.954643 -45.536364 
L 266.268843 -45.536364 
L 265.583043 -45.536364 
L 264.897243 -45.536364 
L 264.211443 -45.536364 
L 263.525643 -45.536364 
L 262.839843 -45.536364 
L 262.154043 -45.536364 
L 261.468242 -45.536364 
L 260.782442 -45.536364 
L 260.096642 -45.536364 
L 259.410842 -45.536364 
L 258.725042 -45.536364 
L 258.039242 -45.536364 
L 257.353442 -45.536364 
L 256.667642 -45.536364 
L 255.981842 -45.536364 
L 255.296042 -45.536364 
L 254.610242 -45.536364 
L 253.924442 -45.536364 
L 253.238641 -45.536364 
L 252.552841 -45.536364 
L 251.867041 -45.536364 
L 251.181241 -45.536364 
L 250.495441 -45.536364 
L 249.809641 -45.536364 
L 249.123841 -45.536364 
L 248.438041 -45.536364 
L 247.752241 -45.536364 
L 247.066441 -45.536364 
L 246.380641 -45.536364 
L 245.694841 -45.536364 
L 245.00904 -45.536364 
L 244.32324 -45.536364 
L 243.63744 -45.536364 
L 242.95164 -45.536364 
L 242.26584 -45.536364 
L 241.58004 -45.536364 
L 240.89424 -45.536364 
L 240.20844 -45.536364 
L 239.52264 -45.536364 
L 238.83684 -45.536364 
L 238.15104 -45.536364 
L 237.46524 -45.536364 
L 236.779439 -45.536364 
L 236.093639 -45.536364 
L 235.407839 -45.536364 
L 234.722039 -45.536364 
L 234.036239 -45.536364 
L 233.350439 -45.536364 
L 232.664639 -45.536364 
L 231.978839 -45.536364 
L 231.293039 -45.536364 
L 230.607239 -45.536364 
L 229.921439 -45.536364 
L 229.235639 -45.536364 
L 228.549838 -45.536364 
L 227.864038 -45.536364 
L 227.178238 -45.536364 
L 226.492438 -45.536364 
L 225.806638 -45.536364 
L 225.120838 -45.536364 
L 224.435038 -45.536364 
L 223.749238 -45.536364 
L 223.063438 -45.536364 
L 222.377638 -45.536364 
L 221.691838 -45.536364 
L 221.006038 -45.536364 
L 220.320237 -45.536364 
L 219.634437 -45.536364 
L 218.948637 -45.536364 
L 218.262837 -45.536364 
L 217.577037 -45.536364 
L 216.891237 -45.536364 
L 216.205437 -45.536364 
L 215.519637 -45.536364 
L 214.833837 -45.536364 
L 214.148037 -45.536364 
L 213.462237 -45.536364 
L 212.776437 -45.536364 
L 212.090636 -45.536364 
L 211.404836 -45.536364 
L 210.719036 -45.536364 
L 210.033236 -45.536364 
L 209.347436 -45.536364 
L 208.661636 -45.536364 
L 207.975836 -45.536364 
L 207.290036 -45.536364 
L 206.604236 -45.536364 
L 205.918436 -45.536364 
L 205.232636 -45.536364 
L 204.546836 -45.536364 
L 203.861035 -45.536364 
L 203.175235 -45.536364 
L 202.489435 -45.536364 
L 201.803635 -45.536364 
L 201.117835 -45.536364 
L 200.432035 -45.536364 
L 199.746235 -45.536364 
L 199.060435 -45.536364 
L 198.374635 -45.536364 
L 197.688835 -45.536364 
L 197.003035 -45.536364 
L 196.317235 -45.536364 
L 195.631434 -45.536364 
L 194.945634 -45.536364 
L 194.259834 -45.536364 
L 193.574034 -45.536364 
L 192.888234 -45.536364 
L 192.202434 -45.536364 
L 191.516634 -45.536364 
L 190.830834 -45.536364 
L 190.145034 -45.536364 
L 189.459234 -45.536364 
L 188.773434 -45.536364 
L 188.087634 -45.536364 
L 187.401834 -45.536364 
L 186.716033 -45.536364 
L 186.030233 -45.536364 
L 185.344433 -45.536364 
L 184.658633 -45.536364 
L 183.972833 -45.536364 
L 183.287033 -45.536364 
L 182.601233 -45.536364 
L 181.915433 -45.536364 
L 181.229633 -45.536364 
L 180.543833 -45.536364 
L 179.858033 -45.536364 
L 179.172233 -45.536364 
L 178.486432 -45.536364 
L 177.800632 -45.536364 
L 177.114832 -45.536364 
L 176.429032 -45.536364 
L 175.743232 -45.536364 
L 175.057432 -45.536364 
L 174.371632 -45.536364 
L 173.685832 -45.536364 
L 173.000032 -45.536364 
L 172.314232 -45.536364 
L 171.628432 -45.536364 
L 170.942632 -45.536364 
L 170.256831 -45.536364 
L 169.571031 -45.536364 
L 168.885231 -45.536364 
L 168.199431 -45.536364 
L 167.513631 -45.536364 
L 166.827831 -45.536364 
L 166.142031 -45.536364 
L 165.456231 -45.536364 
L 164.770431 -45.536364 
L 164.084631 -45.536364 
L 163.398831 -45.536364 
L 162.713031 -45.536364 
L 162.02723 -45.536364 
L 161.34143 -45.536364 
L 160.65563 -45.536364 
L 159.96983 -45.536364 
L 159.28403 -45.536364 
L 158.59823 -45.536364 
L 157.91243 -45.536364 
L 157.22663 -45.536364 
L 156.54083 -45.536364 
L 155.85503 -45.536364 
L 155.16923 -45.536364 
L 154.48343 -45.536364 
L 153.797629 -45.536364 
L 153.111829 -45.536364 
L 152.426029 -45.536364 
L 151.740229 -45.536364 
L 151.054429 -45.536364 
L 150.368629 -45.536364 
L 149.682829 -45.536364 
L 148.997029 -45.536364 
L 148.311229 -45.536364 
L 147.625429 -45.536364 
L 146.939629 -45.536364 
L 146.253829 -45.536364 
L 145.568028 -45.536364 
L 144.882228 -45.536364 
L 144.196428 -45.536364 
L 143.510628 -45.536364 
L 142.824828 -45.536364 
L 142.139028 -45.536364 
L 141.453228 -45.536364 
L 140.767428 -45.536364 
L 140.081628 -45.536364 
L 139.395828 -45.536364 
L 138.710028 -45.536364 
L 138.024228 -45.536364 
L 137.338427 -45.536364 
L 136.652627 -45.536364 
L 135.966827 -45.536364 
L 135.281027 -45.536364 
L 134.595227 -45.536364 
L 133.909427 -45.536364 
L 133.223627 -45.536364 
L 132.537827 -45.536364 
L 131.852027 -45.536364 
L 131.166227 -45.536364 
L 130.480427 -45.536364 
L 129.794627 -45.536364 
L 129.108826 -45.536364 
L 128.423026 -45.536364 
L 127.737226 -45.536364 
L 127.051426 -45.536364 
L 126.365626 -45.536364 
L 125.679826 -45.536364 
L 124.994026 -45.536364 
L 124.308226 -45.536364 
L 123.622426 -45.536364 
L 122.936626 -45.536364 
L 122.250826 -45.536364 
L 121.565026 -45.536364 
L 120.879225 -45.536364 
L 120.193425 -45.536364 
L 119.507625 -45.536364 
L 118.821825 -45.536364 
L 118.136025 -45.536364 
L 117.450225 -45.536364 
L 116.764425 -45.536364 
L 116.078625 -45.536364 
L 115.392825 -45.536364 
L 114.707025 -45.536364 
L 114.021225 -45.536364 
L 113.335425 -45.536364 
L 112.649625 -45.536364 
L 111.963824 -45.536364 
L 111.278024 -45.536364 
L 110.592224 -45.536364 
L 109.906424 -45.536364 
L 109.220624 -45.536364 
L 108.534824 -45.536364 
L 107.849024 -45.536364 
L 107.163224 -45.536364 
L 106.477424 -45.536364 
L 105.791624 -45.536364 
L 105.105824 -45.536364 
L 104.420024 -45.536364 
L 103.734223 -45.536364 
L 103.048423 -45.536364 
L 102.362623 -45.536364 
L 101.676823 -45.536364 
L 100.991023 -45.536364 
L 100.305223 -45.536364 
L 99.619423 -45.536364 
L 98.933623 -45.536364 
L 98.247823 -45.536364 
L 97.562023 -45.536364 
L 96.876223 -45.536364 
L 96.190423 -45.536364 
L 95.504622 -45.536364 
L 94.818822 -45.536364 
L 94.133022 -45.536364 
L 93.447222 -45.536364 
L 92.761422 -45.536364 
L 92.075622 -45.536364 
L 91.389822 -45.536364 
L 90.704022 -45.536364 
L 90.018222 -45.536364 
L 89.332422 -45.536364 
L 88.646622 -45.536364 
L 87.960822 -45.536364 
L 87.275021 -45.536364 
L 86.589221 -45.536364 
L 85.903421 -45.536364 
L 85.217621 -45.536364 
L 84.531821 -45.536364 
L 83.846021 -45.536364 
L 83.160221 -45.536364 
L 82.474421 -45.536364 
L 81.788621 -45.536364 
L 81.102821 -45.536364 
L 80.417021 -45.536364 
L 79.731221 -45.536364 
L 79.04542 -45.536364 
L 78.35962 -45.536364 
L 77.67382 -45.536364 
L 76.98802 -45.536364 
L 76.30222 -45.536364 
L 75.61642 -45.536364 
L 74.93062 -45.536364 
L 74.24482 -45.536364 
L 73.55902 -45.536364 
L 72.87322 -45.536364 
L 72.18742 -45.536364 
L 71.50162 -45.536364 
L 70.815819 -45.536364 
L 70.130019 -45.536364 
L 69.444219 -45.536364 
L 68.758419 -45.536364 
L 68.072619 -45.536364 
L 67.386819 -45.536364 
L 66.701019 -45.536364 
L 66.015219 -45.536364 
L 65.329419 -45.536364 
L 64.643619 -45.536364 
L 63.957819 -45.536364 
L 63.272019 -45.536364 
L 62.586218 -45.536364 
L 61.900418 -45.536364 
L 61.214618 -45.536364 
L 60.528818 -45.536364 
L 59.843018 -45.536364 
L 59.157218 -45.536364 
L 58.471418 -45.536364 
L 57.785618 -45.536364 
z
" style="stroke: #4c78a8; stroke-opacity: 0.15"/>
    </defs>
    <g clip-path="url(#pd66828b2d0)">
     <use xlink:href="#m744e468f07" x="0" y="223.158281" style="fill: #4c78a8; fill-opacity: 0.15; stroke: #4c78a8; stroke-opacity: 0.15"/>
    </g>
   </g>
   <g id="matplotlib.axis_1">
    <g id="xtick_1">
     <g id="line2d_1">
      <path d="M 62.510302 184.958281 
L 62.510302 23.558281 
" clip-path="url(#pd66828b2d0)" style="fill: none; stroke: #b0b0b0; stroke-opacity: 0.25; stroke-width: 0.6; stroke-linecap: square"/>
     </g>
     <g id="line2d_2">
      <defs>
       <path id="m3089383a22" d="M 0 0 
L 0 3.5 
" style="stroke: #000000; stroke-width: 0.8"/>
      </defs>
      <g>
       <use xlink:href="#m3089383a22" x="62.510302" y="184.958281" style="stroke: #000000; stroke-width: 0.8"/>
      </g>
     </g>
     <g id="text_1">
      <!-- −6 -->
      <g transform="translate(55.139208 199.555938) scale(0.1 -0.1)">
       <defs>
        <path id="DejaVuSans-c9c" d="M 678 2272 
L 4684 2272 
L 4684 1741 
L 678 1741 
L 678 2272 
z
" transform="scale(0.015625)"/>
        <path id="DejaVuSans-19" d="M 2113 2584 
Q 1688 2584 1439 2293 
Q 1191 2003 1191 1497 
Q 1191 994 1439 701 
Q 1688 409 2113 409 
Q 2538 409 2786 701 
Q 3034 994 3034 1497 
Q 3034 2003 2786 2293 
Q 2538 2584 2113 2584 
z
M 3366 4563 
L 3366 3988 
Q 3128 4100 2886 4159 
Q 2644 4219 2406 4219 
Q 1781 4219 1451 3797 
Q 1122 3375 1075 2522 
Q 1259 2794 1537 2939 
Q 1816 3084 2150 3084 
Q 2853 3084 3261 2657 
Q 3669 2231 3669 1497 
Q 3669 778 3244 343 
Q 2819 -91 2113 -91 
Q 1303 -91 875 529 
Q 447 1150 447 2328 
Q 447 3434 972 4092 
Q 1497 4750 2381 4750 
Q 2619 4750 2861 4703 
Q 3103 4656 3366 4563 
z
" transform="scale(0.015625)"/>
       </defs>
       <use xlink:href="#DejaVuSans-c9c"/>
       <use xlink:href="#DejaVuSans-19" transform="translate(83.796875 0)"/>
      </g>
     </g>
    </g>
    <g id="xtick_2">
     <g id="line2d_3">
      <path d="M 106.541113 184.958281 
L 106.541113 23.558281 
" clip-path="url(#pd66828b2d0)" style="fill: none; stroke: #b0b0b0; stroke-opacity: 0.25; stroke-width: 0.6; stroke-linecap: square"/>
     </g>
     <g id="line2d_4">
      <g>
       <use xlink:href="#m3089383a22" x="106.541113" y="184.958281" style="stroke: #000000; stroke-width: 0.8"/>
      </g>
     </g>
     <g id="text_2">
      <!-- −4 -->
      <g transform="translate(99.170019 199.555938) scale(0.1 -0.1)">
       <defs>
        <path id="DejaVuSans-17" d="M 2419 4116 
L 825 1625 
L 2419 1625 
L 2419 4116 
z
M 2253 4666 
L 3047 4666 
L 3047 1625 
L 3713 1625 
L 3713 1100 
L 3047 1100 
L 3047 0 
L 2419 0 
L 2419 1100 
L 313 1100 
L 313 1709 
L 2253 4666 
z
" transform="scale(0.015625)"/>
       </defs>
       <use xlink:href="#DejaVuSans-c9c"/>
       <use xlink:href="#DejaVuSans-17" transform="translate(83.796875 0)"/>
      </g>
     </g>
    </g>
    <g id="xtick_3">
     <g id="line2d_5">
      <path d="M 150.571924 184.958281 
L 150.571924 23.558281 
" clip-path="url(#pd66828b2d0)" style="fill: none; stroke: #b0b0b0; stroke-opacity: 0.25; stroke-width: 0.6; stroke-linecap: square"/>
     </g>
     <g id="line2d_6">
      <g>
       <use xlink:href="#m3089383a22" x="150.571924" y="184.958281" style="stroke: #000000; stroke-width: 0.8"/>
      </g>
     </g>
     <g id="text_3">
      <!-- −2 -->
      <g transform="translate(143.20083 199.555938) scale(0.1 -0.1)">
       <defs>
        <path id="DejaVuSans-15" d="M 1228 531 
L 3431 531 
L 3431 0 
L 469 0 
L 469 531 
Q 828 903 1448 1529 
Q 2069 2156 2228 2338 
Q 2531 2678 2651 2914 
Q 2772 3150 2772 3378 
Q 2772 3750 2511 3984 
Q 2250 4219 1831 4219 
Q 1534 4219 1204 4116 
Q 875 4013 500 3803 
L 500 4441 
Q 881 4594 1212 4672 
Q 1544 4750 1819 4750 
Q 2544 4750 2975 4387 
Q 3406 4025 3406 3419 
Q 3406 3131 3298 2873 
Q 3191 2616 2906 2266 
Q 2828 2175 2409 1742 
Q 1991 1309 1228 531 
z
" transform="scale(0.015625)"/>
       </defs>
       <use xlink:href="#DejaVuSans-c9c"/>
       <use xlink:href="#DejaVuSans-15" transform="translate(83.796875 0)"/>
      </g>
     </g>
    </g>
    <g id="xtick_4">
     <g id="line2d_7">
      <path d="M 194.602734 184.958281 
L 194.602734 23.558281 
" clip-path="url(#pd66828b2d0)" style="fill: none; stroke: #b0b0b0; stroke-opacity: 0.25; stroke-width: 0.6; stroke-linecap: square"/>
     </g>
     <g id="line2d_8">
      <g>
       <use xlink:href="#m3089383a22" x="194.602734" y="184.958281" style="stroke: #000000; stroke-width: 0.8"/>
      </g>
     </g>
     <g id="text_4">
      <!-- 0 -->
      <g transform="translate(191.421484 199.555938) scale(0.1 -0.1)">
       <defs>
        <path id="DejaVuSans-13" d="M 2034 4250 
Q 1547 4250 1301 3770 
Q 1056 3291 1056 2328 
Q 1056 1369 1301 889 
Q 1547 409 2034 409 
Q 2525 409 2770 889 
Q 3016 1369 3016 2328 
Q 3016 3291 2770 3770 
Q 2525 4250 2034 4250 
z
M 2034 4750 
Q 2819 4750 3233 4129 
Q 3647 3509 3647 2328 
Q 3647 1150 3233 529 
Q 2819 -91 2034 -91 
Q 1250 -91 836 529 
Q 422 1150 422 2328 
Q 422 3509 836 4129 
Q 1250 4750 2034 4750 
z
" transform="scale(0.015625)"/>
       </defs>
       <use xlink:href="#DejaVuSans-13"/>
      </g>
     </g>
    </g>
    <g id="xtick_5">
     <g id="line2d_9">
      <path d="M 238.633545 184.958281 
L 238.633545 23.558281 
" clip-path="url(#pd66828b2d0)" style="fill: none; stroke: #b0b0b0; stroke-opacity: 0.25; stroke-width: 0.6; stroke-linecap: square"/>
     </g>
     <g id="line2d_10">
      <g>
       <use xlink:href="#m3089383a22" x="238.633545" y="184.958281" style="stroke: #000000; stroke-width: 0.8"/>
      </g>
     </g>
     <g id="text_5">
      <!-- 2 -->
      <g transform="translate(235.452295 199.555938) scale(0.1 -0.1)">
       <use xlink:href="#DejaVuSans-15"/>
      </g>
     </g>
    </g>
    <g id="xtick_6">
     <g id="line2d_11">
      <path d="M 282.664356 184.958281 
L 282.664356 23.558281 
" clip-path="url(#pd66828b2d0)" style="fill: none; stroke: #b0b0b0; stroke-opacity: 0.25; stroke-width: 0.6; stroke-linecap: square"/>
     </g>
     <g id="line2d_12">
      <g>
       <use xlink:href="#m3089383a22" x="282.664356" y="184.958281" style="stroke: #000000; stroke-width: 0.8"/>
      </g>
     </g>
     <g id="text_6">
      <!-- 4 -->
      <g transform="translate(279.483106 199.555938) scale(0.1 -0.1)">
       <use xlink:href="#DejaVuSans-17"/>
      </g>
     </g>
    </g>
    <g id="xtick_7">
     <g id="line2d_13">
      <path d="M 326.695167 184.958281 
L 326.695167 23.558281 
" clip-path="url(#pd66828b2d0)" style="fill: none; stroke: #b0b0b0; stroke-opacity: 0.25; stroke-width: 0.6; stroke-linecap: square"/>
     </g>
     <g id="line2d_14">
      <g>
       <use xlink:href="#m3089383a22" x="326.695167" y="184.958281" style="stroke: #000000; stroke-width: 0.8"/>
      </g>
     </g>
     <g id="text_7">
      <!-- 6 -->
      <g transform="translate(323.513917 199.555938) scale(0.1 -0.1)">
       <use xlink:href="#DejaVuSans-19"/>
      </g>
     </g>
    </g>
    <g id="text_8">
     <!-- x -->
     <g transform="translate(191.643359 213.555938) scale(0.1 -0.1)">
      <defs>
       <path id="DejaVuSans-5b" d="M 3513 3500 
L 2247 1797 
L 3578 0 
L 2900 0 
L 1881 1375 
L 863 0 
L 184 0 
L 1544 1831 
L 300 3500 
L 978 3500 
L 1906 2253 
L 2834 3500 
L 3513 3500 
z
" transform="scale(0.015625)"/>
      </defs>
      <use xlink:href="#DejaVuSans-5b"/>
     </g>
    </g>
   </g>
   <g id="matplotlib.axis_2">
    <g id="ytick_1">
     <g id="line2d_15">
      <path d="M 44.103906 177.621918 
L 345.101562 177.621918 
" clip-path="url(#pd66828b2d0)" style="fill: none; stroke: #b0b0b0; stroke-opacity: 0.25; stroke-width: 0.6; stroke-linecap: square"/>
     </g>
     <g id="line2d_16">
      <defs>
       <path id="mc27c2a8d55" d="M 0 0 
L -3.5 0 
" style="stroke: #000000; stroke-width: 0.8"/>
      </defs>
      <g>
       <use xlink:href="#mc27c2a8d55" x="44.103906" y="177.621918" style="stroke: #000000; stroke-width: 0.8"/>
      </g>
     </g>
     <g id="text_9">
      <!-- 0.0 -->
      <g transform="translate(21.200781 181.420746) scale(0.1 -0.1)">
       <defs>
        <path id="DejaVuSans-11" d="M 684 794 
L 1344 794 
L 1344 0 
L 684 0 
L 684 794 
z
" transform="scale(0.015625)"/>
       </defs>
       <use xlink:href="#DejaVuSans-13"/>
       <use xlink:href="#DejaVuSans-11" transform="translate(63.625 0)"/>
       <use xlink:href="#DejaVuSans-13" transform="translate(95.40625 0)"/>
      </g>
     </g>
    </g>
    <g id="ytick_2">
     <g id="line2d_17">
      <path d="M 44.103906 147.815816 
L 345.101562 147.815816 
" clip-path="url(#pd66828b2d0)" style="fill: none; stroke: #b0b0b0; stroke-opacity: 0.25; stroke-width: 0.6; stroke-linecap: square"/>
     </g>
     <g id="line2d_18">
      <g>
       <use xlink:href="#mc27c2a8d55" x="44.103906" y="147.815816" style="stroke: #000000; stroke-width: 0.8"/>
      </g>
     </g>
     <g id="text_10">
      <!-- 0.1 -->
      <g transform="translate(21.200781 151.614644) scale(0.1 -0.1)">
       <defs>
        <path id="DejaVuSans-14" d="M 794 531 
L 1825 531 
L 1825 4091 
L 703 3866 
L 703 4441 
L 1819 4666 
L 2450 4666 
L 2450 531 
L 3481 531 
L 3481 0 
L 794 0 
L 794 531 
z
" transform="scale(0.015625)"/>
       </defs>
       <use xlink:href="#DejaVuSans-13"/>
       <use xlink:href="#DejaVuSans-11" transform="translate(63.625 0)"/>
       <use xlink:href="#DejaVuSans-14" transform="translate(95.40625 0)"/>
      </g>
     </g>
    </g>
    <g id="ytick_3">
     <g id="line2d_19">
      <path d="M 44.103906 118.009715 
L 345.101562 118.009715 
" clip-path="url(#pd66828b2d0)" style="fill: none; stroke: #b0b0b0; stroke-opacity: 0.25; stroke-width: 0.6; stroke-linecap: square"/>
     </g>
     <g id="line2d_20">
      <g>
       <use xlink:href="#mc27c2a8d55" x="44.103906" y="118.009715" style="stroke: #000000; stroke-width: 0.8"/>
      </g>
     </g>
     <g id="text_11">
      <!-- 0.2 -->
      <g transform="translate(21.200781 121.808543) scale(0.1 -0.1)">
       <use xlink:href="#DejaVuSans-13"/>
       <use xlink:href="#DejaVuSans-11" transform="translate(63.625 0)"/>
       <use xlink:href="#DejaVuSans-15" transform="translate(95.40625 0)"/>
      </g>
     </g>
    </g>
    <g id="ytick_4">
     <g id="line2d_21">
      <path d="M 44.103906 88.203613 
L 345.101562 88.203613 
" clip-path="url(#pd66828b2d0)" style="fill: none; stroke: #b0b0b0; stroke-opacity: 0.25; stroke-width: 0.6; stroke-linecap: square"/>
     </g>
     <g id="line2d_22">
      <g>
       <use xlink:href="#mc27c2a8d55" x="44.103906" y="88.203613" style="stroke: #000000; stroke-width: 0.8"/>
      </g>
     </g>
     <g id="text_12">
      <!-- 0.3 -->
      <g transform="translate(21.200781 92.002441) scale(0.1 -0.1)">
       <defs>
        <path id="DejaVuSans-16" d="M 2597 2516 
Q 3050 2419 3304 2112 
Q 3559 1806 3559 1356 
Q 3559 666 3084 287 
Q 2609 -91 1734 -91 
Q 1441 -91 1130 -33 
Q 819 25 488 141 
L 488 750 
Q 750 597 1062 519 
Q 1375 441 1716 441 
Q 2309 441 2620 675 
Q 2931 909 2931 1356 
Q 2931 1769 2642 2001 
Q 2353 2234 1838 2234 
L 1294 2234 
L 1294 2753 
L 1863 2753 
Q 2328 2753 2575 2939 
Q 2822 3125 2822 3475 
Q 2822 3834 2567 4026 
Q 2313 4219 1838 4219 
Q 1578 4219 1281 4162 
Q 984 4106 628 3988 
L 628 4550 
Q 988 4650 1302 4700 
Q 1616 4750 1894 4750 
Q 2613 4750 3031 4423 
Q 3450 4097 3450 3541 
Q 3450 3153 3228 2886 
Q 3006 2619 2597 2516 
z
" transform="scale(0.015625)"/>
       </defs>
       <use xlink:href="#DejaVuSans-13"/>
       <use xlink:href="#DejaVuSans-11" transform="translate(63.625 0)"/>
       <use xlink:href="#DejaVuSans-16" transform="translate(95.40625 0)"/>
      </g>
     </g>
    </g>
    <g id="ytick_5">
     <g id="line2d_23">
      <path d="M 44.103906 58.397511 
L 345.101562 58.397511 
" clip-path="url(#pd66828b2d0)" style="fill: none; stroke: #b0b0b0; stroke-opacity: 0.25; stroke-width: 0.6; stroke-linecap: square"/>
     </g>
     <g id="line2d_24">
      <g>
       <use xlink:href="#mc27c2a8d55" x="44.103906" y="58.397511" style="stroke: #000000; stroke-width: 0.8"/>
      </g>
     </g>
     <g id="text_13">
      <!-- 0.4 -->
      <g transform="translate(21.200781 62.19634) scale(0.1 -0.1)">
       <use xlink:href="#DejaVuSans-13"/>
       <use xlink:href="#DejaVuSans-11" transform="translate(63.625 0)"/>
       <use xlink:href="#DejaVuSans-17" transform="translate(95.40625 0)"/>
      </g>
     </g>
    </g>
    <g id="ytick_6">
     <g id="line2d_25">
      <path d="M 44.103906 28.59141 
L 345.101562 28.59141 
" clip-path="url(#pd66828b2d0)" style="fill: none; stroke: #b0b0b0; stroke-opacity: 0.25; stroke-width: 0.6; stroke-linecap: square"/>
     </g>
     <g id="line2d_26">
      <g>
       <use xlink:href="#mc27c2a8d55" x="44.103906" y="28.59141" style="stroke: #000000; stroke-width: 0.8"/>
      </g>
     </g>
     <g id="text_14">
      <!-- 0.5 -->
      <g transform="translate(21.200781 32.390238) scale(0.1 -0.1)">
       <defs>
        <path id="DejaVuSans-18" d="M 691 4666 
L 3169 4666 
L 3169 4134 
L 1269 4134 
L 1269 2991 
Q 1406 3038 1543 3061 
Q 1681 3084 1819 3084 
Q 2600 3084 3056 2656 
Q 3513 2228 3513 1497 
Q 3513 744 3044 326 
Q 2575 -91 1722 -91 
Q 1428 -91 1123 -41 
Q 819 9 494 109 
L 494 744 
Q 775 591 1075 516 
Q 1375 441 1709 441 
Q 2250 441 2565 725 
Q 2881 1009 2881 1497 
Q 2881 1984 2565 2268 
Q 2250 2553 1709 2553 
Q 1456 2553 1204 2497 
Q 953 2441 691 2322 
L 691 4666 
z
" transform="scale(0.015625)"/>
       </defs>
       <use xlink:href="#DejaVuSans-13"/>
       <use xlink:href="#DejaVuSans-11" transform="translate(63.625 0)"/>
       <use xlink:href="#DejaVuSans-18" transform="translate(95.40625 0)"/>
      </g>
     </g>
    </g>
    <g id="text_15">
     <!-- f(x) -->
     <g transform="translate(14.798438 112.879375) rotate(-90) scale(0.1 -0.1)">
      <defs>
       <path id="DejaVuSans-49" d="M 2375 4863 
L 2375 4384 
L 1825 4384 
Q 1516 4384 1395 4259 
Q 1275 4134 1275 3809 
L 1275 3500 
L 2222 3500 
L 2222 3053 
L 1275 3053 
L 1275 0 
L 697 0 
L 697 3053 
L 147 3053 
L 147 3500 
L 697 3500 
L 697 3744 
Q 697 4328 969 4595 
Q 1241 4863 1831 4863 
L 2375 4863 
z
" transform="scale(0.015625)"/>
       <path id="DejaVuSans-b" d="M 1984 4856 
Q 1566 4138 1362 3434 
Q 1159 2731 1159 2009 
Q 1159 1288 1364 580 
Q 1569 -128 1984 -844 
L 1484 -844 
Q 1016 -109 783 600 
Q 550 1309 550 2009 
Q 550 2706 781 3412 
Q 1013 4119 1484 4856 
L 1984 4856 
z
" transform="scale(0.015625)"/>
       <path id="DejaVuSans-c" d="M 513 4856 
L 1013 4856 
Q 1481 4119 1714 3412 
Q 1947 2706 1947 2009 
Q 1947 1309 1714 600 
Q 1481 -109 1013 -844 
L 513 -844 
Q 928 -128 1133 580 
Q 1338 1288 1338 2009 
Q 1338 2731 1133 3434 
Q 928 4138 513 4856 
z
" transform="scale(0.015625)"/>
      </defs>
      <use xlink:href="#DejaVuSans-49"/>
      <use xlink:href="#DejaVuSans-b" transform="translate(35.203125 0)"/>
      <use xlink:href="#DejaVuSans-5b" transform="translate(74.21875 0)"/>
      <use xlink:href="#DejaVuSans-c" transform="translate(133.40625 0)"/>
     </g>
    </g>
   </g>
   <g id="line2d_27">
    <path d="M 57.785618 177.323857 
L 74.24482 176.992421 
L 85.903421 176.55291 
L 95.504622 175.968502 
L 103.048423 175.292767 
L 109.220624 174.539045 
L 114.707025 173.666568 
L 119.507625 172.702818 
L 124.308226 171.504244 
L 128.423026 170.24698 
L 132.537827 168.731332 
L 135.966827 167.232918 
L 139.395828 165.481962 
L 142.824828 163.435901 
L 145.568028 161.553424 
L 148.311229 159.421144 
L 151.054429 157.005912 
L 153.797629 154.270179 
L 156.54083 151.171417 
L 159.28403 147.66145 
L 162.02723 143.685713 
L 164.084631 140.361365 
L 166.142031 136.711369 
L 168.199431 132.703824 
L 170.256831 128.303704 
L 172.314232 123.472555 
L 174.371632 118.168152 
L 176.429032 112.344137 
L 178.486432 105.949609 
L 180.543833 98.92868 
L 182.601233 91.219991 
L 184.658633 82.756168 
L 186.716033 73.46324 
L 188.773434 63.259989 
L 190.830834 52.05724 
L 192.888234 39.757084 
L 194.259834 30.894645 
L 194.945634 30.894645 
L 197.003035 43.985498 
L 199.060435 55.9084 
L 201.117835 66.767552 
L 203.175235 76.657863 
L 205.232636 85.66577 
L 207.290036 93.870001 
L 209.347436 101.342259 
L 211.404836 108.14785 
L 213.462237 114.346254 
L 215.519637 119.991642 
L 217.577037 125.133355 
L 219.634437 129.81633 
L 221.691838 134.081494 
L 224.435038 139.182397 
L 227.178238 143.685713 
L 229.921439 147.66145 
L 232.664639 151.171417 
L 235.407839 154.270179 
L 238.15104 157.005912 
L 240.89424 159.421144 
L 243.63744 161.553424 
L 246.380641 163.435901 
L 249.809641 165.481962 
L 253.238641 167.232918 
L 256.667642 168.731332 
L 260.096642 170.013628 
L 264.211443 171.310673 
L 268.326243 172.386601 
L 273.126844 173.412304 
L 278.613244 174.340867 
L 284.785445 175.143041 
L 291.643446 175.806535 
L 299.873047 176.37274 
L 310.160048 176.83904 
L 323.19025 177.188757 
L 331.419851 177.323857 
L 331.419851 177.323857 
" clip-path="url(#pd66828b2d0)" style="fill: none; stroke: #4c78a8; stroke-width: 2; stroke-linecap: square"/>
   </g>
   <g id="patch_3">
    <path d="M 44.103906 184.958281 
L 44.103906 23.558281 
" style="fill: none; stroke: #000000; stroke-width: 0.8; stroke-linejoin: miter; stroke-linecap: square"/>
   </g>
   <g id="patch_4">
    <path d="M 44.103906 184.958281 
L 345.101562 184.958281 
" style="fill: none; stroke: #000000; stroke-width: 0.8; stroke-linejoin: miter; stroke-linecap: square"/>
   </g>
   <g id="text_16">
    <!-- Laplace -->
    <g transform="translate(173.369297 15.558281) scale(0.11 -0.11)">
     <defs>
      <path id="DejaVuSans-2f" d="M 628 4666 
L 1259 4666 
L 1259 531 
L 3531 531 
L 3531 0 
L 628 0 
L 628 4666 
z
" transform="scale(0.015625)"/>
      <path id="DejaVuSans-44" d="M 2194 1759 
Q 1497 1759 1228 1600 
Q 959 1441 959 1056 
Q 959 750 1161 570 
Q 1363 391 1709 391 
Q 2188 391 2477 730 
Q 2766 1069 2766 1631 
L 2766 1759 
L 2194 1759 
z
M 3341 1997 
L 3341 0 
L 2766 0 
L 2766 531 
Q 2569 213 2275 61 
Q 1981 -91 1556 -91 
Q 1019 -91 701 211 
Q 384 513 384 1019 
Q 384 1609 779 1909 
Q 1175 2209 1959 2209 
L 2766 2209 
L 2766 2266 
Q 2766 2663 2505 2880 
Q 2244 3097 1772 3097 
Q 1472 3097 1187 3025 
Q 903 2953 641 2809 
L 641 3341 
Q 956 3463 1253 3523 
Q 1550 3584 1831 3584 
Q 2591 3584 2966 3190 
Q 3341 2797 3341 1997 
z
" transform="scale(0.015625)"/>
      <path id="DejaVuSans-53" d="M 1159 525 
L 1159 -1331 
L 581 -1331 
L 581 3500 
L 1159 3500 
L 1159 2969 
Q 1341 3281 1617 3432 
Q 1894 3584 2278 3584 
Q 2916 3584 3314 3078 
Q 3713 2572 3713 1747 
Q 3713 922 3314 415 
Q 2916 -91 2278 -91 
Q 1894 -91 1617 61 
Q 1341 213 1159 525 
z
M 3116 1747 
Q 3116 2381 2855 2742 
Q 2594 3103 2138 3103 
Q 1681 3103 1420 2742 
Q 1159 2381 1159 1747 
Q 1159 1113 1420 752 
Q 1681 391 2138 391 
Q 2594 391 2855 752 
Q 3116 1113 3116 1747 
z
" transform="scale(0.015625)"/>
      <path id="DejaVuSans-4f" d="M 603 4863 
L 1178 4863 
L 1178 0 
L 603 0 
L 603 4863 
z
" transform="scale(0.015625)"/>
      <path id="DejaVuSans-46" d="M 3122 3366 
L 3122 2828 
Q 2878 2963 2633 3030 
Q 2388 3097 2138 3097 
Q 1578 3097 1268 2742 
Q 959 2388 959 1747 
Q 959 1106 1268 751 
Q 1578 397 2138 397 
Q 2388 397 2633 464 
Q 2878 531 3122 666 
L 3122 134 
Q 2881 22 2623 -34 
Q 2366 -91 2075 -91 
Q 1284 -91 818 406 
Q 353 903 353 1747 
Q 353 2603 823 3093 
Q 1294 3584 2113 3584 
Q 2378 3584 2631 3529 
Q 2884 3475 3122 3366 
z
" transform="scale(0.015625)"/>
      <path id="DejaVuSans-48" d="M 3597 1894 
L 3597 1613 
L 953 1613 
Q 991 1019 1311 708 
Q 1631 397 2203 397 
Q 2534 397 2845 478 
Q 3156 559 3463 722 
L 3463 178 
Q 3153 47 2828 -22 
Q 2503 -91 2169 -91 
Q 1331 -91 842 396 
Q 353 884 353 1716 
Q 353 2575 817 3079 
Q 1281 3584 2069 3584 
Q 2775 3584 3186 3129 
Q 3597 2675 3597 1894 
z
M 3022 2063 
Q 3016 2534 2758 2815 
Q 2500 3097 2075 3097 
Q 1594 3097 1305 2825 
Q 1016 2553 972 2059 
L 3022 2063 
z
" transform="scale(0.015625)"/>
     </defs>
     <use xlink:href="#DejaVuSans-2f"/>
     <use xlink:href="#DejaVuSans-44" transform="translate(55.71875 0)"/>
     <use xlink:href="#DejaVuSans-53" transform="translate(117 0)"/>
     <use xlink:href="#DejaVuSans-4f" transform="translate(180.484375 0)"/>
     <use xlink:href="#DejaVuSans-44" transform="translate(208.265625 0)"/>
     <use xlink:href="#DejaVuSans-46" transform="translate(269.546875 0)"/>
     <use xlink:href="#DejaVuSans-48" transform="translate(324.53125 0)"/>
    </g>
   </g>
  </g>
 </g>
 <defs>
  <clipPath id="pd66828b2d0">
   <rect x="44.103906" y="23.558281" width="300.997656" height="161.4"/>
  </clipPath>
 </defs>
</svg>
