<?xml version="1.0" encoding="utf-8" standalone="no"?>
<!DOCTYPE svg PUBLIC "-//W3C//DTD SVG 1.1//EN"
  "http://www.w3.org/Graphics/SVG/1.1/DTD/svg11.dtd">
<svg xmlns:xlink="http://www.w3.org/1999/xlink" width="352.301562pt" height="223.158281pt" viewBox="0 0 352.301562 223.158281" xmlns="http://www.w3.org/2000/svg" version="1.1">
 <metadata>
  <rdf:RDF xmlns:dc="http://purl.org/dc/elements/1.1/" xmlns:cc="http://creativecommons.org/ns#" xmlns:rdf="http://www.w3.org/1999/02/22-rdf-syntax-ns#">
   <cc:Work>
    <dc:type rdf:resource="http://purl.org/dc/dcmitype/StillImage"/>
    <dc:date>2026-07-05T02:24:31.728537</dc:date>
    <dc:format>image/svg+xml</dc:format>
    <dc:creator>
     <cc:Agent>
      <dc:title>Matplotlib v3.11.0, https://matplotlib.org/</dc:title>
     </cc:Agent>
    </dc:creator>
   </cc:Work>
  </rdf:RDF>
 </metadata>
 <defs>
  <style type="text/css">*{stroke-linejoin: round; stroke-linecap: butt}</style>
 </defs>
 <g id="figure_1">
  <g id="patch_1">
   <path d="M 0 223.158281 
L 352.301562 223.158281 
L 352.301562 0 
L 0 0 
z
" style="fill: #ffffff"/>
  </g>
  <g id="axes_1">
   <g id="patch_2">
    <path d="M 44.103906 184.958281 
L 345.101562 184.958281 
L 345.101562 23.558281 
L 44.103906 23.558281 
z
" style="fill: #ffffff"/>
   </g>
   <g id="FillBetweenPolyCollection_1">
    <defs>
     <path id="m7799730ce6" d="M 57.785618 -45.536364 
L 57.785618 -50.660681 
L 58.471418 -52.183908 
L 59.157218 -53.968554 
L 59.843018 -56.02146 
L 60.528818 -58.344702 
L 61.214618 -60.935763 
L 61.900418 -63.787825 
L 62.586218 -66.890175 
L 63.272019 -70.228668 
L 63.957819 -73.786232 
L 64.643619 -77.543392 
L 65.329419 -81.478782 
L 66.015219 -85.569645 
L 66.701019 -89.792299 
L 67.386819 -94.122563 
L 68.072619 -98.536144 
L 68.758419 -103.008977 
L 69.444219 -107.517514 
L 70.130019 -112.038976 
L 70.815819 -116.551557 
L 71.50162 -121.034588 
L 72.18742 -125.468662 
L 72.87322 -129.835729 
L 73.55902 -134.119158 
L 74.24482 -138.303771 
L 74.93062 -142.375862 
L 75.61642 -146.323181 
L 76.30222 -150.134918 
L 76.98802 -153.801663 
L 77.67382 -157.315358 
L 78.35962 -160.669236 
L 79.04542 -163.857765 
L 79.731221 -166.876572 
L 80.417021 -169.722373 
L 81.102821 -172.3929 
L 81.788621 -174.886826 
L 82.474421 -177.203688 
L 83.160221 -179.343816 
L 83.846021 -181.30826 
L 84.531821 -183.098722 
L 85.217621 -184.717486 
L 85.903421 -186.167357 
L 86.589221 -187.451597 
L 87.275021 -188.573873 
L 87.960822 -189.538196 
L 88.646622 -190.348877 
L 89.332422 -191.010474 
L 90.018222 -191.527755 
L 90.704022 -191.905652 
L 91.389822 -192.149226 
L 92.075622 -192.263636 
L 92.761422 -192.254104 
L 93.447222 -192.125887 
L 94.133022 -191.884256 
L 94.818822 -191.53447 
L 95.504622 -191.081755 
L 96.190423 -190.531288 
L 96.876223 -189.888182 
L 97.562023 -189.157468 
L 98.247823 -188.344086 
L 98.933623 -187.452874 
L 99.619423 -186.488558 
L 100.305223 -185.455747 
L 100.991023 -184.358921 
L 101.676823 -183.202435 
L 102.362623 -181.990506 
L 103.048423 -180.727216 
L 103.734223 -179.416506 
L 104.420024 -178.062179 
L 105.105824 -176.667895 
L 105.791624 -175.237173 
L 106.477424 -173.773391 
L 107.163224 -172.27979 
L 107.849024 -170.759469 
L 108.534824 -169.215395 
L 109.220624 -167.650399 
L 109.906424 -166.067181 
L 110.592224 -164.468313 
L 111.278024 -162.85624 
L 111.963824 -161.233285 
L 112.649625 -159.601655 
L 113.335425 -157.963436 
L 114.021225 -156.320605 
L 114.707025 -154.67503 
L 115.392825 -153.028472 
L 116.078625 -151.382593 
L 116.764425 -149.738955 
L 117.450225 -148.099026 
L 118.136025 -146.464182 
L 118.821825 -144.835715 
L 119.507625 -143.214829 
L 120.193425 -141.602649 
L 120.879225 -140.000224 
L 121.565026 -138.408528 
L 122.250826 -136.828464 
L 122.936626 -135.260868 
L 123.622426 -133.706513 
L 124.308226 -132.166107 
L 124.994026 -130.640302 
L 125.679826 -129.129695 
L 126.365626 -127.634827 
L 127.051426 -126.156191 
L 127.737226 -124.694232 
L 128.423026 -123.249347 
L 129.108826 -121.821894 
L 129.794627 -120.412186 
L 130.480427 -119.020501 
L 131.166227 -117.647079 
L 131.852027 -116.292125 
L 132.537827 -114.955812 
L 133.223627 -113.638282 
L 133.909427 -112.33965 
L 134.595227 -111.060001 
L 135.281027 -109.799396 
L 135.966827 -108.557873 
L 136.652627 -107.335445 
L 137.338427 -106.132107 
L 138.024228 -104.947832 
L 138.710028 -103.782576 
L 139.395828 -102.636276 
L 140.081628 -101.508857 
L 140.767428 -100.400225 
L 141.453228 -99.310274 
L 142.139028 -98.238886 
L 142.824828 -97.18593 
L 143.510628 -96.151264 
L 144.196428 -95.134738 
L 144.882228 -94.13619 
L 145.568028 -93.155453 
L 146.253829 -92.192348 
L 146.939629 -91.246694 
L 147.625429 -90.3183 
L 148.311229 -89.406972 
L 148.997029 -88.512508 
L 149.682829 -87.634703 
L 150.368629 -86.77335 
L 151.054429 -85.928235 
L 151.740229 -85.099143 
L 152.426029 -84.285856 
L 153.111829 -83.488155 
L 153.797629 -82.705817 
L 154.48343 -81.938618 
L 155.16923 -81.186336 
L 155.85503 -80.448744 
L 156.54083 -79.725617 
L 157.22663 -79.016729 
L 157.91243 -78.321855 
L 158.59823 -77.640769 
L 159.28403 -76.973246 
L 159.96983 -76.319062 
L 160.65563 -75.677995 
L 161.34143 -75.049822 
L 162.02723 -74.434322 
L 162.713031 -73.831277 
L 163.398831 -73.240469 
L 164.084631 -72.661681 
L 164.770431 -72.094701 
L 165.456231 -71.539314 
L 166.142031 -70.995313 
L 166.827831 -70.462488 
L 167.513631 -69.940635 
L 168.199431 -69.429548 
L 168.885231 -68.929029 
L 169.571031 -68.438878 
L 170.256831 -67.958898 
L 170.942632 -67.488897 
L 171.628432 -67.028683 
L 172.314232 -66.578068 
L 173.000032 -66.136866 
L 173.685832 -65.704894 
L 174.371632 -65.281971 
L 175.057432 -64.867919 
L 175.743232 -64.462564 
L 176.429032 -64.065733 
L 177.114832 -63.677257 
L 177.800632 -63.296967 
L 178.486432 -62.924701 
L 179.172233 -62.560295 
L 179.858033 -62.203592 
L 180.543833 -61.854436 
L 181.229633 -61.512671 
L 181.915433 -61.178149 
L 182.601233 -60.850719 
L 183.287033 -60.530237 
L 183.972833 -60.21656 
L 184.658633 -59.909546 
L 185.344433 -59.609058 
L 186.030233 -59.314961 
L 186.716033 -59.027121 
L 187.401834 -58.745408 
L 188.087634 -58.469694 
L 188.773434 -58.199854 
L 189.459234 -57.935763 
L 190.145034 -57.677302 
L 190.830834 -57.424351 
L 191.516634 -57.176794 
L 192.202434 -56.934517 
L 192.888234 -56.697409 
L 193.574034 -56.46536 
L 194.259834 -56.238262 
L 194.945634 -56.01601 
L 195.631434 -55.798501 
L 196.317235 -55.585634 
L 197.003035 -55.37731 
L 197.688835 -55.173431 
L 198.374635 -54.973902 
L 199.060435 -54.778631 
L 199.746235 -54.587526 
L 200.432035 -54.400498 
L 201.117835 -54.217458 
L 201.803635 -54.038322 
L 202.489435 -53.863005 
L 203.175235 -53.691425 
L 203.861035 -53.523502 
L 204.546836 -53.359157 
L 205.232636 -53.198312 
L 205.918436 -53.040892 
L 206.604236 -52.886823 
L 207.290036 -52.736032 
L 207.975836 -52.58845 
L 208.661636 -52.444005 
L 209.347436 -52.302632 
L 210.033236 -52.164262 
L 210.719036 -52.028831 
L 211.404836 -51.896275 
L 212.090636 -51.766533 
L 212.776437 -51.639542 
L 213.462237 -51.515244 
L 214.148037 -51.39358 
L 214.833837 -51.274493 
L 215.519637 -51.157927 
L 216.205437 -51.043827 
L 216.891237 -50.93214 
L 217.577037 -50.822814 
L 218.262837 -50.715797 
L 218.948637 -50.61104 
L 219.634437 -50.508493 
L 220.320237 -50.408108 
L 221.006038 -50.309839 
L 221.691838 -50.213639 
L 222.377638 -50.119465 
L 223.063438 -50.027271 
L 223.749238 -49.937015 
L 224.435038 -49.848655 
L 225.120838 -49.76215 
L 225.806638 -49.67746 
L 226.492438 -49.594545 
L 227.178238 -49.513367 
L 227.864038 -49.433889 
L 228.549838 -49.356073 
L 229.235639 -49.279885 
L 229.921439 -49.205287 
L 230.607239 -49.132247 
L 231.293039 -49.06073 
L 231.978839 -48.990704 
L 232.664639 -48.922136 
L 233.350439 -48.854996 
L 234.036239 -48.789251 
L 234.722039 -48.724873 
L 235.407839 -48.661831 
L 236.093639 -48.600097 
L 236.779439 -48.539642 
L 237.46524 -48.48044 
L 238.15104 -48.422463 
L 238.83684 -48.365685 
L 239.52264 -48.31008 
L 240.20844 -48.255623 
L 240.89424 -48.202289 
L 241.58004 -48.150055 
L 242.26584 -48.098895 
L 242.95164 -48.048789 
L 243.63744 -47.999713 
L 244.32324 -47.951644 
L 245.00904 -47.904562 
L 245.694841 -47.858445 
L 246.380641 -47.813273 
L 247.066441 -47.769026 
L 247.752241 -47.725683 
L 248.438041 -47.683226 
L 249.123841 -47.641635 
L 249.809641 -47.600893 
L 250.495441 -47.56098 
L 251.181241 -47.521881 
L 251.867041 -47.483576 
L 252.552841 -47.44605 
L 253.238641 -47.409286 
L 253.924442 -47.373267 
L 254.610242 -47.337978 
L 255.296042 -47.303404 
L 255.981842 -47.269529 
L 256.667642 -47.236338 
L 257.353442 -47.203817 
L 258.039242 -47.171953 
L 258.725042 -47.14073 
L 259.410842 -47.110136 
L 260.096642 -47.080157 
L 260.782442 -47.050781 
L 261.468242 -47.021994 
L 262.154043 -46.993784 
L 262.839843 -46.96614 
L 263.525643 -46.939049 
L 264.211443 -46.9125 
L 264.897243 -46.886481 
L 265.583043 -46.860981 
L 266.268843 -46.835989 
L 266.954643 -46.811496 
L 267.640443 -46.78749 
L 268.326243 -46.763961 
L 269.012043 -46.740899 
L 269.697843 -46.718295 
L 270.383644 -46.696139 
L 271.069444 -46.674421 
L 271.755244 -46.653133 
L 272.441044 -46.632266 
L 273.126844 -46.611811 
L 273.812644 -46.591759 
L 274.498444 -46.572102 
L 275.184244 -46.552832 
L 275.870044 -46.533941 
L 276.555844 -46.515421 
L 277.241644 -46.497265 
L 277.927444 -46.479464 
L 278.613244 -46.462012 
L 279.299045 -46.444902 
L 279.984845 -46.428126 
L 280.670645 -46.411677 
L 281.356445 -46.39555 
L 282.042245 -46.379736 
L 282.728045 -46.36423 
L 283.413845 -46.349026 
L 284.099645 -46.334117 
L 284.785445 -46.319498 
L 285.471245 -46.305162 
L 286.157045 -46.291103 
L 286.842845 -46.277317 
L 287.528646 -46.263797 
L 288.214446 -46.250538 
L 288.900246 -46.237535 
L 289.586046 -46.224782 
L 290.271846 -46.212275 
L 290.957646 -46.200008 
L 291.643446 -46.187977 
L 292.329246 -46.176177 
L 293.015046 -46.164603 
L 293.700846 -46.15325 
L 294.386646 -46.142115 
L 295.072446 -46.131193 
L 295.758247 -46.120479 
L 296.444047 -46.109969 
L 297.129847 -46.09966 
L 297.815647 -46.089546 
L 298.501447 -46.079625 
L 299.187247 -46.069893 
L 299.873047 -46.060345 
L 300.558847 -46.050978 
L 301.244647 -46.041788 
L 301.930447 -46.032773 
L 302.616247 -46.023927 
L 303.302047 -46.015249 
L 303.987848 -46.006734 
L 304.673648 -45.998379 
L 305.359448 -45.990182 
L 306.045248 -45.982139 
L 306.731048 -45.974247 
L 307.416848 -45.966503 
L 308.102648 -45.958904 
L 308.788448 -45.951447 
L 309.474248 -45.94413 
L 310.160048 -45.936949 
L 310.845848 -45.929902 
L 311.531648 -45.922987 
L 312.217449 -45.916201 
L 312.903249 -45.90954 
L 313.589049 -45.903004 
L 314.274849 -45.896589 
L 314.960649 -45.890292 
L 315.646449 -45.884113 
L 316.332249 -45.878048 
L 317.018049 -45.872095 
L 317.703849 -45.866252 
L 318.389649 -45.860516 
L 319.075449 -45.854887 
L 319.761249 -45.849361 
L 320.44705 -45.843936 
L 321.13285 -45.838612 
L 321.81865 -45.833385 
L 322.50445 -45.828254 
L 323.19025 -45.823217 
L 323.87605 -45.818272 
L 324.56185 -45.813417 
L 325.24765 -45.808651 
L 325.93345 -45.803972 
L 326.61925 -45.799378 
L 327.30505 -45.794868 
L 327.99085 -45.79044 
L 328.676651 -45.786093 
L 329.362451 -45.781824 
L 330.048251 -45.777632 
L 330.734051 -45.773517 
L 331.419851 -45.769476 
L 331.419851 -45.536364 
L 331.419851 -45.536364 
L 330.734051 -45.536364 
L 330.048251 -45.536364 
L 329.362451 -45.536364 
L 328.676651 -45.536364 
L 327.99085 -45.536364 
L 327.30505 -45.536364 
L 326.61925 -45.536364 
L 325.93345 -45.536364 
L 325.24765 -45.536364 
L 324.56185 -45.536364 
L 323.87605 -45.536364 
L 323.19025 -45.536364 
L 322.50445 -45.536364 
L 321.81865 -45.536364 
L 321.13285 -45.536364 
L 320.44705 -45.536364 
L 319.761249 -45.536364 
L 319.075449 -45.536364 
L 318.389649 -45.536364 
L 317.703849 -45.536364 
L 317.018049 -45.536364 
L 316.332249 -45.536364 
L 315.646449 -45.536364 
L 314.960649 -45.536364 
L 314.274849 -45.536364 
L 313.589049 -45.536364 
L 312.903249 -45.536364 
L 312.217449 -45.536364 
L 311.531648 -45.536364 
L 310.845848 -45.536364 
L 310.160048 -45.536364 
L 309.474248 -45.536364 
L 308.788448 -45.536364 
L 308.102648 -45.536364 
L 307.416848 -45.536364 
L 306.731048 -45.536364 
L 306.045248 -45.536364 
L 305.359448 -45.536364 
L 304.673648 -45.536364 
L 303.987848 -45.536364 
L 303.302047 -45.536364 
L 302.616247 -45.536364 
L 301.930447 -45.536364 
L 301.244647 -45.536364 
L 300.558847 -45.536364 
L 299.873047 -45.536364 
L 299.187247 -45.536364 
L 298.501447 -45.536364 
L 297.815647 -45.536364 
L 297.129847 -45.536364 
L 296.444047 -45.536364 
L 295.758247 -45.536364 
L 295.072446 -45.536364 
L 294.386646 -45.536364 
L 293.700846 -45.536364 
L 293.015046 -45.536364 
L 292.329246 -45.536364 
L 291.643446 -45.536364 
L 290.957646 -45.536364 
L 290.271846 -45.536364 
L 289.586046 -45.536364 
L 288.900246 -45.536364 
L 288.214446 -45.536364 
L 287.528646 -45.536364 
L 286.842845 -45.536364 
L 286.157045 -45.536364 
L 285.471245 -45.536364 
L 284.785445 -45.536364 
L 284.099645 -45.536364 
L 283.413845 -45.536364 
L 282.728045 -45.536364 
L 282.042245 -45.536364 
L 281.356445 -45.536364 
L 280.670645 -45.536364 
L 279.984845 -45.536364 
L 279.299045 -45.536364 
L 278.613244 -45.536364 
L 277.927444 -45.536364 
L 277.241644 -45.536364 
L 276.555844 -45.536364 
L 275.870044 -45.536364 
L 275.184244 -45.536364 
L 274.498444 -45.536364 
L 273.812644 -45.536364 
L 273.126844 -45.536364 
L 272.441044 -45.536364 
L 271.755244 -45.536364 
L 271.069444 -45.536364 
L 270.383644 -45.536364 
L 269.697843 -45.536364 
L 269.012043 -45.536364 
L 268.326243 -45.536364 
L 267.640443 -45.536364 
L 266.954643 -45.536364 
L 266.268843 -45.536364 
L 265.583043 -45.536364 
L 264.897243 -45.536364 
L 264.211443 -45.536364 
L 263.525643 -45.536364 
L 262.839843 -45.536364 
L 262.154043 -45.536364 
L 261.468242 -45.536364 
L 260.782442 -45.536364 
L 260.096642 -45.536364 
L 259.410842 -45.536364 
L 258.725042 -45.536364 
L 258.039242 -45.536364 
L 257.353442 -45.536364 
L 256.667642 -45.536364 
L 255.981842 -45.536364 
L 255.296042 -45.536364 
L 254.610242 -45.536364 
L 253.924442 -45.536364 
L 253.238641 -45.536364 
L 252.552841 -45.536364 
L 251.867041 -45.536364 
L 251.181241 -45.536364 
L 250.495441 -45.536364 
L 249.809641 -45.536364 
L 249.123841 -45.536364 
L 248.438041 -45.536364 
L 247.752241 -45.536364 
L 247.066441 -45.536364 
L 246.380641 -45.536364 
L 245.694841 -45.536364 
L 245.00904 -45.536364 
L 244.32324 -45.536364 
L 243.63744 -45.536364 
L 242.95164 -45.536364 
L 242.26584 -45.536364 
L 241.58004 -45.536364 
L 240.89424 -45.536364 
L 240.20844 -45.536364 
L 239.52264 -45.536364 
L 238.83684 -45.536364 
L 238.15104 -45.536364 
L 237.46524 -45.536364 
L 236.779439 -45.536364 
L 236.093639 -45.536364 
L 235.407839 -45.536364 
L 234.722039 -45.536364 
L 234.036239 -45.536364 
L 233.350439 -45.536364 
L 232.664639 -45.536364 
L 231.978839 -45.536364 
L 231.293039 -45.536364 
L 230.607239 -45.536364 
L 229.921439 -45.536364 
L 229.235639 -45.536364 
L 228.549838 -45.536364 
L 227.864038 -45.536364 
L 227.178238 -45.536364 
L 226.492438 -45.536364 
L 225.806638 -45.536364 
L 225.120838 -45.536364 
L 224.435038 -45.536364 
L 223.749238 -45.536364 
L 223.063438 -45.536364 
L 222.377638 -45.536364 
L 221.691838 -45.536364 
L 221.006038 -45.536364 
L 220.320237 -45.536364 
L 219.634437 -45.536364 
L 218.948637 -45.536364 
L 218.262837 -45.536364 
L 217.577037 -45.536364 
L 216.891237 -45.536364 
L 216.205437 -45.536364 
L 215.519637 -45.536364 
L 214.833837 -45.536364 
L 214.148037 -45.536364 
L 213.462237 -45.536364 
L 212.776437 -45.536364 
L 212.090636 -45.536364 
L 211.404836 -45.536364 
L 210.719036 -45.536364 
L 210.033236 -45.536364 
L 209.347436 -45.536364 
L 208.661636 -45.536364 
L 207.975836 -45.536364 
L 207.290036 -45.536364 
L 206.604236 -45.536364 
L 205.918436 -45.536364 
L 205.232636 -45.536364 
L 204.546836 -45.536364 
L 203.861035 -45.536364 
L 203.175235 -45.536364 
L 202.489435 -45.536364 
L 201.803635 -45.536364 
L 201.117835 -45.536364 
L 200.432035 -45.536364 
L 199.746235 -45.536364 
L 199.060435 -45.536364 
L 198.374635 -45.536364 
L 197.688835 -45.536364 
L 197.003035 -45.536364 
L 196.317235 -45.536364 
L 195.631434 -45.536364 
L 194.945634 -45.536364 
L 194.259834 -45.536364 
L 193.574034 -45.536364 
L 192.888234 -45.536364 
L 192.202434 -45.536364 
L 191.516634 -45.536364 
L 190.830834 -45.536364 
L 190.145034 -45.536364 
L 189.459234 -45.536364 
L 188.773434 -45.536364 
L 188.087634 -45.536364 
L 187.401834 -45.536364 
L 186.716033 -45.536364 
L 186.030233 -45.536364 
L 185.344433 -45.536364 
L 184.658633 -45.536364 
L 183.972833 -45.536364 
L 183.287033 -45.536364 
L 182.601233 -45.536364 
L 181.915433 -45.536364 
L 181.229633 -45.536364 
L 180.543833 -45.536364 
L 179.858033 -45.536364 
L 179.172233 -45.536364 
L 178.486432 -45.536364 
L 177.800632 -45.536364 
L 177.114832 -45.536364 
L 176.429032 -45.536364 
L 175.743232 -45.536364 
L 175.057432 -45.536364 
L 174.371632 -45.536364 
L 173.685832 -45.536364 
L 173.000032 -45.536364 
L 172.314232 -45.536364 
L 171.628432 -45.536364 
L 170.942632 -45.536364 
L 170.256831 -45.536364 
L 169.571031 -45.536364 
L 168.885231 -45.536364 
L 168.199431 -45.536364 
L 167.513631 -45.536364 
L 166.827831 -45.536364 
L 166.142031 -45.536364 
L 165.456231 -45.536364 
L 164.770431 -45.536364 
L 164.084631 -45.536364 
L 163.398831 -45.536364 
L 162.713031 -45.536364 
L 162.02723 -45.536364 
L 161.34143 -45.536364 
L 160.65563 -45.536364 
L 159.96983 -45.536364 
L 159.28403 -45.536364 
L 158.59823 -45.536364 
L 157.91243 -45.536364 
L 157.22663 -45.536364 
L 156.54083 -45.536364 
L 155.85503 -45.536364 
L 155.16923 -45.536364 
L 154.48343 -45.536364 
L 153.797629 -45.536364 
L 153.111829 -45.536364 
L 152.426029 -45.536364 
L 151.740229 -45.536364 
L 151.054429 -45.536364 
L 150.368629 -45.536364 
L 149.682829 -45.536364 
L 148.997029 -45.536364 
L 148.311229 -45.536364 
L 147.625429 -45.536364 
L 146.939629 -45.536364 
L 146.253829 -45.536364 
L 145.568028 -45.536364 
L 144.882228 -45.536364 
L 144.196428 -45.536364 
L 143.510628 -45.536364 
L 142.824828 -45.536364 
L 142.139028 -45.536364 
L 141.453228 -45.536364 
L 140.767428 -45.536364 
L 140.081628 -45.536364 
L 139.395828 -45.536364 
L 138.710028 -45.536364 
L 138.024228 -45.536364 
L 137.338427 -45.536364 
L 136.652627 -45.536364 
L 135.966827 -45.536364 
L 135.281027 -45.536364 
L 134.595227 -45.536364 
L 133.909427 -45.536364 
L 133.223627 -45.536364 
L 132.537827 -45.536364 
L 131.852027 -45.536364 
L 131.166227 -45.536364 
L 130.480427 -45.536364 
L 129.794627 -45.536364 
L 129.108826 -45.536364 
L 128.423026 -45.536364 
L 127.737226 -45.536364 
L 127.051426 -45.536364 
L 126.365626 -45.536364 
L 125.679826 -45.536364 
L 124.994026 -45.536364 
L 124.308226 -45.536364 
L 123.622426 -45.536364 
L 122.936626 -45.536364 
L 122.250826 -45.536364 
L 121.565026 -45.536364 
L 120.879225 -45.536364 
L 120.193425 -45.536364 
L 119.507625 -45.536364 
L 118.821825 -45.536364 
L 118.136025 -45.536364 
L 117.450225 -45.536364 
L 116.764425 -45.536364 
L 116.078625 -45.536364 
L 115.392825 -45.536364 
L 114.707025 -45.536364 
L 114.021225 -45.536364 
L 113.335425 -45.536364 
L 112.649625 -45.536364 
L 111.963824 -45.536364 
L 111.278024 -45.536364 
L 110.592224 -45.536364 
L 109.906424 -45.536364 
L 109.220624 -45.536364 
L 108.534824 -45.536364 
L 107.849024 -45.536364 
L 107.163224 -45.536364 
L 106.477424 -45.536364 
L 105.791624 -45.536364 
L 105.105824 -45.536364 
L 104.420024 -45.536364 
L 103.734223 -45.536364 
L 103.048423 -45.536364 
L 102.362623 -45.536364 
L 101.676823 -45.536364 
L 100.991023 -45.536364 
L 100.305223 -45.536364 
L 99.619423 -45.536364 
L 98.933623 -45.536364 
L 98.247823 -45.536364 
L 97.562023 -45.536364 
L 96.876223 -45.536364 
L 96.190423 -45.536364 
L 95.504622 -45.536364 
L 94.818822 -45.536364 
L 94.133022 -45.536364 
L 93.447222 -45.536364 
L 92.761422 -45.536364 
L 92.075622 -45.536364 
L 91.389822 -45.536364 
L 90.704022 -45.536364 
L 90.018222 -45.536364 
L 89.332422 -45.536364 
L 88.646622 -45.536364 
L 87.960822 -45.536364 
L 87.275021 -45.536364 
L 86.589221 -45.536364 
L 85.903421 -45.536364 
L 85.217621 -45.536364 
L 84.531821 -45.536364 
L 83.846021 -45.536364 
L 83.160221 -45.536364 
L 82.474421 -45.536364 
L 81.788621 -45.536364 
L 81.102821 -45.536364 
L 80.417021 -45.536364 
L 79.731221 -45.536364 
L 79.04542 -45.536364 
L 78.35962 -45.536364 
L 77.67382 -45.536364 
L 76.98802 -45.536364 
L 76.30222 -45.536364 
L 75.61642 -45.536364 
L 74.93062 -45.536364 
L 74.24482 -45.536364 
L 73.55902 -45.536364 
L 72.87322 -45.536364 
L 72.18742 -45.536364 
L 71.50162 -45.536364 
L 70.815819 -45.536364 
L 70.130019 -45.536364 
L 69.444219 -45.536364 
L 68.758419 -45.536364 
L 68.072619 -45.536364 
L 67.386819 -45.536364 
L 66.701019 -45.536364 
L 66.015219 -45.536364 
L 65.329419 -45.536364 
L 64.643619 -45.536364 
L 63.957819 -45.536364 
L 63.272019 -45.536364 
L 62.586218 -45.536364 
L 61.900418 -45.536364 
L 61.214618 -45.536364 
L 60.528818 -45.536364 
L 59.843018 -45.536364 
L 59.157218 -45.536364 
L 58.471418 -45.536364 
L 57.785618 -45.536364 
z
" style="stroke: #4c78a8; stroke-opacity: 0.15"/>
    </defs>
    <g clip-path="url(#p96a91ee5bc)">
     <use xlink:href="#m7799730ce6" x="0" y="223.158281" style="fill: #4c78a8; fill-opacity: 0.15; stroke: #4c78a8; stroke-opacity: 0.15"/>
    </g>
   </g>
   <g id="matplotlib.axis_1">
    <g id="xtick_1">
     <g id="line2d_1">
      <path d="M 44.744352 184.958281 
L 44.744352 23.558281 
" clip-path="url(#p96a91ee5bc)" style="fill: none; stroke: #b0b0b0; stroke-opacity: 0.25; stroke-width: 0.6; stroke-linecap: square"/>
     </g>
     <g id="line2d_2">
      <defs>
       <path id="mfaa86ced18" d="M 0 0 
L 0 3.5 
" style="stroke: #000000; stroke-width: 0.8"/>
      </defs>
      <g>
       <use xlink:href="#mfaa86ced18" x="44.744352" y="184.958281" style="stroke: #000000; stroke-width: 0.8"/>
      </g>
     </g>
     <g id="text_1">
      <!-- 0 -->
      <g transform="translate(41.563102 199.555938) scale(0.1 -0.1)">
       <defs>
        <path id="DejaVuSans-13" d="M 2034 4250 
Q 1547 4250 1301 3770 
Q 1056 3291 1056 2328 
Q 1056 1369 1301 889 
Q 1547 409 2034 409 
Q 2525 409 2770 889 
Q 3016 1369 3016 2328 
Q 3016 3291 2770 3770 
Q 2525 4250 2034 4250 
z
M 2034 4750 
Q 2819 4750 3233 4129 
Q 3647 3509 3647 2328 
Q 3647 1150 3233 529 
Q 2819 -91 2034 -91 
Q 1250 -91 836 529 
Q 422 1150 422 2328 
Q 422 3509 836 4129 
Q 1250 4750 2034 4750 
z
" transform="scale(0.015625)"/>
       </defs>
       <use xlink:href="#DejaVuSans-13"/>
      </g>
     </g>
    </g>
    <g id="xtick_2">
     <g id="line2d_3">
      <path d="M 105.888537 184.958281 
L 105.888537 23.558281 
" clip-path="url(#p96a91ee5bc)" style="fill: none; stroke: #b0b0b0; stroke-opacity: 0.25; stroke-width: 0.6; stroke-linecap: square"/>
     </g>
     <g id="line2d_4">
      <g>
       <use xlink:href="#mfaa86ced18" x="105.888537" y="184.958281" style="stroke: #000000; stroke-width: 0.8"/>
      </g>
     </g>
     <g id="text_2">
      <!-- 1 -->
      <g transform="translate(102.707287 199.555938) scale(0.1 -0.1)">
       <defs>
        <path id="DejaVuSans-14" d="M 794 531 
L 1825 531 
L 1825 4091 
L 703 3866 
L 703 4441 
L 1819 4666 
L 2450 4666 
L 2450 531 
L 3481 531 
L 3481 0 
L 794 0 
L 794 531 
z
" transform="scale(0.015625)"/>
       </defs>
       <use xlink:href="#DejaVuSans-14"/>
      </g>
     </g>
    </g>
    <g id="xtick_3">
     <g id="line2d_5">
      <path d="M 167.032721 184.958281 
L 167.032721 23.558281 
" clip-path="url(#p96a91ee5bc)" style="fill: none; stroke: #b0b0b0; stroke-opacity: 0.25; stroke-width: 0.6; stroke-linecap: square"/>
     </g>
     <g id="line2d_6">
      <g>
       <use xlink:href="#mfaa86ced18" x="167.032721" y="184.958281" style="stroke: #000000; stroke-width: 0.8"/>
      </g>
     </g>
     <g id="text_3">
      <!-- 2 -->
      <g transform="translate(163.851471 199.555938) scale(0.1 -0.1)">
       <defs>
        <path id="DejaVuSans-15" d="M 1228 531 
L 3431 531 
L 3431 0 
L 469 0 
L 469 531 
Q 828 903 1448 1529 
Q 2069 2156 2228 2338 
Q 2531 2678 2651 2914 
Q 2772 3150 2772 3378 
Q 2772 3750 2511 3984 
Q 2250 4219 1831 4219 
Q 1534 4219 1204 4116 
Q 875 4013 500 3803 
L 500 4441 
Q 881 4594 1212 4672 
Q 1544 4750 1819 4750 
Q 2544 4750 2975 4387 
Q 3406 4025 3406 3419 
Q 3406 3131 3298 2873 
Q 3191 2616 2906 2266 
Q 2828 2175 2409 1742 
Q 1991 1309 1228 531 
z
" transform="scale(0.015625)"/>
       </defs>
       <use xlink:href="#DejaVuSans-15"/>
      </g>
     </g>
    </g>
    <g id="xtick_4">
     <g id="line2d_7">
      <path d="M 228.176906 184.958281 
L 228.176906 23.558281 
" clip-path="url(#p96a91ee5bc)" style="fill: none; stroke: #b0b0b0; stroke-opacity: 0.25; stroke-width: 0.6; stroke-linecap: square"/>
     </g>
     <g id="line2d_8">
      <g>
       <use xlink:href="#mfaa86ced18" x="228.176906" y="184.958281" style="stroke: #000000; stroke-width: 0.8"/>
      </g>
     </g>
     <g id="text_4">
      <!-- 3 -->
      <g transform="translate(224.995656 199.555938) scale(0.1 -0.1)">
       <defs>
        <path id="DejaVuSans-16" d="M 2597 2516 
Q 3050 2419 3304 2112 
Q 3559 1806 3559 1356 
Q 3559 666 3084 287 
Q 2609 -91 1734 -91 
Q 1441 -91 1130 -33 
Q 819 25 488 141 
L 488 750 
Q 750 597 1062 519 
Q 1375 441 1716 441 
Q 2309 441 2620 675 
Q 2931 909 2931 1356 
Q 2931 1769 2642 2001 
Q 2353 2234 1838 2234 
L 1294 2234 
L 1294 2753 
L 1863 2753 
Q 2328 2753 2575 2939 
Q 2822 3125 2822 3475 
Q 2822 3834 2567 4026 
Q 2313 4219 1838 4219 
Q 1578 4219 1281 4162 
Q 984 4106 628 3988 
L 628 4550 
Q 988 4650 1302 4700 
Q 1616 4750 1894 4750 
Q 2613 4750 3031 4423 
Q 3450 4097 3450 3541 
Q 3450 3153 3228 2886 
Q 3006 2619 2597 2516 
z
" transform="scale(0.015625)"/>
       </defs>
       <use xlink:href="#DejaVuSans-16"/>
      </g>
     </g>
    </g>
    <g id="xtick_5">
     <g id="line2d_9">
      <path d="M 289.32109 184.958281 
L 289.32109 23.558281 
" clip-path="url(#p96a91ee5bc)" style="fill: none; stroke: #b0b0b0; stroke-opacity: 0.25; stroke-width: 0.6; stroke-linecap: square"/>
     </g>
     <g id="line2d_10">
      <g>
       <use xlink:href="#mfaa86ced18" x="289.32109" y="184.958281" style="stroke: #000000; stroke-width: 0.8"/>
      </g>
     </g>
     <g id="text_5">
      <!-- 4 -->
      <g transform="translate(286.13984 199.555938) scale(0.1 -0.1)">
       <defs>
        <path id="DejaVuSans-17" d="M 2419 4116 
L 825 1625 
L 2419 1625 
L 2419 4116 
z
M 2253 4666 
L 3047 4666 
L 3047 1625 
L 3713 1625 
L 3713 1100 
L 3047 1100 
L 3047 0 
L 2419 0 
L 2419 1100 
L 313 1100 
L 313 1709 
L 2253 4666 
z
" transform="scale(0.015625)"/>
       </defs>
       <use xlink:href="#DejaVuSans-17"/>
      </g>
     </g>
    </g>
    <g id="text_6">
     <!-- x -->
     <g transform="translate(191.643359 213.555938) scale(0.1 -0.1)">
      <defs>
       <path id="DejaVuSans-5b" d="M 3513 3500 
L 2247 1797 
L 3578 0 
L 2900 0 
L 1881 1375 
L 863 0 
L 184 0 
L 1544 1831 
L 300 3500 
L 978 3500 
L 1906 2253 
L 2834 3500 
L 3513 3500 
z
" transform="scale(0.015625)"/>
      </defs>
      <use xlink:href="#DejaVuSans-5b"/>
     </g>
    </g>
   </g>
   <g id="matplotlib.axis_2">
    <g id="ytick_1">
     <g id="line2d_11">
      <path d="M 44.103906 177.621918 
L 345.101562 177.621918 
" clip-path="url(#p96a91ee5bc)" style="fill: none; stroke: #b0b0b0; stroke-opacity: 0.25; stroke-width: 0.6; stroke-linecap: square"/>
     </g>
     <g id="line2d_12">
      <defs>
       <path id="m30a85909e4" d="M 0 0 
L -3.5 0 
" style="stroke: #000000; stroke-width: 0.8"/>
      </defs>
      <g>
       <use xlink:href="#m30a85909e4" x="44.103906" y="177.621918" style="stroke: #000000; stroke-width: 0.8"/>
      </g>
     </g>
     <g id="text_7">
      <!-- 0.0 -->
      <g transform="translate(21.200781 181.420746) scale(0.1 -0.1)">
       <defs>
        <path id="DejaVuSans-11" d="M 684 794 
L 1344 794 
L 1344 0 
L 684 0 
L 684 794 
z
" transform="scale(0.015625)"/>
       </defs>
       <use xlink:href="#DejaVuSans-13"/>
       <use xlink:href="#DejaVuSans-11" transform="translate(63.625 0)"/>
       <use xlink:href="#DejaVuSans-13" transform="translate(95.40625 0)"/>
      </g>
     </g>
    </g>
    <g id="ytick_2">
     <g id="line2d_13">
      <path d="M 44.103906 145.162113 
L 345.101562 145.162113 
" clip-path="url(#p96a91ee5bc)" style="fill: none; stroke: #b0b0b0; stroke-opacity: 0.25; stroke-width: 0.6; stroke-linecap: square"/>
     </g>
     <g id="line2d_14">
      <g>
       <use xlink:href="#m30a85909e4" x="44.103906" y="145.162113" style="stroke: #000000; stroke-width: 0.8"/>
      </g>
     </g>
     <g id="text_8">
      <!-- 0.2 -->
      <g transform="translate(21.200781 148.960941) scale(0.1 -0.1)">
       <use xlink:href="#DejaVuSans-13"/>
       <use xlink:href="#DejaVuSans-11" transform="translate(63.625 0)"/>
       <use xlink:href="#DejaVuSans-15" transform="translate(95.40625 0)"/>
      </g>
     </g>
    </g>
    <g id="ytick_3">
     <g id="line2d_15">
      <path d="M 44.103906 112.702308 
L 345.101562 112.702308 
" clip-path="url(#p96a91ee5bc)" style="fill: none; stroke: #b0b0b0; stroke-opacity: 0.25; stroke-width: 0.6; stroke-linecap: square"/>
     </g>
     <g id="line2d_16">
      <g>
       <use xlink:href="#m30a85909e4" x="44.103906" y="112.702308" style="stroke: #000000; stroke-width: 0.8"/>
      </g>
     </g>
     <g id="text_9">
      <!-- 0.4 -->
      <g transform="translate(21.200781 116.501136) scale(0.1 -0.1)">
       <use xlink:href="#DejaVuSans-13"/>
       <use xlink:href="#DejaVuSans-11" transform="translate(63.625 0)"/>
       <use xlink:href="#DejaVuSans-17" transform="translate(95.40625 0)"/>
      </g>
     </g>
    </g>
    <g id="ytick_4">
     <g id="line2d_17">
      <path d="M 44.103906 80.242503 
L 345.101562 80.242503 
" clip-path="url(#p96a91ee5bc)" style="fill: none; stroke: #b0b0b0; stroke-opacity: 0.25; stroke-width: 0.6; stroke-linecap: square"/>
     </g>
     <g id="line2d_18">
      <g>
       <use xlink:href="#m30a85909e4" x="44.103906" y="80.242503" style="stroke: #000000; stroke-width: 0.8"/>
      </g>
     </g>
     <g id="text_10">
      <!-- 0.6 -->
      <g transform="translate(21.200781 84.041331) scale(0.1 -0.1)">
       <defs>
        <path id="DejaVuSans-19" d="M 2113 2584 
Q 1688 2584 1439 2293 
Q 1191 2003 1191 1497 
Q 1191 994 1439 701 
Q 1688 409 2113 409 
Q 2538 409 2786 701 
Q 3034 994 3034 1497 
Q 3034 2003 2786 2293 
Q 2538 2584 2113 2584 
z
M 3366 4563 
L 3366 3988 
Q 3128 4100 2886 4159 
Q 2644 4219 2406 4219 
Q 1781 4219 1451 3797 
Q 1122 3375 1075 2522 
Q 1259 2794 1537 2939 
Q 1816 3084 2150 3084 
Q 2853 3084 3261 2657 
Q 3669 2231 3669 1497 
Q 3669 778 3244 343 
Q 2819 -91 2113 -91 
Q 1303 -91 875 529 
Q 447 1150 447 2328 
Q 447 3434 972 4092 
Q 1497 4750 2381 4750 
Q 2619 4750 2861 4703 
Q 3103 4656 3366 4563 
z
" transform="scale(0.015625)"/>
       </defs>
       <use xlink:href="#DejaVuSans-13"/>
       <use xlink:href="#DejaVuSans-11" transform="translate(63.625 0)"/>
       <use xlink:href="#DejaVuSans-19" transform="translate(95.40625 0)"/>
      </g>
     </g>
    </g>
    <g id="ytick_5">
     <g id="line2d_19">
      <path d="M 44.103906 47.782698 
L 345.101562 47.782698 
" clip-path="url(#p96a91ee5bc)" style="fill: none; stroke: #b0b0b0; stroke-opacity: 0.25; stroke-width: 0.6; stroke-linecap: square"/>
     </g>
     <g id="line2d_20">
      <g>
       <use xlink:href="#m30a85909e4" x="44.103906" y="47.782698" style="stroke: #000000; stroke-width: 0.8"/>
      </g>
     </g>
     <g id="text_11">
      <!-- 0.8 -->
      <g transform="translate(21.200781 51.581526) scale(0.1 -0.1)">
       <defs>
        <path id="DejaVuSans-1b" d="M 2034 2216 
Q 1584 2216 1326 1975 
Q 1069 1734 1069 1313 
Q 1069 891 1326 650 
Q 1584 409 2034 409 
Q 2484 409 2743 651 
Q 3003 894 3003 1313 
Q 3003 1734 2745 1975 
Q 2488 2216 2034 2216 
z
M 1403 2484 
Q 997 2584 770 2862 
Q 544 3141 544 3541 
Q 544 4100 942 4425 
Q 1341 4750 2034 4750 
Q 2731 4750 3128 4425 
Q 3525 4100 3525 3541 
Q 3525 3141 3298 2862 
Q 3072 2584 2669 2484 
Q 3125 2378 3379 2068 
Q 3634 1759 3634 1313 
Q 3634 634 3220 271 
Q 2806 -91 2034 -91 
Q 1263 -91 848 271 
Q 434 634 434 1313 
Q 434 1759 690 2068 
Q 947 2378 1403 2484 
z
M 1172 3481 
Q 1172 3119 1398 2916 
Q 1625 2713 2034 2713 
Q 2441 2713 2670 2916 
Q 2900 3119 2900 3481 
Q 2900 3844 2670 4047 
Q 2441 4250 2034 4250 
Q 1625 4250 1398 4047 
Q 1172 3844 1172 3481 
z
" transform="scale(0.015625)"/>
       </defs>
       <use xlink:href="#DejaVuSans-13"/>
       <use xlink:href="#DejaVuSans-11" transform="translate(63.625 0)"/>
       <use xlink:href="#DejaVuSans-1b" transform="translate(95.40625 0)"/>
      </g>
     </g>
    </g>
    <g id="text_12">
     <!-- f(x) -->
     <g transform="translate(14.798438 112.879375) rotate(-90) scale(0.1 -0.1)">
      <defs>
       <path id="DejaVuSans-49" d="M 2375 4863 
L 2375 4384 
L 1825 4384 
Q 1516 4384 1395 4259 
Q 1275 4134 1275 3809 
L 1275 3500 
L 2222 3500 
L 2222 3053 
L 1275 3053 
L 1275 0 
L 697 0 
L 697 3053 
L 147 3053 
L 147 3500 
L 697 3500 
L 697 3744 
Q 697 4328 969 4595 
Q 1241 4863 1831 4863 
L 2375 4863 
z
" transform="scale(0.015625)"/>
       <path id="DejaVuSans-b" d="M 1984 4856 
Q 1566 4138 1362 3434 
Q 1159 2731 1159 2009 
Q 1159 1288 1364 580 
Q 1569 -128 1984 -844 
L 1484 -844 
Q 1016 -109 783 600 
Q 550 1309 550 2009 
Q 550 2706 781 3412 
Q 1013 4119 1484 4856 
L 1984 4856 
z
" transform="scale(0.015625)"/>
       <path id="DejaVuSans-c" d="M 513 4856 
L 1013 4856 
Q 1481 4119 1714 3412 
Q 1947 2706 1947 2009 
Q 1947 1309 1714 600 
Q 1481 -109 1013 -844 
L 513 -844 
Q 928 -128 1133 580 
Q 1338 1288 1338 2009 
Q 1338 2731 1133 3434 
Q 928 4138 513 4856 
z
" transform="scale(0.015625)"/>
      </defs>
      <use xlink:href="#DejaVuSans-49"/>
      <use xlink:href="#DejaVuSans-b" transform="translate(35.203125 0)"/>
      <use xlink:href="#DejaVuSans-5b" transform="translate(74.21875 0)"/>
      <use xlink:href="#DejaVuSans-c" transform="translate(133.40625 0)"/>
     </g>
    </g>
   </g>
   <g id="line2d_21">
    <path d="M 57.785618 172.4976 
L 59.157218 169.189727 
L 60.528818 164.813579 
L 61.900418 159.370456 
L 63.272019 152.929613 
L 65.329419 141.6795 
L 67.386819 129.035718 
L 74.93062 80.782419 
L 76.98802 69.356618 
L 79.04542 59.300516 
L 80.417021 53.435908 
L 81.788621 48.271455 
L 83.160221 43.814466 
L 84.531821 40.059559 
L 85.903421 36.990924 
L 87.275021 34.584408 
L 88.646622 32.809405 
L 90.018222 31.630526 
L 90.704022 31.25263 
L 91.389822 31.009055 
L 92.075622 30.894645 
L 92.761422 30.904178 
L 93.447222 31.032394 
L 94.818822 31.623812 
L 96.190423 32.626993 
L 97.562023 34.000813 
L 98.933623 35.705407 
L 100.305223 37.702535 
L 102.362623 41.167775 
L 104.420024 45.096102 
L 107.163224 50.878492 
L 110.592224 58.689968 
L 118.136025 76.694099 
L 123.622426 89.451769 
L 127.737226 98.46405 
L 131.166227 105.511202 
L 134.595227 112.098281 
L 138.024228 118.210449 
L 141.453228 123.848007 
L 144.882228 129.022091 
L 148.311229 133.75131 
L 151.740229 138.059139 
L 155.16923 141.971945 
L 158.59823 145.517513 
L 162.02723 148.723959 
L 165.456231 151.618967 
L 168.885231 154.229252 
L 172.314232 156.580213 
L 175.743232 158.695717 
L 179.858033 160.954689 
L 183.972833 162.941722 
L 188.087634 164.688587 
L 192.888234 166.460872 
L 197.688835 167.984851 
L 203.175235 169.466856 
L 208.661636 170.714276 
L 214.833837 171.883789 
L 221.691838 172.944642 
L 229.235639 173.878397 
L 237.46524 174.677841 
L 247.066441 175.389256 
L 258.725042 176.017551 
L 272.441044 176.526015 
L 289.586046 176.933499 
L 312.903249 177.248741 
L 331.419851 177.388805 
L 331.419851 177.388805 
" clip-path="url(#p96a91ee5bc)" style="fill: none; stroke: #4c78a8; stroke-width: 2; stroke-linecap: square"/>
   </g>
   <g id="patch_3">
    <path d="M 44.103906 184.958281 
L 44.103906 23.558281 
" style="fill: none; stroke: #000000; stroke-width: 0.8; stroke-linejoin: miter; stroke-linecap: square"/>
   </g>
   <g id="patch_4">
    <path d="M 44.103906 184.958281 
L 345.101563 184.958281 
" style="fill: none; stroke: #000000; stroke-width: 0.8; stroke-linejoin: miter; stroke-linecap: square"/>
   </g>
   <g id="text_13">
    <!-- Log Normal -->
    <g transform="translate(163.128984 15.558281) scale(0.11 -0.11)">
     <defs>
      <path id="DejaVuSans-2f" d="M 628 4666 
L 1259 4666 
L 1259 531 
L 3531 531 
L 3531 0 
L 628 0 
L 628 4666 
z
" transform="scale(0.015625)"/>
      <path id="DejaVuSans-52" d="M 1959 3097 
Q 1497 3097 1228 2736 
Q 959 2375 959 1747 
Q 959 1119 1226 758 
Q 1494 397 1959 397 
Q 2419 397 2687 759 
Q 2956 1122 2956 1747 
Q 2956 2369 2687 2733 
Q 2419 3097 1959 3097 
z
M 1959 3584 
Q 2709 3584 3137 3096 
Q 3566 2609 3566 1747 
Q 3566 888 3137 398 
Q 2709 -91 1959 -91 
Q 1206 -91 779 398 
Q 353 888 353 1747 
Q 353 2609 779 3096 
Q 1206 3584 1959 3584 
z
" transform="scale(0.015625)"/>
      <path id="DejaVuSans-4a" d="M 2906 1791 
Q 2906 2416 2648 2759 
Q 2391 3103 1925 3103 
Q 1463 3103 1205 2759 
Q 947 2416 947 1791 
Q 947 1169 1205 825 
Q 1463 481 1925 481 
Q 2391 481 2648 825 
Q 2906 1169 2906 1791 
z
M 3481 434 
Q 3481 -459 3084 -895 
Q 2688 -1331 1869 -1331 
Q 1566 -1331 1297 -1286 
Q 1028 -1241 775 -1147 
L 775 -588 
Q 1028 -725 1275 -790 
Q 1522 -856 1778 -856 
Q 2344 -856 2625 -561 
Q 2906 -266 2906 331 
L 2906 616 
Q 2728 306 2450 153 
Q 2172 0 1784 0 
Q 1141 0 747 490 
Q 353 981 353 1791 
Q 353 2603 747 3093 
Q 1141 3584 1784 3584 
Q 2172 3584 2450 3431 
Q 2728 3278 2906 2969 
L 2906 3500 
L 3481 3500 
L 3481 434 
z
" transform="scale(0.015625)"/>
      <path id="DejaVuSans-3" transform="scale(0.015625)"/>
      <path id="DejaVuSans-31" d="M 628 4666 
L 1478 4666 
L 3547 763 
L 3547 4666 
L 4159 4666 
L 4159 0 
L 3309 0 
L 1241 3903 
L 1241 0 
L 628 0 
L 628 4666 
z
" transform="scale(0.015625)"/>
      <path id="DejaVuSans-55" d="M 2631 2963 
Q 2534 3019 2420 3045 
Q 2306 3072 2169 3072 
Q 1681 3072 1420 2755 
Q 1159 2438 1159 1844 
L 1159 0 
L 581 0 
L 581 3500 
L 1159 3500 
L 1159 2956 
Q 1341 3275 1631 3429 
Q 1922 3584 2338 3584 
Q 2397 3584 2469 3576 
Q 2541 3569 2628 3553 
L 2631 2963 
z
" transform="scale(0.015625)"/>
      <path id="DejaVuSans-50" d="M 3328 2828 
Q 3544 3216 3844 3400 
Q 4144 3584 4550 3584 
Q 5097 3584 5394 3201 
Q 5691 2819 5691 2113 
L 5691 0 
L 5113 0 
L 5113 2094 
Q 5113 2597 4934 2840 
Q 4756 3084 4391 3084 
Q 3944 3084 3684 2787 
Q 3425 2491 3425 1978 
L 3425 0 
L 2847 0 
L 2847 2094 
Q 2847 2600 2669 2842 
Q 2491 3084 2119 3084 
Q 1678 3084 1418 2786 
Q 1159 2488 1159 1978 
L 1159 0 
L 581 0 
L 581 3500 
L 1159 3500 
L 1159 2956 
Q 1356 3278 1631 3431 
Q 1906 3584 2284 3584 
Q 2666 3584 2933 3390 
Q 3200 3197 3328 2828 
z
" transform="scale(0.015625)"/>
      <path id="DejaVuSans-44" d="M 2194 1759 
Q 1497 1759 1228 1600 
Q 959 1441 959 1056 
Q 959 750 1161 570 
Q 1363 391 1709 391 
Q 2188 391 2477 730 
Q 2766 1069 2766 1631 
L 2766 1759 
L 2194 1759 
z
M 3341 1997 
L 3341 0 
L 2766 0 
L 2766 531 
Q 2569 213 2275 61 
Q 1981 -91 1556 -91 
Q 1019 -91 701 211 
Q 384 513 384 1019 
Q 384 1609 779 1909 
Q 1175 2209 1959 2209 
L 2766 2209 
L 2766 2266 
Q 2766 2663 2505 2880 
Q 2244 3097 1772 3097 
Q 1472 3097 1187 3025 
Q 903 2953 641 2809 
L 641 3341 
Q 956 3463 1253 3523 
Q 1550 3584 1831 3584 
Q 2591 3584 2966 3190 
Q 3341 2797 3341 1997 
z
" transform="scale(0.015625)"/>
      <path id="DejaVuSans-4f" d="M 603 4863 
L 1178 4863 
L 1178 0 
L 603 0 
L 603 4863 
z
" transform="scale(0.015625)"/>
     </defs>
     <use xlink:href="#DejaVuSans-2f"/>
     <use xlink:href="#DejaVuSans-52" transform="translate(53.96875 0)"/>
     <use xlink:href="#DejaVuSans-4a" transform="translate(115.15625 0)"/>
     <use xlink:href="#DejaVuSans-3" transform="translate(178.640625 0)"/>
     <use xlink:href="#DejaVuSans-31" transform="translate(210.421875 0)"/>
     <use xlink:href="#DejaVuSans-52" transform="translate(285.234375 0)"/>
     <use xlink:href="#DejaVuSans-55" transform="translate(346.421875 0)"/>
     <use xlink:href="#DejaVuSans-50" transform="translate(385.78125 0)"/>
     <use xlink:href="#DejaVuSans-44" transform="translate(483.1875 0)"/>
     <use xlink:href="#DejaVuSans-4f" transform="translate(544.46875 0)"/>
    </g>
   </g>
  </g>
 </g>
 <defs>
  <clipPath id="p96a91ee5bc">
   <rect x="44.103906" y="23.558281" width="300.997656" height="161.4"/>
  </clipPath>
 </defs>
</svg>
