<?xml version="1.0" encoding="utf-8" standalone="no"?>
<!DOCTYPE svg PUBLIC "-//W3C//DTD SVG 1.1//EN"
  "http://www.w3.org/Graphics/SVG/1.1/DTD/svg11.dtd">
<svg xmlns:xlink="http://www.w3.org/1999/xlink" width="352.064062pt" height="223.158281pt" viewBox="0 0 352.064062 223.158281" xmlns="http://www.w3.org/2000/svg" version="1.1">
 <metadata>
  <rdf:RDF xmlns:dc="http://purl.org/dc/elements/1.1/" xmlns:cc="http://creativecommons.org/ns#" xmlns:rdf="http://www.w3.org/1999/02/22-rdf-syntax-ns#">
   <cc:Work>
    <dc:type rdf:resource="http://purl.org/dc/dcmitype/StillImage"/>
    <dc:date>2026-07-05T02:24:32.222138</dc:date>
    <dc:format>image/svg+xml</dc:format>
    <dc:creator>
     <cc:Agent>
      <dc:title>Matplotlib v3.11.0, https://matplotlib.org/</dc:title>
     </cc:Agent>
    </dc:creator>
   </cc:Work>
  </rdf:RDF>
 </metadata>
 <defs>
  <style type="text/css">*{stroke-linejoin: round; stroke-linecap: butt}</style>
 </defs>
 <g id="figure_1">
  <g id="patch_1">
   <path d="M 0 223.158281 
L 352.064062 223.158281 
L 352.064062 0 
L 0 0 
z
" style="fill: #ffffff"/>
  </g>
  <g id="axes_1">
   <g id="patch_2">
    <path d="M 50.466406 184.958281 
L 344.864062 184.958281 
L 344.864062 23.558281 
L 50.466406 23.558281 
z
" style="fill: #ffffff"/>
   </g>
   <g id="FillBetweenPolyCollection_1">
    <defs>
     <path id="m0572d910f6" d="M 63.848118 -45.536364 
L 63.848118 -46.12273 
L 64.51888 -46.143343 
L 65.189643 -46.164679 
L 65.860405 -46.186763 
L 66.531168 -46.209622 
L 67.20193 -46.233282 
L 67.872693 -46.257771 
L 68.543455 -46.283119 
L 69.214218 -46.309356 
L 69.88498 -46.336511 
L 70.555743 -46.364618 
L 71.226505 -46.393709 
L 71.897268 -46.423819 
L 72.56803 -46.454983 
L 73.238793 -46.487238 
L 73.909555 -46.520622 
L 74.580318 -46.555173 
L 75.25108 -46.590933 
L 75.921843 -46.627943 
L 76.592605 -46.666248 
L 77.263368 -46.705891 
L 77.93413 -46.746919 
L 78.604893 -46.78938 
L 79.275655 -46.833324 
L 79.946418 -46.878802 
L 80.61718 -46.925867 
L 81.287943 -46.974574 
L 81.958705 -47.02498 
L 82.629468 -47.077143 
L 83.30023 -47.131124 
L 83.970993 -47.186985 
L 84.641755 -47.244791 
L 85.312518 -47.304609 
L 85.98328 -47.366509 
L 86.654043 -47.430561 
L 87.324805 -47.49684 
L 87.995567 -47.565422 
L 88.66633 -47.636385 
L 89.337092 -47.709812 
L 90.007855 -47.785786 
L 90.678617 -47.864395 
L 91.34938 -47.945727 
L 92.020142 -48.029877 
L 92.690905 -48.116939 
L 93.361667 -48.207013 
L 94.03243 -48.300201 
L 94.703192 -48.396608 
L 95.373955 -48.496343 
L 96.044717 -48.599519 
L 96.71548 -48.706252 
L 97.386242 -48.816661 
L 98.057005 -48.93087 
L 98.727767 -49.049007 
L 99.39853 -49.171204 
L 100.069292 -49.297595 
L 100.740055 -49.428322 
L 101.410817 -49.563528 
L 102.08158 -49.703363 
L 102.752342 -49.84798 
L 103.423105 -49.997537 
L 104.093867 -50.152198 
L 104.76463 -50.31213 
L 105.435392 -50.477508 
L 106.106155 -50.648509 
L 106.776917 -50.825318 
L 107.44768 -51.008124 
L 108.118442 -51.197121 
L 108.789205 -51.392511 
L 109.459967 -51.594501 
L 110.13073 -51.803302 
L 110.801492 -52.019134 
L 111.472255 -52.242222 
L 112.143017 -52.472797 
L 112.81378 -52.711097 
L 113.484542 -52.957366 
L 114.155305 -53.211855 
L 114.826067 -53.474822 
L 115.49683 -53.746533 
L 116.167592 -54.027259 
L 116.838354 -54.31728 
L 117.509117 -54.61688 
L 118.179879 -54.926355 
L 118.850642 -55.246004 
L 119.521404 -55.576137 
L 120.192167 -55.917069 
L 120.862929 -56.269123 
L 121.533692 -56.63263 
L 122.204454 -57.007929 
L 122.875217 -57.395365 
L 123.545979 -57.795293 
L 124.216742 -58.208074 
L 124.887504 -58.634076 
L 125.558267 -59.073674 
L 126.229029 -59.527254 
L 126.899792 -59.995205 
L 127.570554 -60.477925 
L 128.241317 -60.975819 
L 128.912079 -61.489297 
L 129.582842 -62.018779 
L 130.253604 -62.564689 
L 130.924367 -63.127455 
L 131.595129 -63.707515 
L 132.265892 -64.305309 
L 132.936654 -64.921283 
L 133.607417 -65.555887 
L 134.278179 -66.209577 
L 134.948942 -66.882808 
L 135.619704 -67.576041 
L 136.290467 -68.28974 
L 136.961229 -69.024367 
L 137.631992 -69.780386 
L 138.302754 -70.558262 
L 138.973517 -71.358457 
L 139.644279 -72.181432 
L 140.315042 -73.027644 
L 140.985804 -73.897546 
L 141.656567 -74.791585 
L 142.327329 -75.710201 
L 142.998092 -76.653827 
L 143.668854 -77.622885 
L 144.339617 -78.617785 
L 145.010379 -79.638927 
L 145.681142 -80.686691 
L 146.351904 -81.761447 
L 147.022666 -82.863541 
L 147.693429 -83.993301 
L 148.364191 -85.151032 
L 149.034954 -86.337014 
L 149.705716 -87.551501 
L 150.376479 -88.794714 
L 151.047241 -90.066845 
L 151.718004 -91.36805 
L 152.388766 -92.698449 
L 153.059529 -94.058118 
L 153.730291 -95.447095 
L 154.401054 -96.865368 
L 155.071816 -98.312878 
L 155.742579 -99.789513 
L 156.413341 -101.295106 
L 157.084104 -102.829432 
L 157.754866 -104.392205 
L 158.425629 -105.983074 
L 159.096391 -107.60162 
L 159.767154 -109.247352 
L 160.437916 -110.919708 
L 161.108679 -112.618046 
L 161.779441 -114.341645 
L 162.450204 -116.089701 
L 163.120966 -117.861324 
L 163.791729 -119.655537 
L 164.462491 -121.47127 
L 165.133254 -123.307362 
L 165.804016 -125.162554 
L 166.474779 -127.035493 
L 167.145541 -128.924727 
L 167.816304 -130.828702 
L 168.487066 -132.745766 
L 169.157829 -134.674164 
L 169.828591 -136.612043 
L 170.499354 -138.557445 
L 171.170116 -140.508314 
L 171.840879 -142.462496 
L 172.511641 -144.417738 
L 173.182404 -146.371693 
L 173.853166 -148.321922 
L 174.523929 -150.265898 
L 175.194691 -152.201008 
L 175.865453 -154.12456 
L 176.536216 -156.033788 
L 177.206978 -157.925855 
L 177.877741 -159.797862 
L 178.548503 -161.646856 
L 179.219266 -163.469835 
L 179.890028 -165.263756 
L 180.560791 -167.025547 
L 181.231553 -168.752114 
L 181.902316 -170.440351 
L 182.573078 -172.087149 
L 183.243841 -173.68941 
L 183.914603 -175.244055 
L 184.585366 -176.748037 
L 185.256128 -178.198351 
L 185.926891 -179.592048 
L 186.597653 -180.926245 
L 187.268416 -182.198137 
L 187.939178 -183.405011 
L 188.609941 -184.544254 
L 189.280703 -185.613368 
L 189.951466 -186.609981 
L 190.622228 -187.531853 
L 191.292991 -188.376894 
L 191.963753 -189.143168 
L 192.634516 -189.828905 
L 193.305278 -190.432509 
L 193.976041 -190.952565 
L 194.646803 -191.387847 
L 195.317566 -191.737324 
L 195.988328 -192.000165 
L 196.659091 -192.175742 
L 197.329853 -192.263636 
L 198.000616 -192.263636 
L 198.671378 -192.175742 
L 199.342141 -192.000165 
L 200.012903 -191.737324 
L 200.683666 -191.387847 
L 201.354428 -190.952565 
L 202.025191 -190.432509 
L 202.695953 -189.828905 
L 203.366716 -189.143168 
L 204.037478 -188.376894 
L 204.708241 -187.531853 
L 205.379003 -186.609981 
L 206.049765 -185.613368 
L 206.720528 -184.544254 
L 207.39129 -183.405011 
L 208.062053 -182.198137 
L 208.732815 -180.926245 
L 209.403578 -179.592048 
L 210.07434 -178.198351 
L 210.745103 -176.748037 
L 211.415865 -175.244055 
L 212.086628 -173.68941 
L 212.75739 -172.087149 
L 213.428153 -170.440351 
L 214.098915 -168.752114 
L 214.769678 -167.025547 
L 215.44044 -165.263756 
L 216.111203 -163.469835 
L 216.781965 -161.646856 
L 217.452728 -159.797862 
L 218.12349 -157.925855 
L 218.794253 -156.033788 
L 219.465015 -154.12456 
L 220.135778 -152.201008 
L 220.80654 -150.265898 
L 221.477303 -148.321922 
L 222.148065 -146.371693 
L 222.818828 -144.417738 
L 223.48959 -142.462496 
L 224.160353 -140.508314 
L 224.831115 -138.557445 
L 225.501878 -136.612043 
L 226.17264 -134.674164 
L 226.843403 -132.745766 
L 227.514165 -130.828702 
L 228.184928 -128.924727 
L 228.85569 -127.035493 
L 229.526453 -125.162554 
L 230.197215 -123.307362 
L 230.867978 -121.47127 
L 231.53874 -119.655537 
L 232.209503 -117.861324 
L 232.880265 -116.089701 
L 233.551028 -114.341645 
L 234.22179 -112.618046 
L 234.892552 -110.919708 
L 235.563315 -109.247352 
L 236.234077 -107.60162 
L 236.90484 -105.983074 
L 237.575602 -104.392205 
L 238.246365 -102.829432 
L 238.917127 -101.295106 
L 239.58789 -99.789513 
L 240.258652 -98.312878 
L 240.929415 -96.865368 
L 241.600177 -95.447095 
L 242.27094 -94.058118 
L 242.941702 -92.698449 
L 243.612465 -91.36805 
L 244.283227 -90.066845 
L 244.95399 -88.794714 
L 245.624752 -87.551501 
L 246.295515 -86.337014 
L 246.966277 -85.151032 
L 247.63704 -83.993301 
L 248.307802 -82.863541 
L 248.978565 -81.761447 
L 249.649327 -80.686691 
L 250.32009 -79.638927 
L 250.990852 -78.617785 
L 251.661615 -77.622885 
L 252.332377 -76.653827 
L 253.00314 -75.710201 
L 253.673902 -74.791585 
L 254.344665 -73.897546 
L 255.015427 -73.027644 
L 255.68619 -72.181432 
L 256.356952 -71.358457 
L 257.027715 -70.558262 
L 257.698477 -69.780386 
L 258.36924 -69.024367 
L 259.040002 -68.28974 
L 259.710765 -67.576041 
L 260.381527 -66.882808 
L 261.05229 -66.209577 
L 261.723052 -65.555887 
L 262.393815 -64.921283 
L 263.064577 -64.305309 
L 263.73534 -63.707515 
L 264.406102 -63.127455 
L 265.076864 -62.564689 
L 265.747627 -62.018779 
L 266.418389 -61.489297 
L 267.089152 -60.975819 
L 267.759914 -60.477925 
L 268.430677 -59.995205 
L 269.101439 -59.527254 
L 269.772202 -59.073674 
L 270.442964 -58.634076 
L 271.113727 -58.208074 
L 271.784489 -57.795293 
L 272.455252 -57.395365 
L 273.126014 -57.007929 
L 273.796777 -56.63263 
L 274.467539 -56.269123 
L 275.138302 -55.917069 
L 275.809064 -55.576137 
L 276.479827 -55.246004 
L 277.150589 -54.926355 
L 277.821352 -54.61688 
L 278.492114 -54.31728 
L 279.162877 -54.027259 
L 279.833639 -53.746533 
L 280.504402 -53.474822 
L 281.175164 -53.211855 
L 281.845927 -52.957366 
L 282.516689 -52.711097 
L 283.187452 -52.472797 
L 283.858214 -52.242222 
L 284.528977 -52.019134 
L 285.199739 -51.803302 
L 285.870502 -51.594501 
L 286.541264 -51.392511 
L 287.212027 -51.197121 
L 287.882789 -51.008124 
L 288.553552 -50.825318 
L 289.224314 -50.648509 
L 289.895077 -50.477508 
L 290.565839 -50.31213 
L 291.236602 -50.152198 
L 291.907364 -49.997537 
L 292.578127 -49.84798 
L 293.248889 -49.703363 
L 293.919651 -49.563528 
L 294.590414 -49.428322 
L 295.261176 -49.297595 
L 295.931939 -49.171204 
L 296.602701 -49.049007 
L 297.273464 -48.93087 
L 297.944226 -48.816661 
L 298.614989 -48.706252 
L 299.285751 -48.599519 
L 299.956514 -48.496343 
L 300.627276 -48.396608 
L 301.298039 -48.300201 
L 301.968801 -48.207013 
L 302.639564 -48.116939 
L 303.310326 -48.029877 
L 303.981089 -47.945727 
L 304.651851 -47.864395 
L 305.322614 -47.785786 
L 305.993376 -47.709812 
L 306.664139 -47.636385 
L 307.334901 -47.565422 
L 308.005664 -47.49684 
L 308.676426 -47.430561 
L 309.347189 -47.366509 
L 310.017951 -47.304609 
L 310.688714 -47.244791 
L 311.359476 -47.186985 
L 312.030239 -47.131124 
L 312.701001 -47.077143 
L 313.371764 -47.02498 
L 314.042526 -46.974574 
L 314.713289 -46.925867 
L 315.384051 -46.878802 
L 316.054814 -46.833324 
L 316.725576 -46.78938 
L 317.396339 -46.746919 
L 318.067101 -46.705891 
L 318.737864 -46.666248 
L 319.408626 -46.627943 
L 320.079389 -46.590933 
L 320.750151 -46.555173 
L 321.420914 -46.520622 
L 322.091676 -46.487238 
L 322.762439 -46.454983 
L 323.433201 -46.423819 
L 324.103963 -46.393709 
L 324.774726 -46.364618 
L 325.445488 -46.336511 
L 326.116251 -46.309356 
L 326.787013 -46.283119 
L 327.457776 -46.257771 
L 328.128538 -46.233282 
L 328.799301 -46.209622 
L 329.470063 -46.186763 
L 330.140826 -46.164679 
L 330.811588 -46.143343 
L 331.482351 -46.12273 
L 331.482351 -45.536364 
L 331.482351 -45.536364 
L 330.811588 -45.536364 
L 330.140826 -45.536364 
L 329.470063 -45.536364 
L 328.799301 -45.536364 
L 328.128538 -45.536364 
L 327.457776 -45.536364 
L 326.787013 -45.536364 
L 326.116251 -45.536364 
L 325.445488 -45.536364 
L 324.774726 -45.536364 
L 324.103963 -45.536364 
L 323.433201 -45.536364 
L 322.762439 -45.536364 
L 322.091676 -45.536364 
L 321.420914 -45.536364 
L 320.750151 -45.536364 
L 320.079389 -45.536364 
L 319.408626 -45.536364 
L 318.737864 -45.536364 
L 318.067101 -45.536364 
L 317.396339 -45.536364 
L 316.725576 -45.536364 
L 316.054814 -45.536364 
L 315.384051 -45.536364 
L 314.713289 -45.536364 
L 314.042526 -45.536364 
L 313.371764 -45.536364 
L 312.701001 -45.536364 
L 312.030239 -45.536364 
L 311.359476 -45.536364 
L 310.688714 -45.536364 
L 310.017951 -45.536364 
L 309.347189 -45.536364 
L 308.676426 -45.536364 
L 308.005664 -45.536364 
L 307.334901 -45.536364 
L 306.664139 -45.536364 
L 305.993376 -45.536364 
L 305.322614 -45.536364 
L 304.651851 -45.536364 
L 303.981089 -45.536364 
L 303.310326 -45.536364 
L 302.639564 -45.536364 
L 301.968801 -45.536364 
L 301.298039 -45.536364 
L 300.627276 -45.536364 
L 299.956514 -45.536364 
L 299.285751 -45.536364 
L 298.614989 -45.536364 
L 297.944226 -45.536364 
L 297.273464 -45.536364 
L 296.602701 -45.536364 
L 295.931939 -45.536364 
L 295.261176 -45.536364 
L 294.590414 -45.536364 
L 293.919651 -45.536364 
L 293.248889 -45.536364 
L 292.578127 -45.536364 
L 291.907364 -45.536364 
L 291.236602 -45.536364 
L 290.565839 -45.536364 
L 289.895077 -45.536364 
L 289.224314 -45.536364 
L 288.553552 -45.536364 
L 287.882789 -45.536364 
L 287.212027 -45.536364 
L 286.541264 -45.536364 
L 285.870502 -45.536364 
L 285.199739 -45.536364 
L 284.528977 -45.536364 
L 283.858214 -45.536364 
L 283.187452 -45.536364 
L 282.516689 -45.536364 
L 281.845927 -45.536364 
L 281.175164 -45.536364 
L 280.504402 -45.536364 
L 279.833639 -45.536364 
L 279.162877 -45.536364 
L 278.492114 -45.536364 
L 277.821352 -45.536364 
L 277.150589 -45.536364 
L 276.479827 -45.536364 
L 275.809064 -45.536364 
L 275.138302 -45.536364 
L 274.467539 -45.536364 
L 273.796777 -45.536364 
L 273.126014 -45.536364 
L 272.455252 -45.536364 
L 271.784489 -45.536364 
L 271.113727 -45.536364 
L 270.442964 -45.536364 
L 269.772202 -45.536364 
L 269.101439 -45.536364 
L 268.430677 -45.536364 
L 267.759914 -45.536364 
L 267.089152 -45.536364 
L 266.418389 -45.536364 
L 265.747627 -45.536364 
L 265.076864 -45.536364 
L 264.406102 -45.536364 
L 263.73534 -45.536364 
L 263.064577 -45.536364 
L 262.393815 -45.536364 
L 261.723052 -45.536364 
L 261.05229 -45.536364 
L 260.381527 -45.536364 
L 259.710765 -45.536364 
L 259.040002 -45.536364 
L 258.36924 -45.536364 
L 257.698477 -45.536364 
L 257.027715 -45.536364 
L 256.356952 -45.536364 
L 255.68619 -45.536364 
L 255.015427 -45.536364 
L 254.344665 -45.536364 
L 253.673902 -45.536364 
L 253.00314 -45.536364 
L 252.332377 -45.536364 
L 251.661615 -45.536364 
L 250.990852 -45.536364 
L 250.32009 -45.536364 
L 249.649327 -45.536364 
L 248.978565 -45.536364 
L 248.307802 -45.536364 
L 247.63704 -45.536364 
L 246.966277 -45.536364 
L 246.295515 -45.536364 
L 245.624752 -45.536364 
L 244.95399 -45.536364 
L 244.283227 -45.536364 
L 243.612465 -45.536364 
L 242.941702 -45.536364 
L 242.27094 -45.536364 
L 241.600177 -45.536364 
L 240.929415 -45.536364 
L 240.258652 -45.536364 
L 239.58789 -45.536364 
L 238.917127 -45.536364 
L 238.246365 -45.536364 
L 237.575602 -45.536364 
L 236.90484 -45.536364 
L 236.234077 -45.536364 
L 235.563315 -45.536364 
L 234.892552 -45.536364 
L 234.22179 -45.536364 
L 233.551028 -45.536364 
L 232.880265 -45.536364 
L 232.209503 -45.536364 
L 231.53874 -45.536364 
L 230.867978 -45.536364 
L 230.197215 -45.536364 
L 229.526453 -45.536364 
L 228.85569 -45.536364 
L 228.184928 -45.536364 
L 227.514165 -45.536364 
L 226.843403 -45.536364 
L 226.17264 -45.536364 
L 225.501878 -45.536364 
L 224.831115 -45.536364 
L 224.160353 -45.536364 
L 223.48959 -45.536364 
L 222.818828 -45.536364 
L 222.148065 -45.536364 
L 221.477303 -45.536364 
L 220.80654 -45.536364 
L 220.135778 -45.536364 
L 219.465015 -45.536364 
L 218.794253 -45.536364 
L 218.12349 -45.536364 
L 217.452728 -45.536364 
L 216.781965 -45.536364 
L 216.111203 -45.536364 
L 215.44044 -45.536364 
L 214.769678 -45.536364 
L 214.098915 -45.536364 
L 213.428153 -45.536364 
L 212.75739 -45.536364 
L 212.086628 -45.536364 
L 211.415865 -45.536364 
L 210.745103 -45.536364 
L 210.07434 -45.536364 
L 209.403578 -45.536364 
L 208.732815 -45.536364 
L 208.062053 -45.536364 
L 207.39129 -45.536364 
L 206.720528 -45.536364 
L 206.049765 -45.536364 
L 205.379003 -45.536364 
L 204.708241 -45.536364 
L 204.037478 -45.536364 
L 203.366716 -45.536364 
L 202.695953 -45.536364 
L 202.025191 -45.536364 
L 201.354428 -45.536364 
L 200.683666 -45.536364 
L 200.012903 -45.536364 
L 199.342141 -45.536364 
L 198.671378 -45.536364 
L 198.000616 -45.536364 
L 197.329853 -45.536364 
L 196.659091 -45.536364 
L 195.988328 -45.536364 
L 195.317566 -45.536364 
L 194.646803 -45.536364 
L 193.976041 -45.536364 
L 193.305278 -45.536364 
L 192.634516 -45.536364 
L 191.963753 -45.536364 
L 191.292991 -45.536364 
L 190.622228 -45.536364 
L 189.951466 -45.536364 
L 189.280703 -45.536364 
L 188.609941 -45.536364 
L 187.939178 -45.536364 
L 187.268416 -45.536364 
L 186.597653 -45.536364 
L 185.926891 -45.536364 
L 185.256128 -45.536364 
L 184.585366 -45.536364 
L 183.914603 -45.536364 
L 183.243841 -45.536364 
L 182.573078 -45.536364 
L 181.902316 -45.536364 
L 181.231553 -45.536364 
L 180.560791 -45.536364 
L 179.890028 -45.536364 
L 179.219266 -45.536364 
L 178.548503 -45.536364 
L 177.877741 -45.536364 
L 177.206978 -45.536364 
L 176.536216 -45.536364 
L 175.865453 -45.536364 
L 175.194691 -45.536364 
L 174.523929 -45.536364 
L 173.853166 -45.536364 
L 173.182404 -45.536364 
L 172.511641 -45.536364 
L 171.840879 -45.536364 
L 171.170116 -45.536364 
L 170.499354 -45.536364 
L 169.828591 -45.536364 
L 169.157829 -45.536364 
L 168.487066 -45.536364 
L 167.816304 -45.536364 
L 167.145541 -45.536364 
L 166.474779 -45.536364 
L 165.804016 -45.536364 
L 165.133254 -45.536364 
L 164.462491 -45.536364 
L 163.791729 -45.536364 
L 163.120966 -45.536364 
L 162.450204 -45.536364 
L 161.779441 -45.536364 
L 161.108679 -45.536364 
L 160.437916 -45.536364 
L 159.767154 -45.536364 
L 159.096391 -45.536364 
L 158.425629 -45.536364 
L 157.754866 -45.536364 
L 157.084104 -45.536364 
L 156.413341 -45.536364 
L 155.742579 -45.536364 
L 155.071816 -45.536364 
L 154.401054 -45.536364 
L 153.730291 -45.536364 
L 153.059529 -45.536364 
L 152.388766 -45.536364 
L 151.718004 -45.536364 
L 151.047241 -45.536364 
L 150.376479 -45.536364 
L 149.705716 -45.536364 
L 149.034954 -45.536364 
L 148.364191 -45.536364 
L 147.693429 -45.536364 
L 147.022666 -45.536364 
L 146.351904 -45.536364 
L 145.681142 -45.536364 
L 145.010379 -45.536364 
L 144.339617 -45.536364 
L 143.668854 -45.536364 
L 142.998092 -45.536364 
L 142.327329 -45.536364 
L 141.656567 -45.536364 
L 140.985804 -45.536364 
L 140.315042 -45.536364 
L 139.644279 -45.536364 
L 138.973517 -45.536364 
L 138.302754 -45.536364 
L 137.631992 -45.536364 
L 136.961229 -45.536364 
L 136.290467 -45.536364 
L 135.619704 -45.536364 
L 134.948942 -45.536364 
L 134.278179 -45.536364 
L 133.607417 -45.536364 
L 132.936654 -45.536364 
L 132.265892 -45.536364 
L 131.595129 -45.536364 
L 130.924367 -45.536364 
L 130.253604 -45.536364 
L 129.582842 -45.536364 
L 128.912079 -45.536364 
L 128.241317 -45.536364 
L 127.570554 -45.536364 
L 126.899792 -45.536364 
L 126.229029 -45.536364 
L 125.558267 -45.536364 
L 124.887504 -45.536364 
L 124.216742 -45.536364 
L 123.545979 -45.536364 
L 122.875217 -45.536364 
L 122.204454 -45.536364 
L 121.533692 -45.536364 
L 120.862929 -45.536364 
L 120.192167 -45.536364 
L 119.521404 -45.536364 
L 118.850642 -45.536364 
L 118.179879 -45.536364 
L 117.509117 -45.536364 
L 116.838354 -45.536364 
L 116.167592 -45.536364 
L 115.49683 -45.536364 
L 114.826067 -45.536364 
L 114.155305 -45.536364 
L 113.484542 -45.536364 
L 112.81378 -45.536364 
L 112.143017 -45.536364 
L 111.472255 -45.536364 
L 110.801492 -45.536364 
L 110.13073 -45.536364 
L 109.459967 -45.536364 
L 108.789205 -45.536364 
L 108.118442 -45.536364 
L 107.44768 -45.536364 
L 106.776917 -45.536364 
L 106.106155 -45.536364 
L 105.435392 -45.536364 
L 104.76463 -45.536364 
L 104.093867 -45.536364 
L 103.423105 -45.536364 
L 102.752342 -45.536364 
L 102.08158 -45.536364 
L 101.410817 -45.536364 
L 100.740055 -45.536364 
L 100.069292 -45.536364 
L 99.39853 -45.536364 
L 98.727767 -45.536364 
L 98.057005 -45.536364 
L 97.386242 -45.536364 
L 96.71548 -45.536364 
L 96.044717 -45.536364 
L 95.373955 -45.536364 
L 94.703192 -45.536364 
L 94.03243 -45.536364 
L 93.361667 -45.536364 
L 92.690905 -45.536364 
L 92.020142 -45.536364 
L 91.34938 -45.536364 
L 90.678617 -45.536364 
L 90.007855 -45.536364 
L 89.337092 -45.536364 
L 88.66633 -45.536364 
L 87.995567 -45.536364 
L 87.324805 -45.536364 
L 86.654043 -45.536364 
L 85.98328 -45.536364 
L 85.312518 -45.536364 
L 84.641755 -45.536364 
L 83.970993 -45.536364 
L 83.30023 -45.536364 
L 82.629468 -45.536364 
L 81.958705 -45.536364 
L 81.287943 -45.536364 
L 80.61718 -45.536364 
L 79.946418 -45.536364 
L 79.275655 -45.536364 
L 78.604893 -45.536364 
L 77.93413 -45.536364 
L 77.263368 -45.536364 
L 76.592605 -45.536364 
L 75.921843 -45.536364 
L 75.25108 -45.536364 
L 74.580318 -45.536364 
L 73.909555 -45.536364 
L 73.238793 -45.536364 
L 72.56803 -45.536364 
L 71.897268 -45.536364 
L 71.226505 -45.536364 
L 70.555743 -45.536364 
L 69.88498 -45.536364 
L 69.214218 -45.536364 
L 68.543455 -45.536364 
L 67.872693 -45.536364 
L 67.20193 -45.536364 
L 66.531168 -45.536364 
L 65.860405 -45.536364 
L 65.189643 -45.536364 
L 64.51888 -45.536364 
L 63.848118 -45.536364 
z
" style="stroke: #4c78a8; stroke-opacity: 0.15"/>
    </defs>
    <g clip-path="url(#p920626ffc8)">
     <use xlink:href="#m0572d910f6" x="0" y="223.158281" style="fill: #4c78a8; fill-opacity: 0.15; stroke: #4c78a8; stroke-opacity: 0.15"/>
    </g>
   </g>
   <g id="matplotlib.axis_1">
    <g id="xtick_1">
     <g id="line2d_1">
      <path d="M 81.416327 184.958281 
L 81.416327 23.558281 
" clip-path="url(#p920626ffc8)" style="fill: none; stroke: #b0b0b0; stroke-opacity: 0.25; stroke-width: 0.6; stroke-linecap: square"/>
     </g>
     <g id="line2d_2">
      <defs>
       <path id="m7fe2196bb7" d="M 0 0 
L 0 3.5 
" style="stroke: #000000; stroke-width: 0.8"/>
      </defs>
      <g>
       <use xlink:href="#m7fe2196bb7" x="81.416327" y="184.958281" style="stroke: #000000; stroke-width: 0.8"/>
      </g>
     </g>
     <g id="text_1">
      <!-- −6 -->
      <g transform="translate(74.045233 199.555938) scale(0.1 -0.1)">
       <defs>
        <path id="DejaVuSans-c9c" d="M 678 2272 
L 4684 2272 
L 4684 1741 
L 678 1741 
L 678 2272 
z
" transform="scale(0.015625)"/>
        <path id="DejaVuSans-19" d="M 2113 2584 
Q 1688 2584 1439 2293 
Q 1191 2003 1191 1497 
Q 1191 994 1439 701 
Q 1688 409 2113 409 
Q 2538 409 2786 701 
Q 3034 994 3034 1497 
Q 3034 2003 2786 2293 
Q 2538 2584 2113 2584 
z
M 3366 4563 
L 3366 3988 
Q 3128 4100 2886 4159 
Q 2644 4219 2406 4219 
Q 1781 4219 1451 3797 
Q 1122 3375 1075 2522 
Q 1259 2794 1537 2939 
Q 1816 3084 2150 3084 
Q 2853 3084 3261 2657 
Q 3669 2231 3669 1497 
Q 3669 778 3244 343 
Q 2819 -91 2113 -91 
Q 1303 -91 875 529 
Q 447 1150 447 2328 
Q 447 3434 972 4092 
Q 1497 4750 2381 4750 
Q 2619 4750 2861 4703 
Q 3103 4656 3366 4563 
z
" transform="scale(0.015625)"/>
       </defs>
       <use xlink:href="#DejaVuSans-c9c"/>
       <use xlink:href="#DejaVuSans-19" transform="translate(83.796875 0)"/>
      </g>
     </g>
    </g>
    <g id="xtick_2">
     <g id="line2d_3">
      <path d="M 120.165963 184.958281 
L 120.165963 23.558281 
" clip-path="url(#p920626ffc8)" style="fill: none; stroke: #b0b0b0; stroke-opacity: 0.25; stroke-width: 0.6; stroke-linecap: square"/>
     </g>
     <g id="line2d_4">
      <g>
       <use xlink:href="#m7fe2196bb7" x="120.165963" y="184.958281" style="stroke: #000000; stroke-width: 0.8"/>
      </g>
     </g>
     <g id="text_2">
      <!-- −4 -->
      <g transform="translate(112.794869 199.555938) scale(0.1 -0.1)">
       <defs>
        <path id="DejaVuSans-17" d="M 2419 4116 
L 825 1625 
L 2419 1625 
L 2419 4116 
z
M 2253 4666 
L 3047 4666 
L 3047 1625 
L 3713 1625 
L 3713 1100 
L 3047 1100 
L 3047 0 
L 2419 0 
L 2419 1100 
L 313 1100 
L 313 1709 
L 2253 4666 
z
" transform="scale(0.015625)"/>
       </defs>
       <use xlink:href="#DejaVuSans-c9c"/>
       <use xlink:href="#DejaVuSans-17" transform="translate(83.796875 0)"/>
      </g>
     </g>
    </g>
    <g id="xtick_3">
     <g id="line2d_5">
      <path d="M 158.915598 184.958281 
L 158.915598 23.558281 
" clip-path="url(#p920626ffc8)" style="fill: none; stroke: #b0b0b0; stroke-opacity: 0.25; stroke-width: 0.6; stroke-linecap: square"/>
     </g>
     <g id="line2d_6">
      <g>
       <use xlink:href="#m7fe2196bb7" x="158.915598" y="184.958281" style="stroke: #000000; stroke-width: 0.8"/>
      </g>
     </g>
     <g id="text_3">
      <!-- −2 -->
      <g transform="translate(151.544505 199.555938) scale(0.1 -0.1)">
       <defs>
        <path id="DejaVuSans-15" d="M 1228 531 
L 3431 531 
L 3431 0 
L 469 0 
L 469 531 
Q 828 903 1448 1529 
Q 2069 2156 2228 2338 
Q 2531 2678 2651 2914 
Q 2772 3150 2772 3378 
Q 2772 3750 2511 3984 
Q 2250 4219 1831 4219 
Q 1534 4219 1204 4116 
Q 875 4013 500 3803 
L 500 4441 
Q 881 4594 1212 4672 
Q 1544 4750 1819 4750 
Q 2544 4750 2975 4387 
Q 3406 4025 3406 3419 
Q 3406 3131 3298 2873 
Q 3191 2616 2906 2266 
Q 2828 2175 2409 1742 
Q 1991 1309 1228 531 
z
" transform="scale(0.015625)"/>
       </defs>
       <use xlink:href="#DejaVuSans-c9c"/>
       <use xlink:href="#DejaVuSans-15" transform="translate(83.796875 0)"/>
      </g>
     </g>
    </g>
    <g id="xtick_4">
     <g id="line2d_7">
      <path d="M 197.665234 184.958281 
L 197.665234 23.558281 
" clip-path="url(#p920626ffc8)" style="fill: none; stroke: #b0b0b0; stroke-opacity: 0.25; stroke-width: 0.6; stroke-linecap: square"/>
     </g>
     <g id="line2d_8">
      <g>
       <use xlink:href="#m7fe2196bb7" x="197.665234" y="184.958281" style="stroke: #000000; stroke-width: 0.8"/>
      </g>
     </g>
     <g id="text_4">
      <!-- 0 -->
      <g transform="translate(194.483984 199.555938) scale(0.1 -0.1)">
       <defs>
        <path id="DejaVuSans-13" d="M 2034 4250 
Q 1547 4250 1301 3770 
Q 1056 3291 1056 2328 
Q 1056 1369 1301 889 
Q 1547 409 2034 409 
Q 2525 409 2770 889 
Q 3016 1369 3016 2328 
Q 3016 3291 2770 3770 
Q 2525 4250 2034 4250 
z
M 2034 4750 
Q 2819 4750 3233 4129 
Q 3647 3509 3647 2328 
Q 3647 1150 3233 529 
Q 2819 -91 2034 -91 
Q 1250 -91 836 529 
Q 422 1150 422 2328 
Q 422 3509 836 4129 
Q 1250 4750 2034 4750 
z
" transform="scale(0.015625)"/>
       </defs>
       <use xlink:href="#DejaVuSans-13"/>
      </g>
     </g>
    </g>
    <g id="xtick_5">
     <g id="line2d_9">
      <path d="M 236.41487 184.958281 
L 236.41487 23.558281 
" clip-path="url(#p920626ffc8)" style="fill: none; stroke: #b0b0b0; stroke-opacity: 0.25; stroke-width: 0.6; stroke-linecap: square"/>
     </g>
     <g id="line2d_10">
      <g>
       <use xlink:href="#m7fe2196bb7" x="236.41487" y="184.958281" style="stroke: #000000; stroke-width: 0.8"/>
      </g>
     </g>
     <g id="text_5">
      <!-- 2 -->
      <g transform="translate(233.23362 199.555938) scale(0.1 -0.1)">
       <use xlink:href="#DejaVuSans-15"/>
      </g>
     </g>
    </g>
    <g id="xtick_6">
     <g id="line2d_11">
      <path d="M 275.164506 184.958281 
L 275.164506 23.558281 
" clip-path="url(#p920626ffc8)" style="fill: none; stroke: #b0b0b0; stroke-opacity: 0.25; stroke-width: 0.6; stroke-linecap: square"/>
     </g>
     <g id="line2d_12">
      <g>
       <use xlink:href="#m7fe2196bb7" x="275.164506" y="184.958281" style="stroke: #000000; stroke-width: 0.8"/>
      </g>
     </g>
     <g id="text_6">
      <!-- 4 -->
      <g transform="translate(271.983256 199.555938) scale(0.1 -0.1)">
       <use xlink:href="#DejaVuSans-17"/>
      </g>
     </g>
    </g>
    <g id="xtick_7">
     <g id="line2d_13">
      <path d="M 313.914142 184.958281 
L 313.914142 23.558281 
" clip-path="url(#p920626ffc8)" style="fill: none; stroke: #b0b0b0; stroke-opacity: 0.25; stroke-width: 0.6; stroke-linecap: square"/>
     </g>
     <g id="line2d_14">
      <g>
       <use xlink:href="#m7fe2196bb7" x="313.914142" y="184.958281" style="stroke: #000000; stroke-width: 0.8"/>
      </g>
     </g>
     <g id="text_7">
      <!-- 6 -->
      <g transform="translate(310.732892 199.555938) scale(0.1 -0.1)">
       <use xlink:href="#DejaVuSans-19"/>
      </g>
     </g>
    </g>
    <g id="text_8">
     <!-- x -->
     <g transform="translate(194.705859 213.555938) scale(0.1 -0.1)">
      <defs>
       <path id="DejaVuSans-5b" d="M 3513 3500 
L 2247 1797 
L 3578 0 
L 2900 0 
L 1881 1375 
L 863 0 
L 184 0 
L 1544 1831 
L 300 3500 
L 978 3500 
L 1906 2253 
L 2834 3500 
L 3513 3500 
z
" transform="scale(0.015625)"/>
      </defs>
      <use xlink:href="#DejaVuSans-5b"/>
     </g>
    </g>
   </g>
   <g id="matplotlib.axis_2">
    <g id="ytick_1">
     <g id="line2d_15">
      <path d="M 50.466406 177.621918 
L 344.864062 177.621918 
" clip-path="url(#p920626ffc8)" style="fill: none; stroke: #b0b0b0; stroke-opacity: 0.25; stroke-width: 0.6; stroke-linecap: square"/>
     </g>
     <g id="line2d_16">
      <defs>
       <path id="med32cefe8d" d="M 0 0 
L -3.5 0 
" style="stroke: #000000; stroke-width: 0.8"/>
      </defs>
      <g>
       <use xlink:href="#med32cefe8d" x="50.466406" y="177.621918" style="stroke: #000000; stroke-width: 0.8"/>
      </g>
     </g>
     <g id="text_9">
      <!-- 0.00 -->
      <g transform="translate(21.200781 181.420746) scale(0.1 -0.1)">
       <defs>
        <path id="DejaVuSans-11" d="M 684 794 
L 1344 794 
L 1344 0 
L 684 0 
L 684 794 
z
" transform="scale(0.015625)"/>
       </defs>
       <use xlink:href="#DejaVuSans-13"/>
       <use xlink:href="#DejaVuSans-11" transform="translate(63.625 0)"/>
       <use xlink:href="#DejaVuSans-13" transform="translate(95.40625 0)"/>
       <use xlink:href="#DejaVuSans-13" transform="translate(159.03125 0)"/>
      </g>
     </g>
    </g>
    <g id="ytick_2">
     <g id="line2d_17">
      <path d="M 50.466406 148.274265 
L 344.864062 148.274265 
" clip-path="url(#p920626ffc8)" style="fill: none; stroke: #b0b0b0; stroke-opacity: 0.25; stroke-width: 0.6; stroke-linecap: square"/>
     </g>
     <g id="line2d_18">
      <g>
       <use xlink:href="#med32cefe8d" x="50.466406" y="148.274265" style="stroke: #000000; stroke-width: 0.8"/>
      </g>
     </g>
     <g id="text_10">
      <!-- 0.05 -->
      <g transform="translate(21.200781 152.073093) scale(0.1 -0.1)">
       <defs>
        <path id="DejaVuSans-18" d="M 691 4666 
L 3169 4666 
L 3169 4134 
L 1269 4134 
L 1269 2991 
Q 1406 3038 1543 3061 
Q 1681 3084 1819 3084 
Q 2600 3084 3056 2656 
Q 3513 2228 3513 1497 
Q 3513 744 3044 326 
Q 2575 -91 1722 -91 
Q 1428 -91 1123 -41 
Q 819 9 494 109 
L 494 744 
Q 775 591 1075 516 
Q 1375 441 1709 441 
Q 2250 441 2565 725 
Q 2881 1009 2881 1497 
Q 2881 1984 2565 2268 
Q 2250 2553 1709 2553 
Q 1456 2553 1204 2497 
Q 953 2441 691 2322 
L 691 4666 
z
" transform="scale(0.015625)"/>
       </defs>
       <use xlink:href="#DejaVuSans-13"/>
       <use xlink:href="#DejaVuSans-11" transform="translate(63.625 0)"/>
       <use xlink:href="#DejaVuSans-13" transform="translate(95.40625 0)"/>
       <use xlink:href="#DejaVuSans-18" transform="translate(159.03125 0)"/>
      </g>
     </g>
    </g>
    <g id="ytick_3">
     <g id="line2d_19">
      <path d="M 50.466406 118.926612 
L 344.864062 118.926612 
" clip-path="url(#p920626ffc8)" style="fill: none; stroke: #b0b0b0; stroke-opacity: 0.25; stroke-width: 0.6; stroke-linecap: square"/>
     </g>
     <g id="line2d_20">
      <g>
       <use xlink:href="#med32cefe8d" x="50.466406" y="118.926612" style="stroke: #000000; stroke-width: 0.8"/>
      </g>
     </g>
     <g id="text_11">
      <!-- 0.10 -->
      <g transform="translate(21.200781 122.72544) scale(0.1 -0.1)">
       <defs>
        <path id="DejaVuSans-14" d="M 794 531 
L 1825 531 
L 1825 4091 
L 703 3866 
L 703 4441 
L 1819 4666 
L 2450 4666 
L 2450 531 
L 3481 531 
L 3481 0 
L 794 0 
L 794 531 
z
" transform="scale(0.015625)"/>
       </defs>
       <use xlink:href="#DejaVuSans-13"/>
       <use xlink:href="#DejaVuSans-11" transform="translate(63.625 0)"/>
       <use xlink:href="#DejaVuSans-14" transform="translate(95.40625 0)"/>
       <use xlink:href="#DejaVuSans-13" transform="translate(159.03125 0)"/>
      </g>
     </g>
    </g>
    <g id="ytick_4">
     <g id="line2d_21">
      <path d="M 50.466406 89.578959 
L 344.864062 89.578959 
" clip-path="url(#p920626ffc8)" style="fill: none; stroke: #b0b0b0; stroke-opacity: 0.25; stroke-width: 0.6; stroke-linecap: square"/>
     </g>
     <g id="line2d_22">
      <g>
       <use xlink:href="#med32cefe8d" x="50.466406" y="89.578959" style="stroke: #000000; stroke-width: 0.8"/>
      </g>
     </g>
     <g id="text_12">
      <!-- 0.15 -->
      <g transform="translate(21.200781 93.377787) scale(0.1 -0.1)">
       <use xlink:href="#DejaVuSans-13"/>
       <use xlink:href="#DejaVuSans-11" transform="translate(63.625 0)"/>
       <use xlink:href="#DejaVuSans-14" transform="translate(95.40625 0)"/>
       <use xlink:href="#DejaVuSans-18" transform="translate(159.03125 0)"/>
      </g>
     </g>
    </g>
    <g id="ytick_5">
     <g id="line2d_23">
      <path d="M 50.466406 60.231306 
L 344.864062 60.231306 
" clip-path="url(#p920626ffc8)" style="fill: none; stroke: #b0b0b0; stroke-opacity: 0.25; stroke-width: 0.6; stroke-linecap: square"/>
     </g>
     <g id="line2d_24">
      <g>
       <use xlink:href="#med32cefe8d" x="50.466406" y="60.231306" style="stroke: #000000; stroke-width: 0.8"/>
      </g>
     </g>
     <g id="text_13">
      <!-- 0.20 -->
      <g transform="translate(21.200781 64.030134) scale(0.1 -0.1)">
       <use xlink:href="#DejaVuSans-13"/>
       <use xlink:href="#DejaVuSans-11" transform="translate(63.625 0)"/>
       <use xlink:href="#DejaVuSans-15" transform="translate(95.40625 0)"/>
       <use xlink:href="#DejaVuSans-13" transform="translate(159.03125 0)"/>
      </g>
     </g>
    </g>
    <g id="ytick_6">
     <g id="line2d_25">
      <path d="M 50.466406 30.883653 
L 344.864062 30.883653 
" clip-path="url(#p920626ffc8)" style="fill: none; stroke: #b0b0b0; stroke-opacity: 0.25; stroke-width: 0.6; stroke-linecap: square"/>
     </g>
     <g id="line2d_26">
      <g>
       <use xlink:href="#med32cefe8d" x="50.466406" y="30.883653" style="stroke: #000000; stroke-width: 0.8"/>
      </g>
     </g>
     <g id="text_14">
      <!-- 0.25 -->
      <g transform="translate(21.200781 34.682481) scale(0.1 -0.1)">
       <use xlink:href="#DejaVuSans-13"/>
       <use xlink:href="#DejaVuSans-11" transform="translate(63.625 0)"/>
       <use xlink:href="#DejaVuSans-15" transform="translate(95.40625 0)"/>
       <use xlink:href="#DejaVuSans-18" transform="translate(159.03125 0)"/>
      </g>
     </g>
    </g>
    <g id="text_15">
     <!-- f(x) -->
     <g transform="translate(14.798437 112.879375) rotate(-90) scale(0.1 -0.1)">
      <defs>
       <path id="DejaVuSans-49" d="M 2375 4863 
L 2375 4384 
L 1825 4384 
Q 1516 4384 1395 4259 
Q 1275 4134 1275 3809 
L 1275 3500 
L 2222 3500 
L 2222 3053 
L 1275 3053 
L 1275 0 
L 697 0 
L 697 3053 
L 147 3053 
L 147 3500 
L 697 3500 
L 697 3744 
Q 697 4328 969 4595 
Q 1241 4863 1831 4863 
L 2375 4863 
z
" transform="scale(0.015625)"/>
       <path id="DejaVuSans-b" d="M 1984 4856 
Q 1566 4138 1362 3434 
Q 1159 2731 1159 2009 
Q 1159 1288 1364 580 
Q 1569 -128 1984 -844 
L 1484 -844 
Q 1016 -109 783 600 
Q 550 1309 550 2009 
Q 550 2706 781 3412 
Q 1013 4119 1484 4856 
L 1984 4856 
z
" transform="scale(0.015625)"/>
       <path id="DejaVuSans-c" d="M 513 4856 
L 1013 4856 
Q 1481 4119 1714 3412 
Q 1947 2706 1947 2009 
Q 1947 1309 1714 600 
Q 1481 -109 1013 -844 
L 513 -844 
Q 928 -128 1133 580 
Q 1338 1288 1338 2009 
Q 1338 2731 1133 3434 
Q 928 4138 513 4856 
z
" transform="scale(0.015625)"/>
      </defs>
      <use xlink:href="#DejaVuSans-49"/>
      <use xlink:href="#DejaVuSans-b" transform="translate(35.203125 0)"/>
      <use xlink:href="#DejaVuSans-5b" transform="translate(74.21875 0)"/>
      <use xlink:href="#DejaVuSans-c" transform="translate(133.40625 0)"/>
     </g>
    </g>
   </g>
   <g id="line2d_27">
    <path d="M 63.848118 177.035552 
L 74.580318 176.603108 
L 83.30023 176.027158 
L 90.007855 175.372495 
L 96.044717 174.558762 
L 101.410817 173.594753 
L 106.106155 172.509772 
L 110.13073 171.354979 
L 114.155305 169.946426 
L 117.509117 168.541401 
L 120.862929 166.889159 
L 124.216742 164.950207 
L 126.899792 163.163076 
L 129.582842 161.139502 
L 132.265892 158.852972 
L 134.948942 156.275473 
L 137.631992 153.377895 
L 140.315042 150.130637 
L 142.998092 146.504454 
L 145.681142 142.47159 
L 148.364191 138.007249 
L 151.047241 133.091436 
L 153.730291 127.711186 
L 156.413341 121.863176 
L 159.096391 115.556662 
L 162.450204 107.06858 
L 165.804016 97.995727 
L 170.499354 84.600836 
L 178.548503 61.511425 
L 181.902316 52.71793 
L 184.585366 46.410244 
L 186.597653 42.232036 
L 188.609941 38.614027 
L 189.951466 36.548301 
L 191.292991 34.781388 
L 192.634516 33.329376 
L 193.976041 32.205716 
L 195.317566 31.420957 
L 196.659091 30.982539 
L 198.000616 30.894645 
L 199.342141 31.158116 
L 200.683666 31.770434 
L 202.025191 32.725773 
L 203.366716 34.015114 
L 204.708241 35.626429 
L 206.049765 37.544913 
L 208.062053 40.960144 
L 210.07434 44.95993 
L 212.086628 49.468871 
L 214.769678 56.132734 
L 218.12349 65.232427 
L 223.48959 80.695785 
L 229.526453 97.995727 
L 233.551028 108.816637 
L 236.90484 117.175207 
L 240.258652 124.845404 
L 242.941702 130.459833 
L 245.624752 135.606781 
L 248.307802 140.29474 
L 250.990852 144.540496 
L 253.673902 148.366697 
L 256.356952 151.799824 
L 259.040002 154.868541 
L 261.723052 157.602394 
L 264.406102 160.030826 
L 267.089152 162.182463 
L 269.772202 164.084607 
L 273.126014 166.150352 
L 276.479827 167.912277 
L 279.833639 169.411748 
L 283.187452 170.685484 
L 287.212027 171.96116 
L 291.236602 173.006084 
L 295.931939 173.987077 
L 301.298039 174.858081 
L 307.334901 175.592859 
L 314.042526 176.183707 
L 322.091676 176.671043 
L 331.482351 177.035552 
L 331.482351 177.035552 
" clip-path="url(#p920626ffc8)" style="fill: none; stroke: #4c78a8; stroke-width: 2; stroke-linecap: square"/>
   </g>
   <g id="patch_3">
    <path d="M 50.466406 184.958281 
L 50.466406 23.558281 
" style="fill: none; stroke: #000000; stroke-width: 0.8; stroke-linejoin: miter; stroke-linecap: square"/>
   </g>
   <g id="patch_4">
    <path d="M 50.466406 184.958281 
L 344.864063 184.958281 
" style="fill: none; stroke: #000000; stroke-width: 0.8; stroke-linejoin: miter; stroke-linecap: square"/>
   </g>
   <g id="text_16">
    <!-- Logistic -->
    <g transform="translate(176.738594 15.558281) scale(0.11 -0.11)">
     <defs>
      <path id="DejaVuSans-2f" d="M 628 4666 
L 1259 4666 
L 1259 531 
L 3531 531 
L 3531 0 
L 628 0 
L 628 4666 
z
" transform="scale(0.015625)"/>
      <path id="DejaVuSans-52" d="M 1959 3097 
Q 1497 3097 1228 2736 
Q 959 2375 959 1747 
Q 959 1119 1226 758 
Q 1494 397 1959 397 
Q 2419 397 2687 759 
Q 2956 1122 2956 1747 
Q 2956 2369 2687 2733 
Q 2419 3097 1959 3097 
z
M 1959 3584 
Q 2709 3584 3137 3096 
Q 3566 2609 3566 1747 
Q 3566 888 3137 398 
Q 2709 -91 1959 -91 
Q 1206 -91 779 398 
Q 353 888 353 1747 
Q 353 2609 779 3096 
Q 1206 3584 1959 3584 
z
" transform="scale(0.015625)"/>
      <path id="DejaVuSans-4a" d="M 2906 1791 
Q 2906 2416 2648 2759 
Q 2391 3103 1925 3103 
Q 1463 3103 1205 2759 
Q 947 2416 947 1791 
Q 947 1169 1205 825 
Q 1463 481 1925 481 
Q 2391 481 2648 825 
Q 2906 1169 2906 1791 
z
M 3481 434 
Q 3481 -459 3084 -895 
Q 2688 -1331 1869 -1331 
Q 1566 -1331 1297 -1286 
Q 1028 -1241 775 -1147 
L 775 -588 
Q 1028 -725 1275 -790 
Q 1522 -856 1778 -856 
Q 2344 -856 2625 -561 
Q 2906 -266 2906 331 
L 2906 616 
Q 2728 306 2450 153 
Q 2172 0 1784 0 
Q 1141 0 747 490 
Q 353 981 353 1791 
Q 353 2603 747 3093 
Q 1141 3584 1784 3584 
Q 2172 3584 2450 3431 
Q 2728 3278 2906 2969 
L 2906 3500 
L 3481 3500 
L 3481 434 
z
" transform="scale(0.015625)"/>
      <path id="DejaVuSans-4c" d="M 603 3500 
L 1178 3500 
L 1178 0 
L 603 0 
L 603 3500 
z
M 603 4863 
L 1178 4863 
L 1178 4134 
L 603 4134 
L 603 4863 
z
" transform="scale(0.015625)"/>
      <path id="DejaVuSans-56" d="M 2834 3397 
L 2834 2853 
Q 2591 2978 2328 3040 
Q 2066 3103 1784 3103 
Q 1356 3103 1142 2972 
Q 928 2841 928 2578 
Q 928 2378 1081 2264 
Q 1234 2150 1697 2047 
L 1894 2003 
Q 2506 1872 2764 1633 
Q 3022 1394 3022 966 
Q 3022 478 2636 193 
Q 2250 -91 1575 -91 
Q 1294 -91 989 -36 
Q 684 19 347 128 
L 347 722 
Q 666 556 975 473 
Q 1284 391 1588 391 
Q 1994 391 2212 530 
Q 2431 669 2431 922 
Q 2431 1156 2273 1281 
Q 2116 1406 1581 1522 
L 1381 1569 
Q 847 1681 609 1914 
Q 372 2147 372 2553 
Q 372 3047 722 3315 
Q 1072 3584 1716 3584 
Q 2034 3584 2315 3537 
Q 2597 3491 2834 3397 
z
" transform="scale(0.015625)"/>
      <path id="DejaVuSans-57" d="M 1172 4494 
L 1172 3500 
L 2356 3500 
L 2356 3053 
L 1172 3053 
L 1172 1153 
Q 1172 725 1289 603 
Q 1406 481 1766 481 
L 2356 481 
L 2356 0 
L 1766 0 
Q 1100 0 847 248 
Q 594 497 594 1153 
L 594 3053 
L 172 3053 
L 172 3500 
L 594 3500 
L 594 4494 
L 1172 4494 
z
" transform="scale(0.015625)"/>
      <path id="DejaVuSans-46" d="M 3122 3366 
L 3122 2828 
Q 2878 2963 2633 3030 
Q 2388 3097 2138 3097 
Q 1578 3097 1268 2742 
Q 959 2388 959 1747 
Q 959 1106 1268 751 
Q 1578 397 2138 397 
Q 2388 397 2633 464 
Q 2878 531 3122 666 
L 3122 134 
Q 2881 22 2623 -34 
Q 2366 -91 2075 -91 
Q 1284 -91 818 406 
Q 353 903 353 1747 
Q 353 2603 823 3093 
Q 1294 3584 2113 3584 
Q 2378 3584 2631 3529 
Q 2884 3475 3122 3366 
z
" transform="scale(0.015625)"/>
     </defs>
     <use xlink:href="#DejaVuSans-2f"/>
     <use xlink:href="#DejaVuSans-52" transform="translate(53.96875 0)"/>
     <use xlink:href="#DejaVuSans-4a" transform="translate(115.15625 0)"/>
     <use xlink:href="#DejaVuSans-4c" transform="translate(178.640625 0)"/>
     <use xlink:href="#DejaVuSans-56" transform="translate(206.421875 0)"/>
     <use xlink:href="#DejaVuSans-57" transform="translate(258.515625 0)"/>
     <use xlink:href="#DejaVuSans-4c" transform="translate(297.71875 0)"/>
     <use xlink:href="#DejaVuSans-46" transform="translate(325.5 0)"/>
    </g>
   </g>
  </g>
 </g>
 <defs>
  <clipPath id="p920626ffc8">
   <rect x="50.466406" y="23.558281" width="294.397656" height="161.4"/>
  </clipPath>
 </defs>
</svg>
