<?xml version="1.0" encoding="utf-8" standalone="no"?>
<!DOCTYPE svg PUBLIC "-//W3C//DTD SVG 1.1//EN"
  "http://www.w3.org/Graphics/SVG/1.1/DTD/svg11.dtd">
<svg xmlns:xlink="http://www.w3.org/1999/xlink" width="352.301562pt" height="223.158281pt" viewBox="0 0 352.301562 223.158281" xmlns="http://www.w3.org/2000/svg" version="1.1">
 <metadata>
  <rdf:RDF xmlns:dc="http://purl.org/dc/elements/1.1/" xmlns:cc="http://creativecommons.org/ns#" xmlns:rdf="http://www.w3.org/1999/02/22-rdf-syntax-ns#">
   <cc:Work>
    <dc:type rdf:resource="http://purl.org/dc/dcmitype/StillImage"/>
    <dc:date>2026-07-05T02:24:31.804305</dc:date>
    <dc:format>image/svg+xml</dc:format>
    <dc:creator>
     <cc:Agent>
      <dc:title>Matplotlib v3.11.0, https://matplotlib.org/</dc:title>
     </cc:Agent>
    </dc:creator>
   </cc:Work>
  </rdf:RDF>
 </metadata>
 <defs>
  <style type="text/css">*{stroke-linejoin: round; stroke-linecap: butt}</style>
 </defs>
 <g id="figure_1">
  <g id="patch_1">
   <path d="M 0 223.158281 
L 352.301562 223.158281 
L 352.301562 0 
L 0 0 
z
" style="fill: #ffffff"/>
  </g>
  <g id="axes_1">
   <g id="patch_2">
    <path d="M 44.103906 184.958281 
L 345.101562 184.958281 
L 345.101562 23.558281 
L 44.103906 23.558281 
z
" style="fill: #ffffff"/>
   </g>
   <g id="FillBetweenPolyCollection_1">
    <defs>
     <path id="m21b97ab47d" d="M 57.785618 -45.536364 
L 57.785618 -50.323461 
L 58.471418 -50.930495 
L 59.157218 -51.572144 
L 59.843018 -52.248049 
L 60.528818 -52.95783 
L 61.214618 -53.701088 
L 61.900418 -54.477406 
L 62.586218 -55.286349 
L 63.272019 -56.127464 
L 63.957819 -57.000282 
L 64.643619 -57.904314 
L 65.329419 -58.839058 
L 66.015219 -59.803991 
L 66.701019 -60.798577 
L 67.386819 -61.822265 
L 68.072619 -62.874485 
L 68.758419 -63.954655 
L 69.444219 -65.062178 
L 70.130019 -66.196442 
L 70.815819 -67.356822 
L 71.50162 -68.54268 
L 72.18742 -69.753364 
L 72.87322 -70.98821 
L 73.55902 -72.246543 
L 74.24482 -73.527675 
L 74.93062 -74.830908 
L 75.61642 -76.155534 
L 76.30222 -77.500832 
L 76.98802 -78.866075 
L 77.67382 -80.250525 
L 78.35962 -81.653436 
L 79.04542 -83.074052 
L 79.731221 -84.511612 
L 80.417021 -85.965347 
L 81.102821 -87.434481 
L 81.788621 -88.918232 
L 82.474421 -90.415812 
L 83.160221 -91.926428 
L 83.846021 -93.449283 
L 84.531821 -94.983577 
L 85.217621 -96.528503 
L 85.903421 -98.083255 
L 86.589221 -99.647021 
L 87.275021 -101.21899 
L 87.960822 -102.798347 
L 88.646622 -104.384278 
L 89.332422 -105.975966 
L 90.018222 -107.572598 
L 90.704022 -109.173358 
L 91.389822 -110.777433 
L 92.075622 -112.384009 
L 92.761422 -113.992279 
L 93.447222 -115.601433 
L 94.133022 -117.210667 
L 94.818822 -118.819181 
L 95.504622 -120.426177 
L 96.190423 -122.030863 
L 96.876223 -123.632451 
L 97.562023 -125.230159 
L 98.247823 -126.82321 
L 98.933623 -128.410835 
L 99.619423 -129.99227 
L 100.305223 -131.566759 
L 100.991023 -133.133553 
L 101.676823 -134.691911 
L 102.362623 -136.241102 
L 103.048423 -137.780401 
L 103.734223 -139.309095 
L 104.420024 -140.826478 
L 105.105824 -142.331856 
L 105.791624 -143.824544 
L 106.477424 -145.303868 
L 107.163224 -146.769166 
L 107.849024 -148.219785 
L 108.534824 -149.655086 
L 109.220624 -151.074441 
L 109.906424 -152.477235 
L 110.592224 -153.862863 
L 111.278024 -155.230735 
L 111.963824 -156.580274 
L 112.649625 -157.910917 
L 113.335425 -159.222112 
L 114.021225 -160.513324 
L 114.707025 -161.784029 
L 115.392825 -163.033719 
L 116.078625 -164.2619 
L 116.764425 -165.468094 
L 117.450225 -166.651835 
L 118.136025 -167.812674 
L 118.821825 -168.950177 
L 119.507625 -170.063925 
L 120.193425 -171.153513 
L 120.879225 -172.218555 
L 121.565026 -173.258676 
L 122.250826 -174.273521 
L 122.936626 -175.262748 
L 123.622426 -176.226031 
L 124.308226 -177.163062 
L 124.994026 -178.073547 
L 125.679826 -178.957208 
L 126.365626 -179.813784 
L 127.051426 -180.643029 
L 127.737226 -181.444715 
L 128.423026 -182.218627 
L 129.108826 -182.964568 
L 129.794627 -183.682358 
L 130.480427 -184.371829 
L 131.166227 -185.032832 
L 131.852027 -185.665234 
L 132.537827 -186.268916 
L 133.223627 -186.843776 
L 133.909427 -187.389726 
L 134.595227 -187.906696 
L 135.281027 -188.394627 
L 135.966827 -188.853481 
L 136.652627 -189.283229 
L 137.338427 -189.683862 
L 138.024228 -190.055383 
L 138.710028 -190.39781 
L 139.395828 -190.711176 
L 140.081628 -190.995528 
L 140.767428 -191.250927 
L 141.453228 -191.477448 
L 142.139028 -191.67518 
L 142.824828 -191.844225 
L 143.510628 -191.984698 
L 144.196428 -192.096728 
L 144.882228 -192.180456 
L 145.568028 -192.236037 
L 146.253829 -192.263636 
L 146.939629 -192.263433 
L 147.625429 -192.235618 
L 148.311229 -192.180393 
L 148.997029 -192.097972 
L 149.682829 -191.988578 
L 150.368629 -191.852448 
L 151.054429 -191.689828 
L 151.740229 -191.500974 
L 152.426029 -191.286153 
L 153.111829 -191.045641 
L 153.797629 -190.779723 
L 154.48343 -190.488694 
L 155.16923 -190.172859 
L 155.85503 -189.832529 
L 156.54083 -189.468026 
L 157.22663 -189.079678 
L 157.91243 -188.667822 
L 158.59823 -188.232801 
L 159.28403 -187.774967 
L 159.96983 -187.294677 
L 160.65563 -186.792297 
L 161.34143 -186.268197 
L 162.02723 -185.722753 
L 162.713031 -185.156348 
L 163.398831 -184.56937 
L 164.084631 -183.962211 
L 164.770431 -183.335268 
L 165.456231 -182.688944 
L 166.142031 -182.023645 
L 166.827831 -181.339781 
L 167.513631 -180.637765 
L 168.199431 -179.918015 
L 168.885231 -179.180949 
L 169.571031 -178.426991 
L 170.256831 -177.656565 
L 170.942632 -176.870099 
L 171.628432 -176.068022 
L 172.314232 -175.250764 
L 173.000032 -174.418758 
L 173.685832 -173.572436 
L 174.371632 -172.712232 
L 175.057432 -171.838582 
L 175.743232 -170.951918 
L 176.429032 -170.052677 
L 177.114832 -169.141292 
L 177.800632 -168.218199 
L 178.486432 -167.283829 
L 179.172233 -166.338616 
L 179.858033 -165.382991 
L 180.543833 -164.417383 
L 181.229633 -163.442221 
L 181.915433 -162.457932 
L 182.601233 -161.464939 
L 183.287033 -160.463666 
L 183.972833 -159.454531 
L 184.658633 -158.437951 
L 185.344433 -157.414342 
L 186.030233 -156.384113 
L 186.716033 -155.347674 
L 187.401834 -154.305428 
L 188.087634 -153.257777 
L 188.773434 -152.205117 
L 189.459234 -151.147843 
L 190.145034 -150.086343 
L 190.830834 -149.021003 
L 191.516634 -147.952203 
L 192.202434 -146.880321 
L 192.888234 -145.805727 
L 193.574034 -144.728789 
L 194.259834 -143.649869 
L 194.945634 -142.569324 
L 195.631434 -141.487506 
L 196.317235 -140.404762 
L 197.003035 -139.321434 
L 197.688835 -138.237858 
L 198.374635 -137.154365 
L 199.060435 -136.071279 
L 199.746235 -134.988921 
L 200.432035 -133.907604 
L 201.117835 -132.827637 
L 201.803635 -131.749321 
L 202.489435 -130.672953 
L 203.175235 -129.598823 
L 203.861035 -128.527216 
L 204.546836 -127.45841 
L 205.232636 -126.392676 
L 205.918436 -125.330281 
L 206.604236 -124.271486 
L 207.290036 -123.216543 
L 207.975836 -122.1657 
L 208.661636 -121.119198 
L 209.347436 -120.077273 
L 210.033236 -119.040154 
L 210.719036 -118.008062 
L 211.404836 -116.981214 
L 212.090636 -115.959821 
L 212.776437 -114.944086 
L 213.462237 -113.934206 
L 214.148037 -112.930374 
L 214.833837 -111.932775 
L 215.519637 -110.941587 
L 216.205437 -109.956984 
L 216.891237 -108.979133 
L 217.577037 -108.008194 
L 218.262837 -107.044322 
L 218.948637 -106.087667 
L 219.634437 -105.13837 
L 220.320237 -104.19657 
L 221.006038 -103.262397 
L 221.691838 -102.335977 
L 222.377638 -101.417429 
L 223.063438 -100.506867 
L 223.749238 -99.6044 
L 224.435038 -98.71013 
L 225.120838 -97.824155 
L 225.806638 -96.946566 
L 226.492438 -96.07745 
L 227.178238 -95.216888 
L 227.864038 -94.364957 
L 228.549838 -93.521726 
L 229.235639 -92.687262 
L 229.921439 -91.861626 
L 230.607239 -91.044873 
L 231.293039 -90.237054 
L 231.978839 -89.438215 
L 232.664639 -88.648399 
L 233.350439 -87.867642 
L 234.036239 -87.095977 
L 234.722039 -86.333431 
L 235.407839 -85.580028 
L 236.093639 -84.835789 
L 236.779439 -84.100727 
L 237.46524 -83.374855 
L 238.15104 -82.65818 
L 238.83684 -81.950704 
L 239.52264 -81.252428 
L 240.20844 -80.563347 
L 240.89424 -79.883454 
L 241.58004 -79.212736 
L 242.26584 -78.55118 
L 242.95164 -77.898768 
L 243.63744 -77.255476 
L 244.32324 -76.621282 
L 245.00904 -75.996158 
L 245.694841 -75.380072 
L 246.380641 -74.772991 
L 247.066441 -74.174878 
L 247.752241 -73.585695 
L 248.438041 -73.005399 
L 249.123841 -72.433947 
L 249.809641 -71.87129 
L 250.495441 -71.317381 
L 251.181241 -70.772167 
L 251.867041 -70.235594 
L 252.552841 -69.707607 
L 253.238641 -69.188147 
L 253.924442 -68.677156 
L 254.610242 -68.174569 
L 255.296042 -67.680325 
L 255.981842 -67.194358 
L 256.667642 -66.7166 
L 257.353442 -66.246983 
L 258.039242 -65.785436 
L 258.725042 -65.331889 
L 259.410842 -64.886268 
L 260.096642 -64.448499 
L 260.782442 -64.018507 
L 261.468242 -63.596214 
L 262.154043 -63.181544 
L 262.839843 -62.774418 
L 263.525643 -62.374756 
L 264.211443 -61.982477 
L 264.897243 -61.597501 
L 265.583043 -61.219746 
L 266.268843 -60.849128 
L 266.954643 -60.485565 
L 267.640443 -60.128972 
L 268.326243 -59.779266 
L 269.012043 -59.436361 
L 269.697843 -59.100173 
L 270.383644 -58.770615 
L 271.069444 -58.447603 
L 271.755244 -58.131049 
L 272.441044 -57.820868 
L 273.126844 -57.516974 
L 273.812644 -57.219279 
L 274.498444 -56.927698 
L 275.184244 -56.642144 
L 275.870044 -56.362531 
L 276.555844 -56.088772 
L 277.241644 -55.820781 
L 277.927444 -55.558472 
L 278.613244 -55.301759 
L 279.299045 -55.050556 
L 279.984845 -54.804779 
L 280.670645 -54.564343 
L 281.356445 -54.329162 
L 282.042245 -54.099153 
L 282.728045 -53.874231 
L 283.413845 -53.654314 
L 284.099645 -53.439318 
L 284.785445 -53.229161 
L 285.471245 -53.023761 
L 286.157045 -52.823037 
L 286.842845 -52.626908 
L 287.528646 -52.435294 
L 288.214446 -52.248115 
L 288.900246 -52.065293 
L 289.586046 -51.886749 
L 290.271846 -51.712406 
L 290.957646 -51.542187 
L 291.643446 -51.376016 
L 292.329246 -51.213817 
L 293.015046 -51.055516 
L 293.700846 -50.901039 
L 294.386646 -50.750313 
L 295.072446 -50.603265 
L 295.758247 -50.459825 
L 296.444047 -50.319921 
L 297.129847 -50.183483 
L 297.815647 -50.050443 
L 298.501447 -49.920732 
L 299.187247 -49.794283 
L 299.873047 -49.67103 
L 300.558847 -49.550906 
L 301.244647 -49.433847 
L 301.930447 -49.319789 
L 302.616247 -49.208669 
L 303.302047 -49.100425 
L 303.987848 -48.994996 
L 304.673648 -48.89232 
L 305.359448 -48.792339 
L 306.045248 -48.694994 
L 306.731048 -48.600227 
L 307.416848 -48.507982 
L 308.102648 -48.418202 
L 308.788448 -48.330831 
L 309.474248 -48.245817 
L 310.160048 -48.163105 
L 310.845848 -48.082643 
L 311.531648 -48.00438 
L 312.217449 -47.928264 
L 312.903249 -47.854245 
L 313.589049 -47.782276 
L 314.274849 -47.712306 
L 314.960649 -47.64429 
L 315.646449 -47.57818 
L 316.332249 -47.513931 
L 317.018049 -47.451499 
L 317.703849 -47.390838 
L 318.389649 -47.331906 
L 319.075449 -47.27466 
L 319.761249 -47.21906 
L 320.44705 -47.165063 
L 321.13285 -47.11263 
L 321.81865 -47.061723 
L 322.50445 -47.012301 
L 323.19025 -46.964329 
L 323.87605 -46.917768 
L 324.56185 -46.872583 
L 325.24765 -46.828738 
L 325.93345 -46.786198 
L 326.61925 -46.74493 
L 327.30505 -46.704901 
L 327.99085 -46.666077 
L 328.676651 -46.628426 
L 329.362451 -46.591919 
L 330.048251 -46.556523 
L 330.734051 -46.52221 
L 331.419851 -46.488949 
L 331.419851 -45.536364 
L 331.419851 -45.536364 
L 330.734051 -45.536364 
L 330.048251 -45.536364 
L 329.362451 -45.536364 
L 328.676651 -45.536364 
L 327.99085 -45.536364 
L 327.30505 -45.536364 
L 326.61925 -45.536364 
L 325.93345 -45.536364 
L 325.24765 -45.536364 
L 324.56185 -45.536364 
L 323.87605 -45.536364 
L 323.19025 -45.536364 
L 322.50445 -45.536364 
L 321.81865 -45.536364 
L 321.13285 -45.536364 
L 320.44705 -45.536364 
L 319.761249 -45.536364 
L 319.075449 -45.536364 
L 318.389649 -45.536364 
L 317.703849 -45.536364 
L 317.018049 -45.536364 
L 316.332249 -45.536364 
L 315.646449 -45.536364 
L 314.960649 -45.536364 
L 314.274849 -45.536364 
L 313.589049 -45.536364 
L 312.903249 -45.536364 
L 312.217449 -45.536364 
L 311.531648 -45.536364 
L 310.845848 -45.536364 
L 310.160048 -45.536364 
L 309.474248 -45.536364 
L 308.788448 -45.536364 
L 308.102648 -45.536364 
L 307.416848 -45.536364 
L 306.731048 -45.536364 
L 306.045248 -45.536364 
L 305.359448 -45.536364 
L 304.673648 -45.536364 
L 303.987848 -45.536364 
L 303.302047 -45.536364 
L 302.616247 -45.536364 
L 301.930447 -45.536364 
L 301.244647 -45.536364 
L 300.558847 -45.536364 
L 299.873047 -45.536364 
L 299.187247 -45.536364 
L 298.501447 -45.536364 
L 297.815647 -45.536364 
L 297.129847 -45.536364 
L 296.444047 -45.536364 
L 295.758247 -45.536364 
L 295.072446 -45.536364 
L 294.386646 -45.536364 
L 293.700846 -45.536364 
L 293.015046 -45.536364 
L 292.329246 -45.536364 
L 291.643446 -45.536364 
L 290.957646 -45.536364 
L 290.271846 -45.536364 
L 289.586046 -45.536364 
L 288.900246 -45.536364 
L 288.214446 -45.536364 
L 287.528646 -45.536364 
L 286.842845 -45.536364 
L 286.157045 -45.536364 
L 285.471245 -45.536364 
L 284.785445 -45.536364 
L 284.099645 -45.536364 
L 283.413845 -45.536364 
L 282.728045 -45.536364 
L 282.042245 -45.536364 
L 281.356445 -45.536364 
L 280.670645 -45.536364 
L 279.984845 -45.536364 
L 279.299045 -45.536364 
L 278.613244 -45.536364 
L 277.927444 -45.536364 
L 277.241644 -45.536364 
L 276.555844 -45.536364 
L 275.870044 -45.536364 
L 275.184244 -45.536364 
L 274.498444 -45.536364 
L 273.812644 -45.536364 
L 273.126844 -45.536364 
L 272.441044 -45.536364 
L 271.755244 -45.536364 
L 271.069444 -45.536364 
L 270.383644 -45.536364 
L 269.697843 -45.536364 
L 269.012043 -45.536364 
L 268.326243 -45.536364 
L 267.640443 -45.536364 
L 266.954643 -45.536364 
L 266.268843 -45.536364 
L 265.583043 -45.536364 
L 264.897243 -45.536364 
L 264.211443 -45.536364 
L 263.525643 -45.536364 
L 262.839843 -45.536364 
L 262.154043 -45.536364 
L 261.468242 -45.536364 
L 260.782442 -45.536364 
L 260.096642 -45.536364 
L 259.410842 -45.536364 
L 258.725042 -45.536364 
L 258.039242 -45.536364 
L 257.353442 -45.536364 
L 256.667642 -45.536364 
L 255.981842 -45.536364 
L 255.296042 -45.536364 
L 254.610242 -45.536364 
L 253.924442 -45.536364 
L 253.238641 -45.536364 
L 252.552841 -45.536364 
L 251.867041 -45.536364 
L 251.181241 -45.536364 
L 250.495441 -45.536364 
L 249.809641 -45.536364 
L 249.123841 -45.536364 
L 248.438041 -45.536364 
L 247.752241 -45.536364 
L 247.066441 -45.536364 
L 246.380641 -45.536364 
L 245.694841 -45.536364 
L 245.00904 -45.536364 
L 244.32324 -45.536364 
L 243.63744 -45.536364 
L 242.95164 -45.536364 
L 242.26584 -45.536364 
L 241.58004 -45.536364 
L 240.89424 -45.536364 
L 240.20844 -45.536364 
L 239.52264 -45.536364 
L 238.83684 -45.536364 
L 238.15104 -45.536364 
L 237.46524 -45.536364 
L 236.779439 -45.536364 
L 236.093639 -45.536364 
L 235.407839 -45.536364 
L 234.722039 -45.536364 
L 234.036239 -45.536364 
L 233.350439 -45.536364 
L 232.664639 -45.536364 
L 231.978839 -45.536364 
L 231.293039 -45.536364 
L 230.607239 -45.536364 
L 229.921439 -45.536364 
L 229.235639 -45.536364 
L 228.549838 -45.536364 
L 227.864038 -45.536364 
L 227.178238 -45.536364 
L 226.492438 -45.536364 
L 225.806638 -45.536364 
L 225.120838 -45.536364 
L 224.435038 -45.536364 
L 223.749238 -45.536364 
L 223.063438 -45.536364 
L 222.377638 -45.536364 
L 221.691838 -45.536364 
L 221.006038 -45.536364 
L 220.320237 -45.536364 
L 219.634437 -45.536364 
L 218.948637 -45.536364 
L 218.262837 -45.536364 
L 217.577037 -45.536364 
L 216.891237 -45.536364 
L 216.205437 -45.536364 
L 215.519637 -45.536364 
L 214.833837 -45.536364 
L 214.148037 -45.536364 
L 213.462237 -45.536364 
L 212.776437 -45.536364 
L 212.090636 -45.536364 
L 211.404836 -45.536364 
L 210.719036 -45.536364 
L 210.033236 -45.536364 
L 209.347436 -45.536364 
L 208.661636 -45.536364 
L 207.975836 -45.536364 
L 207.290036 -45.536364 
L 206.604236 -45.536364 
L 205.918436 -45.536364 
L 205.232636 -45.536364 
L 204.546836 -45.536364 
L 203.861035 -45.536364 
L 203.175235 -45.536364 
L 202.489435 -45.536364 
L 201.803635 -45.536364 
L 201.117835 -45.536364 
L 200.432035 -45.536364 
L 199.746235 -45.536364 
L 199.060435 -45.536364 
L 198.374635 -45.536364 
L 197.688835 -45.536364 
L 197.003035 -45.536364 
L 196.317235 -45.536364 
L 195.631434 -45.536364 
L 194.945634 -45.536364 
L 194.259834 -45.536364 
L 193.574034 -45.536364 
L 192.888234 -45.536364 
L 192.202434 -45.536364 
L 191.516634 -45.536364 
L 190.830834 -45.536364 
L 190.145034 -45.536364 
L 189.459234 -45.536364 
L 188.773434 -45.536364 
L 188.087634 -45.536364 
L 187.401834 -45.536364 
L 186.716033 -45.536364 
L 186.030233 -45.536364 
L 185.344433 -45.536364 
L 184.658633 -45.536364 
L 183.972833 -45.536364 
L 183.287033 -45.536364 
L 182.601233 -45.536364 
L 181.915433 -45.536364 
L 181.229633 -45.536364 
L 180.543833 -45.536364 
L 179.858033 -45.536364 
L 179.172233 -45.536364 
L 178.486432 -45.536364 
L 177.800632 -45.536364 
L 177.114832 -45.536364 
L 176.429032 -45.536364 
L 175.743232 -45.536364 
L 175.057432 -45.536364 
L 174.371632 -45.536364 
L 173.685832 -45.536364 
L 173.000032 -45.536364 
L 172.314232 -45.536364 
L 171.628432 -45.536364 
L 170.942632 -45.536364 
L 170.256831 -45.536364 
L 169.571031 -45.536364 
L 168.885231 -45.536364 
L 168.199431 -45.536364 
L 167.513631 -45.536364 
L 166.827831 -45.536364 
L 166.142031 -45.536364 
L 165.456231 -45.536364 
L 164.770431 -45.536364 
L 164.084631 -45.536364 
L 163.398831 -45.536364 
L 162.713031 -45.536364 
L 162.02723 -45.536364 
L 161.34143 -45.536364 
L 160.65563 -45.536364 
L 159.96983 -45.536364 
L 159.28403 -45.536364 
L 158.59823 -45.536364 
L 157.91243 -45.536364 
L 157.22663 -45.536364 
L 156.54083 -45.536364 
L 155.85503 -45.536364 
L 155.16923 -45.536364 
L 154.48343 -45.536364 
L 153.797629 -45.536364 
L 153.111829 -45.536364 
L 152.426029 -45.536364 
L 151.740229 -45.536364 
L 151.054429 -45.536364 
L 150.368629 -45.536364 
L 149.682829 -45.536364 
L 148.997029 -45.536364 
L 148.311229 -45.536364 
L 147.625429 -45.536364 
L 146.939629 -45.536364 
L 146.253829 -45.536364 
L 145.568028 -45.536364 
L 144.882228 -45.536364 
L 144.196428 -45.536364 
L 143.510628 -45.536364 
L 142.824828 -45.536364 
L 142.139028 -45.536364 
L 141.453228 -45.536364 
L 140.767428 -45.536364 
L 140.081628 -45.536364 
L 139.395828 -45.536364 
L 138.710028 -45.536364 
L 138.024228 -45.536364 
L 137.338427 -45.536364 
L 136.652627 -45.536364 
L 135.966827 -45.536364 
L 135.281027 -45.536364 
L 134.595227 -45.536364 
L 133.909427 -45.536364 
L 133.223627 -45.536364 
L 132.537827 -45.536364 
L 131.852027 -45.536364 
L 131.166227 -45.536364 
L 130.480427 -45.536364 
L 129.794627 -45.536364 
L 129.108826 -45.536364 
L 128.423026 -45.536364 
L 127.737226 -45.536364 
L 127.051426 -45.536364 
L 126.365626 -45.536364 
L 125.679826 -45.536364 
L 124.994026 -45.536364 
L 124.308226 -45.536364 
L 123.622426 -45.536364 
L 122.936626 -45.536364 
L 122.250826 -45.536364 
L 121.565026 -45.536364 
L 120.879225 -45.536364 
L 120.193425 -45.536364 
L 119.507625 -45.536364 
L 118.821825 -45.536364 
L 118.136025 -45.536364 
L 117.450225 -45.536364 
L 116.764425 -45.536364 
L 116.078625 -45.536364 
L 115.392825 -45.536364 
L 114.707025 -45.536364 
L 114.021225 -45.536364 
L 113.335425 -45.536364 
L 112.649625 -45.536364 
L 111.963824 -45.536364 
L 111.278024 -45.536364 
L 110.592224 -45.536364 
L 109.906424 -45.536364 
L 109.220624 -45.536364 
L 108.534824 -45.536364 
L 107.849024 -45.536364 
L 107.163224 -45.536364 
L 106.477424 -45.536364 
L 105.791624 -45.536364 
L 105.105824 -45.536364 
L 104.420024 -45.536364 
L 103.734223 -45.536364 
L 103.048423 -45.536364 
L 102.362623 -45.536364 
L 101.676823 -45.536364 
L 100.991023 -45.536364 
L 100.305223 -45.536364 
L 99.619423 -45.536364 
L 98.933623 -45.536364 
L 98.247823 -45.536364 
L 97.562023 -45.536364 
L 96.876223 -45.536364 
L 96.190423 -45.536364 
L 95.504622 -45.536364 
L 94.818822 -45.536364 
L 94.133022 -45.536364 
L 93.447222 -45.536364 
L 92.761422 -45.536364 
L 92.075622 -45.536364 
L 91.389822 -45.536364 
L 90.704022 -45.536364 
L 90.018222 -45.536364 
L 89.332422 -45.536364 
L 88.646622 -45.536364 
L 87.960822 -45.536364 
L 87.275021 -45.536364 
L 86.589221 -45.536364 
L 85.903421 -45.536364 
L 85.217621 -45.536364 
L 84.531821 -45.536364 
L 83.846021 -45.536364 
L 83.160221 -45.536364 
L 82.474421 -45.536364 
L 81.788621 -45.536364 
L 81.102821 -45.536364 
L 80.417021 -45.536364 
L 79.731221 -45.536364 
L 79.04542 -45.536364 
L 78.35962 -45.536364 
L 77.67382 -45.536364 
L 76.98802 -45.536364 
L 76.30222 -45.536364 
L 75.61642 -45.536364 
L 74.93062 -45.536364 
L 74.24482 -45.536364 
L 73.55902 -45.536364 
L 72.87322 -45.536364 
L 72.18742 -45.536364 
L 71.50162 -45.536364 
L 70.815819 -45.536364 
L 70.130019 -45.536364 
L 69.444219 -45.536364 
L 68.758419 -45.536364 
L 68.072619 -45.536364 
L 67.386819 -45.536364 
L 66.701019 -45.536364 
L 66.015219 -45.536364 
L 65.329419 -45.536364 
L 64.643619 -45.536364 
L 63.957819 -45.536364 
L 63.272019 -45.536364 
L 62.586218 -45.536364 
L 61.900418 -45.536364 
L 61.214618 -45.536364 
L 60.528818 -45.536364 
L 59.843018 -45.536364 
L 59.157218 -45.536364 
L 58.471418 -45.536364 
L 57.785618 -45.536364 
z
" style="stroke: #4c78a8; stroke-opacity: 0.15"/>
    </defs>
    <g clip-path="url(#p900849a17f)">
     <use xlink:href="#m21b97ab47d" x="0" y="223.158281" style="fill: #4c78a8; fill-opacity: 0.15; stroke: #4c78a8; stroke-opacity: 0.15"/>
    </g>
   </g>
   <g id="matplotlib.axis_1">
    <g id="xtick_1">
     <g id="line2d_1">
      <path d="M 46.784762 184.958281 
L 46.784762 23.558281 
" clip-path="url(#p900849a17f)" style="fill: none; stroke: #b0b0b0; stroke-opacity: 0.25; stroke-width: 0.6; stroke-linecap: square"/>
     </g>
     <g id="line2d_2">
      <defs>
       <path id="mf96ad9f016" d="M 0 0 
L 0 3.5 
" style="stroke: #000000; stroke-width: 0.8"/>
      </defs>
      <g>
       <use xlink:href="#mf96ad9f016" x="46.784762" y="184.958281" style="stroke: #000000; stroke-width: 0.8"/>
      </g>
     </g>
     <g id="text_1">
      <!-- 0.0 -->
      <g transform="translate(38.8332 199.555938) scale(0.1 -0.1)">
       <defs>
        <path id="DejaVuSans-13" d="M 2034 4250 
Q 1547 4250 1301 3770 
Q 1056 3291 1056 2328 
Q 1056 1369 1301 889 
Q 1547 409 2034 409 
Q 2525 409 2770 889 
Q 3016 1369 3016 2328 
Q 3016 3291 2770 3770 
Q 2525 4250 2034 4250 
z
M 2034 4750 
Q 2819 4750 3233 4129 
Q 3647 3509 3647 2328 
Q 3647 1150 3233 529 
Q 2819 -91 2034 -91 
Q 1250 -91 836 529 
Q 422 1150 422 2328 
Q 422 3509 836 4129 
Q 1250 4750 2034 4750 
z
" transform="scale(0.015625)"/>
        <path id="DejaVuSans-11" d="M 684 794 
L 1344 794 
L 1344 0 
L 684 0 
L 684 794 
z
" transform="scale(0.015625)"/>
       </defs>
       <use xlink:href="#DejaVuSans-13"/>
       <use xlink:href="#DejaVuSans-11" transform="translate(63.625 0)"/>
       <use xlink:href="#DejaVuSans-13" transform="translate(95.40625 0)"/>
      </g>
     </g>
    </g>
    <g id="xtick_2">
     <g id="line2d_3">
      <path d="M 82.071776 184.958281 
L 82.071776 23.558281 
" clip-path="url(#p900849a17f)" style="fill: none; stroke: #b0b0b0; stroke-opacity: 0.25; stroke-width: 0.6; stroke-linecap: square"/>
     </g>
     <g id="line2d_4">
      <g>
       <use xlink:href="#mf96ad9f016" x="82.071776" y="184.958281" style="stroke: #000000; stroke-width: 0.8"/>
      </g>
     </g>
     <g id="text_2">
      <!-- 0.5 -->
      <g transform="translate(74.120213 199.555938) scale(0.1 -0.1)">
       <defs>
        <path id="DejaVuSans-18" d="M 691 4666 
L 3169 4666 
L 3169 4134 
L 1269 4134 
L 1269 2991 
Q 1406 3038 1543 3061 
Q 1681 3084 1819 3084 
Q 2600 3084 3056 2656 
Q 3513 2228 3513 1497 
Q 3513 744 3044 326 
Q 2575 -91 1722 -91 
Q 1428 -91 1123 -41 
Q 819 9 494 109 
L 494 744 
Q 775 591 1075 516 
Q 1375 441 1709 441 
Q 2250 441 2565 725 
Q 2881 1009 2881 1497 
Q 2881 1984 2565 2268 
Q 2250 2553 1709 2553 
Q 1456 2553 1204 2497 
Q 953 2441 691 2322 
L 691 4666 
z
" transform="scale(0.015625)"/>
       </defs>
       <use xlink:href="#DejaVuSans-13"/>
       <use xlink:href="#DejaVuSans-11" transform="translate(63.625 0)"/>
       <use xlink:href="#DejaVuSans-18" transform="translate(95.40625 0)"/>
      </g>
     </g>
    </g>
    <g id="xtick_3">
     <g id="line2d_5">
      <path d="M 117.358789 184.958281 
L 117.358789 23.558281 
" clip-path="url(#p900849a17f)" style="fill: none; stroke: #b0b0b0; stroke-opacity: 0.25; stroke-width: 0.6; stroke-linecap: square"/>
     </g>
     <g id="line2d_6">
      <g>
       <use xlink:href="#mf96ad9f016" x="117.358789" y="184.958281" style="stroke: #000000; stroke-width: 0.8"/>
      </g>
     </g>
     <g id="text_3">
      <!-- 1.0 -->
      <g transform="translate(109.407227 199.555938) scale(0.1 -0.1)">
       <defs>
        <path id="DejaVuSans-14" d="M 794 531 
L 1825 531 
L 1825 4091 
L 703 3866 
L 703 4441 
L 1819 4666 
L 2450 4666 
L 2450 531 
L 3481 531 
L 3481 0 
L 794 0 
L 794 531 
z
" transform="scale(0.015625)"/>
       </defs>
       <use xlink:href="#DejaVuSans-14"/>
       <use xlink:href="#DejaVuSans-11" transform="translate(63.625 0)"/>
       <use xlink:href="#DejaVuSans-13" transform="translate(95.40625 0)"/>
      </g>
     </g>
    </g>
    <g id="xtick_4">
     <g id="line2d_7">
      <path d="M 152.645803 184.958281 
L 152.645803 23.558281 
" clip-path="url(#p900849a17f)" style="fill: none; stroke: #b0b0b0; stroke-opacity: 0.25; stroke-width: 0.6; stroke-linecap: square"/>
     </g>
     <g id="line2d_8">
      <g>
       <use xlink:href="#mf96ad9f016" x="152.645803" y="184.958281" style="stroke: #000000; stroke-width: 0.8"/>
      </g>
     </g>
     <g id="text_4">
      <!-- 1.5 -->
      <g transform="translate(144.69424 199.555938) scale(0.1 -0.1)">
       <use xlink:href="#DejaVuSans-14"/>
       <use xlink:href="#DejaVuSans-11" transform="translate(63.625 0)"/>
       <use xlink:href="#DejaVuSans-18" transform="translate(95.40625 0)"/>
      </g>
     </g>
    </g>
    <g id="xtick_5">
     <g id="line2d_9">
      <path d="M 187.932817 184.958281 
L 187.932817 23.558281 
" clip-path="url(#p900849a17f)" style="fill: none; stroke: #b0b0b0; stroke-opacity: 0.25; stroke-width: 0.6; stroke-linecap: square"/>
     </g>
     <g id="line2d_10">
      <g>
       <use xlink:href="#mf96ad9f016" x="187.932817" y="184.958281" style="stroke: #000000; stroke-width: 0.8"/>
      </g>
     </g>
     <g id="text_5">
      <!-- 2.0 -->
      <g transform="translate(179.981254 199.555938) scale(0.1 -0.1)">
       <defs>
        <path id="DejaVuSans-15" d="M 1228 531 
L 3431 531 
L 3431 0 
L 469 0 
L 469 531 
Q 828 903 1448 1529 
Q 2069 2156 2228 2338 
Q 2531 2678 2651 2914 
Q 2772 3150 2772 3378 
Q 2772 3750 2511 3984 
Q 2250 4219 1831 4219 
Q 1534 4219 1204 4116 
Q 875 4013 500 3803 
L 500 4441 
Q 881 4594 1212 4672 
Q 1544 4750 1819 4750 
Q 2544 4750 2975 4387 
Q 3406 4025 3406 3419 
Q 3406 3131 3298 2873 
Q 3191 2616 2906 2266 
Q 2828 2175 2409 1742 
Q 1991 1309 1228 531 
z
" transform="scale(0.015625)"/>
       </defs>
       <use xlink:href="#DejaVuSans-15"/>
       <use xlink:href="#DejaVuSans-11" transform="translate(63.625 0)"/>
       <use xlink:href="#DejaVuSans-13" transform="translate(95.40625 0)"/>
      </g>
     </g>
    </g>
    <g id="xtick_6">
     <g id="line2d_11">
      <path d="M 223.21983 184.958281 
L 223.21983 23.558281 
" clip-path="url(#p900849a17f)" style="fill: none; stroke: #b0b0b0; stroke-opacity: 0.25; stroke-width: 0.6; stroke-linecap: square"/>
     </g>
     <g id="line2d_12">
      <g>
       <use xlink:href="#mf96ad9f016" x="223.21983" y="184.958281" style="stroke: #000000; stroke-width: 0.8"/>
      </g>
     </g>
     <g id="text_6">
      <!-- 2.5 -->
      <g transform="translate(215.268268 199.555938) scale(0.1 -0.1)">
       <use xlink:href="#DejaVuSans-15"/>
       <use xlink:href="#DejaVuSans-11" transform="translate(63.625 0)"/>
       <use xlink:href="#DejaVuSans-18" transform="translate(95.40625 0)"/>
      </g>
     </g>
    </g>
    <g id="xtick_7">
     <g id="line2d_13">
      <path d="M 258.506844 184.958281 
L 258.506844 23.558281 
" clip-path="url(#p900849a17f)" style="fill: none; stroke: #b0b0b0; stroke-opacity: 0.25; stroke-width: 0.6; stroke-linecap: square"/>
     </g>
     <g id="line2d_14">
      <g>
       <use xlink:href="#mf96ad9f016" x="258.506844" y="184.958281" style="stroke: #000000; stroke-width: 0.8"/>
      </g>
     </g>
     <g id="text_7">
      <!-- 3.0 -->
      <g transform="translate(250.555281 199.555938) scale(0.1 -0.1)">
       <defs>
        <path id="DejaVuSans-16" d="M 2597 2516 
Q 3050 2419 3304 2112 
Q 3559 1806 3559 1356 
Q 3559 666 3084 287 
Q 2609 -91 1734 -91 
Q 1441 -91 1130 -33 
Q 819 25 488 141 
L 488 750 
Q 750 597 1062 519 
Q 1375 441 1716 441 
Q 2309 441 2620 675 
Q 2931 909 2931 1356 
Q 2931 1769 2642 2001 
Q 2353 2234 1838 2234 
L 1294 2234 
L 1294 2753 
L 1863 2753 
Q 2328 2753 2575 2939 
Q 2822 3125 2822 3475 
Q 2822 3834 2567 4026 
Q 2313 4219 1838 4219 
Q 1578 4219 1281 4162 
Q 984 4106 628 3988 
L 628 4550 
Q 988 4650 1302 4700 
Q 1616 4750 1894 4750 
Q 2613 4750 3031 4423 
Q 3450 4097 3450 3541 
Q 3450 3153 3228 2886 
Q 3006 2619 2597 2516 
z
" transform="scale(0.015625)"/>
       </defs>
       <use xlink:href="#DejaVuSans-16"/>
       <use xlink:href="#DejaVuSans-11" transform="translate(63.625 0)"/>
       <use xlink:href="#DejaVuSans-13" transform="translate(95.40625 0)"/>
      </g>
     </g>
    </g>
    <g id="xtick_8">
     <g id="line2d_15">
      <path d="M 293.793857 184.958281 
L 293.793857 23.558281 
" clip-path="url(#p900849a17f)" style="fill: none; stroke: #b0b0b0; stroke-opacity: 0.25; stroke-width: 0.6; stroke-linecap: square"/>
     </g>
     <g id="line2d_16">
      <g>
       <use xlink:href="#mf96ad9f016" x="293.793857" y="184.958281" style="stroke: #000000; stroke-width: 0.8"/>
      </g>
     </g>
     <g id="text_8">
      <!-- 3.5 -->
      <g transform="translate(285.842295 199.555938) scale(0.1 -0.1)">
       <use xlink:href="#DejaVuSans-16"/>
       <use xlink:href="#DejaVuSans-11" transform="translate(63.625 0)"/>
       <use xlink:href="#DejaVuSans-18" transform="translate(95.40625 0)"/>
      </g>
     </g>
    </g>
    <g id="xtick_9">
     <g id="line2d_17">
      <path d="M 329.080871 184.958281 
L 329.080871 23.558281 
" clip-path="url(#p900849a17f)" style="fill: none; stroke: #b0b0b0; stroke-opacity: 0.25; stroke-width: 0.6; stroke-linecap: square"/>
     </g>
     <g id="line2d_18">
      <g>
       <use xlink:href="#mf96ad9f016" x="329.080871" y="184.958281" style="stroke: #000000; stroke-width: 0.8"/>
      </g>
     </g>
     <g id="text_9">
      <!-- 4.0 -->
      <g transform="translate(321.129308 199.555938) scale(0.1 -0.1)">
       <defs>
        <path id="DejaVuSans-17" d="M 2419 4116 
L 825 1625 
L 2419 1625 
L 2419 4116 
z
M 2253 4666 
L 3047 4666 
L 3047 1625 
L 3713 1625 
L 3713 1100 
L 3047 1100 
L 3047 0 
L 2419 0 
L 2419 1100 
L 313 1100 
L 313 1709 
L 2253 4666 
z
" transform="scale(0.015625)"/>
       </defs>
       <use xlink:href="#DejaVuSans-17"/>
       <use xlink:href="#DejaVuSans-11" transform="translate(63.625 0)"/>
       <use xlink:href="#DejaVuSans-13" transform="translate(95.40625 0)"/>
      </g>
     </g>
    </g>
    <g id="text_10">
     <!-- x -->
     <g transform="translate(191.643359 213.555938) scale(0.1 -0.1)">
      <defs>
       <path id="DejaVuSans-5b" d="M 3513 3500 
L 2247 1797 
L 3578 0 
L 2900 0 
L 1881 1375 
L 863 0 
L 184 0 
L 1544 1831 
L 300 3500 
L 978 3500 
L 1906 2253 
L 2834 3500 
L 3513 3500 
z
" transform="scale(0.015625)"/>
      </defs>
      <use xlink:href="#DejaVuSans-5b"/>
     </g>
    </g>
   </g>
   <g id="matplotlib.axis_2">
    <g id="ytick_1">
     <g id="line2d_19">
      <path d="M 44.103906 177.621918 
L 345.101562 177.621918 
" clip-path="url(#p900849a17f)" style="fill: none; stroke: #b0b0b0; stroke-opacity: 0.25; stroke-width: 0.6; stroke-linecap: square"/>
     </g>
     <g id="line2d_20">
      <defs>
       <path id="me76db89bd5" d="M 0 0 
L -3.5 0 
" style="stroke: #000000; stroke-width: 0.8"/>
      </defs>
      <g>
       <use xlink:href="#me76db89bd5" x="44.103906" y="177.621918" style="stroke: #000000; stroke-width: 0.8"/>
      </g>
     </g>
     <g id="text_11">
      <!-- 0.0 -->
      <g transform="translate(21.200781 181.420746) scale(0.1 -0.1)">
       <use xlink:href="#DejaVuSans-13"/>
       <use xlink:href="#DejaVuSans-11" transform="translate(63.625 0)"/>
       <use xlink:href="#DejaVuSans-13" transform="translate(95.40625 0)"/>
      </g>
     </g>
    </g>
    <g id="ytick_2">
     <g id="line2d_21">
      <path d="M 44.103906 152.627373 
L 345.101562 152.627373 
" clip-path="url(#p900849a17f)" style="fill: none; stroke: #b0b0b0; stroke-opacity: 0.25; stroke-width: 0.6; stroke-linecap: square"/>
     </g>
     <g id="line2d_22">
      <g>
       <use xlink:href="#me76db89bd5" x="44.103906" y="152.627373" style="stroke: #000000; stroke-width: 0.8"/>
      </g>
     </g>
     <g id="text_12">
      <!-- 0.1 -->
      <g transform="translate(21.200781 156.426201) scale(0.1 -0.1)">
       <use xlink:href="#DejaVuSans-13"/>
       <use xlink:href="#DejaVuSans-11" transform="translate(63.625 0)"/>
       <use xlink:href="#DejaVuSans-14" transform="translate(95.40625 0)"/>
      </g>
     </g>
    </g>
    <g id="ytick_3">
     <g id="line2d_23">
      <path d="M 44.103906 127.632829 
L 345.101562 127.632829 
" clip-path="url(#p900849a17f)" style="fill: none; stroke: #b0b0b0; stroke-opacity: 0.25; stroke-width: 0.6; stroke-linecap: square"/>
     </g>
     <g id="line2d_24">
      <g>
       <use xlink:href="#me76db89bd5" x="44.103906" y="127.632829" style="stroke: #000000; stroke-width: 0.8"/>
      </g>
     </g>
     <g id="text_13">
      <!-- 0.2 -->
      <g transform="translate(21.200781 131.431657) scale(0.1 -0.1)">
       <use xlink:href="#DejaVuSans-13"/>
       <use xlink:href="#DejaVuSans-11" transform="translate(63.625 0)"/>
       <use xlink:href="#DejaVuSans-15" transform="translate(95.40625 0)"/>
      </g>
     </g>
    </g>
    <g id="ytick_4">
     <g id="line2d_25">
      <path d="M 44.103906 102.638285 
L 345.101562 102.638285 
" clip-path="url(#p900849a17f)" style="fill: none; stroke: #b0b0b0; stroke-opacity: 0.25; stroke-width: 0.6; stroke-linecap: square"/>
     </g>
     <g id="line2d_26">
      <g>
       <use xlink:href="#me76db89bd5" x="44.103906" y="102.638285" style="stroke: #000000; stroke-width: 0.8"/>
      </g>
     </g>
     <g id="text_14">
      <!-- 0.3 -->
      <g transform="translate(21.200781 106.437113) scale(0.1 -0.1)">
       <use xlink:href="#DejaVuSans-13"/>
       <use xlink:href="#DejaVuSans-11" transform="translate(63.625 0)"/>
       <use xlink:href="#DejaVuSans-16" transform="translate(95.40625 0)"/>
      </g>
     </g>
    </g>
    <g id="ytick_5">
     <g id="line2d_27">
      <path d="M 44.103906 77.64374 
L 345.101562 77.64374 
" clip-path="url(#p900849a17f)" style="fill: none; stroke: #b0b0b0; stroke-opacity: 0.25; stroke-width: 0.6; stroke-linecap: square"/>
     </g>
     <g id="line2d_28">
      <g>
       <use xlink:href="#me76db89bd5" x="44.103906" y="77.64374" style="stroke: #000000; stroke-width: 0.8"/>
      </g>
     </g>
     <g id="text_15">
      <!-- 0.4 -->
      <g transform="translate(21.200781 81.442568) scale(0.1 -0.1)">
       <use xlink:href="#DejaVuSans-13"/>
       <use xlink:href="#DejaVuSans-11" transform="translate(63.625 0)"/>
       <use xlink:href="#DejaVuSans-17" transform="translate(95.40625 0)"/>
      </g>
     </g>
    </g>
    <g id="ytick_6">
     <g id="line2d_29">
      <path d="M 44.103906 52.649196 
L 345.101562 52.649196 
" clip-path="url(#p900849a17f)" style="fill: none; stroke: #b0b0b0; stroke-opacity: 0.25; stroke-width: 0.6; stroke-linecap: square"/>
     </g>
     <g id="line2d_30">
      <g>
       <use xlink:href="#me76db89bd5" x="44.103906" y="52.649196" style="stroke: #000000; stroke-width: 0.8"/>
      </g>
     </g>
     <g id="text_16">
      <!-- 0.5 -->
      <g transform="translate(21.200781 56.448024) scale(0.1 -0.1)">
       <use xlink:href="#DejaVuSans-13"/>
       <use xlink:href="#DejaVuSans-11" transform="translate(63.625 0)"/>
       <use xlink:href="#DejaVuSans-18" transform="translate(95.40625 0)"/>
      </g>
     </g>
    </g>
    <g id="ytick_7">
     <g id="line2d_31">
      <path d="M 44.103906 27.654652 
L 345.101562 27.654652 
" clip-path="url(#p900849a17f)" style="fill: none; stroke: #b0b0b0; stroke-opacity: 0.25; stroke-width: 0.6; stroke-linecap: square"/>
     </g>
     <g id="line2d_32">
      <g>
       <use xlink:href="#me76db89bd5" x="44.103906" y="27.654652" style="stroke: #000000; stroke-width: 0.8"/>
      </g>
     </g>
     <g id="text_17">
      <!-- 0.6 -->
      <g transform="translate(21.200781 31.45348) scale(0.1 -0.1)">
       <defs>
        <path id="DejaVuSans-19" d="M 2113 2584 
Q 1688 2584 1439 2293 
Q 1191 2003 1191 1497 
Q 1191 994 1439 701 
Q 1688 409 2113 409 
Q 2538 409 2786 701 
Q 3034 994 3034 1497 
Q 3034 2003 2786 2293 
Q 2538 2584 2113 2584 
z
M 3366 4563 
L 3366 3988 
Q 3128 4100 2886 4159 
Q 2644 4219 2406 4219 
Q 1781 4219 1451 3797 
Q 1122 3375 1075 2522 
Q 1259 2794 1537 2939 
Q 1816 3084 2150 3084 
Q 2853 3084 3261 2657 
Q 3669 2231 3669 1497 
Q 3669 778 3244 343 
Q 2819 -91 2113 -91 
Q 1303 -91 875 529 
Q 447 1150 447 2328 
Q 447 3434 972 4092 
Q 1497 4750 2381 4750 
Q 2619 4750 2861 4703 
Q 3103 4656 3366 4563 
z
" transform="scale(0.015625)"/>
       </defs>
       <use xlink:href="#DejaVuSans-13"/>
       <use xlink:href="#DejaVuSans-11" transform="translate(63.625 0)"/>
       <use xlink:href="#DejaVuSans-19" transform="translate(95.40625 0)"/>
      </g>
     </g>
    </g>
    <g id="text_18">
     <!-- f(x) -->
     <g transform="translate(14.798438 112.879375) rotate(-90) scale(0.1 -0.1)">
      <defs>
       <path id="DejaVuSans-49" d="M 2375 4863 
L 2375 4384 
L 1825 4384 
Q 1516 4384 1395 4259 
Q 1275 4134 1275 3809 
L 1275 3500 
L 2222 3500 
L 2222 3053 
L 1275 3053 
L 1275 0 
L 697 0 
L 697 3053 
L 147 3053 
L 147 3500 
L 697 3500 
L 697 3744 
Q 697 4328 969 4595 
Q 1241 4863 1831 4863 
L 2375 4863 
z
" transform="scale(0.015625)"/>
       <path id="DejaVuSans-b" d="M 1984 4856 
Q 1566 4138 1362 3434 
Q 1159 2731 1159 2009 
Q 1159 1288 1364 580 
Q 1569 -128 1984 -844 
L 1484 -844 
Q 1016 -109 783 600 
Q 550 1309 550 2009 
Q 550 2706 781 3412 
Q 1013 4119 1484 4856 
L 1984 4856 
z
" transform="scale(0.015625)"/>
       <path id="DejaVuSans-c" d="M 513 4856 
L 1013 4856 
Q 1481 4119 1714 3412 
Q 1947 2706 1947 2009 
Q 1947 1309 1714 600 
Q 1481 -109 1013 -844 
L 513 -844 
Q 928 -128 1133 580 
Q 1338 1288 1338 2009 
Q 1338 2731 1133 3434 
Q 928 4138 513 4856 
z
" transform="scale(0.015625)"/>
      </defs>
      <use xlink:href="#DejaVuSans-49"/>
      <use xlink:href="#DejaVuSans-b" transform="translate(35.203125 0)"/>
      <use xlink:href="#DejaVuSans-5b" transform="translate(74.21875 0)"/>
      <use xlink:href="#DejaVuSans-c" transform="translate(133.40625 0)"/>
     </g>
    </g>
   </g>
   <g id="line2d_33">
    <path d="M 57.785618 172.83482 
L 59.843018 170.910232 
L 61.900418 168.680876 
L 63.957819 166.157999 
L 66.701019 162.359704 
L 69.444219 158.096103 
L 72.18742 153.404917 
L 75.61642 147.002748 
L 79.04542 140.084229 
L 83.160221 131.231853 
L 87.960822 120.359934 
L 105.791624 79.333738 
L 109.906424 70.681047 
L 113.335425 63.936169 
L 116.764425 57.690188 
L 119.507625 53.094356 
L 122.250826 48.88476 
L 124.994026 45.084735 
L 127.737226 41.713566 
L 129.794627 39.475924 
L 131.852027 37.493047 
L 133.909427 35.768555 
L 135.966827 34.304801 
L 138.024228 33.102898 
L 140.081628 32.162753 
L 142.139028 31.483101 
L 144.196428 31.061554 
L 146.253829 30.894645 
L 148.311229 30.977888 
L 150.368629 31.305833 
L 152.426029 31.872128 
L 154.48343 32.669587 
L 156.54083 33.690255 
L 158.59823 34.92548 
L 161.34143 36.890084 
L 164.084631 39.196071 
L 166.827831 41.8185 
L 169.571031 44.731291 
L 173.000032 48.739523 
L 176.429032 53.105604 
L 180.543833 58.740898 
L 185.344433 65.743939 
L 191.516634 75.206078 
L 212.090636 107.198461 
L 217.577037 115.150088 
L 222.377638 121.740852 
L 227.178238 127.941393 
L 231.293039 132.921228 
L 235.407839 137.578253 
L 239.52264 141.905853 
L 243.63744 145.902805 
L 247.752241 149.572586 
L 251.867041 152.922687 
L 255.981842 155.963924 
L 260.096642 158.709782 
L 264.211443 161.175804 
L 268.326243 163.379015 
L 272.441044 165.337413 
L 276.555844 167.069509 
L 281.356445 168.829119 
L 286.157045 170.335245 
L 290.957646 171.616094 
L 296.444047 172.838361 
L 301.930447 173.838492 
L 308.102648 174.74008 
L 314.960649 175.513991 
L 322.50445 176.14598 
L 331.419851 176.669332 
L 331.419851 176.669332 
" clip-path="url(#p900849a17f)" style="fill: none; stroke: #4c78a8; stroke-width: 2; stroke-linecap: square"/>
   </g>
   <g id="patch_3">
    <path d="M 44.103906 184.958281 
L 44.103906 23.558281 
" style="fill: none; stroke: #000000; stroke-width: 0.8; stroke-linejoin: miter; stroke-linecap: square"/>
   </g>
   <g id="patch_4">
    <path d="M 44.103906 184.958281 
L 345.101562 184.958281 
" style="fill: none; stroke: #000000; stroke-width: 0.8; stroke-linejoin: miter; stroke-linecap: square"/>
   </g>
   <g id="text_19">
    <!-- Maxwellboltzmann -->
    <g transform="translate(143.166562 15.558281) scale(0.11 -0.11)">
     <defs>
      <path id="DejaVuSans-30" d="M 628 4666 
L 1569 4666 
L 2759 1491 
L 3956 4666 
L 4897 4666 
L 4897 0 
L 4281 0 
L 4281 4097 
L 3078 897 
L 2444 897 
L 1241 4097 
L 1241 0 
L 628 0 
L 628 4666 
z
" transform="scale(0.015625)"/>
      <path id="DejaVuSans-44" d="M 2194 1759 
Q 1497 1759 1228 1600 
Q 959 1441 959 1056 
Q 959 750 1161 570 
Q 1363 391 1709 391 
Q 2188 391 2477 730 
Q 2766 1069 2766 1631 
L 2766 1759 
L 2194 1759 
z
M 3341 1997 
L 3341 0 
L 2766 0 
L 2766 531 
Q 2569 213 2275 61 
Q 1981 -91 1556 -91 
Q 1019 -91 701 211 
Q 384 513 384 1019 
Q 384 1609 779 1909 
Q 1175 2209 1959 2209 
L 2766 2209 
L 2766 2266 
Q 2766 2663 2505 2880 
Q 2244 3097 1772 3097 
Q 1472 3097 1187 3025 
Q 903 2953 641 2809 
L 641 3341 
Q 956 3463 1253 3523 
Q 1550 3584 1831 3584 
Q 2591 3584 2966 3190 
Q 3341 2797 3341 1997 
z
" transform="scale(0.015625)"/>
      <path id="DejaVuSans-5a" d="M 269 3500 
L 844 3500 
L 1563 769 
L 2278 3500 
L 2956 3500 
L 3675 769 
L 4391 3500 
L 4966 3500 
L 4050 0 
L 3372 0 
L 2619 2869 
L 1863 0 
L 1184 0 
L 269 3500 
z
" transform="scale(0.015625)"/>
      <path id="DejaVuSans-48" d="M 3597 1894 
L 3597 1613 
L 953 1613 
Q 991 1019 1311 708 
Q 1631 397 2203 397 
Q 2534 397 2845 478 
Q 3156 559 3463 722 
L 3463 178 
Q 3153 47 2828 -22 
Q 2503 -91 2169 -91 
Q 1331 -91 842 396 
Q 353 884 353 1716 
Q 353 2575 817 3079 
Q 1281 3584 2069 3584 
Q 2775 3584 3186 3129 
Q 3597 2675 3597 1894 
z
M 3022 2063 
Q 3016 2534 2758 2815 
Q 2500 3097 2075 3097 
Q 1594 3097 1305 2825 
Q 1016 2553 972 2059 
L 3022 2063 
z
" transform="scale(0.015625)"/>
      <path id="DejaVuSans-4f" d="M 603 4863 
L 1178 4863 
L 1178 0 
L 603 0 
L 603 4863 
z
" transform="scale(0.015625)"/>
      <path id="DejaVuSans-45" d="M 3116 1747 
Q 3116 2381 2855 2742 
Q 2594 3103 2138 3103 
Q 1681 3103 1420 2742 
Q 1159 2381 1159 1747 
Q 1159 1113 1420 752 
Q 1681 391 2138 391 
Q 2594 391 2855 752 
Q 3116 1113 3116 1747 
z
M 1159 2969 
Q 1341 3281 1617 3432 
Q 1894 3584 2278 3584 
Q 2916 3584 3314 3078 
Q 3713 2572 3713 1747 
Q 3713 922 3314 415 
Q 2916 -91 2278 -91 
Q 1894 -91 1617 61 
Q 1341 213 1159 525 
L 1159 0 
L 581 0 
L 581 4863 
L 1159 4863 
L 1159 2969 
z
" transform="scale(0.015625)"/>
      <path id="DejaVuSans-52" d="M 1959 3097 
Q 1497 3097 1228 2736 
Q 959 2375 959 1747 
Q 959 1119 1226 758 
Q 1494 397 1959 397 
Q 2419 397 2687 759 
Q 2956 1122 2956 1747 
Q 2956 2369 2687 2733 
Q 2419 3097 1959 3097 
z
M 1959 3584 
Q 2709 3584 3137 3096 
Q 3566 2609 3566 1747 
Q 3566 888 3137 398 
Q 2709 -91 1959 -91 
Q 1206 -91 779 398 
Q 353 888 353 1747 
Q 353 2609 779 3096 
Q 1206 3584 1959 3584 
z
" transform="scale(0.015625)"/>
      <path id="DejaVuSans-57" d="M 1172 4494 
L 1172 3500 
L 2356 3500 
L 2356 3053 
L 1172 3053 
L 1172 1153 
Q 1172 725 1289 603 
Q 1406 481 1766 481 
L 2356 481 
L 2356 0 
L 1766 0 
Q 1100 0 847 248 
Q 594 497 594 1153 
L 594 3053 
L 172 3053 
L 172 3500 
L 594 3500 
L 594 4494 
L 1172 4494 
z
" transform="scale(0.015625)"/>
      <path id="DejaVuSans-5d" d="M 353 3500 
L 3084 3500 
L 3084 2975 
L 922 459 
L 3084 459 
L 3084 0 
L 275 0 
L 275 525 
L 2438 3041 
L 353 3041 
L 353 3500 
z
" transform="scale(0.015625)"/>
      <path id="DejaVuSans-50" d="M 3328 2828 
Q 3544 3216 3844 3400 
Q 4144 3584 4550 3584 
Q 5097 3584 5394 3201 
Q 5691 2819 5691 2113 
L 5691 0 
L 5113 0 
L 5113 2094 
Q 5113 2597 4934 2840 
Q 4756 3084 4391 3084 
Q 3944 3084 3684 2787 
Q 3425 2491 3425 1978 
L 3425 0 
L 2847 0 
L 2847 2094 
Q 2847 2600 2669 2842 
Q 2491 3084 2119 3084 
Q 1678 3084 1418 2786 
Q 1159 2488 1159 1978 
L 1159 0 
L 581 0 
L 581 3500 
L 1159 3500 
L 1159 2956 
Q 1356 3278 1631 3431 
Q 1906 3584 2284 3584 
Q 2666 3584 2933 3390 
Q 3200 3197 3328 2828 
z
" transform="scale(0.015625)"/>
      <path id="DejaVuSans-51" d="M 3513 2113 
L 3513 0 
L 2938 0 
L 2938 2094 
Q 2938 2591 2744 2837 
Q 2550 3084 2163 3084 
Q 1697 3084 1428 2787 
Q 1159 2491 1159 1978 
L 1159 0 
L 581 0 
L 581 3500 
L 1159 3500 
L 1159 2956 
Q 1366 3272 1645 3428 
Q 1925 3584 2291 3584 
Q 2894 3584 3203 3211 
Q 3513 2838 3513 2113 
z
" transform="scale(0.015625)"/>
     </defs>
     <use xlink:href="#DejaVuSans-30"/>
     <use xlink:href="#DejaVuSans-44" transform="translate(86.28125 0)"/>
     <use xlink:href="#DejaVuSans-5b" transform="translate(147.5625 0)"/>
     <use xlink:href="#DejaVuSans-5a" transform="translate(206.75 0)"/>
     <use xlink:href="#DejaVuSans-48" transform="translate(288.53125 0)"/>
     <use xlink:href="#DejaVuSans-4f" transform="translate(350.0625 0)"/>
     <use xlink:href="#DejaVuSans-4f" transform="translate(377.84375 0)"/>
     <use xlink:href="#DejaVuSans-45" transform="translate(405.625 0)"/>
     <use xlink:href="#DejaVuSans-52" transform="translate(469.109375 0)"/>
     <use xlink:href="#DejaVuSans-4f" transform="translate(530.296875 0)"/>
     <use xlink:href="#DejaVuSans-57" transform="translate(558.078125 0)"/>
     <use xlink:href="#DejaVuSans-5d" transform="translate(597.28125 0)"/>
     <use xlink:href="#DejaVuSans-50" transform="translate(649.765625 0)"/>
     <use xlink:href="#DejaVuSans-44" transform="translate(747.171875 0)"/>
     <use xlink:href="#DejaVuSans-51" transform="translate(808.453125 0)"/>
     <use xlink:href="#DejaVuSans-51" transform="translate(871.828125 0)"/>
    </g>
   </g>
  </g>
 </g>
 <defs>
  <clipPath id="p900849a17f">
   <rect x="44.103906" y="23.558281" width="300.997656" height="161.4"/>
  </clipPath>
 </defs>
</svg>
