<?xml version="1.0" encoding="utf-8" standalone="no"?>
<!DOCTYPE svg PUBLIC "-//W3C//DTD SVG 1.1//EN"
  "http://www.w3.org/Graphics/SVG/1.1/DTD/svg11.dtd">
<svg xmlns:xlink="http://www.w3.org/1999/xlink" width="352.301562pt" height="223.158281pt" viewBox="0 0 352.301562 223.158281" xmlns="http://www.w3.org/2000/svg" version="1.1">
 <metadata>
  <rdf:RDF xmlns:dc="http://purl.org/dc/elements/1.1/" xmlns:cc="http://creativecommons.org/ns#" xmlns:rdf="http://www.w3.org/1999/02/22-rdf-syntax-ns#">
   <cc:Work>
    <dc:type rdf:resource="http://purl.org/dc/dcmitype/StillImage"/>
    <dc:date>2026-07-05T02:24:31.850260</dc:date>
    <dc:format>image/svg+xml</dc:format>
    <dc:creator>
     <cc:Agent>
      <dc:title>Matplotlib v3.11.0, https://matplotlib.org/</dc:title>
     </cc:Agent>
    </dc:creator>
   </cc:Work>
  </rdf:RDF>
 </metadata>
 <defs>
  <style type="text/css">*{stroke-linejoin: round; stroke-linecap: butt}</style>
 </defs>
 <g id="figure_1">
  <g id="patch_1">
   <path d="M 0 223.158281 
L 352.301562 223.158281 
L 352.301562 0 
L 0 0 
z
" style="fill: #ffffff"/>
  </g>
  <g id="axes_1">
   <g id="patch_2">
    <path d="M 44.103906 184.958281 
L 345.101562 184.958281 
L 345.101562 23.558281 
L 44.103906 23.558281 
z
" style="fill: #ffffff"/>
   </g>
   <g id="FillBetweenPolyCollection_1">
    <defs>
     <path id="mbb2b933ca9" d="M 57.785618 -45.536364 
L 57.785618 -48.845475 
L 58.471418 -49.175316 
L 59.157218 -49.525227 
L 59.843018 -49.895619 
L 60.528818 -50.286886 
L 61.214618 -50.699401 
L 61.900418 -51.133513 
L 62.586218 -51.589552 
L 63.272019 -52.067827 
L 63.957819 -52.568622 
L 64.643619 -53.092201 
L 65.329419 -53.638804 
L 66.015219 -54.208649 
L 66.701019 -54.801932 
L 67.386819 -55.418824 
L 68.072619 -56.059473 
L 68.758419 -56.724004 
L 69.444219 -57.412518 
L 70.130019 -58.125093 
L 70.815819 -58.861783 
L 71.50162 -59.622617 
L 72.18742 -60.407603 
L 72.87322 -61.216722 
L 73.55902 -62.049933 
L 74.24482 -62.907171 
L 74.93062 -63.788348 
L 75.61642 -64.693352 
L 76.30222 -65.622046 
L 76.98802 -66.574272 
L 77.67382 -67.549849 
L 78.35962 -68.548571 
L 79.04542 -69.57021 
L 79.731221 -70.614518 
L 80.417021 -71.68122 
L 81.102821 -72.770025 
L 81.788621 -73.880614 
L 82.474421 -75.012653 
L 83.160221 -76.165781 
L 83.846021 -77.339621 
L 84.531821 -78.533774 
L 85.217621 -79.74782 
L 85.903421 -80.981321 
L 86.589221 -82.233819 
L 87.275021 -83.504839 
L 87.960822 -84.793886 
L 88.646622 -86.100447 
L 89.332422 -87.423995 
L 90.018222 -88.763982 
L 90.704022 -90.119847 
L 91.389822 -91.491012 
L 92.075622 -92.876884 
L 92.761422 -94.276856 
L 93.447222 -95.690305 
L 94.133022 -97.116598 
L 94.818822 -98.555085 
L 95.504622 -100.005108 
L 96.190423 -101.465994 
L 96.876223 -102.93706 
L 97.562023 -104.417614 
L 98.247823 -105.906952 
L 98.933623 -107.404363 
L 99.619423 -108.909124 
L 100.305223 -110.420509 
L 100.991023 -111.93778 
L 101.676823 -113.460195 
L 102.362623 -114.987006 
L 103.048423 -116.517459 
L 103.734223 -118.050796 
L 104.420024 -119.586254 
L 105.105824 -121.123067 
L 105.791624 -122.660467 
L 106.477424 -124.197683 
L 107.163224 -125.733943 
L 107.849024 -127.268476 
L 108.534824 -128.800507 
L 109.220624 -130.329265 
L 109.906424 -131.853979 
L 110.592224 -133.373879 
L 111.278024 -134.888199 
L 111.963824 -136.396175 
L 112.649625 -137.897047 
L 113.335425 -139.390059 
L 114.021225 -140.87446 
L 114.707025 -142.349504 
L 115.392825 -143.814453 
L 116.078625 -145.268574 
L 116.764425 -146.71114 
L 117.450225 -148.141433 
L 118.136025 -149.558745 
L 118.821825 -150.962374 
L 119.507625 -152.351628 
L 120.193425 -153.725825 
L 120.879225 -155.084295 
L 121.565026 -156.426375 
L 122.250826 -157.751417 
L 122.936626 -159.058783 
L 123.622426 -160.347846 
L 124.308226 -161.617994 
L 124.994026 -162.868627 
L 125.679826 -164.099156 
L 126.365626 -165.30901 
L 127.051426 -166.497629 
L 127.737226 -167.664468 
L 128.423026 -168.808998 
L 129.108826 -169.930703 
L 129.794627 -171.029084 
L 130.480427 -172.103656 
L 131.166227 -173.153954 
L 131.852027 -174.179523 
L 132.537827 -175.17993 
L 133.223627 -176.154756 
L 133.909427 -177.103598 
L 134.595227 -178.026073 
L 135.281027 -178.921811 
L 135.966827 -179.790465 
L 136.652627 -180.631699 
L 137.338427 -181.4452 
L 138.024228 -182.23067 
L 138.710028 -182.987829 
L 139.395828 -183.716416 
L 140.081628 -184.416187 
L 140.767428 -185.086915 
L 141.453228 -185.728394 
L 142.139028 -186.340433 
L 142.824828 -186.922861 
L 143.510628 -187.475523 
L 144.196428 -187.998284 
L 144.882228 -188.491025 
L 145.568028 -188.953646 
L 146.253829 -189.386066 
L 146.939629 -189.788218 
L 147.625429 -190.160055 
L 148.311229 -190.501549 
L 148.997029 -190.812685 
L 149.682829 -191.093469 
L 150.368629 -191.343921 
L 151.054429 -191.564081 
L 151.740229 -191.754002 
L 152.426029 -191.913756 
L 153.111829 -192.043431 
L 153.797629 -192.14313 
L 154.48343 -192.212971 
L 155.16923 -192.25309 
L 155.85503 -192.263636 
L 156.54083 -192.244775 
L 157.22663 -192.196685 
L 157.91243 -192.119561 
L 158.59823 -192.013612 
L 159.28403 -191.879058 
L 159.96983 -191.716136 
L 160.65563 -191.525094 
L 161.34143 -191.306194 
L 162.02723 -191.059711 
L 162.713031 -190.785932 
L 163.398831 -190.485154 
L 164.084631 -190.157688 
L 164.770431 -189.803856 
L 165.456231 -189.423989 
L 166.142031 -189.018431 
L 166.827831 -188.587535 
L 167.513631 -188.131664 
L 168.199431 -187.65119 
L 168.885231 -187.146494 
L 169.571031 -186.617967 
L 170.256831 -186.066008 
L 170.942632 -185.491022 
L 171.628432 -184.893425 
L 172.314232 -184.273637 
L 173.000032 -183.632087 
L 173.685832 -182.96921 
L 174.371632 -182.285446 
L 175.057432 -181.581243 
L 175.743232 -180.857051 
L 176.429032 -180.113329 
L 177.114832 -179.350537 
L 177.800632 -178.569142 
L 178.486432 -177.769614 
L 179.172233 -176.952425 
L 179.858033 -176.118053 
L 180.543833 -175.266976 
L 181.229633 -174.399677 
L 181.915433 -173.516639 
L 182.601233 -172.618347 
L 183.287033 -171.70529 
L 183.972833 -170.777954 
L 184.658633 -169.836829 
L 185.344433 -168.882405 
L 186.030233 -167.91517 
L 186.716033 -166.935614 
L 187.401834 -165.944225 
L 188.087634 -164.941492 
L 188.773434 -163.927901 
L 189.459234 -162.903937 
L 190.145034 -161.870083 
L 190.830834 -160.826822 
L 191.516634 -159.774632 
L 192.202434 -158.71399 
L 192.888234 -157.64537 
L 193.574034 -156.569243 
L 194.259834 -155.486075 
L 194.945634 -154.396332 
L 195.631434 -153.300473 
L 196.317235 -152.198954 
L 197.003035 -151.092226 
L 197.688835 -149.980738 
L 198.374635 -148.864932 
L 199.060435 -147.745245 
L 199.746235 -146.62211 
L 200.432035 -145.495955 
L 201.117835 -144.367202 
L 201.803635 -143.236267 
L 202.489435 -142.103561 
L 203.175235 -140.969489 
L 203.861035 -139.834448 
L 204.546836 -138.698833 
L 205.232636 -137.563028 
L 205.918436 -136.427414 
L 206.604236 -135.292364 
L 207.290036 -134.158244 
L 207.975836 -133.025413 
L 208.661636 -131.894225 
L 209.347436 -130.765026 
L 210.033236 -129.638153 
L 210.719036 -128.513939 
L 211.404836 -127.392707 
L 212.090636 -126.274776 
L 212.776437 -125.160454 
L 213.462237 -124.050044 
L 214.148037 -122.943842 
L 214.833837 -121.842134 
L 215.519637 -120.745201 
L 216.205437 -119.653316 
L 216.891237 -118.566742 
L 217.577037 -117.485739 
L 218.262837 -116.410555 
L 218.948637 -115.341434 
L 219.634437 -114.27861 
L 220.320237 -113.22231 
L 221.006038 -112.172755 
L 221.691838 -111.130157 
L 222.377638 -110.094722 
L 223.063438 -109.066645 
L 223.749238 -108.046119 
L 224.435038 -107.033325 
L 225.120838 -106.028439 
L 225.806638 -105.031629 
L 226.492438 -104.043058 
L 227.178238 -103.062877 
L 227.864038 -102.091235 
L 228.549838 -101.128272 
L 229.235639 -100.17412 
L 229.921439 -99.228905 
L 230.607239 -98.292748 
L 231.293039 -97.365759 
L 231.978839 -96.448046 
L 232.664639 -95.539708 
L 233.350439 -94.640838 
L 234.036239 -93.751523 
L 234.722039 -92.871842 
L 235.407839 -92.001871 
L 236.093639 -91.141677 
L 236.779439 -90.291323 
L 237.46524 -89.450864 
L 238.15104 -88.620352 
L 238.83684 -87.799831 
L 239.52264 -86.989341 
L 240.20844 -86.188915 
L 240.89424 -85.398582 
L 241.58004 -84.618366 
L 242.26584 -83.848284 
L 242.95164 -83.088349 
L 243.63744 -82.338571 
L 244.32324 -81.598953 
L 245.00904 -80.869493 
L 245.694841 -80.150185 
L 246.380641 -79.441021 
L 247.066441 -78.741984 
L 247.752241 -78.053057 
L 248.438041 -77.374218 
L 249.123841 -76.705438 
L 249.809641 -76.046688 
L 250.495441 -75.397934 
L 251.181241 -74.759137 
L 251.867041 -74.130256 
L 252.552841 -73.511247 
L 253.238641 -72.902061 
L 253.924442 -72.302648 
L 254.610242 -71.712951 
L 255.296042 -71.132916 
L 255.981842 -70.562481 
L 256.667642 -70.001583 
L 257.353442 -69.450158 
L 258.039242 -68.908136 
L 258.725042 -68.375449 
L 259.410842 -67.852023 
L 260.096642 -67.337783 
L 260.782442 -66.832653 
L 261.468242 -66.336553 
L 262.154043 -65.849402 
L 262.839843 -65.371118 
L 263.525643 -64.901617 
L 264.211443 -64.440813 
L 264.897243 -63.988618 
L 265.583043 -63.544943 
L 266.268843 -63.109698 
L 266.954643 -62.682792 
L 267.640443 -62.264131 
L 268.326243 -61.853623 
L 269.012043 -61.451172 
L 269.697843 -61.056683 
L 270.383644 -60.67006 
L 271.069444 -60.291205 
L 271.755244 -59.920021 
L 272.441044 -59.556408 
L 273.126844 -59.200269 
L 273.812644 -58.851504 
L 274.498444 -58.510012 
L 275.184244 -58.175694 
L 275.870044 -57.84845 
L 276.555844 -57.528179 
L 277.241644 -57.21478 
L 277.927444 -56.908152 
L 278.613244 -56.608195 
L 279.299045 -56.314808 
L 279.984845 -56.02789 
L 280.670645 -55.747342 
L 281.356445 -55.473062 
L 282.042245 -55.204952 
L 282.728045 -54.94291 
L 283.413845 -54.686839 
L 284.099645 -54.436639 
L 284.785445 -54.192211 
L 285.471245 -53.953458 
L 286.157045 -53.720283 
L 286.842845 -53.492588 
L 287.528646 -53.270277 
L 288.214446 -53.053255 
L 288.900246 -52.841426 
L 289.586046 -52.634697 
L 290.271846 -52.432973 
L 290.957646 -52.236163 
L 291.643446 -52.044174 
L 292.329246 -51.856914 
L 293.015046 -51.674295 
L 293.700846 -51.496225 
L 294.386646 -51.322617 
L 295.072446 -51.153383 
L 295.758247 -50.988436 
L 296.444047 -50.827691 
L 297.129847 -50.671062 
L 297.815647 -50.518465 
L 298.501447 -50.369819 
L 299.187247 -50.22504 
L 299.873047 -50.084048 
L 300.558847 -49.946764 
L 301.244647 -49.813108 
L 301.930447 -49.683002 
L 302.616247 -49.556371 
L 303.302047 -49.433137 
L 303.987848 -49.313227 
L 304.673648 -49.196568 
L 305.359448 -49.083086 
L 306.045248 -48.97271 
L 306.731048 -48.865371 
L 307.416848 -48.760998 
L 308.102648 -48.659524 
L 308.788448 -48.560882 
L 309.474248 -48.465005 
L 310.160048 -48.371829 
L 310.845848 -48.281291 
L 311.531648 -48.193327 
L 312.217449 -48.107876 
L 312.903249 -48.024877 
L 313.589049 -47.94427 
L 314.274849 -47.865998 
L 314.960649 -47.790003 
L 315.646449 -47.716228 
L 316.332249 -47.644619 
L 317.018049 -47.57512 
L 317.703849 -47.507679 
L 318.389649 -47.442244 
L 319.075449 -47.378763 
L 319.761249 -47.317187 
L 320.44705 -47.257465 
L 321.13285 -47.19955 
L 321.81865 -47.143395 
L 322.50445 -47.088953 
L 323.19025 -47.036179 
L 323.87605 -46.985028 
L 324.56185 -46.935457 
L 325.24765 -46.887424 
L 325.93345 -46.840888 
L 326.61925 -46.795806 
L 327.30505 -46.75214 
L 327.99085 -46.70985 
L 328.676651 -46.668899 
L 329.362451 -46.62925 
L 330.048251 -46.590865 
L 330.734051 -46.553709 
L 331.419851 -46.517749 
L 331.419851 -45.536364 
L 331.419851 -45.536364 
L 330.734051 -45.536364 
L 330.048251 -45.536364 
L 329.362451 -45.536364 
L 328.676651 -45.536364 
L 327.99085 -45.536364 
L 327.30505 -45.536364 
L 326.61925 -45.536364 
L 325.93345 -45.536364 
L 325.24765 -45.536364 
L 324.56185 -45.536364 
L 323.87605 -45.536364 
L 323.19025 -45.536364 
L 322.50445 -45.536364 
L 321.81865 -45.536364 
L 321.13285 -45.536364 
L 320.44705 -45.536364 
L 319.761249 -45.536364 
L 319.075449 -45.536364 
L 318.389649 -45.536364 
L 317.703849 -45.536364 
L 317.018049 -45.536364 
L 316.332249 -45.536364 
L 315.646449 -45.536364 
L 314.960649 -45.536364 
L 314.274849 -45.536364 
L 313.589049 -45.536364 
L 312.903249 -45.536364 
L 312.217449 -45.536364 
L 311.531648 -45.536364 
L 310.845848 -45.536364 
L 310.160048 -45.536364 
L 309.474248 -45.536364 
L 308.788448 -45.536364 
L 308.102648 -45.536364 
L 307.416848 -45.536364 
L 306.731048 -45.536364 
L 306.045248 -45.536364 
L 305.359448 -45.536364 
L 304.673648 -45.536364 
L 303.987848 -45.536364 
L 303.302047 -45.536364 
L 302.616247 -45.536364 
L 301.930447 -45.536364 
L 301.244647 -45.536364 
L 300.558847 -45.536364 
L 299.873047 -45.536364 
L 299.187247 -45.536364 
L 298.501447 -45.536364 
L 297.815647 -45.536364 
L 297.129847 -45.536364 
L 296.444047 -45.536364 
L 295.758247 -45.536364 
L 295.072446 -45.536364 
L 294.386646 -45.536364 
L 293.700846 -45.536364 
L 293.015046 -45.536364 
L 292.329246 -45.536364 
L 291.643446 -45.536364 
L 290.957646 -45.536364 
L 290.271846 -45.536364 
L 289.586046 -45.536364 
L 288.900246 -45.536364 
L 288.214446 -45.536364 
L 287.528646 -45.536364 
L 286.842845 -45.536364 
L 286.157045 -45.536364 
L 285.471245 -45.536364 
L 284.785445 -45.536364 
L 284.099645 -45.536364 
L 283.413845 -45.536364 
L 282.728045 -45.536364 
L 282.042245 -45.536364 
L 281.356445 -45.536364 
L 280.670645 -45.536364 
L 279.984845 -45.536364 
L 279.299045 -45.536364 
L 278.613244 -45.536364 
L 277.927444 -45.536364 
L 277.241644 -45.536364 
L 276.555844 -45.536364 
L 275.870044 -45.536364 
L 275.184244 -45.536364 
L 274.498444 -45.536364 
L 273.812644 -45.536364 
L 273.126844 -45.536364 
L 272.441044 -45.536364 
L 271.755244 -45.536364 
L 271.069444 -45.536364 
L 270.383644 -45.536364 
L 269.697843 -45.536364 
L 269.012043 -45.536364 
L 268.326243 -45.536364 
L 267.640443 -45.536364 
L 266.954643 -45.536364 
L 266.268843 -45.536364 
L 265.583043 -45.536364 
L 264.897243 -45.536364 
L 264.211443 -45.536364 
L 263.525643 -45.536364 
L 262.839843 -45.536364 
L 262.154043 -45.536364 
L 261.468242 -45.536364 
L 260.782442 -45.536364 
L 260.096642 -45.536364 
L 259.410842 -45.536364 
L 258.725042 -45.536364 
L 258.039242 -45.536364 
L 257.353442 -45.536364 
L 256.667642 -45.536364 
L 255.981842 -45.536364 
L 255.296042 -45.536364 
L 254.610242 -45.536364 
L 253.924442 -45.536364 
L 253.238641 -45.536364 
L 252.552841 -45.536364 
L 251.867041 -45.536364 
L 251.181241 -45.536364 
L 250.495441 -45.536364 
L 249.809641 -45.536364 
L 249.123841 -45.536364 
L 248.438041 -45.536364 
L 247.752241 -45.536364 
L 247.066441 -45.536364 
L 246.380641 -45.536364 
L 245.694841 -45.536364 
L 245.00904 -45.536364 
L 244.32324 -45.536364 
L 243.63744 -45.536364 
L 242.95164 -45.536364 
L 242.26584 -45.536364 
L 241.58004 -45.536364 
L 240.89424 -45.536364 
L 240.20844 -45.536364 
L 239.52264 -45.536364 
L 238.83684 -45.536364 
L 238.15104 -45.536364 
L 237.46524 -45.536364 
L 236.779439 -45.536364 
L 236.093639 -45.536364 
L 235.407839 -45.536364 
L 234.722039 -45.536364 
L 234.036239 -45.536364 
L 233.350439 -45.536364 
L 232.664639 -45.536364 
L 231.978839 -45.536364 
L 231.293039 -45.536364 
L 230.607239 -45.536364 
L 229.921439 -45.536364 
L 229.235639 -45.536364 
L 228.549838 -45.536364 
L 227.864038 -45.536364 
L 227.178238 -45.536364 
L 226.492438 -45.536364 
L 225.806638 -45.536364 
L 225.120838 -45.536364 
L 224.435038 -45.536364 
L 223.749238 -45.536364 
L 223.063438 -45.536364 
L 222.377638 -45.536364 
L 221.691838 -45.536364 
L 221.006038 -45.536364 
L 220.320237 -45.536364 
L 219.634437 -45.536364 
L 218.948637 -45.536364 
L 218.262837 -45.536364 
L 217.577037 -45.536364 
L 216.891237 -45.536364 
L 216.205437 -45.536364 
L 215.519637 -45.536364 
L 214.833837 -45.536364 
L 214.148037 -45.536364 
L 213.462237 -45.536364 
L 212.776437 -45.536364 
L 212.090636 -45.536364 
L 211.404836 -45.536364 
L 210.719036 -45.536364 
L 210.033236 -45.536364 
L 209.347436 -45.536364 
L 208.661636 -45.536364 
L 207.975836 -45.536364 
L 207.290036 -45.536364 
L 206.604236 -45.536364 
L 205.918436 -45.536364 
L 205.232636 -45.536364 
L 204.546836 -45.536364 
L 203.861035 -45.536364 
L 203.175235 -45.536364 
L 202.489435 -45.536364 
L 201.803635 -45.536364 
L 201.117835 -45.536364 
L 200.432035 -45.536364 
L 199.746235 -45.536364 
L 199.060435 -45.536364 
L 198.374635 -45.536364 
L 197.688835 -45.536364 
L 197.003035 -45.536364 
L 196.317235 -45.536364 
L 195.631434 -45.536364 
L 194.945634 -45.536364 
L 194.259834 -45.536364 
L 193.574034 -45.536364 
L 192.888234 -45.536364 
L 192.202434 -45.536364 
L 191.516634 -45.536364 
L 190.830834 -45.536364 
L 190.145034 -45.536364 
L 189.459234 -45.536364 
L 188.773434 -45.536364 
L 188.087634 -45.536364 
L 187.401834 -45.536364 
L 186.716033 -45.536364 
L 186.030233 -45.536364 
L 185.344433 -45.536364 
L 184.658633 -45.536364 
L 183.972833 -45.536364 
L 183.287033 -45.536364 
L 182.601233 -45.536364 
L 181.915433 -45.536364 
L 181.229633 -45.536364 
L 180.543833 -45.536364 
L 179.858033 -45.536364 
L 179.172233 -45.536364 
L 178.486432 -45.536364 
L 177.800632 -45.536364 
L 177.114832 -45.536364 
L 176.429032 -45.536364 
L 175.743232 -45.536364 
L 175.057432 -45.536364 
L 174.371632 -45.536364 
L 173.685832 -45.536364 
L 173.000032 -45.536364 
L 172.314232 -45.536364 
L 171.628432 -45.536364 
L 170.942632 -45.536364 
L 170.256831 -45.536364 
L 169.571031 -45.536364 
L 168.885231 -45.536364 
L 168.199431 -45.536364 
L 167.513631 -45.536364 
L 166.827831 -45.536364 
L 166.142031 -45.536364 
L 165.456231 -45.536364 
L 164.770431 -45.536364 
L 164.084631 -45.536364 
L 163.398831 -45.536364 
L 162.713031 -45.536364 
L 162.02723 -45.536364 
L 161.34143 -45.536364 
L 160.65563 -45.536364 
L 159.96983 -45.536364 
L 159.28403 -45.536364 
L 158.59823 -45.536364 
L 157.91243 -45.536364 
L 157.22663 -45.536364 
L 156.54083 -45.536364 
L 155.85503 -45.536364 
L 155.16923 -45.536364 
L 154.48343 -45.536364 
L 153.797629 -45.536364 
L 153.111829 -45.536364 
L 152.426029 -45.536364 
L 151.740229 -45.536364 
L 151.054429 -45.536364 
L 150.368629 -45.536364 
L 149.682829 -45.536364 
L 148.997029 -45.536364 
L 148.311229 -45.536364 
L 147.625429 -45.536364 
L 146.939629 -45.536364 
L 146.253829 -45.536364 
L 145.568028 -45.536364 
L 144.882228 -45.536364 
L 144.196428 -45.536364 
L 143.510628 -45.536364 
L 142.824828 -45.536364 
L 142.139028 -45.536364 
L 141.453228 -45.536364 
L 140.767428 -45.536364 
L 140.081628 -45.536364 
L 139.395828 -45.536364 
L 138.710028 -45.536364 
L 138.024228 -45.536364 
L 137.338427 -45.536364 
L 136.652627 -45.536364 
L 135.966827 -45.536364 
L 135.281027 -45.536364 
L 134.595227 -45.536364 
L 133.909427 -45.536364 
L 133.223627 -45.536364 
L 132.537827 -45.536364 
L 131.852027 -45.536364 
L 131.166227 -45.536364 
L 130.480427 -45.536364 
L 129.794627 -45.536364 
L 129.108826 -45.536364 
L 128.423026 -45.536364 
L 127.737226 -45.536364 
L 127.051426 -45.536364 
L 126.365626 -45.536364 
L 125.679826 -45.536364 
L 124.994026 -45.536364 
L 124.308226 -45.536364 
L 123.622426 -45.536364 
L 122.936626 -45.536364 
L 122.250826 -45.536364 
L 121.565026 -45.536364 
L 120.879225 -45.536364 
L 120.193425 -45.536364 
L 119.507625 -45.536364 
L 118.821825 -45.536364 
L 118.136025 -45.536364 
L 117.450225 -45.536364 
L 116.764425 -45.536364 
L 116.078625 -45.536364 
L 115.392825 -45.536364 
L 114.707025 -45.536364 
L 114.021225 -45.536364 
L 113.335425 -45.536364 
L 112.649625 -45.536364 
L 111.963824 -45.536364 
L 111.278024 -45.536364 
L 110.592224 -45.536364 
L 109.906424 -45.536364 
L 109.220624 -45.536364 
L 108.534824 -45.536364 
L 107.849024 -45.536364 
L 107.163224 -45.536364 
L 106.477424 -45.536364 
L 105.791624 -45.536364 
L 105.105824 -45.536364 
L 104.420024 -45.536364 
L 103.734223 -45.536364 
L 103.048423 -45.536364 
L 102.362623 -45.536364 
L 101.676823 -45.536364 
L 100.991023 -45.536364 
L 100.305223 -45.536364 
L 99.619423 -45.536364 
L 98.933623 -45.536364 
L 98.247823 -45.536364 
L 97.562023 -45.536364 
L 96.876223 -45.536364 
L 96.190423 -45.536364 
L 95.504622 -45.536364 
L 94.818822 -45.536364 
L 94.133022 -45.536364 
L 93.447222 -45.536364 
L 92.761422 -45.536364 
L 92.075622 -45.536364 
L 91.389822 -45.536364 
L 90.704022 -45.536364 
L 90.018222 -45.536364 
L 89.332422 -45.536364 
L 88.646622 -45.536364 
L 87.960822 -45.536364 
L 87.275021 -45.536364 
L 86.589221 -45.536364 
L 85.903421 -45.536364 
L 85.217621 -45.536364 
L 84.531821 -45.536364 
L 83.846021 -45.536364 
L 83.160221 -45.536364 
L 82.474421 -45.536364 
L 81.788621 -45.536364 
L 81.102821 -45.536364 
L 80.417021 -45.536364 
L 79.731221 -45.536364 
L 79.04542 -45.536364 
L 78.35962 -45.536364 
L 77.67382 -45.536364 
L 76.98802 -45.536364 
L 76.30222 -45.536364 
L 75.61642 -45.536364 
L 74.93062 -45.536364 
L 74.24482 -45.536364 
L 73.55902 -45.536364 
L 72.87322 -45.536364 
L 72.18742 -45.536364 
L 71.50162 -45.536364 
L 70.815819 -45.536364 
L 70.130019 -45.536364 
L 69.444219 -45.536364 
L 68.758419 -45.536364 
L 68.072619 -45.536364 
L 67.386819 -45.536364 
L 66.701019 -45.536364 
L 66.015219 -45.536364 
L 65.329419 -45.536364 
L 64.643619 -45.536364 
L 63.957819 -45.536364 
L 63.272019 -45.536364 
L 62.586218 -45.536364 
L 61.900418 -45.536364 
L 61.214618 -45.536364 
L 60.528818 -45.536364 
L 59.843018 -45.536364 
L 59.157218 -45.536364 
L 58.471418 -45.536364 
L 57.785618 -45.536364 
z
" style="stroke: #4c78a8; stroke-opacity: 0.15"/>
    </defs>
    <g clip-path="url(#pda5837d9a4)">
     <use xlink:href="#mbb2b933ca9" x="0" y="223.158281" style="fill: #4c78a8; fill-opacity: 0.15; stroke: #4c78a8; stroke-opacity: 0.15"/>
    </g>
   </g>
   <g id="matplotlib.axis_1">
    <g id="xtick_1">
     <g id="line2d_1">
      <path d="M 71.389576 184.958281 
L 71.389576 23.558281 
" clip-path="url(#pda5837d9a4)" style="fill: none; stroke: #b0b0b0; stroke-opacity: 0.25; stroke-width: 0.6; stroke-linecap: square"/>
     </g>
     <g id="line2d_2">
      <defs>
       <path id="m01833a70dc" d="M 0 0 
L 0 3.5 
" style="stroke: #000000; stroke-width: 0.8"/>
      </defs>
      <g>
       <use xlink:href="#m01833a70dc" x="71.389576" y="184.958281" style="stroke: #000000; stroke-width: 0.8"/>
      </g>
     </g>
     <g id="text_1">
      <!-- 0.25 -->
      <g transform="translate(60.256764 199.555938) scale(0.1 -0.1)">
       <defs>
        <path id="DejaVuSans-13" d="M 2034 4250 
Q 1547 4250 1301 3770 
Q 1056 3291 1056 2328 
Q 1056 1369 1301 889 
Q 1547 409 2034 409 
Q 2525 409 2770 889 
Q 3016 1369 3016 2328 
Q 3016 3291 2770 3770 
Q 2525 4250 2034 4250 
z
M 2034 4750 
Q 2819 4750 3233 4129 
Q 3647 3509 3647 2328 
Q 3647 1150 3233 529 
Q 2819 -91 2034 -91 
Q 1250 -91 836 529 
Q 422 1150 422 2328 
Q 422 3509 836 4129 
Q 1250 4750 2034 4750 
z
" transform="scale(0.015625)"/>
        <path id="DejaVuSans-11" d="M 684 794 
L 1344 794 
L 1344 0 
L 684 0 
L 684 794 
z
" transform="scale(0.015625)"/>
        <path id="DejaVuSans-15" d="M 1228 531 
L 3431 531 
L 3431 0 
L 469 0 
L 469 531 
Q 828 903 1448 1529 
Q 2069 2156 2228 2338 
Q 2531 2678 2651 2914 
Q 2772 3150 2772 3378 
Q 2772 3750 2511 3984 
Q 2250 4219 1831 4219 
Q 1534 4219 1204 4116 
Q 875 4013 500 3803 
L 500 4441 
Q 881 4594 1212 4672 
Q 1544 4750 1819 4750 
Q 2544 4750 2975 4387 
Q 3406 4025 3406 3419 
Q 3406 3131 3298 2873 
Q 3191 2616 2906 2266 
Q 2828 2175 2409 1742 
Q 1991 1309 1228 531 
z
" transform="scale(0.015625)"/>
        <path id="DejaVuSans-18" d="M 691 4666 
L 3169 4666 
L 3169 4134 
L 1269 4134 
L 1269 2991 
Q 1406 3038 1543 3061 
Q 1681 3084 1819 3084 
Q 2600 3084 3056 2656 
Q 3513 2228 3513 1497 
Q 3513 744 3044 326 
Q 2575 -91 1722 -91 
Q 1428 -91 1123 -41 
Q 819 9 494 109 
L 494 744 
Q 775 591 1075 516 
Q 1375 441 1709 441 
Q 2250 441 2565 725 
Q 2881 1009 2881 1497 
Q 2881 1984 2565 2268 
Q 2250 2553 1709 2553 
Q 1456 2553 1204 2497 
Q 953 2441 691 2322 
L 691 4666 
z
" transform="scale(0.015625)"/>
       </defs>
       <use xlink:href="#DejaVuSans-13"/>
       <use xlink:href="#DejaVuSans-11" transform="translate(63.625 0)"/>
       <use xlink:href="#DejaVuSans-15" transform="translate(95.40625 0)"/>
       <use xlink:href="#DejaVuSans-18" transform="translate(159.03125 0)"/>
      </g>
     </g>
    </g>
    <g id="xtick_2">
     <g id="line2d_3">
      <path d="M 105.628372 184.958281 
L 105.628372 23.558281 
" clip-path="url(#pda5837d9a4)" style="fill: none; stroke: #b0b0b0; stroke-opacity: 0.25; stroke-width: 0.6; stroke-linecap: square"/>
     </g>
     <g id="line2d_4">
      <g>
       <use xlink:href="#m01833a70dc" x="105.628372" y="184.958281" style="stroke: #000000; stroke-width: 0.8"/>
      </g>
     </g>
     <g id="text_2">
      <!-- 0.50 -->
      <g transform="translate(94.49556 199.555938) scale(0.1 -0.1)">
       <use xlink:href="#DejaVuSans-13"/>
       <use xlink:href="#DejaVuSans-11" transform="translate(63.625 0)"/>
       <use xlink:href="#DejaVuSans-18" transform="translate(95.40625 0)"/>
       <use xlink:href="#DejaVuSans-13" transform="translate(159.03125 0)"/>
      </g>
     </g>
    </g>
    <g id="xtick_3">
     <g id="line2d_5">
      <path d="M 139.867168 184.958281 
L 139.867168 23.558281 
" clip-path="url(#pda5837d9a4)" style="fill: none; stroke: #b0b0b0; stroke-opacity: 0.25; stroke-width: 0.6; stroke-linecap: square"/>
     </g>
     <g id="line2d_6">
      <g>
       <use xlink:href="#m01833a70dc" x="139.867168" y="184.958281" style="stroke: #000000; stroke-width: 0.8"/>
      </g>
     </g>
     <g id="text_3">
      <!-- 0.75 -->
      <g transform="translate(128.734355 199.555938) scale(0.1 -0.1)">
       <defs>
        <path id="DejaVuSans-1a" d="M 525 4666 
L 3525 4666 
L 3525 4397 
L 1831 0 
L 1172 0 
L 2766 4134 
L 525 4134 
L 525 4666 
z
" transform="scale(0.015625)"/>
       </defs>
       <use xlink:href="#DejaVuSans-13"/>
       <use xlink:href="#DejaVuSans-11" transform="translate(63.625 0)"/>
       <use xlink:href="#DejaVuSans-1a" transform="translate(95.40625 0)"/>
       <use xlink:href="#DejaVuSans-18" transform="translate(159.03125 0)"/>
      </g>
     </g>
    </g>
    <g id="xtick_4">
     <g id="line2d_7">
      <path d="M 174.105964 184.958281 
L 174.105964 23.558281 
" clip-path="url(#pda5837d9a4)" style="fill: none; stroke: #b0b0b0; stroke-opacity: 0.25; stroke-width: 0.6; stroke-linecap: square"/>
     </g>
     <g id="line2d_8">
      <g>
       <use xlink:href="#m01833a70dc" x="174.105964" y="184.958281" style="stroke: #000000; stroke-width: 0.8"/>
      </g>
     </g>
     <g id="text_4">
      <!-- 1.00 -->
      <g transform="translate(162.973151 199.555938) scale(0.1 -0.1)">
       <defs>
        <path id="DejaVuSans-14" d="M 794 531 
L 1825 531 
L 1825 4091 
L 703 3866 
L 703 4441 
L 1819 4666 
L 2450 4666 
L 2450 531 
L 3481 531 
L 3481 0 
L 794 0 
L 794 531 
z
" transform="scale(0.015625)"/>
       </defs>
       <use xlink:href="#DejaVuSans-14"/>
       <use xlink:href="#DejaVuSans-11" transform="translate(63.625 0)"/>
       <use xlink:href="#DejaVuSans-13" transform="translate(95.40625 0)"/>
       <use xlink:href="#DejaVuSans-13" transform="translate(159.03125 0)"/>
      </g>
     </g>
    </g>
    <g id="xtick_5">
     <g id="line2d_9">
      <path d="M 208.344759 184.958281 
L 208.344759 23.558281 
" clip-path="url(#pda5837d9a4)" style="fill: none; stroke: #b0b0b0; stroke-opacity: 0.25; stroke-width: 0.6; stroke-linecap: square"/>
     </g>
     <g id="line2d_10">
      <g>
       <use xlink:href="#m01833a70dc" x="208.344759" y="184.958281" style="stroke: #000000; stroke-width: 0.8"/>
      </g>
     </g>
     <g id="text_5">
      <!-- 1.25 -->
      <g transform="translate(197.211947 199.555938) scale(0.1 -0.1)">
       <use xlink:href="#DejaVuSans-14"/>
       <use xlink:href="#DejaVuSans-11" transform="translate(63.625 0)"/>
       <use xlink:href="#DejaVuSans-15" transform="translate(95.40625 0)"/>
       <use xlink:href="#DejaVuSans-18" transform="translate(159.03125 0)"/>
      </g>
     </g>
    </g>
    <g id="xtick_6">
     <g id="line2d_11">
      <path d="M 242.583555 184.958281 
L 242.583555 23.558281 
" clip-path="url(#pda5837d9a4)" style="fill: none; stroke: #b0b0b0; stroke-opacity: 0.25; stroke-width: 0.6; stroke-linecap: square"/>
     </g>
     <g id="line2d_12">
      <g>
       <use xlink:href="#m01833a70dc" x="242.583555" y="184.958281" style="stroke: #000000; stroke-width: 0.8"/>
      </g>
     </g>
     <g id="text_6">
      <!-- 1.50 -->
      <g transform="translate(231.450743 199.555938) scale(0.1 -0.1)">
       <use xlink:href="#DejaVuSans-14"/>
       <use xlink:href="#DejaVuSans-11" transform="translate(63.625 0)"/>
       <use xlink:href="#DejaVuSans-18" transform="translate(95.40625 0)"/>
       <use xlink:href="#DejaVuSans-13" transform="translate(159.03125 0)"/>
      </g>
     </g>
    </g>
    <g id="xtick_7">
     <g id="line2d_13">
      <path d="M 276.822351 184.958281 
L 276.822351 23.558281 
" clip-path="url(#pda5837d9a4)" style="fill: none; stroke: #b0b0b0; stroke-opacity: 0.25; stroke-width: 0.6; stroke-linecap: square"/>
     </g>
     <g id="line2d_14">
      <g>
       <use xlink:href="#m01833a70dc" x="276.822351" y="184.958281" style="stroke: #000000; stroke-width: 0.8"/>
      </g>
     </g>
     <g id="text_7">
      <!-- 1.75 -->
      <g transform="translate(265.689539 199.555938) scale(0.1 -0.1)">
       <use xlink:href="#DejaVuSans-14"/>
       <use xlink:href="#DejaVuSans-11" transform="translate(63.625 0)"/>
       <use xlink:href="#DejaVuSans-1a" transform="translate(95.40625 0)"/>
       <use xlink:href="#DejaVuSans-18" transform="translate(159.03125 0)"/>
      </g>
     </g>
    </g>
    <g id="xtick_8">
     <g id="line2d_15">
      <path d="M 311.061147 184.958281 
L 311.061147 23.558281 
" clip-path="url(#pda5837d9a4)" style="fill: none; stroke: #b0b0b0; stroke-opacity: 0.25; stroke-width: 0.6; stroke-linecap: square"/>
     </g>
     <g id="line2d_16">
      <g>
       <use xlink:href="#m01833a70dc" x="311.061147" y="184.958281" style="stroke: #000000; stroke-width: 0.8"/>
      </g>
     </g>
     <g id="text_8">
      <!-- 2.00 -->
      <g transform="translate(299.928334 199.555938) scale(0.1 -0.1)">
       <use xlink:href="#DejaVuSans-15"/>
       <use xlink:href="#DejaVuSans-11" transform="translate(63.625 0)"/>
       <use xlink:href="#DejaVuSans-13" transform="translate(95.40625 0)"/>
       <use xlink:href="#DejaVuSans-13" transform="translate(159.03125 0)"/>
      </g>
     </g>
    </g>
    <g id="text_9">
     <!-- x -->
     <g transform="translate(191.643359 213.555938) scale(0.1 -0.1)">
      <defs>
       <path id="DejaVuSans-5b" d="M 3513 3500 
L 2247 1797 
L 3578 0 
L 2900 0 
L 1881 1375 
L 863 0 
L 184 0 
L 1544 1831 
L 300 3500 
L 978 3500 
L 1906 2253 
L 2834 3500 
L 3513 3500 
z
" transform="scale(0.015625)"/>
      </defs>
      <use xlink:href="#DejaVuSans-5b"/>
     </g>
    </g>
   </g>
   <g id="matplotlib.axis_2">
    <g id="ytick_1">
     <g id="line2d_17">
      <path d="M 44.103906 177.621918 
L 345.101562 177.621918 
" clip-path="url(#pda5837d9a4)" style="fill: none; stroke: #b0b0b0; stroke-opacity: 0.25; stroke-width: 0.6; stroke-linecap: square"/>
     </g>
     <g id="line2d_18">
      <defs>
       <path id="m7fa8bace69" d="M 0 0 
L -3.5 0 
" style="stroke: #000000; stroke-width: 0.8"/>
      </defs>
      <g>
       <use xlink:href="#m7fa8bace69" x="44.103906" y="177.621918" style="stroke: #000000; stroke-width: 0.8"/>
      </g>
     </g>
     <g id="text_10">
      <!-- 0.0 -->
      <g transform="translate(21.200781 181.420746) scale(0.1 -0.1)">
       <use xlink:href="#DejaVuSans-13"/>
       <use xlink:href="#DejaVuSans-11" transform="translate(63.625 0)"/>
       <use xlink:href="#DejaVuSans-13" transform="translate(95.40625 0)"/>
      </g>
     </g>
    </g>
    <g id="ytick_2">
     <g id="line2d_19">
      <path d="M 44.103906 152.311369 
L 345.101562 152.311369 
" clip-path="url(#pda5837d9a4)" style="fill: none; stroke: #b0b0b0; stroke-opacity: 0.25; stroke-width: 0.6; stroke-linecap: square"/>
     </g>
     <g id="line2d_20">
      <g>
       <use xlink:href="#m7fa8bace69" x="44.103906" y="152.311369" style="stroke: #000000; stroke-width: 0.8"/>
      </g>
     </g>
     <g id="text_11">
      <!-- 0.2 -->
      <g transform="translate(21.200781 156.110197) scale(0.1 -0.1)">
       <use xlink:href="#DejaVuSans-13"/>
       <use xlink:href="#DejaVuSans-11" transform="translate(63.625 0)"/>
       <use xlink:href="#DejaVuSans-15" transform="translate(95.40625 0)"/>
      </g>
     </g>
    </g>
    <g id="ytick_3">
     <g id="line2d_21">
      <path d="M 44.103906 127.00082 
L 345.101562 127.00082 
" clip-path="url(#pda5837d9a4)" style="fill: none; stroke: #b0b0b0; stroke-opacity: 0.25; stroke-width: 0.6; stroke-linecap: square"/>
     </g>
     <g id="line2d_22">
      <g>
       <use xlink:href="#m7fa8bace69" x="44.103906" y="127.00082" style="stroke: #000000; stroke-width: 0.8"/>
      </g>
     </g>
     <g id="text_12">
      <!-- 0.4 -->
      <g transform="translate(21.200781 130.799648) scale(0.1 -0.1)">
       <defs>
        <path id="DejaVuSans-17" d="M 2419 4116 
L 825 1625 
L 2419 1625 
L 2419 4116 
z
M 2253 4666 
L 3047 4666 
L 3047 1625 
L 3713 1625 
L 3713 1100 
L 3047 1100 
L 3047 0 
L 2419 0 
L 2419 1100 
L 313 1100 
L 313 1709 
L 2253 4666 
z
" transform="scale(0.015625)"/>
       </defs>
       <use xlink:href="#DejaVuSans-13"/>
       <use xlink:href="#DejaVuSans-11" transform="translate(63.625 0)"/>
       <use xlink:href="#DejaVuSans-17" transform="translate(95.40625 0)"/>
      </g>
     </g>
    </g>
    <g id="ytick_4">
     <g id="line2d_23">
      <path d="M 44.103906 101.690271 
L 345.101562 101.690271 
" clip-path="url(#pda5837d9a4)" style="fill: none; stroke: #b0b0b0; stroke-opacity: 0.25; stroke-width: 0.6; stroke-linecap: square"/>
     </g>
     <g id="line2d_24">
      <g>
       <use xlink:href="#m7fa8bace69" x="44.103906" y="101.690271" style="stroke: #000000; stroke-width: 0.8"/>
      </g>
     </g>
     <g id="text_13">
      <!-- 0.6 -->
      <g transform="translate(21.200781 105.489099) scale(0.1 -0.1)">
       <defs>
        <path id="DejaVuSans-19" d="M 2113 2584 
Q 1688 2584 1439 2293 
Q 1191 2003 1191 1497 
Q 1191 994 1439 701 
Q 1688 409 2113 409 
Q 2538 409 2786 701 
Q 3034 994 3034 1497 
Q 3034 2003 2786 2293 
Q 2538 2584 2113 2584 
z
M 3366 4563 
L 3366 3988 
Q 3128 4100 2886 4159 
Q 2644 4219 2406 4219 
Q 1781 4219 1451 3797 
Q 1122 3375 1075 2522 
Q 1259 2794 1537 2939 
Q 1816 3084 2150 3084 
Q 2853 3084 3261 2657 
Q 3669 2231 3669 1497 
Q 3669 778 3244 343 
Q 2819 -91 2113 -91 
Q 1303 -91 875 529 
Q 447 1150 447 2328 
Q 447 3434 972 4092 
Q 1497 4750 2381 4750 
Q 2619 4750 2861 4703 
Q 3103 4656 3366 4563 
z
" transform="scale(0.015625)"/>
       </defs>
       <use xlink:href="#DejaVuSans-13"/>
       <use xlink:href="#DejaVuSans-11" transform="translate(63.625 0)"/>
       <use xlink:href="#DejaVuSans-19" transform="translate(95.40625 0)"/>
      </g>
     </g>
    </g>
    <g id="ytick_5">
     <g id="line2d_25">
      <path d="M 44.103906 76.379722 
L 345.101562 76.379722 
" clip-path="url(#pda5837d9a4)" style="fill: none; stroke: #b0b0b0; stroke-opacity: 0.25; stroke-width: 0.6; stroke-linecap: square"/>
     </g>
     <g id="line2d_26">
      <g>
       <use xlink:href="#m7fa8bace69" x="44.103906" y="76.379722" style="stroke: #000000; stroke-width: 0.8"/>
      </g>
     </g>
     <g id="text_14">
      <!-- 0.8 -->
      <g transform="translate(21.200781 80.17855) scale(0.1 -0.1)">
       <defs>
        <path id="DejaVuSans-1b" d="M 2034 2216 
Q 1584 2216 1326 1975 
Q 1069 1734 1069 1313 
Q 1069 891 1326 650 
Q 1584 409 2034 409 
Q 2484 409 2743 651 
Q 3003 894 3003 1313 
Q 3003 1734 2745 1975 
Q 2488 2216 2034 2216 
z
M 1403 2484 
Q 997 2584 770 2862 
Q 544 3141 544 3541 
Q 544 4100 942 4425 
Q 1341 4750 2034 4750 
Q 2731 4750 3128 4425 
Q 3525 4100 3525 3541 
Q 3525 3141 3298 2862 
Q 3072 2584 2669 2484 
Q 3125 2378 3379 2068 
Q 3634 1759 3634 1313 
Q 3634 634 3220 271 
Q 2806 -91 2034 -91 
Q 1263 -91 848 271 
Q 434 634 434 1313 
Q 434 1759 690 2068 
Q 947 2378 1403 2484 
z
M 1172 3481 
Q 1172 3119 1398 2916 
Q 1625 2713 2034 2713 
Q 2441 2713 2670 2916 
Q 2900 3119 2900 3481 
Q 2900 3844 2670 4047 
Q 2441 4250 2034 4250 
Q 1625 4250 1398 4047 
Q 1172 3844 1172 3481 
z
" transform="scale(0.015625)"/>
       </defs>
       <use xlink:href="#DejaVuSans-13"/>
       <use xlink:href="#DejaVuSans-11" transform="translate(63.625 0)"/>
       <use xlink:href="#DejaVuSans-1b" transform="translate(95.40625 0)"/>
      </g>
     </g>
    </g>
    <g id="ytick_6">
     <g id="line2d_27">
      <path d="M 44.103906 51.069173 
L 345.101562 51.069173 
" clip-path="url(#pda5837d9a4)" style="fill: none; stroke: #b0b0b0; stroke-opacity: 0.25; stroke-width: 0.6; stroke-linecap: square"/>
     </g>
     <g id="line2d_28">
      <g>
       <use xlink:href="#m7fa8bace69" x="44.103906" y="51.069173" style="stroke: #000000; stroke-width: 0.8"/>
      </g>
     </g>
     <g id="text_15">
      <!-- 1.0 -->
      <g transform="translate(21.200781 54.868001) scale(0.1 -0.1)">
       <use xlink:href="#DejaVuSans-14"/>
       <use xlink:href="#DejaVuSans-11" transform="translate(63.625 0)"/>
       <use xlink:href="#DejaVuSans-13" transform="translate(95.40625 0)"/>
      </g>
     </g>
    </g>
    <g id="ytick_7">
     <g id="line2d_29">
      <path d="M 44.103906 25.758624 
L 345.101562 25.758624 
" clip-path="url(#pda5837d9a4)" style="fill: none; stroke: #b0b0b0; stroke-opacity: 0.25; stroke-width: 0.6; stroke-linecap: square"/>
     </g>
     <g id="line2d_30">
      <g>
       <use xlink:href="#m7fa8bace69" x="44.103906" y="25.758624" style="stroke: #000000; stroke-width: 0.8"/>
      </g>
     </g>
     <g id="text_16">
      <!-- 1.2 -->
      <g transform="translate(21.200781 29.557452) scale(0.1 -0.1)">
       <use xlink:href="#DejaVuSans-14"/>
       <use xlink:href="#DejaVuSans-11" transform="translate(63.625 0)"/>
       <use xlink:href="#DejaVuSans-15" transform="translate(95.40625 0)"/>
      </g>
     </g>
    </g>
    <g id="text_17">
     <!-- f(x) -->
     <g transform="translate(14.798438 112.879375) rotate(-90) scale(0.1 -0.1)">
      <defs>
       <path id="DejaVuSans-49" d="M 2375 4863 
L 2375 4384 
L 1825 4384 
Q 1516 4384 1395 4259 
Q 1275 4134 1275 3809 
L 1275 3500 
L 2222 3500 
L 2222 3053 
L 1275 3053 
L 1275 0 
L 697 0 
L 697 3053 
L 147 3053 
L 147 3500 
L 697 3500 
L 697 3744 
Q 697 4328 969 4595 
Q 1241 4863 1831 4863 
L 2375 4863 
z
" transform="scale(0.015625)"/>
       <path id="DejaVuSans-b" d="M 1984 4856 
Q 1566 4138 1362 3434 
Q 1159 2731 1159 2009 
Q 1159 1288 1364 580 
Q 1569 -128 1984 -844 
L 1484 -844 
Q 1016 -109 783 600 
Q 550 1309 550 2009 
Q 550 2706 781 3412 
Q 1013 4119 1484 4856 
L 1984 4856 
z
" transform="scale(0.015625)"/>
       <path id="DejaVuSans-c" d="M 513 4856 
L 1013 4856 
Q 1481 4119 1714 3412 
Q 1947 2706 1947 2009 
Q 1947 1309 1714 600 
Q 1481 -109 1013 -844 
L 513 -844 
Q 928 -128 1133 580 
Q 1338 1288 1338 2009 
Q 1338 2731 1133 3434 
Q 928 4138 513 4856 
z
" transform="scale(0.015625)"/>
      </defs>
      <use xlink:href="#DejaVuSans-49"/>
      <use xlink:href="#DejaVuSans-b" transform="translate(35.203125 0)"/>
      <use xlink:href="#DejaVuSans-5b" transform="translate(74.21875 0)"/>
      <use xlink:href="#DejaVuSans-c" transform="translate(133.40625 0)"/>
     </g>
    </g>
   </g>
   <g id="line2d_31">
    <path d="M 57.785618 174.312806 
L 60.528818 172.871395 
L 62.586218 171.568729 
L 64.643619 170.066081 
L 67.386819 167.739457 
L 70.130019 165.033188 
L 72.87322 161.94156 
L 75.61642 158.464929 
L 78.35962 154.609711 
L 81.102821 150.388257 
L 84.531821 144.624508 
L 87.960822 138.364396 
L 91.389822 131.667269 
L 95.504622 123.153173 
L 100.991023 111.220501 
L 116.764425 76.447141 
L 120.879225 68.073987 
L 124.308226 61.540287 
L 127.737226 55.493813 
L 130.480427 51.054625 
L 133.223627 47.003525 
L 135.966827 43.367817 
L 138.710028 40.170452 
L 140.767428 38.071366 
L 142.824828 36.23542 
L 144.882228 34.667257 
L 146.939629 33.370064 
L 148.997029 32.345596 
L 151.054429 31.5942 
L 153.111829 31.11485 
L 155.16923 30.905191 
L 157.22663 30.961596 
L 159.28403 31.279223 
L 161.34143 31.852087 
L 163.398831 32.673127 
L 165.456231 33.734292 
L 167.513631 35.026617 
L 169.571031 36.540314 
L 172.314232 38.884644 
L 175.057432 41.577039 
L 177.800632 44.589139 
L 180.543833 47.891305 
L 183.972833 52.380327 
L 187.401834 57.214056 
L 191.516634 63.383649 
L 197.003035 72.066055 
L 205.232636 85.595253 
L 214.833837 101.316147 
L 221.006038 110.985526 
L 225.806638 118.126652 
L 230.607239 124.865534 
L 234.722039 130.286439 
L 238.83684 135.35845 
L 242.95164 140.069932 
L 247.066441 144.416297 
L 251.181241 148.399144 
L 255.296042 152.025365 
L 259.410842 155.306258 
L 263.525643 158.256664 
L 267.640443 160.89415 
L 271.755244 163.23826 
L 275.870044 165.309831 
L 279.984845 167.130391 
L 284.099645 168.721642 
L 288.900246 170.316855 
L 293.700846 171.662056 
L 298.501447 172.788462 
L 303.987848 173.845054 
L 310.160048 174.786452 
L 317.018049 175.583161 
L 324.56185 176.222824 
L 331.419851 176.640533 
L 331.419851 176.640533 
" clip-path="url(#pda5837d9a4)" style="fill: none; stroke: #4c78a8; stroke-width: 2; stroke-linecap: square"/>
   </g>
   <g id="patch_3">
    <path d="M 44.103906 184.958281 
L 44.103906 23.558281 
" style="fill: none; stroke: #000000; stroke-width: 0.8; stroke-linejoin: miter; stroke-linecap: square"/>
   </g>
   <g id="patch_4">
    <path d="M 44.103906 184.958281 
L 345.101562 184.958281 
" style="fill: none; stroke: #000000; stroke-width: 0.8; stroke-linejoin: miter; stroke-linecap: square"/>
   </g>
   <g id="text_18">
    <!-- Nakagami -->
    <g transform="translate(166.911094 15.558281) scale(0.11 -0.11)">
     <defs>
      <path id="DejaVuSans-31" d="M 628 4666 
L 1478 4666 
L 3547 763 
L 3547 4666 
L 4159 4666 
L 4159 0 
L 3309 0 
L 1241 3903 
L 1241 0 
L 628 0 
L 628 4666 
z
" transform="scale(0.015625)"/>
      <path id="DejaVuSans-44" d="M 2194 1759 
Q 1497 1759 1228 1600 
Q 959 1441 959 1056 
Q 959 750 1161 570 
Q 1363 391 1709 391 
Q 2188 391 2477 730 
Q 2766 1069 2766 1631 
L 2766 1759 
L 2194 1759 
z
M 3341 1997 
L 3341 0 
L 2766 0 
L 2766 531 
Q 2569 213 2275 61 
Q 1981 -91 1556 -91 
Q 1019 -91 701 211 
Q 384 513 384 1019 
Q 384 1609 779 1909 
Q 1175 2209 1959 2209 
L 2766 2209 
L 2766 2266 
Q 2766 2663 2505 2880 
Q 2244 3097 1772 3097 
Q 1472 3097 1187 3025 
Q 903 2953 641 2809 
L 641 3341 
Q 956 3463 1253 3523 
Q 1550 3584 1831 3584 
Q 2591 3584 2966 3190 
Q 3341 2797 3341 1997 
z
" transform="scale(0.015625)"/>
      <path id="DejaVuSans-4e" d="M 581 4863 
L 1159 4863 
L 1159 1991 
L 2875 3500 
L 3609 3500 
L 1753 1863 
L 3688 0 
L 2938 0 
L 1159 1709 
L 1159 0 
L 581 0 
L 581 4863 
z
" transform="scale(0.015625)"/>
      <path id="DejaVuSans-4a" d="M 2906 1791 
Q 2906 2416 2648 2759 
Q 2391 3103 1925 3103 
Q 1463 3103 1205 2759 
Q 947 2416 947 1791 
Q 947 1169 1205 825 
Q 1463 481 1925 481 
Q 2391 481 2648 825 
Q 2906 1169 2906 1791 
z
M 3481 434 
Q 3481 -459 3084 -895 
Q 2688 -1331 1869 -1331 
Q 1566 -1331 1297 -1286 
Q 1028 -1241 775 -1147 
L 775 -588 
Q 1028 -725 1275 -790 
Q 1522 -856 1778 -856 
Q 2344 -856 2625 -561 
Q 2906 -266 2906 331 
L 2906 616 
Q 2728 306 2450 153 
Q 2172 0 1784 0 
Q 1141 0 747 490 
Q 353 981 353 1791 
Q 353 2603 747 3093 
Q 1141 3584 1784 3584 
Q 2172 3584 2450 3431 
Q 2728 3278 2906 2969 
L 2906 3500 
L 3481 3500 
L 3481 434 
z
" transform="scale(0.015625)"/>
      <path id="DejaVuSans-50" d="M 3328 2828 
Q 3544 3216 3844 3400 
Q 4144 3584 4550 3584 
Q 5097 3584 5394 3201 
Q 5691 2819 5691 2113 
L 5691 0 
L 5113 0 
L 5113 2094 
Q 5113 2597 4934 2840 
Q 4756 3084 4391 3084 
Q 3944 3084 3684 2787 
Q 3425 2491 3425 1978 
L 3425 0 
L 2847 0 
L 2847 2094 
Q 2847 2600 2669 2842 
Q 2491 3084 2119 3084 
Q 1678 3084 1418 2786 
Q 1159 2488 1159 1978 
L 1159 0 
L 581 0 
L 581 3500 
L 1159 3500 
L 1159 2956 
Q 1356 3278 1631 3431 
Q 1906 3584 2284 3584 
Q 2666 3584 2933 3390 
Q 3200 3197 3328 2828 
z
" transform="scale(0.015625)"/>
      <path id="DejaVuSans-4c" d="M 603 3500 
L 1178 3500 
L 1178 0 
L 603 0 
L 603 3500 
z
M 603 4863 
L 1178 4863 
L 1178 4134 
L 603 4134 
L 603 4863 
z
" transform="scale(0.015625)"/>
     </defs>
     <use xlink:href="#DejaVuSans-31"/>
     <use xlink:href="#DejaVuSans-44" transform="translate(74.8125 0)"/>
     <use xlink:href="#DejaVuSans-4e" transform="translate(136.09375 0)"/>
     <use xlink:href="#DejaVuSans-44" transform="translate(192.25 0)"/>
     <use xlink:href="#DejaVuSans-4a" transform="translate(253.53125 0)"/>
     <use xlink:href="#DejaVuSans-44" transform="translate(317.015625 0)"/>
     <use xlink:href="#DejaVuSans-50" transform="translate(378.296875 0)"/>
     <use xlink:href="#DejaVuSans-4c" transform="translate(475.703125 0)"/>
    </g>
   </g>
  </g>
 </g>
 <defs>
  <clipPath id="pda5837d9a4">
   <rect x="44.103906" y="23.558281" width="300.997656" height="161.4"/>
  </clipPath>
 </defs>
</svg>
