<?xml version="1.0" encoding="utf-8" standalone="no"?>
<!DOCTYPE svg PUBLIC "-//W3C//DTD SVG 1.1//EN"
  "http://www.w3.org/Graphics/SVG/1.1/DTD/svg11.dtd">
<svg xmlns:xlink="http://www.w3.org/1999/xlink" width="352.301562pt" height="223.158281pt" viewBox="0 0 352.301562 223.158281" xmlns="http://www.w3.org/2000/svg" version="1.1">
 <metadata>
  <rdf:RDF xmlns:dc="http://purl.org/dc/elements/1.1/" xmlns:cc="http://creativecommons.org/ns#" xmlns:rdf="http://www.w3.org/1999/02/22-rdf-syntax-ns#">
   <cc:Work>
    <dc:type rdf:resource="http://purl.org/dc/dcmitype/StillImage"/>
    <dc:date>2026-07-05T02:24:32.259672</dc:date>
    <dc:format>image/svg+xml</dc:format>
    <dc:creator>
     <cc:Agent>
      <dc:title>Matplotlib v3.11.0, https://matplotlib.org/</dc:title>
     </cc:Agent>
    </dc:creator>
   </cc:Work>
  </rdf:RDF>
 </metadata>
 <defs>
  <style type="text/css">*{stroke-linejoin: round; stroke-linecap: butt}</style>
 </defs>
 <g id="figure_1">
  <g id="patch_1">
   <path d="M 0 223.158281 
L 352.301562 223.158281 
L 352.301562 0 
L 0 0 
z
" style="fill: #ffffff"/>
  </g>
  <g id="axes_1">
   <g id="patch_2">
    <path d="M 44.103906 184.958281 
L 345.101562 184.958281 
L 345.101562 23.558281 
L 44.103906 23.558281 
z
" style="fill: #ffffff"/>
   </g>
   <g id="FillBetweenPolyCollection_1">
    <defs>
     <path id="m439d6ef4f4" d="M 57.785618 -45.536364 
L 57.785618 -46.774785 
L 58.471418 -46.835351 
L 59.157218 -46.898552 
L 59.843018 -46.964485 
L 60.528818 -47.033251 
L 61.214618 -47.104951 
L 61.900418 -47.179691 
L 62.586218 -47.257579 
L 63.272019 -47.338727 
L 63.957819 -47.423247 
L 64.643619 -47.511257 
L 65.329419 -47.602876 
L 66.015219 -47.698227 
L 66.701019 -47.797435 
L 67.386819 -47.900628 
L 68.072619 -48.007937 
L 68.758419 -48.119498 
L 69.444219 -48.235446 
L 70.130019 -48.355922 
L 70.815819 -48.481069 
L 71.50162 -48.611033 
L 72.18742 -48.745963 
L 72.87322 -48.88601 
L 73.55902 -49.031329 
L 74.24482 -49.182078 
L 74.93062 -49.338417 
L 75.61642 -49.500509 
L 76.30222 -49.668519 
L 76.98802 -49.842617 
L 77.67382 -50.022974 
L 78.35962 -50.209763 
L 79.04542 -50.40316 
L 79.731221 -50.603345 
L 80.417021 -50.810499 
L 81.102821 -51.024804 
L 81.788621 -51.246447 
L 82.474421 -51.475616 
L 83.160221 -51.7125 
L 83.846021 -51.957292 
L 84.531821 -52.210184 
L 85.217621 -52.471372 
L 85.903421 -52.741054 
L 86.589221 -53.019427 
L 87.275021 -53.306691 
L 87.960822 -53.603047 
L 88.646622 -53.908696 
L 89.332422 -54.223842 
L 90.018222 -54.548689 
L 90.704022 -54.883438 
L 91.389822 -55.228296 
L 92.075622 -55.583467 
L 92.761422 -55.949154 
L 93.447222 -56.325562 
L 94.133022 -56.712895 
L 94.818822 -57.111356 
L 95.504622 -57.521146 
L 96.190423 -57.942467 
L 96.876223 -58.375519 
L 97.562023 -58.820499 
L 98.247823 -59.277604 
L 98.933623 -59.747028 
L 99.619423 -60.228962 
L 100.305223 -60.723596 
L 100.991023 -61.231116 
L 101.676823 -61.751705 
L 102.362623 -62.285543 
L 103.048423 -62.832804 
L 103.734223 -63.393662 
L 104.420024 -63.968284 
L 105.105824 -64.556831 
L 105.791624 -65.159463 
L 106.477424 -65.77633 
L 107.163224 -66.407582 
L 107.849024 -67.053357 
L 108.534824 -67.713792 
L 109.220624 -68.389014 
L 109.906424 -69.079145 
L 110.592224 -69.784298 
L 111.278024 -70.504581 
L 111.963824 -71.240092 
L 112.649625 -71.99092 
L 113.335425 -72.75715 
L 114.021225 -73.538852 
L 114.707025 -74.336092 
L 115.392825 -75.148924 
L 116.078625 -75.977392 
L 116.764425 -76.821531 
L 117.450225 -77.681364 
L 118.136025 -78.556905 
L 118.821825 -79.448155 
L 119.507625 -80.355106 
L 120.193425 -81.277735 
L 120.879225 -82.216011 
L 121.565026 -83.169888 
L 122.250826 -84.139307 
L 122.936626 -85.124199 
L 123.622426 -86.124478 
L 124.308226 -87.140049 
L 124.994026 -88.170799 
L 125.679826 -89.216605 
L 126.365626 -90.277329 
L 127.051426 -91.352816 
L 127.737226 -92.4429 
L 128.423026 -93.547399 
L 129.108826 -94.666115 
L 129.794627 -95.798838 
L 130.480427 -96.94534 
L 131.166227 -98.10538 
L 131.852027 -99.2787 
L 132.537827 -100.465026 
L 133.223627 -101.664071 
L 133.909427 -102.875531 
L 134.595227 -104.099086 
L 135.281027 -105.334401 
L 135.966827 -106.581125 
L 136.652627 -107.838891 
L 137.338427 -109.107318 
L 138.024228 -110.386007 
L 138.710028 -111.674545 
L 139.395828 -112.972503 
L 140.081628 -114.279438 
L 140.767428 -115.59489 
L 141.453228 -116.918385 
L 142.139028 -118.249434 
L 142.824828 -119.587533 
L 143.510628 -120.932164 
L 144.196428 -122.282795 
L 144.882228 -123.638878 
L 145.568028 -124.999855 
L 146.253829 -126.365151 
L 146.939629 -127.734181 
L 147.625429 -129.106344 
L 148.311229 -130.48103 
L 148.997029 -131.857614 
L 149.682829 -133.235462 
L 150.368629 -134.613928 
L 151.054429 -135.992354 
L 151.740229 -137.370074 
L 152.426029 -138.74641 
L 153.111829 -140.120677 
L 153.797629 -141.49218 
L 154.48343 -142.860215 
L 155.16923 -144.224073 
L 155.85503 -145.583036 
L 156.54083 -146.93638 
L 157.22663 -148.283374 
L 157.91243 -149.623285 
L 158.59823 -150.955373 
L 159.28403 -152.278894 
L 159.96983 -153.593102 
L 160.65563 -154.897247 
L 161.34143 -156.190579 
L 162.02723 -157.472346 
L 162.713031 -158.741794 
L 163.398831 -159.998172 
L 164.084631 -161.240729 
L 164.770431 -162.468715 
L 165.456231 -163.681383 
L 166.142031 -164.877989 
L 166.827831 -166.057794 
L 167.513631 -167.220063 
L 168.199431 -168.364065 
L 168.885231 -169.489079 
L 169.571031 -170.594387 
L 170.256831 -171.679282 
L 170.942632 -172.743062 
L 171.628432 -173.785039 
L 172.314232 -174.804531 
L 173.000032 -175.800868 
L 173.685832 -176.773392 
L 174.371632 -177.721457 
L 175.057432 -178.64443 
L 175.743232 -179.54169 
L 176.429032 -180.412633 
L 177.114832 -181.256669 
L 177.800632 -182.073222 
L 178.486432 -182.861735 
L 179.172233 -183.621665 
L 179.858033 -184.35249 
L 180.543833 -185.053704 
L 181.229633 -185.724819 
L 181.915433 -186.365368 
L 182.601233 -186.974904 
L 183.287033 -187.552999 
L 183.972833 -188.099247 
L 184.658633 -188.613262 
L 185.344433 -189.094681 
L 186.030233 -189.543164 
L 186.716033 -189.958391 
L 187.401834 -190.340068 
L 188.087634 -190.687923 
L 188.773434 -191.001706 
L 189.459234 -191.281193 
L 190.145034 -191.526186 
L 190.830834 -191.736507 
L 191.516634 -191.912006 
L 192.202434 -192.052557 
L 192.888234 -192.158059 
L 193.574034 -192.228435 
L 194.259834 -192.263636 
L 194.945634 -192.263636 
L 195.631434 -192.228435 
L 196.317235 -192.158059 
L 197.003035 -192.052557 
L 197.688835 -191.912006 
L 198.374635 -191.736507 
L 199.060435 -191.526186 
L 199.746235 -191.281193 
L 200.432035 -191.001706 
L 201.117835 -190.687923 
L 201.803635 -190.340068 
L 202.489435 -189.958391 
L 203.175235 -189.543164 
L 203.861035 -189.094681 
L 204.546836 -188.613262 
L 205.232636 -188.099247 
L 205.918436 -187.552999 
L 206.604236 -186.974904 
L 207.290036 -186.365368 
L 207.975836 -185.724819 
L 208.661636 -185.053704 
L 209.347436 -184.35249 
L 210.033236 -183.621665 
L 210.719036 -182.861735 
L 211.404836 -182.073222 
L 212.090636 -181.256669 
L 212.776437 -180.412633 
L 213.462237 -179.54169 
L 214.148037 -178.64443 
L 214.833837 -177.721457 
L 215.519637 -176.773392 
L 216.205437 -175.800868 
L 216.891237 -174.804531 
L 217.577037 -173.785039 
L 218.262837 -172.743062 
L 218.948637 -171.679282 
L 219.634437 -170.594387 
L 220.320237 -169.489079 
L 221.006038 -168.364065 
L 221.691838 -167.220063 
L 222.377638 -166.057794 
L 223.063438 -164.877989 
L 223.749238 -163.681383 
L 224.435038 -162.468715 
L 225.120838 -161.240729 
L 225.806638 -159.998172 
L 226.492438 -158.741794 
L 227.178238 -157.472346 
L 227.864038 -156.190579 
L 228.549838 -154.897247 
L 229.235639 -153.593102 
L 229.921439 -152.278894 
L 230.607239 -150.955373 
L 231.293039 -149.623285 
L 231.978839 -148.283374 
L 232.664639 -146.93638 
L 233.350439 -145.583036 
L 234.036239 -144.224073 
L 234.722039 -142.860215 
L 235.407839 -141.49218 
L 236.093639 -140.120677 
L 236.779439 -138.74641 
L 237.46524 -137.370074 
L 238.15104 -135.992354 
L 238.83684 -134.613928 
L 239.52264 -133.235462 
L 240.20844 -131.857614 
L 240.89424 -130.48103 
L 241.58004 -129.106344 
L 242.26584 -127.734181 
L 242.95164 -126.365151 
L 243.63744 -124.999855 
L 244.32324 -123.638878 
L 245.00904 -122.282795 
L 245.694841 -120.932164 
L 246.380641 -119.587533 
L 247.066441 -118.249434 
L 247.752241 -116.918385 
L 248.438041 -115.59489 
L 249.123841 -114.279438 
L 249.809641 -112.972503 
L 250.495441 -111.674545 
L 251.181241 -110.386007 
L 251.867041 -109.107318 
L 252.552841 -107.838891 
L 253.238641 -106.581125 
L 253.924442 -105.334401 
L 254.610242 -104.099086 
L 255.296042 -102.875531 
L 255.981842 -101.664071 
L 256.667642 -100.465026 
L 257.353442 -99.2787 
L 258.039242 -98.10538 
L 258.725042 -96.94534 
L 259.410842 -95.798838 
L 260.096642 -94.666115 
L 260.782442 -93.547399 
L 261.468242 -92.4429 
L 262.154043 -91.352816 
L 262.839843 -90.277329 
L 263.525643 -89.216605 
L 264.211443 -88.170799 
L 264.897243 -87.140049 
L 265.583043 -86.124478 
L 266.268843 -85.124199 
L 266.954643 -84.139307 
L 267.640443 -83.169888 
L 268.326243 -82.216011 
L 269.012043 -81.277735 
L 269.697843 -80.355106 
L 270.383644 -79.448155 
L 271.069444 -78.556905 
L 271.755244 -77.681364 
L 272.441044 -76.821531 
L 273.126844 -75.977392 
L 273.812644 -75.148924 
L 274.498444 -74.336092 
L 275.184244 -73.538852 
L 275.870044 -72.75715 
L 276.555844 -71.99092 
L 277.241644 -71.240092 
L 277.927444 -70.504581 
L 278.613244 -69.784298 
L 279.299045 -69.079145 
L 279.984845 -68.389014 
L 280.670645 -67.713792 
L 281.356445 -67.053357 
L 282.042245 -66.407582 
L 282.728045 -65.77633 
L 283.413845 -65.159463 
L 284.099645 -64.556831 
L 284.785445 -63.968284 
L 285.471245 -63.393662 
L 286.157045 -62.832804 
L 286.842845 -62.285543 
L 287.528646 -61.751705 
L 288.214446 -61.231116 
L 288.900246 -60.723596 
L 289.586046 -60.228962 
L 290.271846 -59.747028 
L 290.957646 -59.277604 
L 291.643446 -58.820499 
L 292.329246 -58.375519 
L 293.015046 -57.942467 
L 293.700846 -57.521146 
L 294.386646 -57.111356 
L 295.072446 -56.712895 
L 295.758247 -56.325562 
L 296.444047 -55.949154 
L 297.129847 -55.583467 
L 297.815647 -55.228296 
L 298.501447 -54.883438 
L 299.187247 -54.548689 
L 299.873047 -54.223842 
L 300.558847 -53.908696 
L 301.244647 -53.603047 
L 301.930447 -53.306691 
L 302.616247 -53.019427 
L 303.302047 -52.741054 
L 303.987848 -52.471372 
L 304.673648 -52.210184 
L 305.359448 -51.957292 
L 306.045248 -51.7125 
L 306.731048 -51.475616 
L 307.416848 -51.246447 
L 308.102648 -51.024804 
L 308.788448 -50.810499 
L 309.474248 -50.603345 
L 310.160048 -50.40316 
L 310.845848 -50.209763 
L 311.531648 -50.022974 
L 312.217449 -49.842617 
L 312.903249 -49.668519 
L 313.589049 -49.500509 
L 314.274849 -49.338417 
L 314.960649 -49.182078 
L 315.646449 -49.031329 
L 316.332249 -48.88601 
L 317.018049 -48.745963 
L 317.703849 -48.611033 
L 318.389649 -48.481069 
L 319.075449 -48.355922 
L 319.761249 -48.235446 
L 320.44705 -48.119498 
L 321.13285 -48.007937 
L 321.81865 -47.900628 
L 322.50445 -47.797435 
L 323.19025 -47.698227 
L 323.87605 -47.602876 
L 324.56185 -47.511257 
L 325.24765 -47.423247 
L 325.93345 -47.338727 
L 326.61925 -47.257579 
L 327.30505 -47.179691 
L 327.99085 -47.104951 
L 328.676651 -47.033251 
L 329.362451 -46.964485 
L 330.048251 -46.898552 
L 330.734051 -46.835351 
L 331.419851 -46.774785 
L 331.419851 -45.536364 
L 331.419851 -45.536364 
L 330.734051 -45.536364 
L 330.048251 -45.536364 
L 329.362451 -45.536364 
L 328.676651 -45.536364 
L 327.99085 -45.536364 
L 327.30505 -45.536364 
L 326.61925 -45.536364 
L 325.93345 -45.536364 
L 325.24765 -45.536364 
L 324.56185 -45.536364 
L 323.87605 -45.536364 
L 323.19025 -45.536364 
L 322.50445 -45.536364 
L 321.81865 -45.536364 
L 321.13285 -45.536364 
L 320.44705 -45.536364 
L 319.761249 -45.536364 
L 319.075449 -45.536364 
L 318.389649 -45.536364 
L 317.703849 -45.536364 
L 317.018049 -45.536364 
L 316.332249 -45.536364 
L 315.646449 -45.536364 
L 314.960649 -45.536364 
L 314.274849 -45.536364 
L 313.589049 -45.536364 
L 312.903249 -45.536364 
L 312.217449 -45.536364 
L 311.531648 -45.536364 
L 310.845848 -45.536364 
L 310.160048 -45.536364 
L 309.474248 -45.536364 
L 308.788448 -45.536364 
L 308.102648 -45.536364 
L 307.416848 -45.536364 
L 306.731048 -45.536364 
L 306.045248 -45.536364 
L 305.359448 -45.536364 
L 304.673648 -45.536364 
L 303.987848 -45.536364 
L 303.302047 -45.536364 
L 302.616247 -45.536364 
L 301.930447 -45.536364 
L 301.244647 -45.536364 
L 300.558847 -45.536364 
L 299.873047 -45.536364 
L 299.187247 -45.536364 
L 298.501447 -45.536364 
L 297.815647 -45.536364 
L 297.129847 -45.536364 
L 296.444047 -45.536364 
L 295.758247 -45.536364 
L 295.072446 -45.536364 
L 294.386646 -45.536364 
L 293.700846 -45.536364 
L 293.015046 -45.536364 
L 292.329246 -45.536364 
L 291.643446 -45.536364 
L 290.957646 -45.536364 
L 290.271846 -45.536364 
L 289.586046 -45.536364 
L 288.900246 -45.536364 
L 288.214446 -45.536364 
L 287.528646 -45.536364 
L 286.842845 -45.536364 
L 286.157045 -45.536364 
L 285.471245 -45.536364 
L 284.785445 -45.536364 
L 284.099645 -45.536364 
L 283.413845 -45.536364 
L 282.728045 -45.536364 
L 282.042245 -45.536364 
L 281.356445 -45.536364 
L 280.670645 -45.536364 
L 279.984845 -45.536364 
L 279.299045 -45.536364 
L 278.613244 -45.536364 
L 277.927444 -45.536364 
L 277.241644 -45.536364 
L 276.555844 -45.536364 
L 275.870044 -45.536364 
L 275.184244 -45.536364 
L 274.498444 -45.536364 
L 273.812644 -45.536364 
L 273.126844 -45.536364 
L 272.441044 -45.536364 
L 271.755244 -45.536364 
L 271.069444 -45.536364 
L 270.383644 -45.536364 
L 269.697843 -45.536364 
L 269.012043 -45.536364 
L 268.326243 -45.536364 
L 267.640443 -45.536364 
L 266.954643 -45.536364 
L 266.268843 -45.536364 
L 265.583043 -45.536364 
L 264.897243 -45.536364 
L 264.211443 -45.536364 
L 263.525643 -45.536364 
L 262.839843 -45.536364 
L 262.154043 -45.536364 
L 261.468242 -45.536364 
L 260.782442 -45.536364 
L 260.096642 -45.536364 
L 259.410842 -45.536364 
L 258.725042 -45.536364 
L 258.039242 -45.536364 
L 257.353442 -45.536364 
L 256.667642 -45.536364 
L 255.981842 -45.536364 
L 255.296042 -45.536364 
L 254.610242 -45.536364 
L 253.924442 -45.536364 
L 253.238641 -45.536364 
L 252.552841 -45.536364 
L 251.867041 -45.536364 
L 251.181241 -45.536364 
L 250.495441 -45.536364 
L 249.809641 -45.536364 
L 249.123841 -45.536364 
L 248.438041 -45.536364 
L 247.752241 -45.536364 
L 247.066441 -45.536364 
L 246.380641 -45.536364 
L 245.694841 -45.536364 
L 245.00904 -45.536364 
L 244.32324 -45.536364 
L 243.63744 -45.536364 
L 242.95164 -45.536364 
L 242.26584 -45.536364 
L 241.58004 -45.536364 
L 240.89424 -45.536364 
L 240.20844 -45.536364 
L 239.52264 -45.536364 
L 238.83684 -45.536364 
L 238.15104 -45.536364 
L 237.46524 -45.536364 
L 236.779439 -45.536364 
L 236.093639 -45.536364 
L 235.407839 -45.536364 
L 234.722039 -45.536364 
L 234.036239 -45.536364 
L 233.350439 -45.536364 
L 232.664639 -45.536364 
L 231.978839 -45.536364 
L 231.293039 -45.536364 
L 230.607239 -45.536364 
L 229.921439 -45.536364 
L 229.235639 -45.536364 
L 228.549838 -45.536364 
L 227.864038 -45.536364 
L 227.178238 -45.536364 
L 226.492438 -45.536364 
L 225.806638 -45.536364 
L 225.120838 -45.536364 
L 224.435038 -45.536364 
L 223.749238 -45.536364 
L 223.063438 -45.536364 
L 222.377638 -45.536364 
L 221.691838 -45.536364 
L 221.006038 -45.536364 
L 220.320237 -45.536364 
L 219.634437 -45.536364 
L 218.948637 -45.536364 
L 218.262837 -45.536364 
L 217.577037 -45.536364 
L 216.891237 -45.536364 
L 216.205437 -45.536364 
L 215.519637 -45.536364 
L 214.833837 -45.536364 
L 214.148037 -45.536364 
L 213.462237 -45.536364 
L 212.776437 -45.536364 
L 212.090636 -45.536364 
L 211.404836 -45.536364 
L 210.719036 -45.536364 
L 210.033236 -45.536364 
L 209.347436 -45.536364 
L 208.661636 -45.536364 
L 207.975836 -45.536364 
L 207.290036 -45.536364 
L 206.604236 -45.536364 
L 205.918436 -45.536364 
L 205.232636 -45.536364 
L 204.546836 -45.536364 
L 203.861035 -45.536364 
L 203.175235 -45.536364 
L 202.489435 -45.536364 
L 201.803635 -45.536364 
L 201.117835 -45.536364 
L 200.432035 -45.536364 
L 199.746235 -45.536364 
L 199.060435 -45.536364 
L 198.374635 -45.536364 
L 197.688835 -45.536364 
L 197.003035 -45.536364 
L 196.317235 -45.536364 
L 195.631434 -45.536364 
L 194.945634 -45.536364 
L 194.259834 -45.536364 
L 193.574034 -45.536364 
L 192.888234 -45.536364 
L 192.202434 -45.536364 
L 191.516634 -45.536364 
L 190.830834 -45.536364 
L 190.145034 -45.536364 
L 189.459234 -45.536364 
L 188.773434 -45.536364 
L 188.087634 -45.536364 
L 187.401834 -45.536364 
L 186.716033 -45.536364 
L 186.030233 -45.536364 
L 185.344433 -45.536364 
L 184.658633 -45.536364 
L 183.972833 -45.536364 
L 183.287033 -45.536364 
L 182.601233 -45.536364 
L 181.915433 -45.536364 
L 181.229633 -45.536364 
L 180.543833 -45.536364 
L 179.858033 -45.536364 
L 179.172233 -45.536364 
L 178.486432 -45.536364 
L 177.800632 -45.536364 
L 177.114832 -45.536364 
L 176.429032 -45.536364 
L 175.743232 -45.536364 
L 175.057432 -45.536364 
L 174.371632 -45.536364 
L 173.685832 -45.536364 
L 173.000032 -45.536364 
L 172.314232 -45.536364 
L 171.628432 -45.536364 
L 170.942632 -45.536364 
L 170.256831 -45.536364 
L 169.571031 -45.536364 
L 168.885231 -45.536364 
L 168.199431 -45.536364 
L 167.513631 -45.536364 
L 166.827831 -45.536364 
L 166.142031 -45.536364 
L 165.456231 -45.536364 
L 164.770431 -45.536364 
L 164.084631 -45.536364 
L 163.398831 -45.536364 
L 162.713031 -45.536364 
L 162.02723 -45.536364 
L 161.34143 -45.536364 
L 160.65563 -45.536364 
L 159.96983 -45.536364 
L 159.28403 -45.536364 
L 158.59823 -45.536364 
L 157.91243 -45.536364 
L 157.22663 -45.536364 
L 156.54083 -45.536364 
L 155.85503 -45.536364 
L 155.16923 -45.536364 
L 154.48343 -45.536364 
L 153.797629 -45.536364 
L 153.111829 -45.536364 
L 152.426029 -45.536364 
L 151.740229 -45.536364 
L 151.054429 -45.536364 
L 150.368629 -45.536364 
L 149.682829 -45.536364 
L 148.997029 -45.536364 
L 148.311229 -45.536364 
L 147.625429 -45.536364 
L 146.939629 -45.536364 
L 146.253829 -45.536364 
L 145.568028 -45.536364 
L 144.882228 -45.536364 
L 144.196428 -45.536364 
L 143.510628 -45.536364 
L 142.824828 -45.536364 
L 142.139028 -45.536364 
L 141.453228 -45.536364 
L 140.767428 -45.536364 
L 140.081628 -45.536364 
L 139.395828 -45.536364 
L 138.710028 -45.536364 
L 138.024228 -45.536364 
L 137.338427 -45.536364 
L 136.652627 -45.536364 
L 135.966827 -45.536364 
L 135.281027 -45.536364 
L 134.595227 -45.536364 
L 133.909427 -45.536364 
L 133.223627 -45.536364 
L 132.537827 -45.536364 
L 131.852027 -45.536364 
L 131.166227 -45.536364 
L 130.480427 -45.536364 
L 129.794627 -45.536364 
L 129.108826 -45.536364 
L 128.423026 -45.536364 
L 127.737226 -45.536364 
L 127.051426 -45.536364 
L 126.365626 -45.536364 
L 125.679826 -45.536364 
L 124.994026 -45.536364 
L 124.308226 -45.536364 
L 123.622426 -45.536364 
L 122.936626 -45.536364 
L 122.250826 -45.536364 
L 121.565026 -45.536364 
L 120.879225 -45.536364 
L 120.193425 -45.536364 
L 119.507625 -45.536364 
L 118.821825 -45.536364 
L 118.136025 -45.536364 
L 117.450225 -45.536364 
L 116.764425 -45.536364 
L 116.078625 -45.536364 
L 115.392825 -45.536364 
L 114.707025 -45.536364 
L 114.021225 -45.536364 
L 113.335425 -45.536364 
L 112.649625 -45.536364 
L 111.963824 -45.536364 
L 111.278024 -45.536364 
L 110.592224 -45.536364 
L 109.906424 -45.536364 
L 109.220624 -45.536364 
L 108.534824 -45.536364 
L 107.849024 -45.536364 
L 107.163224 -45.536364 
L 106.477424 -45.536364 
L 105.791624 -45.536364 
L 105.105824 -45.536364 
L 104.420024 -45.536364 
L 103.734223 -45.536364 
L 103.048423 -45.536364 
L 102.362623 -45.536364 
L 101.676823 -45.536364 
L 100.991023 -45.536364 
L 100.305223 -45.536364 
L 99.619423 -45.536364 
L 98.933623 -45.536364 
L 98.247823 -45.536364 
L 97.562023 -45.536364 
L 96.876223 -45.536364 
L 96.190423 -45.536364 
L 95.504622 -45.536364 
L 94.818822 -45.536364 
L 94.133022 -45.536364 
L 93.447222 -45.536364 
L 92.761422 -45.536364 
L 92.075622 -45.536364 
L 91.389822 -45.536364 
L 90.704022 -45.536364 
L 90.018222 -45.536364 
L 89.332422 -45.536364 
L 88.646622 -45.536364 
L 87.960822 -45.536364 
L 87.275021 -45.536364 
L 86.589221 -45.536364 
L 85.903421 -45.536364 
L 85.217621 -45.536364 
L 84.531821 -45.536364 
L 83.846021 -45.536364 
L 83.160221 -45.536364 
L 82.474421 -45.536364 
L 81.788621 -45.536364 
L 81.102821 -45.536364 
L 80.417021 -45.536364 
L 79.731221 -45.536364 
L 79.04542 -45.536364 
L 78.35962 -45.536364 
L 77.67382 -45.536364 
L 76.98802 -45.536364 
L 76.30222 -45.536364 
L 75.61642 -45.536364 
L 74.93062 -45.536364 
L 74.24482 -45.536364 
L 73.55902 -45.536364 
L 72.87322 -45.536364 
L 72.18742 -45.536364 
L 71.50162 -45.536364 
L 70.815819 -45.536364 
L 70.130019 -45.536364 
L 69.444219 -45.536364 
L 68.758419 -45.536364 
L 68.072619 -45.536364 
L 67.386819 -45.536364 
L 66.701019 -45.536364 
L 66.015219 -45.536364 
L 65.329419 -45.536364 
L 64.643619 -45.536364 
L 63.957819 -45.536364 
L 63.272019 -45.536364 
L 62.586218 -45.536364 
L 61.900418 -45.536364 
L 61.214618 -45.536364 
L 60.528818 -45.536364 
L 59.843018 -45.536364 
L 59.157218 -45.536364 
L 58.471418 -45.536364 
L 57.785618 -45.536364 
z
" style="stroke: #4c78a8; stroke-opacity: 0.15"/>
    </defs>
    <g clip-path="url(#pbbe75e5ffc)">
     <use xlink:href="#m439d6ef4f4" x="0" y="223.158281" style="fill: #4c78a8; fill-opacity: 0.15; stroke: #4c78a8; stroke-opacity: 0.15"/>
    </g>
   </g>
   <g id="matplotlib.axis_1">
    <g id="xtick_1">
     <g id="line2d_1">
      <path d="M 61.780568 184.958281 
L 61.780568 23.558281 
" clip-path="url(#pbbe75e5ffc)" style="fill: none; stroke: #b0b0b0; stroke-opacity: 0.25; stroke-width: 0.6; stroke-linecap: square"/>
     </g>
     <g id="line2d_2">
      <defs>
       <path id="m68988f4310" d="M 0 0 
L 0 3.5 
" style="stroke: #000000; stroke-width: 0.8"/>
      </defs>
      <g>
       <use xlink:href="#m68988f4310" x="61.780568" y="184.958281" style="stroke: #000000; stroke-width: 0.8"/>
      </g>
     </g>
     <g id="text_1">
      <!-- −3 -->
      <g transform="translate(54.409474 199.555938) scale(0.1 -0.1)">
       <defs>
        <path id="DejaVuSans-c9c" d="M 678 2272 
L 4684 2272 
L 4684 1741 
L 678 1741 
L 678 2272 
z
" transform="scale(0.015625)"/>
        <path id="DejaVuSans-16" d="M 2597 2516 
Q 3050 2419 3304 2112 
Q 3559 1806 3559 1356 
Q 3559 666 3084 287 
Q 2609 -91 1734 -91 
Q 1441 -91 1130 -33 
Q 819 25 488 141 
L 488 750 
Q 750 597 1062 519 
Q 1375 441 1716 441 
Q 2309 441 2620 675 
Q 2931 909 2931 1356 
Q 2931 1769 2642 2001 
Q 2353 2234 1838 2234 
L 1294 2234 
L 1294 2753 
L 1863 2753 
Q 2328 2753 2575 2939 
Q 2822 3125 2822 3475 
Q 2822 3834 2567 4026 
Q 2313 4219 1838 4219 
Q 1578 4219 1281 4162 
Q 984 4106 628 3988 
L 628 4550 
Q 988 4650 1302 4700 
Q 1616 4750 1894 4750 
Q 2613 4750 3031 4423 
Q 3450 4097 3450 3541 
Q 3450 3153 3228 2886 
Q 3006 2619 2597 2516 
z
" transform="scale(0.015625)"/>
       </defs>
       <use xlink:href="#DejaVuSans-c9c"/>
       <use xlink:href="#DejaVuSans-16" transform="translate(83.796875 0)"/>
      </g>
     </g>
    </g>
    <g id="xtick_2">
     <g id="line2d_3">
      <path d="M 106.054623 184.958281 
L 106.054623 23.558281 
" clip-path="url(#pbbe75e5ffc)" style="fill: none; stroke: #b0b0b0; stroke-opacity: 0.25; stroke-width: 0.6; stroke-linecap: square"/>
     </g>
     <g id="line2d_4">
      <g>
       <use xlink:href="#m68988f4310" x="106.054623" y="184.958281" style="stroke: #000000; stroke-width: 0.8"/>
      </g>
     </g>
     <g id="text_2">
      <!-- −2 -->
      <g transform="translate(98.68353 199.555938) scale(0.1 -0.1)">
       <defs>
        <path id="DejaVuSans-15" d="M 1228 531 
L 3431 531 
L 3431 0 
L 469 0 
L 469 531 
Q 828 903 1448 1529 
Q 2069 2156 2228 2338 
Q 2531 2678 2651 2914 
Q 2772 3150 2772 3378 
Q 2772 3750 2511 3984 
Q 2250 4219 1831 4219 
Q 1534 4219 1204 4116 
Q 875 4013 500 3803 
L 500 4441 
Q 881 4594 1212 4672 
Q 1544 4750 1819 4750 
Q 2544 4750 2975 4387 
Q 3406 4025 3406 3419 
Q 3406 3131 3298 2873 
Q 3191 2616 2906 2266 
Q 2828 2175 2409 1742 
Q 1991 1309 1228 531 
z
" transform="scale(0.015625)"/>
       </defs>
       <use xlink:href="#DejaVuSans-c9c"/>
       <use xlink:href="#DejaVuSans-15" transform="translate(83.796875 0)"/>
      </g>
     </g>
    </g>
    <g id="xtick_3">
     <g id="line2d_5">
      <path d="M 150.328679 184.958281 
L 150.328679 23.558281 
" clip-path="url(#pbbe75e5ffc)" style="fill: none; stroke: #b0b0b0; stroke-opacity: 0.25; stroke-width: 0.6; stroke-linecap: square"/>
     </g>
     <g id="line2d_6">
      <g>
       <use xlink:href="#m68988f4310" x="150.328679" y="184.958281" style="stroke: #000000; stroke-width: 0.8"/>
      </g>
     </g>
     <g id="text_3">
      <!-- −1 -->
      <g transform="translate(142.957585 199.555938) scale(0.1 -0.1)">
       <defs>
        <path id="DejaVuSans-14" d="M 794 531 
L 1825 531 
L 1825 4091 
L 703 3866 
L 703 4441 
L 1819 4666 
L 2450 4666 
L 2450 531 
L 3481 531 
L 3481 0 
L 794 0 
L 794 531 
z
" transform="scale(0.015625)"/>
       </defs>
       <use xlink:href="#DejaVuSans-c9c"/>
       <use xlink:href="#DejaVuSans-14" transform="translate(83.796875 0)"/>
      </g>
     </g>
    </g>
    <g id="xtick_4">
     <g id="line2d_7">
      <path d="M 194.602734 184.958281 
L 194.602734 23.558281 
" clip-path="url(#pbbe75e5ffc)" style="fill: none; stroke: #b0b0b0; stroke-opacity: 0.25; stroke-width: 0.6; stroke-linecap: square"/>
     </g>
     <g id="line2d_8">
      <g>
       <use xlink:href="#m68988f4310" x="194.602734" y="184.958281" style="stroke: #000000; stroke-width: 0.8"/>
      </g>
     </g>
     <g id="text_4">
      <!-- 0 -->
      <g transform="translate(191.421484 199.555938) scale(0.1 -0.1)">
       <defs>
        <path id="DejaVuSans-13" d="M 2034 4250 
Q 1547 4250 1301 3770 
Q 1056 3291 1056 2328 
Q 1056 1369 1301 889 
Q 1547 409 2034 409 
Q 2525 409 2770 889 
Q 3016 1369 3016 2328 
Q 3016 3291 2770 3770 
Q 2525 4250 2034 4250 
z
M 2034 4750 
Q 2819 4750 3233 4129 
Q 3647 3509 3647 2328 
Q 3647 1150 3233 529 
Q 2819 -91 2034 -91 
Q 1250 -91 836 529 
Q 422 1150 422 2328 
Q 422 3509 836 4129 
Q 1250 4750 2034 4750 
z
" transform="scale(0.015625)"/>
       </defs>
       <use xlink:href="#DejaVuSans-13"/>
      </g>
     </g>
    </g>
    <g id="xtick_5">
     <g id="line2d_9">
      <path d="M 238.87679 184.958281 
L 238.87679 23.558281 
" clip-path="url(#pbbe75e5ffc)" style="fill: none; stroke: #b0b0b0; stroke-opacity: 0.25; stroke-width: 0.6; stroke-linecap: square"/>
     </g>
     <g id="line2d_10">
      <g>
       <use xlink:href="#m68988f4310" x="238.87679" y="184.958281" style="stroke: #000000; stroke-width: 0.8"/>
      </g>
     </g>
     <g id="text_5">
      <!-- 1 -->
      <g transform="translate(235.69554 199.555938) scale(0.1 -0.1)">
       <use xlink:href="#DejaVuSans-14"/>
      </g>
     </g>
    </g>
    <g id="xtick_6">
     <g id="line2d_11">
      <path d="M 283.150845 184.958281 
L 283.150845 23.558281 
" clip-path="url(#pbbe75e5ffc)" style="fill: none; stroke: #b0b0b0; stroke-opacity: 0.25; stroke-width: 0.6; stroke-linecap: square"/>
     </g>
     <g id="line2d_12">
      <g>
       <use xlink:href="#m68988f4310" x="283.150845" y="184.958281" style="stroke: #000000; stroke-width: 0.8"/>
      </g>
     </g>
     <g id="text_6">
      <!-- 2 -->
      <g transform="translate(279.969595 199.555938) scale(0.1 -0.1)">
       <use xlink:href="#DejaVuSans-15"/>
      </g>
     </g>
    </g>
    <g id="xtick_7">
     <g id="line2d_13">
      <path d="M 327.424901 184.958281 
L 327.424901 23.558281 
" clip-path="url(#pbbe75e5ffc)" style="fill: none; stroke: #b0b0b0; stroke-opacity: 0.25; stroke-width: 0.6; stroke-linecap: square"/>
     </g>
     <g id="line2d_14">
      <g>
       <use xlink:href="#m68988f4310" x="327.424901" y="184.958281" style="stroke: #000000; stroke-width: 0.8"/>
      </g>
     </g>
     <g id="text_7">
      <!-- 3 -->
      <g transform="translate(324.243651 199.555938) scale(0.1 -0.1)">
       <use xlink:href="#DejaVuSans-16"/>
      </g>
     </g>
    </g>
    <g id="text_8">
     <!-- x -->
     <g transform="translate(191.643359 213.555938) scale(0.1 -0.1)">
      <defs>
       <path id="DejaVuSans-5b" d="M 3513 3500 
L 2247 1797 
L 3578 0 
L 2900 0 
L 1881 1375 
L 863 0 
L 184 0 
L 1544 1831 
L 300 3500 
L 978 3500 
L 1906 2253 
L 2834 3500 
L 3513 3500 
z
" transform="scale(0.015625)"/>
      </defs>
      <use xlink:href="#DejaVuSans-5b"/>
     </g>
    </g>
   </g>
   <g id="matplotlib.axis_2">
    <g id="ytick_1">
     <g id="line2d_15">
      <path d="M 44.103906 177.621918 
L 345.101562 177.621918 
" clip-path="url(#pbbe75e5ffc)" style="fill: none; stroke: #b0b0b0; stroke-opacity: 0.25; stroke-width: 0.6; stroke-linecap: square"/>
     </g>
     <g id="line2d_16">
      <defs>
       <path id="m6cac473efb" d="M 0 0 
L -3.5 0 
" style="stroke: #000000; stroke-width: 0.8"/>
      </defs>
      <g>
       <use xlink:href="#m6cac473efb" x="44.103906" y="177.621918" style="stroke: #000000; stroke-width: 0.8"/>
      </g>
     </g>
     <g id="text_9">
      <!-- 0.0 -->
      <g transform="translate(21.200781 181.420746) scale(0.1 -0.1)">
       <defs>
        <path id="DejaVuSans-11" d="M 684 794 
L 1344 794 
L 1344 0 
L 684 0 
L 684 794 
z
" transform="scale(0.015625)"/>
       </defs>
       <use xlink:href="#DejaVuSans-13"/>
       <use xlink:href="#DejaVuSans-11" transform="translate(63.625 0)"/>
       <use xlink:href="#DejaVuSans-13" transform="translate(95.40625 0)"/>
      </g>
     </g>
    </g>
    <g id="ytick_2">
     <g id="line2d_17">
      <path d="M 44.103906 140.841741 
L 345.101562 140.841741 
" clip-path="url(#pbbe75e5ffc)" style="fill: none; stroke: #b0b0b0; stroke-opacity: 0.25; stroke-width: 0.6; stroke-linecap: square"/>
     </g>
     <g id="line2d_18">
      <g>
       <use xlink:href="#m6cac473efb" x="44.103906" y="140.841741" style="stroke: #000000; stroke-width: 0.8"/>
      </g>
     </g>
     <g id="text_10">
      <!-- 0.1 -->
      <g transform="translate(21.200781 144.64057) scale(0.1 -0.1)">
       <use xlink:href="#DejaVuSans-13"/>
       <use xlink:href="#DejaVuSans-11" transform="translate(63.625 0)"/>
       <use xlink:href="#DejaVuSans-14" transform="translate(95.40625 0)"/>
      </g>
     </g>
    </g>
    <g id="ytick_3">
     <g id="line2d_19">
      <path d="M 44.103906 104.061565 
L 345.101562 104.061565 
" clip-path="url(#pbbe75e5ffc)" style="fill: none; stroke: #b0b0b0; stroke-opacity: 0.25; stroke-width: 0.6; stroke-linecap: square"/>
     </g>
     <g id="line2d_20">
      <g>
       <use xlink:href="#m6cac473efb" x="44.103906" y="104.061565" style="stroke: #000000; stroke-width: 0.8"/>
      </g>
     </g>
     <g id="text_11">
      <!-- 0.2 -->
      <g transform="translate(21.200781 107.860393) scale(0.1 -0.1)">
       <use xlink:href="#DejaVuSans-13"/>
       <use xlink:href="#DejaVuSans-11" transform="translate(63.625 0)"/>
       <use xlink:href="#DejaVuSans-15" transform="translate(95.40625 0)"/>
      </g>
     </g>
    </g>
    <g id="ytick_4">
     <g id="line2d_21">
      <path d="M 44.103906 67.281389 
L 345.101562 67.281389 
" clip-path="url(#pbbe75e5ffc)" style="fill: none; stroke: #b0b0b0; stroke-opacity: 0.25; stroke-width: 0.6; stroke-linecap: square"/>
     </g>
     <g id="line2d_22">
      <g>
       <use xlink:href="#m6cac473efb" x="44.103906" y="67.281389" style="stroke: #000000; stroke-width: 0.8"/>
      </g>
     </g>
     <g id="text_12">
      <!-- 0.3 -->
      <g transform="translate(21.200781 71.080217) scale(0.1 -0.1)">
       <use xlink:href="#DejaVuSans-13"/>
       <use xlink:href="#DejaVuSans-11" transform="translate(63.625 0)"/>
       <use xlink:href="#DejaVuSans-16" transform="translate(95.40625 0)"/>
      </g>
     </g>
    </g>
    <g id="ytick_5">
     <g id="line2d_23">
      <path d="M 44.103906 30.501213 
L 345.101562 30.501213 
" clip-path="url(#pbbe75e5ffc)" style="fill: none; stroke: #b0b0b0; stroke-opacity: 0.25; stroke-width: 0.6; stroke-linecap: square"/>
     </g>
     <g id="line2d_24">
      <g>
       <use xlink:href="#m6cac473efb" x="44.103906" y="30.501213" style="stroke: #000000; stroke-width: 0.8"/>
      </g>
     </g>
     <g id="text_13">
      <!-- 0.4 -->
      <g transform="translate(21.200781 34.300041) scale(0.1 -0.1)">
       <defs>
        <path id="DejaVuSans-17" d="M 2419 4116 
L 825 1625 
L 2419 1625 
L 2419 4116 
z
M 2253 4666 
L 3047 4666 
L 3047 1625 
L 3713 1625 
L 3713 1100 
L 3047 1100 
L 3047 0 
L 2419 0 
L 2419 1100 
L 313 1100 
L 313 1709 
L 2253 4666 
z
" transform="scale(0.015625)"/>
       </defs>
       <use xlink:href="#DejaVuSans-13"/>
       <use xlink:href="#DejaVuSans-11" transform="translate(63.625 0)"/>
       <use xlink:href="#DejaVuSans-17" transform="translate(95.40625 0)"/>
      </g>
     </g>
    </g>
    <g id="text_14">
     <!-- f(x) -->
     <g transform="translate(14.798438 112.879375) rotate(-90) scale(0.1 -0.1)">
      <defs>
       <path id="DejaVuSans-49" d="M 2375 4863 
L 2375 4384 
L 1825 4384 
Q 1516 4384 1395 4259 
Q 1275 4134 1275 3809 
L 1275 3500 
L 2222 3500 
L 2222 3053 
L 1275 3053 
L 1275 0 
L 697 0 
L 697 3053 
L 147 3053 
L 147 3500 
L 697 3500 
L 697 3744 
Q 697 4328 969 4595 
Q 1241 4863 1831 4863 
L 2375 4863 
z
" transform="scale(0.015625)"/>
       <path id="DejaVuSans-b" d="M 1984 4856 
Q 1566 4138 1362 3434 
Q 1159 2731 1159 2009 
Q 1159 1288 1364 580 
Q 1569 -128 1984 -844 
L 1484 -844 
Q 1016 -109 783 600 
Q 550 1309 550 2009 
Q 550 2706 781 3412 
Q 1013 4119 1484 4856 
L 1984 4856 
z
" transform="scale(0.015625)"/>
       <path id="DejaVuSans-c" d="M 513 4856 
L 1013 4856 
Q 1481 4119 1714 3412 
Q 1947 2706 1947 2009 
Q 1947 1309 1714 600 
Q 1481 -109 1013 -844 
L 513 -844 
Q 928 -128 1133 580 
Q 1338 1288 1338 2009 
Q 1338 2731 1133 3434 
Q 928 4138 513 4856 
z
" transform="scale(0.015625)"/>
      </defs>
      <use xlink:href="#DejaVuSans-49"/>
      <use xlink:href="#DejaVuSans-b" transform="translate(35.203125 0)"/>
      <use xlink:href="#DejaVuSans-5b" transform="translate(74.21875 0)"/>
      <use xlink:href="#DejaVuSans-c" transform="translate(133.40625 0)"/>
     </g>
    </g>
   </g>
   <g id="line2d_25">
    <path d="M 57.785618 176.383496 
L 63.957819 175.735034 
L 69.444219 174.922835 
L 74.24482 173.976203 
L 78.35962 172.948519 
L 82.474421 171.682665 
L 85.903421 170.417227 
L 89.332422 168.934439 
L 92.761422 167.209127 
L 96.190423 165.215814 
L 99.619423 162.929319 
L 103.048423 160.325477 
L 106.477424 157.381951 
L 109.906424 154.079136 
L 113.335425 150.401132 
L 116.764425 146.336751 
L 120.193425 141.880546 
L 123.622426 137.033803 
L 127.051426 131.805465 
L 130.480427 126.212941 
L 134.595227 119.059195 
L 139.395828 110.185778 
L 144.882228 99.519403 
L 162.02723 65.685936 
L 166.142031 58.280292 
L 169.571031 52.563894 
L 172.314232 48.35375 
L 175.057432 44.513851 
L 177.800632 41.085059 
L 179.858033 38.805791 
L 181.915433 36.792913 
L 183.972833 35.059035 
L 186.030233 33.615117 
L 188.087634 32.470359 
L 190.145034 31.632095 
L 192.202434 31.105724 
L 194.259834 30.894645 
L 196.317235 31.000223 
L 198.374635 31.421774 
L 200.432035 32.156576 
L 202.489435 33.19989 
L 204.546836 34.545019 
L 206.604236 36.183377 
L 208.661636 38.104578 
L 210.719036 40.296547 
L 213.462237 43.616591 
L 216.205437 47.357413 
L 218.948637 51.479 
L 222.377638 57.100487 
L 225.806638 63.160109 
L 229.921439 70.879387 
L 235.407839 81.666102 
L 249.123841 108.878843 
L 253.924442 117.82388 
L 258.039242 125.052901 
L 262.154043 131.805465 
L 265.583043 137.033803 
L 269.012043 141.880546 
L 272.441044 146.336751 
L 275.870044 150.401132 
L 279.299045 154.079136 
L 282.728045 157.381951 
L 286.157045 160.325477 
L 289.586046 162.929319 
L 293.015046 165.215814 
L 296.444047 167.209127 
L 299.873047 168.934439 
L 303.302047 170.417227 
L 306.731048 171.682665 
L 310.845848 172.948519 
L 314.960649 173.976203 
L 319.761249 174.922835 
L 324.56185 175.647024 
L 330.048251 176.259729 
L 331.419851 176.383496 
L 331.419851 176.383496 
" clip-path="url(#pbbe75e5ffc)" style="fill: none; stroke: #4c78a8; stroke-width: 2; stroke-linecap: square"/>
   </g>
   <g id="patch_3">
    <path d="M 44.103906 184.958281 
L 44.103906 23.558281 
" style="fill: none; stroke: #000000; stroke-width: 0.8; stroke-linejoin: miter; stroke-linecap: square"/>
   </g>
   <g id="patch_4">
    <path d="M 44.103906 184.958281 
L 345.101562 184.958281 
" style="fill: none; stroke: #000000; stroke-width: 0.8; stroke-linejoin: miter; stroke-linecap: square"/>
   </g>
   <g id="text_15">
    <!-- Normal Gaussian -->
    <g transform="translate(147.722109 15.558281) scale(0.11 -0.11)">
     <defs>
      <path id="DejaVuSans-31" d="M 628 4666 
L 1478 4666 
L 3547 763 
L 3547 4666 
L 4159 4666 
L 4159 0 
L 3309 0 
L 1241 3903 
L 1241 0 
L 628 0 
L 628 4666 
z
" transform="scale(0.015625)"/>
      <path id="DejaVuSans-52" d="M 1959 3097 
Q 1497 3097 1228 2736 
Q 959 2375 959 1747 
Q 959 1119 1226 758 
Q 1494 397 1959 397 
Q 2419 397 2687 759 
Q 2956 1122 2956 1747 
Q 2956 2369 2687 2733 
Q 2419 3097 1959 3097 
z
M 1959 3584 
Q 2709 3584 3137 3096 
Q 3566 2609 3566 1747 
Q 3566 888 3137 398 
Q 2709 -91 1959 -91 
Q 1206 -91 779 398 
Q 353 888 353 1747 
Q 353 2609 779 3096 
Q 1206 3584 1959 3584 
z
" transform="scale(0.015625)"/>
      <path id="DejaVuSans-55" d="M 2631 2963 
Q 2534 3019 2420 3045 
Q 2306 3072 2169 3072 
Q 1681 3072 1420 2755 
Q 1159 2438 1159 1844 
L 1159 0 
L 581 0 
L 581 3500 
L 1159 3500 
L 1159 2956 
Q 1341 3275 1631 3429 
Q 1922 3584 2338 3584 
Q 2397 3584 2469 3576 
Q 2541 3569 2628 3553 
L 2631 2963 
z
" transform="scale(0.015625)"/>
      <path id="DejaVuSans-50" d="M 3328 2828 
Q 3544 3216 3844 3400 
Q 4144 3584 4550 3584 
Q 5097 3584 5394 3201 
Q 5691 2819 5691 2113 
L 5691 0 
L 5113 0 
L 5113 2094 
Q 5113 2597 4934 2840 
Q 4756 3084 4391 3084 
Q 3944 3084 3684 2787 
Q 3425 2491 3425 1978 
L 3425 0 
L 2847 0 
L 2847 2094 
Q 2847 2600 2669 2842 
Q 2491 3084 2119 3084 
Q 1678 3084 1418 2786 
Q 1159 2488 1159 1978 
L 1159 0 
L 581 0 
L 581 3500 
L 1159 3500 
L 1159 2956 
Q 1356 3278 1631 3431 
Q 1906 3584 2284 3584 
Q 2666 3584 2933 3390 
Q 3200 3197 3328 2828 
z
" transform="scale(0.015625)"/>
      <path id="DejaVuSans-44" d="M 2194 1759 
Q 1497 1759 1228 1600 
Q 959 1441 959 1056 
Q 959 750 1161 570 
Q 1363 391 1709 391 
Q 2188 391 2477 730 
Q 2766 1069 2766 1631 
L 2766 1759 
L 2194 1759 
z
M 3341 1997 
L 3341 0 
L 2766 0 
L 2766 531 
Q 2569 213 2275 61 
Q 1981 -91 1556 -91 
Q 1019 -91 701 211 
Q 384 513 384 1019 
Q 384 1609 779 1909 
Q 1175 2209 1959 2209 
L 2766 2209 
L 2766 2266 
Q 2766 2663 2505 2880 
Q 2244 3097 1772 3097 
Q 1472 3097 1187 3025 
Q 903 2953 641 2809 
L 641 3341 
Q 956 3463 1253 3523 
Q 1550 3584 1831 3584 
Q 2591 3584 2966 3190 
Q 3341 2797 3341 1997 
z
" transform="scale(0.015625)"/>
      <path id="DejaVuSans-4f" d="M 603 4863 
L 1178 4863 
L 1178 0 
L 603 0 
L 603 4863 
z
" transform="scale(0.015625)"/>
      <path id="DejaVuSans-3" transform="scale(0.015625)"/>
      <path id="DejaVuSans-2a" d="M 3809 666 
L 3809 1919 
L 2778 1919 
L 2778 2438 
L 4434 2438 
L 4434 434 
Q 4069 175 3628 42 
Q 3188 -91 2688 -91 
Q 1594 -91 976 548 
Q 359 1188 359 2328 
Q 359 3472 976 4111 
Q 1594 4750 2688 4750 
Q 3144 4750 3555 4637 
Q 3966 4525 4313 4306 
L 4313 3634 
Q 3963 3931 3569 4081 
Q 3175 4231 2741 4231 
Q 1884 4231 1454 3753 
Q 1025 3275 1025 2328 
Q 1025 1384 1454 906 
Q 1884 428 2741 428 
Q 3075 428 3337 486 
Q 3600 544 3809 666 
z
" transform="scale(0.015625)"/>
      <path id="DejaVuSans-58" d="M 544 1381 
L 544 3500 
L 1119 3500 
L 1119 1403 
Q 1119 906 1312 657 
Q 1506 409 1894 409 
Q 2359 409 2629 706 
Q 2900 1003 2900 1516 
L 2900 3500 
L 3475 3500 
L 3475 0 
L 2900 0 
L 2900 538 
Q 2691 219 2414 64 
Q 2138 -91 1772 -91 
Q 1169 -91 856 284 
Q 544 659 544 1381 
z
M 1991 3584 
L 1991 3584 
z
" transform="scale(0.015625)"/>
      <path id="DejaVuSans-56" d="M 2834 3397 
L 2834 2853 
Q 2591 2978 2328 3040 
Q 2066 3103 1784 3103 
Q 1356 3103 1142 2972 
Q 928 2841 928 2578 
Q 928 2378 1081 2264 
Q 1234 2150 1697 2047 
L 1894 2003 
Q 2506 1872 2764 1633 
Q 3022 1394 3022 966 
Q 3022 478 2636 193 
Q 2250 -91 1575 -91 
Q 1294 -91 989 -36 
Q 684 19 347 128 
L 347 722 
Q 666 556 975 473 
Q 1284 391 1588 391 
Q 1994 391 2212 530 
Q 2431 669 2431 922 
Q 2431 1156 2273 1281 
Q 2116 1406 1581 1522 
L 1381 1569 
Q 847 1681 609 1914 
Q 372 2147 372 2553 
Q 372 3047 722 3315 
Q 1072 3584 1716 3584 
Q 2034 3584 2315 3537 
Q 2597 3491 2834 3397 
z
" transform="scale(0.015625)"/>
      <path id="DejaVuSans-4c" d="M 603 3500 
L 1178 3500 
L 1178 0 
L 603 0 
L 603 3500 
z
M 603 4863 
L 1178 4863 
L 1178 4134 
L 603 4134 
L 603 4863 
z
" transform="scale(0.015625)"/>
      <path id="DejaVuSans-51" d="M 3513 2113 
L 3513 0 
L 2938 0 
L 2938 2094 
Q 2938 2591 2744 2837 
Q 2550 3084 2163 3084 
Q 1697 3084 1428 2787 
Q 1159 2491 1159 1978 
L 1159 0 
L 581 0 
L 581 3500 
L 1159 3500 
L 1159 2956 
Q 1366 3272 1645 3428 
Q 1925 3584 2291 3584 
Q 2894 3584 3203 3211 
Q 3513 2838 3513 2113 
z
" transform="scale(0.015625)"/>
     </defs>
     <use xlink:href="#DejaVuSans-31"/>
     <use xlink:href="#DejaVuSans-52" transform="translate(74.8125 0)"/>
     <use xlink:href="#DejaVuSans-55" transform="translate(136 0)"/>
     <use xlink:href="#DejaVuSans-50" transform="translate(175.359375 0)"/>
     <use xlink:href="#DejaVuSans-44" transform="translate(272.765625 0)"/>
     <use xlink:href="#DejaVuSans-4f" transform="translate(334.046875 0)"/>
     <use xlink:href="#DejaVuSans-3" transform="translate(361.828125 0)"/>
     <use xlink:href="#DejaVuSans-2a" transform="translate(393.609375 0)"/>
     <use xlink:href="#DejaVuSans-44" transform="translate(471.09375 0)"/>
     <use xlink:href="#DejaVuSans-58" transform="translate(532.375 0)"/>
     <use xlink:href="#DejaVuSans-56" transform="translate(595.75 0)"/>
     <use xlink:href="#DejaVuSans-56" transform="translate(647.84375 0)"/>
     <use xlink:href="#DejaVuSans-4c" transform="translate(699.9375 0)"/>
     <use xlink:href="#DejaVuSans-44" transform="translate(727.71875 0)"/>
     <use xlink:href="#DejaVuSans-51" transform="translate(789 0)"/>
    </g>
   </g>
  </g>
 </g>
 <defs>
  <clipPath id="pbbe75e5ffc">
   <rect x="44.103906" y="23.558281" width="300.997656" height="161.4"/>
  </clipPath>
 </defs>
</svg>
