<?xml version="1.0" encoding="utf-8" standalone="no"?>
<!DOCTYPE svg PUBLIC "-//W3C//DTD SVG 1.1//EN"
  "http://www.w3.org/Graphics/SVG/1.1/DTD/svg11.dtd">
<svg xmlns:xlink="http://www.w3.org/1999/xlink" width="352.301562pt" height="223.2pt" viewBox="0 0 352.301562 223.2" xmlns="http://www.w3.org/2000/svg" version="1.1">
 <metadata>
  <rdf:RDF xmlns:dc="http://purl.org/dc/elements/1.1/" xmlns:cc="http://creativecommons.org/ns#" xmlns:rdf="http://www.w3.org/1999/02/22-rdf-syntax-ns#">
   <cc:Work>
    <dc:type rdf:resource="http://purl.org/dc/dcmitype/StillImage"/>
    <dc:date>2026-07-05T02:24:31.888701</dc:date>
    <dc:format>image/svg+xml</dc:format>
    <dc:creator>
     <cc:Agent>
      <dc:title>Matplotlib v3.11.0, https://matplotlib.org/</dc:title>
     </cc:Agent>
    </dc:creator>
   </cc:Work>
  </rdf:RDF>
 </metadata>
 <defs>
  <style type="text/css">*{stroke-linejoin: round; stroke-linecap: butt}</style>
 </defs>
 <g id="figure_1">
  <g id="patch_1">
   <path d="M 0 223.2 
L 352.301562 223.2 
L 352.301562 0 
L 0 0 
z
" style="fill: #ffffff"/>
  </g>
  <g id="axes_1">
   <g id="patch_2">
    <path d="M 44.103906 185 
L 345.101562 185 
L 345.101562 23.557422 
L 44.103906 23.557422 
z
" style="fill: #ffffff"/>
   </g>
   <g id="FillBetweenPolyCollection_1">
    <defs>
     <path id="m60a885ecbf" d="M 57.785618 -45.538299 
L 57.785618 -192.304279 
L 58.471418 -163.117406 
L 59.157218 -141.183862 
L 59.843018 -124.38345 
L 60.528818 -111.298242 
L 61.214618 -100.955515 
L 61.900418 -92.672836 
L 62.586218 -85.961818 
L 63.272019 -80.466681 
L 63.957819 -75.924078 
L 64.643619 -72.136245 
L 65.329419 -68.952714 
L 66.015219 -66.257624 
L 66.701019 -63.960781 
L 67.386819 -61.991261 
L 68.072619 -60.292771 
L 68.758419 -58.82025 
L 69.444219 -57.537334 
L 70.130019 -56.414462 
L 70.815819 -55.427437 
L 71.50162 -54.556319 
L 72.18742 -53.784584 
L 72.87322 -53.098452 
L 73.55902 -52.486377 
L 74.24482 -51.93863 
L 74.93062 -51.446978 
L 75.61642 -51.004419 
L 76.30222 -50.604977 
L 76.98802 -50.243525 
L 77.67382 -49.915652 
L 78.35962 -49.617548 
L 79.04542 -49.345909 
L 79.731221 -49.097863 
L 80.417021 -48.870902 
L 81.102821 -48.662834 
L 81.788621 -48.471732 
L 82.474421 -48.295902 
L 83.160221 -48.133848 
L 83.846021 -47.984247 
L 84.531821 -47.845925 
L 85.217621 -47.71784 
L 85.903421 -47.599061 
L 86.589221 -47.488759 
L 87.275021 -47.38619 
L 87.960822 -47.290688 
L 88.646622 -47.201656 
L 89.332422 -47.118554 
L 90.018222 -47.040897 
L 90.704022 -46.968246 
L 91.389822 -46.900204 
L 92.075622 -46.836412 
L 92.761422 -46.776542 
L 93.447222 -46.720298 
L 94.133022 -46.667409 
L 94.818822 -46.617629 
L 95.504622 -46.570733 
L 96.190423 -46.526515 
L 96.876223 -46.484786 
L 97.562023 -46.445374 
L 98.247823 -46.408121 
L 98.933623 -46.372879 
L 99.619423 -46.339516 
L 100.305223 -46.307908 
L 100.991023 -46.277941 
L 101.676823 -46.249509 
L 102.362623 -46.222517 
L 103.048423 -46.196873 
L 103.734223 -46.172495 
L 104.420024 -46.149305 
L 105.105824 -46.127232 
L 105.791624 -46.10621 
L 106.477424 -46.086176 
L 107.163224 -46.067074 
L 107.849024 -46.04885 
L 108.534824 -46.031453 
L 109.220624 -46.014838 
L 109.906424 -45.998962 
L 110.592224 -45.983782 
L 111.278024 -45.969262 
L 111.963824 -45.955367 
L 112.649625 -45.942062 
L 113.335425 -45.929318 
L 114.021225 -45.917104 
L 114.707025 -45.905393 
L 115.392825 -45.894161 
L 116.078625 -45.883382 
L 116.764425 -45.873034 
L 117.450225 -45.863095 
L 118.136025 -45.853547 
L 118.821825 -45.844368 
L 119.507625 -45.835543 
L 120.193425 -45.827054 
L 120.879225 -45.818885 
L 121.565026 -45.811021 
L 122.250826 -45.803448 
L 122.936626 -45.796154 
L 123.622426 -45.789124 
L 124.308226 -45.782347 
L 124.994026 -45.775813 
L 125.679826 -45.76951 
L 126.365626 -45.763427 
L 127.051426 -45.757557 
L 127.737226 -45.751888 
L 128.423026 -45.746414 
L 129.108826 -45.741124 
L 129.794627 -45.736013 
L 130.480427 -45.731072 
L 131.166227 -45.726294 
L 131.852027 -45.721673 
L 132.537827 -45.717202 
L 133.223627 -45.712875 
L 133.909427 -45.708686 
L 134.595227 -45.704631 
L 135.281027 -45.700703 
L 135.966827 -45.696898 
L 136.652627 -45.693211 
L 137.338427 -45.689637 
L 138.024228 -45.686172 
L 138.710028 -45.682813 
L 139.395828 -45.679554 
L 140.081628 -45.676393 
L 140.767428 -45.673325 
L 141.453228 -45.670347 
L 142.139028 -45.667456 
L 142.824828 -45.66465 
L 143.510628 -45.661923 
L 144.196428 -45.659275 
L 144.882228 -45.656702 
L 145.568028 -45.654201 
L 146.253829 -45.65177 
L 146.939629 -45.649407 
L 147.625429 -45.647109 
L 148.311229 -45.644874 
L 148.997029 -45.642699 
L 149.682829 -45.640584 
L 150.368629 -45.638525 
L 151.054429 -45.636521 
L 151.740229 -45.63457 
L 152.426029 -45.63267 
L 153.111829 -45.63082 
L 153.797629 -45.629018 
L 154.48343 -45.627263 
L 155.16923 -45.625553 
L 155.85503 -45.623886 
L 156.54083 -45.622261 
L 157.22663 -45.620677 
L 157.91243 -45.619133 
L 158.59823 -45.617627 
L 159.28403 -45.616159 
L 159.96983 -45.614726 
L 160.65563 -45.613328 
L 161.34143 -45.611964 
L 162.02723 -45.610633 
L 162.713031 -45.609334 
L 163.398831 -45.608066 
L 164.084631 -45.606828 
L 164.770431 -45.605619 
L 165.456231 -45.604438 
L 166.142031 -45.603285 
L 166.827831 -45.602158 
L 167.513631 -45.601057 
L 168.199431 -45.599982 
L 168.885231 -45.598931 
L 169.571031 -45.597903 
L 170.256831 -45.596899 
L 170.942632 -45.595917 
L 171.628432 -45.594957 
L 172.314232 -45.594018 
L 173.000032 -45.5931 
L 173.685832 -45.592202 
L 174.371632 -45.591323 
L 175.057432 -45.590463 
L 175.743232 -45.589622 
L 176.429032 -45.588799 
L 177.114832 -45.587993 
L 177.800632 -45.587205 
L 178.486432 -45.586433 
L 179.172233 -45.585677 
L 179.858033 -45.584937 
L 180.543833 -45.584212 
L 181.229633 -45.583502 
L 181.915433 -45.582807 
L 182.601233 -45.582126 
L 183.287033 -45.581458 
L 183.972833 -45.580804 
L 184.658633 -45.580164 
L 185.344433 -45.579536 
L 186.030233 -45.578921 
L 186.716033 -45.578317 
L 187.401834 -45.577726 
L 188.087634 -45.577146 
L 188.773434 -45.576578 
L 189.459234 -45.576021 
L 190.145034 -45.575474 
L 190.830834 -45.574938 
L 191.516634 -45.574412 
L 192.202434 -45.573896 
L 192.888234 -45.57339 
L 193.574034 -45.572894 
L 194.259834 -45.572407 
L 194.945634 -45.571929 
L 195.631434 -45.57146 
L 196.317235 -45.570999 
L 197.003035 -45.570547 
L 197.688835 -45.570103 
L 198.374635 -45.569668 
L 199.060435 -45.56924 
L 199.746235 -45.56882 
L 200.432035 -45.568408 
L 201.117835 -45.568003 
L 201.803635 -45.567605 
L 202.489435 -45.567214 
L 203.175235 -45.566831 
L 203.861035 -45.566454 
L 204.546836 -45.566083 
L 205.232636 -45.565719 
L 205.918436 -45.565362 
L 206.604236 -45.56501 
L 207.290036 -45.564665 
L 207.975836 -45.564326 
L 208.661636 -45.563992 
L 209.347436 -45.563664 
L 210.033236 -45.563342 
L 210.719036 -45.563025 
L 211.404836 -45.562713 
L 212.090636 -45.562407 
L 212.776437 -45.562105 
L 213.462237 -45.561809 
L 214.148037 -45.561518 
L 214.833837 -45.561231 
L 215.519637 -45.560949 
L 216.205437 -45.560672 
L 216.891237 -45.560399 
L 217.577037 -45.560131 
L 218.262837 -45.559867 
L 218.948637 -45.559607 
L 219.634437 -45.559351 
L 220.320237 -45.5591 
L 221.006038 -45.558852 
L 221.691838 -45.558608 
L 222.377638 -45.558368 
L 223.063438 -45.558132 
L 223.749238 -45.5579 
L 224.435038 -45.557671 
L 225.120838 -45.557446 
L 225.806638 -45.557224 
L 226.492438 -45.557006 
L 227.178238 -45.556791 
L 227.864038 -45.556579 
L 228.549838 -45.556371 
L 229.235639 -45.556165 
L 229.921439 -45.555963 
L 230.607239 -45.555764 
L 231.293039 -45.555568 
L 231.978839 -45.555374 
L 232.664639 -45.555184 
L 233.350439 -45.554996 
L 234.036239 -45.554812 
L 234.722039 -45.55463 
L 235.407839 -45.55445 
L 236.093639 -45.554273 
L 236.779439 -45.554099 
L 237.46524 -45.553927 
L 238.15104 -45.553758 
L 238.83684 -45.553591 
L 239.52264 -45.553427 
L 240.20844 -45.553265 
L 240.89424 -45.553105 
L 241.58004 -45.552948 
L 242.26584 -45.552792 
L 242.95164 -45.552639 
L 243.63744 -45.552488 
L 244.32324 -45.55234 
L 245.00904 -45.552193 
L 245.694841 -45.552048 
L 246.380641 -45.551905 
L 247.066441 -45.551765 
L 247.752241 -45.551626 
L 248.438041 -45.551489 
L 249.123841 -45.551354 
L 249.809641 -45.551221 
L 250.495441 -45.551089 
L 251.181241 -45.55096 
L 251.867041 -45.550832 
L 252.552841 -45.550706 
L 253.238641 -45.550581 
L 253.924442 -45.550458 
L 254.610242 -45.550337 
L 255.296042 -45.550218 
L 255.981842 -45.5501 
L 256.667642 -45.549983 
L 257.353442 -45.549868 
L 258.039242 -45.549755 
L 258.725042 -45.549643 
L 259.410842 -45.549532 
L 260.096642 -45.549423 
L 260.782442 -45.549316 
L 261.468242 -45.54921 
L 262.154043 -45.549105 
L 262.839843 -45.549001 
L 263.525643 -45.548899 
L 264.211443 -45.548798 
L 264.897243 -45.548698 
L 265.583043 -45.5486 
L 266.268843 -45.548503 
L 266.954643 -45.548407 
L 267.640443 -45.548312 
L 268.326243 -45.548218 
L 269.012043 -45.548126 
L 269.697843 -45.548035 
L 270.383644 -45.547945 
L 271.069444 -45.547856 
L 271.755244 -45.547768 
L 272.441044 -45.547681 
L 273.126844 -45.547595 
L 273.812644 -45.54751 
L 274.498444 -45.547427 
L 275.184244 -45.547344 
L 275.870044 -45.547262 
L 276.555844 -45.547181 
L 277.241644 -45.547102 
L 277.927444 -45.547023 
L 278.613244 -45.546945 
L 279.299045 -45.546868 
L 279.984845 -45.546792 
L 280.670645 -45.546717 
L 281.356445 -45.546642 
L 282.042245 -45.546569 
L 282.728045 -45.546497 
L 283.413845 -45.546425 
L 284.099645 -45.546354 
L 284.785445 -45.546284 
L 285.471245 -45.546215 
L 286.157045 -45.546146 
L 286.842845 -45.546079 
L 287.528646 -45.546012 
L 288.214446 -45.545946 
L 288.900246 -45.54588 
L 289.586046 -45.545816 
L 290.271846 -45.545752 
L 290.957646 -45.545689 
L 291.643446 -45.545626 
L 292.329246 -45.545565 
L 293.015046 -45.545503 
L 293.700846 -45.545443 
L 294.386646 -45.545383 
L 295.072446 -45.545324 
L 295.758247 -45.545266 
L 296.444047 -45.545208 
L 297.129847 -45.545151 
L 297.815647 -45.545095 
L 298.501447 -45.545039 
L 299.187247 -45.544984 
L 299.873047 -45.544929 
L 300.558847 -45.544875 
L 301.244647 -45.544821 
L 301.930447 -45.544769 
L 302.616247 -45.544716 
L 303.302047 -45.544665 
L 303.987848 -45.544613 
L 304.673648 -45.544563 
L 305.359448 -45.544513 
L 306.045248 -45.544463 
L 306.731048 -45.544414 
L 307.416848 -45.544365 
L 308.102648 -45.544317 
L 308.788448 -45.54427 
L 309.474248 -45.544223 
L 310.160048 -45.544176 
L 310.845848 -45.54413 
L 311.531648 -45.544085 
L 312.217449 -45.54404 
L 312.903249 -45.543995 
L 313.589049 -45.543951 
L 314.274849 -45.543907 
L 314.960649 -45.543864 
L 315.646449 -45.543821 
L 316.332249 -45.543779 
L 317.018049 -45.543737 
L 317.703849 -45.543695 
L 318.389649 -45.543654 
L 319.075449 -45.543614 
L 319.761249 -45.543573 
L 320.44705 -45.543534 
L 321.13285 -45.543494 
L 321.81865 -45.543455 
L 322.50445 -45.543416 
L 323.19025 -45.543378 
L 323.87605 -45.54334 
L 324.56185 -45.543303 
L 325.24765 -45.543266 
L 325.93345 -45.543229 
L 326.61925 -45.543192 
L 327.30505 -45.543156 
L 327.99085 -45.543121 
L 328.676651 -45.543085 
L 329.362451 -45.54305 
L 330.048251 -45.543015 
L 330.734051 -45.542981 
L 331.419851 -45.542947 
L 331.419851 -45.538299 
L 331.419851 -45.538299 
L 330.734051 -45.538299 
L 330.048251 -45.538299 
L 329.362451 -45.538299 
L 328.676651 -45.538299 
L 327.99085 -45.538299 
L 327.30505 -45.538299 
L 326.61925 -45.538299 
L 325.93345 -45.538299 
L 325.24765 -45.538299 
L 324.56185 -45.538299 
L 323.87605 -45.538299 
L 323.19025 -45.538299 
L 322.50445 -45.538299 
L 321.81865 -45.538299 
L 321.13285 -45.538299 
L 320.44705 -45.538299 
L 319.761249 -45.538299 
L 319.075449 -45.538299 
L 318.389649 -45.538299 
L 317.703849 -45.538299 
L 317.018049 -45.538299 
L 316.332249 -45.538299 
L 315.646449 -45.538299 
L 314.960649 -45.538299 
L 314.274849 -45.538299 
L 313.589049 -45.538299 
L 312.903249 -45.538299 
L 312.217449 -45.538299 
L 311.531648 -45.538299 
L 310.845848 -45.538299 
L 310.160048 -45.538299 
L 309.474248 -45.538299 
L 308.788448 -45.538299 
L 308.102648 -45.538299 
L 307.416848 -45.538299 
L 306.731048 -45.538299 
L 306.045248 -45.538299 
L 305.359448 -45.538299 
L 304.673648 -45.538299 
L 303.987848 -45.538299 
L 303.302047 -45.538299 
L 302.616247 -45.538299 
L 301.930447 -45.538299 
L 301.244647 -45.538299 
L 300.558847 -45.538299 
L 299.873047 -45.538299 
L 299.187247 -45.538299 
L 298.501447 -45.538299 
L 297.815647 -45.538299 
L 297.129847 -45.538299 
L 296.444047 -45.538299 
L 295.758247 -45.538299 
L 295.072446 -45.538299 
L 294.386646 -45.538299 
L 293.700846 -45.538299 
L 293.015046 -45.538299 
L 292.329246 -45.538299 
L 291.643446 -45.538299 
L 290.957646 -45.538299 
L 290.271846 -45.538299 
L 289.586046 -45.538299 
L 288.900246 -45.538299 
L 288.214446 -45.538299 
L 287.528646 -45.538299 
L 286.842845 -45.538299 
L 286.157045 -45.538299 
L 285.471245 -45.538299 
L 284.785445 -45.538299 
L 284.099645 -45.538299 
L 283.413845 -45.538299 
L 282.728045 -45.538299 
L 282.042245 -45.538299 
L 281.356445 -45.538299 
L 280.670645 -45.538299 
L 279.984845 -45.538299 
L 279.299045 -45.538299 
L 278.613244 -45.538299 
L 277.927444 -45.538299 
L 277.241644 -45.538299 
L 276.555844 -45.538299 
L 275.870044 -45.538299 
L 275.184244 -45.538299 
L 274.498444 -45.538299 
L 273.812644 -45.538299 
L 273.126844 -45.538299 
L 272.441044 -45.538299 
L 271.755244 -45.538299 
L 271.069444 -45.538299 
L 270.383644 -45.538299 
L 269.697843 -45.538299 
L 269.012043 -45.538299 
L 268.326243 -45.538299 
L 267.640443 -45.538299 
L 266.954643 -45.538299 
L 266.268843 -45.538299 
L 265.583043 -45.538299 
L 264.897243 -45.538299 
L 264.211443 -45.538299 
L 263.525643 -45.538299 
L 262.839843 -45.538299 
L 262.154043 -45.538299 
L 261.468242 -45.538299 
L 260.782442 -45.538299 
L 260.096642 -45.538299 
L 259.410842 -45.538299 
L 258.725042 -45.538299 
L 258.039242 -45.538299 
L 257.353442 -45.538299 
L 256.667642 -45.538299 
L 255.981842 -45.538299 
L 255.296042 -45.538299 
L 254.610242 -45.538299 
L 253.924442 -45.538299 
L 253.238641 -45.538299 
L 252.552841 -45.538299 
L 251.867041 -45.538299 
L 251.181241 -45.538299 
L 250.495441 -45.538299 
L 249.809641 -45.538299 
L 249.123841 -45.538299 
L 248.438041 -45.538299 
L 247.752241 -45.538299 
L 247.066441 -45.538299 
L 246.380641 -45.538299 
L 245.694841 -45.538299 
L 245.00904 -45.538299 
L 244.32324 -45.538299 
L 243.63744 -45.538299 
L 242.95164 -45.538299 
L 242.26584 -45.538299 
L 241.58004 -45.538299 
L 240.89424 -45.538299 
L 240.20844 -45.538299 
L 239.52264 -45.538299 
L 238.83684 -45.538299 
L 238.15104 -45.538299 
L 237.46524 -45.538299 
L 236.779439 -45.538299 
L 236.093639 -45.538299 
L 235.407839 -45.538299 
L 234.722039 -45.538299 
L 234.036239 -45.538299 
L 233.350439 -45.538299 
L 232.664639 -45.538299 
L 231.978839 -45.538299 
L 231.293039 -45.538299 
L 230.607239 -45.538299 
L 229.921439 -45.538299 
L 229.235639 -45.538299 
L 228.549838 -45.538299 
L 227.864038 -45.538299 
L 227.178238 -45.538299 
L 226.492438 -45.538299 
L 225.806638 -45.538299 
L 225.120838 -45.538299 
L 224.435038 -45.538299 
L 223.749238 -45.538299 
L 223.063438 -45.538299 
L 222.377638 -45.538299 
L 221.691838 -45.538299 
L 221.006038 -45.538299 
L 220.320237 -45.538299 
L 219.634437 -45.538299 
L 218.948637 -45.538299 
L 218.262837 -45.538299 
L 217.577037 -45.538299 
L 216.891237 -45.538299 
L 216.205437 -45.538299 
L 215.519637 -45.538299 
L 214.833837 -45.538299 
L 214.148037 -45.538299 
L 213.462237 -45.538299 
L 212.776437 -45.538299 
L 212.090636 -45.538299 
L 211.404836 -45.538299 
L 210.719036 -45.538299 
L 210.033236 -45.538299 
L 209.347436 -45.538299 
L 208.661636 -45.538299 
L 207.975836 -45.538299 
L 207.290036 -45.538299 
L 206.604236 -45.538299 
L 205.918436 -45.538299 
L 205.232636 -45.538299 
L 204.546836 -45.538299 
L 203.861035 -45.538299 
L 203.175235 -45.538299 
L 202.489435 -45.538299 
L 201.803635 -45.538299 
L 201.117835 -45.538299 
L 200.432035 -45.538299 
L 199.746235 -45.538299 
L 199.060435 -45.538299 
L 198.374635 -45.538299 
L 197.688835 -45.538299 
L 197.003035 -45.538299 
L 196.317235 -45.538299 
L 195.631434 -45.538299 
L 194.945634 -45.538299 
L 194.259834 -45.538299 
L 193.574034 -45.538299 
L 192.888234 -45.538299 
L 192.202434 -45.538299 
L 191.516634 -45.538299 
L 190.830834 -45.538299 
L 190.145034 -45.538299 
L 189.459234 -45.538299 
L 188.773434 -45.538299 
L 188.087634 -45.538299 
L 187.401834 -45.538299 
L 186.716033 -45.538299 
L 186.030233 -45.538299 
L 185.344433 -45.538299 
L 184.658633 -45.538299 
L 183.972833 -45.538299 
L 183.287033 -45.538299 
L 182.601233 -45.538299 
L 181.915433 -45.538299 
L 181.229633 -45.538299 
L 180.543833 -45.538299 
L 179.858033 -45.538299 
L 179.172233 -45.538299 
L 178.486432 -45.538299 
L 177.800632 -45.538299 
L 177.114832 -45.538299 
L 176.429032 -45.538299 
L 175.743232 -45.538299 
L 175.057432 -45.538299 
L 174.371632 -45.538299 
L 173.685832 -45.538299 
L 173.000032 -45.538299 
L 172.314232 -45.538299 
L 171.628432 -45.538299 
L 170.942632 -45.538299 
L 170.256831 -45.538299 
L 169.571031 -45.538299 
L 168.885231 -45.538299 
L 168.199431 -45.538299 
L 167.513631 -45.538299 
L 166.827831 -45.538299 
L 166.142031 -45.538299 
L 165.456231 -45.538299 
L 164.770431 -45.538299 
L 164.084631 -45.538299 
L 163.398831 -45.538299 
L 162.713031 -45.538299 
L 162.02723 -45.538299 
L 161.34143 -45.538299 
L 160.65563 -45.538299 
L 159.96983 -45.538299 
L 159.28403 -45.538299 
L 158.59823 -45.538299 
L 157.91243 -45.538299 
L 157.22663 -45.538299 
L 156.54083 -45.538299 
L 155.85503 -45.538299 
L 155.16923 -45.538299 
L 154.48343 -45.538299 
L 153.797629 -45.538299 
L 153.111829 -45.538299 
L 152.426029 -45.538299 
L 151.740229 -45.538299 
L 151.054429 -45.538299 
L 150.368629 -45.538299 
L 149.682829 -45.538299 
L 148.997029 -45.538299 
L 148.311229 -45.538299 
L 147.625429 -45.538299 
L 146.939629 -45.538299 
L 146.253829 -45.538299 
L 145.568028 -45.538299 
L 144.882228 -45.538299 
L 144.196428 -45.538299 
L 143.510628 -45.538299 
L 142.824828 -45.538299 
L 142.139028 -45.538299 
L 141.453228 -45.538299 
L 140.767428 -45.538299 
L 140.081628 -45.538299 
L 139.395828 -45.538299 
L 138.710028 -45.538299 
L 138.024228 -45.538299 
L 137.338427 -45.538299 
L 136.652627 -45.538299 
L 135.966827 -45.538299 
L 135.281027 -45.538299 
L 134.595227 -45.538299 
L 133.909427 -45.538299 
L 133.223627 -45.538299 
L 132.537827 -45.538299 
L 131.852027 -45.538299 
L 131.166227 -45.538299 
L 130.480427 -45.538299 
L 129.794627 -45.538299 
L 129.108826 -45.538299 
L 128.423026 -45.538299 
L 127.737226 -45.538299 
L 127.051426 -45.538299 
L 126.365626 -45.538299 
L 125.679826 -45.538299 
L 124.994026 -45.538299 
L 124.308226 -45.538299 
L 123.622426 -45.538299 
L 122.936626 -45.538299 
L 122.250826 -45.538299 
L 121.565026 -45.538299 
L 120.879225 -45.538299 
L 120.193425 -45.538299 
L 119.507625 -45.538299 
L 118.821825 -45.538299 
L 118.136025 -45.538299 
L 117.450225 -45.538299 
L 116.764425 -45.538299 
L 116.078625 -45.538299 
L 115.392825 -45.538299 
L 114.707025 -45.538299 
L 114.021225 -45.538299 
L 113.335425 -45.538299 
L 112.649625 -45.538299 
L 111.963824 -45.538299 
L 111.278024 -45.538299 
L 110.592224 -45.538299 
L 109.906424 -45.538299 
L 109.220624 -45.538299 
L 108.534824 -45.538299 
L 107.849024 -45.538299 
L 107.163224 -45.538299 
L 106.477424 -45.538299 
L 105.791624 -45.538299 
L 105.105824 -45.538299 
L 104.420024 -45.538299 
L 103.734223 -45.538299 
L 103.048423 -45.538299 
L 102.362623 -45.538299 
L 101.676823 -45.538299 
L 100.991023 -45.538299 
L 100.305223 -45.538299 
L 99.619423 -45.538299 
L 98.933623 -45.538299 
L 98.247823 -45.538299 
L 97.562023 -45.538299 
L 96.876223 -45.538299 
L 96.190423 -45.538299 
L 95.504622 -45.538299 
L 94.818822 -45.538299 
L 94.133022 -45.538299 
L 93.447222 -45.538299 
L 92.761422 -45.538299 
L 92.075622 -45.538299 
L 91.389822 -45.538299 
L 90.704022 -45.538299 
L 90.018222 -45.538299 
L 89.332422 -45.538299 
L 88.646622 -45.538299 
L 87.960822 -45.538299 
L 87.275021 -45.538299 
L 86.589221 -45.538299 
L 85.903421 -45.538299 
L 85.217621 -45.538299 
L 84.531821 -45.538299 
L 83.846021 -45.538299 
L 83.160221 -45.538299 
L 82.474421 -45.538299 
L 81.788621 -45.538299 
L 81.102821 -45.538299 
L 80.417021 -45.538299 
L 79.731221 -45.538299 
L 79.04542 -45.538299 
L 78.35962 -45.538299 
L 77.67382 -45.538299 
L 76.98802 -45.538299 
L 76.30222 -45.538299 
L 75.61642 -45.538299 
L 74.93062 -45.538299 
L 74.24482 -45.538299 
L 73.55902 -45.538299 
L 72.87322 -45.538299 
L 72.18742 -45.538299 
L 71.50162 -45.538299 
L 70.815819 -45.538299 
L 70.130019 -45.538299 
L 69.444219 -45.538299 
L 68.758419 -45.538299 
L 68.072619 -45.538299 
L 67.386819 -45.538299 
L 66.701019 -45.538299 
L 66.015219 -45.538299 
L 65.329419 -45.538299 
L 64.643619 -45.538299 
L 63.957819 -45.538299 
L 63.272019 -45.538299 
L 62.586218 -45.538299 
L 61.900418 -45.538299 
L 61.214618 -45.538299 
L 60.528818 -45.538299 
L 59.843018 -45.538299 
L 59.157218 -45.538299 
L 58.471418 -45.538299 
L 57.785618 -45.538299 
z
" style="stroke: #4c78a8; stroke-opacity: 0.15"/>
    </defs>
    <g clip-path="url(#p73951ac949)">
     <use xlink:href="#m60a885ecbf" x="0" y="223.2" style="fill: #4c78a8; fill-opacity: 0.15; stroke: #4c78a8; stroke-opacity: 0.15"/>
    </g>
   </g>
   <g id="matplotlib.axis_1">
    <g id="xtick_1">
     <g id="line2d_1">
      <path d="M 48.845357 185 
L 48.845357 23.557422 
" clip-path="url(#p73951ac949)" style="fill: none; stroke: #b0b0b0; stroke-opacity: 0.25; stroke-width: 0.6; stroke-linecap: square"/>
     </g>
     <g id="line2d_2">
      <defs>
       <path id="m6a7b820310" d="M 0 0 
L 0 3.5 
" style="stroke: #000000; stroke-width: 0.8"/>
      </defs>
      <g>
       <use xlink:href="#m6a7b820310" x="48.845357" y="185" style="stroke: #000000; stroke-width: 0.8"/>
      </g>
     </g>
     <g id="text_1">
      <!-- 0 -->
      <g transform="translate(45.664107 199.597656) scale(0.1 -0.1)">
       <defs>
        <path id="DejaVuSans-13" d="M 2034 4250 
Q 1547 4250 1301 3770 
Q 1056 3291 1056 2328 
Q 1056 1369 1301 889 
Q 1547 409 2034 409 
Q 2525 409 2770 889 
Q 3016 1369 3016 2328 
Q 3016 3291 2770 3770 
Q 2525 4250 2034 4250 
z
M 2034 4750 
Q 2819 4750 3233 4129 
Q 3647 3509 3647 2328 
Q 3647 1150 3233 529 
Q 2819 -91 2034 -91 
Q 1250 -91 836 529 
Q 422 1150 422 2328 
Q 422 3509 836 4129 
Q 1250 4750 2034 4750 
z
" transform="scale(0.015625)"/>
       </defs>
       <use xlink:href="#DejaVuSans-13"/>
      </g>
     </g>
    </g>
    <g id="xtick_2">
     <g id="line2d_3">
      <path d="M 93.524307 185 
L 93.524307 23.557422 
" clip-path="url(#p73951ac949)" style="fill: none; stroke: #b0b0b0; stroke-opacity: 0.25; stroke-width: 0.6; stroke-linecap: square"/>
     </g>
     <g id="line2d_4">
      <g>
       <use xlink:href="#m6a7b820310" x="93.524307" y="185" style="stroke: #000000; stroke-width: 0.8"/>
      </g>
     </g>
     <g id="text_2">
      <!-- 5 -->
      <g transform="translate(90.343057 199.597656) scale(0.1 -0.1)">
       <defs>
        <path id="DejaVuSans-18" d="M 691 4666 
L 3169 4666 
L 3169 4134 
L 1269 4134 
L 1269 2991 
Q 1406 3038 1543 3061 
Q 1681 3084 1819 3084 
Q 2600 3084 3056 2656 
Q 3513 2228 3513 1497 
Q 3513 744 3044 326 
Q 2575 -91 1722 -91 
Q 1428 -91 1123 -41 
Q 819 9 494 109 
L 494 744 
Q 775 591 1075 516 
Q 1375 441 1709 441 
Q 2250 441 2565 725 
Q 2881 1009 2881 1497 
Q 2881 1984 2565 2268 
Q 2250 2553 1709 2553 
Q 1456 2553 1204 2497 
Q 953 2441 691 2322 
L 691 4666 
z
" transform="scale(0.015625)"/>
       </defs>
       <use xlink:href="#DejaVuSans-18"/>
      </g>
     </g>
    </g>
    <g id="xtick_3">
     <g id="line2d_5">
      <path d="M 138.203258 185 
L 138.203258 23.557422 
" clip-path="url(#p73951ac949)" style="fill: none; stroke: #b0b0b0; stroke-opacity: 0.25; stroke-width: 0.6; stroke-linecap: square"/>
     </g>
     <g id="line2d_6">
      <g>
       <use xlink:href="#m6a7b820310" x="138.203258" y="185" style="stroke: #000000; stroke-width: 0.8"/>
      </g>
     </g>
     <g id="text_3">
      <!-- 10 -->
      <g transform="translate(131.840758 199.597656) scale(0.1 -0.1)">
       <defs>
        <path id="DejaVuSans-14" d="M 794 531 
L 1825 531 
L 1825 4091 
L 703 3866 
L 703 4441 
L 1819 4666 
L 2450 4666 
L 2450 531 
L 3481 531 
L 3481 0 
L 794 0 
L 794 531 
z
" transform="scale(0.015625)"/>
       </defs>
       <use xlink:href="#DejaVuSans-14"/>
       <use xlink:href="#DejaVuSans-13" transform="translate(63.625 0)"/>
      </g>
     </g>
    </g>
    <g id="xtick_4">
     <g id="line2d_7">
      <path d="M 182.882208 185 
L 182.882208 23.557422 
" clip-path="url(#p73951ac949)" style="fill: none; stroke: #b0b0b0; stroke-opacity: 0.25; stroke-width: 0.6; stroke-linecap: square"/>
     </g>
     <g id="line2d_8">
      <g>
       <use xlink:href="#m6a7b820310" x="182.882208" y="185" style="stroke: #000000; stroke-width: 0.8"/>
      </g>
     </g>
     <g id="text_4">
      <!-- 15 -->
      <g transform="translate(176.519708 199.597656) scale(0.1 -0.1)">
       <use xlink:href="#DejaVuSans-14"/>
       <use xlink:href="#DejaVuSans-18" transform="translate(63.625 0)"/>
      </g>
     </g>
    </g>
    <g id="xtick_5">
     <g id="line2d_9">
      <path d="M 227.561159 185 
L 227.561159 23.557422 
" clip-path="url(#p73951ac949)" style="fill: none; stroke: #b0b0b0; stroke-opacity: 0.25; stroke-width: 0.6; stroke-linecap: square"/>
     </g>
     <g id="line2d_10">
      <g>
       <use xlink:href="#m6a7b820310" x="227.561159" y="185" style="stroke: #000000; stroke-width: 0.8"/>
      </g>
     </g>
     <g id="text_5">
      <!-- 20 -->
      <g transform="translate(221.198659 199.597656) scale(0.1 -0.1)">
       <defs>
        <path id="DejaVuSans-15" d="M 1228 531 
L 3431 531 
L 3431 0 
L 469 0 
L 469 531 
Q 828 903 1448 1529 
Q 2069 2156 2228 2338 
Q 2531 2678 2651 2914 
Q 2772 3150 2772 3378 
Q 2772 3750 2511 3984 
Q 2250 4219 1831 4219 
Q 1534 4219 1204 4116 
Q 875 4013 500 3803 
L 500 4441 
Q 881 4594 1212 4672 
Q 1544 4750 1819 4750 
Q 2544 4750 2975 4387 
Q 3406 4025 3406 3419 
Q 3406 3131 3298 2873 
Q 3191 2616 2906 2266 
Q 2828 2175 2409 1742 
Q 1991 1309 1228 531 
z
" transform="scale(0.015625)"/>
       </defs>
       <use xlink:href="#DejaVuSans-15"/>
       <use xlink:href="#DejaVuSans-13" transform="translate(63.625 0)"/>
      </g>
     </g>
    </g>
    <g id="xtick_6">
     <g id="line2d_11">
      <path d="M 272.240109 185 
L 272.240109 23.557422 
" clip-path="url(#p73951ac949)" style="fill: none; stroke: #b0b0b0; stroke-opacity: 0.25; stroke-width: 0.6; stroke-linecap: square"/>
     </g>
     <g id="line2d_12">
      <g>
       <use xlink:href="#m6a7b820310" x="272.240109" y="185" style="stroke: #000000; stroke-width: 0.8"/>
      </g>
     </g>
     <g id="text_6">
      <!-- 25 -->
      <g transform="translate(265.877609 199.597656) scale(0.1 -0.1)">
       <use xlink:href="#DejaVuSans-15"/>
       <use xlink:href="#DejaVuSans-18" transform="translate(63.625 0)"/>
      </g>
     </g>
    </g>
    <g id="xtick_7">
     <g id="line2d_13">
      <path d="M 316.91906 185 
L 316.91906 23.557422 
" clip-path="url(#p73951ac949)" style="fill: none; stroke: #b0b0b0; stroke-opacity: 0.25; stroke-width: 0.6; stroke-linecap: square"/>
     </g>
     <g id="line2d_14">
      <g>
       <use xlink:href="#m6a7b820310" x="316.91906" y="185" style="stroke: #000000; stroke-width: 0.8"/>
      </g>
     </g>
     <g id="text_7">
      <!-- 30 -->
      <g transform="translate(310.55656 199.597656) scale(0.1 -0.1)">
       <defs>
        <path id="DejaVuSans-16" d="M 2597 2516 
Q 3050 2419 3304 2112 
Q 3559 1806 3559 1356 
Q 3559 666 3084 287 
Q 2609 -91 1734 -91 
Q 1441 -91 1130 -33 
Q 819 25 488 141 
L 488 750 
Q 750 597 1062 519 
Q 1375 441 1716 441 
Q 2309 441 2620 675 
Q 2931 909 2931 1356 
Q 2931 1769 2642 2001 
Q 2353 2234 1838 2234 
L 1294 2234 
L 1294 2753 
L 1863 2753 
Q 2328 2753 2575 2939 
Q 2822 3125 2822 3475 
Q 2822 3834 2567 4026 
Q 2313 4219 1838 4219 
Q 1578 4219 1281 4162 
Q 984 4106 628 3988 
L 628 4550 
Q 988 4650 1302 4700 
Q 1616 4750 1894 4750 
Q 2613 4750 3031 4423 
Q 3450 4097 3450 3541 
Q 3450 3153 3228 2886 
Q 3006 2619 2597 2516 
z
" transform="scale(0.015625)"/>
       </defs>
       <use xlink:href="#DejaVuSans-16"/>
       <use xlink:href="#DejaVuSans-13" transform="translate(63.625 0)"/>
      </g>
     </g>
    </g>
    <g id="text_8">
     <!-- x -->
     <g transform="translate(191.643359 213.597656) scale(0.1 -0.1)">
      <defs>
       <path id="DejaVuSans-5b" d="M 3513 3500 
L 2247 1797 
L 3578 0 
L 2900 0 
L 1881 1375 
L 863 0 
L 184 0 
L 1544 1831 
L 300 3500 
L 978 3500 
L 1906 2253 
L 2834 3500 
L 3513 3500 
z
" transform="scale(0.015625)"/>
      </defs>
      <use xlink:href="#DejaVuSans-5b"/>
     </g>
    </g>
   </g>
   <g id="matplotlib.axis_2">
    <g id="ytick_1">
     <g id="line2d_15">
      <path d="M 44.103906 177.661701 
L 345.101562 177.661701 
" clip-path="url(#p73951ac949)" style="fill: none; stroke: #b0b0b0; stroke-opacity: 0.25; stroke-width: 0.6; stroke-linecap: square"/>
     </g>
     <g id="line2d_16">
      <defs>
       <path id="m0825b7d4d2" d="M 0 0 
L -3.5 0 
" style="stroke: #000000; stroke-width: 0.8"/>
      </defs>
      <g>
       <use xlink:href="#m0825b7d4d2" x="44.103906" y="177.661701" style="stroke: #000000; stroke-width: 0.8"/>
      </g>
     </g>
     <g id="text_9">
      <!-- 0.0 -->
      <g transform="translate(21.200781 181.460529) scale(0.1 -0.1)">
       <defs>
        <path id="DejaVuSans-11" d="M 684 794 
L 1344 794 
L 1344 0 
L 684 0 
L 684 794 
z
" transform="scale(0.015625)"/>
       </defs>
       <use xlink:href="#DejaVuSans-13"/>
       <use xlink:href="#DejaVuSans-11" transform="translate(63.625 0)"/>
       <use xlink:href="#DejaVuSans-13" transform="translate(95.40625 0)"/>
      </g>
     </g>
    </g>
    <g id="ytick_2">
     <g id="line2d_17">
      <path d="M 44.103906 140.9151 
L 345.101562 140.9151 
" clip-path="url(#p73951ac949)" style="fill: none; stroke: #b0b0b0; stroke-opacity: 0.25; stroke-width: 0.6; stroke-linecap: square"/>
     </g>
     <g id="line2d_18">
      <g>
       <use xlink:href="#m0825b7d4d2" x="44.103906" y="140.9151" style="stroke: #000000; stroke-width: 0.8"/>
      </g>
     </g>
     <g id="text_10">
      <!-- 0.5 -->
      <g transform="translate(21.200781 144.713928) scale(0.1 -0.1)">
       <use xlink:href="#DejaVuSans-13"/>
       <use xlink:href="#DejaVuSans-11" transform="translate(63.625 0)"/>
       <use xlink:href="#DejaVuSans-18" transform="translate(95.40625 0)"/>
      </g>
     </g>
    </g>
    <g id="ytick_3">
     <g id="line2d_19">
      <path d="M 44.103906 104.168499 
L 345.101562 104.168499 
" clip-path="url(#p73951ac949)" style="fill: none; stroke: #b0b0b0; stroke-opacity: 0.25; stroke-width: 0.6; stroke-linecap: square"/>
     </g>
     <g id="line2d_20">
      <g>
       <use xlink:href="#m0825b7d4d2" x="44.103906" y="104.168499" style="stroke: #000000; stroke-width: 0.8"/>
      </g>
     </g>
     <g id="text_11">
      <!-- 1.0 -->
      <g transform="translate(21.200781 107.967327) scale(0.1 -0.1)">
       <use xlink:href="#DejaVuSans-14"/>
       <use xlink:href="#DejaVuSans-11" transform="translate(63.625 0)"/>
       <use xlink:href="#DejaVuSans-13" transform="translate(95.40625 0)"/>
      </g>
     </g>
    </g>
    <g id="ytick_4">
     <g id="line2d_21">
      <path d="M 44.103906 67.421898 
L 345.101562 67.421898 
" clip-path="url(#p73951ac949)" style="fill: none; stroke: #b0b0b0; stroke-opacity: 0.25; stroke-width: 0.6; stroke-linecap: square"/>
     </g>
     <g id="line2d_22">
      <g>
       <use xlink:href="#m0825b7d4d2" x="44.103906" y="67.421898" style="stroke: #000000; stroke-width: 0.8"/>
      </g>
     </g>
     <g id="text_12">
      <!-- 1.5 -->
      <g transform="translate(21.200781 71.220726) scale(0.1 -0.1)">
       <use xlink:href="#DejaVuSans-14"/>
       <use xlink:href="#DejaVuSans-11" transform="translate(63.625 0)"/>
       <use xlink:href="#DejaVuSans-18" transform="translate(95.40625 0)"/>
      </g>
     </g>
    </g>
    <g id="ytick_5">
     <g id="line2d_23">
      <path d="M 44.103906 30.675296 
L 345.101562 30.675296 
" clip-path="url(#p73951ac949)" style="fill: none; stroke: #b0b0b0; stroke-opacity: 0.25; stroke-width: 0.6; stroke-linecap: square"/>
     </g>
     <g id="line2d_24">
      <g>
       <use xlink:href="#m0825b7d4d2" x="44.103906" y="30.675296" style="stroke: #000000; stroke-width: 0.8"/>
      </g>
     </g>
     <g id="text_13">
      <!-- 2.0 -->
      <g transform="translate(21.200781 34.474125) scale(0.1 -0.1)">
       <use xlink:href="#DejaVuSans-15"/>
       <use xlink:href="#DejaVuSans-11" transform="translate(63.625 0)"/>
       <use xlink:href="#DejaVuSans-13" transform="translate(95.40625 0)"/>
      </g>
     </g>
    </g>
    <g id="text_14">
     <!-- f(x) -->
     <g transform="translate(14.798438 112.899805) rotate(-90) scale(0.1 -0.1)">
      <defs>
       <path id="DejaVuSans-49" d="M 2375 4863 
L 2375 4384 
L 1825 4384 
Q 1516 4384 1395 4259 
Q 1275 4134 1275 3809 
L 1275 3500 
L 2222 3500 
L 2222 3053 
L 1275 3053 
L 1275 0 
L 697 0 
L 697 3053 
L 147 3053 
L 147 3500 
L 697 3500 
L 697 3744 
Q 697 4328 969 4595 
Q 1241 4863 1831 4863 
L 2375 4863 
z
" transform="scale(0.015625)"/>
       <path id="DejaVuSans-b" d="M 1984 4856 
Q 1566 4138 1362 3434 
Q 1159 2731 1159 2009 
Q 1159 1288 1364 580 
Q 1569 -128 1984 -844 
L 1484 -844 
Q 1016 -109 783 600 
Q 550 1309 550 2009 
Q 550 2706 781 3412 
Q 1013 4119 1484 4856 
L 1984 4856 
z
" transform="scale(0.015625)"/>
       <path id="DejaVuSans-c" d="M 513 4856 
L 1013 4856 
Q 1481 4119 1714 3412 
Q 1947 2706 1947 2009 
Q 1947 1309 1714 600 
Q 1481 -109 1013 -844 
L 513 -844 
Q 928 -128 1133 580 
Q 1338 1288 1338 2009 
Q 1338 2731 1133 3434 
Q 928 4138 513 4856 
z
" transform="scale(0.015625)"/>
      </defs>
      <use xlink:href="#DejaVuSans-49"/>
      <use xlink:href="#DejaVuSans-b" transform="translate(35.203125 0)"/>
      <use xlink:href="#DejaVuSans-5b" transform="translate(74.21875 0)"/>
      <use xlink:href="#DejaVuSans-c" transform="translate(133.40625 0)"/>
     </g>
    </g>
   </g>
   <g id="line2d_25">
    <path d="M 57.785618 30.895721 
L 58.471418 60.082594 
L 59.157218 82.016138 
L 59.843018 98.81655 
L 60.528818 111.901758 
L 61.214618 122.244485 
L 61.900418 130.527164 
L 62.586218 137.238182 
L 63.272019 142.733319 
L 63.957819 147.275922 
L 65.329419 154.247286 
L 66.701019 159.239219 
L 68.072619 162.907229 
L 69.444219 165.662666 
L 70.815819 167.772563 
L 72.18742 169.415416 
L 73.55902 170.713623 
L 74.93062 171.753022 
L 76.98802 172.956475 
L 79.04542 173.854091 
L 81.788621 174.728268 
L 84.531821 175.354075 
L 87.960822 175.909312 
L 92.761422 176.423458 
L 98.933623 176.827121 
L 107.849024 177.15115 
L 121.565026 177.388979 
L 145.568028 177.545799 
L 201.117835 177.631997 
L 331.419851 177.657053 
L 331.419851 177.657053 
" clip-path="url(#p73951ac949)" style="fill: none; stroke: #4c78a8; stroke-width: 2; stroke-linecap: square"/>
   </g>
   <g id="patch_3">
    <path d="M 44.103906 185 
L 44.103906 23.557422 
" style="fill: none; stroke: #000000; stroke-width: 0.8; stroke-linejoin: miter; stroke-linecap: square"/>
   </g>
   <g id="patch_4">
    <path d="M 44.103906 185 
L 345.101562 185 
" style="fill: none; stroke: #000000; stroke-width: 0.8; stroke-linejoin: miter; stroke-linecap: square"/>
   </g>
   <g id="text_15">
    <!-- Pareto -->
    <g transform="translate(177.117031 15.557422) scale(0.11 -0.11)">
     <defs>
      <path id="DejaVuSans-33" d="M 1259 4147 
L 1259 2394 
L 2053 2394 
Q 2494 2394 2734 2622 
Q 2975 2850 2975 3272 
Q 2975 3691 2734 3919 
Q 2494 4147 2053 4147 
L 1259 4147 
z
M 628 4666 
L 2053 4666 
Q 2838 4666 3239 4311 
Q 3641 3956 3641 3272 
Q 3641 2581 3239 2228 
Q 2838 1875 2053 1875 
L 1259 1875 
L 1259 0 
L 628 0 
L 628 4666 
z
" transform="scale(0.015625)"/>
      <path id="DejaVuSans-44" d="M 2194 1759 
Q 1497 1759 1228 1600 
Q 959 1441 959 1056 
Q 959 750 1161 570 
Q 1363 391 1709 391 
Q 2188 391 2477 730 
Q 2766 1069 2766 1631 
L 2766 1759 
L 2194 1759 
z
M 3341 1997 
L 3341 0 
L 2766 0 
L 2766 531 
Q 2569 213 2275 61 
Q 1981 -91 1556 -91 
Q 1019 -91 701 211 
Q 384 513 384 1019 
Q 384 1609 779 1909 
Q 1175 2209 1959 2209 
L 2766 2209 
L 2766 2266 
Q 2766 2663 2505 2880 
Q 2244 3097 1772 3097 
Q 1472 3097 1187 3025 
Q 903 2953 641 2809 
L 641 3341 
Q 956 3463 1253 3523 
Q 1550 3584 1831 3584 
Q 2591 3584 2966 3190 
Q 3341 2797 3341 1997 
z
" transform="scale(0.015625)"/>
      <path id="DejaVuSans-55" d="M 2631 2963 
Q 2534 3019 2420 3045 
Q 2306 3072 2169 3072 
Q 1681 3072 1420 2755 
Q 1159 2438 1159 1844 
L 1159 0 
L 581 0 
L 581 3500 
L 1159 3500 
L 1159 2956 
Q 1341 3275 1631 3429 
Q 1922 3584 2338 3584 
Q 2397 3584 2469 3576 
Q 2541 3569 2628 3553 
L 2631 2963 
z
" transform="scale(0.015625)"/>
      <path id="DejaVuSans-48" d="M 3597 1894 
L 3597 1613 
L 953 1613 
Q 991 1019 1311 708 
Q 1631 397 2203 397 
Q 2534 397 2845 478 
Q 3156 559 3463 722 
L 3463 178 
Q 3153 47 2828 -22 
Q 2503 -91 2169 -91 
Q 1331 -91 842 396 
Q 353 884 353 1716 
Q 353 2575 817 3079 
Q 1281 3584 2069 3584 
Q 2775 3584 3186 3129 
Q 3597 2675 3597 1894 
z
M 3022 2063 
Q 3016 2534 2758 2815 
Q 2500 3097 2075 3097 
Q 1594 3097 1305 2825 
Q 1016 2553 972 2059 
L 3022 2063 
z
" transform="scale(0.015625)"/>
      <path id="DejaVuSans-57" d="M 1172 4494 
L 1172 3500 
L 2356 3500 
L 2356 3053 
L 1172 3053 
L 1172 1153 
Q 1172 725 1289 603 
Q 1406 481 1766 481 
L 2356 481 
L 2356 0 
L 1766 0 
Q 1100 0 847 248 
Q 594 497 594 1153 
L 594 3053 
L 172 3053 
L 172 3500 
L 594 3500 
L 594 4494 
L 1172 4494 
z
" transform="scale(0.015625)"/>
      <path id="DejaVuSans-52" d="M 1959 3097 
Q 1497 3097 1228 2736 
Q 959 2375 959 1747 
Q 959 1119 1226 758 
Q 1494 397 1959 397 
Q 2419 397 2687 759 
Q 2956 1122 2956 1747 
Q 2956 2369 2687 2733 
Q 2419 3097 1959 3097 
z
M 1959 3584 
Q 2709 3584 3137 3096 
Q 3566 2609 3566 1747 
Q 3566 888 3137 398 
Q 2709 -91 1959 -91 
Q 1206 -91 779 398 
Q 353 888 353 1747 
Q 353 2609 779 3096 
Q 1206 3584 1959 3584 
z
" transform="scale(0.015625)"/>
     </defs>
     <use xlink:href="#DejaVuSans-33"/>
     <use xlink:href="#DejaVuSans-44" transform="translate(55.8125 0)"/>
     <use xlink:href="#DejaVuSans-55" transform="translate(117.09375 0)"/>
     <use xlink:href="#DejaVuSans-48" transform="translate(156 0)"/>
     <use xlink:href="#DejaVuSans-57" transform="translate(217.53125 0)"/>
     <use xlink:href="#DejaVuSans-52" transform="translate(256.734375 0)"/>
    </g>
   </g>
  </g>
 </g>
 <defs>
  <clipPath id="p73951ac949">
   <rect x="44.103906" y="23.557422" width="300.997656" height="161.442578"/>
  </clipPath>
 </defs>
</svg>
