<?xml version="1.0" encoding="utf-8" standalone="no"?>
<!DOCTYPE svg PUBLIC "-//W3C//DTD SVG 1.1//EN"
  "http://www.w3.org/Graphics/SVG/1.1/DTD/svg11.dtd">
<svg xmlns:xlink="http://www.w3.org/1999/xlink" width="351.743901pt" height="222.956719pt" viewBox="0 0 351.743901 222.956719" xmlns="http://www.w3.org/2000/svg" version="1.1">
 <metadata>
  <rdf:RDF xmlns:dc="http://purl.org/dc/elements/1.1/" xmlns:cc="http://creativecommons.org/ns#" xmlns:rdf="http://www.w3.org/1999/02/22-rdf-syntax-ns#">
   <cc:Work>
    <dc:type rdf:resource="http://purl.org/dc/dcmitype/StillImage"/>
    <dc:date>2026-07-05T02:24:30.429018</dc:date>
    <dc:format>image/svg+xml</dc:format>
    <dc:creator>
     <cc:Agent>
      <dc:title>Matplotlib v3.11.0, https://matplotlib.org/</dc:title>
     </cc:Agent>
    </dc:creator>
   </cc:Work>
  </rdf:RDF>
 </metadata>
 <defs>
  <style type="text/css">*{stroke-linejoin: round; stroke-linecap: butt}</style>
 </defs>
 <g id="figure_1">
  <g id="patch_1">
   <path d="M 0 222.956719 
L 351.743901 222.956719 
L 351.743901 0 
L 0 0 
z
" style="fill: #ffffff"/>
  </g>
  <g id="axes_1">
   <g id="patch_2">
    <path d="M 50.466406 184.755938 
L 340.377699 184.755938 
L 340.377699 23.558281 
L 50.466406 23.558281 
z
" style="fill: #ffffff"/>
   </g>
   <g id="matplotlib.axis_1">
    <g id="xtick_1">
     <g id="line2d_1">
      <path d="M 63.644192 184.755938 
L 63.644192 23.558281 
" clip-path="url(#p6f456d91ea)" style="fill: none; stroke: #b0b0b0; stroke-opacity: 0.25; stroke-width: 0.6; stroke-linecap: square"/>
     </g>
     <g id="line2d_2">
      <defs>
       <path id="ma4b3b59c6a" d="M 0 0 
L 0 3.5 
" style="stroke: #000000; stroke-width: 0.8"/>
      </defs>
      <g>
       <use xlink:href="#ma4b3b59c6a" x="63.644192" y="184.755938" style="stroke: #000000; stroke-width: 0.8"/>
      </g>
     </g>
     <g id="text_1">
      <!-- 0 -->
      <g transform="translate(60.462942 199.353594) scale(0.1 -0.1)">
       <defs>
        <path id="DejaVuSans-13" d="M 2034 4250 
Q 1547 4250 1301 3770 
Q 1056 3291 1056 2328 
Q 1056 1369 1301 889 
Q 1547 409 2034 409 
Q 2525 409 2770 889 
Q 3016 1369 3016 2328 
Q 3016 3291 2770 3770 
Q 2525 4250 2034 4250 
z
M 2034 4750 
Q 2819 4750 3233 4129 
Q 3647 3509 3647 2328 
Q 3647 1150 3233 529 
Q 2819 -91 2034 -91 
Q 1250 -91 836 529 
Q 422 1150 422 2328 
Q 422 3509 836 4129 
Q 1250 4750 2034 4750 
z
" transform="scale(0.015625)"/>
       </defs>
       <use xlink:href="#DejaVuSans-13"/>
      </g>
     </g>
    </g>
    <g id="xtick_2">
     <g id="line2d_3">
      <path d="M 118.551634 184.755938 
L 118.551634 23.558281 
" clip-path="url(#p6f456d91ea)" style="fill: none; stroke: #b0b0b0; stroke-opacity: 0.25; stroke-width: 0.6; stroke-linecap: square"/>
     </g>
     <g id="line2d_4">
      <g>
       <use xlink:href="#ma4b3b59c6a" x="118.551634" y="184.755938" style="stroke: #000000; stroke-width: 0.8"/>
      </g>
     </g>
     <g id="text_2">
      <!-- 5 -->
      <g transform="translate(115.370384 199.353594) scale(0.1 -0.1)">
       <defs>
        <path id="DejaVuSans-18" d="M 691 4666 
L 3169 4666 
L 3169 4134 
L 1269 4134 
L 1269 2991 
Q 1406 3038 1543 3061 
Q 1681 3084 1819 3084 
Q 2600 3084 3056 2656 
Q 3513 2228 3513 1497 
Q 3513 744 3044 326 
Q 2575 -91 1722 -91 
Q 1428 -91 1123 -41 
Q 819 9 494 109 
L 494 744 
Q 775 591 1075 516 
Q 1375 441 1709 441 
Q 2250 441 2565 725 
Q 2881 1009 2881 1497 
Q 2881 1984 2565 2268 
Q 2250 2553 1709 2553 
Q 1456 2553 1204 2497 
Q 953 2441 691 2322 
L 691 4666 
z
" transform="scale(0.015625)"/>
       </defs>
       <use xlink:href="#DejaVuSans-18"/>
      </g>
     </g>
    </g>
    <g id="xtick_3">
     <g id="line2d_5">
      <path d="M 173.459076 184.755938 
L 173.459076 23.558281 
" clip-path="url(#p6f456d91ea)" style="fill: none; stroke: #b0b0b0; stroke-opacity: 0.25; stroke-width: 0.6; stroke-linecap: square"/>
     </g>
     <g id="line2d_6">
      <g>
       <use xlink:href="#ma4b3b59c6a" x="173.459076" y="184.755938" style="stroke: #000000; stroke-width: 0.8"/>
      </g>
     </g>
     <g id="text_3">
      <!-- 10 -->
      <g transform="translate(167.096576 199.353594) scale(0.1 -0.1)">
       <defs>
        <path id="DejaVuSans-14" d="M 794 531 
L 1825 531 
L 1825 4091 
L 703 3866 
L 703 4441 
L 1819 4666 
L 2450 4666 
L 2450 531 
L 3481 531 
L 3481 0 
L 794 0 
L 794 531 
z
" transform="scale(0.015625)"/>
       </defs>
       <use xlink:href="#DejaVuSans-14"/>
       <use xlink:href="#DejaVuSans-13" transform="translate(63.625 0)"/>
      </g>
     </g>
    </g>
    <g id="xtick_4">
     <g id="line2d_7">
      <path d="M 228.366518 184.755938 
L 228.366518 23.558281 
" clip-path="url(#p6f456d91ea)" style="fill: none; stroke: #b0b0b0; stroke-opacity: 0.25; stroke-width: 0.6; stroke-linecap: square"/>
     </g>
     <g id="line2d_8">
      <g>
       <use xlink:href="#ma4b3b59c6a" x="228.366518" y="184.755938" style="stroke: #000000; stroke-width: 0.8"/>
      </g>
     </g>
     <g id="text_4">
      <!-- 15 -->
      <g transform="translate(222.004018 199.353594) scale(0.1 -0.1)">
       <use xlink:href="#DejaVuSans-14"/>
       <use xlink:href="#DejaVuSans-18" transform="translate(63.625 0)"/>
      </g>
     </g>
    </g>
    <g id="xtick_5">
     <g id="line2d_9">
      <path d="M 283.273959 184.755938 
L 283.273959 23.558281 
" clip-path="url(#p6f456d91ea)" style="fill: none; stroke: #b0b0b0; stroke-opacity: 0.25; stroke-width: 0.6; stroke-linecap: square"/>
     </g>
     <g id="line2d_10">
      <g>
       <use xlink:href="#ma4b3b59c6a" x="283.273959" y="184.755938" style="stroke: #000000; stroke-width: 0.8"/>
      </g>
     </g>
     <g id="text_5">
      <!-- 20 -->
      <g transform="translate(276.911459 199.353594) scale(0.1 -0.1)">
       <defs>
        <path id="DejaVuSans-15" d="M 1228 531 
L 3431 531 
L 3431 0 
L 469 0 
L 469 531 
Q 828 903 1448 1529 
Q 2069 2156 2228 2338 
Q 2531 2678 2651 2914 
Q 2772 3150 2772 3378 
Q 2772 3750 2511 3984 
Q 2250 4219 1831 4219 
Q 1534 4219 1204 4116 
Q 875 4013 500 3803 
L 500 4441 
Q 881 4594 1212 4672 
Q 1544 4750 1819 4750 
Q 2544 4750 2975 4387 
Q 3406 4025 3406 3419 
Q 3406 3131 3298 2873 
Q 3191 2616 2906 2266 
Q 2828 2175 2409 1742 
Q 1991 1309 1228 531 
z
" transform="scale(0.015625)"/>
       </defs>
       <use xlink:href="#DejaVuSans-15"/>
       <use xlink:href="#DejaVuSans-13" transform="translate(63.625 0)"/>
      </g>
     </g>
    </g>
    <g id="xtick_6">
     <g id="line2d_11">
      <path d="M 338.181401 184.755938 
L 338.181401 23.558281 
" clip-path="url(#p6f456d91ea)" style="fill: none; stroke: #b0b0b0; stroke-opacity: 0.25; stroke-width: 0.6; stroke-linecap: square"/>
     </g>
     <g id="line2d_12">
      <g>
       <use xlink:href="#ma4b3b59c6a" x="338.181401" y="184.755938" style="stroke: #000000; stroke-width: 0.8"/>
      </g>
     </g>
     <g id="text_6">
      <!-- 25 -->
      <g transform="translate(331.818901 199.353594) scale(0.1 -0.1)">
       <use xlink:href="#DejaVuSans-15"/>
       <use xlink:href="#DejaVuSans-18" transform="translate(63.625 0)"/>
      </g>
     </g>
    </g>
    <g id="text_7">
     <!-- k -->
     <g transform="translate(192.52674 213.354375) scale(0.1 -0.1)">
      <defs>
       <path id="DejaVuSans-4e" d="M 581 4863 
L 1159 4863 
L 1159 1991 
L 2875 3500 
L 3609 3500 
L 1753 1863 
L 3688 0 
L 2938 0 
L 1159 1709 
L 1159 0 
L 581 0 
L 581 4863 
z
" transform="scale(0.015625)"/>
      </defs>
      <use xlink:href="#DejaVuSans-4e"/>
     </g>
    </g>
   </g>
   <g id="matplotlib.axis_2">
    <g id="ytick_1">
     <g id="line2d_13">
      <path d="M 50.466406 177.428771 
L 340.377699 177.428771 
" clip-path="url(#p6f456d91ea)" style="fill: none; stroke: #b0b0b0; stroke-opacity: 0.25; stroke-width: 0.6; stroke-linecap: square"/>
     </g>
     <g id="line2d_14">
      <defs>
       <path id="m1b1059b690" d="M 0 0 
L -3.5 0 
" style="stroke: #000000; stroke-width: 0.8"/>
      </defs>
      <g>
       <use xlink:href="#m1b1059b690" x="50.466406" y="177.428771" style="stroke: #000000; stroke-width: 0.8"/>
      </g>
     </g>
     <g id="text_8">
      <!-- 0.00 -->
      <g transform="translate(21.200781 181.227599) scale(0.1 -0.1)">
       <defs>
        <path id="DejaVuSans-11" d="M 684 794 
L 1344 794 
L 1344 0 
L 684 0 
L 684 794 
z
" transform="scale(0.015625)"/>
       </defs>
       <use xlink:href="#DejaVuSans-13"/>
       <use xlink:href="#DejaVuSans-11" transform="translate(63.625 0)"/>
       <use xlink:href="#DejaVuSans-13" transform="translate(95.40625 0)"/>
       <use xlink:href="#DejaVuSans-13" transform="translate(159.03125 0)"/>
      </g>
     </g>
    </g>
    <g id="ytick_2">
     <g id="line2d_15">
      <path d="M 50.466406 139.92411 
L 340.377699 139.92411 
" clip-path="url(#p6f456d91ea)" style="fill: none; stroke: #b0b0b0; stroke-opacity: 0.25; stroke-width: 0.6; stroke-linecap: square"/>
     </g>
     <g id="line2d_16">
      <g>
       <use xlink:href="#m1b1059b690" x="50.466406" y="139.92411" style="stroke: #000000; stroke-width: 0.8"/>
      </g>
     </g>
     <g id="text_9">
      <!-- 0.05 -->
      <g transform="translate(21.200781 143.722938) scale(0.1 -0.1)">
       <use xlink:href="#DejaVuSans-13"/>
       <use xlink:href="#DejaVuSans-11" transform="translate(63.625 0)"/>
       <use xlink:href="#DejaVuSans-13" transform="translate(95.40625 0)"/>
       <use xlink:href="#DejaVuSans-18" transform="translate(159.03125 0)"/>
      </g>
     </g>
    </g>
    <g id="ytick_3">
     <g id="line2d_17">
      <path d="M 50.466406 102.419449 
L 340.377699 102.419449 
" clip-path="url(#p6f456d91ea)" style="fill: none; stroke: #b0b0b0; stroke-opacity: 0.25; stroke-width: 0.6; stroke-linecap: square"/>
     </g>
     <g id="line2d_18">
      <g>
       <use xlink:href="#m1b1059b690" x="50.466406" y="102.419449" style="stroke: #000000; stroke-width: 0.8"/>
      </g>
     </g>
     <g id="text_10">
      <!-- 0.10 -->
      <g transform="translate(21.200781 106.218277) scale(0.1 -0.1)">
       <use xlink:href="#DejaVuSans-13"/>
       <use xlink:href="#DejaVuSans-11" transform="translate(63.625 0)"/>
       <use xlink:href="#DejaVuSans-14" transform="translate(95.40625 0)"/>
       <use xlink:href="#DejaVuSans-13" transform="translate(159.03125 0)"/>
      </g>
     </g>
    </g>
    <g id="ytick_4">
     <g id="line2d_19">
      <path d="M 50.466406 64.914788 
L 340.377699 64.914788 
" clip-path="url(#p6f456d91ea)" style="fill: none; stroke: #b0b0b0; stroke-opacity: 0.25; stroke-width: 0.6; stroke-linecap: square"/>
     </g>
     <g id="line2d_20">
      <g>
       <use xlink:href="#m1b1059b690" x="50.466406" y="64.914788" style="stroke: #000000; stroke-width: 0.8"/>
      </g>
     </g>
     <g id="text_11">
      <!-- 0.15 -->
      <g transform="translate(21.200781 68.713616) scale(0.1 -0.1)">
       <use xlink:href="#DejaVuSans-13"/>
       <use xlink:href="#DejaVuSans-11" transform="translate(63.625 0)"/>
       <use xlink:href="#DejaVuSans-14" transform="translate(95.40625 0)"/>
       <use xlink:href="#DejaVuSans-18" transform="translate(159.03125 0)"/>
      </g>
     </g>
    </g>
    <g id="ytick_5">
     <g id="line2d_21">
      <path d="M 50.466406 27.410127 
L 340.377699 27.410127 
" clip-path="url(#p6f456d91ea)" style="fill: none; stroke: #b0b0b0; stroke-opacity: 0.25; stroke-width: 0.6; stroke-linecap: square"/>
     </g>
     <g id="line2d_22">
      <g>
       <use xlink:href="#m1b1059b690" x="50.466406" y="27.410127" style="stroke: #000000; stroke-width: 0.8"/>
      </g>
     </g>
     <g id="text_12">
      <!-- 0.20 -->
      <g transform="translate(21.200781 31.208955) scale(0.1 -0.1)">
       <use xlink:href="#DejaVuSans-13"/>
       <use xlink:href="#DejaVuSans-11" transform="translate(63.625 0)"/>
       <use xlink:href="#DejaVuSans-15" transform="translate(95.40625 0)"/>
       <use xlink:href="#DejaVuSans-13" transform="translate(159.03125 0)"/>
      </g>
     </g>
    </g>
    <g id="text_13">
     <!-- P(X = k) -->
     <g transform="translate(14.798438 124.761797) rotate(-90) scale(0.1 -0.1)">
      <defs>
       <path id="DejaVuSans-33" d="M 1259 4147 
L 1259 2394 
L 2053 2394 
Q 2494 2394 2734 2622 
Q 2975 2850 2975 3272 
Q 2975 3691 2734 3919 
Q 2494 4147 2053 4147 
L 1259 4147 
z
M 628 4666 
L 2053 4666 
Q 2838 4666 3239 4311 
Q 3641 3956 3641 3272 
Q 3641 2581 3239 2228 
Q 2838 1875 2053 1875 
L 1259 1875 
L 1259 0 
L 628 0 
L 628 4666 
z
" transform="scale(0.015625)"/>
       <path id="DejaVuSans-b" d="M 1984 4856 
Q 1566 4138 1362 3434 
Q 1159 2731 1159 2009 
Q 1159 1288 1364 580 
Q 1569 -128 1984 -844 
L 1484 -844 
Q 1016 -109 783 600 
Q 550 1309 550 2009 
Q 550 2706 781 3412 
Q 1013 4119 1484 4856 
L 1984 4856 
z
" transform="scale(0.015625)"/>
       <path id="DejaVuSans-3b" d="M 403 4666 
L 1081 4666 
L 2241 2931 
L 3406 4666 
L 4084 4666 
L 2584 2425 
L 4184 0 
L 3506 0 
L 2194 1984 
L 872 0 
L 191 0 
L 1856 2491 
L 403 4666 
z
" transform="scale(0.015625)"/>
       <path id="DejaVuSans-3" transform="scale(0.015625)"/>
       <path id="DejaVuSans-20" d="M 678 2906 
L 4684 2906 
L 4684 2381 
L 678 2381 
L 678 2906 
z
M 678 1631 
L 4684 1631 
L 4684 1100 
L 678 1100 
L 678 1631 
z
" transform="scale(0.015625)"/>
       <path id="DejaVuSans-c" d="M 513 4856 
L 1013 4856 
Q 1481 4119 1714 3412 
Q 1947 2706 1947 2009 
Q 1947 1309 1714 600 
Q 1481 -109 1013 -844 
L 513 -844 
Q 928 -128 1133 580 
Q 1338 1288 1338 2009 
Q 1338 2731 1133 3434 
Q 928 4138 513 4856 
z
" transform="scale(0.015625)"/>
      </defs>
      <use xlink:href="#DejaVuSans-33"/>
      <use xlink:href="#DejaVuSans-b" transform="translate(60.296875 0)"/>
      <use xlink:href="#DejaVuSans-3b" transform="translate(99.3125 0)"/>
      <use xlink:href="#DejaVuSans-3" transform="translate(167.8125 0)"/>
      <use xlink:href="#DejaVuSans-20" transform="translate(199.59375 0)"/>
      <use xlink:href="#DejaVuSans-3" transform="translate(283.390625 0)"/>
      <use xlink:href="#DejaVuSans-4e" transform="translate(315.171875 0)"/>
      <use xlink:href="#DejaVuSans-c" transform="translate(373.078125 0)"/>
     </g>
    </g>
   </g>
   <g id="LineCollection_1">
    <path d="M 63.644192 177.428771 
L 63.644192 163.690335 
" clip-path="url(#p6f456d91ea)" style="fill: none; stroke: #4c78a8; stroke-width: 1.5"/>
    <path d="M 74.625681 177.428771 
L 74.625681 122.475025 
" clip-path="url(#p6f456d91ea)" style="fill: none; stroke: #4c78a8; stroke-width: 1.5"/>
    <path d="M 85.607169 177.428771 
L 85.607169 67.521278 
" clip-path="url(#p6f456d91ea)" style="fill: none; stroke: #4c78a8; stroke-width: 1.5"/>
    <path d="M 96.588657 177.428771 
L 96.588657 30.885447 
" clip-path="url(#p6f456d91ea)" style="fill: none; stroke: #4c78a8; stroke-width: 1.5"/>
    <path d="M 107.570146 177.428771 
L 107.570146 30.885447 
" clip-path="url(#p6f456d91ea)" style="fill: none; stroke: #4c78a8; stroke-width: 1.5"/>
    <path d="M 118.551634 177.428771 
L 118.551634 60.194112 
" clip-path="url(#p6f456d91ea)" style="fill: none; stroke: #4c78a8; stroke-width: 1.5"/>
    <path d="M 129.533122 177.428771 
L 129.533122 99.272332 
" clip-path="url(#p6f456d91ea)" style="fill: none; stroke: #4c78a8; stroke-width: 1.5"/>
    <path d="M 140.514611 177.428771 
L 140.514611 132.767949 
" clip-path="url(#p6f456d91ea)" style="fill: none; stroke: #4c78a8; stroke-width: 1.5"/>
    <path d="M 151.496099 177.428771 
L 151.496099 155.09836 
" clip-path="url(#p6f456d91ea)" style="fill: none; stroke: #4c78a8; stroke-width: 1.5"/>
    <path d="M 162.477587 177.428771 
L 162.477587 167.504144 
" clip-path="url(#p6f456d91ea)" style="fill: none; stroke: #4c78a8; stroke-width: 1.5"/>
    <path d="M 173.459076 177.428771 
L 173.459076 173.45892 
" clip-path="url(#p6f456d91ea)" style="fill: none; stroke: #4c78a8; stroke-width: 1.5"/>
    <path d="M 184.440564 177.428771 
L 184.440564 175.985189 
" clip-path="url(#p6f456d91ea)" style="fill: none; stroke: #4c78a8; stroke-width: 1.5"/>
    <path d="M 195.422053 177.428771 
L 195.422053 176.947577 
" clip-path="url(#p6f456d91ea)" style="fill: none; stroke: #4c78a8; stroke-width: 1.5"/>
    <path d="M 206.403541 177.428771 
L 206.403541 177.280712 
" clip-path="url(#p6f456d91ea)" style="fill: none; stroke: #4c78a8; stroke-width: 1.5"/>
    <path d="M 217.385029 177.428771 
L 217.385029 177.386469 
" clip-path="url(#p6f456d91ea)" style="fill: none; stroke: #4c78a8; stroke-width: 1.5"/>
    <path d="M 228.366518 177.428771 
L 228.366518 177.417491 
" clip-path="url(#p6f456d91ea)" style="fill: none; stroke: #4c78a8; stroke-width: 1.5"/>
    <path d="M 239.348006 177.428771 
L 239.348006 177.425951 
" clip-path="url(#p6f456d91ea)" style="fill: none; stroke: #4c78a8; stroke-width: 1.5"/>
    <path d="M 250.329494 177.428771 
L 250.329494 177.428108 
" clip-path="url(#p6f456d91ea)" style="fill: none; stroke: #4c78a8; stroke-width: 1.5"/>
    <path d="M 261.310983 177.428771 
L 261.310983 177.428624 
" clip-path="url(#p6f456d91ea)" style="fill: none; stroke: #4c78a8; stroke-width: 1.5"/>
    <path d="M 272.292471 177.428771 
L 272.292471 177.42874 
" clip-path="url(#p6f456d91ea)" style="fill: none; stroke: #4c78a8; stroke-width: 1.5"/>
    <path d="M 283.273959 177.428771 
L 283.273959 177.428765 
" clip-path="url(#p6f456d91ea)" style="fill: none; stroke: #4c78a8; stroke-width: 1.5"/>
    <path d="M 294.255448 177.428771 
L 294.255448 177.42877 
" clip-path="url(#p6f456d91ea)" style="fill: none; stroke: #4c78a8; stroke-width: 1.5"/>
    <path d="M 305.236936 177.428771 
L 305.236936 177.428771 
" clip-path="url(#p6f456d91ea)" style="fill: none; stroke: #4c78a8; stroke-width: 1.5"/>
    <path d="M 316.218424 177.428771 
L 316.218424 177.428771 
" clip-path="url(#p6f456d91ea)" style="fill: none; stroke: #4c78a8; stroke-width: 1.5"/>
    <path d="M 327.199913 177.428771 
L 327.199913 177.428771 
" clip-path="url(#p6f456d91ea)" style="fill: none; stroke: #4c78a8; stroke-width: 1.5"/>
   </g>
   <g id="line2d_23">
    <defs>
     <path id="m6172cb8aec" d="M 0 3 
C 0.795609 3 1.55874 2.683901 2.12132 2.12132 
C 2.683901 1.55874 3 0.795609 3 0 
C 3 -0.795609 2.683901 -1.55874 2.12132 -2.12132 
C 1.55874 -2.683901 0.795609 -3 0 -3 
C -0.795609 -3 -1.55874 -2.683901 -2.12132 -2.12132 
C -2.683901 -1.55874 -3 -0.795609 -3 0 
C -3 0.795609 -2.683901 1.55874 -2.12132 2.12132 
C -1.55874 2.683901 -0.795609 3 0 3 
z
" style="stroke: #4c78a8"/>
    </defs>
    <g clip-path="url(#p6f456d91ea)">
     <use xlink:href="#m6172cb8aec" x="63.644192" y="163.690335" style="fill: #4c78a8; stroke: #4c78a8"/>
     <use xlink:href="#m6172cb8aec" x="74.625681" y="122.475025" style="fill: #4c78a8; stroke: #4c78a8"/>
     <use xlink:href="#m6172cb8aec" x="85.607169" y="67.521278" style="fill: #4c78a8; stroke: #4c78a8"/>
     <use xlink:href="#m6172cb8aec" x="96.588657" y="30.885447" style="fill: #4c78a8; stroke: #4c78a8"/>
     <use xlink:href="#m6172cb8aec" x="107.570146" y="30.885447" style="fill: #4c78a8; stroke: #4c78a8"/>
     <use xlink:href="#m6172cb8aec" x="118.551634" y="60.194112" style="fill: #4c78a8; stroke: #4c78a8"/>
     <use xlink:href="#m6172cb8aec" x="129.533122" y="99.272332" style="fill: #4c78a8; stroke: #4c78a8"/>
     <use xlink:href="#m6172cb8aec" x="140.514611" y="132.767949" style="fill: #4c78a8; stroke: #4c78a8"/>
     <use xlink:href="#m6172cb8aec" x="151.496099" y="155.09836" style="fill: #4c78a8; stroke: #4c78a8"/>
     <use xlink:href="#m6172cb8aec" x="162.477587" y="167.504144" style="fill: #4c78a8; stroke: #4c78a8"/>
     <use xlink:href="#m6172cb8aec" x="173.459076" y="173.45892" style="fill: #4c78a8; stroke: #4c78a8"/>
     <use xlink:href="#m6172cb8aec" x="184.440564" y="175.985189" style="fill: #4c78a8; stroke: #4c78a8"/>
     <use xlink:href="#m6172cb8aec" x="195.422053" y="176.947577" style="fill: #4c78a8; stroke: #4c78a8"/>
     <use xlink:href="#m6172cb8aec" x="206.403541" y="177.280712" style="fill: #4c78a8; stroke: #4c78a8"/>
     <use xlink:href="#m6172cb8aec" x="217.385029" y="177.386469" style="fill: #4c78a8; stroke: #4c78a8"/>
     <use xlink:href="#m6172cb8aec" x="228.366518" y="177.417491" style="fill: #4c78a8; stroke: #4c78a8"/>
     <use xlink:href="#m6172cb8aec" x="239.348006" y="177.425951" style="fill: #4c78a8; stroke: #4c78a8"/>
     <use xlink:href="#m6172cb8aec" x="250.329494" y="177.428108" style="fill: #4c78a8; stroke: #4c78a8"/>
     <use xlink:href="#m6172cb8aec" x="261.310983" y="177.428624" style="fill: #4c78a8; stroke: #4c78a8"/>
     <use xlink:href="#m6172cb8aec" x="272.292471" y="177.42874" style="fill: #4c78a8; stroke: #4c78a8"/>
     <use xlink:href="#m6172cb8aec" x="283.273959" y="177.428765" style="fill: #4c78a8; stroke: #4c78a8"/>
     <use xlink:href="#m6172cb8aec" x="294.255448" y="177.42877" style="fill: #4c78a8; stroke: #4c78a8"/>
     <use xlink:href="#m6172cb8aec" x="305.236936" y="177.428771" style="fill: #4c78a8; stroke: #4c78a8"/>
     <use xlink:href="#m6172cb8aec" x="316.218424" y="177.428771" style="fill: #4c78a8; stroke: #4c78a8"/>
     <use xlink:href="#m6172cb8aec" x="327.199913" y="177.428771" style="fill: #4c78a8; stroke: #4c78a8"/>
    </g>
   </g>
   <g id="line2d_24"/>
   <g id="patch_3">
    <path d="M 50.466406 184.755938 
L 50.466406 23.558281 
" style="fill: none; stroke: #000000; stroke-width: 0.8; stroke-linejoin: miter; stroke-linecap: square"/>
   </g>
   <g id="patch_4">
    <path d="M 50.466406 184.755938 
L 340.377699 184.755938 
" style="fill: none; stroke: #000000; stroke-width: 0.8; stroke-linejoin: miter; stroke-linecap: square"/>
   </g>
   <g id="text_14">
    <!-- Poisson Binomial -->
    <g transform="translate(149.14299 15.558281) scale(0.11 -0.11)">
     <defs>
      <path id="DejaVuSans-52" d="M 1959 3097 
Q 1497 3097 1228 2736 
Q 959 2375 959 1747 
Q 959 1119 1226 758 
Q 1494 397 1959 397 
Q 2419 397 2687 759 
Q 2956 1122 2956 1747 
Q 2956 2369 2687 2733 
Q 2419 3097 1959 3097 
z
M 1959 3584 
Q 2709 3584 3137 3096 
Q 3566 2609 3566 1747 
Q 3566 888 3137 398 
Q 2709 -91 1959 -91 
Q 1206 -91 779 398 
Q 353 888 353 1747 
Q 353 2609 779 3096 
Q 1206 3584 1959 3584 
z
" transform="scale(0.015625)"/>
      <path id="DejaVuSans-4c" d="M 603 3500 
L 1178 3500 
L 1178 0 
L 603 0 
L 603 3500 
z
M 603 4863 
L 1178 4863 
L 1178 4134 
L 603 4134 
L 603 4863 
z
" transform="scale(0.015625)"/>
      <path id="DejaVuSans-56" d="M 2834 3397 
L 2834 2853 
Q 2591 2978 2328 3040 
Q 2066 3103 1784 3103 
Q 1356 3103 1142 2972 
Q 928 2841 928 2578 
Q 928 2378 1081 2264 
Q 1234 2150 1697 2047 
L 1894 2003 
Q 2506 1872 2764 1633 
Q 3022 1394 3022 966 
Q 3022 478 2636 193 
Q 2250 -91 1575 -91 
Q 1294 -91 989 -36 
Q 684 19 347 128 
L 347 722 
Q 666 556 975 473 
Q 1284 391 1588 391 
Q 1994 391 2212 530 
Q 2431 669 2431 922 
Q 2431 1156 2273 1281 
Q 2116 1406 1581 1522 
L 1381 1569 
Q 847 1681 609 1914 
Q 372 2147 372 2553 
Q 372 3047 722 3315 
Q 1072 3584 1716 3584 
Q 2034 3584 2315 3537 
Q 2597 3491 2834 3397 
z
" transform="scale(0.015625)"/>
      <path id="DejaVuSans-51" d="M 3513 2113 
L 3513 0 
L 2938 0 
L 2938 2094 
Q 2938 2591 2744 2837 
Q 2550 3084 2163 3084 
Q 1697 3084 1428 2787 
Q 1159 2491 1159 1978 
L 1159 0 
L 581 0 
L 581 3500 
L 1159 3500 
L 1159 2956 
Q 1366 3272 1645 3428 
Q 1925 3584 2291 3584 
Q 2894 3584 3203 3211 
Q 3513 2838 3513 2113 
z
" transform="scale(0.015625)"/>
      <path id="DejaVuSans-25" d="M 1259 2228 
L 1259 519 
L 2272 519 
Q 2781 519 3026 730 
Q 3272 941 3272 1375 
Q 3272 1813 3026 2020 
Q 2781 2228 2272 2228 
L 1259 2228 
z
M 1259 4147 
L 1259 2741 
L 2194 2741 
Q 2656 2741 2882 2914 
Q 3109 3088 3109 3444 
Q 3109 3797 2882 3972 
Q 2656 4147 2194 4147 
L 1259 4147 
z
M 628 4666 
L 2241 4666 
Q 2963 4666 3353 4366 
Q 3744 4066 3744 3513 
Q 3744 3084 3544 2831 
Q 3344 2578 2956 2516 
Q 3422 2416 3680 2098 
Q 3938 1781 3938 1306 
Q 3938 681 3513 340 
Q 3088 0 2303 0 
L 628 0 
L 628 4666 
z
" transform="scale(0.015625)"/>
      <path id="DejaVuSans-50" d="M 3328 2828 
Q 3544 3216 3844 3400 
Q 4144 3584 4550 3584 
Q 5097 3584 5394 3201 
Q 5691 2819 5691 2113 
L 5691 0 
L 5113 0 
L 5113 2094 
Q 5113 2597 4934 2840 
Q 4756 3084 4391 3084 
Q 3944 3084 3684 2787 
Q 3425 2491 3425 1978 
L 3425 0 
L 2847 0 
L 2847 2094 
Q 2847 2600 2669 2842 
Q 2491 3084 2119 3084 
Q 1678 3084 1418 2786 
Q 1159 2488 1159 1978 
L 1159 0 
L 581 0 
L 581 3500 
L 1159 3500 
L 1159 2956 
Q 1356 3278 1631 3431 
Q 1906 3584 2284 3584 
Q 2666 3584 2933 3390 
Q 3200 3197 3328 2828 
z
" transform="scale(0.015625)"/>
      <path id="DejaVuSans-44" d="M 2194 1759 
Q 1497 1759 1228 1600 
Q 959 1441 959 1056 
Q 959 750 1161 570 
Q 1363 391 1709 391 
Q 2188 391 2477 730 
Q 2766 1069 2766 1631 
L 2766 1759 
L 2194 1759 
z
M 3341 1997 
L 3341 0 
L 2766 0 
L 2766 531 
Q 2569 213 2275 61 
Q 1981 -91 1556 -91 
Q 1019 -91 701 211 
Q 384 513 384 1019 
Q 384 1609 779 1909 
Q 1175 2209 1959 2209 
L 2766 2209 
L 2766 2266 
Q 2766 2663 2505 2880 
Q 2244 3097 1772 3097 
Q 1472 3097 1187 3025 
Q 903 2953 641 2809 
L 641 3341 
Q 956 3463 1253 3523 
Q 1550 3584 1831 3584 
Q 2591 3584 2966 3190 
Q 3341 2797 3341 1997 
z
" transform="scale(0.015625)"/>
      <path id="DejaVuSans-4f" d="M 603 4863 
L 1178 4863 
L 1178 0 
L 603 0 
L 603 4863 
z
" transform="scale(0.015625)"/>
     </defs>
     <use xlink:href="#DejaVuSans-33"/>
     <use xlink:href="#DejaVuSans-52" transform="translate(56.734375 0)"/>
     <use xlink:href="#DejaVuSans-4c" transform="translate(117.921875 0)"/>
     <use xlink:href="#DejaVuSans-56" transform="translate(145.703125 0)"/>
     <use xlink:href="#DejaVuSans-56" transform="translate(197.796875 0)"/>
     <use xlink:href="#DejaVuSans-52" transform="translate(249.890625 0)"/>
     <use xlink:href="#DejaVuSans-51" transform="translate(311.078125 0)"/>
     <use xlink:href="#DejaVuSans-3" transform="translate(374.453125 0)"/>
     <use xlink:href="#DejaVuSans-25" transform="translate(406.234375 0)"/>
     <use xlink:href="#DejaVuSans-4c" transform="translate(474.84375 0)"/>
     <use xlink:href="#DejaVuSans-51" transform="translate(502.625 0)"/>
     <use xlink:href="#DejaVuSans-52" transform="translate(566 0)"/>
     <use xlink:href="#DejaVuSans-50" transform="translate(627.1875 0)"/>
     <use xlink:href="#DejaVuSans-4c" transform="translate(724.59375 0)"/>
     <use xlink:href="#DejaVuSans-44" transform="translate(752.375 0)"/>
     <use xlink:href="#DejaVuSans-4f" transform="translate(813.65625 0)"/>
    </g>
   </g>
  </g>
 </g>
 <defs>
  <clipPath id="p6f456d91ea">
   <rect x="50.466406" y="23.558281" width="289.911293" height="161.197656"/>
  </clipPath>
 </defs>
</svg>
