<?xml version="1.0" encoding="utf-8" standalone="no"?>
<!DOCTYPE svg PUBLIC "-//W3C//DTD SVG 1.1//EN"
  "http://www.w3.org/Graphics/SVG/1.1/DTD/svg11.dtd">
<svg xmlns:xlink="http://www.w3.org/1999/xlink" width="352.064062pt" height="223.158281pt" viewBox="0 0 352.064062 223.158281" xmlns="http://www.w3.org/2000/svg" version="1.1">
 <metadata>
  <rdf:RDF xmlns:dc="http://purl.org/dc/elements/1.1/" xmlns:cc="http://creativecommons.org/ns#" xmlns:rdf="http://www.w3.org/1999/02/22-rdf-syntax-ns#">
   <cc:Work>
    <dc:type rdf:resource="http://purl.org/dc/dcmitype/StillImage"/>
    <dc:date>2026-07-05T02:24:30.908338</dc:date>
    <dc:format>image/svg+xml</dc:format>
    <dc:creator>
     <cc:Agent>
      <dc:title>Matplotlib v3.11.0, https://matplotlib.org/</dc:title>
     </cc:Agent>
    </dc:creator>
   </cc:Work>
  </rdf:RDF>
 </metadata>
 <defs>
  <style type="text/css">*{stroke-linejoin: round; stroke-linecap: butt}</style>
 </defs>
 <g id="figure_1">
  <g id="patch_1">
   <path d="M 0 223.158281 
L 352.064062 223.158281 
L 352.064062 0 
L 0 0 
z
" style="fill: #ffffff"/>
  </g>
  <g id="axes_1">
   <g id="patch_2">
    <path d="M 50.466406 184.958281 
L 344.864062 184.958281 
L 344.864062 23.558281 
L 50.466406 23.558281 
z
" style="fill: #ffffff"/>
   </g>
   <g id="FillBetweenPolyCollection_1">
    <defs>
     <path id="m989ec95d20" d="M 63.848118 -45.536364 
L 63.848118 -49.63736 
L 64.51888 -49.984323 
L 65.189643 -50.344916 
L 65.860405 -50.719068 
L 66.531168 -51.106705 
L 67.20193 -51.507749 
L 67.872693 -51.922123 
L 68.543455 -52.349743 
L 69.214218 -52.790526 
L 69.88498 -53.244384 
L 70.555743 -53.711227 
L 71.226505 -54.190963 
L 71.897268 -54.683497 
L 72.56803 -55.188732 
L 73.238793 -55.706568 
L 73.909555 -56.236902 
L 74.580318 -56.779629 
L 75.25108 -57.334643 
L 75.921843 -57.901833 
L 76.592605 -58.481087 
L 77.263368 -59.072291 
L 77.93413 -59.675328 
L 78.604893 -60.290078 
L 79.275655 -60.916419 
L 79.946418 -61.554229 
L 80.61718 -62.203381 
L 81.287943 -62.863746 
L 81.958705 -63.535194 
L 82.629468 -64.217592 
L 83.30023 -64.910805 
L 83.970993 -65.614696 
L 84.641755 -66.329126 
L 85.312518 -67.053954 
L 85.98328 -67.789035 
L 86.654043 -68.534225 
L 87.324805 -69.289377 
L 87.995567 -70.05434 
L 88.66633 -70.828965 
L 89.337092 -71.613096 
L 90.007855 -72.40658 
L 90.678617 -73.20926 
L 91.34938 -74.020977 
L 92.020142 -74.841569 
L 92.690905 -75.670876 
L 93.361667 -76.508732 
L 94.03243 -77.354973 
L 94.703192 -78.20943 
L 95.373955 -79.071936 
L 96.044717 -79.942318 
L 96.71548 -80.820406 
L 97.386242 -81.706025 
L 98.057005 -82.599 
L 98.727767 -83.499155 
L 99.39853 -84.406312 
L 100.069292 -85.320291 
L 100.740055 -86.240911 
L 101.410817 -87.167991 
L 102.08158 -88.101346 
L 102.752342 -89.040793 
L 103.423105 -89.986146 
L 104.093867 -90.937218 
L 104.76463 -91.89382 
L 105.435392 -92.855763 
L 106.106155 -93.822858 
L 106.776917 -94.794912 
L 107.44768 -95.771734 
L 108.118442 -96.753131 
L 108.789205 -97.738907 
L 109.459967 -98.728869 
L 110.13073 -99.722821 
L 110.801492 -100.720566 
L 111.472255 -101.721906 
L 112.143017 -102.726644 
L 112.81378 -103.73458 
L 113.484542 -104.745517 
L 114.155305 -105.759253 
L 114.826067 -106.775588 
L 115.49683 -107.794321 
L 116.167592 -108.815251 
L 116.838354 -109.838175 
L 117.509117 -110.862892 
L 118.179879 -111.889198 
L 118.850642 -112.916892 
L 119.521404 -113.945769 
L 120.192167 -114.975625 
L 120.862929 -116.006259 
L 121.533692 -117.037464 
L 122.204454 -118.069038 
L 122.875217 -119.100777 
L 123.545979 -120.132476 
L 124.216742 -121.163932 
L 124.887504 -122.19494 
L 125.558267 -123.225297 
L 126.229029 -124.254798 
L 126.899792 -125.28324 
L 127.570554 -126.310421 
L 128.241317 -127.336135 
L 128.912079 -128.360182 
L 129.582842 -129.382357 
L 130.253604 -130.40246 
L 130.924367 -131.420288 
L 131.595129 -132.43564 
L 132.265892 -133.448315 
L 132.936654 -134.458113 
L 133.607417 -135.464834 
L 134.278179 -136.468279 
L 134.948942 -137.468249 
L 135.619704 -138.464548 
L 136.290467 -139.456977 
L 136.961229 -140.445341 
L 137.631992 -141.429443 
L 138.302754 -142.40909 
L 138.973517 -143.384088 
L 139.644279 -144.354244 
L 140.315042 -145.319365 
L 140.985804 -146.279262 
L 141.656567 -147.233743 
L 142.327329 -148.182621 
L 142.998092 -149.125708 
L 143.668854 -150.062817 
L 144.339617 -150.993763 
L 145.010379 -151.918362 
L 145.681142 -152.836431 
L 146.351904 -153.747788 
L 147.022666 -154.652253 
L 147.693429 -155.549647 
L 148.364191 -156.439794 
L 149.034954 -157.322515 
L 149.705716 -158.197638 
L 150.376479 -159.064989 
L 151.047241 -159.924397 
L 151.718004 -160.77569 
L 152.388766 -161.618702 
L 153.059529 -162.453266 
L 153.730291 -163.279216 
L 154.401054 -164.096389 
L 155.071816 -164.904623 
L 155.742579 -165.703759 
L 156.413341 -166.493638 
L 157.084104 -167.274104 
L 157.754866 -168.045004 
L 158.425629 -168.806184 
L 159.096391 -169.557493 
L 159.767154 -170.298784 
L 160.437916 -171.02991 
L 161.108679 -171.750726 
L 161.779441 -172.461089 
L 162.450204 -173.16086 
L 163.120966 -173.849899 
L 163.791729 -174.52807 
L 164.462491 -175.19524 
L 165.133254 -175.851276 
L 165.804016 -176.496049 
L 166.474779 -177.12943 
L 167.145541 -177.751296 
L 167.816304 -178.361522 
L 168.487066 -178.959988 
L 169.157829 -179.546576 
L 169.828591 -180.121169 
L 170.499354 -180.683655 
L 171.170116 -181.233921 
L 171.840879 -181.77186 
L 172.511641 -182.297364 
L 173.182404 -182.81033 
L 173.853166 -183.310655 
L 174.523929 -183.798243 
L 175.194691 -184.272995 
L 175.865453 -184.734817 
L 176.536216 -185.18362 
L 177.206978 -185.619313 
L 177.877741 -186.041811 
L 178.548503 -186.45103 
L 179.219266 -186.846889 
L 179.890028 -187.229311 
L 180.560791 -187.598218 
L 181.231553 -187.953538 
L 181.902316 -188.295202 
L 182.573078 -188.623141 
L 183.243841 -188.937291 
L 183.914603 -189.237589 
L 184.585366 -189.523976 
L 185.256128 -189.796395 
L 185.926891 -190.054793 
L 186.597653 -190.299119 
L 187.268416 -190.529323 
L 187.939178 -190.745361 
L 188.609941 -190.94719 
L 189.280703 -191.13477 
L 189.951466 -191.308064 
L 190.622228 -191.467037 
L 191.292991 -191.611658 
L 191.963753 -191.741899 
L 192.634516 -191.857734 
L 193.305278 -191.959139 
L 193.976041 -192.046095 
L 194.646803 -192.118585 
L 195.317566 -192.176594 
L 195.988328 -192.220111 
L 196.659091 -192.249127 
L 197.329853 -192.263636 
L 198.000616 -192.263636 
L 198.671378 -192.249127 
L 199.342141 -192.220111 
L 200.012903 -192.176594 
L 200.683666 -192.118585 
L 201.354428 -192.046095 
L 202.025191 -191.959139 
L 202.695953 -191.857734 
L 203.366716 -191.741899 
L 204.037478 -191.611658 
L 204.708241 -191.467037 
L 205.379003 -191.308064 
L 206.049765 -191.13477 
L 206.720528 -190.94719 
L 207.39129 -190.745361 
L 208.062053 -190.529323 
L 208.732815 -190.299119 
L 209.403578 -190.054793 
L 210.07434 -189.796395 
L 210.745103 -189.523976 
L 211.415865 -189.237589 
L 212.086628 -188.937291 
L 212.75739 -188.623141 
L 213.428153 -188.295202 
L 214.098915 -187.953538 
L 214.769678 -187.598218 
L 215.44044 -187.229311 
L 216.111203 -186.846889 
L 216.781965 -186.45103 
L 217.452728 -186.041811 
L 218.12349 -185.619313 
L 218.794253 -185.18362 
L 219.465015 -184.734817 
L 220.135778 -184.272995 
L 220.80654 -183.798243 
L 221.477303 -183.310655 
L 222.148065 -182.81033 
L 222.818828 -182.297364 
L 223.48959 -181.77186 
L 224.160353 -181.233921 
L 224.831115 -180.683655 
L 225.501878 -180.121169 
L 226.17264 -179.546576 
L 226.843403 -178.959988 
L 227.514165 -178.361522 
L 228.184928 -177.751296 
L 228.85569 -177.12943 
L 229.526453 -176.496049 
L 230.197215 -175.851276 
L 230.867978 -175.19524 
L 231.53874 -174.52807 
L 232.209503 -173.849899 
L 232.880265 -173.16086 
L 233.551028 -172.461089 
L 234.22179 -171.750726 
L 234.892552 -171.02991 
L 235.563315 -170.298784 
L 236.234077 -169.557493 
L 236.90484 -168.806184 
L 237.575602 -168.045004 
L 238.246365 -167.274104 
L 238.917127 -166.493638 
L 239.58789 -165.703759 
L 240.258652 -164.904623 
L 240.929415 -164.096389 
L 241.600177 -163.279216 
L 242.27094 -162.453266 
L 242.941702 -161.618702 
L 243.612465 -160.77569 
L 244.283227 -159.924397 
L 244.95399 -159.064989 
L 245.624752 -158.197638 
L 246.295515 -157.322515 
L 246.966277 -156.439794 
L 247.63704 -155.549647 
L 248.307802 -154.652253 
L 248.978565 -153.747788 
L 249.649327 -152.836431 
L 250.32009 -151.918362 
L 250.990852 -150.993763 
L 251.661615 -150.062817 
L 252.332377 -149.125708 
L 253.00314 -148.182621 
L 253.673902 -147.233743 
L 254.344665 -146.279262 
L 255.015427 -145.319365 
L 255.68619 -144.354244 
L 256.356952 -143.384088 
L 257.027715 -142.40909 
L 257.698477 -141.429443 
L 258.36924 -140.445341 
L 259.040002 -139.456977 
L 259.710765 -138.464548 
L 260.381527 -137.468249 
L 261.05229 -136.468279 
L 261.723052 -135.464834 
L 262.393815 -134.458113 
L 263.064577 -133.448315 
L 263.73534 -132.43564 
L 264.406102 -131.420288 
L 265.076864 -130.40246 
L 265.747627 -129.382357 
L 266.418389 -128.360182 
L 267.089152 -127.336135 
L 267.759914 -126.310421 
L 268.430677 -125.28324 
L 269.101439 -124.254798 
L 269.772202 -123.225297 
L 270.442964 -122.19494 
L 271.113727 -121.163932 
L 271.784489 -120.132476 
L 272.455252 -119.100777 
L 273.126014 -118.069038 
L 273.796777 -117.037464 
L 274.467539 -116.006259 
L 275.138302 -114.975625 
L 275.809064 -113.945769 
L 276.479827 -112.916892 
L 277.150589 -111.889198 
L 277.821352 -110.862892 
L 278.492114 -109.838175 
L 279.162877 -108.815251 
L 279.833639 -107.794321 
L 280.504402 -106.775588 
L 281.175164 -105.759253 
L 281.845927 -104.745517 
L 282.516689 -103.73458 
L 283.187452 -102.726644 
L 283.858214 -101.721906 
L 284.528977 -100.720566 
L 285.199739 -99.722821 
L 285.870502 -98.728869 
L 286.541264 -97.738907 
L 287.212027 -96.753131 
L 287.882789 -95.771734 
L 288.553552 -94.794912 
L 289.224314 -93.822858 
L 289.895077 -92.855763 
L 290.565839 -91.89382 
L 291.236602 -90.937218 
L 291.907364 -89.986146 
L 292.578127 -89.040793 
L 293.248889 -88.101346 
L 293.919651 -87.167991 
L 294.590414 -86.240911 
L 295.261176 -85.320291 
L 295.931939 -84.406312 
L 296.602701 -83.499155 
L 297.273464 -82.599 
L 297.944226 -81.706025 
L 298.614989 -80.820406 
L 299.285751 -79.942318 
L 299.956514 -79.071936 
L 300.627276 -78.20943 
L 301.298039 -77.354973 
L 301.968801 -76.508732 
L 302.639564 -75.670876 
L 303.310326 -74.841569 
L 303.981089 -74.020977 
L 304.651851 -73.20926 
L 305.322614 -72.40658 
L 305.993376 -71.613096 
L 306.664139 -70.828965 
L 307.334901 -70.05434 
L 308.005664 -69.289377 
L 308.676426 -68.534225 
L 309.347189 -67.789035 
L 310.017951 -67.053954 
L 310.688714 -66.329126 
L 311.359476 -65.614696 
L 312.030239 -64.910805 
L 312.701001 -64.217592 
L 313.371764 -63.535194 
L 314.042526 -62.863746 
L 314.713289 -62.203381 
L 315.384051 -61.554229 
L 316.054814 -60.916419 
L 316.725576 -60.290078 
L 317.396339 -59.675328 
L 318.067101 -59.072291 
L 318.737864 -58.481087 
L 319.408626 -57.901833 
L 320.079389 -57.334643 
L 320.750151 -56.779629 
L 321.420914 -56.236902 
L 322.091676 -55.706568 
L 322.762439 -55.188732 
L 323.433201 -54.683497 
L 324.103963 -54.190963 
L 324.774726 -53.711227 
L 325.445488 -53.244384 
L 326.116251 -52.790526 
L 326.787013 -52.349743 
L 327.457776 -51.922123 
L 328.128538 -51.507749 
L 328.799301 -51.106705 
L 329.470063 -50.719068 
L 330.140826 -50.344916 
L 330.811588 -49.984323 
L 331.482351 -49.63736 
L 331.482351 -45.536364 
L 331.482351 -45.536364 
L 330.811588 -45.536364 
L 330.140826 -45.536364 
L 329.470063 -45.536364 
L 328.799301 -45.536364 
L 328.128538 -45.536364 
L 327.457776 -45.536364 
L 326.787013 -45.536364 
L 326.116251 -45.536364 
L 325.445488 -45.536364 
L 324.774726 -45.536364 
L 324.103963 -45.536364 
L 323.433201 -45.536364 
L 322.762439 -45.536364 
L 322.091676 -45.536364 
L 321.420914 -45.536364 
L 320.750151 -45.536364 
L 320.079389 -45.536364 
L 319.408626 -45.536364 
L 318.737864 -45.536364 
L 318.067101 -45.536364 
L 317.396339 -45.536364 
L 316.725576 -45.536364 
L 316.054814 -45.536364 
L 315.384051 -45.536364 
L 314.713289 -45.536364 
L 314.042526 -45.536364 
L 313.371764 -45.536364 
L 312.701001 -45.536364 
L 312.030239 -45.536364 
L 311.359476 -45.536364 
L 310.688714 -45.536364 
L 310.017951 -45.536364 
L 309.347189 -45.536364 
L 308.676426 -45.536364 
L 308.005664 -45.536364 
L 307.334901 -45.536364 
L 306.664139 -45.536364 
L 305.993376 -45.536364 
L 305.322614 -45.536364 
L 304.651851 -45.536364 
L 303.981089 -45.536364 
L 303.310326 -45.536364 
L 302.639564 -45.536364 
L 301.968801 -45.536364 
L 301.298039 -45.536364 
L 300.627276 -45.536364 
L 299.956514 -45.536364 
L 299.285751 -45.536364 
L 298.614989 -45.536364 
L 297.944226 -45.536364 
L 297.273464 -45.536364 
L 296.602701 -45.536364 
L 295.931939 -45.536364 
L 295.261176 -45.536364 
L 294.590414 -45.536364 
L 293.919651 -45.536364 
L 293.248889 -45.536364 
L 292.578127 -45.536364 
L 291.907364 -45.536364 
L 291.236602 -45.536364 
L 290.565839 -45.536364 
L 289.895077 -45.536364 
L 289.224314 -45.536364 
L 288.553552 -45.536364 
L 287.882789 -45.536364 
L 287.212027 -45.536364 
L 286.541264 -45.536364 
L 285.870502 -45.536364 
L 285.199739 -45.536364 
L 284.528977 -45.536364 
L 283.858214 -45.536364 
L 283.187452 -45.536364 
L 282.516689 -45.536364 
L 281.845927 -45.536364 
L 281.175164 -45.536364 
L 280.504402 -45.536364 
L 279.833639 -45.536364 
L 279.162877 -45.536364 
L 278.492114 -45.536364 
L 277.821352 -45.536364 
L 277.150589 -45.536364 
L 276.479827 -45.536364 
L 275.809064 -45.536364 
L 275.138302 -45.536364 
L 274.467539 -45.536364 
L 273.796777 -45.536364 
L 273.126014 -45.536364 
L 272.455252 -45.536364 
L 271.784489 -45.536364 
L 271.113727 -45.536364 
L 270.442964 -45.536364 
L 269.772202 -45.536364 
L 269.101439 -45.536364 
L 268.430677 -45.536364 
L 267.759914 -45.536364 
L 267.089152 -45.536364 
L 266.418389 -45.536364 
L 265.747627 -45.536364 
L 265.076864 -45.536364 
L 264.406102 -45.536364 
L 263.73534 -45.536364 
L 263.064577 -45.536364 
L 262.393815 -45.536364 
L 261.723052 -45.536364 
L 261.05229 -45.536364 
L 260.381527 -45.536364 
L 259.710765 -45.536364 
L 259.040002 -45.536364 
L 258.36924 -45.536364 
L 257.698477 -45.536364 
L 257.027715 -45.536364 
L 256.356952 -45.536364 
L 255.68619 -45.536364 
L 255.015427 -45.536364 
L 254.344665 -45.536364 
L 253.673902 -45.536364 
L 253.00314 -45.536364 
L 252.332377 -45.536364 
L 251.661615 -45.536364 
L 250.990852 -45.536364 
L 250.32009 -45.536364 
L 249.649327 -45.536364 
L 248.978565 -45.536364 
L 248.307802 -45.536364 
L 247.63704 -45.536364 
L 246.966277 -45.536364 
L 246.295515 -45.536364 
L 245.624752 -45.536364 
L 244.95399 -45.536364 
L 244.283227 -45.536364 
L 243.612465 -45.536364 
L 242.941702 -45.536364 
L 242.27094 -45.536364 
L 241.600177 -45.536364 
L 240.929415 -45.536364 
L 240.258652 -45.536364 
L 239.58789 -45.536364 
L 238.917127 -45.536364 
L 238.246365 -45.536364 
L 237.575602 -45.536364 
L 236.90484 -45.536364 
L 236.234077 -45.536364 
L 235.563315 -45.536364 
L 234.892552 -45.536364 
L 234.22179 -45.536364 
L 233.551028 -45.536364 
L 232.880265 -45.536364 
L 232.209503 -45.536364 
L 231.53874 -45.536364 
L 230.867978 -45.536364 
L 230.197215 -45.536364 
L 229.526453 -45.536364 
L 228.85569 -45.536364 
L 228.184928 -45.536364 
L 227.514165 -45.536364 
L 226.843403 -45.536364 
L 226.17264 -45.536364 
L 225.501878 -45.536364 
L 224.831115 -45.536364 
L 224.160353 -45.536364 
L 223.48959 -45.536364 
L 222.818828 -45.536364 
L 222.148065 -45.536364 
L 221.477303 -45.536364 
L 220.80654 -45.536364 
L 220.135778 -45.536364 
L 219.465015 -45.536364 
L 218.794253 -45.536364 
L 218.12349 -45.536364 
L 217.452728 -45.536364 
L 216.781965 -45.536364 
L 216.111203 -45.536364 
L 215.44044 -45.536364 
L 214.769678 -45.536364 
L 214.098915 -45.536364 
L 213.428153 -45.536364 
L 212.75739 -45.536364 
L 212.086628 -45.536364 
L 211.415865 -45.536364 
L 210.745103 -45.536364 
L 210.07434 -45.536364 
L 209.403578 -45.536364 
L 208.732815 -45.536364 
L 208.062053 -45.536364 
L 207.39129 -45.536364 
L 206.720528 -45.536364 
L 206.049765 -45.536364 
L 205.379003 -45.536364 
L 204.708241 -45.536364 
L 204.037478 -45.536364 
L 203.366716 -45.536364 
L 202.695953 -45.536364 
L 202.025191 -45.536364 
L 201.354428 -45.536364 
L 200.683666 -45.536364 
L 200.012903 -45.536364 
L 199.342141 -45.536364 
L 198.671378 -45.536364 
L 198.000616 -45.536364 
L 197.329853 -45.536364 
L 196.659091 -45.536364 
L 195.988328 -45.536364 
L 195.317566 -45.536364 
L 194.646803 -45.536364 
L 193.976041 -45.536364 
L 193.305278 -45.536364 
L 192.634516 -45.536364 
L 191.963753 -45.536364 
L 191.292991 -45.536364 
L 190.622228 -45.536364 
L 189.951466 -45.536364 
L 189.280703 -45.536364 
L 188.609941 -45.536364 
L 187.939178 -45.536364 
L 187.268416 -45.536364 
L 186.597653 -45.536364 
L 185.926891 -45.536364 
L 185.256128 -45.536364 
L 184.585366 -45.536364 
L 183.914603 -45.536364 
L 183.243841 -45.536364 
L 182.573078 -45.536364 
L 181.902316 -45.536364 
L 181.231553 -45.536364 
L 180.560791 -45.536364 
L 179.890028 -45.536364 
L 179.219266 -45.536364 
L 178.548503 -45.536364 
L 177.877741 -45.536364 
L 177.206978 -45.536364 
L 176.536216 -45.536364 
L 175.865453 -45.536364 
L 175.194691 -45.536364 
L 174.523929 -45.536364 
L 173.853166 -45.536364 
L 173.182404 -45.536364 
L 172.511641 -45.536364 
L 171.840879 -45.536364 
L 171.170116 -45.536364 
L 170.499354 -45.536364 
L 169.828591 -45.536364 
L 169.157829 -45.536364 
L 168.487066 -45.536364 
L 167.816304 -45.536364 
L 167.145541 -45.536364 
L 166.474779 -45.536364 
L 165.804016 -45.536364 
L 165.133254 -45.536364 
L 164.462491 -45.536364 
L 163.791729 -45.536364 
L 163.120966 -45.536364 
L 162.450204 -45.536364 
L 161.779441 -45.536364 
L 161.108679 -45.536364 
L 160.437916 -45.536364 
L 159.767154 -45.536364 
L 159.096391 -45.536364 
L 158.425629 -45.536364 
L 157.754866 -45.536364 
L 157.084104 -45.536364 
L 156.413341 -45.536364 
L 155.742579 -45.536364 
L 155.071816 -45.536364 
L 154.401054 -45.536364 
L 153.730291 -45.536364 
L 153.059529 -45.536364 
L 152.388766 -45.536364 
L 151.718004 -45.536364 
L 151.047241 -45.536364 
L 150.376479 -45.536364 
L 149.705716 -45.536364 
L 149.034954 -45.536364 
L 148.364191 -45.536364 
L 147.693429 -45.536364 
L 147.022666 -45.536364 
L 146.351904 -45.536364 
L 145.681142 -45.536364 
L 145.010379 -45.536364 
L 144.339617 -45.536364 
L 143.668854 -45.536364 
L 142.998092 -45.536364 
L 142.327329 -45.536364 
L 141.656567 -45.536364 
L 140.985804 -45.536364 
L 140.315042 -45.536364 
L 139.644279 -45.536364 
L 138.973517 -45.536364 
L 138.302754 -45.536364 
L 137.631992 -45.536364 
L 136.961229 -45.536364 
L 136.290467 -45.536364 
L 135.619704 -45.536364 
L 134.948942 -45.536364 
L 134.278179 -45.536364 
L 133.607417 -45.536364 
L 132.936654 -45.536364 
L 132.265892 -45.536364 
L 131.595129 -45.536364 
L 130.924367 -45.536364 
L 130.253604 -45.536364 
L 129.582842 -45.536364 
L 128.912079 -45.536364 
L 128.241317 -45.536364 
L 127.570554 -45.536364 
L 126.899792 -45.536364 
L 126.229029 -45.536364 
L 125.558267 -45.536364 
L 124.887504 -45.536364 
L 124.216742 -45.536364 
L 123.545979 -45.536364 
L 122.875217 -45.536364 
L 122.204454 -45.536364 
L 121.533692 -45.536364 
L 120.862929 -45.536364 
L 120.192167 -45.536364 
L 119.521404 -45.536364 
L 118.850642 -45.536364 
L 118.179879 -45.536364 
L 117.509117 -45.536364 
L 116.838354 -45.536364 
L 116.167592 -45.536364 
L 115.49683 -45.536364 
L 114.826067 -45.536364 
L 114.155305 -45.536364 
L 113.484542 -45.536364 
L 112.81378 -45.536364 
L 112.143017 -45.536364 
L 111.472255 -45.536364 
L 110.801492 -45.536364 
L 110.13073 -45.536364 
L 109.459967 -45.536364 
L 108.789205 -45.536364 
L 108.118442 -45.536364 
L 107.44768 -45.536364 
L 106.776917 -45.536364 
L 106.106155 -45.536364 
L 105.435392 -45.536364 
L 104.76463 -45.536364 
L 104.093867 -45.536364 
L 103.423105 -45.536364 
L 102.752342 -45.536364 
L 102.08158 -45.536364 
L 101.410817 -45.536364 
L 100.740055 -45.536364 
L 100.069292 -45.536364 
L 99.39853 -45.536364 
L 98.727767 -45.536364 
L 98.057005 -45.536364 
L 97.386242 -45.536364 
L 96.71548 -45.536364 
L 96.044717 -45.536364 
L 95.373955 -45.536364 
L 94.703192 -45.536364 
L 94.03243 -45.536364 
L 93.361667 -45.536364 
L 92.690905 -45.536364 
L 92.020142 -45.536364 
L 91.34938 -45.536364 
L 90.678617 -45.536364 
L 90.007855 -45.536364 
L 89.337092 -45.536364 
L 88.66633 -45.536364 
L 87.995567 -45.536364 
L 87.324805 -45.536364 
L 86.654043 -45.536364 
L 85.98328 -45.536364 
L 85.312518 -45.536364 
L 84.641755 -45.536364 
L 83.970993 -45.536364 
L 83.30023 -45.536364 
L 82.629468 -45.536364 
L 81.958705 -45.536364 
L 81.287943 -45.536364 
L 80.61718 -45.536364 
L 79.946418 -45.536364 
L 79.275655 -45.536364 
L 78.604893 -45.536364 
L 77.93413 -45.536364 
L 77.263368 -45.536364 
L 76.592605 -45.536364 
L 75.921843 -45.536364 
L 75.25108 -45.536364 
L 74.580318 -45.536364 
L 73.909555 -45.536364 
L 73.238793 -45.536364 
L 72.56803 -45.536364 
L 71.897268 -45.536364 
L 71.226505 -45.536364 
L 70.555743 -45.536364 
L 69.88498 -45.536364 
L 69.214218 -45.536364 
L 68.543455 -45.536364 
L 67.872693 -45.536364 
L 67.20193 -45.536364 
L 66.531168 -45.536364 
L 65.860405 -45.536364 
L 65.189643 -45.536364 
L 64.51888 -45.536364 
L 63.848118 -45.536364 
z
" style="stroke: #4c78a8; stroke-opacity: 0.15"/>
    </defs>
    <g clip-path="url(#p9fc39a9474)">
     <use xlink:href="#m989ec95d20" x="0" y="223.158281" style="fill: #4c78a8; fill-opacity: 0.15; stroke: #4c78a8; stroke-opacity: 0.15"/>
    </g>
   </g>
   <g id="matplotlib.axis_1">
    <g id="xtick_1">
     <g id="line2d_1">
      <path d="M 54.578657 184.958281 
L 54.578657 23.558281 
" clip-path="url(#p9fc39a9474)" style="fill: none; stroke: #b0b0b0; stroke-opacity: 0.25; stroke-width: 0.6; stroke-linecap: square"/>
     </g>
     <g id="line2d_2">
      <defs>
       <path id="mfc7f08a4a1" d="M 0 0 
L 0 3.5 
" style="stroke: #000000; stroke-width: 0.8"/>
      </defs>
      <g>
       <use xlink:href="#mfc7f08a4a1" x="54.578657" y="184.958281" style="stroke: #000000; stroke-width: 0.8"/>
      </g>
     </g>
     <g id="text_1">
      <!-- −3 -->
      <g transform="translate(47.207563 199.555938) scale(0.1 -0.1)">
       <defs>
        <path id="DejaVuSans-c9c" d="M 678 2272 
L 4684 2272 
L 4684 1741 
L 678 1741 
L 678 2272 
z
" transform="scale(0.015625)"/>
        <path id="DejaVuSans-16" d="M 2597 2516 
Q 3050 2419 3304 2112 
Q 3559 1806 3559 1356 
Q 3559 666 3084 287 
Q 2609 -91 1734 -91 
Q 1441 -91 1130 -33 
Q 819 25 488 141 
L 488 750 
Q 750 597 1062 519 
Q 1375 441 1716 441 
Q 2309 441 2620 675 
Q 2931 909 2931 1356 
Q 2931 1769 2642 2001 
Q 2353 2234 1838 2234 
L 1294 2234 
L 1294 2753 
L 1863 2753 
Q 2328 2753 2575 2939 
Q 2822 3125 2822 3475 
Q 2822 3834 2567 4026 
Q 2313 4219 1838 4219 
Q 1578 4219 1281 4162 
Q 984 4106 628 3988 
L 628 4550 
Q 988 4650 1302 4700 
Q 1616 4750 1894 4750 
Q 2613 4750 3031 4423 
Q 3450 4097 3450 3541 
Q 3450 3153 3228 2886 
Q 3006 2619 2597 2516 
z
" transform="scale(0.015625)"/>
       </defs>
       <use xlink:href="#DejaVuSans-c9c"/>
       <use xlink:href="#DejaVuSans-16" transform="translate(83.796875 0)"/>
      </g>
     </g>
    </g>
    <g id="xtick_2">
     <g id="line2d_3">
      <path d="M 102.274183 184.958281 
L 102.274183 23.558281 
" clip-path="url(#p9fc39a9474)" style="fill: none; stroke: #b0b0b0; stroke-opacity: 0.25; stroke-width: 0.6; stroke-linecap: square"/>
     </g>
     <g id="line2d_4">
      <g>
       <use xlink:href="#mfc7f08a4a1" x="102.274183" y="184.958281" style="stroke: #000000; stroke-width: 0.8"/>
      </g>
     </g>
     <g id="text_2">
      <!-- −2 -->
      <g transform="translate(94.903089 199.555938) scale(0.1 -0.1)">
       <defs>
        <path id="DejaVuSans-15" d="M 1228 531 
L 3431 531 
L 3431 0 
L 469 0 
L 469 531 
Q 828 903 1448 1529 
Q 2069 2156 2228 2338 
Q 2531 2678 2651 2914 
Q 2772 3150 2772 3378 
Q 2772 3750 2511 3984 
Q 2250 4219 1831 4219 
Q 1534 4219 1204 4116 
Q 875 4013 500 3803 
L 500 4441 
Q 881 4594 1212 4672 
Q 1544 4750 1819 4750 
Q 2544 4750 2975 4387 
Q 3406 4025 3406 3419 
Q 3406 3131 3298 2873 
Q 3191 2616 2906 2266 
Q 2828 2175 2409 1742 
Q 1991 1309 1228 531 
z
" transform="scale(0.015625)"/>
       </defs>
       <use xlink:href="#DejaVuSans-c9c"/>
       <use xlink:href="#DejaVuSans-15" transform="translate(83.796875 0)"/>
      </g>
     </g>
    </g>
    <g id="xtick_3">
     <g id="line2d_5">
      <path d="M 149.969709 184.958281 
L 149.969709 23.558281 
" clip-path="url(#p9fc39a9474)" style="fill: none; stroke: #b0b0b0; stroke-opacity: 0.25; stroke-width: 0.6; stroke-linecap: square"/>
     </g>
     <g id="line2d_6">
      <g>
       <use xlink:href="#mfc7f08a4a1" x="149.969709" y="184.958281" style="stroke: #000000; stroke-width: 0.8"/>
      </g>
     </g>
     <g id="text_3">
      <!-- −1 -->
      <g transform="translate(142.598615 199.555938) scale(0.1 -0.1)">
       <defs>
        <path id="DejaVuSans-14" d="M 794 531 
L 1825 531 
L 1825 4091 
L 703 3866 
L 703 4441 
L 1819 4666 
L 2450 4666 
L 2450 531 
L 3481 531 
L 3481 0 
L 794 0 
L 794 531 
z
" transform="scale(0.015625)"/>
       </defs>
       <use xlink:href="#DejaVuSans-c9c"/>
       <use xlink:href="#DejaVuSans-14" transform="translate(83.796875 0)"/>
      </g>
     </g>
    </g>
    <g id="xtick_4">
     <g id="line2d_7">
      <path d="M 197.665234 184.958281 
L 197.665234 23.558281 
" clip-path="url(#p9fc39a9474)" style="fill: none; stroke: #b0b0b0; stroke-opacity: 0.25; stroke-width: 0.6; stroke-linecap: square"/>
     </g>
     <g id="line2d_8">
      <g>
       <use xlink:href="#mfc7f08a4a1" x="197.665234" y="184.958281" style="stroke: #000000; stroke-width: 0.8"/>
      </g>
     </g>
     <g id="text_4">
      <!-- 0 -->
      <g transform="translate(194.483984 199.555938) scale(0.1 -0.1)">
       <defs>
        <path id="DejaVuSans-13" d="M 2034 4250 
Q 1547 4250 1301 3770 
Q 1056 3291 1056 2328 
Q 1056 1369 1301 889 
Q 1547 409 2034 409 
Q 2525 409 2770 889 
Q 3016 1369 3016 2328 
Q 3016 3291 2770 3770 
Q 2525 4250 2034 4250 
z
M 2034 4750 
Q 2819 4750 3233 4129 
Q 3647 3509 3647 2328 
Q 3647 1150 3233 529 
Q 2819 -91 2034 -91 
Q 1250 -91 836 529 
Q 422 1150 422 2328 
Q 422 3509 836 4129 
Q 1250 4750 2034 4750 
z
" transform="scale(0.015625)"/>
       </defs>
       <use xlink:href="#DejaVuSans-13"/>
      </g>
     </g>
    </g>
    <g id="xtick_5">
     <g id="line2d_9">
      <path d="M 245.36076 184.958281 
L 245.36076 23.558281 
" clip-path="url(#p9fc39a9474)" style="fill: none; stroke: #b0b0b0; stroke-opacity: 0.25; stroke-width: 0.6; stroke-linecap: square"/>
     </g>
     <g id="line2d_10">
      <g>
       <use xlink:href="#mfc7f08a4a1" x="245.36076" y="184.958281" style="stroke: #000000; stroke-width: 0.8"/>
      </g>
     </g>
     <g id="text_5">
      <!-- 1 -->
      <g transform="translate(242.17951 199.555938) scale(0.1 -0.1)">
       <use xlink:href="#DejaVuSans-14"/>
      </g>
     </g>
    </g>
    <g id="xtick_6">
     <g id="line2d_11">
      <path d="M 293.056286 184.958281 
L 293.056286 23.558281 
" clip-path="url(#p9fc39a9474)" style="fill: none; stroke: #b0b0b0; stroke-opacity: 0.25; stroke-width: 0.6; stroke-linecap: square"/>
     </g>
     <g id="line2d_12">
      <g>
       <use xlink:href="#mfc7f08a4a1" x="293.056286" y="184.958281" style="stroke: #000000; stroke-width: 0.8"/>
      </g>
     </g>
     <g id="text_6">
      <!-- 2 -->
      <g transform="translate(289.875036 199.555938) scale(0.1 -0.1)">
       <use xlink:href="#DejaVuSans-15"/>
      </g>
     </g>
    </g>
    <g id="xtick_7">
     <g id="line2d_13">
      <path d="M 340.751812 184.958281 
L 340.751812 23.558281 
" clip-path="url(#p9fc39a9474)" style="fill: none; stroke: #b0b0b0; stroke-opacity: 0.25; stroke-width: 0.6; stroke-linecap: square"/>
     </g>
     <g id="line2d_14">
      <g>
       <use xlink:href="#mfc7f08a4a1" x="340.751812" y="184.958281" style="stroke: #000000; stroke-width: 0.8"/>
      </g>
     </g>
     <g id="text_7">
      <!-- 3 -->
      <g transform="translate(337.570562 199.555938) scale(0.1 -0.1)">
       <use xlink:href="#DejaVuSans-16"/>
      </g>
     </g>
    </g>
    <g id="text_8">
     <!-- x -->
     <g transform="translate(194.705859 213.555938) scale(0.1 -0.1)">
      <defs>
       <path id="DejaVuSans-5b" d="M 3513 3500 
L 2247 1797 
L 3578 0 
L 2900 0 
L 1881 1375 
L 863 0 
L 184 0 
L 1544 1831 
L 300 3500 
L 978 3500 
L 1906 2253 
L 2834 3500 
L 3513 3500 
z
" transform="scale(0.015625)"/>
      </defs>
      <use xlink:href="#DejaVuSans-5b"/>
     </g>
    </g>
   </g>
   <g id="matplotlib.axis_2">
    <g id="ytick_1">
     <g id="line2d_15">
      <path d="M 50.466406 177.621918 
L 344.864062 177.621918 
" clip-path="url(#p9fc39a9474)" style="fill: none; stroke: #b0b0b0; stroke-opacity: 0.25; stroke-width: 0.6; stroke-linecap: square"/>
     </g>
     <g id="line2d_16">
      <defs>
       <path id="mf1f910dd1c" d="M 0 0 
L -3.5 0 
" style="stroke: #000000; stroke-width: 0.8"/>
      </defs>
      <g>
       <use xlink:href="#mf1f910dd1c" x="50.466406" y="177.621918" style="stroke: #000000; stroke-width: 0.8"/>
      </g>
     </g>
     <g id="text_9">
      <!-- 0.00 -->
      <g transform="translate(21.200781 181.420746) scale(0.1 -0.1)">
       <defs>
        <path id="DejaVuSans-11" d="M 684 794 
L 1344 794 
L 1344 0 
L 684 0 
L 684 794 
z
" transform="scale(0.015625)"/>
       </defs>
       <use xlink:href="#DejaVuSans-13"/>
       <use xlink:href="#DejaVuSans-11" transform="translate(63.625 0)"/>
       <use xlink:href="#DejaVuSans-13" transform="translate(95.40625 0)"/>
       <use xlink:href="#DejaVuSans-13" transform="translate(159.03125 0)"/>
      </g>
     </g>
    </g>
    <g id="ytick_2">
     <g id="line2d_17">
      <path d="M 50.466406 154.573767 
L 344.864062 154.573767 
" clip-path="url(#p9fc39a9474)" style="fill: none; stroke: #b0b0b0; stroke-opacity: 0.25; stroke-width: 0.6; stroke-linecap: square"/>
     </g>
     <g id="line2d_18">
      <g>
       <use xlink:href="#mf1f910dd1c" x="50.466406" y="154.573767" style="stroke: #000000; stroke-width: 0.8"/>
      </g>
     </g>
     <g id="text_10">
      <!-- 0.05 -->
      <g transform="translate(21.200781 158.372595) scale(0.1 -0.1)">
       <defs>
        <path id="DejaVuSans-18" d="M 691 4666 
L 3169 4666 
L 3169 4134 
L 1269 4134 
L 1269 2991 
Q 1406 3038 1543 3061 
Q 1681 3084 1819 3084 
Q 2600 3084 3056 2656 
Q 3513 2228 3513 1497 
Q 3513 744 3044 326 
Q 2575 -91 1722 -91 
Q 1428 -91 1123 -41 
Q 819 9 494 109 
L 494 744 
Q 775 591 1075 516 
Q 1375 441 1709 441 
Q 2250 441 2565 725 
Q 2881 1009 2881 1497 
Q 2881 1984 2565 2268 
Q 2250 2553 1709 2553 
Q 1456 2553 1204 2497 
Q 953 2441 691 2322 
L 691 4666 
z
" transform="scale(0.015625)"/>
       </defs>
       <use xlink:href="#DejaVuSans-13"/>
       <use xlink:href="#DejaVuSans-11" transform="translate(63.625 0)"/>
       <use xlink:href="#DejaVuSans-13" transform="translate(95.40625 0)"/>
       <use xlink:href="#DejaVuSans-18" transform="translate(159.03125 0)"/>
      </g>
     </g>
    </g>
    <g id="ytick_3">
     <g id="line2d_19">
      <path d="M 50.466406 131.525616 
L 344.864062 131.525616 
" clip-path="url(#p9fc39a9474)" style="fill: none; stroke: #b0b0b0; stroke-opacity: 0.25; stroke-width: 0.6; stroke-linecap: square"/>
     </g>
     <g id="line2d_20">
      <g>
       <use xlink:href="#mf1f910dd1c" x="50.466406" y="131.525616" style="stroke: #000000; stroke-width: 0.8"/>
      </g>
     </g>
     <g id="text_11">
      <!-- 0.10 -->
      <g transform="translate(21.200781 135.324444) scale(0.1 -0.1)">
       <use xlink:href="#DejaVuSans-13"/>
       <use xlink:href="#DejaVuSans-11" transform="translate(63.625 0)"/>
       <use xlink:href="#DejaVuSans-14" transform="translate(95.40625 0)"/>
       <use xlink:href="#DejaVuSans-13" transform="translate(159.03125 0)"/>
      </g>
     </g>
    </g>
    <g id="ytick_4">
     <g id="line2d_21">
      <path d="M 50.466406 108.477465 
L 344.864062 108.477465 
" clip-path="url(#p9fc39a9474)" style="fill: none; stroke: #b0b0b0; stroke-opacity: 0.25; stroke-width: 0.6; stroke-linecap: square"/>
     </g>
     <g id="line2d_22">
      <g>
       <use xlink:href="#mf1f910dd1c" x="50.466406" y="108.477465" style="stroke: #000000; stroke-width: 0.8"/>
      </g>
     </g>
     <g id="text_12">
      <!-- 0.15 -->
      <g transform="translate(21.200781 112.276293) scale(0.1 -0.1)">
       <use xlink:href="#DejaVuSans-13"/>
       <use xlink:href="#DejaVuSans-11" transform="translate(63.625 0)"/>
       <use xlink:href="#DejaVuSans-14" transform="translate(95.40625 0)"/>
       <use xlink:href="#DejaVuSans-18" transform="translate(159.03125 0)"/>
      </g>
     </g>
    </g>
    <g id="ytick_5">
     <g id="line2d_23">
      <path d="M 50.466406 85.429314 
L 344.864062 85.429314 
" clip-path="url(#p9fc39a9474)" style="fill: none; stroke: #b0b0b0; stroke-opacity: 0.25; stroke-width: 0.6; stroke-linecap: square"/>
     </g>
     <g id="line2d_24">
      <g>
       <use xlink:href="#mf1f910dd1c" x="50.466406" y="85.429314" style="stroke: #000000; stroke-width: 0.8"/>
      </g>
     </g>
     <g id="text_13">
      <!-- 0.20 -->
      <g transform="translate(21.200781 89.228142) scale(0.1 -0.1)">
       <use xlink:href="#DejaVuSans-13"/>
       <use xlink:href="#DejaVuSans-11" transform="translate(63.625 0)"/>
       <use xlink:href="#DejaVuSans-15" transform="translate(95.40625 0)"/>
       <use xlink:href="#DejaVuSans-13" transform="translate(159.03125 0)"/>
      </g>
     </g>
    </g>
    <g id="ytick_6">
     <g id="line2d_25">
      <path d="M 50.466406 62.381163 
L 344.864062 62.381163 
" clip-path="url(#p9fc39a9474)" style="fill: none; stroke: #b0b0b0; stroke-opacity: 0.25; stroke-width: 0.6; stroke-linecap: square"/>
     </g>
     <g id="line2d_26">
      <g>
       <use xlink:href="#mf1f910dd1c" x="50.466406" y="62.381163" style="stroke: #000000; stroke-width: 0.8"/>
      </g>
     </g>
     <g id="text_14">
      <!-- 0.25 -->
      <g transform="translate(21.200781 66.179991) scale(0.1 -0.1)">
       <use xlink:href="#DejaVuSans-13"/>
       <use xlink:href="#DejaVuSans-11" transform="translate(63.625 0)"/>
       <use xlink:href="#DejaVuSans-15" transform="translate(95.40625 0)"/>
       <use xlink:href="#DejaVuSans-18" transform="translate(159.03125 0)"/>
      </g>
     </g>
    </g>
    <g id="ytick_7">
     <g id="line2d_27">
      <path d="M 50.466406 39.333012 
L 344.864062 39.333012 
" clip-path="url(#p9fc39a9474)" style="fill: none; stroke: #b0b0b0; stroke-opacity: 0.25; stroke-width: 0.6; stroke-linecap: square"/>
     </g>
     <g id="line2d_28">
      <g>
       <use xlink:href="#mf1f910dd1c" x="50.466406" y="39.333012" style="stroke: #000000; stroke-width: 0.8"/>
      </g>
     </g>
     <g id="text_15">
      <!-- 0.30 -->
      <g transform="translate(21.200781 43.13184) scale(0.1 -0.1)">
       <use xlink:href="#DejaVuSans-13"/>
       <use xlink:href="#DejaVuSans-11" transform="translate(63.625 0)"/>
       <use xlink:href="#DejaVuSans-16" transform="translate(95.40625 0)"/>
       <use xlink:href="#DejaVuSans-13" transform="translate(159.03125 0)"/>
      </g>
     </g>
    </g>
    <g id="text_16">
     <!-- f(x) -->
     <g transform="translate(14.798437 112.879375) rotate(-90) scale(0.1 -0.1)">
      <defs>
       <path id="DejaVuSans-49" d="M 2375 4863 
L 2375 4384 
L 1825 4384 
Q 1516 4384 1395 4259 
Q 1275 4134 1275 3809 
L 1275 3500 
L 2222 3500 
L 2222 3053 
L 1275 3053 
L 1275 0 
L 697 0 
L 697 3053 
L 147 3053 
L 147 3500 
L 697 3500 
L 697 3744 
Q 697 4328 969 4595 
Q 1241 4863 1831 4863 
L 2375 4863 
z
" transform="scale(0.015625)"/>
       <path id="DejaVuSans-b" d="M 1984 4856 
Q 1566 4138 1362 3434 
Q 1159 2731 1159 2009 
Q 1159 1288 1364 580 
Q 1569 -128 1984 -844 
L 1484 -844 
Q 1016 -109 783 600 
Q 550 1309 550 2009 
Q 550 2706 781 3412 
Q 1013 4119 1484 4856 
L 1984 4856 
z
" transform="scale(0.015625)"/>
       <path id="DejaVuSans-c" d="M 513 4856 
L 1013 4856 
Q 1481 4119 1714 3412 
Q 1947 2706 1947 2009 
Q 1947 1309 1714 600 
Q 1481 -109 1013 -844 
L 513 -844 
Q 928 -128 1133 580 
Q 1338 1288 1338 2009 
Q 1338 2731 1133 3434 
Q 928 4138 513 4856 
z
" transform="scale(0.015625)"/>
      </defs>
      <use xlink:href="#DejaVuSans-49"/>
      <use xlink:href="#DejaVuSans-b" transform="translate(35.203125 0)"/>
      <use xlink:href="#DejaVuSans-5b" transform="translate(74.21875 0)"/>
      <use xlink:href="#DejaVuSans-c" transform="translate(133.40625 0)"/>
     </g>
    </g>
   </g>
   <g id="line2d_29">
    <path d="M 63.848118 173.520921 
L 66.531168 172.051577 
L 69.214218 170.367755 
L 72.56803 167.969549 
L 75.921843 165.256448 
L 79.275655 162.241862 
L 82.629468 158.940689 
L 86.654043 154.624056 
L 90.678617 149.949021 
L 94.703192 144.948851 
L 99.39853 138.75197 
L 104.76463 131.264461 
L 110.801492 122.437716 
L 118.850642 110.24139 
L 135.619704 84.693734 
L 141.656567 75.924538 
L 147.022666 68.506028 
L 151.718004 62.382591 
L 155.742579 57.454523 
L 159.767154 52.859497 
L 163.791729 48.630211 
L 167.145541 45.406986 
L 170.499354 42.474626 
L 173.853166 39.847626 
L 177.206978 37.538968 
L 179.890028 35.928971 
L 182.573078 34.53514 
L 185.256128 33.361886 
L 187.939178 32.41292 
L 190.622228 31.691244 
L 193.305278 31.199142 
L 195.988328 30.93817 
L 198.671378 30.909154 
L 201.354428 31.112186 
L 204.037478 31.546623 
L 206.720528 32.211091 
L 209.403578 33.103488 
L 212.086628 34.220991 
L 214.769678 35.560063 
L 217.452728 37.11647 
L 220.80654 39.360039 
L 224.160353 41.92436 
L 227.514165 44.79676 
L 230.867978 47.963041 
L 234.22179 51.407555 
L 238.246365 55.884177 
L 242.27094 60.705015 
L 246.966277 66.718488 
L 251.661615 73.095464 
L 257.027715 80.749191 
L 263.73534 90.722641 
L 275.138302 108.182656 
L 285.199739 123.43546 
L 291.236602 132.221063 
L 296.602701 139.659126 
L 301.298039 145.803308 
L 305.322614 150.751701 
L 309.347189 155.369246 
L 313.371764 159.623087 
L 316.725576 162.868204 
L 320.079389 165.823638 
L 323.433201 168.474784 
L 326.787013 170.808538 
L 329.470063 172.439213 
L 331.482351 173.520921 
L 331.482351 173.520921 
" clip-path="url(#p9fc39a9474)" style="fill: none; stroke: #4c78a8; stroke-width: 2; stroke-linecap: square"/>
   </g>
   <g id="patch_3">
    <path d="M 50.466406 184.958281 
L 50.466406 23.558281 
" style="fill: none; stroke: #000000; stroke-width: 0.8; stroke-linejoin: miter; stroke-linecap: square"/>
   </g>
   <g id="patch_4">
    <path d="M 50.466406 184.958281 
L 344.864063 184.958281 
" style="fill: none; stroke: #000000; stroke-width: 0.8; stroke-linejoin: miter; stroke-linecap: square"/>
   </g>
   <g id="text_17">
    <!-- Raised Cosine -->
    <g transform="translate(159.108516 15.558281) scale(0.11 -0.11)">
     <defs>
      <path id="DejaVuSans-35" d="M 2841 2188 
Q 3044 2119 3236 1894 
Q 3428 1669 3622 1275 
L 4263 0 
L 3584 0 
L 2988 1197 
Q 2756 1666 2539 1819 
Q 2322 1972 1947 1972 
L 1259 1972 
L 1259 0 
L 628 0 
L 628 4666 
L 2053 4666 
Q 2853 4666 3247 4331 
Q 3641 3997 3641 3322 
Q 3641 2881 3436 2590 
Q 3231 2300 2841 2188 
z
M 1259 4147 
L 1259 2491 
L 2053 2491 
Q 2509 2491 2742 2702 
Q 2975 2913 2975 3322 
Q 2975 3731 2742 3939 
Q 2509 4147 2053 4147 
L 1259 4147 
z
" transform="scale(0.015625)"/>
      <path id="DejaVuSans-44" d="M 2194 1759 
Q 1497 1759 1228 1600 
Q 959 1441 959 1056 
Q 959 750 1161 570 
Q 1363 391 1709 391 
Q 2188 391 2477 730 
Q 2766 1069 2766 1631 
L 2766 1759 
L 2194 1759 
z
M 3341 1997 
L 3341 0 
L 2766 0 
L 2766 531 
Q 2569 213 2275 61 
Q 1981 -91 1556 -91 
Q 1019 -91 701 211 
Q 384 513 384 1019 
Q 384 1609 779 1909 
Q 1175 2209 1959 2209 
L 2766 2209 
L 2766 2266 
Q 2766 2663 2505 2880 
Q 2244 3097 1772 3097 
Q 1472 3097 1187 3025 
Q 903 2953 641 2809 
L 641 3341 
Q 956 3463 1253 3523 
Q 1550 3584 1831 3584 
Q 2591 3584 2966 3190 
Q 3341 2797 3341 1997 
z
" transform="scale(0.015625)"/>
      <path id="DejaVuSans-4c" d="M 603 3500 
L 1178 3500 
L 1178 0 
L 603 0 
L 603 3500 
z
M 603 4863 
L 1178 4863 
L 1178 4134 
L 603 4134 
L 603 4863 
z
" transform="scale(0.015625)"/>
      <path id="DejaVuSans-56" d="M 2834 3397 
L 2834 2853 
Q 2591 2978 2328 3040 
Q 2066 3103 1784 3103 
Q 1356 3103 1142 2972 
Q 928 2841 928 2578 
Q 928 2378 1081 2264 
Q 1234 2150 1697 2047 
L 1894 2003 
Q 2506 1872 2764 1633 
Q 3022 1394 3022 966 
Q 3022 478 2636 193 
Q 2250 -91 1575 -91 
Q 1294 -91 989 -36 
Q 684 19 347 128 
L 347 722 
Q 666 556 975 473 
Q 1284 391 1588 391 
Q 1994 391 2212 530 
Q 2431 669 2431 922 
Q 2431 1156 2273 1281 
Q 2116 1406 1581 1522 
L 1381 1569 
Q 847 1681 609 1914 
Q 372 2147 372 2553 
Q 372 3047 722 3315 
Q 1072 3584 1716 3584 
Q 2034 3584 2315 3537 
Q 2597 3491 2834 3397 
z
" transform="scale(0.015625)"/>
      <path id="DejaVuSans-48" d="M 3597 1894 
L 3597 1613 
L 953 1613 
Q 991 1019 1311 708 
Q 1631 397 2203 397 
Q 2534 397 2845 478 
Q 3156 559 3463 722 
L 3463 178 
Q 3153 47 2828 -22 
Q 2503 -91 2169 -91 
Q 1331 -91 842 396 
Q 353 884 353 1716 
Q 353 2575 817 3079 
Q 1281 3584 2069 3584 
Q 2775 3584 3186 3129 
Q 3597 2675 3597 1894 
z
M 3022 2063 
Q 3016 2534 2758 2815 
Q 2500 3097 2075 3097 
Q 1594 3097 1305 2825 
Q 1016 2553 972 2059 
L 3022 2063 
z
" transform="scale(0.015625)"/>
      <path id="DejaVuSans-47" d="M 2906 2969 
L 2906 4863 
L 3481 4863 
L 3481 0 
L 2906 0 
L 2906 525 
Q 2725 213 2448 61 
Q 2172 -91 1784 -91 
Q 1150 -91 751 415 
Q 353 922 353 1747 
Q 353 2572 751 3078 
Q 1150 3584 1784 3584 
Q 2172 3584 2448 3432 
Q 2725 3281 2906 2969 
z
M 947 1747 
Q 947 1113 1208 752 
Q 1469 391 1925 391 
Q 2381 391 2643 752 
Q 2906 1113 2906 1747 
Q 2906 2381 2643 2742 
Q 2381 3103 1925 3103 
Q 1469 3103 1208 2742 
Q 947 2381 947 1747 
z
" transform="scale(0.015625)"/>
      <path id="DejaVuSans-3" transform="scale(0.015625)"/>
      <path id="DejaVuSans-26" d="M 4122 4306 
L 4122 3641 
Q 3803 3938 3442 4084 
Q 3081 4231 2675 4231 
Q 1875 4231 1450 3742 
Q 1025 3253 1025 2328 
Q 1025 1406 1450 917 
Q 1875 428 2675 428 
Q 3081 428 3442 575 
Q 3803 722 4122 1019 
L 4122 359 
Q 3791 134 3420 21 
Q 3050 -91 2638 -91 
Q 1578 -91 968 557 
Q 359 1206 359 2328 
Q 359 3453 968 4101 
Q 1578 4750 2638 4750 
Q 3056 4750 3426 4639 
Q 3797 4528 4122 4306 
z
" transform="scale(0.015625)"/>
      <path id="DejaVuSans-52" d="M 1959 3097 
Q 1497 3097 1228 2736 
Q 959 2375 959 1747 
Q 959 1119 1226 758 
Q 1494 397 1959 397 
Q 2419 397 2687 759 
Q 2956 1122 2956 1747 
Q 2956 2369 2687 2733 
Q 2419 3097 1959 3097 
z
M 1959 3584 
Q 2709 3584 3137 3096 
Q 3566 2609 3566 1747 
Q 3566 888 3137 398 
Q 2709 -91 1959 -91 
Q 1206 -91 779 398 
Q 353 888 353 1747 
Q 353 2609 779 3096 
Q 1206 3584 1959 3584 
z
" transform="scale(0.015625)"/>
      <path id="DejaVuSans-51" d="M 3513 2113 
L 3513 0 
L 2938 0 
L 2938 2094 
Q 2938 2591 2744 2837 
Q 2550 3084 2163 3084 
Q 1697 3084 1428 2787 
Q 1159 2491 1159 1978 
L 1159 0 
L 581 0 
L 581 3500 
L 1159 3500 
L 1159 2956 
Q 1366 3272 1645 3428 
Q 1925 3584 2291 3584 
Q 2894 3584 3203 3211 
Q 3513 2838 3513 2113 
z
" transform="scale(0.015625)"/>
     </defs>
     <use xlink:href="#DejaVuSans-35"/>
     <use xlink:href="#DejaVuSans-44" transform="translate(67.28125 0)"/>
     <use xlink:href="#DejaVuSans-4c" transform="translate(128.5625 0)"/>
     <use xlink:href="#DejaVuSans-56" transform="translate(156.34375 0)"/>
     <use xlink:href="#DejaVuSans-48" transform="translate(208.4375 0)"/>
     <use xlink:href="#DejaVuSans-47" transform="translate(269.96875 0)"/>
     <use xlink:href="#DejaVuSans-3" transform="translate(333.453125 0)"/>
     <use xlink:href="#DejaVuSans-26" transform="translate(365.234375 0)"/>
     <use xlink:href="#DejaVuSans-52" transform="translate(435.0625 0)"/>
     <use xlink:href="#DejaVuSans-56" transform="translate(496.25 0)"/>
     <use xlink:href="#DejaVuSans-4c" transform="translate(548.34375 0)"/>
     <use xlink:href="#DejaVuSans-51" transform="translate(576.125 0)"/>
     <use xlink:href="#DejaVuSans-48" transform="translate(639.5 0)"/>
    </g>
   </g>
  </g>
 </g>
 <defs>
  <clipPath id="p9fc39a9474">
   <rect x="50.466406" y="23.558281" width="294.397656" height="161.4"/>
  </clipPath>
 </defs>
</svg>
