<?xml version="1.0" encoding="utf-8" standalone="no"?>
<!DOCTYPE svg PUBLIC "-//W3C//DTD SVG 1.1//EN"
  "http://www.w3.org/Graphics/SVG/1.1/DTD/svg11.dtd">
<svg xmlns:xlink="http://www.w3.org/1999/xlink" width="352.301562pt" height="223.158281pt" viewBox="0 0 352.301562 223.158281" xmlns="http://www.w3.org/2000/svg" version="1.1">
 <metadata>
  <rdf:RDF xmlns:dc="http://purl.org/dc/elements/1.1/" xmlns:cc="http://creativecommons.org/ns#" xmlns:rdf="http://www.w3.org/1999/02/22-rdf-syntax-ns#">
   <cc:Work>
    <dc:type rdf:resource="http://purl.org/dc/dcmitype/StillImage"/>
    <dc:date>2026-07-05T02:24:31.923726</dc:date>
    <dc:format>image/svg+xml</dc:format>
    <dc:creator>
     <cc:Agent>
      <dc:title>Matplotlib v3.11.0, https://matplotlib.org/</dc:title>
     </cc:Agent>
    </dc:creator>
   </cc:Work>
  </rdf:RDF>
 </metadata>
 <defs>
  <style type="text/css">*{stroke-linejoin: round; stroke-linecap: butt}</style>
 </defs>
 <g id="figure_1">
  <g id="patch_1">
   <path d="M 0 223.158281 
L 352.301562 223.158281 
L 352.301562 0 
L 0 0 
z
" style="fill: #ffffff"/>
  </g>
  <g id="axes_1">
   <g id="patch_2">
    <path d="M 44.103906 184.958281 
L 345.101562 184.958281 
L 345.101562 23.558281 
L 44.103906 23.558281 
z
" style="fill: #ffffff"/>
   </g>
   <g id="FillBetweenPolyCollection_1">
    <defs>
     <path id="m6e9eca7743" d="M 57.785618 -45.536364 
L 57.785618 -56.346938 
L 58.471418 -58.565238 
L 59.157218 -60.780232 
L 59.843018 -62.991357 
L 60.528818 -65.198054 
L 61.214618 -67.399767 
L 61.900418 -69.595939 
L 62.586218 -71.786017 
L 63.272019 -73.969453 
L 63.957819 -76.145697 
L 64.643619 -78.314205 
L 65.329419 -80.474436 
L 66.015219 -82.625852 
L 66.701019 -84.76792 
L 67.386819 -86.900108 
L 68.072619 -89.021891 
L 68.758419 -91.132748 
L 69.444219 -93.23216 
L 70.130019 -95.319617 
L 70.815819 -97.39461 
L 71.50162 -99.456637 
L 72.18742 -101.505203 
L 72.87322 -103.539815 
L 73.55902 -105.559988 
L 74.24482 -107.565243 
L 74.93062 -109.555108 
L 75.61642 -111.529114 
L 76.30222 -113.486802 
L 76.98802 -115.427719 
L 77.67382 -117.351418 
L 78.35962 -119.257459 
L 79.04542 -121.145409 
L 79.731221 -123.014845 
L 80.417021 -124.865349 
L 81.102821 -126.69651 
L 81.788621 -128.507928 
L 82.474421 -130.299208 
L 83.160221 -132.069965 
L 83.846021 -133.819822 
L 84.531821 -135.548409 
L 85.217621 -137.255365 
L 85.903421 -138.94034 
L 86.589221 -140.60299 
L 87.275021 -142.242981 
L 87.960822 -143.859988 
L 88.646622 -145.453694 
L 89.332422 -147.023793 
L 90.018222 -148.569987 
L 90.704022 -150.091988 
L 91.389822 -151.589518 
L 92.075622 -153.062305 
L 92.761422 -154.510092 
L 93.447222 -155.932628 
L 94.133022 -157.329673 
L 94.818822 -158.700995 
L 95.504622 -160.046375 
L 96.190423 -161.365601 
L 96.876223 -162.658473 
L 97.562023 -163.924799 
L 98.247823 -165.164398 
L 98.933623 -166.377099 
L 99.619423 -167.562741 
L 100.305223 -168.721174 
L 100.991023 -169.852256 
L 101.676823 -170.955855 
L 102.362623 -172.031852 
L 103.048423 -173.080135 
L 103.734223 -174.100603 
L 104.420024 -175.093165 
L 105.105824 -176.057741 
L 105.791624 -176.99426 
L 106.477424 -177.90266 
L 107.163224 -178.78289 
L 107.849024 -179.634909 
L 108.534824 -180.458685 
L 109.220624 -181.254197 
L 109.906424 -182.021433 
L 110.592224 -182.760389 
L 111.278024 -183.471074 
L 111.963824 -184.153503 
L 112.649625 -184.807703 
L 113.335425 -185.433709 
L 114.021225 -186.031566 
L 114.707025 -186.601327 
L 115.392825 -187.143055 
L 116.078625 -187.656823 
L 116.764425 -188.142711 
L 117.450225 -188.600808 
L 118.136025 -189.031213 
L 118.821825 -189.434033 
L 119.507625 -189.809383 
L 120.193425 -190.157387 
L 120.879225 -190.478176 
L 121.565026 -190.771891 
L 122.250826 -191.03868 
L 122.936626 -191.278698 
L 123.622426 -191.492109 
L 124.308226 -191.679085 
L 124.994026 -191.839805 
L 125.679826 -191.974453 
L 126.365626 -192.083224 
L 127.051426 -192.166317 
L 127.737226 -192.22394 
L 128.423026 -192.256306 
L 129.108826 -192.263636 
L 129.794627 -192.246158 
L 130.480427 -192.204103 
L 131.166227 -192.137711 
L 131.852027 -192.047229 
L 132.537827 -191.932906 
L 133.223627 -191.794999 
L 133.909427 -191.633771 
L 134.595227 -191.449489 
L 135.281027 -191.242426 
L 135.966827 -191.012859 
L 136.652627 -190.761072 
L 137.338427 -190.487351 
L 138.024228 -190.191988 
L 138.710028 -189.875278 
L 139.395828 -189.537523 
L 140.081628 -189.179026 
L 140.767428 -188.800096 
L 141.453228 -188.401043 
L 142.139028 -187.982183 
L 142.824828 -187.543834 
L 143.510628 -187.086318 
L 144.196428 -186.609959 
L 144.882228 -186.115085 
L 145.568028 -185.602025 
L 146.253829 -185.071113 
L 146.939629 -184.522681 
L 147.625429 -183.957069 
L 148.311229 -183.374613 
L 148.997029 -182.775655 
L 149.682829 -182.160537 
L 150.368629 -181.529602 
L 151.054429 -180.883197 
L 151.740229 -180.221665 
L 152.426029 -179.545356 
L 153.111829 -178.854616 
L 153.797629 -178.149795 
L 154.48343 -177.431242 
L 155.16923 -176.699305 
L 155.85503 -175.954335 
L 156.54083 -175.196682 
L 157.22663 -174.426695 
L 157.91243 -173.644724 
L 158.59823 -172.851117 
L 159.28403 -172.046224 
L 159.96983 -171.230393 
L 160.65563 -170.40397 
L 161.34143 -169.567301 
L 162.02723 -168.720733 
L 162.713031 -167.864608 
L 163.398831 -166.99927 
L 164.084631 -166.125059 
L 164.770431 -165.242316 
L 165.456231 -164.351377 
L 166.142031 -163.45258 
L 166.827831 -162.546259 
L 167.513631 -161.632744 
L 168.199431 -160.712368 
L 168.885231 -159.785456 
L 169.571031 -158.852335 
L 170.256831 -157.913327 
L 170.942632 -156.968753 
L 171.628432 -156.01893 
L 172.314232 -155.064172 
L 173.000032 -154.104793 
L 173.685832 -153.141101 
L 174.371632 -152.173401 
L 175.057432 -151.201997 
L 175.743232 -150.227189 
L 176.429032 -149.249272 
L 177.114832 -148.26854 
L 177.800632 -147.285281 
L 178.486432 -146.299784 
L 179.172233 -145.312329 
L 179.858033 -144.323195 
L 180.543833 -143.332658 
L 181.229633 -142.340989 
L 181.915433 -141.348456 
L 182.601233 -140.355322 
L 183.287033 -139.361848 
L 183.972833 -138.368288 
L 184.658633 -137.374895 
L 185.344433 -136.381916 
L 186.030233 -135.389596 
L 186.716033 -134.398173 
L 187.401834 -133.407883 
L 188.087634 -132.418957 
L 188.773434 -131.431623 
L 189.459234 -130.446103 
L 190.145034 -129.462615 
L 190.830834 -128.481373 
L 191.516634 -127.502588 
L 192.202434 -126.526464 
L 192.888234 -125.553204 
L 193.574034 -124.583003 
L 194.259834 -123.616054 
L 194.945634 -122.652546 
L 195.631434 -121.692661 
L 196.317235 -120.73658 
L 197.003035 -119.784476 
L 197.688835 -118.836522 
L 198.374635 -117.892882 
L 199.060435 -116.953719 
L 199.746235 -116.01919 
L 200.432035 -115.089449 
L 201.117835 -114.164643 
L 201.803635 -113.244919 
L 202.489435 -112.330414 
L 203.175235 -111.421267 
L 203.861035 -110.517608 
L 204.546836 -109.619564 
L 205.232636 -108.72726 
L 205.918436 -107.840813 
L 206.604236 -106.960339 
L 207.290036 -106.085949 
L 207.975836 -105.217748 
L 208.661636 -104.35584 
L 209.347436 -103.500323 
L 210.033236 -102.651291 
L 210.719036 -101.808836 
L 211.404836 -100.973043 
L 212.090636 -100.143996 
L 212.776437 -99.321772 
L 213.462237 -98.506448 
L 214.148037 -97.698094 
L 214.833837 -96.896779 
L 215.519637 -96.102565 
L 216.205437 -95.315513 
L 216.891237 -94.53568 
L 217.577037 -93.763119 
L 218.262837 -92.99788 
L 218.948637 -92.240008 
L 219.634437 -91.489546 
L 220.320237 -90.746535 
L 221.006038 -90.011009 
L 221.691838 -89.283002 
L 222.377638 -88.562544 
L 223.063438 -87.849661 
L 223.749238 -87.144376 
L 224.435038 -86.44671 
L 225.120838 -85.756681 
L 225.806638 -85.074303 
L 226.492438 -84.399587 
L 227.178238 -83.732543 
L 227.864038 -83.073176 
L 228.549838 -82.421491 
L 229.235639 -81.777487 
L 229.921439 -81.141163 
L 230.607239 -80.512515 
L 231.293039 -79.891535 
L 231.978839 -79.278215 
L 232.664639 -78.672543 
L 233.350439 -78.074504 
L 234.036239 -77.484083 
L 234.722039 -76.901261 
L 235.407839 -76.326018 
L 236.093639 -75.75833 
L 236.779439 -75.198174 
L 237.46524 -74.645523 
L 238.15104 -74.100348 
L 238.83684 -73.562619 
L 239.52264 -73.032303 
L 240.20844 -72.509366 
L 240.89424 -71.993774 
L 241.58004 -71.485487 
L 242.26584 -70.984468 
L 242.95164 -70.490676 
L 243.63744 -70.00407 
L 244.32324 -69.524604 
L 245.00904 -69.052236 
L 245.694841 -68.586917 
L 246.380641 -68.128603 
L 247.066441 -67.677242 
L 247.752241 -67.232786 
L 248.438041 -66.795184 
L 249.123841 -66.364383 
L 249.809641 -65.940331 
L 250.495441 -65.522973 
L 251.181241 -65.112254 
L 251.867041 -64.708118 
L 252.552841 -64.310508 
L 253.238641 -63.919368 
L 253.924442 -63.534637 
L 254.610242 -63.156257 
L 255.296042 -62.784169 
L 255.981842 -62.418311 
L 256.667642 -62.058623 
L 257.353442 -61.705043 
L 258.039242 -61.357508 
L 258.725042 -61.015957 
L 259.410842 -60.680326 
L 260.096642 -60.350551 
L 260.782442 -60.026568 
L 261.468242 -59.708315 
L 262.154043 -59.395724 
L 262.839843 -59.088733 
L 263.525643 -58.787276 
L 264.211443 -58.491288 
L 264.897243 -58.200703 
L 265.583043 -57.915456 
L 266.268843 -57.635481 
L 266.954643 -57.360713 
L 267.640443 -57.091086 
L 268.326243 -56.826533 
L 269.012043 -56.56699 
L 269.697843 -56.31239 
L 270.383644 -56.062669 
L 271.069444 -55.81776 
L 271.755244 -55.577597 
L 272.441044 -55.342117 
L 273.126844 -55.111252 
L 273.812644 -54.88494 
L 274.498444 -54.663114 
L 275.184244 -54.44571 
L 275.870044 -54.232665 
L 276.555844 -54.023914 
L 277.241644 -53.819393 
L 277.927444 -53.619039 
L 278.613244 -53.422789 
L 279.299045 -53.23058 
L 279.984845 -53.04235 
L 280.670645 -52.858037 
L 281.356445 -52.677579 
L 282.042245 -52.500916 
L 282.728045 -52.327985 
L 283.413845 -52.158728 
L 284.099645 -51.993085 
L 284.785445 -51.830995 
L 285.471245 -51.6724 
L 286.157045 -51.517242 
L 286.842845 -51.365462 
L 287.528646 -51.217003 
L 288.214446 -51.071809 
L 288.900246 -50.929822 
L 289.586046 -50.790987 
L 290.271846 -50.655249 
L 290.957646 -50.522553 
L 291.643446 -50.392844 
L 292.329246 -50.26607 
L 293.015046 -50.142176 
L 293.700846 -50.021111 
L 294.386646 -49.902822 
L 295.072446 -49.787258 
L 295.758247 -49.674369 
L 296.444047 -49.564104 
L 297.129847 -49.456414 
L 297.815647 -49.351249 
L 298.501447 -49.248562 
L 299.187247 -49.148304 
L 299.873047 -49.050429 
L 300.558847 -48.95489 
L 301.244647 -48.86164 
L 301.930447 -48.770636 
L 302.616247 -48.681831 
L 303.302047 -48.595182 
L 303.987848 -48.510646 
L 304.673648 -48.428179 
L 305.359448 -48.347739 
L 306.045248 -48.269285 
L 306.731048 -48.192776 
L 307.416848 -48.118171 
L 308.102648 -48.04543 
L 308.788448 -47.974514 
L 309.474248 -47.905384 
L 310.160048 -47.838003 
L 310.845848 -47.772333 
L 311.531648 -47.708338 
L 312.217449 -47.64598 
L 312.903249 -47.585224 
L 313.589049 -47.526036 
L 314.274849 -47.46838 
L 314.960649 -47.412223 
L 315.646449 -47.357531 
L 316.332249 -47.304272 
L 317.018049 -47.252413 
L 317.703849 -47.201923 
L 318.389649 -47.152771 
L 319.075449 -47.104926 
L 319.761249 -47.058358 
L 320.44705 -47.013037 
L 321.13285 -46.968935 
L 321.81865 -46.926024 
L 322.50445 -46.884274 
L 323.19025 -46.84366 
L 323.87605 -46.804154 
L 324.56185 -46.765729 
L 325.24765 -46.728361 
L 325.93345 -46.692023 
L 326.61925 -46.65669 
L 327.30505 -46.622339 
L 327.99085 -46.588946 
L 328.676651 -46.556486 
L 329.362451 -46.524938 
L 330.048251 -46.494278 
L 330.734051 -46.464485 
L 331.419851 -46.435536 
L 331.419851 -45.536364 
L 331.419851 -45.536364 
L 330.734051 -45.536364 
L 330.048251 -45.536364 
L 329.362451 -45.536364 
L 328.676651 -45.536364 
L 327.99085 -45.536364 
L 327.30505 -45.536364 
L 326.61925 -45.536364 
L 325.93345 -45.536364 
L 325.24765 -45.536364 
L 324.56185 -45.536364 
L 323.87605 -45.536364 
L 323.19025 -45.536364 
L 322.50445 -45.536364 
L 321.81865 -45.536364 
L 321.13285 -45.536364 
L 320.44705 -45.536364 
L 319.761249 -45.536364 
L 319.075449 -45.536364 
L 318.389649 -45.536364 
L 317.703849 -45.536364 
L 317.018049 -45.536364 
L 316.332249 -45.536364 
L 315.646449 -45.536364 
L 314.960649 -45.536364 
L 314.274849 -45.536364 
L 313.589049 -45.536364 
L 312.903249 -45.536364 
L 312.217449 -45.536364 
L 311.531648 -45.536364 
L 310.845848 -45.536364 
L 310.160048 -45.536364 
L 309.474248 -45.536364 
L 308.788448 -45.536364 
L 308.102648 -45.536364 
L 307.416848 -45.536364 
L 306.731048 -45.536364 
L 306.045248 -45.536364 
L 305.359448 -45.536364 
L 304.673648 -45.536364 
L 303.987848 -45.536364 
L 303.302047 -45.536364 
L 302.616247 -45.536364 
L 301.930447 -45.536364 
L 301.244647 -45.536364 
L 300.558847 -45.536364 
L 299.873047 -45.536364 
L 299.187247 -45.536364 
L 298.501447 -45.536364 
L 297.815647 -45.536364 
L 297.129847 -45.536364 
L 296.444047 -45.536364 
L 295.758247 -45.536364 
L 295.072446 -45.536364 
L 294.386646 -45.536364 
L 293.700846 -45.536364 
L 293.015046 -45.536364 
L 292.329246 -45.536364 
L 291.643446 -45.536364 
L 290.957646 -45.536364 
L 290.271846 -45.536364 
L 289.586046 -45.536364 
L 288.900246 -45.536364 
L 288.214446 -45.536364 
L 287.528646 -45.536364 
L 286.842845 -45.536364 
L 286.157045 -45.536364 
L 285.471245 -45.536364 
L 284.785445 -45.536364 
L 284.099645 -45.536364 
L 283.413845 -45.536364 
L 282.728045 -45.536364 
L 282.042245 -45.536364 
L 281.356445 -45.536364 
L 280.670645 -45.536364 
L 279.984845 -45.536364 
L 279.299045 -45.536364 
L 278.613244 -45.536364 
L 277.927444 -45.536364 
L 277.241644 -45.536364 
L 276.555844 -45.536364 
L 275.870044 -45.536364 
L 275.184244 -45.536364 
L 274.498444 -45.536364 
L 273.812644 -45.536364 
L 273.126844 -45.536364 
L 272.441044 -45.536364 
L 271.755244 -45.536364 
L 271.069444 -45.536364 
L 270.383644 -45.536364 
L 269.697843 -45.536364 
L 269.012043 -45.536364 
L 268.326243 -45.536364 
L 267.640443 -45.536364 
L 266.954643 -45.536364 
L 266.268843 -45.536364 
L 265.583043 -45.536364 
L 264.897243 -45.536364 
L 264.211443 -45.536364 
L 263.525643 -45.536364 
L 262.839843 -45.536364 
L 262.154043 -45.536364 
L 261.468242 -45.536364 
L 260.782442 -45.536364 
L 260.096642 -45.536364 
L 259.410842 -45.536364 
L 258.725042 -45.536364 
L 258.039242 -45.536364 
L 257.353442 -45.536364 
L 256.667642 -45.536364 
L 255.981842 -45.536364 
L 255.296042 -45.536364 
L 254.610242 -45.536364 
L 253.924442 -45.536364 
L 253.238641 -45.536364 
L 252.552841 -45.536364 
L 251.867041 -45.536364 
L 251.181241 -45.536364 
L 250.495441 -45.536364 
L 249.809641 -45.536364 
L 249.123841 -45.536364 
L 248.438041 -45.536364 
L 247.752241 -45.536364 
L 247.066441 -45.536364 
L 246.380641 -45.536364 
L 245.694841 -45.536364 
L 245.00904 -45.536364 
L 244.32324 -45.536364 
L 243.63744 -45.536364 
L 242.95164 -45.536364 
L 242.26584 -45.536364 
L 241.58004 -45.536364 
L 240.89424 -45.536364 
L 240.20844 -45.536364 
L 239.52264 -45.536364 
L 238.83684 -45.536364 
L 238.15104 -45.536364 
L 237.46524 -45.536364 
L 236.779439 -45.536364 
L 236.093639 -45.536364 
L 235.407839 -45.536364 
L 234.722039 -45.536364 
L 234.036239 -45.536364 
L 233.350439 -45.536364 
L 232.664639 -45.536364 
L 231.978839 -45.536364 
L 231.293039 -45.536364 
L 230.607239 -45.536364 
L 229.921439 -45.536364 
L 229.235639 -45.536364 
L 228.549838 -45.536364 
L 227.864038 -45.536364 
L 227.178238 -45.536364 
L 226.492438 -45.536364 
L 225.806638 -45.536364 
L 225.120838 -45.536364 
L 224.435038 -45.536364 
L 223.749238 -45.536364 
L 223.063438 -45.536364 
L 222.377638 -45.536364 
L 221.691838 -45.536364 
L 221.006038 -45.536364 
L 220.320237 -45.536364 
L 219.634437 -45.536364 
L 218.948637 -45.536364 
L 218.262837 -45.536364 
L 217.577037 -45.536364 
L 216.891237 -45.536364 
L 216.205437 -45.536364 
L 215.519637 -45.536364 
L 214.833837 -45.536364 
L 214.148037 -45.536364 
L 213.462237 -45.536364 
L 212.776437 -45.536364 
L 212.090636 -45.536364 
L 211.404836 -45.536364 
L 210.719036 -45.536364 
L 210.033236 -45.536364 
L 209.347436 -45.536364 
L 208.661636 -45.536364 
L 207.975836 -45.536364 
L 207.290036 -45.536364 
L 206.604236 -45.536364 
L 205.918436 -45.536364 
L 205.232636 -45.536364 
L 204.546836 -45.536364 
L 203.861035 -45.536364 
L 203.175235 -45.536364 
L 202.489435 -45.536364 
L 201.803635 -45.536364 
L 201.117835 -45.536364 
L 200.432035 -45.536364 
L 199.746235 -45.536364 
L 199.060435 -45.536364 
L 198.374635 -45.536364 
L 197.688835 -45.536364 
L 197.003035 -45.536364 
L 196.317235 -45.536364 
L 195.631434 -45.536364 
L 194.945634 -45.536364 
L 194.259834 -45.536364 
L 193.574034 -45.536364 
L 192.888234 -45.536364 
L 192.202434 -45.536364 
L 191.516634 -45.536364 
L 190.830834 -45.536364 
L 190.145034 -45.536364 
L 189.459234 -45.536364 
L 188.773434 -45.536364 
L 188.087634 -45.536364 
L 187.401834 -45.536364 
L 186.716033 -45.536364 
L 186.030233 -45.536364 
L 185.344433 -45.536364 
L 184.658633 -45.536364 
L 183.972833 -45.536364 
L 183.287033 -45.536364 
L 182.601233 -45.536364 
L 181.915433 -45.536364 
L 181.229633 -45.536364 
L 180.543833 -45.536364 
L 179.858033 -45.536364 
L 179.172233 -45.536364 
L 178.486432 -45.536364 
L 177.800632 -45.536364 
L 177.114832 -45.536364 
L 176.429032 -45.536364 
L 175.743232 -45.536364 
L 175.057432 -45.536364 
L 174.371632 -45.536364 
L 173.685832 -45.536364 
L 173.000032 -45.536364 
L 172.314232 -45.536364 
L 171.628432 -45.536364 
L 170.942632 -45.536364 
L 170.256831 -45.536364 
L 169.571031 -45.536364 
L 168.885231 -45.536364 
L 168.199431 -45.536364 
L 167.513631 -45.536364 
L 166.827831 -45.536364 
L 166.142031 -45.536364 
L 165.456231 -45.536364 
L 164.770431 -45.536364 
L 164.084631 -45.536364 
L 163.398831 -45.536364 
L 162.713031 -45.536364 
L 162.02723 -45.536364 
L 161.34143 -45.536364 
L 160.65563 -45.536364 
L 159.96983 -45.536364 
L 159.28403 -45.536364 
L 158.59823 -45.536364 
L 157.91243 -45.536364 
L 157.22663 -45.536364 
L 156.54083 -45.536364 
L 155.85503 -45.536364 
L 155.16923 -45.536364 
L 154.48343 -45.536364 
L 153.797629 -45.536364 
L 153.111829 -45.536364 
L 152.426029 -45.536364 
L 151.740229 -45.536364 
L 151.054429 -45.536364 
L 150.368629 -45.536364 
L 149.682829 -45.536364 
L 148.997029 -45.536364 
L 148.311229 -45.536364 
L 147.625429 -45.536364 
L 146.939629 -45.536364 
L 146.253829 -45.536364 
L 145.568028 -45.536364 
L 144.882228 -45.536364 
L 144.196428 -45.536364 
L 143.510628 -45.536364 
L 142.824828 -45.536364 
L 142.139028 -45.536364 
L 141.453228 -45.536364 
L 140.767428 -45.536364 
L 140.081628 -45.536364 
L 139.395828 -45.536364 
L 138.710028 -45.536364 
L 138.024228 -45.536364 
L 137.338427 -45.536364 
L 136.652627 -45.536364 
L 135.966827 -45.536364 
L 135.281027 -45.536364 
L 134.595227 -45.536364 
L 133.909427 -45.536364 
L 133.223627 -45.536364 
L 132.537827 -45.536364 
L 131.852027 -45.536364 
L 131.166227 -45.536364 
L 130.480427 -45.536364 
L 129.794627 -45.536364 
L 129.108826 -45.536364 
L 128.423026 -45.536364 
L 127.737226 -45.536364 
L 127.051426 -45.536364 
L 126.365626 -45.536364 
L 125.679826 -45.536364 
L 124.994026 -45.536364 
L 124.308226 -45.536364 
L 123.622426 -45.536364 
L 122.936626 -45.536364 
L 122.250826 -45.536364 
L 121.565026 -45.536364 
L 120.879225 -45.536364 
L 120.193425 -45.536364 
L 119.507625 -45.536364 
L 118.821825 -45.536364 
L 118.136025 -45.536364 
L 117.450225 -45.536364 
L 116.764425 -45.536364 
L 116.078625 -45.536364 
L 115.392825 -45.536364 
L 114.707025 -45.536364 
L 114.021225 -45.536364 
L 113.335425 -45.536364 
L 112.649625 -45.536364 
L 111.963824 -45.536364 
L 111.278024 -45.536364 
L 110.592224 -45.536364 
L 109.906424 -45.536364 
L 109.220624 -45.536364 
L 108.534824 -45.536364 
L 107.849024 -45.536364 
L 107.163224 -45.536364 
L 106.477424 -45.536364 
L 105.791624 -45.536364 
L 105.105824 -45.536364 
L 104.420024 -45.536364 
L 103.734223 -45.536364 
L 103.048423 -45.536364 
L 102.362623 -45.536364 
L 101.676823 -45.536364 
L 100.991023 -45.536364 
L 100.305223 -45.536364 
L 99.619423 -45.536364 
L 98.933623 -45.536364 
L 98.247823 -45.536364 
L 97.562023 -45.536364 
L 96.876223 -45.536364 
L 96.190423 -45.536364 
L 95.504622 -45.536364 
L 94.818822 -45.536364 
L 94.133022 -45.536364 
L 93.447222 -45.536364 
L 92.761422 -45.536364 
L 92.075622 -45.536364 
L 91.389822 -45.536364 
L 90.704022 -45.536364 
L 90.018222 -45.536364 
L 89.332422 -45.536364 
L 88.646622 -45.536364 
L 87.960822 -45.536364 
L 87.275021 -45.536364 
L 86.589221 -45.536364 
L 85.903421 -45.536364 
L 85.217621 -45.536364 
L 84.531821 -45.536364 
L 83.846021 -45.536364 
L 83.160221 -45.536364 
L 82.474421 -45.536364 
L 81.788621 -45.536364 
L 81.102821 -45.536364 
L 80.417021 -45.536364 
L 79.731221 -45.536364 
L 79.04542 -45.536364 
L 78.35962 -45.536364 
L 77.67382 -45.536364 
L 76.98802 -45.536364 
L 76.30222 -45.536364 
L 75.61642 -45.536364 
L 74.93062 -45.536364 
L 74.24482 -45.536364 
L 73.55902 -45.536364 
L 72.87322 -45.536364 
L 72.18742 -45.536364 
L 71.50162 -45.536364 
L 70.815819 -45.536364 
L 70.130019 -45.536364 
L 69.444219 -45.536364 
L 68.758419 -45.536364 
L 68.072619 -45.536364 
L 67.386819 -45.536364 
L 66.701019 -45.536364 
L 66.015219 -45.536364 
L 65.329419 -45.536364 
L 64.643619 -45.536364 
L 63.957819 -45.536364 
L 63.272019 -45.536364 
L 62.586218 -45.536364 
L 61.900418 -45.536364 
L 61.214618 -45.536364 
L 60.528818 -45.536364 
L 59.843018 -45.536364 
L 59.157218 -45.536364 
L 58.471418 -45.536364 
L 57.785618 -45.536364 
z
" style="stroke: #4c78a8; stroke-opacity: 0.15"/>
    </defs>
    <g clip-path="url(#p605d64e084)">
     <use xlink:href="#m6e9eca7743" x="0" y="223.158281" style="fill: #4c78a8; fill-opacity: 0.15; stroke: #4c78a8; stroke-opacity: 0.15"/>
    </g>
   </g>
   <g id="matplotlib.axis_1">
    <g id="xtick_1">
     <g id="line2d_1">
      <path d="M 54.45236 184.958281 
L 54.45236 23.558281 
" clip-path="url(#p605d64e084)" style="fill: none; stroke: #b0b0b0; stroke-opacity: 0.25; stroke-width: 0.6; stroke-linecap: square"/>
     </g>
     <g id="line2d_2">
      <defs>
       <path id="m62532f0b4c" d="M 0 0 
L 0 3.5 
" style="stroke: #000000; stroke-width: 0.8"/>
      </defs>
      <g>
       <use xlink:href="#m62532f0b4c" x="54.45236" y="184.958281" style="stroke: #000000; stroke-width: 0.8"/>
      </g>
     </g>
     <g id="text_1">
      <!-- 0 -->
      <g transform="translate(51.27111 199.555938) scale(0.1 -0.1)">
       <defs>
        <path id="DejaVuSans-13" d="M 2034 4250 
Q 1547 4250 1301 3770 
Q 1056 3291 1056 2328 
Q 1056 1369 1301 889 
Q 1547 409 2034 409 
Q 2525 409 2770 889 
Q 3016 1369 3016 2328 
Q 3016 3291 2770 3770 
Q 2525 4250 2034 4250 
z
M 2034 4750 
Q 2819 4750 3233 4129 
Q 3647 3509 3647 2328 
Q 3647 1150 3233 529 
Q 2819 -91 2034 -91 
Q 1250 -91 836 529 
Q 422 1150 422 2328 
Q 422 3509 836 4129 
Q 1250 4750 2034 4750 
z
" transform="scale(0.015625)"/>
       </defs>
       <use xlink:href="#DejaVuSans-13"/>
      </g>
     </g>
    </g>
    <g id="xtick_2">
     <g id="line2d_3">
      <path d="M 104.129212 184.958281 
L 104.129212 23.558281 
" clip-path="url(#p605d64e084)" style="fill: none; stroke: #b0b0b0; stroke-opacity: 0.25; stroke-width: 0.6; stroke-linecap: square"/>
     </g>
     <g id="line2d_4">
      <g>
       <use xlink:href="#m62532f0b4c" x="104.129212" y="184.958281" style="stroke: #000000; stroke-width: 0.8"/>
      </g>
     </g>
     <g id="text_2">
      <!-- 1 -->
      <g transform="translate(100.947962 199.555938) scale(0.1 -0.1)">
       <defs>
        <path id="DejaVuSans-14" d="M 794 531 
L 1825 531 
L 1825 4091 
L 703 3866 
L 703 4441 
L 1819 4666 
L 2450 4666 
L 2450 531 
L 3481 531 
L 3481 0 
L 794 0 
L 794 531 
z
" transform="scale(0.015625)"/>
       </defs>
       <use xlink:href="#DejaVuSans-14"/>
      </g>
     </g>
    </g>
    <g id="xtick_3">
     <g id="line2d_5">
      <path d="M 153.806064 184.958281 
L 153.806064 23.558281 
" clip-path="url(#p605d64e084)" style="fill: none; stroke: #b0b0b0; stroke-opacity: 0.25; stroke-width: 0.6; stroke-linecap: square"/>
     </g>
     <g id="line2d_6">
      <g>
       <use xlink:href="#m62532f0b4c" x="153.806064" y="184.958281" style="stroke: #000000; stroke-width: 0.8"/>
      </g>
     </g>
     <g id="text_3">
      <!-- 2 -->
      <g transform="translate(150.624814 199.555938) scale(0.1 -0.1)">
       <defs>
        <path id="DejaVuSans-15" d="M 1228 531 
L 3431 531 
L 3431 0 
L 469 0 
L 469 531 
Q 828 903 1448 1529 
Q 2069 2156 2228 2338 
Q 2531 2678 2651 2914 
Q 2772 3150 2772 3378 
Q 2772 3750 2511 3984 
Q 2250 4219 1831 4219 
Q 1534 4219 1204 4116 
Q 875 4013 500 3803 
L 500 4441 
Q 881 4594 1212 4672 
Q 1544 4750 1819 4750 
Q 2544 4750 2975 4387 
Q 3406 4025 3406 3419 
Q 3406 3131 3298 2873 
Q 3191 2616 2906 2266 
Q 2828 2175 2409 1742 
Q 1991 1309 1228 531 
z
" transform="scale(0.015625)"/>
       </defs>
       <use xlink:href="#DejaVuSans-15"/>
      </g>
     </g>
    </g>
    <g id="xtick_4">
     <g id="line2d_7">
      <path d="M 203.482916 184.958281 
L 203.482916 23.558281 
" clip-path="url(#p605d64e084)" style="fill: none; stroke: #b0b0b0; stroke-opacity: 0.25; stroke-width: 0.6; stroke-linecap: square"/>
     </g>
     <g id="line2d_8">
      <g>
       <use xlink:href="#m62532f0b4c" x="203.482916" y="184.958281" style="stroke: #000000; stroke-width: 0.8"/>
      </g>
     </g>
     <g id="text_4">
      <!-- 3 -->
      <g transform="translate(200.301666 199.555938) scale(0.1 -0.1)">
       <defs>
        <path id="DejaVuSans-16" d="M 2597 2516 
Q 3050 2419 3304 2112 
Q 3559 1806 3559 1356 
Q 3559 666 3084 287 
Q 2609 -91 1734 -91 
Q 1441 -91 1130 -33 
Q 819 25 488 141 
L 488 750 
Q 750 597 1062 519 
Q 1375 441 1716 441 
Q 2309 441 2620 675 
Q 2931 909 2931 1356 
Q 2931 1769 2642 2001 
Q 2353 2234 1838 2234 
L 1294 2234 
L 1294 2753 
L 1863 2753 
Q 2328 2753 2575 2939 
Q 2822 3125 2822 3475 
Q 2822 3834 2567 4026 
Q 2313 4219 1838 4219 
Q 1578 4219 1281 4162 
Q 984 4106 628 3988 
L 628 4550 
Q 988 4650 1302 4700 
Q 1616 4750 1894 4750 
Q 2613 4750 3031 4423 
Q 3450 4097 3450 3541 
Q 3450 3153 3228 2886 
Q 3006 2619 2597 2516 
z
" transform="scale(0.015625)"/>
       </defs>
       <use xlink:href="#DejaVuSans-16"/>
      </g>
     </g>
    </g>
    <g id="xtick_5">
     <g id="line2d_9">
      <path d="M 253.159768 184.958281 
L 253.159768 23.558281 
" clip-path="url(#p605d64e084)" style="fill: none; stroke: #b0b0b0; stroke-opacity: 0.25; stroke-width: 0.6; stroke-linecap: square"/>
     </g>
     <g id="line2d_10">
      <g>
       <use xlink:href="#m62532f0b4c" x="253.159768" y="184.958281" style="stroke: #000000; stroke-width: 0.8"/>
      </g>
     </g>
     <g id="text_5">
      <!-- 4 -->
      <g transform="translate(249.978518 199.555938) scale(0.1 -0.1)">
       <defs>
        <path id="DejaVuSans-17" d="M 2419 4116 
L 825 1625 
L 2419 1625 
L 2419 4116 
z
M 2253 4666 
L 3047 4666 
L 3047 1625 
L 3713 1625 
L 3713 1100 
L 3047 1100 
L 3047 0 
L 2419 0 
L 2419 1100 
L 313 1100 
L 313 1709 
L 2253 4666 
z
" transform="scale(0.015625)"/>
       </defs>
       <use xlink:href="#DejaVuSans-17"/>
      </g>
     </g>
    </g>
    <g id="xtick_6">
     <g id="line2d_11">
      <path d="M 302.836621 184.958281 
L 302.836621 23.558281 
" clip-path="url(#p605d64e084)" style="fill: none; stroke: #b0b0b0; stroke-opacity: 0.25; stroke-width: 0.6; stroke-linecap: square"/>
     </g>
     <g id="line2d_12">
      <g>
       <use xlink:href="#m62532f0b4c" x="302.836621" y="184.958281" style="stroke: #000000; stroke-width: 0.8"/>
      </g>
     </g>
     <g id="text_6">
      <!-- 5 -->
      <g transform="translate(299.655371 199.555938) scale(0.1 -0.1)">
       <defs>
        <path id="DejaVuSans-18" d="M 691 4666 
L 3169 4666 
L 3169 4134 
L 1269 4134 
L 1269 2991 
Q 1406 3038 1543 3061 
Q 1681 3084 1819 3084 
Q 2600 3084 3056 2656 
Q 3513 2228 3513 1497 
Q 3513 744 3044 326 
Q 2575 -91 1722 -91 
Q 1428 -91 1123 -41 
Q 819 9 494 109 
L 494 744 
Q 775 591 1075 516 
Q 1375 441 1709 441 
Q 2250 441 2565 725 
Q 2881 1009 2881 1497 
Q 2881 1984 2565 2268 
Q 2250 2553 1709 2553 
Q 1456 2553 1204 2497 
Q 953 2441 691 2322 
L 691 4666 
z
" transform="scale(0.015625)"/>
       </defs>
       <use xlink:href="#DejaVuSans-18"/>
      </g>
     </g>
    </g>
    <g id="text_7">
     <!-- x -->
     <g transform="translate(191.643359 213.555938) scale(0.1 -0.1)">
      <defs>
       <path id="DejaVuSans-5b" d="M 3513 3500 
L 2247 1797 
L 3578 0 
L 2900 0 
L 1881 1375 
L 863 0 
L 184 0 
L 1544 1831 
L 300 3500 
L 978 3500 
L 1906 2253 
L 2834 3500 
L 3513 3500 
z
" transform="scale(0.015625)"/>
      </defs>
      <use xlink:href="#DejaVuSans-5b"/>
     </g>
    </g>
   </g>
   <g id="matplotlib.axis_2">
    <g id="ytick_1">
     <g id="line2d_13">
      <path d="M 44.103906 177.621918 
L 345.101562 177.621918 
" clip-path="url(#p605d64e084)" style="fill: none; stroke: #b0b0b0; stroke-opacity: 0.25; stroke-width: 0.6; stroke-linecap: square"/>
     </g>
     <g id="line2d_14">
      <defs>
       <path id="mf86d9adbef" d="M 0 0 
L -3.5 0 
" style="stroke: #000000; stroke-width: 0.8"/>
      </defs>
      <g>
       <use xlink:href="#mf86d9adbef" x="44.103906" y="177.621918" style="stroke: #000000; stroke-width: 0.8"/>
      </g>
     </g>
     <g id="text_8">
      <!-- 0.0 -->
      <g transform="translate(21.200781 181.420746) scale(0.1 -0.1)">
       <defs>
        <path id="DejaVuSans-11" d="M 684 794 
L 1344 794 
L 1344 0 
L 684 0 
L 684 794 
z
" transform="scale(0.015625)"/>
       </defs>
       <use xlink:href="#DejaVuSans-13"/>
       <use xlink:href="#DejaVuSans-11" transform="translate(63.625 0)"/>
       <use xlink:href="#DejaVuSans-13" transform="translate(95.40625 0)"/>
      </g>
     </g>
    </g>
    <g id="ytick_2">
     <g id="line2d_15">
      <path d="M 44.103906 141.334931 
L 345.101562 141.334931 
" clip-path="url(#p605d64e084)" style="fill: none; stroke: #b0b0b0; stroke-opacity: 0.25; stroke-width: 0.6; stroke-linecap: square"/>
     </g>
     <g id="line2d_16">
      <g>
       <use xlink:href="#mf86d9adbef" x="44.103906" y="141.334931" style="stroke: #000000; stroke-width: 0.8"/>
      </g>
     </g>
     <g id="text_9">
      <!-- 0.1 -->
      <g transform="translate(21.200781 145.133759) scale(0.1 -0.1)">
       <use xlink:href="#DejaVuSans-13"/>
       <use xlink:href="#DejaVuSans-11" transform="translate(63.625 0)"/>
       <use xlink:href="#DejaVuSans-14" transform="translate(95.40625 0)"/>
      </g>
     </g>
    </g>
    <g id="ytick_3">
     <g id="line2d_17">
      <path d="M 44.103906 105.047945 
L 345.101562 105.047945 
" clip-path="url(#p605d64e084)" style="fill: none; stroke: #b0b0b0; stroke-opacity: 0.25; stroke-width: 0.6; stroke-linecap: square"/>
     </g>
     <g id="line2d_18">
      <g>
       <use xlink:href="#mf86d9adbef" x="44.103906" y="105.047945" style="stroke: #000000; stroke-width: 0.8"/>
      </g>
     </g>
     <g id="text_10">
      <!-- 0.2 -->
      <g transform="translate(21.200781 108.846773) scale(0.1 -0.1)">
       <use xlink:href="#DejaVuSans-13"/>
       <use xlink:href="#DejaVuSans-11" transform="translate(63.625 0)"/>
       <use xlink:href="#DejaVuSans-15" transform="translate(95.40625 0)"/>
      </g>
     </g>
    </g>
    <g id="ytick_4">
     <g id="line2d_19">
      <path d="M 44.103906 68.760958 
L 345.101562 68.760958 
" clip-path="url(#p605d64e084)" style="fill: none; stroke: #b0b0b0; stroke-opacity: 0.25; stroke-width: 0.6; stroke-linecap: square"/>
     </g>
     <g id="line2d_20">
      <g>
       <use xlink:href="#mf86d9adbef" x="44.103906" y="68.760958" style="stroke: #000000; stroke-width: 0.8"/>
      </g>
     </g>
     <g id="text_11">
      <!-- 0.3 -->
      <g transform="translate(21.200781 72.559786) scale(0.1 -0.1)">
       <use xlink:href="#DejaVuSans-13"/>
       <use xlink:href="#DejaVuSans-11" transform="translate(63.625 0)"/>
       <use xlink:href="#DejaVuSans-16" transform="translate(95.40625 0)"/>
      </g>
     </g>
    </g>
    <g id="ytick_5">
     <g id="line2d_21">
      <path d="M 44.103906 32.473972 
L 345.101562 32.473972 
" clip-path="url(#p605d64e084)" style="fill: none; stroke: #b0b0b0; stroke-opacity: 0.25; stroke-width: 0.6; stroke-linecap: square"/>
     </g>
     <g id="line2d_22">
      <g>
       <use xlink:href="#mf86d9adbef" x="44.103906" y="32.473972" style="stroke: #000000; stroke-width: 0.8"/>
      </g>
     </g>
     <g id="text_12">
      <!-- 0.4 -->
      <g transform="translate(21.200781 36.2728) scale(0.1 -0.1)">
       <use xlink:href="#DejaVuSans-13"/>
       <use xlink:href="#DejaVuSans-11" transform="translate(63.625 0)"/>
       <use xlink:href="#DejaVuSans-17" transform="translate(95.40625 0)"/>
      </g>
     </g>
    </g>
    <g id="text_13">
     <!-- f(x) -->
     <g transform="translate(14.798438 112.879375) rotate(-90) scale(0.1 -0.1)">
      <defs>
       <path id="DejaVuSans-49" d="M 2375 4863 
L 2375 4384 
L 1825 4384 
Q 1516 4384 1395 4259 
Q 1275 4134 1275 3809 
L 1275 3500 
L 2222 3500 
L 2222 3053 
L 1275 3053 
L 1275 0 
L 697 0 
L 697 3053 
L 147 3053 
L 147 3500 
L 697 3500 
L 697 3744 
Q 697 4328 969 4595 
Q 1241 4863 1831 4863 
L 2375 4863 
z
" transform="scale(0.015625)"/>
       <path id="DejaVuSans-b" d="M 1984 4856 
Q 1566 4138 1362 3434 
Q 1159 2731 1159 2009 
Q 1159 1288 1364 580 
Q 1569 -128 1984 -844 
L 1484 -844 
Q 1016 -109 783 600 
Q 550 1309 550 2009 
Q 550 2706 781 3412 
Q 1013 4119 1484 4856 
L 1984 4856 
z
" transform="scale(0.015625)"/>
       <path id="DejaVuSans-c" d="M 513 4856 
L 1013 4856 
Q 1481 4119 1714 3412 
Q 1947 2706 1947 2009 
Q 1947 1309 1714 600 
Q 1481 -109 1013 -844 
L 513 -844 
Q 928 -128 1133 580 
Q 1338 1288 1338 2009 
Q 1338 2731 1133 3434 
Q 928 4138 513 4856 
z
" transform="scale(0.015625)"/>
      </defs>
      <use xlink:href="#DejaVuSans-49"/>
      <use xlink:href="#DejaVuSans-b" transform="translate(35.203125 0)"/>
      <use xlink:href="#DejaVuSans-5b" transform="translate(74.21875 0)"/>
      <use xlink:href="#DejaVuSans-c" transform="translate(133.40625 0)"/>
     </g>
    </g>
   </g>
   <g id="line2d_23">
    <path d="M 57.785618 166.811344 
L 66.015219 140.532429 
L 71.50162 123.701644 
L 76.30222 109.671479 
L 80.417021 98.292932 
L 84.531821 87.609873 
L 87.960822 79.298294 
L 91.389822 71.568764 
L 94.818822 64.457286 
L 97.562023 59.233483 
L 100.305223 54.437107 
L 103.048423 50.078147 
L 105.791624 46.164021 
L 108.534824 42.699596 
L 111.278024 39.687207 
L 113.335425 37.724572 
L 115.392825 36.015226 
L 117.450225 34.557473 
L 119.507625 33.348898 
L 121.565026 32.38639 
L 123.622426 31.666172 
L 125.679826 31.183828 
L 127.737226 30.934342 
L 129.794627 30.912124 
L 131.852027 31.111053 
L 133.909427 31.52451 
L 135.966827 32.145422 
L 138.024228 32.966294 
L 140.081628 33.979255 
L 142.824828 35.614447 
L 145.568028 37.556256 
L 148.311229 39.783668 
L 151.054429 42.275085 
L 154.48343 45.72704 
L 157.91243 49.513558 
L 162.02723 54.437548 
L 166.142031 59.705701 
L 171.628432 67.139352 
L 178.486432 76.858498 
L 197.688835 104.32176 
L 203.861035 112.640673 
L 209.347436 119.657958 
L 214.148037 125.460187 
L 218.948637 130.918273 
L 223.749238 136.013905 
L 227.864038 140.085105 
L 231.978839 143.880066 
L 236.093639 147.399951 
L 240.20844 150.648915 
L 244.32324 153.633677 
L 248.438041 156.363097 
L 252.552841 158.847773 
L 256.667642 161.099658 
L 261.468242 163.449967 
L 266.268843 165.5228 
L 271.069444 167.340522 
L 275.870044 168.925616 
L 281.356445 170.480702 
L 286.842845 171.792819 
L 293.015046 173.016105 
L 299.187247 174.009977 
L 306.045248 174.888996 
L 313.589049 175.632246 
L 322.50445 176.274007 
L 331.419851 176.722745 
L 331.419851 176.722745 
" clip-path="url(#p605d64e084)" style="fill: none; stroke: #4c78a8; stroke-width: 2; stroke-linecap: square"/>
   </g>
   <g id="patch_3">
    <path d="M 44.103906 184.958281 
L 44.103906 23.558281 
" style="fill: none; stroke: #000000; stroke-width: 0.8; stroke-linejoin: miter; stroke-linecap: square"/>
   </g>
   <g id="patch_4">
    <path d="M 44.103906 184.958281 
L 345.101562 184.958281 
" style="fill: none; stroke: #000000; stroke-width: 0.8; stroke-linejoin: miter; stroke-linecap: square"/>
   </g>
   <g id="text_14">
    <!-- Rayleigh -->
    <g transform="translate(170.859063 15.558281) scale(0.11 -0.11)">
     <defs>
      <path id="DejaVuSans-35" d="M 2841 2188 
Q 3044 2119 3236 1894 
Q 3428 1669 3622 1275 
L 4263 0 
L 3584 0 
L 2988 1197 
Q 2756 1666 2539 1819 
Q 2322 1972 1947 1972 
L 1259 1972 
L 1259 0 
L 628 0 
L 628 4666 
L 2053 4666 
Q 2853 4666 3247 4331 
Q 3641 3997 3641 3322 
Q 3641 2881 3436 2590 
Q 3231 2300 2841 2188 
z
M 1259 4147 
L 1259 2491 
L 2053 2491 
Q 2509 2491 2742 2702 
Q 2975 2913 2975 3322 
Q 2975 3731 2742 3939 
Q 2509 4147 2053 4147 
L 1259 4147 
z
" transform="scale(0.015625)"/>
      <path id="DejaVuSans-44" d="M 2194 1759 
Q 1497 1759 1228 1600 
Q 959 1441 959 1056 
Q 959 750 1161 570 
Q 1363 391 1709 391 
Q 2188 391 2477 730 
Q 2766 1069 2766 1631 
L 2766 1759 
L 2194 1759 
z
M 3341 1997 
L 3341 0 
L 2766 0 
L 2766 531 
Q 2569 213 2275 61 
Q 1981 -91 1556 -91 
Q 1019 -91 701 211 
Q 384 513 384 1019 
Q 384 1609 779 1909 
Q 1175 2209 1959 2209 
L 2766 2209 
L 2766 2266 
Q 2766 2663 2505 2880 
Q 2244 3097 1772 3097 
Q 1472 3097 1187 3025 
Q 903 2953 641 2809 
L 641 3341 
Q 956 3463 1253 3523 
Q 1550 3584 1831 3584 
Q 2591 3584 2966 3190 
Q 3341 2797 3341 1997 
z
" transform="scale(0.015625)"/>
      <path id="DejaVuSans-5c" d="M 2059 -325 
Q 1816 -950 1584 -1140 
Q 1353 -1331 966 -1331 
L 506 -1331 
L 506 -850 
L 844 -850 
Q 1081 -850 1212 -737 
Q 1344 -625 1503 -206 
L 1606 56 
L 191 3500 
L 800 3500 
L 1894 763 
L 2988 3500 
L 3597 3500 
L 2059 -325 
z
" transform="scale(0.015625)"/>
      <path id="DejaVuSans-4f" d="M 603 4863 
L 1178 4863 
L 1178 0 
L 603 0 
L 603 4863 
z
" transform="scale(0.015625)"/>
      <path id="DejaVuSans-48" d="M 3597 1894 
L 3597 1613 
L 953 1613 
Q 991 1019 1311 708 
Q 1631 397 2203 397 
Q 2534 397 2845 478 
Q 3156 559 3463 722 
L 3463 178 
Q 3153 47 2828 -22 
Q 2503 -91 2169 -91 
Q 1331 -91 842 396 
Q 353 884 353 1716 
Q 353 2575 817 3079 
Q 1281 3584 2069 3584 
Q 2775 3584 3186 3129 
Q 3597 2675 3597 1894 
z
M 3022 2063 
Q 3016 2534 2758 2815 
Q 2500 3097 2075 3097 
Q 1594 3097 1305 2825 
Q 1016 2553 972 2059 
L 3022 2063 
z
" transform="scale(0.015625)"/>
      <path id="DejaVuSans-4c" d="M 603 3500 
L 1178 3500 
L 1178 0 
L 603 0 
L 603 3500 
z
M 603 4863 
L 1178 4863 
L 1178 4134 
L 603 4134 
L 603 4863 
z
" transform="scale(0.015625)"/>
      <path id="DejaVuSans-4a" d="M 2906 1791 
Q 2906 2416 2648 2759 
Q 2391 3103 1925 3103 
Q 1463 3103 1205 2759 
Q 947 2416 947 1791 
Q 947 1169 1205 825 
Q 1463 481 1925 481 
Q 2391 481 2648 825 
Q 2906 1169 2906 1791 
z
M 3481 434 
Q 3481 -459 3084 -895 
Q 2688 -1331 1869 -1331 
Q 1566 -1331 1297 -1286 
Q 1028 -1241 775 -1147 
L 775 -588 
Q 1028 -725 1275 -790 
Q 1522 -856 1778 -856 
Q 2344 -856 2625 -561 
Q 2906 -266 2906 331 
L 2906 616 
Q 2728 306 2450 153 
Q 2172 0 1784 0 
Q 1141 0 747 490 
Q 353 981 353 1791 
Q 353 2603 747 3093 
Q 1141 3584 1784 3584 
Q 2172 3584 2450 3431 
Q 2728 3278 2906 2969 
L 2906 3500 
L 3481 3500 
L 3481 434 
z
" transform="scale(0.015625)"/>
      <path id="DejaVuSans-4b" d="M 3513 2113 
L 3513 0 
L 2938 0 
L 2938 2094 
Q 2938 2591 2744 2837 
Q 2550 3084 2163 3084 
Q 1697 3084 1428 2787 
Q 1159 2491 1159 1978 
L 1159 0 
L 581 0 
L 581 4863 
L 1159 4863 
L 1159 2956 
Q 1366 3272 1645 3428 
Q 1925 3584 2291 3584 
Q 2894 3584 3203 3211 
Q 3513 2838 3513 2113 
z
" transform="scale(0.015625)"/>
     </defs>
     <use xlink:href="#DejaVuSans-35"/>
     <use xlink:href="#DejaVuSans-44" transform="translate(67.28125 0)"/>
     <use xlink:href="#DejaVuSans-5c" transform="translate(128.5625 0)"/>
     <use xlink:href="#DejaVuSans-4f" transform="translate(187.75 0)"/>
     <use xlink:href="#DejaVuSans-48" transform="translate(215.53125 0)"/>
     <use xlink:href="#DejaVuSans-4c" transform="translate(277.0625 0)"/>
     <use xlink:href="#DejaVuSans-4a" transform="translate(304.84375 0)"/>
     <use xlink:href="#DejaVuSans-4b" transform="translate(368.328125 0)"/>
    </g>
   </g>
  </g>
 </g>
 <defs>
  <clipPath id="p605d64e084">
   <rect x="44.103906" y="23.558281" width="300.997656" height="161.4"/>
  </clipPath>
 </defs>
</svg>
