<?xml version="1.0" encoding="utf-8" standalone="no"?>
<!DOCTYPE svg PUBLIC "-//W3C//DTD SVG 1.1//EN"
  "http://www.w3.org/Graphics/SVG/1.1/DTD/svg11.dtd">
<svg xmlns:xlink="http://www.w3.org/1999/xlink" width="352.064062pt" height="222.956719pt" viewBox="0 0 352.064062 222.956719" xmlns="http://www.w3.org/2000/svg" version="1.1">
 <metadata>
  <rdf:RDF xmlns:dc="http://purl.org/dc/elements/1.1/" xmlns:cc="http://creativecommons.org/ns#" xmlns:rdf="http://www.w3.org/1999/02/22-rdf-syntax-ns#">
   <cc:Work>
    <dc:type rdf:resource="http://purl.org/dc/dcmitype/StillImage"/>
    <dc:date>2026-07-05T02:24:30.703815</dc:date>
    <dc:format>image/svg+xml</dc:format>
    <dc:creator>
     <cc:Agent>
      <dc:title>Matplotlib v3.11.0, https://matplotlib.org/</dc:title>
     </cc:Agent>
    </dc:creator>
   </cc:Work>
  </rdf:RDF>
 </metadata>
 <defs>
  <style type="text/css">*{stroke-linejoin: round; stroke-linecap: butt}</style>
 </defs>
 <g id="figure_1">
  <g id="patch_1">
   <path d="M 0 222.956719 
L 352.064062 222.956719 
L 352.064062 0 
L 0 0 
z
" style="fill: #ffffff"/>
  </g>
  <g id="axes_1">
   <g id="patch_2">
    <path d="M 50.466406 184.755938 
L 344.864062 184.755938 
L 344.864062 23.558281 
L 50.466406 23.558281 
z
" style="fill: #ffffff"/>
   </g>
   <g id="matplotlib.axis_1">
    <g id="xtick_1">
     <g id="line2d_1">
      <path d="M 98.756931 184.755938 
L 98.756931 23.558281 
" clip-path="url(#p36b80306fc)" style="fill: none; stroke: #b0b0b0; stroke-opacity: 0.25; stroke-width: 0.6; stroke-linecap: square"/>
     </g>
     <g id="line2d_2">
      <defs>
       <path id="m6c3d5ebfbf" d="M 0 0 
L 0 3.5 
" style="stroke: #000000; stroke-width: 0.8"/>
      </defs>
      <g>
       <use xlink:href="#m6c3d5ebfbf" x="98.756931" y="184.755938" style="stroke: #000000; stroke-width: 0.8"/>
      </g>
     </g>
     <g id="text_1">
      <!-- −5 -->
      <g transform="translate(91.385837 199.353594) scale(0.1 -0.1)">
       <defs>
        <path id="DejaVuSans-c9c" d="M 678 2272 
L 4684 2272 
L 4684 1741 
L 678 1741 
L 678 2272 
z
" transform="scale(0.015625)"/>
        <path id="DejaVuSans-18" d="M 691 4666 
L 3169 4666 
L 3169 4134 
L 1269 4134 
L 1269 2991 
Q 1406 3038 1543 3061 
Q 1681 3084 1819 3084 
Q 2600 3084 3056 2656 
Q 3513 2228 3513 1497 
Q 3513 744 3044 326 
Q 2575 -91 1722 -91 
Q 1428 -91 1123 -41 
Q 819 9 494 109 
L 494 744 
Q 775 591 1075 516 
Q 1375 441 1709 441 
Q 2250 441 2565 725 
Q 2881 1009 2881 1497 
Q 2881 1984 2565 2268 
Q 2250 2553 1709 2553 
Q 1456 2553 1204 2497 
Q 953 2441 691 2322 
L 691 4666 
z
" transform="scale(0.015625)"/>
       </defs>
       <use xlink:href="#DejaVuSans-c9c"/>
       <use xlink:href="#DejaVuSans-18" transform="translate(83.796875 0)"/>
      </g>
     </g>
    </g>
    <g id="xtick_2">
     <g id="line2d_3">
      <path d="M 156.938286 184.755938 
L 156.938286 23.558281 
" clip-path="url(#p36b80306fc)" style="fill: none; stroke: #b0b0b0; stroke-opacity: 0.25; stroke-width: 0.6; stroke-linecap: square"/>
     </g>
     <g id="line2d_4">
      <g>
       <use xlink:href="#m6c3d5ebfbf" x="156.938286" y="184.755938" style="stroke: #000000; stroke-width: 0.8"/>
      </g>
     </g>
     <g id="text_2">
      <!-- 0 -->
      <g transform="translate(153.757036 199.353594) scale(0.1 -0.1)">
       <defs>
        <path id="DejaVuSans-13" d="M 2034 4250 
Q 1547 4250 1301 3770 
Q 1056 3291 1056 2328 
Q 1056 1369 1301 889 
Q 1547 409 2034 409 
Q 2525 409 2770 889 
Q 3016 1369 3016 2328 
Q 3016 3291 2770 3770 
Q 2525 4250 2034 4250 
z
M 2034 4750 
Q 2819 4750 3233 4129 
Q 3647 3509 3647 2328 
Q 3647 1150 3233 529 
Q 2819 -91 2034 -91 
Q 1250 -91 836 529 
Q 422 1150 422 2328 
Q 422 3509 836 4129 
Q 1250 4750 2034 4750 
z
" transform="scale(0.015625)"/>
       </defs>
       <use xlink:href="#DejaVuSans-13"/>
      </g>
     </g>
    </g>
    <g id="xtick_3">
     <g id="line2d_5">
      <path d="M 215.119641 184.755938 
L 215.119641 23.558281 
" clip-path="url(#p36b80306fc)" style="fill: none; stroke: #b0b0b0; stroke-opacity: 0.25; stroke-width: 0.6; stroke-linecap: square"/>
     </g>
     <g id="line2d_6">
      <g>
       <use xlink:href="#m6c3d5ebfbf" x="215.119641" y="184.755938" style="stroke: #000000; stroke-width: 0.8"/>
      </g>
     </g>
     <g id="text_3">
      <!-- 5 -->
      <g transform="translate(211.938391 199.353594) scale(0.1 -0.1)">
       <use xlink:href="#DejaVuSans-18"/>
      </g>
     </g>
    </g>
    <g id="xtick_4">
     <g id="line2d_7">
      <path d="M 273.300996 184.755938 
L 273.300996 23.558281 
" clip-path="url(#p36b80306fc)" style="fill: none; stroke: #b0b0b0; stroke-opacity: 0.25; stroke-width: 0.6; stroke-linecap: square"/>
     </g>
     <g id="line2d_8">
      <g>
       <use xlink:href="#m6c3d5ebfbf" x="273.300996" y="184.755938" style="stroke: #000000; stroke-width: 0.8"/>
      </g>
     </g>
     <g id="text_4">
      <!-- 10 -->
      <g transform="translate(266.938496 199.353594) scale(0.1 -0.1)">
       <defs>
        <path id="DejaVuSans-14" d="M 794 531 
L 1825 531 
L 1825 4091 
L 703 3866 
L 703 4441 
L 1819 4666 
L 2450 4666 
L 2450 531 
L 3481 531 
L 3481 0 
L 794 0 
L 794 531 
z
" transform="scale(0.015625)"/>
       </defs>
       <use xlink:href="#DejaVuSans-14"/>
       <use xlink:href="#DejaVuSans-13" transform="translate(63.625 0)"/>
      </g>
     </g>
    </g>
    <g id="xtick_5">
     <g id="line2d_9">
      <path d="M 331.482351 184.755938 
L 331.482351 23.558281 
" clip-path="url(#p36b80306fc)" style="fill: none; stroke: #b0b0b0; stroke-opacity: 0.25; stroke-width: 0.6; stroke-linecap: square"/>
     </g>
     <g id="line2d_10">
      <g>
       <use xlink:href="#m6c3d5ebfbf" x="331.482351" y="184.755938" style="stroke: #000000; stroke-width: 0.8"/>
      </g>
     </g>
     <g id="text_5">
      <!-- 15 -->
      <g transform="translate(325.119851 199.353594) scale(0.1 -0.1)">
       <use xlink:href="#DejaVuSans-14"/>
       <use xlink:href="#DejaVuSans-18" transform="translate(63.625 0)"/>
      </g>
     </g>
    </g>
    <g id="text_6">
     <!-- k -->
     <g transform="translate(194.769922 213.354375) scale(0.1 -0.1)">
      <defs>
       <path id="DejaVuSans-4e" d="M 581 4863 
L 1159 4863 
L 1159 1991 
L 2875 3500 
L 3609 3500 
L 1753 1863 
L 3688 0 
L 2938 0 
L 1159 1709 
L 1159 0 
L 581 0 
L 581 4863 
z
" transform="scale(0.015625)"/>
      </defs>
      <use xlink:href="#DejaVuSans-4e"/>
     </g>
    </g>
   </g>
   <g id="matplotlib.axis_2">
    <g id="ytick_1">
     <g id="line2d_11">
      <path d="M 50.466406 177.428771 
L 344.864062 177.428771 
" clip-path="url(#p36b80306fc)" style="fill: none; stroke: #b0b0b0; stroke-opacity: 0.25; stroke-width: 0.6; stroke-linecap: square"/>
     </g>
     <g id="line2d_12">
      <defs>
       <path id="m82e98f4cc3" d="M 0 0 
L -3.5 0 
" style="stroke: #000000; stroke-width: 0.8"/>
      </defs>
      <g>
       <use xlink:href="#m82e98f4cc3" x="50.466406" y="177.428771" style="stroke: #000000; stroke-width: 0.8"/>
      </g>
     </g>
     <g id="text_7">
      <!-- 0.00 -->
      <g transform="translate(21.200781 181.227599) scale(0.1 -0.1)">
       <defs>
        <path id="DejaVuSans-11" d="M 684 794 
L 1344 794 
L 1344 0 
L 684 0 
L 684 794 
z
" transform="scale(0.015625)"/>
       </defs>
       <use xlink:href="#DejaVuSans-13"/>
       <use xlink:href="#DejaVuSans-11" transform="translate(63.625 0)"/>
       <use xlink:href="#DejaVuSans-13" transform="translate(95.40625 0)"/>
       <use xlink:href="#DejaVuSans-13" transform="translate(159.03125 0)"/>
      </g>
     </g>
    </g>
    <g id="ytick_2">
     <g id="line2d_13">
      <path d="M 50.466406 141.293983 
L 344.864062 141.293983 
" clip-path="url(#p36b80306fc)" style="fill: none; stroke: #b0b0b0; stroke-opacity: 0.25; stroke-width: 0.6; stroke-linecap: square"/>
     </g>
     <g id="line2d_14">
      <g>
       <use xlink:href="#m82e98f4cc3" x="50.466406" y="141.293983" style="stroke: #000000; stroke-width: 0.8"/>
      </g>
     </g>
     <g id="text_8">
      <!-- 0.05 -->
      <g transform="translate(21.200781 145.092811) scale(0.1 -0.1)">
       <use xlink:href="#DejaVuSans-13"/>
       <use xlink:href="#DejaVuSans-11" transform="translate(63.625 0)"/>
       <use xlink:href="#DejaVuSans-13" transform="translate(95.40625 0)"/>
       <use xlink:href="#DejaVuSans-18" transform="translate(159.03125 0)"/>
      </g>
     </g>
    </g>
    <g id="ytick_3">
     <g id="line2d_15">
      <path d="M 50.466406 105.159194 
L 344.864062 105.159194 
" clip-path="url(#p36b80306fc)" style="fill: none; stroke: #b0b0b0; stroke-opacity: 0.25; stroke-width: 0.6; stroke-linecap: square"/>
     </g>
     <g id="line2d_16">
      <g>
       <use xlink:href="#m82e98f4cc3" x="50.466406" y="105.159194" style="stroke: #000000; stroke-width: 0.8"/>
      </g>
     </g>
     <g id="text_9">
      <!-- 0.10 -->
      <g transform="translate(21.200781 108.958022) scale(0.1 -0.1)">
       <use xlink:href="#DejaVuSans-13"/>
       <use xlink:href="#DejaVuSans-11" transform="translate(63.625 0)"/>
       <use xlink:href="#DejaVuSans-14" transform="translate(95.40625 0)"/>
       <use xlink:href="#DejaVuSans-13" transform="translate(159.03125 0)"/>
      </g>
     </g>
    </g>
    <g id="ytick_4">
     <g id="line2d_17">
      <path d="M 50.466406 69.024405 
L 344.864062 69.024405 
" clip-path="url(#p36b80306fc)" style="fill: none; stroke: #b0b0b0; stroke-opacity: 0.25; stroke-width: 0.6; stroke-linecap: square"/>
     </g>
     <g id="line2d_18">
      <g>
       <use xlink:href="#m82e98f4cc3" x="50.466406" y="69.024405" style="stroke: #000000; stroke-width: 0.8"/>
      </g>
     </g>
     <g id="text_10">
      <!-- 0.15 -->
      <g transform="translate(21.200781 72.823233) scale(0.1 -0.1)">
       <use xlink:href="#DejaVuSans-13"/>
       <use xlink:href="#DejaVuSans-11" transform="translate(63.625 0)"/>
       <use xlink:href="#DejaVuSans-14" transform="translate(95.40625 0)"/>
       <use xlink:href="#DejaVuSans-18" transform="translate(159.03125 0)"/>
      </g>
     </g>
    </g>
    <g id="ytick_5">
     <g id="line2d_19">
      <path d="M 50.466406 32.889616 
L 344.864062 32.889616 
" clip-path="url(#p36b80306fc)" style="fill: none; stroke: #b0b0b0; stroke-opacity: 0.25; stroke-width: 0.6; stroke-linecap: square"/>
     </g>
     <g id="line2d_20">
      <g>
       <use xlink:href="#m82e98f4cc3" x="50.466406" y="32.889616" style="stroke: #000000; stroke-width: 0.8"/>
      </g>
     </g>
     <g id="text_11">
      <!-- 0.20 -->
      <g transform="translate(21.200781 36.688444) scale(0.1 -0.1)">
       <defs>
        <path id="DejaVuSans-15" d="M 1228 531 
L 3431 531 
L 3431 0 
L 469 0 
L 469 531 
Q 828 903 1448 1529 
Q 2069 2156 2228 2338 
Q 2531 2678 2651 2914 
Q 2772 3150 2772 3378 
Q 2772 3750 2511 3984 
Q 2250 4219 1831 4219 
Q 1534 4219 1204 4116 
Q 875 4013 500 3803 
L 500 4441 
Q 881 4594 1212 4672 
Q 1544 4750 1819 4750 
Q 2544 4750 2975 4387 
Q 3406 4025 3406 3419 
Q 3406 3131 3298 2873 
Q 3191 2616 2906 2266 
Q 2828 2175 2409 1742 
Q 1991 1309 1228 531 
z
" transform="scale(0.015625)"/>
       </defs>
       <use xlink:href="#DejaVuSans-13"/>
       <use xlink:href="#DejaVuSans-11" transform="translate(63.625 0)"/>
       <use xlink:href="#DejaVuSans-15" transform="translate(95.40625 0)"/>
       <use xlink:href="#DejaVuSans-13" transform="translate(159.03125 0)"/>
      </g>
     </g>
    </g>
    <g id="text_12">
     <!-- P(X = k) -->
     <g transform="translate(14.798438 124.761797) rotate(-90) scale(0.1 -0.1)">
      <defs>
       <path id="DejaVuSans-33" d="M 1259 4147 
L 1259 2394 
L 2053 2394 
Q 2494 2394 2734 2622 
Q 2975 2850 2975 3272 
Q 2975 3691 2734 3919 
Q 2494 4147 2053 4147 
L 1259 4147 
z
M 628 4666 
L 2053 4666 
Q 2838 4666 3239 4311 
Q 3641 3956 3641 3272 
Q 3641 2581 3239 2228 
Q 2838 1875 2053 1875 
L 1259 1875 
L 1259 0 
L 628 0 
L 628 4666 
z
" transform="scale(0.015625)"/>
       <path id="DejaVuSans-b" d="M 1984 4856 
Q 1566 4138 1362 3434 
Q 1159 2731 1159 2009 
Q 1159 1288 1364 580 
Q 1569 -128 1984 -844 
L 1484 -844 
Q 1016 -109 783 600 
Q 550 1309 550 2009 
Q 550 2706 781 3412 
Q 1013 4119 1484 4856 
L 1984 4856 
z
" transform="scale(0.015625)"/>
       <path id="DejaVuSans-3b" d="M 403 4666 
L 1081 4666 
L 2241 2931 
L 3406 4666 
L 4084 4666 
L 2584 2425 
L 4184 0 
L 3506 0 
L 2194 1984 
L 872 0 
L 191 0 
L 1856 2491 
L 403 4666 
z
" transform="scale(0.015625)"/>
       <path id="DejaVuSans-3" transform="scale(0.015625)"/>
       <path id="DejaVuSans-20" d="M 678 2906 
L 4684 2906 
L 4684 2381 
L 678 2381 
L 678 2906 
z
M 678 1631 
L 4684 1631 
L 4684 1100 
L 678 1100 
L 678 1631 
z
" transform="scale(0.015625)"/>
       <path id="DejaVuSans-c" d="M 513 4856 
L 1013 4856 
Q 1481 4119 1714 3412 
Q 1947 2706 1947 2009 
Q 1947 1309 1714 600 
Q 1481 -109 1013 -844 
L 513 -844 
Q 928 -128 1133 580 
Q 1338 1288 1338 2009 
Q 1338 2731 1133 3434 
Q 928 4138 513 4856 
z
" transform="scale(0.015625)"/>
      </defs>
      <use xlink:href="#DejaVuSans-33"/>
      <use xlink:href="#DejaVuSans-b" transform="translate(60.296875 0)"/>
      <use xlink:href="#DejaVuSans-3b" transform="translate(99.3125 0)"/>
      <use xlink:href="#DejaVuSans-3" transform="translate(167.8125 0)"/>
      <use xlink:href="#DejaVuSans-20" transform="translate(199.59375 0)"/>
      <use xlink:href="#DejaVuSans-3" transform="translate(283.390625 0)"/>
      <use xlink:href="#DejaVuSans-4e" transform="translate(315.171875 0)"/>
      <use xlink:href="#DejaVuSans-c" transform="translate(373.078125 0)"/>
     </g>
    </g>
   </g>
   <g id="LineCollection_1">
    <path d="M 63.848118 177.428771 
L 63.848118 177.428316 
" clip-path="url(#p36b80306fc)" style="fill: none; stroke: #4c78a8; stroke-width: 1.5"/>
    <path d="M 75.484389 177.428771 
L 75.484389 177.424978 
" clip-path="url(#p36b80306fc)" style="fill: none; stroke: #4c78a8; stroke-width: 1.5"/>
    <path d="M 87.12066 177.428771 
L 87.12066 177.400854 
" clip-path="url(#p36b80306fc)" style="fill: none; stroke: #4c78a8; stroke-width: 1.5"/>
    <path d="M 98.756931 177.428771 
L 98.756931 177.249887 
" clip-path="url(#p36b80306fc)" style="fill: none; stroke: #4c78a8; stroke-width: 1.5"/>
    <path d="M 110.393202 177.428771 
L 110.393202 176.450596 
" clip-path="url(#p36b80306fc)" style="fill: none; stroke: #4c78a8; stroke-width: 1.5"/>
    <path d="M 122.029473 177.428771 
L 122.029473 172.979416 
" clip-path="url(#p36b80306fc)" style="fill: none; stroke: #4c78a8; stroke-width: 1.5"/>
    <path d="M 133.665744 177.428771 
L 133.665744 161.14618 
" clip-path="url(#p36b80306fc)" style="fill: none; stroke: #4c78a8; stroke-width: 1.5"/>
    <path d="M 145.302015 177.428771 
L 145.302015 131.515523 
" clip-path="url(#p36b80306fc)" style="fill: none; stroke: #4c78a8; stroke-width: 1.5"/>
    <path d="M 156.938286 177.428771 
L 156.938286 82.667748 
" clip-path="url(#p36b80306fc)" style="fill: none; stroke: #4c78a8; stroke-width: 1.5"/>
    <path d="M 168.574557 177.428771 
L 168.574557 39.689026 
" clip-path="url(#p36b80306fc)" style="fill: none; stroke: #4c78a8; stroke-width: 1.5"/>
    <path d="M 180.210828 177.428771 
L 180.210828 30.885447 
" clip-path="url(#p36b80306fc)" style="fill: none; stroke: #4c78a8; stroke-width: 1.5"/>
    <path d="M 191.847099 177.428771 
L 191.847099 57.296183 
" clip-path="url(#p36b80306fc)" style="fill: none; stroke: #4c78a8; stroke-width: 1.5"/>
    <path d="M 203.48337 177.428771 
L 203.48337 98.196564 
" clip-path="url(#p36b80306fc)" style="fill: none; stroke: #4c78a8; stroke-width: 1.5"/>
    <path d="M 215.119641 177.428771 
L 215.119641 133.959836 
" clip-path="url(#p36b80306fc)" style="fill: none; stroke: #4c78a8; stroke-width: 1.5"/>
    <path d="M 226.755912 177.428771 
L 226.755912 157.076824 
" clip-path="url(#p36b80306fc)" style="fill: none; stroke: #4c78a8; stroke-width: 1.5"/>
    <path d="M 238.392183 177.428771 
L 238.392183 169.133652 
" clip-path="url(#p36b80306fc)" style="fill: none; stroke: #4c78a8; stroke-width: 1.5"/>
    <path d="M 250.028454 177.428771 
L 250.028454 174.438767 
" clip-path="url(#p36b80306fc)" style="fill: none; stroke: #4c78a8; stroke-width: 1.5"/>
    <path d="M 261.664725 177.428771 
L 261.664725 176.463445 
" clip-path="url(#p36b80306fc)" style="fill: none; stroke: #4c78a8; stroke-width: 1.5"/>
    <path d="M 273.300996 177.428771 
L 273.300996 177.146698 
" clip-path="url(#p36b80306fc)" style="fill: none; stroke: #4c78a8; stroke-width: 1.5"/>
    <path d="M 284.937267 177.428771 
L 284.937267 177.353521 
" clip-path="url(#p36b80306fc)" style="fill: none; stroke: #4c78a8; stroke-width: 1.5"/>
    <path d="M 296.573538 177.428771 
L 296.573538 177.410308 
" clip-path="url(#p36b80306fc)" style="fill: none; stroke: #4c78a8; stroke-width: 1.5"/>
    <path d="M 308.209809 177.428771 
L 308.209809 177.424579 
" clip-path="url(#p36b80306fc)" style="fill: none; stroke: #4c78a8; stroke-width: 1.5"/>
    <path d="M 319.84608 177.428771 
L 319.84608 177.427885 
" clip-path="url(#p36b80306fc)" style="fill: none; stroke: #4c78a8; stroke-width: 1.5"/>
    <path d="M 331.482351 177.428771 
L 331.482351 177.428596 
" clip-path="url(#p36b80306fc)" style="fill: none; stroke: #4c78a8; stroke-width: 1.5"/>
   </g>
   <g id="line2d_21">
    <defs>
     <path id="m844535b015" d="M 0 3 
C 0.795609 3 1.55874 2.683901 2.12132 2.12132 
C 2.683901 1.55874 3 0.795609 3 0 
C 3 -0.795609 2.683901 -1.55874 2.12132 -2.12132 
C 1.55874 -2.683901 0.795609 -3 0 -3 
C -0.795609 -3 -1.55874 -2.683901 -2.12132 -2.12132 
C -2.683901 -1.55874 -3 -0.795609 -3 0 
C -3 0.795609 -2.683901 1.55874 -2.12132 2.12132 
C -1.55874 2.683901 -0.795609 3 0 3 
z
" style="stroke: #4c78a8"/>
    </defs>
    <g clip-path="url(#p36b80306fc)">
     <use xlink:href="#m844535b015" x="63.848118" y="177.428316" style="fill: #4c78a8; stroke: #4c78a8"/>
     <use xlink:href="#m844535b015" x="75.484389" y="177.424978" style="fill: #4c78a8; stroke: #4c78a8"/>
     <use xlink:href="#m844535b015" x="87.12066" y="177.400854" style="fill: #4c78a8; stroke: #4c78a8"/>
     <use xlink:href="#m844535b015" x="98.756931" y="177.249887" style="fill: #4c78a8; stroke: #4c78a8"/>
     <use xlink:href="#m844535b015" x="110.393202" y="176.450596" style="fill: #4c78a8; stroke: #4c78a8"/>
     <use xlink:href="#m844535b015" x="122.029473" y="172.979416" style="fill: #4c78a8; stroke: #4c78a8"/>
     <use xlink:href="#m844535b015" x="133.665744" y="161.14618" style="fill: #4c78a8; stroke: #4c78a8"/>
     <use xlink:href="#m844535b015" x="145.302015" y="131.515523" style="fill: #4c78a8; stroke: #4c78a8"/>
     <use xlink:href="#m844535b015" x="156.938286" y="82.667748" style="fill: #4c78a8; stroke: #4c78a8"/>
     <use xlink:href="#m844535b015" x="168.574557" y="39.689026" style="fill: #4c78a8; stroke: #4c78a8"/>
     <use xlink:href="#m844535b015" x="180.210828" y="30.885447" style="fill: #4c78a8; stroke: #4c78a8"/>
     <use xlink:href="#m844535b015" x="191.847099" y="57.296183" style="fill: #4c78a8; stroke: #4c78a8"/>
     <use xlink:href="#m844535b015" x="203.48337" y="98.196564" style="fill: #4c78a8; stroke: #4c78a8"/>
     <use xlink:href="#m844535b015" x="215.119641" y="133.959836" style="fill: #4c78a8; stroke: #4c78a8"/>
     <use xlink:href="#m844535b015" x="226.755912" y="157.076824" style="fill: #4c78a8; stroke: #4c78a8"/>
     <use xlink:href="#m844535b015" x="238.392183" y="169.133652" style="fill: #4c78a8; stroke: #4c78a8"/>
     <use xlink:href="#m844535b015" x="250.028454" y="174.438767" style="fill: #4c78a8; stroke: #4c78a8"/>
     <use xlink:href="#m844535b015" x="261.664725" y="176.463445" style="fill: #4c78a8; stroke: #4c78a8"/>
     <use xlink:href="#m844535b015" x="273.300996" y="177.146698" style="fill: #4c78a8; stroke: #4c78a8"/>
     <use xlink:href="#m844535b015" x="284.937267" y="177.353521" style="fill: #4c78a8; stroke: #4c78a8"/>
     <use xlink:href="#m844535b015" x="296.573538" y="177.410308" style="fill: #4c78a8; stroke: #4c78a8"/>
     <use xlink:href="#m844535b015" x="308.209809" y="177.424579" style="fill: #4c78a8; stroke: #4c78a8"/>
     <use xlink:href="#m844535b015" x="319.84608" y="177.427885" style="fill: #4c78a8; stroke: #4c78a8"/>
     <use xlink:href="#m844535b015" x="331.482351" y="177.428596" style="fill: #4c78a8; stroke: #4c78a8"/>
    </g>
   </g>
   <g id="line2d_22"/>
   <g id="patch_3">
    <path d="M 50.466406 184.755938 
L 50.466406 23.558281 
" style="fill: none; stroke: #000000; stroke-width: 0.8; stroke-linejoin: miter; stroke-linecap: square"/>
   </g>
   <g id="patch_4">
    <path d="M 50.466406 184.755938 
L 344.864063 184.755938 
" style="fill: none; stroke: #000000; stroke-width: 0.8; stroke-linejoin: miter; stroke-linecap: square"/>
   </g>
   <g id="text_13">
    <!-- Skellam -->
    <g transform="translate(176.016719 15.558281) scale(0.11 -0.11)">
     <defs>
      <path id="DejaVuSans-36" d="M 3425 4513 
L 3425 3897 
Q 3066 4069 2747 4153 
Q 2428 4238 2131 4238 
Q 1616 4238 1336 4038 
Q 1056 3838 1056 3469 
Q 1056 3159 1242 3001 
Q 1428 2844 1947 2747 
L 2328 2669 
Q 3034 2534 3370 2195 
Q 3706 1856 3706 1288 
Q 3706 609 3251 259 
Q 2797 -91 1919 -91 
Q 1588 -91 1214 -16 
Q 841 59 441 206 
L 441 856 
Q 825 641 1194 531 
Q 1563 422 1919 422 
Q 2459 422 2753 634 
Q 3047 847 3047 1241 
Q 3047 1584 2836 1778 
Q 2625 1972 2144 2069 
L 1759 2144 
Q 1053 2284 737 2584 
Q 422 2884 422 3419 
Q 422 4038 858 4394 
Q 1294 4750 2059 4750 
Q 2388 4750 2728 4690 
Q 3069 4631 3425 4513 
z
" transform="scale(0.015625)"/>
      <path id="DejaVuSans-48" d="M 3597 1894 
L 3597 1613 
L 953 1613 
Q 991 1019 1311 708 
Q 1631 397 2203 397 
Q 2534 397 2845 478 
Q 3156 559 3463 722 
L 3463 178 
Q 3153 47 2828 -22 
Q 2503 -91 2169 -91 
Q 1331 -91 842 396 
Q 353 884 353 1716 
Q 353 2575 817 3079 
Q 1281 3584 2069 3584 
Q 2775 3584 3186 3129 
Q 3597 2675 3597 1894 
z
M 3022 2063 
Q 3016 2534 2758 2815 
Q 2500 3097 2075 3097 
Q 1594 3097 1305 2825 
Q 1016 2553 972 2059 
L 3022 2063 
z
" transform="scale(0.015625)"/>
      <path id="DejaVuSans-4f" d="M 603 4863 
L 1178 4863 
L 1178 0 
L 603 0 
L 603 4863 
z
" transform="scale(0.015625)"/>
      <path id="DejaVuSans-44" d="M 2194 1759 
Q 1497 1759 1228 1600 
Q 959 1441 959 1056 
Q 959 750 1161 570 
Q 1363 391 1709 391 
Q 2188 391 2477 730 
Q 2766 1069 2766 1631 
L 2766 1759 
L 2194 1759 
z
M 3341 1997 
L 3341 0 
L 2766 0 
L 2766 531 
Q 2569 213 2275 61 
Q 1981 -91 1556 -91 
Q 1019 -91 701 211 
Q 384 513 384 1019 
Q 384 1609 779 1909 
Q 1175 2209 1959 2209 
L 2766 2209 
L 2766 2266 
Q 2766 2663 2505 2880 
Q 2244 3097 1772 3097 
Q 1472 3097 1187 3025 
Q 903 2953 641 2809 
L 641 3341 
Q 956 3463 1253 3523 
Q 1550 3584 1831 3584 
Q 2591 3584 2966 3190 
Q 3341 2797 3341 1997 
z
" transform="scale(0.015625)"/>
      <path id="DejaVuSans-50" d="M 3328 2828 
Q 3544 3216 3844 3400 
Q 4144 3584 4550 3584 
Q 5097 3584 5394 3201 
Q 5691 2819 5691 2113 
L 5691 0 
L 5113 0 
L 5113 2094 
Q 5113 2597 4934 2840 
Q 4756 3084 4391 3084 
Q 3944 3084 3684 2787 
Q 3425 2491 3425 1978 
L 3425 0 
L 2847 0 
L 2847 2094 
Q 2847 2600 2669 2842 
Q 2491 3084 2119 3084 
Q 1678 3084 1418 2786 
Q 1159 2488 1159 1978 
L 1159 0 
L 581 0 
L 581 3500 
L 1159 3500 
L 1159 2956 
Q 1356 3278 1631 3431 
Q 1906 3584 2284 3584 
Q 2666 3584 2933 3390 
Q 3200 3197 3328 2828 
z
" transform="scale(0.015625)"/>
     </defs>
     <use xlink:href="#DejaVuSans-36"/>
     <use xlink:href="#DejaVuSans-4e" transform="translate(63.484375 0)"/>
     <use xlink:href="#DejaVuSans-48" transform="translate(117.828125 0)"/>
     <use xlink:href="#DejaVuSans-4f" transform="translate(179.359375 0)"/>
     <use xlink:href="#DejaVuSans-4f" transform="translate(207.140625 0)"/>
     <use xlink:href="#DejaVuSans-44" transform="translate(234.921875 0)"/>
     <use xlink:href="#DejaVuSans-50" transform="translate(296.203125 0)"/>
    </g>
   </g>
  </g>
 </g>
 <defs>
  <clipPath id="p36b80306fc">
   <rect x="50.466406" y="23.558281" width="294.397656" height="161.197656"/>
  </clipPath>
 </defs>
</svg>
