<?xml version="1.0" encoding="utf-8" standalone="no"?>
<!DOCTYPE svg PUBLIC "-//W3C//DTD SVG 1.1//EN"
  "http://www.w3.org/Graphics/SVG/1.1/DTD/svg11.dtd">
<svg xmlns:xlink="http://www.w3.org/1999/xlink" width="352.301562pt" height="223.158281pt" viewBox="0 0 352.301562 223.158281" xmlns="http://www.w3.org/2000/svg" version="1.1">
 <metadata>
  <rdf:RDF xmlns:dc="http://purl.org/dc/elements/1.1/" xmlns:cc="http://creativecommons.org/ns#" xmlns:rdf="http://www.w3.org/1999/02/22-rdf-syntax-ns#">
   <cc:Work>
    <dc:type rdf:resource="http://purl.org/dc/dcmitype/StillImage"/>
    <dc:date>2026-07-05T02:24:32.295223</dc:date>
    <dc:format>image/svg+xml</dc:format>
    <dc:creator>
     <cc:Agent>
      <dc:title>Matplotlib v3.11.0, https://matplotlib.org/</dc:title>
     </cc:Agent>
    </dc:creator>
   </cc:Work>
  </rdf:RDF>
 </metadata>
 <defs>
  <style type="text/css">*{stroke-linejoin: round; stroke-linecap: butt}</style>
 </defs>
 <g id="figure_1">
  <g id="patch_1">
   <path d="M 0 223.158281 
L 352.301562 223.158281 
L 352.301562 0 
L 0 0 
z
" style="fill: #ffffff"/>
  </g>
  <g id="axes_1">
   <g id="patch_2">
    <path d="M 44.103906 184.958281 
L 345.101562 184.958281 
L 345.101562 23.558281 
L 44.103906 23.558281 
z
" style="fill: #ffffff"/>
   </g>
   <g id="FillBetweenPolyCollection_1">
    <defs>
     <path id="m8bb8c9da51" d="M 57.785618 -45.536364 
L 57.785618 -45.828806 
L 58.471418 -45.836611 
L 59.157218 -45.844655 
L 59.843018 -45.852946 
L 60.528818 -45.861493 
L 61.214618 -45.870304 
L 61.900418 -45.879389 
L 62.586218 -45.888757 
L 63.272019 -45.898418 
L 63.957819 -45.908382 
L 64.643619 -45.918661 
L 65.329419 -45.929264 
L 66.015219 -45.940204 
L 66.701019 -45.951492 
L 67.386819 -45.963141 
L 68.072619 -45.975164 
L 68.758419 -45.987574 
L 69.444219 -46.000385 
L 70.130019 -46.013611 
L 70.815819 -46.027268 
L 71.50162 -46.041372 
L 72.18742 -46.055938 
L 72.87322 -46.070983 
L 73.55902 -46.086526 
L 74.24482 -46.102583 
L 74.93062 -46.119176 
L 75.61642 -46.136322 
L 76.30222 -46.154043 
L 76.98802 -46.17236 
L 77.67382 -46.191296 
L 78.35962 -46.210874 
L 79.04542 -46.231118 
L 79.731221 -46.252053 
L 80.417021 -46.273705 
L 81.102821 -46.296102 
L 81.788621 -46.319272 
L 82.474421 -46.343244 
L 83.160221 -46.36805 
L 83.846021 -46.393722 
L 84.531821 -46.420293 
L 85.217621 -46.447797 
L 85.903421 -46.476272 
L 86.589221 -46.505755 
L 87.275021 -46.536286 
L 87.960822 -46.567905 
L 88.646622 -46.600655 
L 89.332422 -46.634582 
L 90.018222 -46.669732 
L 90.704022 -46.706154 
L 91.389822 -46.743897 
L 92.075622 -46.783015 
L 92.761422 -46.823563 
L 93.447222 -46.865599 
L 94.133022 -46.909182 
L 94.818822 -46.954376 
L 95.504622 -47.001244 
L 96.190423 -47.049856 
L 96.876223 -47.100283 
L 97.562023 -47.152598 
L 98.247823 -47.206879 
L 98.933623 -47.263207 
L 99.619423 -47.321666 
L 100.305223 -47.382344 
L 100.991023 -47.445333 
L 101.676823 -47.510729 
L 102.362623 -47.578632 
L 103.048423 -47.649147 
L 103.734223 -47.722382 
L 104.420024 -47.798451 
L 105.105824 -47.877474 
L 105.791624 -47.959575 
L 106.477424 -48.044883 
L 107.163224 -48.133534 
L 107.849024 -48.225669 
L 108.534824 -48.321436 
L 109.220624 -48.42099 
L 109.906424 -48.524491 
L 110.592224 -48.632107 
L 111.278024 -48.744014 
L 111.963824 -48.860395 
L 112.649625 -48.981442 
L 113.335425 -49.107354 
L 114.021225 -49.238341 
L 114.707025 -49.374619 
L 115.392825 -49.516417 
L 116.078625 -49.663972 
L 116.764425 -49.817531 
L 117.450225 -49.977354 
L 118.136025 -50.143709 
L 118.821825 -50.316878 
L 119.507625 -50.497155 
L 120.193425 -50.684846 
L 120.879225 -50.880272 
L 121.565026 -51.083764 
L 122.250826 -51.29567 
L 122.936626 -51.516353 
L 123.622426 -51.746189 
L 124.308226 -51.985572 
L 124.994026 -52.234911 
L 125.679826 -52.494633 
L 126.365626 -52.765181 
L 127.051426 -53.047018 
L 127.737226 -53.340624 
L 128.423026 -53.6465 
L 129.108826 -53.965164 
L 129.794627 -54.297157 
L 130.480427 -54.643041 
L 131.166227 -55.003397 
L 131.852027 -55.378831 
L 132.537827 -55.769969 
L 133.223627 -56.177461 
L 133.909427 -56.601982 
L 134.595227 -57.044227 
L 135.281027 -57.504919 
L 135.966827 -57.984804 
L 136.652627 -58.484651 
L 137.338427 -59.005258 
L 138.024228 -59.547443 
L 138.710028 -60.112053 
L 139.395828 -60.699958 
L 140.081628 -61.312051 
L 140.767428 -61.949253 
L 141.453228 -62.612506 
L 142.139028 -63.302774 
L 142.824828 -64.021046 
L 143.510628 -64.768331 
L 144.196428 -65.545656 
L 144.882228 -66.35407 
L 145.568028 -67.194635 
L 146.253829 -68.068429 
L 146.939629 -68.976543 
L 147.625429 -69.920075 
L 148.311229 -70.900134 
L 148.997029 -71.917828 
L 149.682829 -72.974267 
L 150.368629 -74.070555 
L 151.054429 -75.207789 
L 151.740229 -76.387048 
L 152.426029 -77.609397 
L 153.111829 -78.875869 
L 153.797629 -80.18747 
L 154.48343 -81.545165 
L 155.16923 -82.949871 
L 155.85503 -84.402451 
L 156.54083 -85.903705 
L 157.22663 -87.454359 
L 157.91243 -89.055058 
L 158.59823 -90.706352 
L 159.28403 -92.408689 
L 159.96983 -94.162399 
L 160.65563 -95.967688 
L 161.34143 -97.824619 
L 162.02723 -99.733106 
L 162.713031 -101.692896 
L 163.398831 -103.703558 
L 164.084631 -105.76447 
L 164.770431 -107.874802 
L 165.456231 -110.03351 
L 166.142031 -112.239313 
L 166.827831 -114.490691 
L 167.513631 -116.785863 
L 168.199431 -119.122781 
L 168.885231 -121.499117 
L 169.571031 -123.912254 
L 170.256831 -126.359277 
L 170.942632 -128.836966 
L 171.628432 -131.341791 
L 172.314232 -133.869906 
L 173.000032 -136.41715 
L 173.685832 -138.979046 
L 174.371632 -141.550804 
L 175.057432 -144.127327 
L 175.743232 -146.703222 
L 176.429032 -149.272805 
L 177.114832 -151.830123 
L 177.800632 -154.368966 
L 178.486432 -156.882892 
L 179.172233 -159.365249 
L 179.858033 -161.809202 
L 180.543833 -164.207766 
L 181.229633 -166.553838 
L 181.915433 -168.840234 
L 182.601233 -171.059729 
L 183.287033 -173.205098 
L 183.972833 -175.269161 
L 184.658633 -177.244824 
L 185.344433 -179.125134 
L 186.030233 -180.903319 
L 186.716033 -182.57284 
L 187.401834 -184.127438 
L 188.087634 -185.56118 
L 188.773434 -186.868505 
L 189.459234 -188.044269 
L 190.145034 -189.083784 
L 190.830834 -189.982859 
L 191.516634 -190.737832 
L 192.202434 -191.345604 
L 192.888234 -191.80366 
L 193.574034 -192.110097 
L 194.259834 -192.263636 
L 194.945634 -192.263636 
L 195.631434 -192.110097 
L 196.317235 -191.80366 
L 197.003035 -191.345604 
L 197.688835 -190.737832 
L 198.374635 -189.982859 
L 199.060435 -189.083784 
L 199.746235 -188.044269 
L 200.432035 -186.868505 
L 201.117835 -185.56118 
L 201.803635 -184.127438 
L 202.489435 -182.57284 
L 203.175235 -180.903319 
L 203.861035 -179.125134 
L 204.546836 -177.244824 
L 205.232636 -175.269161 
L 205.918436 -173.205098 
L 206.604236 -171.059729 
L 207.290036 -168.840234 
L 207.975836 -166.553838 
L 208.661636 -164.207766 
L 209.347436 -161.809202 
L 210.033236 -159.365249 
L 210.719036 -156.882892 
L 211.404836 -154.368966 
L 212.090636 -151.830123 
L 212.776437 -149.272805 
L 213.462237 -146.703222 
L 214.148037 -144.127327 
L 214.833837 -141.550804 
L 215.519637 -138.979046 
L 216.205437 -136.41715 
L 216.891237 -133.869906 
L 217.577037 -131.341791 
L 218.262837 -128.836966 
L 218.948637 -126.359277 
L 219.634437 -123.912254 
L 220.320237 -121.499117 
L 221.006038 -119.122781 
L 221.691838 -116.785863 
L 222.377638 -114.490691 
L 223.063438 -112.239313 
L 223.749238 -110.03351 
L 224.435038 -107.874802 
L 225.120838 -105.76447 
L 225.806638 -103.703558 
L 226.492438 -101.692896 
L 227.178238 -99.733106 
L 227.864038 -97.824619 
L 228.549838 -95.967688 
L 229.235639 -94.162399 
L 229.921439 -92.408689 
L 230.607239 -90.706352 
L 231.293039 -89.055058 
L 231.978839 -87.454359 
L 232.664639 -85.903705 
L 233.350439 -84.402451 
L 234.036239 -82.949871 
L 234.722039 -81.545165 
L 235.407839 -80.18747 
L 236.093639 -78.875869 
L 236.779439 -77.609397 
L 237.46524 -76.387048 
L 238.15104 -75.207789 
L 238.83684 -74.070555 
L 239.52264 -72.974267 
L 240.20844 -71.917828 
L 240.89424 -70.900134 
L 241.58004 -69.920075 
L 242.26584 -68.976543 
L 242.95164 -68.068429 
L 243.63744 -67.194635 
L 244.32324 -66.35407 
L 245.00904 -65.545656 
L 245.694841 -64.768331 
L 246.380641 -64.021046 
L 247.066441 -63.302774 
L 247.752241 -62.612506 
L 248.438041 -61.949253 
L 249.123841 -61.312051 
L 249.809641 -60.699958 
L 250.495441 -60.112053 
L 251.181241 -59.547443 
L 251.867041 -59.005258 
L 252.552841 -58.484651 
L 253.238641 -57.984804 
L 253.924442 -57.504919 
L 254.610242 -57.044227 
L 255.296042 -56.601982 
L 255.981842 -56.177461 
L 256.667642 -55.769969 
L 257.353442 -55.378831 
L 258.039242 -55.003397 
L 258.725042 -54.643041 
L 259.410842 -54.297157 
L 260.096642 -53.965164 
L 260.782442 -53.6465 
L 261.468242 -53.340624 
L 262.154043 -53.047018 
L 262.839843 -52.765181 
L 263.525643 -52.494633 
L 264.211443 -52.234911 
L 264.897243 -51.985572 
L 265.583043 -51.746189 
L 266.268843 -51.516353 
L 266.954643 -51.29567 
L 267.640443 -51.083764 
L 268.326243 -50.880272 
L 269.012043 -50.684846 
L 269.697843 -50.497155 
L 270.383644 -50.316878 
L 271.069444 -50.143709 
L 271.755244 -49.977354 
L 272.441044 -49.817531 
L 273.126844 -49.663972 
L 273.812644 -49.516417 
L 274.498444 -49.374619 
L 275.184244 -49.238341 
L 275.870044 -49.107354 
L 276.555844 -48.981442 
L 277.241644 -48.860395 
L 277.927444 -48.744014 
L 278.613244 -48.632107 
L 279.299045 -48.524491 
L 279.984845 -48.42099 
L 280.670645 -48.321436 
L 281.356445 -48.225669 
L 282.042245 -48.133534 
L 282.728045 -48.044883 
L 283.413845 -47.959575 
L 284.099645 -47.877474 
L 284.785445 -47.798451 
L 285.471245 -47.722382 
L 286.157045 -47.649147 
L 286.842845 -47.578632 
L 287.528646 -47.510729 
L 288.214446 -47.445333 
L 288.900246 -47.382344 
L 289.586046 -47.321666 
L 290.271846 -47.263207 
L 290.957646 -47.206879 
L 291.643446 -47.152598 
L 292.329246 -47.100283 
L 293.015046 -47.049856 
L 293.700846 -47.001244 
L 294.386646 -46.954376 
L 295.072446 -46.909182 
L 295.758247 -46.865599 
L 296.444047 -46.823563 
L 297.129847 -46.783015 
L 297.815647 -46.743897 
L 298.501447 -46.706154 
L 299.187247 -46.669732 
L 299.873047 -46.634582 
L 300.558847 -46.600655 
L 301.244647 -46.567905 
L 301.930447 -46.536286 
L 302.616247 -46.505755 
L 303.302047 -46.476272 
L 303.987848 -46.447797 
L 304.673648 -46.420293 
L 305.359448 -46.393722 
L 306.045248 -46.36805 
L 306.731048 -46.343244 
L 307.416848 -46.319272 
L 308.102648 -46.296102 
L 308.788448 -46.273705 
L 309.474248 -46.252053 
L 310.160048 -46.231118 
L 310.845848 -46.210874 
L 311.531648 -46.191296 
L 312.217449 -46.17236 
L 312.903249 -46.154043 
L 313.589049 -46.136322 
L 314.274849 -46.119176 
L 314.960649 -46.102583 
L 315.646449 -46.086526 
L 316.332249 -46.070983 
L 317.018049 -46.055938 
L 317.703849 -46.041372 
L 318.389649 -46.027268 
L 319.075449 -46.013611 
L 319.761249 -46.000385 
L 320.44705 -45.987574 
L 321.13285 -45.975164 
L 321.81865 -45.963141 
L 322.50445 -45.951492 
L 323.19025 -45.940204 
L 323.87605 -45.929264 
L 324.56185 -45.918661 
L 325.24765 -45.908382 
L 325.93345 -45.898418 
L 326.61925 -45.888757 
L 327.30505 -45.879389 
L 327.99085 -45.870304 
L 328.676651 -45.861493 
L 329.362451 -45.852946 
L 330.048251 -45.844655 
L 330.734051 -45.836611 
L 331.419851 -45.828806 
L 331.419851 -45.536364 
L 331.419851 -45.536364 
L 330.734051 -45.536364 
L 330.048251 -45.536364 
L 329.362451 -45.536364 
L 328.676651 -45.536364 
L 327.99085 -45.536364 
L 327.30505 -45.536364 
L 326.61925 -45.536364 
L 325.93345 -45.536364 
L 325.24765 -45.536364 
L 324.56185 -45.536364 
L 323.87605 -45.536364 
L 323.19025 -45.536364 
L 322.50445 -45.536364 
L 321.81865 -45.536364 
L 321.13285 -45.536364 
L 320.44705 -45.536364 
L 319.761249 -45.536364 
L 319.075449 -45.536364 
L 318.389649 -45.536364 
L 317.703849 -45.536364 
L 317.018049 -45.536364 
L 316.332249 -45.536364 
L 315.646449 -45.536364 
L 314.960649 -45.536364 
L 314.274849 -45.536364 
L 313.589049 -45.536364 
L 312.903249 -45.536364 
L 312.217449 -45.536364 
L 311.531648 -45.536364 
L 310.845848 -45.536364 
L 310.160048 -45.536364 
L 309.474248 -45.536364 
L 308.788448 -45.536364 
L 308.102648 -45.536364 
L 307.416848 -45.536364 
L 306.731048 -45.536364 
L 306.045248 -45.536364 
L 305.359448 -45.536364 
L 304.673648 -45.536364 
L 303.987848 -45.536364 
L 303.302047 -45.536364 
L 302.616247 -45.536364 
L 301.930447 -45.536364 
L 301.244647 -45.536364 
L 300.558847 -45.536364 
L 299.873047 -45.536364 
L 299.187247 -45.536364 
L 298.501447 -45.536364 
L 297.815647 -45.536364 
L 297.129847 -45.536364 
L 296.444047 -45.536364 
L 295.758247 -45.536364 
L 295.072446 -45.536364 
L 294.386646 -45.536364 
L 293.700846 -45.536364 
L 293.015046 -45.536364 
L 292.329246 -45.536364 
L 291.643446 -45.536364 
L 290.957646 -45.536364 
L 290.271846 -45.536364 
L 289.586046 -45.536364 
L 288.900246 -45.536364 
L 288.214446 -45.536364 
L 287.528646 -45.536364 
L 286.842845 -45.536364 
L 286.157045 -45.536364 
L 285.471245 -45.536364 
L 284.785445 -45.536364 
L 284.099645 -45.536364 
L 283.413845 -45.536364 
L 282.728045 -45.536364 
L 282.042245 -45.536364 
L 281.356445 -45.536364 
L 280.670645 -45.536364 
L 279.984845 -45.536364 
L 279.299045 -45.536364 
L 278.613244 -45.536364 
L 277.927444 -45.536364 
L 277.241644 -45.536364 
L 276.555844 -45.536364 
L 275.870044 -45.536364 
L 275.184244 -45.536364 
L 274.498444 -45.536364 
L 273.812644 -45.536364 
L 273.126844 -45.536364 
L 272.441044 -45.536364 
L 271.755244 -45.536364 
L 271.069444 -45.536364 
L 270.383644 -45.536364 
L 269.697843 -45.536364 
L 269.012043 -45.536364 
L 268.326243 -45.536364 
L 267.640443 -45.536364 
L 266.954643 -45.536364 
L 266.268843 -45.536364 
L 265.583043 -45.536364 
L 264.897243 -45.536364 
L 264.211443 -45.536364 
L 263.525643 -45.536364 
L 262.839843 -45.536364 
L 262.154043 -45.536364 
L 261.468242 -45.536364 
L 260.782442 -45.536364 
L 260.096642 -45.536364 
L 259.410842 -45.536364 
L 258.725042 -45.536364 
L 258.039242 -45.536364 
L 257.353442 -45.536364 
L 256.667642 -45.536364 
L 255.981842 -45.536364 
L 255.296042 -45.536364 
L 254.610242 -45.536364 
L 253.924442 -45.536364 
L 253.238641 -45.536364 
L 252.552841 -45.536364 
L 251.867041 -45.536364 
L 251.181241 -45.536364 
L 250.495441 -45.536364 
L 249.809641 -45.536364 
L 249.123841 -45.536364 
L 248.438041 -45.536364 
L 247.752241 -45.536364 
L 247.066441 -45.536364 
L 246.380641 -45.536364 
L 245.694841 -45.536364 
L 245.00904 -45.536364 
L 244.32324 -45.536364 
L 243.63744 -45.536364 
L 242.95164 -45.536364 
L 242.26584 -45.536364 
L 241.58004 -45.536364 
L 240.89424 -45.536364 
L 240.20844 -45.536364 
L 239.52264 -45.536364 
L 238.83684 -45.536364 
L 238.15104 -45.536364 
L 237.46524 -45.536364 
L 236.779439 -45.536364 
L 236.093639 -45.536364 
L 235.407839 -45.536364 
L 234.722039 -45.536364 
L 234.036239 -45.536364 
L 233.350439 -45.536364 
L 232.664639 -45.536364 
L 231.978839 -45.536364 
L 231.293039 -45.536364 
L 230.607239 -45.536364 
L 229.921439 -45.536364 
L 229.235639 -45.536364 
L 228.549838 -45.536364 
L 227.864038 -45.536364 
L 227.178238 -45.536364 
L 226.492438 -45.536364 
L 225.806638 -45.536364 
L 225.120838 -45.536364 
L 224.435038 -45.536364 
L 223.749238 -45.536364 
L 223.063438 -45.536364 
L 222.377638 -45.536364 
L 221.691838 -45.536364 
L 221.006038 -45.536364 
L 220.320237 -45.536364 
L 219.634437 -45.536364 
L 218.948637 -45.536364 
L 218.262837 -45.536364 
L 217.577037 -45.536364 
L 216.891237 -45.536364 
L 216.205437 -45.536364 
L 215.519637 -45.536364 
L 214.833837 -45.536364 
L 214.148037 -45.536364 
L 213.462237 -45.536364 
L 212.776437 -45.536364 
L 212.090636 -45.536364 
L 211.404836 -45.536364 
L 210.719036 -45.536364 
L 210.033236 -45.536364 
L 209.347436 -45.536364 
L 208.661636 -45.536364 
L 207.975836 -45.536364 
L 207.290036 -45.536364 
L 206.604236 -45.536364 
L 205.918436 -45.536364 
L 205.232636 -45.536364 
L 204.546836 -45.536364 
L 203.861035 -45.536364 
L 203.175235 -45.536364 
L 202.489435 -45.536364 
L 201.803635 -45.536364 
L 201.117835 -45.536364 
L 200.432035 -45.536364 
L 199.746235 -45.536364 
L 199.060435 -45.536364 
L 198.374635 -45.536364 
L 197.688835 -45.536364 
L 197.003035 -45.536364 
L 196.317235 -45.536364 
L 195.631434 -45.536364 
L 194.945634 -45.536364 
L 194.259834 -45.536364 
L 193.574034 -45.536364 
L 192.888234 -45.536364 
L 192.202434 -45.536364 
L 191.516634 -45.536364 
L 190.830834 -45.536364 
L 190.145034 -45.536364 
L 189.459234 -45.536364 
L 188.773434 -45.536364 
L 188.087634 -45.536364 
L 187.401834 -45.536364 
L 186.716033 -45.536364 
L 186.030233 -45.536364 
L 185.344433 -45.536364 
L 184.658633 -45.536364 
L 183.972833 -45.536364 
L 183.287033 -45.536364 
L 182.601233 -45.536364 
L 181.915433 -45.536364 
L 181.229633 -45.536364 
L 180.543833 -45.536364 
L 179.858033 -45.536364 
L 179.172233 -45.536364 
L 178.486432 -45.536364 
L 177.800632 -45.536364 
L 177.114832 -45.536364 
L 176.429032 -45.536364 
L 175.743232 -45.536364 
L 175.057432 -45.536364 
L 174.371632 -45.536364 
L 173.685832 -45.536364 
L 173.000032 -45.536364 
L 172.314232 -45.536364 
L 171.628432 -45.536364 
L 170.942632 -45.536364 
L 170.256831 -45.536364 
L 169.571031 -45.536364 
L 168.885231 -45.536364 
L 168.199431 -45.536364 
L 167.513631 -45.536364 
L 166.827831 -45.536364 
L 166.142031 -45.536364 
L 165.456231 -45.536364 
L 164.770431 -45.536364 
L 164.084631 -45.536364 
L 163.398831 -45.536364 
L 162.713031 -45.536364 
L 162.02723 -45.536364 
L 161.34143 -45.536364 
L 160.65563 -45.536364 
L 159.96983 -45.536364 
L 159.28403 -45.536364 
L 158.59823 -45.536364 
L 157.91243 -45.536364 
L 157.22663 -45.536364 
L 156.54083 -45.536364 
L 155.85503 -45.536364 
L 155.16923 -45.536364 
L 154.48343 -45.536364 
L 153.797629 -45.536364 
L 153.111829 -45.536364 
L 152.426029 -45.536364 
L 151.740229 -45.536364 
L 151.054429 -45.536364 
L 150.368629 -45.536364 
L 149.682829 -45.536364 
L 148.997029 -45.536364 
L 148.311229 -45.536364 
L 147.625429 -45.536364 
L 146.939629 -45.536364 
L 146.253829 -45.536364 
L 145.568028 -45.536364 
L 144.882228 -45.536364 
L 144.196428 -45.536364 
L 143.510628 -45.536364 
L 142.824828 -45.536364 
L 142.139028 -45.536364 
L 141.453228 -45.536364 
L 140.767428 -45.536364 
L 140.081628 -45.536364 
L 139.395828 -45.536364 
L 138.710028 -45.536364 
L 138.024228 -45.536364 
L 137.338427 -45.536364 
L 136.652627 -45.536364 
L 135.966827 -45.536364 
L 135.281027 -45.536364 
L 134.595227 -45.536364 
L 133.909427 -45.536364 
L 133.223627 -45.536364 
L 132.537827 -45.536364 
L 131.852027 -45.536364 
L 131.166227 -45.536364 
L 130.480427 -45.536364 
L 129.794627 -45.536364 
L 129.108826 -45.536364 
L 128.423026 -45.536364 
L 127.737226 -45.536364 
L 127.051426 -45.536364 
L 126.365626 -45.536364 
L 125.679826 -45.536364 
L 124.994026 -45.536364 
L 124.308226 -45.536364 
L 123.622426 -45.536364 
L 122.936626 -45.536364 
L 122.250826 -45.536364 
L 121.565026 -45.536364 
L 120.879225 -45.536364 
L 120.193425 -45.536364 
L 119.507625 -45.536364 
L 118.821825 -45.536364 
L 118.136025 -45.536364 
L 117.450225 -45.536364 
L 116.764425 -45.536364 
L 116.078625 -45.536364 
L 115.392825 -45.536364 
L 114.707025 -45.536364 
L 114.021225 -45.536364 
L 113.335425 -45.536364 
L 112.649625 -45.536364 
L 111.963824 -45.536364 
L 111.278024 -45.536364 
L 110.592224 -45.536364 
L 109.906424 -45.536364 
L 109.220624 -45.536364 
L 108.534824 -45.536364 
L 107.849024 -45.536364 
L 107.163224 -45.536364 
L 106.477424 -45.536364 
L 105.791624 -45.536364 
L 105.105824 -45.536364 
L 104.420024 -45.536364 
L 103.734223 -45.536364 
L 103.048423 -45.536364 
L 102.362623 -45.536364 
L 101.676823 -45.536364 
L 100.991023 -45.536364 
L 100.305223 -45.536364 
L 99.619423 -45.536364 
L 98.933623 -45.536364 
L 98.247823 -45.536364 
L 97.562023 -45.536364 
L 96.876223 -45.536364 
L 96.190423 -45.536364 
L 95.504622 -45.536364 
L 94.818822 -45.536364 
L 94.133022 -45.536364 
L 93.447222 -45.536364 
L 92.761422 -45.536364 
L 92.075622 -45.536364 
L 91.389822 -45.536364 
L 90.704022 -45.536364 
L 90.018222 -45.536364 
L 89.332422 -45.536364 
L 88.646622 -45.536364 
L 87.960822 -45.536364 
L 87.275021 -45.536364 
L 86.589221 -45.536364 
L 85.903421 -45.536364 
L 85.217621 -45.536364 
L 84.531821 -45.536364 
L 83.846021 -45.536364 
L 83.160221 -45.536364 
L 82.474421 -45.536364 
L 81.788621 -45.536364 
L 81.102821 -45.536364 
L 80.417021 -45.536364 
L 79.731221 -45.536364 
L 79.04542 -45.536364 
L 78.35962 -45.536364 
L 77.67382 -45.536364 
L 76.98802 -45.536364 
L 76.30222 -45.536364 
L 75.61642 -45.536364 
L 74.93062 -45.536364 
L 74.24482 -45.536364 
L 73.55902 -45.536364 
L 72.87322 -45.536364 
L 72.18742 -45.536364 
L 71.50162 -45.536364 
L 70.815819 -45.536364 
L 70.130019 -45.536364 
L 69.444219 -45.536364 
L 68.758419 -45.536364 
L 68.072619 -45.536364 
L 67.386819 -45.536364 
L 66.701019 -45.536364 
L 66.015219 -45.536364 
L 65.329419 -45.536364 
L 64.643619 -45.536364 
L 63.957819 -45.536364 
L 63.272019 -45.536364 
L 62.586218 -45.536364 
L 61.900418 -45.536364 
L 61.214618 -45.536364 
L 60.528818 -45.536364 
L 59.843018 -45.536364 
L 59.157218 -45.536364 
L 58.471418 -45.536364 
L 57.785618 -45.536364 
z
" style="stroke: #4c78a8; stroke-opacity: 0.15"/>
    </defs>
    <g clip-path="url(#pfcc8875cd6)">
     <use xlink:href="#m8bb8c9da51" x="0" y="223.158281" style="fill: #4c78a8; fill-opacity: 0.15; stroke: #4c78a8; stroke-opacity: 0.15"/>
    </g>
   </g>
   <g id="matplotlib.axis_1">
    <g id="xtick_1">
     <g id="line2d_1">
      <path d="M 55.311564 184.958281 
L 55.311564 23.558281 
" clip-path="url(#pfcc8875cd6)" style="fill: none; stroke: #b0b0b0; stroke-opacity: 0.25; stroke-width: 0.6; stroke-linecap: square"/>
     </g>
     <g id="line2d_2">
      <defs>
       <path id="m596ba3bae4" d="M 0 0 
L 0 3.5 
" style="stroke: #000000; stroke-width: 0.8"/>
      </defs>
      <g>
       <use xlink:href="#m596ba3bae4" x="55.311564" y="184.958281" style="stroke: #000000; stroke-width: 0.8"/>
      </g>
     </g>
     <g id="text_1">
      <!-- −6 -->
      <g transform="translate(47.94047 199.555938) scale(0.1 -0.1)">
       <defs>
        <path id="DejaVuSans-c9c" d="M 678 2272 
L 4684 2272 
L 4684 1741 
L 678 1741 
L 678 2272 
z
" transform="scale(0.015625)"/>
        <path id="DejaVuSans-19" d="M 2113 2584 
Q 1688 2584 1439 2293 
Q 1191 2003 1191 1497 
Q 1191 994 1439 701 
Q 1688 409 2113 409 
Q 2538 409 2786 701 
Q 3034 994 3034 1497 
Q 3034 2003 2786 2293 
Q 2538 2584 2113 2584 
z
M 3366 4563 
L 3366 3988 
Q 3128 4100 2886 4159 
Q 2644 4219 2406 4219 
Q 1781 4219 1451 3797 
Q 1122 3375 1075 2522 
Q 1259 2794 1537 2939 
Q 1816 3084 2150 3084 
Q 2853 3084 3261 2657 
Q 3669 2231 3669 1497 
Q 3669 778 3244 343 
Q 2819 -91 2113 -91 
Q 1303 -91 875 529 
Q 447 1150 447 2328 
Q 447 3434 972 4092 
Q 1497 4750 2381 4750 
Q 2619 4750 2861 4703 
Q 3103 4656 3366 4563 
z
" transform="scale(0.015625)"/>
       </defs>
       <use xlink:href="#DejaVuSans-c9c"/>
       <use xlink:href="#DejaVuSans-19" transform="translate(83.796875 0)"/>
      </g>
     </g>
    </g>
    <g id="xtick_2">
     <g id="line2d_3">
      <path d="M 101.741954 184.958281 
L 101.741954 23.558281 
" clip-path="url(#pfcc8875cd6)" style="fill: none; stroke: #b0b0b0; stroke-opacity: 0.25; stroke-width: 0.6; stroke-linecap: square"/>
     </g>
     <g id="line2d_4">
      <g>
       <use xlink:href="#m596ba3bae4" x="101.741954" y="184.958281" style="stroke: #000000; stroke-width: 0.8"/>
      </g>
     </g>
     <g id="text_2">
      <!-- −4 -->
      <g transform="translate(94.37086 199.555938) scale(0.1 -0.1)">
       <defs>
        <path id="DejaVuSans-17" d="M 2419 4116 
L 825 1625 
L 2419 1625 
L 2419 4116 
z
M 2253 4666 
L 3047 4666 
L 3047 1625 
L 3713 1625 
L 3713 1100 
L 3047 1100 
L 3047 0 
L 2419 0 
L 2419 1100 
L 313 1100 
L 313 1709 
L 2253 4666 
z
" transform="scale(0.015625)"/>
       </defs>
       <use xlink:href="#DejaVuSans-c9c"/>
       <use xlink:href="#DejaVuSans-17" transform="translate(83.796875 0)"/>
      </g>
     </g>
    </g>
    <g id="xtick_3">
     <g id="line2d_5">
      <path d="M 148.172344 184.958281 
L 148.172344 23.558281 
" clip-path="url(#pfcc8875cd6)" style="fill: none; stroke: #b0b0b0; stroke-opacity: 0.25; stroke-width: 0.6; stroke-linecap: square"/>
     </g>
     <g id="line2d_6">
      <g>
       <use xlink:href="#m596ba3bae4" x="148.172344" y="184.958281" style="stroke: #000000; stroke-width: 0.8"/>
      </g>
     </g>
     <g id="text_3">
      <!-- −2 -->
      <g transform="translate(140.80125 199.555938) scale(0.1 -0.1)">
       <defs>
        <path id="DejaVuSans-15" d="M 1228 531 
L 3431 531 
L 3431 0 
L 469 0 
L 469 531 
Q 828 903 1448 1529 
Q 2069 2156 2228 2338 
Q 2531 2678 2651 2914 
Q 2772 3150 2772 3378 
Q 2772 3750 2511 3984 
Q 2250 4219 1831 4219 
Q 1534 4219 1204 4116 
Q 875 4013 500 3803 
L 500 4441 
Q 881 4594 1212 4672 
Q 1544 4750 1819 4750 
Q 2544 4750 2975 4387 
Q 3406 4025 3406 3419 
Q 3406 3131 3298 2873 
Q 3191 2616 2906 2266 
Q 2828 2175 2409 1742 
Q 1991 1309 1228 531 
z
" transform="scale(0.015625)"/>
       </defs>
       <use xlink:href="#DejaVuSans-c9c"/>
       <use xlink:href="#DejaVuSans-15" transform="translate(83.796875 0)"/>
      </g>
     </g>
    </g>
    <g id="xtick_4">
     <g id="line2d_7">
      <path d="M 194.602734 184.958281 
L 194.602734 23.558281 
" clip-path="url(#pfcc8875cd6)" style="fill: none; stroke: #b0b0b0; stroke-opacity: 0.25; stroke-width: 0.6; stroke-linecap: square"/>
     </g>
     <g id="line2d_8">
      <g>
       <use xlink:href="#m596ba3bae4" x="194.602734" y="184.958281" style="stroke: #000000; stroke-width: 0.8"/>
      </g>
     </g>
     <g id="text_4">
      <!-- 0 -->
      <g transform="translate(191.421484 199.555938) scale(0.1 -0.1)">
       <defs>
        <path id="DejaVuSans-13" d="M 2034 4250 
Q 1547 4250 1301 3770 
Q 1056 3291 1056 2328 
Q 1056 1369 1301 889 
Q 1547 409 2034 409 
Q 2525 409 2770 889 
Q 3016 1369 3016 2328 
Q 3016 3291 2770 3770 
Q 2525 4250 2034 4250 
z
M 2034 4750 
Q 2819 4750 3233 4129 
Q 3647 3509 3647 2328 
Q 3647 1150 3233 529 
Q 2819 -91 2034 -91 
Q 1250 -91 836 529 
Q 422 1150 422 2328 
Q 422 3509 836 4129 
Q 1250 4750 2034 4750 
z
" transform="scale(0.015625)"/>
       </defs>
       <use xlink:href="#DejaVuSans-13"/>
      </g>
     </g>
    </g>
    <g id="xtick_5">
     <g id="line2d_9">
      <path d="M 241.033125 184.958281 
L 241.033125 23.558281 
" clip-path="url(#pfcc8875cd6)" style="fill: none; stroke: #b0b0b0; stroke-opacity: 0.25; stroke-width: 0.6; stroke-linecap: square"/>
     </g>
     <g id="line2d_10">
      <g>
       <use xlink:href="#m596ba3bae4" x="241.033125" y="184.958281" style="stroke: #000000; stroke-width: 0.8"/>
      </g>
     </g>
     <g id="text_5">
      <!-- 2 -->
      <g transform="translate(237.851875 199.555938) scale(0.1 -0.1)">
       <use xlink:href="#DejaVuSans-15"/>
      </g>
     </g>
    </g>
    <g id="xtick_6">
     <g id="line2d_11">
      <path d="M 287.463515 184.958281 
L 287.463515 23.558281 
" clip-path="url(#pfcc8875cd6)" style="fill: none; stroke: #b0b0b0; stroke-opacity: 0.25; stroke-width: 0.6; stroke-linecap: square"/>
     </g>
     <g id="line2d_12">
      <g>
       <use xlink:href="#m596ba3bae4" x="287.463515" y="184.958281" style="stroke: #000000; stroke-width: 0.8"/>
      </g>
     </g>
     <g id="text_6">
      <!-- 4 -->
      <g transform="translate(284.282265 199.555938) scale(0.1 -0.1)">
       <use xlink:href="#DejaVuSans-17"/>
      </g>
     </g>
    </g>
    <g id="xtick_7">
     <g id="line2d_13">
      <path d="M 333.893905 184.958281 
L 333.893905 23.558281 
" clip-path="url(#pfcc8875cd6)" style="fill: none; stroke: #b0b0b0; stroke-opacity: 0.25; stroke-width: 0.6; stroke-linecap: square"/>
     </g>
     <g id="line2d_14">
      <g>
       <use xlink:href="#m596ba3bae4" x="333.893905" y="184.958281" style="stroke: #000000; stroke-width: 0.8"/>
      </g>
     </g>
     <g id="text_7">
      <!-- 6 -->
      <g transform="translate(330.712655 199.555938) scale(0.1 -0.1)">
       <use xlink:href="#DejaVuSans-19"/>
      </g>
     </g>
    </g>
    <g id="text_8">
     <!-- x -->
     <g transform="translate(191.643359 213.555938) scale(0.1 -0.1)">
      <defs>
       <path id="DejaVuSans-5b" d="M 3513 3500 
L 2247 1797 
L 3578 0 
L 2900 0 
L 1881 1375 
L 863 0 
L 184 0 
L 1544 1831 
L 300 3500 
L 978 3500 
L 1906 2253 
L 2834 3500 
L 3513 3500 
z
" transform="scale(0.015625)"/>
      </defs>
      <use xlink:href="#DejaVuSans-5b"/>
     </g>
    </g>
   </g>
   <g id="matplotlib.axis_2">
    <g id="ytick_1">
     <g id="line2d_15">
      <path d="M 44.103906 177.621918 
L 345.101562 177.621918 
" clip-path="url(#pfcc8875cd6)" style="fill: none; stroke: #b0b0b0; stroke-opacity: 0.25; stroke-width: 0.6; stroke-linecap: square"/>
     </g>
     <g id="line2d_16">
      <defs>
       <path id="m398454aa73" d="M 0 0 
L -3.5 0 
" style="stroke: #000000; stroke-width: 0.8"/>
      </defs>
      <g>
       <use xlink:href="#m398454aa73" x="44.103906" y="177.621918" style="stroke: #000000; stroke-width: 0.8"/>
      </g>
     </g>
     <g id="text_9">
      <!-- 0.0 -->
      <g transform="translate(21.200781 181.420746) scale(0.1 -0.1)">
       <defs>
        <path id="DejaVuSans-11" d="M 684 794 
L 1344 794 
L 1344 0 
L 684 0 
L 684 794 
z
" transform="scale(0.015625)"/>
       </defs>
       <use xlink:href="#DejaVuSans-13"/>
       <use xlink:href="#DejaVuSans-11" transform="translate(63.625 0)"/>
       <use xlink:href="#DejaVuSans-13" transform="translate(95.40625 0)"/>
      </g>
     </g>
    </g>
    <g id="ytick_2">
     <g id="line2d_17">
      <path d="M 44.103906 138.964411 
L 345.101562 138.964411 
" clip-path="url(#pfcc8875cd6)" style="fill: none; stroke: #b0b0b0; stroke-opacity: 0.25; stroke-width: 0.6; stroke-linecap: square"/>
     </g>
     <g id="line2d_18">
      <g>
       <use xlink:href="#m398454aa73" x="44.103906" y="138.964411" style="stroke: #000000; stroke-width: 0.8"/>
      </g>
     </g>
     <g id="text_10">
      <!-- 0.1 -->
      <g transform="translate(21.200781 142.763239) scale(0.1 -0.1)">
       <defs>
        <path id="DejaVuSans-14" d="M 794 531 
L 1825 531 
L 1825 4091 
L 703 3866 
L 703 4441 
L 1819 4666 
L 2450 4666 
L 2450 531 
L 3481 531 
L 3481 0 
L 794 0 
L 794 531 
z
" transform="scale(0.015625)"/>
       </defs>
       <use xlink:href="#DejaVuSans-13"/>
       <use xlink:href="#DejaVuSans-11" transform="translate(63.625 0)"/>
       <use xlink:href="#DejaVuSans-14" transform="translate(95.40625 0)"/>
      </g>
     </g>
    </g>
    <g id="ytick_3">
     <g id="line2d_19">
      <path d="M 44.103906 100.306905 
L 345.101562 100.306905 
" clip-path="url(#pfcc8875cd6)" style="fill: none; stroke: #b0b0b0; stroke-opacity: 0.25; stroke-width: 0.6; stroke-linecap: square"/>
     </g>
     <g id="line2d_20">
      <g>
       <use xlink:href="#m398454aa73" x="44.103906" y="100.306905" style="stroke: #000000; stroke-width: 0.8"/>
      </g>
     </g>
     <g id="text_11">
      <!-- 0.2 -->
      <g transform="translate(21.200781 104.105733) scale(0.1 -0.1)">
       <use xlink:href="#DejaVuSans-13"/>
       <use xlink:href="#DejaVuSans-11" transform="translate(63.625 0)"/>
       <use xlink:href="#DejaVuSans-15" transform="translate(95.40625 0)"/>
      </g>
     </g>
    </g>
    <g id="ytick_4">
     <g id="line2d_21">
      <path d="M 44.103906 61.649399 
L 345.101562 61.649399 
" clip-path="url(#pfcc8875cd6)" style="fill: none; stroke: #b0b0b0; stroke-opacity: 0.25; stroke-width: 0.6; stroke-linecap: square"/>
     </g>
     <g id="line2d_22">
      <g>
       <use xlink:href="#m398454aa73" x="44.103906" y="61.649399" style="stroke: #000000; stroke-width: 0.8"/>
      </g>
     </g>
     <g id="text_12">
      <!-- 0.3 -->
      <g transform="translate(21.200781 65.448227) scale(0.1 -0.1)">
       <defs>
        <path id="DejaVuSans-16" d="M 2597 2516 
Q 3050 2419 3304 2112 
Q 3559 1806 3559 1356 
Q 3559 666 3084 287 
Q 2609 -91 1734 -91 
Q 1441 -91 1130 -33 
Q 819 25 488 141 
L 488 750 
Q 750 597 1062 519 
Q 1375 441 1716 441 
Q 2309 441 2620 675 
Q 2931 909 2931 1356 
Q 2931 1769 2642 2001 
Q 2353 2234 1838 2234 
L 1294 2234 
L 1294 2753 
L 1863 2753 
Q 2328 2753 2575 2939 
Q 2822 3125 2822 3475 
Q 2822 3834 2567 4026 
Q 2313 4219 1838 4219 
Q 1578 4219 1281 4162 
Q 984 4106 628 3988 
L 628 4550 
Q 988 4650 1302 4700 
Q 1616 4750 1894 4750 
Q 2613 4750 3031 4423 
Q 3450 4097 3450 3541 
Q 3450 3153 3228 2886 
Q 3006 2619 2597 2516 
z
" transform="scale(0.015625)"/>
       </defs>
       <use xlink:href="#DejaVuSans-13"/>
       <use xlink:href="#DejaVuSans-11" transform="translate(63.625 0)"/>
       <use xlink:href="#DejaVuSans-16" transform="translate(95.40625 0)"/>
      </g>
     </g>
    </g>
    <g id="text_13">
     <!-- f(x) -->
     <g transform="translate(14.798438 112.879375) rotate(-90) scale(0.1 -0.1)">
      <defs>
       <path id="DejaVuSans-49" d="M 2375 4863 
L 2375 4384 
L 1825 4384 
Q 1516 4384 1395 4259 
Q 1275 4134 1275 3809 
L 1275 3500 
L 2222 3500 
L 2222 3053 
L 1275 3053 
L 1275 0 
L 697 0 
L 697 3053 
L 147 3053 
L 147 3500 
L 697 3500 
L 697 3744 
Q 697 4328 969 4595 
Q 1241 4863 1831 4863 
L 2375 4863 
z
" transform="scale(0.015625)"/>
       <path id="DejaVuSans-b" d="M 1984 4856 
Q 1566 4138 1362 3434 
Q 1159 2731 1159 2009 
Q 1159 1288 1364 580 
Q 1569 -128 1984 -844 
L 1484 -844 
Q 1016 -109 783 600 
Q 550 1309 550 2009 
Q 550 2706 781 3412 
Q 1013 4119 1484 4856 
L 1984 4856 
z
" transform="scale(0.015625)"/>
       <path id="DejaVuSans-c" d="M 513 4856 
L 1013 4856 
Q 1481 4119 1714 3412 
Q 1947 2706 1947 2009 
Q 1947 1309 1714 600 
Q 1481 -109 1013 -844 
L 513 -844 
Q 928 -128 1133 580 
Q 1338 1288 1338 2009 
Q 1338 2731 1133 3434 
Q 928 4138 513 4856 
z
" transform="scale(0.015625)"/>
      </defs>
      <use xlink:href="#DejaVuSans-49"/>
      <use xlink:href="#DejaVuSans-b" transform="translate(35.203125 0)"/>
      <use xlink:href="#DejaVuSans-5b" transform="translate(74.21875 0)"/>
      <use xlink:href="#DejaVuSans-c" transform="translate(133.40625 0)"/>
     </g>
    </g>
   </g>
   <g id="line2d_23">
    <path d="M 57.785618 177.329476 
L 75.61642 177.021959 
L 87.275021 176.621996 
L 96.190423 176.108425 
L 103.048423 175.509135 
L 108.534824 174.836845 
L 113.335425 174.050927 
L 117.450225 173.180928 
L 121.565026 172.074517 
L 124.994026 170.92337 
L 128.423026 169.511782 
L 131.166227 168.154884 
L 133.909427 166.5563 
L 136.652627 164.67363 
L 139.395828 162.458323 
L 141.453228 160.545776 
L 143.510628 158.38995 
L 145.568028 155.963646 
L 147.625429 153.238206 
L 149.682829 150.184014 
L 151.740229 146.771233 
L 153.797629 142.970811 
L 155.85503 138.755831 
L 157.91243 134.103223 
L 159.96983 128.995882 
L 162.713031 121.465385 
L 165.456231 113.124772 
L 168.199431 104.035501 
L 171.628432 91.81649 
L 181.915433 54.318047 
L 183.972833 47.889121 
L 186.030233 42.254962 
L 187.401834 39.030843 
L 188.773434 36.289776 
L 190.145034 34.074497 
L 191.516634 32.420449 
L 192.202434 31.812678 
L 192.888234 31.354622 
L 193.574034 31.048184 
L 194.259834 30.894645 
L 194.945634 30.894645 
L 195.631434 31.048184 
L 196.317235 31.354622 
L 197.003035 31.812678 
L 198.374635 33.175422 
L 199.746235 35.114012 
L 201.117835 37.597101 
L 202.489435 40.585441 
L 203.861035 44.033147 
L 205.918436 49.953183 
L 207.975836 56.604443 
L 210.719036 66.275389 
L 222.377638 108.66759 
L 225.120838 117.393812 
L 227.864038 125.333662 
L 230.607239 132.451929 
L 232.664639 137.254577 
L 234.722039 141.613116 
L 236.779439 145.548885 
L 238.83684 149.087726 
L 240.89424 152.258147 
L 242.95164 155.089852 
L 245.00904 157.612625 
L 247.066441 159.855507 
L 249.123841 161.84623 
L 251.867041 164.153023 
L 254.610242 166.114054 
L 257.353442 167.77945 
L 260.096642 169.193117 
L 262.839843 170.3931 
L 266.268843 171.641928 
L 269.697843 172.661126 
L 273.812644 173.641864 
L 278.613244 174.526175 
L 284.099645 175.280807 
L 290.271846 175.895074 
L 297.815647 176.414384 
L 307.416848 176.83901 
L 320.44705 177.170708 
L 331.419851 177.329476 
L 331.419851 177.329476 
" clip-path="url(#pfcc8875cd6)" style="fill: none; stroke: #4c78a8; stroke-width: 2; stroke-linecap: square"/>
   </g>
   <g id="patch_3">
    <path d="M 44.103906 184.958281 
L 44.103906 23.558281 
" style="fill: none; stroke: #000000; stroke-width: 0.8; stroke-linejoin: miter; stroke-linecap: square"/>
   </g>
   <g id="patch_4">
    <path d="M 44.103906 184.958281 
L 345.101562 184.958281 
" style="fill: none; stroke: #000000; stroke-width: 0.8; stroke-linejoin: miter; stroke-linecap: square"/>
   </g>
   <g id="text_14">
    <!-- Students T -->
    <g transform="translate(164.979219 15.558281) scale(0.11 -0.11)">
     <defs>
      <path id="DejaVuSans-36" d="M 3425 4513 
L 3425 3897 
Q 3066 4069 2747 4153 
Q 2428 4238 2131 4238 
Q 1616 4238 1336 4038 
Q 1056 3838 1056 3469 
Q 1056 3159 1242 3001 
Q 1428 2844 1947 2747 
L 2328 2669 
Q 3034 2534 3370 2195 
Q 3706 1856 3706 1288 
Q 3706 609 3251 259 
Q 2797 -91 1919 -91 
Q 1588 -91 1214 -16 
Q 841 59 441 206 
L 441 856 
Q 825 641 1194 531 
Q 1563 422 1919 422 
Q 2459 422 2753 634 
Q 3047 847 3047 1241 
Q 3047 1584 2836 1778 
Q 2625 1972 2144 2069 
L 1759 2144 
Q 1053 2284 737 2584 
Q 422 2884 422 3419 
Q 422 4038 858 4394 
Q 1294 4750 2059 4750 
Q 2388 4750 2728 4690 
Q 3069 4631 3425 4513 
z
" transform="scale(0.015625)"/>
      <path id="DejaVuSans-57" d="M 1172 4494 
L 1172 3500 
L 2356 3500 
L 2356 3053 
L 1172 3053 
L 1172 1153 
Q 1172 725 1289 603 
Q 1406 481 1766 481 
L 2356 481 
L 2356 0 
L 1766 0 
Q 1100 0 847 248 
Q 594 497 594 1153 
L 594 3053 
L 172 3053 
L 172 3500 
L 594 3500 
L 594 4494 
L 1172 4494 
z
" transform="scale(0.015625)"/>
      <path id="DejaVuSans-58" d="M 544 1381 
L 544 3500 
L 1119 3500 
L 1119 1403 
Q 1119 906 1312 657 
Q 1506 409 1894 409 
Q 2359 409 2629 706 
Q 2900 1003 2900 1516 
L 2900 3500 
L 3475 3500 
L 3475 0 
L 2900 0 
L 2900 538 
Q 2691 219 2414 64 
Q 2138 -91 1772 -91 
Q 1169 -91 856 284 
Q 544 659 544 1381 
z
M 1991 3584 
L 1991 3584 
z
" transform="scale(0.015625)"/>
      <path id="DejaVuSans-47" d="M 2906 2969 
L 2906 4863 
L 3481 4863 
L 3481 0 
L 2906 0 
L 2906 525 
Q 2725 213 2448 61 
Q 2172 -91 1784 -91 
Q 1150 -91 751 415 
Q 353 922 353 1747 
Q 353 2572 751 3078 
Q 1150 3584 1784 3584 
Q 2172 3584 2448 3432 
Q 2725 3281 2906 2969 
z
M 947 1747 
Q 947 1113 1208 752 
Q 1469 391 1925 391 
Q 2381 391 2643 752 
Q 2906 1113 2906 1747 
Q 2906 2381 2643 2742 
Q 2381 3103 1925 3103 
Q 1469 3103 1208 2742 
Q 947 2381 947 1747 
z
" transform="scale(0.015625)"/>
      <path id="DejaVuSans-48" d="M 3597 1894 
L 3597 1613 
L 953 1613 
Q 991 1019 1311 708 
Q 1631 397 2203 397 
Q 2534 397 2845 478 
Q 3156 559 3463 722 
L 3463 178 
Q 3153 47 2828 -22 
Q 2503 -91 2169 -91 
Q 1331 -91 842 396 
Q 353 884 353 1716 
Q 353 2575 817 3079 
Q 1281 3584 2069 3584 
Q 2775 3584 3186 3129 
Q 3597 2675 3597 1894 
z
M 3022 2063 
Q 3016 2534 2758 2815 
Q 2500 3097 2075 3097 
Q 1594 3097 1305 2825 
Q 1016 2553 972 2059 
L 3022 2063 
z
" transform="scale(0.015625)"/>
      <path id="DejaVuSans-51" d="M 3513 2113 
L 3513 0 
L 2938 0 
L 2938 2094 
Q 2938 2591 2744 2837 
Q 2550 3084 2163 3084 
Q 1697 3084 1428 2787 
Q 1159 2491 1159 1978 
L 1159 0 
L 581 0 
L 581 3500 
L 1159 3500 
L 1159 2956 
Q 1366 3272 1645 3428 
Q 1925 3584 2291 3584 
Q 2894 3584 3203 3211 
Q 3513 2838 3513 2113 
z
" transform="scale(0.015625)"/>
      <path id="DejaVuSans-56" d="M 2834 3397 
L 2834 2853 
Q 2591 2978 2328 3040 
Q 2066 3103 1784 3103 
Q 1356 3103 1142 2972 
Q 928 2841 928 2578 
Q 928 2378 1081 2264 
Q 1234 2150 1697 2047 
L 1894 2003 
Q 2506 1872 2764 1633 
Q 3022 1394 3022 966 
Q 3022 478 2636 193 
Q 2250 -91 1575 -91 
Q 1294 -91 989 -36 
Q 684 19 347 128 
L 347 722 
Q 666 556 975 473 
Q 1284 391 1588 391 
Q 1994 391 2212 530 
Q 2431 669 2431 922 
Q 2431 1156 2273 1281 
Q 2116 1406 1581 1522 
L 1381 1569 
Q 847 1681 609 1914 
Q 372 2147 372 2553 
Q 372 3047 722 3315 
Q 1072 3584 1716 3584 
Q 2034 3584 2315 3537 
Q 2597 3491 2834 3397 
z
" transform="scale(0.015625)"/>
      <path id="DejaVuSans-3" transform="scale(0.015625)"/>
      <path id="DejaVuSans-37" d="M -19 4666 
L 3928 4666 
L 3928 4134 
L 2272 4134 
L 2272 0 
L 1638 0 
L 1638 4134 
L -19 4134 
L -19 4666 
z
" transform="scale(0.015625)"/>
     </defs>
     <use xlink:href="#DejaVuSans-36"/>
     <use xlink:href="#DejaVuSans-57" transform="translate(63.484375 0)"/>
     <use xlink:href="#DejaVuSans-58" transform="translate(102.6875 0)"/>
     <use xlink:href="#DejaVuSans-47" transform="translate(166.0625 0)"/>
     <use xlink:href="#DejaVuSans-48" transform="translate(229.546875 0)"/>
     <use xlink:href="#DejaVuSans-51" transform="translate(291.078125 0)"/>
     <use xlink:href="#DejaVuSans-57" transform="translate(354.453125 0)"/>
     <use xlink:href="#DejaVuSans-56" transform="translate(393.65625 0)"/>
     <use xlink:href="#DejaVuSans-3" transform="translate(445.75 0)"/>
     <use xlink:href="#DejaVuSans-37" transform="translate(477.53125 0)"/>
    </g>
   </g>
  </g>
 </g>
 <defs>
  <clipPath id="pfcc8875cd6">
   <rect x="44.103906" y="23.558281" width="300.997656" height="161.4"/>
  </clipPath>
 </defs>
</svg>
