<?xml version="1.0" encoding="utf-8" standalone="no"?>
<!DOCTYPE svg PUBLIC "-//W3C//DTD SVG 1.1//EN"
  "http://www.w3.org/Graphics/SVG/1.1/DTD/svg11.dtd">
<svg xmlns:xlink="http://www.w3.org/1999/xlink" width="351.654093pt" height="223.158281pt" viewBox="0 0 351.654093 223.158281" xmlns="http://www.w3.org/2000/svg" version="1.1">
 <metadata>
  <rdf:RDF xmlns:dc="http://purl.org/dc/elements/1.1/" xmlns:cc="http://creativecommons.org/ns#" xmlns:rdf="http://www.w3.org/1999/02/22-rdf-syntax-ns#">
   <cc:Work>
    <dc:type rdf:resource="http://purl.org/dc/dcmitype/StillImage"/>
    <dc:date>2026-07-05T02:24:30.987674</dc:date>
    <dc:format>image/svg+xml</dc:format>
    <dc:creator>
     <cc:Agent>
      <dc:title>Matplotlib v3.11.0, https://matplotlib.org/</dc:title>
     </cc:Agent>
    </dc:creator>
   </cc:Work>
  </rdf:RDF>
 </metadata>
 <defs>
  <style type="text/css">*{stroke-linejoin: round; stroke-linecap: butt}</style>
 </defs>
 <g id="figure_1">
  <g id="patch_1">
   <path d="M 0 223.158281 
L 351.654093 223.158281 
L 351.654093 0 
L 0 0 
z
" style="fill: #ffffff"/>
  </g>
  <g id="axes_1">
   <g id="patch_2">
    <path d="M 44.103906 184.958281 
L 343.746389 184.958281 
L 343.746389 23.558281 
L 44.103906 23.558281 
z
" style="fill: #ffffff"/>
   </g>
   <g id="FillBetweenPolyCollection_1">
    <defs>
     <path id="ma1d1418509" d="M 57.724019 -45.536364 
L 57.724019 -52.113955 
L 58.406732 -52.818224 
L 59.089444 -53.522494 
L 59.772156 -54.226764 
L 60.454869 -54.931034 
L 61.137581 -55.635303 
L 61.820294 -56.339573 
L 62.503006 -57.043843 
L 63.185718 -57.748113 
L 63.868431 -58.452383 
L 64.551143 -59.156652 
L 65.233856 -59.860922 
L 65.916568 -60.565192 
L 66.599281 -61.269462 
L 67.281993 -61.973731 
L 67.964705 -62.678001 
L 68.647418 -63.382271 
L 69.33013 -64.086541 
L 70.012843 -64.79081 
L 70.695555 -65.49508 
L 71.378268 -66.19935 
L 72.06098 -66.90362 
L 72.743692 -67.607889 
L 73.426405 -68.312159 
L 74.109117 -69.016429 
L 74.79183 -69.720699 
L 75.474542 -70.424968 
L 76.157255 -71.129238 
L 76.839967 -71.833508 
L 77.522679 -72.537778 
L 78.205392 -73.242047 
L 78.888104 -73.946317 
L 79.570817 -74.650587 
L 80.253529 -75.354857 
L 80.936241 -76.059126 
L 81.618954 -76.763396 
L 82.301666 -77.467666 
L 82.984379 -78.171936 
L 83.667091 -78.876205 
L 84.349804 -79.580475 
L 85.032516 -80.284745 
L 85.715228 -80.989015 
L 86.397941 -81.693285 
L 87.080653 -82.397554 
L 87.763366 -83.101824 
L 88.446078 -83.806094 
L 89.128791 -84.510364 
L 89.811503 -85.214633 
L 90.494215 -85.918903 
L 91.176928 -86.623173 
L 91.85964 -87.327443 
L 92.542353 -88.031712 
L 93.225065 -88.735982 
L 93.907778 -89.440252 
L 94.59049 -90.144522 
L 95.273202 -90.848791 
L 95.955915 -91.553061 
L 96.638627 -92.257331 
L 97.32134 -92.961601 
L 98.004052 -93.66587 
L 98.686764 -94.37014 
L 99.369477 -95.07441 
L 100.052189 -95.77868 
L 100.734902 -96.482949 
L 101.417614 -97.187219 
L 102.100327 -97.891489 
L 102.783039 -98.595759 
L 103.465751 -99.300028 
L 104.148464 -100.004298 
L 104.831176 -100.708568 
L 105.513889 -101.412838 
L 106.196601 -102.117107 
L 106.879314 -102.821377 
L 107.562026 -103.525647 
L 108.244738 -104.229917 
L 108.927451 -104.934186 
L 109.610163 -105.638456 
L 110.292876 -106.342726 
L 110.975588 -107.046996 
L 111.658301 -107.751266 
L 112.341013 -108.455535 
L 113.023725 -109.159805 
L 113.706438 -109.864075 
L 114.38915 -110.568345 
L 115.071863 -111.272614 
L 115.754575 -111.976884 
L 116.437287 -112.681154 
L 117.12 -113.385424 
L 117.802712 -114.089693 
L 118.485425 -114.793963 
L 119.168137 -115.498233 
L 119.85085 -116.202503 
L 120.533562 -116.906772 
L 121.216274 -117.611042 
L 121.898987 -118.315312 
L 122.581699 -119.019582 
L 123.264412 -119.723851 
L 123.947124 -120.428121 
L 124.629837 -121.132391 
L 125.312549 -121.836661 
L 125.995261 -122.54093 
L 126.677974 -123.2452 
L 127.360686 -123.94947 
L 128.043399 -124.65374 
L 128.726111 -125.358009 
L 129.408824 -126.062279 
L 130.091536 -126.766549 
L 130.774248 -127.470819 
L 131.456961 -128.175088 
L 132.139673 -128.879358 
L 132.822386 -129.583628 
L 133.505098 -130.287898 
L 134.187811 -130.992167 
L 134.870523 -131.696437 
L 135.553235 -132.400707 
L 136.235948 -133.104977 
L 136.91866 -133.809247 
L 137.601373 -134.513516 
L 138.284085 -135.217786 
L 138.966797 -135.922056 
L 139.64951 -136.626326 
L 140.332222 -137.330595 
L 141.014935 -138.034865 
L 141.697647 -138.739135 
L 142.38036 -139.443405 
L 143.063072 -140.147674 
L 143.745784 -140.851944 
L 144.428497 -141.556214 
L 145.111209 -142.260484 
L 145.793922 -142.964753 
L 146.476634 -143.669023 
L 147.159347 -144.373293 
L 147.842059 -145.077563 
L 148.524771 -145.781832 
L 149.207484 -146.486102 
L 149.890196 -147.190372 
L 150.572909 -147.894642 
L 151.255621 -148.598911 
L 151.938334 -149.303181 
L 152.621046 -150.007451 
L 153.303758 -150.711721 
L 153.986471 -151.41599 
L 154.669183 -152.12026 
L 155.351896 -152.82453 
L 156.034608 -153.5288 
L 156.71732 -154.233069 
L 157.400033 -154.937339 
L 158.082745 -155.641609 
L 158.765458 -156.345879 
L 159.44817 -157.050149 
L 160.130883 -157.754418 
L 160.813595 -158.458688 
L 161.496307 -159.162958 
L 162.17902 -159.867228 
L 162.861732 -160.571497 
L 163.544445 -161.275767 
L 164.227157 -161.980037 
L 164.90987 -162.684307 
L 165.592582 -163.388576 
L 166.275294 -164.092846 
L 166.958007 -164.797116 
L 167.640719 -165.501386 
L 168.323432 -166.205655 
L 169.006144 -166.909925 
L 169.688857 -167.614195 
L 170.371569 -168.318465 
L 171.054281 -169.022734 
L 171.736994 -169.727004 
L 172.419706 -170.431274 
L 173.102419 -171.135544 
L 173.785131 -171.839813 
L 174.467843 -172.544083 
L 175.150556 -173.248353 
L 175.833268 -173.952623 
L 176.515981 -174.656892 
L 177.198693 -175.361162 
L 177.881406 -176.065432 
L 178.564118 -176.769702 
L 179.24683 -177.473971 
L 179.929543 -178.178241 
L 180.612255 -178.882511 
L 181.294968 -179.586781 
L 181.97768 -180.29105 
L 182.660393 -180.99532 
L 183.343105 -181.69959 
L 184.025817 -182.40386 
L 184.70853 -183.10813 
L 185.391242 -183.812399 
L 186.073955 -184.516669 
L 186.756667 -185.220939 
L 187.43938 -185.925209 
L 188.122092 -186.629478 
L 188.804804 -187.333748 
L 189.487517 -188.038018 
L 190.170229 -188.742288 
L 190.852942 -189.446557 
L 191.535654 -190.150827 
L 192.218366 -190.855097 
L 192.901079 -191.559367 
L 193.583791 -192.263636 
L 194.266504 -192.263636 
L 194.949216 -191.559367 
L 195.631929 -190.855097 
L 196.314641 -190.150827 
L 196.997353 -189.446557 
L 197.680066 -188.742288 
L 198.362778 -188.038018 
L 199.045491 -187.333748 
L 199.728203 -186.629478 
L 200.410916 -185.925209 
L 201.093628 -185.220939 
L 201.77634 -184.516669 
L 202.459053 -183.812399 
L 203.141765 -183.10813 
L 203.824478 -182.40386 
L 204.50719 -181.69959 
L 205.189903 -180.99532 
L 205.872615 -180.29105 
L 206.555327 -179.586781 
L 207.23804 -178.882511 
L 207.920752 -178.178241 
L 208.603465 -177.473971 
L 209.286177 -176.769702 
L 209.968889 -176.065432 
L 210.651602 -175.361162 
L 211.334314 -174.656892 
L 212.017027 -173.952623 
L 212.699739 -173.248353 
L 213.382452 -172.544083 
L 214.065164 -171.839813 
L 214.747876 -171.135544 
L 215.430589 -170.431274 
L 216.113301 -169.727004 
L 216.796014 -169.022734 
L 217.478726 -168.318465 
L 218.161439 -167.614195 
L 218.844151 -166.909925 
L 219.526863 -166.205655 
L 220.209576 -165.501386 
L 220.892288 -164.797116 
L 221.575001 -164.092846 
L 222.257713 -163.388576 
L 222.940426 -162.684307 
L 223.623138 -161.980037 
L 224.30585 -161.275767 
L 224.988563 -160.571497 
L 225.671275 -159.867228 
L 226.353988 -159.162958 
L 227.0367 -158.458688 
L 227.719412 -157.754418 
L 228.402125 -157.050149 
L 229.084837 -156.345879 
L 229.76755 -155.641609 
L 230.450262 -154.937339 
L 231.132975 -154.233069 
L 231.815687 -153.5288 
L 232.498399 -152.82453 
L 233.181112 -152.12026 
L 233.863824 -151.41599 
L 234.546537 -150.711721 
L 235.229249 -150.007451 
L 235.911962 -149.303181 
L 236.594674 -148.598911 
L 237.277386 -147.894642 
L 237.960099 -147.190372 
L 238.642811 -146.486102 
L 239.325524 -145.781832 
L 240.008236 -145.077563 
L 240.690949 -144.373293 
L 241.373661 -143.669023 
L 242.056373 -142.964753 
L 242.739086 -142.260484 
L 243.421798 -141.556214 
L 244.104511 -140.851944 
L 244.787223 -140.147674 
L 245.469935 -139.443405 
L 246.152648 -138.739135 
L 246.83536 -138.034865 
L 247.518073 -137.330595 
L 248.200785 -136.626326 
L 248.883498 -135.922056 
L 249.56621 -135.217786 
L 250.248922 -134.513516 
L 250.931635 -133.809247 
L 251.614347 -133.104977 
L 252.29706 -132.400707 
L 252.979772 -131.696437 
L 253.662485 -130.992167 
L 254.345197 -130.287898 
L 255.027909 -129.583628 
L 255.710622 -128.879358 
L 256.393334 -128.175088 
L 257.076047 -127.470819 
L 257.758759 -126.766549 
L 258.441472 -126.062279 
L 259.124184 -125.358009 
L 259.806896 -124.65374 
L 260.489609 -123.94947 
L 261.172321 -123.2452 
L 261.855034 -122.54093 
L 262.537746 -121.836661 
L 263.220459 -121.132391 
L 263.903171 -120.428121 
L 264.585883 -119.723851 
L 265.268596 -119.019582 
L 265.951308 -118.315312 
L 266.634021 -117.611042 
L 267.316733 -116.906772 
L 267.999445 -116.202503 
L 268.682158 -115.498233 
L 269.36487 -114.793963 
L 270.047583 -114.089693 
L 270.730295 -113.385424 
L 271.413008 -112.681154 
L 272.09572 -111.976884 
L 272.778432 -111.272614 
L 273.461145 -110.568345 
L 274.143857 -109.864075 
L 274.82657 -109.159805 
L 275.509282 -108.455535 
L 276.191995 -107.751266 
L 276.874707 -107.046996 
L 277.557419 -106.342726 
L 278.240132 -105.638456 
L 278.922844 -104.934186 
L 279.605557 -104.229917 
L 280.288269 -103.525647 
L 280.970982 -102.821377 
L 281.653694 -102.117107 
L 282.336406 -101.412838 
L 283.019119 -100.708568 
L 283.701831 -100.004298 
L 284.384544 -99.300028 
L 285.067256 -98.595759 
L 285.749968 -97.891489 
L 286.432681 -97.187219 
L 287.115393 -96.482949 
L 287.798106 -95.77868 
L 288.480818 -95.07441 
L 289.163531 -94.37014 
L 289.846243 -93.66587 
L 290.528955 -92.961601 
L 291.211668 -92.257331 
L 291.89438 -91.553061 
L 292.577093 -90.848791 
L 293.259805 -90.144522 
L 293.942518 -89.440252 
L 294.62523 -88.735982 
L 295.307942 -88.031712 
L 295.990655 -87.327443 
L 296.673367 -86.623173 
L 297.35608 -85.918903 
L 298.038792 -85.214633 
L 298.721505 -84.510364 
L 299.404217 -83.806094 
L 300.086929 -83.101824 
L 300.769642 -82.397554 
L 301.452354 -81.693285 
L 302.135067 -80.989015 
L 302.817779 -80.284745 
L 303.500491 -79.580475 
L 304.183204 -78.876205 
L 304.865916 -78.171936 
L 305.548629 -77.467666 
L 306.231341 -76.763396 
L 306.914054 -76.059126 
L 307.596766 -75.354857 
L 308.279478 -74.650587 
L 308.962191 -73.946317 
L 309.644903 -73.242047 
L 310.327616 -72.537778 
L 311.010328 -71.833508 
L 311.693041 -71.129238 
L 312.375753 -70.424968 
L 313.058465 -69.720699 
L 313.741178 -69.016429 
L 314.42389 -68.312159 
L 315.106603 -67.607889 
L 315.789315 -66.90362 
L 316.472028 -66.19935 
L 317.15474 -65.49508 
L 317.837452 -64.79081 
L 318.520165 -64.086541 
L 319.202877 -63.382271 
L 319.88559 -62.678001 
L 320.568302 -61.973731 
L 321.251014 -61.269462 
L 321.933727 -60.565192 
L 322.616439 -59.860922 
L 323.299152 -59.156652 
L 323.981864 -58.452383 
L 324.664577 -57.748113 
L 325.347289 -57.043843 
L 326.030001 -56.339573 
L 326.712714 -55.635303 
L 327.395426 -54.931034 
L 328.078139 -54.226764 
L 328.760851 -53.522494 
L 329.443564 -52.818224 
L 330.126276 -52.113955 
L 330.126276 -45.536364 
L 330.126276 -45.536364 
L 329.443564 -45.536364 
L 328.760851 -45.536364 
L 328.078139 -45.536364 
L 327.395426 -45.536364 
L 326.712714 -45.536364 
L 326.030001 -45.536364 
L 325.347289 -45.536364 
L 324.664577 -45.536364 
L 323.981864 -45.536364 
L 323.299152 -45.536364 
L 322.616439 -45.536364 
L 321.933727 -45.536364 
L 321.251014 -45.536364 
L 320.568302 -45.536364 
L 319.88559 -45.536364 
L 319.202877 -45.536364 
L 318.520165 -45.536364 
L 317.837452 -45.536364 
L 317.15474 -45.536364 
L 316.472028 -45.536364 
L 315.789315 -45.536364 
L 315.106603 -45.536364 
L 314.42389 -45.536364 
L 313.741178 -45.536364 
L 313.058465 -45.536364 
L 312.375753 -45.536364 
L 311.693041 -45.536364 
L 311.010328 -45.536364 
L 310.327616 -45.536364 
L 309.644903 -45.536364 
L 308.962191 -45.536364 
L 308.279478 -45.536364 
L 307.596766 -45.536364 
L 306.914054 -45.536364 
L 306.231341 -45.536364 
L 305.548629 -45.536364 
L 304.865916 -45.536364 
L 304.183204 -45.536364 
L 303.500491 -45.536364 
L 302.817779 -45.536364 
L 302.135067 -45.536364 
L 301.452354 -45.536364 
L 300.769642 -45.536364 
L 300.086929 -45.536364 
L 299.404217 -45.536364 
L 298.721505 -45.536364 
L 298.038792 -45.536364 
L 297.35608 -45.536364 
L 296.673367 -45.536364 
L 295.990655 -45.536364 
L 295.307942 -45.536364 
L 294.62523 -45.536364 
L 293.942518 -45.536364 
L 293.259805 -45.536364 
L 292.577093 -45.536364 
L 291.89438 -45.536364 
L 291.211668 -45.536364 
L 290.528955 -45.536364 
L 289.846243 -45.536364 
L 289.163531 -45.536364 
L 288.480818 -45.536364 
L 287.798106 -45.536364 
L 287.115393 -45.536364 
L 286.432681 -45.536364 
L 285.749968 -45.536364 
L 285.067256 -45.536364 
L 284.384544 -45.536364 
L 283.701831 -45.536364 
L 283.019119 -45.536364 
L 282.336406 -45.536364 
L 281.653694 -45.536364 
L 280.970982 -45.536364 
L 280.288269 -45.536364 
L 279.605557 -45.536364 
L 278.922844 -45.536364 
L 278.240132 -45.536364 
L 277.557419 -45.536364 
L 276.874707 -45.536364 
L 276.191995 -45.536364 
L 275.509282 -45.536364 
L 274.82657 -45.536364 
L 274.143857 -45.536364 
L 273.461145 -45.536364 
L 272.778432 -45.536364 
L 272.09572 -45.536364 
L 271.413008 -45.536364 
L 270.730295 -45.536364 
L 270.047583 -45.536364 
L 269.36487 -45.536364 
L 268.682158 -45.536364 
L 267.999445 -45.536364 
L 267.316733 -45.536364 
L 266.634021 -45.536364 
L 265.951308 -45.536364 
L 265.268596 -45.536364 
L 264.585883 -45.536364 
L 263.903171 -45.536364 
L 263.220459 -45.536364 
L 262.537746 -45.536364 
L 261.855034 -45.536364 
L 261.172321 -45.536364 
L 260.489609 -45.536364 
L 259.806896 -45.536364 
L 259.124184 -45.536364 
L 258.441472 -45.536364 
L 257.758759 -45.536364 
L 257.076047 -45.536364 
L 256.393334 -45.536364 
L 255.710622 -45.536364 
L 255.027909 -45.536364 
L 254.345197 -45.536364 
L 253.662485 -45.536364 
L 252.979772 -45.536364 
L 252.29706 -45.536364 
L 251.614347 -45.536364 
L 250.931635 -45.536364 
L 250.248922 -45.536364 
L 249.56621 -45.536364 
L 248.883498 -45.536364 
L 248.200785 -45.536364 
L 247.518073 -45.536364 
L 246.83536 -45.536364 
L 246.152648 -45.536364 
L 245.469935 -45.536364 
L 244.787223 -45.536364 
L 244.104511 -45.536364 
L 243.421798 -45.536364 
L 242.739086 -45.536364 
L 242.056373 -45.536364 
L 241.373661 -45.536364 
L 240.690949 -45.536364 
L 240.008236 -45.536364 
L 239.325524 -45.536364 
L 238.642811 -45.536364 
L 237.960099 -45.536364 
L 237.277386 -45.536364 
L 236.594674 -45.536364 
L 235.911962 -45.536364 
L 235.229249 -45.536364 
L 234.546537 -45.536364 
L 233.863824 -45.536364 
L 233.181112 -45.536364 
L 232.498399 -45.536364 
L 231.815687 -45.536364 
L 231.132975 -45.536364 
L 230.450262 -45.536364 
L 229.76755 -45.536364 
L 229.084837 -45.536364 
L 228.402125 -45.536364 
L 227.719412 -45.536364 
L 227.0367 -45.536364 
L 226.353988 -45.536364 
L 225.671275 -45.536364 
L 224.988563 -45.536364 
L 224.30585 -45.536364 
L 223.623138 -45.536364 
L 222.940426 -45.536364 
L 222.257713 -45.536364 
L 221.575001 -45.536364 
L 220.892288 -45.536364 
L 220.209576 -45.536364 
L 219.526863 -45.536364 
L 218.844151 -45.536364 
L 218.161439 -45.536364 
L 217.478726 -45.536364 
L 216.796014 -45.536364 
L 216.113301 -45.536364 
L 215.430589 -45.536364 
L 214.747876 -45.536364 
L 214.065164 -45.536364 
L 213.382452 -45.536364 
L 212.699739 -45.536364 
L 212.017027 -45.536364 
L 211.334314 -45.536364 
L 210.651602 -45.536364 
L 209.968889 -45.536364 
L 209.286177 -45.536364 
L 208.603465 -45.536364 
L 207.920752 -45.536364 
L 207.23804 -45.536364 
L 206.555327 -45.536364 
L 205.872615 -45.536364 
L 205.189903 -45.536364 
L 204.50719 -45.536364 
L 203.824478 -45.536364 
L 203.141765 -45.536364 
L 202.459053 -45.536364 
L 201.77634 -45.536364 
L 201.093628 -45.536364 
L 200.410916 -45.536364 
L 199.728203 -45.536364 
L 199.045491 -45.536364 
L 198.362778 -45.536364 
L 197.680066 -45.536364 
L 196.997353 -45.536364 
L 196.314641 -45.536364 
L 195.631929 -45.536364 
L 194.949216 -45.536364 
L 194.266504 -45.536364 
L 193.583791 -45.536364 
L 192.901079 -45.536364 
L 192.218366 -45.536364 
L 191.535654 -45.536364 
L 190.852942 -45.536364 
L 190.170229 -45.536364 
L 189.487517 -45.536364 
L 188.804804 -45.536364 
L 188.122092 -45.536364 
L 187.43938 -45.536364 
L 186.756667 -45.536364 
L 186.073955 -45.536364 
L 185.391242 -45.536364 
L 184.70853 -45.536364 
L 184.025817 -45.536364 
L 183.343105 -45.536364 
L 182.660393 -45.536364 
L 181.97768 -45.536364 
L 181.294968 -45.536364 
L 180.612255 -45.536364 
L 179.929543 -45.536364 
L 179.24683 -45.536364 
L 178.564118 -45.536364 
L 177.881406 -45.536364 
L 177.198693 -45.536364 
L 176.515981 -45.536364 
L 175.833268 -45.536364 
L 175.150556 -45.536364 
L 174.467843 -45.536364 
L 173.785131 -45.536364 
L 173.102419 -45.536364 
L 172.419706 -45.536364 
L 171.736994 -45.536364 
L 171.054281 -45.536364 
L 170.371569 -45.536364 
L 169.688857 -45.536364 
L 169.006144 -45.536364 
L 168.323432 -45.536364 
L 167.640719 -45.536364 
L 166.958007 -45.536364 
L 166.275294 -45.536364 
L 165.592582 -45.536364 
L 164.90987 -45.536364 
L 164.227157 -45.536364 
L 163.544445 -45.536364 
L 162.861732 -45.536364 
L 162.17902 -45.536364 
L 161.496307 -45.536364 
L 160.813595 -45.536364 
L 160.130883 -45.536364 
L 159.44817 -45.536364 
L 158.765458 -45.536364 
L 158.082745 -45.536364 
L 157.400033 -45.536364 
L 156.71732 -45.536364 
L 156.034608 -45.536364 
L 155.351896 -45.536364 
L 154.669183 -45.536364 
L 153.986471 -45.536364 
L 153.303758 -45.536364 
L 152.621046 -45.536364 
L 151.938334 -45.536364 
L 151.255621 -45.536364 
L 150.572909 -45.536364 
L 149.890196 -45.536364 
L 149.207484 -45.536364 
L 148.524771 -45.536364 
L 147.842059 -45.536364 
L 147.159347 -45.536364 
L 146.476634 -45.536364 
L 145.793922 -45.536364 
L 145.111209 -45.536364 
L 144.428497 -45.536364 
L 143.745784 -45.536364 
L 143.063072 -45.536364 
L 142.38036 -45.536364 
L 141.697647 -45.536364 
L 141.014935 -45.536364 
L 140.332222 -45.536364 
L 139.64951 -45.536364 
L 138.966797 -45.536364 
L 138.284085 -45.536364 
L 137.601373 -45.536364 
L 136.91866 -45.536364 
L 136.235948 -45.536364 
L 135.553235 -45.536364 
L 134.870523 -45.536364 
L 134.187811 -45.536364 
L 133.505098 -45.536364 
L 132.822386 -45.536364 
L 132.139673 -45.536364 
L 131.456961 -45.536364 
L 130.774248 -45.536364 
L 130.091536 -45.536364 
L 129.408824 -45.536364 
L 128.726111 -45.536364 
L 128.043399 -45.536364 
L 127.360686 -45.536364 
L 126.677974 -45.536364 
L 125.995261 -45.536364 
L 125.312549 -45.536364 
L 124.629837 -45.536364 
L 123.947124 -45.536364 
L 123.264412 -45.536364 
L 122.581699 -45.536364 
L 121.898987 -45.536364 
L 121.216274 -45.536364 
L 120.533562 -45.536364 
L 119.85085 -45.536364 
L 119.168137 -45.536364 
L 118.485425 -45.536364 
L 117.802712 -45.536364 
L 117.12 -45.536364 
L 116.437287 -45.536364 
L 115.754575 -45.536364 
L 115.071863 -45.536364 
L 114.38915 -45.536364 
L 113.706438 -45.536364 
L 113.023725 -45.536364 
L 112.341013 -45.536364 
L 111.658301 -45.536364 
L 110.975588 -45.536364 
L 110.292876 -45.536364 
L 109.610163 -45.536364 
L 108.927451 -45.536364 
L 108.244738 -45.536364 
L 107.562026 -45.536364 
L 106.879314 -45.536364 
L 106.196601 -45.536364 
L 105.513889 -45.536364 
L 104.831176 -45.536364 
L 104.148464 -45.536364 
L 103.465751 -45.536364 
L 102.783039 -45.536364 
L 102.100327 -45.536364 
L 101.417614 -45.536364 
L 100.734902 -45.536364 
L 100.052189 -45.536364 
L 99.369477 -45.536364 
L 98.686764 -45.536364 
L 98.004052 -45.536364 
L 97.32134 -45.536364 
L 96.638627 -45.536364 
L 95.955915 -45.536364 
L 95.273202 -45.536364 
L 94.59049 -45.536364 
L 93.907778 -45.536364 
L 93.225065 -45.536364 
L 92.542353 -45.536364 
L 91.85964 -45.536364 
L 91.176928 -45.536364 
L 90.494215 -45.536364 
L 89.811503 -45.536364 
L 89.128791 -45.536364 
L 88.446078 -45.536364 
L 87.763366 -45.536364 
L 87.080653 -45.536364 
L 86.397941 -45.536364 
L 85.715228 -45.536364 
L 85.032516 -45.536364 
L 84.349804 -45.536364 
L 83.667091 -45.536364 
L 82.984379 -45.536364 
L 82.301666 -45.536364 
L 81.618954 -45.536364 
L 80.936241 -45.536364 
L 80.253529 -45.536364 
L 79.570817 -45.536364 
L 78.888104 -45.536364 
L 78.205392 -45.536364 
L 77.522679 -45.536364 
L 76.839967 -45.536364 
L 76.157255 -45.536364 
L 75.474542 -45.536364 
L 74.79183 -45.536364 
L 74.109117 -45.536364 
L 73.426405 -45.536364 
L 72.743692 -45.536364 
L 72.06098 -45.536364 
L 71.378268 -45.536364 
L 70.695555 -45.536364 
L 70.012843 -45.536364 
L 69.33013 -45.536364 
L 68.647418 -45.536364 
L 67.964705 -45.536364 
L 67.281993 -45.536364 
L 66.599281 -45.536364 
L 65.916568 -45.536364 
L 65.233856 -45.536364 
L 64.551143 -45.536364 
L 63.868431 -45.536364 
L 63.185718 -45.536364 
L 62.503006 -45.536364 
L 61.820294 -45.536364 
L 61.137581 -45.536364 
L 60.454869 -45.536364 
L 59.772156 -45.536364 
L 59.089444 -45.536364 
L 58.406732 -45.536364 
L 57.724019 -45.536364 
z
" style="stroke: #4c78a8; stroke-opacity: 0.15"/>
    </defs>
    <g clip-path="url(#p5548df52af)">
     <use xlink:href="#ma1d1418509" x="0" y="223.158281" style="fill: #4c78a8; fill-opacity: 0.15; stroke: #4c78a8; stroke-opacity: 0.15"/>
    </g>
   </g>
   <g id="matplotlib.axis_1">
    <g id="xtick_1">
     <g id="line2d_1">
      <path d="M 51.347765 184.958281 
L 51.347765 23.558281 
" clip-path="url(#p5548df52af)" style="fill: none; stroke: #b0b0b0; stroke-opacity: 0.25; stroke-width: 0.6; stroke-linecap: square"/>
     </g>
     <g id="line2d_2">
      <defs>
       <path id="m46b9734f9d" d="M 0 0 
L 0 3.5 
" style="stroke: #000000; stroke-width: 0.8"/>
      </defs>
      <g>
       <use xlink:href="#m46b9734f9d" x="51.347765" y="184.958281" style="stroke: #000000; stroke-width: 0.8"/>
      </g>
     </g>
     <g id="text_1">
      <!-- 0.0 -->
      <g transform="translate(43.396202 199.555938) scale(0.1 -0.1)">
       <defs>
        <path id="DejaVuSans-13" d="M 2034 4250 
Q 1547 4250 1301 3770 
Q 1056 3291 1056 2328 
Q 1056 1369 1301 889 
Q 1547 409 2034 409 
Q 2525 409 2770 889 
Q 3016 1369 3016 2328 
Q 3016 3291 2770 3770 
Q 2525 4250 2034 4250 
z
M 2034 4750 
Q 2819 4750 3233 4129 
Q 3647 3509 3647 2328 
Q 3647 1150 3233 529 
Q 2819 -91 2034 -91 
Q 1250 -91 836 529 
Q 422 1150 422 2328 
Q 422 3509 836 4129 
Q 1250 4750 2034 4750 
z
" transform="scale(0.015625)"/>
        <path id="DejaVuSans-11" d="M 684 794 
L 1344 794 
L 1344 0 
L 684 0 
L 684 794 
z
" transform="scale(0.015625)"/>
       </defs>
       <use xlink:href="#DejaVuSans-13"/>
       <use xlink:href="#DejaVuSans-11" transform="translate(63.625 0)"/>
       <use xlink:href="#DejaVuSans-13" transform="translate(95.40625 0)"/>
      </g>
     </g>
    </g>
    <g id="xtick_2">
     <g id="line2d_3">
      <path d="M 108.378718 184.958281 
L 108.378718 23.558281 
" clip-path="url(#p5548df52af)" style="fill: none; stroke: #b0b0b0; stroke-opacity: 0.25; stroke-width: 0.6; stroke-linecap: square"/>
     </g>
     <g id="line2d_4">
      <g>
       <use xlink:href="#m46b9734f9d" x="108.378718" y="184.958281" style="stroke: #000000; stroke-width: 0.8"/>
      </g>
     </g>
     <g id="text_2">
      <!-- 0.2 -->
      <g transform="translate(100.427155 199.555938) scale(0.1 -0.1)">
       <defs>
        <path id="DejaVuSans-15" d="M 1228 531 
L 3431 531 
L 3431 0 
L 469 0 
L 469 531 
Q 828 903 1448 1529 
Q 2069 2156 2228 2338 
Q 2531 2678 2651 2914 
Q 2772 3150 2772 3378 
Q 2772 3750 2511 3984 
Q 2250 4219 1831 4219 
Q 1534 4219 1204 4116 
Q 875 4013 500 3803 
L 500 4441 
Q 881 4594 1212 4672 
Q 1544 4750 1819 4750 
Q 2544 4750 2975 4387 
Q 3406 4025 3406 3419 
Q 3406 3131 3298 2873 
Q 3191 2616 2906 2266 
Q 2828 2175 2409 1742 
Q 1991 1309 1228 531 
z
" transform="scale(0.015625)"/>
       </defs>
       <use xlink:href="#DejaVuSans-13"/>
       <use xlink:href="#DejaVuSans-11" transform="translate(63.625 0)"/>
       <use xlink:href="#DejaVuSans-15" transform="translate(95.40625 0)"/>
      </g>
     </g>
    </g>
    <g id="xtick_3">
     <g id="line2d_5">
      <path d="M 165.409671 184.958281 
L 165.409671 23.558281 
" clip-path="url(#p5548df52af)" style="fill: none; stroke: #b0b0b0; stroke-opacity: 0.25; stroke-width: 0.6; stroke-linecap: square"/>
     </g>
     <g id="line2d_6">
      <g>
       <use xlink:href="#m46b9734f9d" x="165.409671" y="184.958281" style="stroke: #000000; stroke-width: 0.8"/>
      </g>
     </g>
     <g id="text_3">
      <!-- 0.4 -->
      <g transform="translate(157.458108 199.555938) scale(0.1 -0.1)">
       <defs>
        <path id="DejaVuSans-17" d="M 2419 4116 
L 825 1625 
L 2419 1625 
L 2419 4116 
z
M 2253 4666 
L 3047 4666 
L 3047 1625 
L 3713 1625 
L 3713 1100 
L 3047 1100 
L 3047 0 
L 2419 0 
L 2419 1100 
L 313 1100 
L 313 1709 
L 2253 4666 
z
" transform="scale(0.015625)"/>
       </defs>
       <use xlink:href="#DejaVuSans-13"/>
       <use xlink:href="#DejaVuSans-11" transform="translate(63.625 0)"/>
       <use xlink:href="#DejaVuSans-17" transform="translate(95.40625 0)"/>
      </g>
     </g>
    </g>
    <g id="xtick_4">
     <g id="line2d_7">
      <path d="M 222.440624 184.958281 
L 222.440624 23.558281 
" clip-path="url(#p5548df52af)" style="fill: none; stroke: #b0b0b0; stroke-opacity: 0.25; stroke-width: 0.6; stroke-linecap: square"/>
     </g>
     <g id="line2d_8">
      <g>
       <use xlink:href="#m46b9734f9d" x="222.440624" y="184.958281" style="stroke: #000000; stroke-width: 0.8"/>
      </g>
     </g>
     <g id="text_4">
      <!-- 0.6 -->
      <g transform="translate(214.489062 199.555938) scale(0.1 -0.1)">
       <defs>
        <path id="DejaVuSans-19" d="M 2113 2584 
Q 1688 2584 1439 2293 
Q 1191 2003 1191 1497 
Q 1191 994 1439 701 
Q 1688 409 2113 409 
Q 2538 409 2786 701 
Q 3034 994 3034 1497 
Q 3034 2003 2786 2293 
Q 2538 2584 2113 2584 
z
M 3366 4563 
L 3366 3988 
Q 3128 4100 2886 4159 
Q 2644 4219 2406 4219 
Q 1781 4219 1451 3797 
Q 1122 3375 1075 2522 
Q 1259 2794 1537 2939 
Q 1816 3084 2150 3084 
Q 2853 3084 3261 2657 
Q 3669 2231 3669 1497 
Q 3669 778 3244 343 
Q 2819 -91 2113 -91 
Q 1303 -91 875 529 
Q 447 1150 447 2328 
Q 447 3434 972 4092 
Q 1497 4750 2381 4750 
Q 2619 4750 2861 4703 
Q 3103 4656 3366 4563 
z
" transform="scale(0.015625)"/>
       </defs>
       <use xlink:href="#DejaVuSans-13"/>
       <use xlink:href="#DejaVuSans-11" transform="translate(63.625 0)"/>
       <use xlink:href="#DejaVuSans-19" transform="translate(95.40625 0)"/>
      </g>
     </g>
    </g>
    <g id="xtick_5">
     <g id="line2d_9">
      <path d="M 279.471577 184.958281 
L 279.471577 23.558281 
" clip-path="url(#p5548df52af)" style="fill: none; stroke: #b0b0b0; stroke-opacity: 0.25; stroke-width: 0.6; stroke-linecap: square"/>
     </g>
     <g id="line2d_10">
      <g>
       <use xlink:href="#m46b9734f9d" x="279.471577" y="184.958281" style="stroke: #000000; stroke-width: 0.8"/>
      </g>
     </g>
     <g id="text_5">
      <!-- 0.8 -->
      <g transform="translate(271.520015 199.555938) scale(0.1 -0.1)">
       <defs>
        <path id="DejaVuSans-1b" d="M 2034 2216 
Q 1584 2216 1326 1975 
Q 1069 1734 1069 1313 
Q 1069 891 1326 650 
Q 1584 409 2034 409 
Q 2484 409 2743 651 
Q 3003 894 3003 1313 
Q 3003 1734 2745 1975 
Q 2488 2216 2034 2216 
z
M 1403 2484 
Q 997 2584 770 2862 
Q 544 3141 544 3541 
Q 544 4100 942 4425 
Q 1341 4750 2034 4750 
Q 2731 4750 3128 4425 
Q 3525 4100 3525 3541 
Q 3525 3141 3298 2862 
Q 3072 2584 2669 2484 
Q 3125 2378 3379 2068 
Q 3634 1759 3634 1313 
Q 3634 634 3220 271 
Q 2806 -91 2034 -91 
Q 1263 -91 848 271 
Q 434 634 434 1313 
Q 434 1759 690 2068 
Q 947 2378 1403 2484 
z
M 1172 3481 
Q 1172 3119 1398 2916 
Q 1625 2713 2034 2713 
Q 2441 2713 2670 2916 
Q 2900 3119 2900 3481 
Q 2900 3844 2670 4047 
Q 2441 4250 2034 4250 
Q 1625 4250 1398 4047 
Q 1172 3844 1172 3481 
z
" transform="scale(0.015625)"/>
       </defs>
       <use xlink:href="#DejaVuSans-13"/>
       <use xlink:href="#DejaVuSans-11" transform="translate(63.625 0)"/>
       <use xlink:href="#DejaVuSans-1b" transform="translate(95.40625 0)"/>
      </g>
     </g>
    </g>
    <g id="xtick_6">
     <g id="line2d_11">
      <path d="M 336.50253 184.958281 
L 336.50253 23.558281 
" clip-path="url(#p5548df52af)" style="fill: none; stroke: #b0b0b0; stroke-opacity: 0.25; stroke-width: 0.6; stroke-linecap: square"/>
     </g>
     <g id="line2d_12">
      <g>
       <use xlink:href="#m46b9734f9d" x="336.50253" y="184.958281" style="stroke: #000000; stroke-width: 0.8"/>
      </g>
     </g>
     <g id="text_6">
      <!-- 1.0 -->
      <g transform="translate(328.550968 199.555938) scale(0.1 -0.1)">
       <defs>
        <path id="DejaVuSans-14" d="M 794 531 
L 1825 531 
L 1825 4091 
L 703 3866 
L 703 4441 
L 1819 4666 
L 2450 4666 
L 2450 531 
L 3481 531 
L 3481 0 
L 794 0 
L 794 531 
z
" transform="scale(0.015625)"/>
       </defs>
       <use xlink:href="#DejaVuSans-14"/>
       <use xlink:href="#DejaVuSans-11" transform="translate(63.625 0)"/>
       <use xlink:href="#DejaVuSans-13" transform="translate(95.40625 0)"/>
      </g>
     </g>
    </g>
    <g id="text_7">
     <!-- x -->
     <g transform="translate(190.965773 213.555938) scale(0.1 -0.1)">
      <defs>
       <path id="DejaVuSans-5b" d="M 3513 3500 
L 2247 1797 
L 3578 0 
L 2900 0 
L 1881 1375 
L 863 0 
L 184 0 
L 1544 1831 
L 300 3500 
L 978 3500 
L 1906 2253 
L 2834 3500 
L 3513 3500 
z
" transform="scale(0.015625)"/>
      </defs>
      <use xlink:href="#DejaVuSans-5b"/>
     </g>
    </g>
   </g>
   <g id="matplotlib.axis_2">
    <g id="ytick_1">
     <g id="line2d_13">
      <path d="M 44.103906 177.621918 
L 343.746389 177.621918 
" clip-path="url(#p5548df52af)" style="fill: none; stroke: #b0b0b0; stroke-opacity: 0.25; stroke-width: 0.6; stroke-linecap: square"/>
     </g>
     <g id="line2d_14">
      <defs>
       <path id="m40b9bf0a61" d="M 0 0 
L -3.5 0 
" style="stroke: #000000; stroke-width: 0.8"/>
      </defs>
      <g>
       <use xlink:href="#m40b9bf0a61" x="44.103906" y="177.621918" style="stroke: #000000; stroke-width: 0.8"/>
      </g>
     </g>
     <g id="text_8">
      <!-- 0.0 -->
      <g transform="translate(21.200781 181.420746) scale(0.1 -0.1)">
       <use xlink:href="#DejaVuSans-13"/>
       <use xlink:href="#DejaVuSans-11" transform="translate(63.625 0)"/>
       <use xlink:href="#DejaVuSans-13" transform="translate(95.40625 0)"/>
      </g>
     </g>
    </g>
    <g id="ytick_2">
     <g id="line2d_15">
      <path d="M 44.103906 140.852066 
L 343.746389 140.852066 
" clip-path="url(#p5548df52af)" style="fill: none; stroke: #b0b0b0; stroke-opacity: 0.25; stroke-width: 0.6; stroke-linecap: square"/>
     </g>
     <g id="line2d_16">
      <g>
       <use xlink:href="#m40b9bf0a61" x="44.103906" y="140.852066" style="stroke: #000000; stroke-width: 0.8"/>
      </g>
     </g>
     <g id="text_9">
      <!-- 0.5 -->
      <g transform="translate(21.200781 144.650894) scale(0.1 -0.1)">
       <defs>
        <path id="DejaVuSans-18" d="M 691 4666 
L 3169 4666 
L 3169 4134 
L 1269 4134 
L 1269 2991 
Q 1406 3038 1543 3061 
Q 1681 3084 1819 3084 
Q 2600 3084 3056 2656 
Q 3513 2228 3513 1497 
Q 3513 744 3044 326 
Q 2575 -91 1722 -91 
Q 1428 -91 1123 -41 
Q 819 9 494 109 
L 494 744 
Q 775 591 1075 516 
Q 1375 441 1709 441 
Q 2250 441 2565 725 
Q 2881 1009 2881 1497 
Q 2881 1984 2565 2268 
Q 2250 2553 1709 2553 
Q 1456 2553 1204 2497 
Q 953 2441 691 2322 
L 691 4666 
z
" transform="scale(0.015625)"/>
       </defs>
       <use xlink:href="#DejaVuSans-13"/>
       <use xlink:href="#DejaVuSans-11" transform="translate(63.625 0)"/>
       <use xlink:href="#DejaVuSans-18" transform="translate(95.40625 0)"/>
      </g>
     </g>
    </g>
    <g id="ytick_3">
     <g id="line2d_17">
      <path d="M 44.103906 104.082214 
L 343.746389 104.082214 
" clip-path="url(#p5548df52af)" style="fill: none; stroke: #b0b0b0; stroke-opacity: 0.25; stroke-width: 0.6; stroke-linecap: square"/>
     </g>
     <g id="line2d_18">
      <g>
       <use xlink:href="#m40b9bf0a61" x="44.103906" y="104.082214" style="stroke: #000000; stroke-width: 0.8"/>
      </g>
     </g>
     <g id="text_10">
      <!-- 1.0 -->
      <g transform="translate(21.200781 107.881042) scale(0.1 -0.1)">
       <use xlink:href="#DejaVuSans-14"/>
       <use xlink:href="#DejaVuSans-11" transform="translate(63.625 0)"/>
       <use xlink:href="#DejaVuSans-13" transform="translate(95.40625 0)"/>
      </g>
     </g>
    </g>
    <g id="ytick_4">
     <g id="line2d_19">
      <path d="M 44.103906 67.312362 
L 343.746389 67.312362 
" clip-path="url(#p5548df52af)" style="fill: none; stroke: #b0b0b0; stroke-opacity: 0.25; stroke-width: 0.6; stroke-linecap: square"/>
     </g>
     <g id="line2d_20">
      <g>
       <use xlink:href="#m40b9bf0a61" x="44.103906" y="67.312362" style="stroke: #000000; stroke-width: 0.8"/>
      </g>
     </g>
     <g id="text_11">
      <!-- 1.5 -->
      <g transform="translate(21.200781 71.11119) scale(0.1 -0.1)">
       <use xlink:href="#DejaVuSans-14"/>
       <use xlink:href="#DejaVuSans-11" transform="translate(63.625 0)"/>
       <use xlink:href="#DejaVuSans-18" transform="translate(95.40625 0)"/>
      </g>
     </g>
    </g>
    <g id="ytick_5">
     <g id="line2d_21">
      <path d="M 44.103906 30.54251 
L 343.746389 30.54251 
" clip-path="url(#p5548df52af)" style="fill: none; stroke: #b0b0b0; stroke-opacity: 0.25; stroke-width: 0.6; stroke-linecap: square"/>
     </g>
     <g id="line2d_22">
      <g>
       <use xlink:href="#m40b9bf0a61" x="44.103906" y="30.54251" style="stroke: #000000; stroke-width: 0.8"/>
      </g>
     </g>
     <g id="text_12">
      <!-- 2.0 -->
      <g transform="translate(21.200781 34.341338) scale(0.1 -0.1)">
       <use xlink:href="#DejaVuSans-15"/>
       <use xlink:href="#DejaVuSans-11" transform="translate(63.625 0)"/>
       <use xlink:href="#DejaVuSans-13" transform="translate(95.40625 0)"/>
      </g>
     </g>
    </g>
    <g id="text_13">
     <!-- f(x) -->
     <g transform="translate(14.798438 112.879375) rotate(-90) scale(0.1 -0.1)">
      <defs>
       <path id="DejaVuSans-49" d="M 2375 4863 
L 2375 4384 
L 1825 4384 
Q 1516 4384 1395 4259 
Q 1275 4134 1275 3809 
L 1275 3500 
L 2222 3500 
L 2222 3053 
L 1275 3053 
L 1275 0 
L 697 0 
L 697 3053 
L 147 3053 
L 147 3500 
L 697 3500 
L 697 3744 
Q 697 4328 969 4595 
Q 1241 4863 1831 4863 
L 2375 4863 
z
" transform="scale(0.015625)"/>
       <path id="DejaVuSans-b" d="M 1984 4856 
Q 1566 4138 1362 3434 
Q 1159 2731 1159 2009 
Q 1159 1288 1364 580 
Q 1569 -128 1984 -844 
L 1484 -844 
Q 1016 -109 783 600 
Q 550 1309 550 2009 
Q 550 2706 781 3412 
Q 1013 4119 1484 4856 
L 1984 4856 
z
" transform="scale(0.015625)"/>
       <path id="DejaVuSans-c" d="M 513 4856 
L 1013 4856 
Q 1481 4119 1714 3412 
Q 1947 2706 1947 2009 
Q 1947 1309 1714 600 
Q 1481 -109 1013 -844 
L 513 -844 
Q 928 -128 1133 580 
Q 1338 1288 1338 2009 
Q 1338 2731 1133 3434 
Q 928 4138 513 4856 
z
" transform="scale(0.015625)"/>
      </defs>
      <use xlink:href="#DejaVuSans-49"/>
      <use xlink:href="#DejaVuSans-b" transform="translate(35.203125 0)"/>
      <use xlink:href="#DejaVuSans-5b" transform="translate(74.21875 0)"/>
      <use xlink:href="#DejaVuSans-c" transform="translate(133.40625 0)"/>
     </g>
    </g>
   </g>
   <g id="line2d_23">
    <path d="M 57.724019 171.044327 
L 193.583791 30.894645 
L 194.266504 30.894645 
L 330.126276 171.044327 
L 330.126276 171.044327 
" clip-path="url(#p5548df52af)" style="fill: none; stroke: #4c78a8; stroke-width: 2; stroke-linecap: square"/>
   </g>
   <g id="patch_3">
    <path d="M 44.103906 184.958281 
L 44.103906 23.558281 
" style="fill: none; stroke: #000000; stroke-width: 0.8; stroke-linejoin: miter; stroke-linecap: square"/>
   </g>
   <g id="patch_4">
    <path d="M 44.103906 184.958281 
L 343.746389 184.958281 
" style="fill: none; stroke: #000000; stroke-width: 0.8; stroke-linejoin: miter; stroke-linecap: square"/>
   </g>
   <g id="text_14">
    <!-- Triangular -->
    <g transform="translate(166.592726 15.558281) scale(0.11 -0.11)">
     <defs>
      <path id="DejaVuSans-37" d="M -19 4666 
L 3928 4666 
L 3928 4134 
L 2272 4134 
L 2272 0 
L 1638 0 
L 1638 4134 
L -19 4134 
L -19 4666 
z
" transform="scale(0.015625)"/>
      <path id="DejaVuSans-55" d="M 2631 2963 
Q 2534 3019 2420 3045 
Q 2306 3072 2169 3072 
Q 1681 3072 1420 2755 
Q 1159 2438 1159 1844 
L 1159 0 
L 581 0 
L 581 3500 
L 1159 3500 
L 1159 2956 
Q 1341 3275 1631 3429 
Q 1922 3584 2338 3584 
Q 2397 3584 2469 3576 
Q 2541 3569 2628 3553 
L 2631 2963 
z
" transform="scale(0.015625)"/>
      <path id="DejaVuSans-4c" d="M 603 3500 
L 1178 3500 
L 1178 0 
L 603 0 
L 603 3500 
z
M 603 4863 
L 1178 4863 
L 1178 4134 
L 603 4134 
L 603 4863 
z
" transform="scale(0.015625)"/>
      <path id="DejaVuSans-44" d="M 2194 1759 
Q 1497 1759 1228 1600 
Q 959 1441 959 1056 
Q 959 750 1161 570 
Q 1363 391 1709 391 
Q 2188 391 2477 730 
Q 2766 1069 2766 1631 
L 2766 1759 
L 2194 1759 
z
M 3341 1997 
L 3341 0 
L 2766 0 
L 2766 531 
Q 2569 213 2275 61 
Q 1981 -91 1556 -91 
Q 1019 -91 701 211 
Q 384 513 384 1019 
Q 384 1609 779 1909 
Q 1175 2209 1959 2209 
L 2766 2209 
L 2766 2266 
Q 2766 2663 2505 2880 
Q 2244 3097 1772 3097 
Q 1472 3097 1187 3025 
Q 903 2953 641 2809 
L 641 3341 
Q 956 3463 1253 3523 
Q 1550 3584 1831 3584 
Q 2591 3584 2966 3190 
Q 3341 2797 3341 1997 
z
" transform="scale(0.015625)"/>
      <path id="DejaVuSans-51" d="M 3513 2113 
L 3513 0 
L 2938 0 
L 2938 2094 
Q 2938 2591 2744 2837 
Q 2550 3084 2163 3084 
Q 1697 3084 1428 2787 
Q 1159 2491 1159 1978 
L 1159 0 
L 581 0 
L 581 3500 
L 1159 3500 
L 1159 2956 
Q 1366 3272 1645 3428 
Q 1925 3584 2291 3584 
Q 2894 3584 3203 3211 
Q 3513 2838 3513 2113 
z
" transform="scale(0.015625)"/>
      <path id="DejaVuSans-4a" d="M 2906 1791 
Q 2906 2416 2648 2759 
Q 2391 3103 1925 3103 
Q 1463 3103 1205 2759 
Q 947 2416 947 1791 
Q 947 1169 1205 825 
Q 1463 481 1925 481 
Q 2391 481 2648 825 
Q 2906 1169 2906 1791 
z
M 3481 434 
Q 3481 -459 3084 -895 
Q 2688 -1331 1869 -1331 
Q 1566 -1331 1297 -1286 
Q 1028 -1241 775 -1147 
L 775 -588 
Q 1028 -725 1275 -790 
Q 1522 -856 1778 -856 
Q 2344 -856 2625 -561 
Q 2906 -266 2906 331 
L 2906 616 
Q 2728 306 2450 153 
Q 2172 0 1784 0 
Q 1141 0 747 490 
Q 353 981 353 1791 
Q 353 2603 747 3093 
Q 1141 3584 1784 3584 
Q 2172 3584 2450 3431 
Q 2728 3278 2906 2969 
L 2906 3500 
L 3481 3500 
L 3481 434 
z
" transform="scale(0.015625)"/>
      <path id="DejaVuSans-58" d="M 544 1381 
L 544 3500 
L 1119 3500 
L 1119 1403 
Q 1119 906 1312 657 
Q 1506 409 1894 409 
Q 2359 409 2629 706 
Q 2900 1003 2900 1516 
L 2900 3500 
L 3475 3500 
L 3475 0 
L 2900 0 
L 2900 538 
Q 2691 219 2414 64 
Q 2138 -91 1772 -91 
Q 1169 -91 856 284 
Q 544 659 544 1381 
z
M 1991 3584 
L 1991 3584 
z
" transform="scale(0.015625)"/>
      <path id="DejaVuSans-4f" d="M 603 4863 
L 1178 4863 
L 1178 0 
L 603 0 
L 603 4863 
z
" transform="scale(0.015625)"/>
     </defs>
     <use xlink:href="#DejaVuSans-37"/>
     <use xlink:href="#DejaVuSans-55" transform="translate(46.375 0)"/>
     <use xlink:href="#DejaVuSans-4c" transform="translate(87.484375 0)"/>
     <use xlink:href="#DejaVuSans-44" transform="translate(115.265625 0)"/>
     <use xlink:href="#DejaVuSans-51" transform="translate(176.546875 0)"/>
     <use xlink:href="#DejaVuSans-4a" transform="translate(239.921875 0)"/>
     <use xlink:href="#DejaVuSans-58" transform="translate(303.40625 0)"/>
     <use xlink:href="#DejaVuSans-4f" transform="translate(366.78125 0)"/>
     <use xlink:href="#DejaVuSans-44" transform="translate(394.5625 0)"/>
     <use xlink:href="#DejaVuSans-55" transform="translate(455.84375 0)"/>
    </g>
   </g>
  </g>
 </g>
 <defs>
  <clipPath id="p5548df52af">
   <rect x="44.103906" y="23.558281" width="299.642483" height="161.4"/>
  </clipPath>
 </defs>
</svg>
