<?xml version="1.0" encoding="utf-8" standalone="no"?>
<!DOCTYPE svg PUBLIC "-//W3C//DTD SVG 1.1//EN"
  "http://www.w3.org/Graphics/SVG/1.1/DTD/svg11.dtd">
<svg xmlns:xlink="http://www.w3.org/1999/xlink" width="352.301562pt" height="223.158281pt" viewBox="0 0 352.301562 223.158281" xmlns="http://www.w3.org/2000/svg" version="1.1">
 <metadata>
  <rdf:RDF xmlns:dc="http://purl.org/dc/elements/1.1/" xmlns:cc="http://creativecommons.org/ns#" xmlns:rdf="http://www.w3.org/1999/02/22-rdf-syntax-ns#">
   <cc:Work>
    <dc:type rdf:resource="http://purl.org/dc/dcmitype/StillImage"/>
    <dc:date>2026-07-05T02:24:32.428202</dc:date>
    <dc:format>image/svg+xml</dc:format>
    <dc:creator>
     <cc:Agent>
      <dc:title>Matplotlib v3.11.0, https://matplotlib.org/</dc:title>
     </cc:Agent>
    </dc:creator>
   </cc:Work>
  </rdf:RDF>
 </metadata>
 <defs>
  <style type="text/css">*{stroke-linejoin: round; stroke-linecap: butt}</style>
 </defs>
 <g id="figure_1">
  <g id="patch_1">
   <path d="M 0 223.158281 
L 352.301562 223.158281 
L 352.301562 0 
L 0 0 
z
" style="fill: #ffffff"/>
  </g>
  <g id="axes_1">
   <g id="patch_2">
    <path d="M 44.103906 184.958281 
L 345.101562 184.958281 
L 345.101562 23.558281 
L 44.103906 23.558281 
z
" style="fill: #ffffff"/>
   </g>
   <g id="FillBetweenPolyCollection_1">
    <defs>
     <path id="ma806a8eedb" d="M 57.785618 -45.536364 
L 57.785618 -48.253942 
L 58.471418 -48.263289 
L 59.157218 -48.273927 
L 59.843018 -48.285868 
L 60.528818 -48.299126 
L 61.214618 -48.313717 
L 61.900418 -48.329657 
L 62.586218 -48.346965 
L 63.272019 -48.365661 
L 63.957819 -48.385767 
L 64.643619 -48.407306 
L 65.329419 -48.430305 
L 66.015219 -48.454789 
L 66.701019 -48.480788 
L 67.386819 -48.508332 
L 68.072619 -48.537453 
L 68.758419 -48.568187 
L 69.444219 -48.600568 
L 70.130019 -48.634637 
L 70.815819 -48.670432 
L 71.50162 -48.707997 
L 72.18742 -48.747376 
L 72.87322 -48.788617 
L 73.55902 -48.831767 
L 74.24482 -48.876879 
L 74.93062 -48.924008 
L 75.61642 -48.973208 
L 76.30222 -49.02454 
L 76.98802 -49.078065 
L 77.67382 -49.133848 
L 78.35962 -49.191955 
L 79.04542 -49.252457 
L 79.731221 -49.315427 
L 80.417021 -49.380941 
L 81.102821 -49.449079 
L 81.788621 -49.519922 
L 82.474421 -49.593558 
L 83.160221 -49.670075 
L 83.846021 -49.749566 
L 84.531821 -49.832128 
L 85.217621 -49.917862 
L 85.903421 -50.00687 
L 86.589221 -50.099263 
L 87.275021 -50.195152 
L 87.960822 -50.294653 
L 88.646622 -50.397888 
L 89.332422 -50.504982 
L 90.018222 -50.616065 
L 90.704022 -50.731272 
L 91.389822 -50.850741 
L 92.075622 -50.974618 
L 92.761422 -51.103053 
L 93.447222 -51.236199 
L 94.133022 -51.374217 
L 94.818822 -51.517273 
L 95.504622 -51.665538 
L 96.190423 -51.819189 
L 96.876223 -51.978409 
L 97.562023 -52.143385 
L 98.247823 -52.314315 
L 98.933623 -52.491397 
L 99.619423 -52.674841 
L 100.305223 -52.864859 
L 100.991023 -53.061673 
L 101.676823 -53.265509 
L 102.362623 -53.476602 
L 103.048423 -53.695192 
L 103.734223 -53.921527 
L 104.420024 -54.155861 
L 105.105824 -54.398458 
L 105.791624 -54.649585 
L 106.477424 -54.909519 
L 107.163224 -55.178544 
L 107.849024 -55.45695 
L 108.534824 -55.745035 
L 109.220624 -56.043106 
L 109.906424 -56.351473 
L 110.592224 -56.670459 
L 111.278024 -57.000388 
L 111.963824 -57.341597 
L 112.649625 -57.694425 
L 113.335425 -58.059222 
L 114.021225 -58.436341 
L 114.707025 -58.826145 
L 115.392825 -59.229002 
L 116.078625 -59.645285 
L 116.764425 -60.075376 
L 117.450225 -60.519659 
L 118.136025 -60.978525 
L 118.821825 -61.452372 
L 119.507625 -61.9416 
L 120.193425 -62.446614 
L 120.879225 -62.967823 
L 121.565026 -63.505639 
L 122.250826 -64.060477 
L 122.936626 -64.632755 
L 123.622426 -65.222891 
L 124.308226 -65.831305 
L 124.994026 -66.458417 
L 125.679826 -67.104645 
L 126.365626 -67.770409 
L 127.051426 -68.456124 
L 127.737226 -69.162202 
L 128.423026 -69.889052 
L 129.108826 -70.637078 
L 129.794627 -71.406676 
L 130.480427 -72.198238 
L 131.166227 -73.012144 
L 131.852027 -73.848768 
L 132.537827 -74.70847 
L 133.223627 -75.591599 
L 133.909427 -76.498492 
L 134.595227 -77.429468 
L 135.281027 -78.384833 
L 135.966827 -79.364873 
L 136.652627 -80.369854 
L 137.338427 -81.400024 
L 138.024228 -82.455606 
L 138.710028 -83.536798 
L 139.395828 -84.643776 
L 140.081628 -85.776684 
L 140.767428 -86.935638 
L 141.453228 -88.120726 
L 142.139028 -89.331999 
L 142.824828 -90.569476 
L 143.510628 -91.833139 
L 144.196428 -93.122931 
L 144.882228 -94.438756 
L 145.568028 -95.780477 
L 146.253829 -97.147914 
L 146.939629 -98.54084 
L 147.625429 -99.958983 
L 148.311229 -101.402023 
L 148.997029 -102.86959 
L 149.682829 -104.361262 
L 150.368629 -105.876566 
L 151.054429 -107.414974 
L 151.740229 -108.975902 
L 152.426029 -110.558713 
L 153.111829 -112.16271 
L 153.797629 -113.787138 
L 154.48343 -115.431183 
L 155.16923 -117.093972 
L 155.85503 -118.774571 
L 156.54083 -120.471987 
L 157.22663 -122.185165 
L 157.91243 -123.912989 
L 158.59823 -125.654282 
L 159.28403 -127.407808 
L 159.96983 -129.172269 
L 160.65563 -130.94631 
L 161.34143 -132.728516 
L 162.02723 -134.517415 
L 162.713031 -136.311479 
L 163.398831 -138.109125 
L 164.084631 -139.908718 
L 164.770431 -141.708572 
L 165.456231 -143.506951 
L 166.142031 -145.302073 
L 166.827831 -147.092113 
L 167.513631 -148.875204 
L 168.199431 -150.64944 
L 168.885231 -152.412881 
L 169.571031 -154.163554 
L 170.256831 -155.899461 
L 170.942632 -157.618575 
L 171.628432 -159.318853 
L 172.314232 -160.998232 
L 173.000032 -162.65464 
L 173.685832 -164.285994 
L 174.371632 -165.89021 
L 175.057432 -167.465205 
L 175.743232 -169.008901 
L 176.429032 -170.519234 
L 177.114832 -171.994152 
L 177.800632 -173.431626 
L 178.486432 -174.829653 
L 179.172233 -176.18626 
L 179.858033 -177.499509 
L 180.543833 -178.767506 
L 181.229633 -179.988401 
L 181.915433 -181.160393 
L 182.601233 -182.281739 
L 183.287033 -183.350755 
L 183.972833 -184.365824 
L 184.658633 -185.325396 
L 185.344433 -186.227996 
L 186.030233 -187.072226 
L 186.716033 -187.856772 
L 187.401834 -188.580404 
L 188.087634 -189.241982 
L 188.773434 -189.840459 
L 189.459234 -190.374881 
L 190.145034 -190.844397 
L 190.830834 -191.248253 
L 191.516634 -191.5858 
L 192.202434 -191.856495 
L 192.888234 -192.059901 
L 193.574034 -192.195688 
L 194.259834 -192.263636 
L 194.945634 -192.263636 
L 195.631434 -192.195688 
L 196.317235 -192.059901 
L 197.003035 -191.856495 
L 197.688835 -191.5858 
L 198.374635 -191.248253 
L 199.060435 -190.844397 
L 199.746235 -190.374881 
L 200.432035 -189.840459 
L 201.117835 -189.241982 
L 201.803635 -188.580404 
L 202.489435 -187.856772 
L 203.175235 -187.072226 
L 203.861035 -186.227996 
L 204.546836 -185.325396 
L 205.232636 -184.365824 
L 205.918436 -183.350755 
L 206.604236 -182.281739 
L 207.290036 -181.160393 
L 207.975836 -179.988401 
L 208.661636 -178.767506 
L 209.347436 -177.499509 
L 210.033236 -176.18626 
L 210.719036 -174.829653 
L 211.404836 -173.431626 
L 212.090636 -171.994152 
L 212.776437 -170.519234 
L 213.462237 -169.008901 
L 214.148037 -167.465205 
L 214.833837 -165.89021 
L 215.519637 -164.285994 
L 216.205437 -162.65464 
L 216.891237 -160.998232 
L 217.577037 -159.318853 
L 218.262837 -157.618575 
L 218.948637 -155.899461 
L 219.634437 -154.163554 
L 220.320237 -152.412881 
L 221.006038 -150.64944 
L 221.691838 -148.875204 
L 222.377638 -147.092113 
L 223.063438 -145.302073 
L 223.749238 -143.506951 
L 224.435038 -141.708572 
L 225.120838 -139.908718 
L 225.806638 -138.109125 
L 226.492438 -136.311479 
L 227.178238 -134.517415 
L 227.864038 -132.728516 
L 228.549838 -130.94631 
L 229.235639 -129.172269 
L 229.921439 -127.407808 
L 230.607239 -125.654282 
L 231.293039 -123.912989 
L 231.978839 -122.185165 
L 232.664639 -120.471987 
L 233.350439 -118.774571 
L 234.036239 -117.093972 
L 234.722039 -115.431183 
L 235.407839 -113.787138 
L 236.093639 -112.16271 
L 236.779439 -110.558713 
L 237.46524 -108.975902 
L 238.15104 -107.414974 
L 238.83684 -105.876566 
L 239.52264 -104.361262 
L 240.20844 -102.86959 
L 240.89424 -101.402023 
L 241.58004 -99.958983 
L 242.26584 -98.54084 
L 242.95164 -97.147914 
L 243.63744 -95.780477 
L 244.32324 -94.438756 
L 245.00904 -93.122931 
L 245.694841 -91.833139 
L 246.380641 -90.569476 
L 247.066441 -89.331999 
L 247.752241 -88.120726 
L 248.438041 -86.935638 
L 249.123841 -85.776684 
L 249.809641 -84.643776 
L 250.495441 -83.536798 
L 251.181241 -82.455606 
L 251.867041 -81.400024 
L 252.552841 -80.369854 
L 253.238641 -79.364873 
L 253.924442 -78.384833 
L 254.610242 -77.429468 
L 255.296042 -76.498492 
L 255.981842 -75.591599 
L 256.667642 -74.70847 
L 257.353442 -73.848768 
L 258.039242 -73.012144 
L 258.725042 -72.198238 
L 259.410842 -71.406676 
L 260.096642 -70.637078 
L 260.782442 -69.889052 
L 261.468242 -69.162202 
L 262.154043 -68.456124 
L 262.839843 -67.770409 
L 263.525643 -67.104645 
L 264.211443 -66.458417 
L 264.897243 -65.831305 
L 265.583043 -65.222891 
L 266.268843 -64.632755 
L 266.954643 -64.060477 
L 267.640443 -63.505639 
L 268.326243 -62.967823 
L 269.012043 -62.446614 
L 269.697843 -61.9416 
L 270.383644 -61.452372 
L 271.069444 -60.978525 
L 271.755244 -60.519659 
L 272.441044 -60.075376 
L 273.126844 -59.645285 
L 273.812644 -59.229002 
L 274.498444 -58.826145 
L 275.184244 -58.436341 
L 275.870044 -58.059222 
L 276.555844 -57.694425 
L 277.241644 -57.341597 
L 277.927444 -57.000388 
L 278.613244 -56.670459 
L 279.299045 -56.351473 
L 279.984845 -56.043106 
L 280.670645 -55.745035 
L 281.356445 -55.45695 
L 282.042245 -55.178544 
L 282.728045 -54.909519 
L 283.413845 -54.649585 
L 284.099645 -54.398458 
L 284.785445 -54.155861 
L 285.471245 -53.921527 
L 286.157045 -53.695192 
L 286.842845 -53.476602 
L 287.528646 -53.265509 
L 288.214446 -53.061673 
L 288.900246 -52.864859 
L 289.586046 -52.674841 
L 290.271846 -52.491397 
L 290.957646 -52.314315 
L 291.643446 -52.143385 
L 292.329246 -51.978409 
L 293.015046 -51.819189 
L 293.700846 -51.665538 
L 294.386646 -51.517273 
L 295.072446 -51.374217 
L 295.758247 -51.236199 
L 296.444047 -51.103053 
L 297.129847 -50.974618 
L 297.815647 -50.850741 
L 298.501447 -50.731272 
L 299.187247 -50.616065 
L 299.873047 -50.504982 
L 300.558847 -50.397888 
L 301.244647 -50.294653 
L 301.930447 -50.195152 
L 302.616247 -50.099263 
L 303.302047 -50.00687 
L 303.987848 -49.917862 
L 304.673648 -49.832128 
L 305.359448 -49.749566 
L 306.045248 -49.670075 
L 306.731048 -49.593558 
L 307.416848 -49.519922 
L 308.102648 -49.449079 
L 308.788448 -49.380941 
L 309.474248 -49.315427 
L 310.160048 -49.252457 
L 310.845848 -49.191955 
L 311.531648 -49.133848 
L 312.217449 -49.078065 
L 312.903249 -49.02454 
L 313.589049 -48.973208 
L 314.274849 -48.924008 
L 314.960649 -48.876879 
L 315.646449 -48.831767 
L 316.332249 -48.788617 
L 317.018049 -48.747376 
L 317.703849 -48.707997 
L 318.389649 -48.670432 
L 319.075449 -48.634637 
L 319.761249 -48.600568 
L 320.44705 -48.568187 
L 321.13285 -48.537453 
L 321.81865 -48.508332 
L 322.50445 -48.480788 
L 323.19025 -48.454789 
L 323.87605 -48.430305 
L 324.56185 -48.407306 
L 325.24765 -48.385767 
L 325.93345 -48.365661 
L 326.61925 -48.346965 
L 327.30505 -48.329657 
L 327.99085 -48.313717 
L 328.676651 -48.299126 
L 329.362451 -48.285868 
L 330.048251 -48.273927 
L 330.734051 -48.263289 
L 331.419851 -48.253942 
L 331.419851 -45.536364 
L 331.419851 -45.536364 
L 330.734051 -45.536364 
L 330.048251 -45.536364 
L 329.362451 -45.536364 
L 328.676651 -45.536364 
L 327.99085 -45.536364 
L 327.30505 -45.536364 
L 326.61925 -45.536364 
L 325.93345 -45.536364 
L 325.24765 -45.536364 
L 324.56185 -45.536364 
L 323.87605 -45.536364 
L 323.19025 -45.536364 
L 322.50445 -45.536364 
L 321.81865 -45.536364 
L 321.13285 -45.536364 
L 320.44705 -45.536364 
L 319.761249 -45.536364 
L 319.075449 -45.536364 
L 318.389649 -45.536364 
L 317.703849 -45.536364 
L 317.018049 -45.536364 
L 316.332249 -45.536364 
L 315.646449 -45.536364 
L 314.960649 -45.536364 
L 314.274849 -45.536364 
L 313.589049 -45.536364 
L 312.903249 -45.536364 
L 312.217449 -45.536364 
L 311.531648 -45.536364 
L 310.845848 -45.536364 
L 310.160048 -45.536364 
L 309.474248 -45.536364 
L 308.788448 -45.536364 
L 308.102648 -45.536364 
L 307.416848 -45.536364 
L 306.731048 -45.536364 
L 306.045248 -45.536364 
L 305.359448 -45.536364 
L 304.673648 -45.536364 
L 303.987848 -45.536364 
L 303.302047 -45.536364 
L 302.616247 -45.536364 
L 301.930447 -45.536364 
L 301.244647 -45.536364 
L 300.558847 -45.536364 
L 299.873047 -45.536364 
L 299.187247 -45.536364 
L 298.501447 -45.536364 
L 297.815647 -45.536364 
L 297.129847 -45.536364 
L 296.444047 -45.536364 
L 295.758247 -45.536364 
L 295.072446 -45.536364 
L 294.386646 -45.536364 
L 293.700846 -45.536364 
L 293.015046 -45.536364 
L 292.329246 -45.536364 
L 291.643446 -45.536364 
L 290.957646 -45.536364 
L 290.271846 -45.536364 
L 289.586046 -45.536364 
L 288.900246 -45.536364 
L 288.214446 -45.536364 
L 287.528646 -45.536364 
L 286.842845 -45.536364 
L 286.157045 -45.536364 
L 285.471245 -45.536364 
L 284.785445 -45.536364 
L 284.099645 -45.536364 
L 283.413845 -45.536364 
L 282.728045 -45.536364 
L 282.042245 -45.536364 
L 281.356445 -45.536364 
L 280.670645 -45.536364 
L 279.984845 -45.536364 
L 279.299045 -45.536364 
L 278.613244 -45.536364 
L 277.927444 -45.536364 
L 277.241644 -45.536364 
L 276.555844 -45.536364 
L 275.870044 -45.536364 
L 275.184244 -45.536364 
L 274.498444 -45.536364 
L 273.812644 -45.536364 
L 273.126844 -45.536364 
L 272.441044 -45.536364 
L 271.755244 -45.536364 
L 271.069444 -45.536364 
L 270.383644 -45.536364 
L 269.697843 -45.536364 
L 269.012043 -45.536364 
L 268.326243 -45.536364 
L 267.640443 -45.536364 
L 266.954643 -45.536364 
L 266.268843 -45.536364 
L 265.583043 -45.536364 
L 264.897243 -45.536364 
L 264.211443 -45.536364 
L 263.525643 -45.536364 
L 262.839843 -45.536364 
L 262.154043 -45.536364 
L 261.468242 -45.536364 
L 260.782442 -45.536364 
L 260.096642 -45.536364 
L 259.410842 -45.536364 
L 258.725042 -45.536364 
L 258.039242 -45.536364 
L 257.353442 -45.536364 
L 256.667642 -45.536364 
L 255.981842 -45.536364 
L 255.296042 -45.536364 
L 254.610242 -45.536364 
L 253.924442 -45.536364 
L 253.238641 -45.536364 
L 252.552841 -45.536364 
L 251.867041 -45.536364 
L 251.181241 -45.536364 
L 250.495441 -45.536364 
L 249.809641 -45.536364 
L 249.123841 -45.536364 
L 248.438041 -45.536364 
L 247.752241 -45.536364 
L 247.066441 -45.536364 
L 246.380641 -45.536364 
L 245.694841 -45.536364 
L 245.00904 -45.536364 
L 244.32324 -45.536364 
L 243.63744 -45.536364 
L 242.95164 -45.536364 
L 242.26584 -45.536364 
L 241.58004 -45.536364 
L 240.89424 -45.536364 
L 240.20844 -45.536364 
L 239.52264 -45.536364 
L 238.83684 -45.536364 
L 238.15104 -45.536364 
L 237.46524 -45.536364 
L 236.779439 -45.536364 
L 236.093639 -45.536364 
L 235.407839 -45.536364 
L 234.722039 -45.536364 
L 234.036239 -45.536364 
L 233.350439 -45.536364 
L 232.664639 -45.536364 
L 231.978839 -45.536364 
L 231.293039 -45.536364 
L 230.607239 -45.536364 
L 229.921439 -45.536364 
L 229.235639 -45.536364 
L 228.549838 -45.536364 
L 227.864038 -45.536364 
L 227.178238 -45.536364 
L 226.492438 -45.536364 
L 225.806638 -45.536364 
L 225.120838 -45.536364 
L 224.435038 -45.536364 
L 223.749238 -45.536364 
L 223.063438 -45.536364 
L 222.377638 -45.536364 
L 221.691838 -45.536364 
L 221.006038 -45.536364 
L 220.320237 -45.536364 
L 219.634437 -45.536364 
L 218.948637 -45.536364 
L 218.262837 -45.536364 
L 217.577037 -45.536364 
L 216.891237 -45.536364 
L 216.205437 -45.536364 
L 215.519637 -45.536364 
L 214.833837 -45.536364 
L 214.148037 -45.536364 
L 213.462237 -45.536364 
L 212.776437 -45.536364 
L 212.090636 -45.536364 
L 211.404836 -45.536364 
L 210.719036 -45.536364 
L 210.033236 -45.536364 
L 209.347436 -45.536364 
L 208.661636 -45.536364 
L 207.975836 -45.536364 
L 207.290036 -45.536364 
L 206.604236 -45.536364 
L 205.918436 -45.536364 
L 205.232636 -45.536364 
L 204.546836 -45.536364 
L 203.861035 -45.536364 
L 203.175235 -45.536364 
L 202.489435 -45.536364 
L 201.803635 -45.536364 
L 201.117835 -45.536364 
L 200.432035 -45.536364 
L 199.746235 -45.536364 
L 199.060435 -45.536364 
L 198.374635 -45.536364 
L 197.688835 -45.536364 
L 197.003035 -45.536364 
L 196.317235 -45.536364 
L 195.631434 -45.536364 
L 194.945634 -45.536364 
L 194.259834 -45.536364 
L 193.574034 -45.536364 
L 192.888234 -45.536364 
L 192.202434 -45.536364 
L 191.516634 -45.536364 
L 190.830834 -45.536364 
L 190.145034 -45.536364 
L 189.459234 -45.536364 
L 188.773434 -45.536364 
L 188.087634 -45.536364 
L 187.401834 -45.536364 
L 186.716033 -45.536364 
L 186.030233 -45.536364 
L 185.344433 -45.536364 
L 184.658633 -45.536364 
L 183.972833 -45.536364 
L 183.287033 -45.536364 
L 182.601233 -45.536364 
L 181.915433 -45.536364 
L 181.229633 -45.536364 
L 180.543833 -45.536364 
L 179.858033 -45.536364 
L 179.172233 -45.536364 
L 178.486432 -45.536364 
L 177.800632 -45.536364 
L 177.114832 -45.536364 
L 176.429032 -45.536364 
L 175.743232 -45.536364 
L 175.057432 -45.536364 
L 174.371632 -45.536364 
L 173.685832 -45.536364 
L 173.000032 -45.536364 
L 172.314232 -45.536364 
L 171.628432 -45.536364 
L 170.942632 -45.536364 
L 170.256831 -45.536364 
L 169.571031 -45.536364 
L 168.885231 -45.536364 
L 168.199431 -45.536364 
L 167.513631 -45.536364 
L 166.827831 -45.536364 
L 166.142031 -45.536364 
L 165.456231 -45.536364 
L 164.770431 -45.536364 
L 164.084631 -45.536364 
L 163.398831 -45.536364 
L 162.713031 -45.536364 
L 162.02723 -45.536364 
L 161.34143 -45.536364 
L 160.65563 -45.536364 
L 159.96983 -45.536364 
L 159.28403 -45.536364 
L 158.59823 -45.536364 
L 157.91243 -45.536364 
L 157.22663 -45.536364 
L 156.54083 -45.536364 
L 155.85503 -45.536364 
L 155.16923 -45.536364 
L 154.48343 -45.536364 
L 153.797629 -45.536364 
L 153.111829 -45.536364 
L 152.426029 -45.536364 
L 151.740229 -45.536364 
L 151.054429 -45.536364 
L 150.368629 -45.536364 
L 149.682829 -45.536364 
L 148.997029 -45.536364 
L 148.311229 -45.536364 
L 147.625429 -45.536364 
L 146.939629 -45.536364 
L 146.253829 -45.536364 
L 145.568028 -45.536364 
L 144.882228 -45.536364 
L 144.196428 -45.536364 
L 143.510628 -45.536364 
L 142.824828 -45.536364 
L 142.139028 -45.536364 
L 141.453228 -45.536364 
L 140.767428 -45.536364 
L 140.081628 -45.536364 
L 139.395828 -45.536364 
L 138.710028 -45.536364 
L 138.024228 -45.536364 
L 137.338427 -45.536364 
L 136.652627 -45.536364 
L 135.966827 -45.536364 
L 135.281027 -45.536364 
L 134.595227 -45.536364 
L 133.909427 -45.536364 
L 133.223627 -45.536364 
L 132.537827 -45.536364 
L 131.852027 -45.536364 
L 131.166227 -45.536364 
L 130.480427 -45.536364 
L 129.794627 -45.536364 
L 129.108826 -45.536364 
L 128.423026 -45.536364 
L 127.737226 -45.536364 
L 127.051426 -45.536364 
L 126.365626 -45.536364 
L 125.679826 -45.536364 
L 124.994026 -45.536364 
L 124.308226 -45.536364 
L 123.622426 -45.536364 
L 122.936626 -45.536364 
L 122.250826 -45.536364 
L 121.565026 -45.536364 
L 120.879225 -45.536364 
L 120.193425 -45.536364 
L 119.507625 -45.536364 
L 118.821825 -45.536364 
L 118.136025 -45.536364 
L 117.450225 -45.536364 
L 116.764425 -45.536364 
L 116.078625 -45.536364 
L 115.392825 -45.536364 
L 114.707025 -45.536364 
L 114.021225 -45.536364 
L 113.335425 -45.536364 
L 112.649625 -45.536364 
L 111.963824 -45.536364 
L 111.278024 -45.536364 
L 110.592224 -45.536364 
L 109.906424 -45.536364 
L 109.220624 -45.536364 
L 108.534824 -45.536364 
L 107.849024 -45.536364 
L 107.163224 -45.536364 
L 106.477424 -45.536364 
L 105.791624 -45.536364 
L 105.105824 -45.536364 
L 104.420024 -45.536364 
L 103.734223 -45.536364 
L 103.048423 -45.536364 
L 102.362623 -45.536364 
L 101.676823 -45.536364 
L 100.991023 -45.536364 
L 100.305223 -45.536364 
L 99.619423 -45.536364 
L 98.933623 -45.536364 
L 98.247823 -45.536364 
L 97.562023 -45.536364 
L 96.876223 -45.536364 
L 96.190423 -45.536364 
L 95.504622 -45.536364 
L 94.818822 -45.536364 
L 94.133022 -45.536364 
L 93.447222 -45.536364 
L 92.761422 -45.536364 
L 92.075622 -45.536364 
L 91.389822 -45.536364 
L 90.704022 -45.536364 
L 90.018222 -45.536364 
L 89.332422 -45.536364 
L 88.646622 -45.536364 
L 87.960822 -45.536364 
L 87.275021 -45.536364 
L 86.589221 -45.536364 
L 85.903421 -45.536364 
L 85.217621 -45.536364 
L 84.531821 -45.536364 
L 83.846021 -45.536364 
L 83.160221 -45.536364 
L 82.474421 -45.536364 
L 81.788621 -45.536364 
L 81.102821 -45.536364 
L 80.417021 -45.536364 
L 79.731221 -45.536364 
L 79.04542 -45.536364 
L 78.35962 -45.536364 
L 77.67382 -45.536364 
L 76.98802 -45.536364 
L 76.30222 -45.536364 
L 75.61642 -45.536364 
L 74.93062 -45.536364 
L 74.24482 -45.536364 
L 73.55902 -45.536364 
L 72.87322 -45.536364 
L 72.18742 -45.536364 
L 71.50162 -45.536364 
L 70.815819 -45.536364 
L 70.130019 -45.536364 
L 69.444219 -45.536364 
L 68.758419 -45.536364 
L 68.072619 -45.536364 
L 67.386819 -45.536364 
L 66.701019 -45.536364 
L 66.015219 -45.536364 
L 65.329419 -45.536364 
L 64.643619 -45.536364 
L 63.957819 -45.536364 
L 63.272019 -45.536364 
L 62.586218 -45.536364 
L 61.900418 -45.536364 
L 61.214618 -45.536364 
L 60.528818 -45.536364 
L 59.843018 -45.536364 
L 59.157218 -45.536364 
L 58.471418 -45.536364 
L 57.785618 -45.536364 
z
" style="stroke: #4c78a8; stroke-opacity: 0.15"/>
    </defs>
    <g clip-path="url(#p60b806d459)">
     <use xlink:href="#ma806a8eedb" x="0" y="223.158281" style="fill: #4c78a8; fill-opacity: 0.15; stroke: #4c78a8; stroke-opacity: 0.15"/>
    </g>
   </g>
   <g id="matplotlib.axis_1">
    <g id="xtick_1">
     <g id="line2d_1">
      <path d="M 59.414663 184.958281 
L 59.414663 23.558281 
" clip-path="url(#p60b806d459)" style="fill: none; stroke: #b0b0b0; stroke-opacity: 0.25; stroke-width: 0.6; stroke-linecap: square"/>
     </g>
     <g id="line2d_2">
      <defs>
       <path id="m2b62b5ecb2" d="M 0 0 
L 0 3.5 
" style="stroke: #000000; stroke-width: 0.8"/>
      </defs>
      <g>
       <use xlink:href="#m2b62b5ecb2" x="59.414663" y="184.958281" style="stroke: #000000; stroke-width: 0.8"/>
      </g>
     </g>
     <g id="text_1">
      <!-- −3 -->
      <g transform="translate(52.043569 199.555938) scale(0.1 -0.1)">
       <defs>
        <path id="DejaVuSans-c9c" d="M 678 2272 
L 4684 2272 
L 4684 1741 
L 678 1741 
L 678 2272 
z
" transform="scale(0.015625)"/>
        <path id="DejaVuSans-16" d="M 2597 2516 
Q 3050 2419 3304 2112 
Q 3559 1806 3559 1356 
Q 3559 666 3084 287 
Q 2609 -91 1734 -91 
Q 1441 -91 1130 -33 
Q 819 25 488 141 
L 488 750 
Q 750 597 1062 519 
Q 1375 441 1716 441 
Q 2309 441 2620 675 
Q 2931 909 2931 1356 
Q 2931 1769 2642 2001 
Q 2353 2234 1838 2234 
L 1294 2234 
L 1294 2753 
L 1863 2753 
Q 2328 2753 2575 2939 
Q 2822 3125 2822 3475 
Q 2822 3834 2567 4026 
Q 2313 4219 1838 4219 
Q 1578 4219 1281 4162 
Q 984 4106 628 3988 
L 628 4550 
Q 988 4650 1302 4700 
Q 1616 4750 1894 4750 
Q 2613 4750 3031 4423 
Q 3450 4097 3450 3541 
Q 3450 3153 3228 2886 
Q 3006 2619 2597 2516 
z
" transform="scale(0.015625)"/>
       </defs>
       <use xlink:href="#DejaVuSans-c9c"/>
       <use xlink:href="#DejaVuSans-16" transform="translate(83.796875 0)"/>
      </g>
     </g>
    </g>
    <g id="xtick_2">
     <g id="line2d_3">
      <path d="M 104.477353 184.958281 
L 104.477353 23.558281 
" clip-path="url(#p60b806d459)" style="fill: none; stroke: #b0b0b0; stroke-opacity: 0.25; stroke-width: 0.6; stroke-linecap: square"/>
     </g>
     <g id="line2d_4">
      <g>
       <use xlink:href="#m2b62b5ecb2" x="104.477353" y="184.958281" style="stroke: #000000; stroke-width: 0.8"/>
      </g>
     </g>
     <g id="text_2">
      <!-- −2 -->
      <g transform="translate(97.10626 199.555938) scale(0.1 -0.1)">
       <defs>
        <path id="DejaVuSans-15" d="M 1228 531 
L 3431 531 
L 3431 0 
L 469 0 
L 469 531 
Q 828 903 1448 1529 
Q 2069 2156 2228 2338 
Q 2531 2678 2651 2914 
Q 2772 3150 2772 3378 
Q 2772 3750 2511 3984 
Q 2250 4219 1831 4219 
Q 1534 4219 1204 4116 
Q 875 4013 500 3803 
L 500 4441 
Q 881 4594 1212 4672 
Q 1544 4750 1819 4750 
Q 2544 4750 2975 4387 
Q 3406 4025 3406 3419 
Q 3406 3131 3298 2873 
Q 3191 2616 2906 2266 
Q 2828 2175 2409 1742 
Q 1991 1309 1228 531 
z
" transform="scale(0.015625)"/>
       </defs>
       <use xlink:href="#DejaVuSans-c9c"/>
       <use xlink:href="#DejaVuSans-15" transform="translate(83.796875 0)"/>
      </g>
     </g>
    </g>
    <g id="xtick_3">
     <g id="line2d_5">
      <path d="M 149.540044 184.958281 
L 149.540044 23.558281 
" clip-path="url(#p60b806d459)" style="fill: none; stroke: #b0b0b0; stroke-opacity: 0.25; stroke-width: 0.6; stroke-linecap: square"/>
     </g>
     <g id="line2d_6">
      <g>
       <use xlink:href="#m2b62b5ecb2" x="149.540044" y="184.958281" style="stroke: #000000; stroke-width: 0.8"/>
      </g>
     </g>
     <g id="text_3">
      <!-- −1 -->
      <g transform="translate(142.16895 199.555938) scale(0.1 -0.1)">
       <defs>
        <path id="DejaVuSans-14" d="M 794 531 
L 1825 531 
L 1825 4091 
L 703 3866 
L 703 4441 
L 1819 4666 
L 2450 4666 
L 2450 531 
L 3481 531 
L 3481 0 
L 794 0 
L 794 531 
z
" transform="scale(0.015625)"/>
       </defs>
       <use xlink:href="#DejaVuSans-c9c"/>
       <use xlink:href="#DejaVuSans-14" transform="translate(83.796875 0)"/>
      </g>
     </g>
    </g>
    <g id="xtick_4">
     <g id="line2d_7">
      <path d="M 194.602734 184.958281 
L 194.602734 23.558281 
" clip-path="url(#p60b806d459)" style="fill: none; stroke: #b0b0b0; stroke-opacity: 0.25; stroke-width: 0.6; stroke-linecap: square"/>
     </g>
     <g id="line2d_8">
      <g>
       <use xlink:href="#m2b62b5ecb2" x="194.602734" y="184.958281" style="stroke: #000000; stroke-width: 0.8"/>
      </g>
     </g>
     <g id="text_4">
      <!-- 0 -->
      <g transform="translate(191.421484 199.555938) scale(0.1 -0.1)">
       <defs>
        <path id="DejaVuSans-13" d="M 2034 4250 
Q 1547 4250 1301 3770 
Q 1056 3291 1056 2328 
Q 1056 1369 1301 889 
Q 1547 409 2034 409 
Q 2525 409 2770 889 
Q 3016 1369 3016 2328 
Q 3016 3291 2770 3770 
Q 2525 4250 2034 4250 
z
M 2034 4750 
Q 2819 4750 3233 4129 
Q 3647 3509 3647 2328 
Q 3647 1150 3233 529 
Q 2819 -91 2034 -91 
Q 1250 -91 836 529 
Q 422 1150 422 2328 
Q 422 3509 836 4129 
Q 1250 4750 2034 4750 
z
" transform="scale(0.015625)"/>
       </defs>
       <use xlink:href="#DejaVuSans-13"/>
      </g>
     </g>
    </g>
    <g id="xtick_5">
     <g id="line2d_9">
      <path d="M 239.665425 184.958281 
L 239.665425 23.558281 
" clip-path="url(#p60b806d459)" style="fill: none; stroke: #b0b0b0; stroke-opacity: 0.25; stroke-width: 0.6; stroke-linecap: square"/>
     </g>
     <g id="line2d_10">
      <g>
       <use xlink:href="#m2b62b5ecb2" x="239.665425" y="184.958281" style="stroke: #000000; stroke-width: 0.8"/>
      </g>
     </g>
     <g id="text_5">
      <!-- 1 -->
      <g transform="translate(236.484175 199.555938) scale(0.1 -0.1)">
       <use xlink:href="#DejaVuSans-14"/>
      </g>
     </g>
    </g>
    <g id="xtick_6">
     <g id="line2d_11">
      <path d="M 284.728115 184.958281 
L 284.728115 23.558281 
" clip-path="url(#p60b806d459)" style="fill: none; stroke: #b0b0b0; stroke-opacity: 0.25; stroke-width: 0.6; stroke-linecap: square"/>
     </g>
     <g id="line2d_12">
      <g>
       <use xlink:href="#m2b62b5ecb2" x="284.728115" y="184.958281" style="stroke: #000000; stroke-width: 0.8"/>
      </g>
     </g>
     <g id="text_6">
      <!-- 2 -->
      <g transform="translate(281.546865 199.555938) scale(0.1 -0.1)">
       <use xlink:href="#DejaVuSans-15"/>
      </g>
     </g>
    </g>
    <g id="xtick_7">
     <g id="line2d_13">
      <path d="M 329.790806 184.958281 
L 329.790806 23.558281 
" clip-path="url(#p60b806d459)" style="fill: none; stroke: #b0b0b0; stroke-opacity: 0.25; stroke-width: 0.6; stroke-linecap: square"/>
     </g>
     <g id="line2d_14">
      <g>
       <use xlink:href="#m2b62b5ecb2" x="329.790806" y="184.958281" style="stroke: #000000; stroke-width: 0.8"/>
      </g>
     </g>
     <g id="text_7">
      <!-- 3 -->
      <g transform="translate(326.609556 199.555938) scale(0.1 -0.1)">
       <use xlink:href="#DejaVuSans-16"/>
      </g>
     </g>
    </g>
    <g id="text_8">
     <!-- x -->
     <g transform="translate(191.643359 213.555938) scale(0.1 -0.1)">
      <defs>
       <path id="DejaVuSans-5b" d="M 3513 3500 
L 2247 1797 
L 3578 0 
L 2900 0 
L 1881 1375 
L 863 0 
L 184 0 
L 1544 1831 
L 300 3500 
L 978 3500 
L 1906 2253 
L 2834 3500 
L 3513 3500 
z
" transform="scale(0.015625)"/>
      </defs>
      <use xlink:href="#DejaVuSans-5b"/>
     </g>
    </g>
   </g>
   <g id="matplotlib.axis_2">
    <g id="ytick_1">
     <g id="line2d_15">
      <path d="M 44.103906 177.621918 
L 345.101562 177.621918 
" clip-path="url(#p60b806d459)" style="fill: none; stroke: #b0b0b0; stroke-opacity: 0.25; stroke-width: 0.6; stroke-linecap: square"/>
     </g>
     <g id="line2d_16">
      <defs>
       <path id="m994d31d890" d="M 0 0 
L -3.5 0 
" style="stroke: #000000; stroke-width: 0.8"/>
      </defs>
      <g>
       <use xlink:href="#m994d31d890" x="44.103906" y="177.621918" style="stroke: #000000; stroke-width: 0.8"/>
      </g>
     </g>
     <g id="text_9">
      <!-- 0.0 -->
      <g transform="translate(21.200781 181.420746) scale(0.1 -0.1)">
       <defs>
        <path id="DejaVuSans-11" d="M 684 794 
L 1344 794 
L 1344 0 
L 684 0 
L 684 794 
z
" transform="scale(0.015625)"/>
       </defs>
       <use xlink:href="#DejaVuSans-13"/>
       <use xlink:href="#DejaVuSans-11" transform="translate(63.625 0)"/>
       <use xlink:href="#DejaVuSans-13" transform="translate(95.40625 0)"/>
      </g>
     </g>
    </g>
    <g id="ytick_2">
     <g id="line2d_17">
      <path d="M 44.103906 149.178437 
L 345.101562 149.178437 
" clip-path="url(#p60b806d459)" style="fill: none; stroke: #b0b0b0; stroke-opacity: 0.25; stroke-width: 0.6; stroke-linecap: square"/>
     </g>
     <g id="line2d_18">
      <g>
       <use xlink:href="#m994d31d890" x="44.103906" y="149.178437" style="stroke: #000000; stroke-width: 0.8"/>
      </g>
     </g>
     <g id="text_10">
      <!-- 0.1 -->
      <g transform="translate(21.200781 152.977265) scale(0.1 -0.1)">
       <use xlink:href="#DejaVuSans-13"/>
       <use xlink:href="#DejaVuSans-11" transform="translate(63.625 0)"/>
       <use xlink:href="#DejaVuSans-14" transform="translate(95.40625 0)"/>
      </g>
     </g>
    </g>
    <g id="ytick_3">
     <g id="line2d_19">
      <path d="M 44.103906 120.734956 
L 345.101562 120.734956 
" clip-path="url(#p60b806d459)" style="fill: none; stroke: #b0b0b0; stroke-opacity: 0.25; stroke-width: 0.6; stroke-linecap: square"/>
     </g>
     <g id="line2d_20">
      <g>
       <use xlink:href="#m994d31d890" x="44.103906" y="120.734956" style="stroke: #000000; stroke-width: 0.8"/>
      </g>
     </g>
     <g id="text_11">
      <!-- 0.2 -->
      <g transform="translate(21.200781 124.533784) scale(0.1 -0.1)">
       <use xlink:href="#DejaVuSans-13"/>
       <use xlink:href="#DejaVuSans-11" transform="translate(63.625 0)"/>
       <use xlink:href="#DejaVuSans-15" transform="translate(95.40625 0)"/>
      </g>
     </g>
    </g>
    <g id="ytick_4">
     <g id="line2d_21">
      <path d="M 44.103906 92.291475 
L 345.101562 92.291475 
" clip-path="url(#p60b806d459)" style="fill: none; stroke: #b0b0b0; stroke-opacity: 0.25; stroke-width: 0.6; stroke-linecap: square"/>
     </g>
     <g id="line2d_22">
      <g>
       <use xlink:href="#m994d31d890" x="44.103906" y="92.291475" style="stroke: #000000; stroke-width: 0.8"/>
      </g>
     </g>
     <g id="text_12">
      <!-- 0.3 -->
      <g transform="translate(21.200781 96.090303) scale(0.1 -0.1)">
       <use xlink:href="#DejaVuSans-13"/>
       <use xlink:href="#DejaVuSans-11" transform="translate(63.625 0)"/>
       <use xlink:href="#DejaVuSans-16" transform="translate(95.40625 0)"/>
      </g>
     </g>
    </g>
    <g id="ytick_5">
     <g id="line2d_23">
      <path d="M 44.103906 63.847994 
L 345.101562 63.847994 
" clip-path="url(#p60b806d459)" style="fill: none; stroke: #b0b0b0; stroke-opacity: 0.25; stroke-width: 0.6; stroke-linecap: square"/>
     </g>
     <g id="line2d_24">
      <g>
       <use xlink:href="#m994d31d890" x="44.103906" y="63.847994" style="stroke: #000000; stroke-width: 0.8"/>
      </g>
     </g>
     <g id="text_13">
      <!-- 0.4 -->
      <g transform="translate(21.200781 67.646822) scale(0.1 -0.1)">
       <defs>
        <path id="DejaVuSans-17" d="M 2419 4116 
L 825 1625 
L 2419 1625 
L 2419 4116 
z
M 2253 4666 
L 3047 4666 
L 3047 1625 
L 3713 1625 
L 3713 1100 
L 3047 1100 
L 3047 0 
L 2419 0 
L 2419 1100 
L 313 1100 
L 313 1709 
L 2253 4666 
z
" transform="scale(0.015625)"/>
       </defs>
       <use xlink:href="#DejaVuSans-13"/>
       <use xlink:href="#DejaVuSans-11" transform="translate(63.625 0)"/>
       <use xlink:href="#DejaVuSans-17" transform="translate(95.40625 0)"/>
      </g>
     </g>
    </g>
    <g id="ytick_6">
     <g id="line2d_25">
      <path d="M 44.103906 35.404513 
L 345.101562 35.404513 
" clip-path="url(#p60b806d459)" style="fill: none; stroke: #b0b0b0; stroke-opacity: 0.25; stroke-width: 0.6; stroke-linecap: square"/>
     </g>
     <g id="line2d_26">
      <g>
       <use xlink:href="#m994d31d890" x="44.103906" y="35.404513" style="stroke: #000000; stroke-width: 0.8"/>
      </g>
     </g>
     <g id="text_14">
      <!-- 0.5 -->
      <g transform="translate(21.200781 39.203341) scale(0.1 -0.1)">
       <defs>
        <path id="DejaVuSans-18" d="M 691 4666 
L 3169 4666 
L 3169 4134 
L 1269 4134 
L 1269 2991 
Q 1406 3038 1543 3061 
Q 1681 3084 1819 3084 
Q 2600 3084 3056 2656 
Q 3513 2228 3513 1497 
Q 3513 744 3044 326 
Q 2575 -91 1722 -91 
Q 1428 -91 1123 -41 
Q 819 9 494 109 
L 494 744 
Q 775 591 1075 516 
Q 1375 441 1709 441 
Q 2250 441 2565 725 
Q 2881 1009 2881 1497 
Q 2881 1984 2565 2268 
Q 2250 2553 1709 2553 
Q 1456 2553 1204 2497 
Q 953 2441 691 2322 
L 691 4666 
z
" transform="scale(0.015625)"/>
       </defs>
       <use xlink:href="#DejaVuSans-13"/>
       <use xlink:href="#DejaVuSans-11" transform="translate(63.625 0)"/>
       <use xlink:href="#DejaVuSans-18" transform="translate(95.40625 0)"/>
      </g>
     </g>
    </g>
    <g id="text_15">
     <!-- f(x) -->
     <g transform="translate(14.798438 112.879375) rotate(-90) scale(0.1 -0.1)">
      <defs>
       <path id="DejaVuSans-49" d="M 2375 4863 
L 2375 4384 
L 1825 4384 
Q 1516 4384 1395 4259 
Q 1275 4134 1275 3809 
L 1275 3500 
L 2222 3500 
L 2222 3053 
L 1275 3053 
L 1275 0 
L 697 0 
L 697 3053 
L 147 3053 
L 147 3500 
L 697 3500 
L 697 3744 
Q 697 4328 969 4595 
Q 1241 4863 1831 4863 
L 2375 4863 
z
" transform="scale(0.015625)"/>
       <path id="DejaVuSans-b" d="M 1984 4856 
Q 1566 4138 1362 3434 
Q 1159 2731 1159 2009 
Q 1159 1288 1364 580 
Q 1569 -128 1984 -844 
L 1484 -844 
Q 1016 -109 783 600 
Q 550 1309 550 2009 
Q 550 2706 781 3412 
Q 1013 4119 1484 4856 
L 1984 4856 
z
" transform="scale(0.015625)"/>
       <path id="DejaVuSans-c" d="M 513 4856 
L 1013 4856 
Q 1481 4119 1714 3412 
Q 1947 2706 1947 2009 
Q 1947 1309 1714 600 
Q 1481 -109 1013 -844 
L 513 -844 
Q 928 -128 1133 580 
Q 1338 1288 1338 2009 
Q 1338 2731 1133 3434 
Q 928 4138 513 4856 
z
" transform="scale(0.015625)"/>
      </defs>
      <use xlink:href="#DejaVuSans-49"/>
      <use xlink:href="#DejaVuSans-b" transform="translate(35.203125 0)"/>
      <use xlink:href="#DejaVuSans-5b" transform="translate(74.21875 0)"/>
      <use xlink:href="#DejaVuSans-c" transform="translate(133.40625 0)"/>
     </g>
    </g>
   </g>
   <g id="line2d_27">
    <path d="M 57.785618 174.904339 
L 66.701019 174.677494 
L 74.24482 174.281402 
L 81.102821 173.709203 
L 87.275021 172.963129 
L 92.761422 172.055229 
L 97.562023 171.014896 
L 101.676823 169.892772 
L 105.105824 168.759823 
L 108.534824 167.413246 
L 111.963824 165.816685 
L 115.392825 163.929279 
L 118.136025 162.179756 
L 120.879225 160.190459 
L 123.622426 157.93539 
L 126.365626 155.387872 
L 129.108826 152.521204 
L 131.852027 149.309514 
L 134.595227 145.728813 
L 137.338427 141.758257 
L 140.081628 137.381598 
L 142.824828 132.588805 
L 145.568028 127.377804 
L 148.311229 121.756258 
L 151.740229 114.182379 
L 155.16923 106.06431 
L 159.28403 95.750473 
L 173.685832 58.872288 
L 176.429032 52.639048 
L 179.172233 46.972022 
L 181.229633 43.169881 
L 183.287033 39.807526 
L 185.344433 36.930286 
L 186.716033 35.301509 
L 188.087634 33.916299 
L 189.459234 32.7834 
L 190.830834 31.910029 
L 192.202434 31.301786 
L 193.574034 30.962593 
L 194.945634 30.894645 
L 196.317235 31.09838 
L 197.688835 31.572481 
L 199.060435 32.313885 
L 200.432035 33.317823 
L 201.803635 34.577877 
L 203.175235 36.086055 
L 205.232636 38.792457 
L 207.290036 41.997889 
L 209.347436 45.658772 
L 211.404836 49.726655 
L 214.148037 55.693077 
L 217.577037 63.839428 
L 221.691838 74.283077 
L 233.350439 104.38371 
L 237.46524 114.182379 
L 240.89424 121.756258 
L 244.32324 128.719525 
L 247.066441 133.826282 
L 249.809641 138.514506 
L 252.552841 142.788427 
L 255.296042 146.65979 
L 258.039242 150.146137 
L 260.782442 153.269229 
L 263.525643 156.053636 
L 266.268843 158.525526 
L 269.012043 160.711667 
L 271.755244 162.638623 
L 274.498444 164.332136 
L 277.927444 166.157893 
L 281.356445 167.701332 
L 284.785445 169.00242 
L 288.900246 170.293422 
L 293.015046 171.339092 
L 297.815647 172.30754 
L 303.302047 173.151411 
L 309.474248 173.842854 
L 316.332249 174.369665 
L 323.87605 174.727977 
L 331.419851 174.904339 
L 331.419851 174.904339 
" clip-path="url(#p60b806d459)" style="fill: none; stroke: #4c78a8; stroke-width: 2; stroke-linecap: square"/>
   </g>
   <g id="patch_3">
    <path d="M 44.103906 184.958281 
L 44.103906 23.558281 
" style="fill: none; stroke: #000000; stroke-width: 0.8; stroke-linejoin: miter; stroke-linecap: square"/>
   </g>
   <g id="patch_4">
    <path d="M 44.103906 184.958281 
L 345.101562 184.958281 
" style="fill: none; stroke: #000000; stroke-width: 0.8; stroke-linejoin: miter; stroke-linecap: square"/>
   </g>
   <g id="text_16">
    <!-- Univariate Von Mises -->
    <g transform="translate(137.168125 15.558281) scale(0.11 -0.11)">
     <defs>
      <path id="DejaVuSans-38" d="M 556 4666 
L 1191 4666 
L 1191 1831 
Q 1191 1081 1462 751 
Q 1734 422 2344 422 
Q 2950 422 3222 751 
Q 3494 1081 3494 1831 
L 3494 4666 
L 4128 4666 
L 4128 1753 
Q 4128 841 3676 375 
Q 3225 -91 2344 -91 
Q 1459 -91 1007 375 
Q 556 841 556 1753 
L 556 4666 
z
" transform="scale(0.015625)"/>
      <path id="DejaVuSans-51" d="M 3513 2113 
L 3513 0 
L 2938 0 
L 2938 2094 
Q 2938 2591 2744 2837 
Q 2550 3084 2163 3084 
Q 1697 3084 1428 2787 
Q 1159 2491 1159 1978 
L 1159 0 
L 581 0 
L 581 3500 
L 1159 3500 
L 1159 2956 
Q 1366 3272 1645 3428 
Q 1925 3584 2291 3584 
Q 2894 3584 3203 3211 
Q 3513 2838 3513 2113 
z
" transform="scale(0.015625)"/>
      <path id="DejaVuSans-4c" d="M 603 3500 
L 1178 3500 
L 1178 0 
L 603 0 
L 603 3500 
z
M 603 4863 
L 1178 4863 
L 1178 4134 
L 603 4134 
L 603 4863 
z
" transform="scale(0.015625)"/>
      <path id="DejaVuSans-59" d="M 191 3500 
L 800 3500 
L 1894 563 
L 2988 3500 
L 3597 3500 
L 2284 0 
L 1503 0 
L 191 3500 
z
" transform="scale(0.015625)"/>
      <path id="DejaVuSans-44" d="M 2194 1759 
Q 1497 1759 1228 1600 
Q 959 1441 959 1056 
Q 959 750 1161 570 
Q 1363 391 1709 391 
Q 2188 391 2477 730 
Q 2766 1069 2766 1631 
L 2766 1759 
L 2194 1759 
z
M 3341 1997 
L 3341 0 
L 2766 0 
L 2766 531 
Q 2569 213 2275 61 
Q 1981 -91 1556 -91 
Q 1019 -91 701 211 
Q 384 513 384 1019 
Q 384 1609 779 1909 
Q 1175 2209 1959 2209 
L 2766 2209 
L 2766 2266 
Q 2766 2663 2505 2880 
Q 2244 3097 1772 3097 
Q 1472 3097 1187 3025 
Q 903 2953 641 2809 
L 641 3341 
Q 956 3463 1253 3523 
Q 1550 3584 1831 3584 
Q 2591 3584 2966 3190 
Q 3341 2797 3341 1997 
z
" transform="scale(0.015625)"/>
      <path id="DejaVuSans-55" d="M 2631 2963 
Q 2534 3019 2420 3045 
Q 2306 3072 2169 3072 
Q 1681 3072 1420 2755 
Q 1159 2438 1159 1844 
L 1159 0 
L 581 0 
L 581 3500 
L 1159 3500 
L 1159 2956 
Q 1341 3275 1631 3429 
Q 1922 3584 2338 3584 
Q 2397 3584 2469 3576 
Q 2541 3569 2628 3553 
L 2631 2963 
z
" transform="scale(0.015625)"/>
      <path id="DejaVuSans-57" d="M 1172 4494 
L 1172 3500 
L 2356 3500 
L 2356 3053 
L 1172 3053 
L 1172 1153 
Q 1172 725 1289 603 
Q 1406 481 1766 481 
L 2356 481 
L 2356 0 
L 1766 0 
Q 1100 0 847 248 
Q 594 497 594 1153 
L 594 3053 
L 172 3053 
L 172 3500 
L 594 3500 
L 594 4494 
L 1172 4494 
z
" transform="scale(0.015625)"/>
      <path id="DejaVuSans-48" d="M 3597 1894 
L 3597 1613 
L 953 1613 
Q 991 1019 1311 708 
Q 1631 397 2203 397 
Q 2534 397 2845 478 
Q 3156 559 3463 722 
L 3463 178 
Q 3153 47 2828 -22 
Q 2503 -91 2169 -91 
Q 1331 -91 842 396 
Q 353 884 353 1716 
Q 353 2575 817 3079 
Q 1281 3584 2069 3584 
Q 2775 3584 3186 3129 
Q 3597 2675 3597 1894 
z
M 3022 2063 
Q 3016 2534 2758 2815 
Q 2500 3097 2075 3097 
Q 1594 3097 1305 2825 
Q 1016 2553 972 2059 
L 3022 2063 
z
" transform="scale(0.015625)"/>
      <path id="DejaVuSans-3" transform="scale(0.015625)"/>
      <path id="DejaVuSans-39" d="M 1831 0 
L 50 4666 
L 709 4666 
L 2188 738 
L 3669 4666 
L 4325 4666 
L 2547 0 
L 1831 0 
z
" transform="scale(0.015625)"/>
      <path id="DejaVuSans-52" d="M 1959 3097 
Q 1497 3097 1228 2736 
Q 959 2375 959 1747 
Q 959 1119 1226 758 
Q 1494 397 1959 397 
Q 2419 397 2687 759 
Q 2956 1122 2956 1747 
Q 2956 2369 2687 2733 
Q 2419 3097 1959 3097 
z
M 1959 3584 
Q 2709 3584 3137 3096 
Q 3566 2609 3566 1747 
Q 3566 888 3137 398 
Q 2709 -91 1959 -91 
Q 1206 -91 779 398 
Q 353 888 353 1747 
Q 353 2609 779 3096 
Q 1206 3584 1959 3584 
z
" transform="scale(0.015625)"/>
      <path id="DejaVuSans-30" d="M 628 4666 
L 1569 4666 
L 2759 1491 
L 3956 4666 
L 4897 4666 
L 4897 0 
L 4281 0 
L 4281 4097 
L 3078 897 
L 2444 897 
L 1241 4097 
L 1241 0 
L 628 0 
L 628 4666 
z
" transform="scale(0.015625)"/>
      <path id="DejaVuSans-56" d="M 2834 3397 
L 2834 2853 
Q 2591 2978 2328 3040 
Q 2066 3103 1784 3103 
Q 1356 3103 1142 2972 
Q 928 2841 928 2578 
Q 928 2378 1081 2264 
Q 1234 2150 1697 2047 
L 1894 2003 
Q 2506 1872 2764 1633 
Q 3022 1394 3022 966 
Q 3022 478 2636 193 
Q 2250 -91 1575 -91 
Q 1294 -91 989 -36 
Q 684 19 347 128 
L 347 722 
Q 666 556 975 473 
Q 1284 391 1588 391 
Q 1994 391 2212 530 
Q 2431 669 2431 922 
Q 2431 1156 2273 1281 
Q 2116 1406 1581 1522 
L 1381 1569 
Q 847 1681 609 1914 
Q 372 2147 372 2553 
Q 372 3047 722 3315 
Q 1072 3584 1716 3584 
Q 2034 3584 2315 3537 
Q 2597 3491 2834 3397 
z
" transform="scale(0.015625)"/>
     </defs>
     <use xlink:href="#DejaVuSans-38"/>
     <use xlink:href="#DejaVuSans-51" transform="translate(73.1875 0)"/>
     <use xlink:href="#DejaVuSans-4c" transform="translate(136.5625 0)"/>
     <use xlink:href="#DejaVuSans-59" transform="translate(164.34375 0)"/>
     <use xlink:href="#DejaVuSans-44" transform="translate(223.53125 0)"/>
     <use xlink:href="#DejaVuSans-55" transform="translate(284.8125 0)"/>
     <use xlink:href="#DejaVuSans-4c" transform="translate(325.921875 0)"/>
     <use xlink:href="#DejaVuSans-44" transform="translate(353.703125 0)"/>
     <use xlink:href="#DejaVuSans-57" transform="translate(414.984375 0)"/>
     <use xlink:href="#DejaVuSans-48" transform="translate(454.1875 0)"/>
     <use xlink:href="#DejaVuSans-3" transform="translate(515.71875 0)"/>
     <use xlink:href="#DejaVuSans-39" transform="translate(547.5 0)"/>
     <use xlink:href="#DejaVuSans-52" transform="translate(608.140625 0)"/>
     <use xlink:href="#DejaVuSans-51" transform="translate(669.328125 0)"/>
     <use xlink:href="#DejaVuSans-3" transform="translate(732.703125 0)"/>
     <use xlink:href="#DejaVuSans-30" transform="translate(764.484375 0)"/>
     <use xlink:href="#DejaVuSans-4c" transform="translate(850.765625 0)"/>
     <use xlink:href="#DejaVuSans-56" transform="translate(878.546875 0)"/>
     <use xlink:href="#DejaVuSans-48" transform="translate(930.640625 0)"/>
     <use xlink:href="#DejaVuSans-56" transform="translate(992.171875 0)"/>
    </g>
   </g>
  </g>
 </g>
 <defs>
  <clipPath id="p60b806d459">
   <rect x="44.103906" y="23.558281" width="300.997656" height="161.4"/>
  </clipPath>
 </defs>
</svg>
