<?xml version="1.0" encoding="utf-8" standalone="no"?>
<!DOCTYPE svg PUBLIC "-//W3C//DTD SVG 1.1//EN"
  "http://www.w3.org/Graphics/SVG/1.1/DTD/svg11.dtd">
<svg xmlns:xlink="http://www.w3.org/1999/xlink" width="352.301562pt" height="223.158281pt" viewBox="0 0 352.301562 223.158281" xmlns="http://www.w3.org/2000/svg" version="1.1">
 <metadata>
  <rdf:RDF xmlns:dc="http://purl.org/dc/elements/1.1/" xmlns:cc="http://creativecommons.org/ns#" xmlns:rdf="http://www.w3.org/1999/02/22-rdf-syntax-ns#">
   <cc:Work>
    <dc:type rdf:resource="http://purl.org/dc/dcmitype/StillImage"/>
    <dc:date>2026-07-05T02:24:31.958321</dc:date>
    <dc:format>image/svg+xml</dc:format>
    <dc:creator>
     <cc:Agent>
      <dc:title>Matplotlib v3.11.0, https://matplotlib.org/</dc:title>
     </cc:Agent>
    </dc:creator>
   </cc:Work>
  </rdf:RDF>
 </metadata>
 <defs>
  <style type="text/css">*{stroke-linejoin: round; stroke-linecap: butt}</style>
 </defs>
 <g id="figure_1">
  <g id="patch_1">
   <path d="M 0 223.158281 
L 352.301562 223.158281 
L 352.301562 0 
L 0 0 
z
" style="fill: #ffffff"/>
  </g>
  <g id="axes_1">
   <g id="patch_2">
    <path d="M 44.103906 184.958281 
L 345.101562 184.958281 
L 345.101562 23.558281 
L 44.103906 23.558281 
z
" style="fill: #ffffff"/>
   </g>
   <g id="FillBetweenPolyCollection_1">
    <defs>
     <path id="m891aaec7c4" d="M 57.785618 -45.536364 
L 57.785618 -75.04535 
L 58.471418 -86.211914 
L 59.157218 -94.840496 
L 59.843018 -102.091066 
L 60.528818 -108.431939 
L 61.214618 -114.108103 
L 61.900418 -119.266917 
L 62.586218 -124.005264 
L 63.272019 -128.390942 
L 63.957819 -132.47364 
L 64.643619 -136.291107 
L 65.329419 -139.872856 
L 66.015219 -143.242512 
L 66.701019 -146.419364 
L 67.386819 -149.419426 
L 68.072619 -152.256194 
L 68.758419 -154.941181 
L 69.444219 -157.484325 
L 70.130019 -159.894288 
L 70.815819 -162.178689 
L 71.50162 -164.344285 
L 72.18742 -166.397116 
L 72.87322 -168.342612 
L 73.55902 -170.185691 
L 74.24482 -171.930829 
L 74.93062 -173.582125 
L 75.61642 -175.14335 
L 76.30222 -176.617985 
L 76.98802 -178.009266 
L 77.67382 -179.320204 
L 78.35962 -180.553617 
L 79.04542 -181.71215 
L 79.731221 -182.798293 
L 80.417021 -183.814396 
L 81.102821 -184.762686 
L 81.788621 -185.645279 
L 82.474421 -186.464185 
L 83.160221 -187.221326 
L 83.846021 -187.918537 
L 84.531821 -188.557576 
L 85.217621 -189.140133 
L 85.903421 -189.667829 
L 86.589221 -190.142229 
L 87.275021 -190.564839 
L 87.960822 -190.937116 
L 88.646622 -191.260467 
L 89.332422 -191.536258 
L 90.018222 -191.765809 
L 90.704022 -191.950404 
L 91.389822 -192.091289 
L 92.075622 -192.189675 
L 92.761422 -192.246741 
L 93.447222 -192.263636 
L 94.133022 -192.241479 
L 94.818822 -192.181361 
L 95.504622 -192.084347 
L 96.190423 -191.951476 
L 96.876223 -191.783765 
L 97.562023 -191.582205 
L 98.247823 -191.347767 
L 98.933623 -191.081402 
L 99.619423 -190.784036 
L 100.305223 -190.45658 
L 100.991023 -190.099925 
L 101.676823 -189.714941 
L 102.362623 -189.302483 
L 103.048423 -188.863389 
L 103.734223 -188.398478 
L 104.420024 -187.908555 
L 105.105824 -187.394407 
L 105.791624 -186.856808 
L 106.477424 -186.296515 
L 107.163224 -185.714272 
L 107.849024 -185.110808 
L 108.534824 -184.486837 
L 109.220624 -183.843062 
L 109.906424 -183.18017 
L 110.592224 -182.498835 
L 111.278024 -181.799721 
L 111.963824 -181.083475 
L 112.649625 -180.350736 
L 113.335425 -179.602128 
L 114.021225 -178.838264 
L 114.707025 -178.059744 
L 115.392825 -177.267159 
L 116.078625 -176.461086 
L 116.764425 -175.642093 
L 117.450225 -174.810735 
L 118.136025 -173.967557 
L 118.821825 -173.113093 
L 119.507625 -172.247867 
L 120.193425 -171.372393 
L 120.879225 -170.487173 
L 121.565026 -169.5927 
L 122.250826 -168.689457 
L 122.936626 -167.777917 
L 123.622426 -166.858543 
L 124.308226 -165.931789 
L 124.994026 -164.998099 
L 125.679826 -164.057908 
L 126.365626 -163.111642 
L 127.051426 -162.159716 
L 127.737226 -161.202539 
L 128.423026 -160.240509 
L 129.108826 -159.274016 
L 129.794627 -158.30344 
L 130.480427 -157.329156 
L 131.166227 -156.351527 
L 131.852027 -155.370908 
L 132.537827 -154.387648 
L 133.223627 -153.402085 
L 133.909427 -152.414553 
L 134.595227 -151.425374 
L 135.281027 -150.434863 
L 135.966827 -149.443331 
L 136.652627 -148.451076 
L 137.338427 -147.458392 
L 138.024228 -146.465565 
L 138.710028 -145.472873 
L 139.395828 -144.480588 
L 140.081628 -143.488974 
L 140.767428 -142.498287 
L 141.453228 -141.508779 
L 142.139028 -140.520692 
L 142.824828 -139.534264 
L 143.510628 -138.549725 
L 144.196428 -137.567299 
L 144.882228 -136.587203 
L 145.568028 -135.609647 
L 146.253829 -134.634838 
L 146.939629 -133.662973 
L 147.625429 -132.694246 
L 148.311229 -131.728843 
L 148.997029 -130.766945 
L 149.682829 -129.808728 
L 150.368629 -128.85436 
L 151.054429 -127.904006 
L 151.740229 -126.957825 
L 152.426029 -126.01597 
L 153.111829 -125.078588 
L 153.797629 -124.145822 
L 154.48343 -123.21781 
L 155.16923 -122.294684 
L 155.85503 -121.376572 
L 156.54083 -120.463597 
L 157.22663 -119.555876 
L 157.91243 -118.653524 
L 158.59823 -117.756648 
L 159.28403 -116.865353 
L 159.96983 -115.979738 
L 160.65563 -115.0999 
L 161.34143 -114.225929 
L 162.02723 -113.357913 
L 162.713031 -112.495934 
L 163.398831 -111.640071 
L 164.084631 -110.790399 
L 164.770431 -109.946989 
L 165.456231 -109.109909 
L 166.142031 -108.279223 
L 166.827831 -107.454989 
L 167.513631 -106.637266 
L 168.199431 -105.826105 
L 168.885231 -105.021556 
L 169.571031 -104.223666 
L 170.256831 -103.432477 
L 170.942632 -102.648029 
L 171.628432 -101.87036 
L 172.314232 -101.099502 
L 173.000032 -100.335487 
L 173.685832 -99.578342 
L 174.371632 -98.828091 
L 175.057432 -98.084759 
L 175.743232 -97.348363 
L 176.429032 -96.618921 
L 177.114832 -95.896447 
L 177.800632 -95.180952 
L 178.486432 -94.472447 
L 179.172233 -93.770938 
L 179.858033 -93.07643 
L 180.543833 -92.388925 
L 181.229633 -91.708423 
L 181.915433 -91.034923 
L 182.601233 -90.368421 
L 183.287033 -89.708909 
L 183.972833 -89.056382 
L 184.658633 -88.410827 
L 185.344433 -87.772235 
L 186.030233 -87.14059 
L 186.716033 -86.515879 
L 187.401834 -85.898084 
L 188.087634 -85.287186 
L 188.773434 -84.683165 
L 189.459234 -84.085999 
L 190.145034 -83.495666 
L 190.830834 -82.912139 
L 191.516634 -82.335395 
L 192.202434 -81.765404 
L 192.888234 -81.202138 
L 193.574034 -80.645567 
L 194.259834 -80.09566 
L 194.945634 -79.552385 
L 195.631434 -79.015708 
L 196.317235 -78.485594 
L 197.003035 -77.962008 
L 197.688835 -77.444914 
L 198.374635 -76.934273 
L 199.060435 -76.430047 
L 199.746235 -75.932197 
L 200.432035 -75.440683 
L 201.117835 -74.955463 
L 201.803635 -74.476496 
L 202.489435 -74.003739 
L 203.175235 -73.537149 
L 203.861035 -73.076682 
L 204.546836 -72.622293 
L 205.232636 -72.173938 
L 205.918436 -71.731571 
L 206.604236 -71.295145 
L 207.290036 -70.864613 
L 207.975836 -70.439929 
L 208.661636 -70.021044 
L 209.347436 -69.607911 
L 210.033236 -69.200481 
L 210.719036 -68.798706 
L 211.404836 -68.402535 
L 212.090636 -68.011919 
L 212.776437 -67.62681 
L 213.462237 -67.247156 
L 214.148037 -66.872907 
L 214.833837 -66.504013 
L 215.519637 -66.140422 
L 216.205437 -65.782086 
L 216.891237 -65.428951 
L 217.577037 -65.080967 
L 218.262837 -64.738083 
L 218.948637 -64.400247 
L 219.634437 -64.067408 
L 220.320237 -63.739515 
L 221.006038 -63.416516 
L 221.691838 -63.098359 
L 222.377638 -62.784993 
L 223.063438 -62.476367 
L 223.749238 -62.172428 
L 224.435038 -61.873127 
L 225.120838 -61.578411 
L 225.806638 -61.288229 
L 226.492438 -61.002531 
L 227.178238 -60.721264 
L 227.864038 -60.444379 
L 228.549838 -60.171825 
L 229.235639 -59.90355 
L 229.921439 -59.639505 
L 230.607239 -59.37964 
L 231.293039 -59.123903 
L 231.978839 -58.872247 
L 232.664639 -58.62462 
L 233.350439 -58.380974 
L 234.036239 -58.141259 
L 234.722039 -57.905426 
L 235.407839 -57.673428 
L 236.093639 -57.445214 
L 236.779439 -57.220739 
L 237.46524 -56.999952 
L 238.15104 -56.782807 
L 238.83684 -56.569257 
L 239.52264 -56.359255 
L 240.20844 -56.152754 
L 240.89424 -55.949707 
L 241.58004 -55.750068 
L 242.26584 -55.553793 
L 242.95164 -55.360835 
L 243.63744 -55.17115 
L 244.32324 -54.984692 
L 245.00904 -54.801417 
L 245.694841 -54.621282 
L 246.380641 -54.444243 
L 247.066441 -54.270256 
L 247.752241 -54.099279 
L 248.438041 -53.931269 
L 249.123841 -53.766183 
L 249.809641 -53.60398 
L 250.495441 -53.444619 
L 251.181241 -53.288058 
L 251.867041 -53.134257 
L 252.552841 -52.983176 
L 253.238641 -52.834774 
L 253.924442 -52.689011 
L 254.610242 -52.54585 
L 255.296042 -52.405251 
L 255.981842 -52.267175 
L 256.667642 -52.131585 
L 257.353442 -51.998443 
L 258.039242 -51.867712 
L 258.725042 -51.739355 
L 259.410842 -51.613336 
L 260.096642 -51.489618 
L 260.782442 -51.368167 
L 261.468242 -51.248946 
L 262.154043 -51.131922 
L 262.839843 -51.017058 
L 263.525643 -50.904323 
L 264.211443 -50.793681 
L 264.897243 -50.685099 
L 265.583043 -50.578545 
L 266.268843 -50.473987 
L 266.954643 -50.371391 
L 267.640443 -50.270727 
L 268.326243 -50.171963 
L 269.012043 -50.075067 
L 269.697843 -49.980011 
L 270.383644 -49.886762 
L 271.069444 -49.795292 
L 271.755244 -49.705571 
L 272.441044 -49.61757 
L 273.126844 -49.531261 
L 273.812644 -49.446614 
L 274.498444 -49.363602 
L 275.184244 -49.282198 
L 275.870044 -49.202374 
L 276.555844 -49.124104 
L 277.241644 -49.04736 
L 277.927444 -48.972117 
L 278.613244 -48.89835 
L 279.299045 -48.826032 
L 279.984845 -48.755138 
L 280.670645 -48.685644 
L 281.356445 -48.617526 
L 282.042245 -48.550759 
L 282.728045 -48.48532 
L 283.413845 -48.421185 
L 284.099645 -48.358331 
L 284.785445 -48.296736 
L 285.471245 -48.236378 
L 286.157045 -48.177233 
L 286.842845 -48.119281 
L 287.528646 -48.062501 
L 288.214446 -48.00687 
L 288.900246 -47.952369 
L 289.586046 -47.898976 
L 290.271846 -47.846672 
L 290.957646 -47.795437 
L 291.643446 -47.745251 
L 292.329246 -47.696096 
L 293.015046 -47.647951 
L 293.700846 -47.600799 
L 294.386646 -47.554621 
L 295.072446 -47.509399 
L 295.758247 -47.465115 
L 296.444047 -47.421752 
L 297.129847 -47.379293 
L 297.815647 -47.33772 
L 298.501447 -47.297017 
L 299.187247 -47.257167 
L 299.873047 -47.218155 
L 300.558847 -47.179964 
L 301.244647 -47.142578 
L 301.930447 -47.105983 
L 302.616247 -47.070163 
L 303.302047 -47.035104 
L 303.987848 -47.00079 
L 304.673648 -46.967208 
L 305.359448 -46.934342 
L 306.045248 -46.90218 
L 306.731048 -46.870707 
L 307.416848 -46.839911 
L 308.102648 -46.809777 
L 308.788448 -46.780293 
L 309.474248 -46.751446 
L 310.160048 -46.723224 
L 310.845848 -46.695614 
L 311.531648 -46.668604 
L 312.217449 -46.642182 
L 312.903249 -46.616337 
L 313.589049 -46.591057 
L 314.274849 -46.56633 
L 314.960649 -46.542145 
L 315.646449 -46.518493 
L 316.332249 -46.495361 
L 317.018049 -46.472739 
L 317.703849 -46.450618 
L 318.389649 -46.428986 
L 319.075449 -46.407835 
L 319.761249 -46.387153 
L 320.44705 -46.366932 
L 321.13285 -46.347162 
L 321.81865 -46.327834 
L 322.50445 -46.308939 
L 323.19025 -46.290467 
L 323.87605 -46.272411 
L 324.56185 -46.25476 
L 325.24765 -46.237508 
L 325.93345 -46.220645 
L 326.61925 -46.204164 
L 327.30505 -46.188057 
L 327.99085 -46.172315 
L 328.676651 -46.156931 
L 329.362451 -46.141898 
L 330.048251 -46.127208 
L 330.734051 -46.112854 
L 331.419851 -46.098828 
L 331.419851 -45.536364 
L 331.419851 -45.536364 
L 330.734051 -45.536364 
L 330.048251 -45.536364 
L 329.362451 -45.536364 
L 328.676651 -45.536364 
L 327.99085 -45.536364 
L 327.30505 -45.536364 
L 326.61925 -45.536364 
L 325.93345 -45.536364 
L 325.24765 -45.536364 
L 324.56185 -45.536364 
L 323.87605 -45.536364 
L 323.19025 -45.536364 
L 322.50445 -45.536364 
L 321.81865 -45.536364 
L 321.13285 -45.536364 
L 320.44705 -45.536364 
L 319.761249 -45.536364 
L 319.075449 -45.536364 
L 318.389649 -45.536364 
L 317.703849 -45.536364 
L 317.018049 -45.536364 
L 316.332249 -45.536364 
L 315.646449 -45.536364 
L 314.960649 -45.536364 
L 314.274849 -45.536364 
L 313.589049 -45.536364 
L 312.903249 -45.536364 
L 312.217449 -45.536364 
L 311.531648 -45.536364 
L 310.845848 -45.536364 
L 310.160048 -45.536364 
L 309.474248 -45.536364 
L 308.788448 -45.536364 
L 308.102648 -45.536364 
L 307.416848 -45.536364 
L 306.731048 -45.536364 
L 306.045248 -45.536364 
L 305.359448 -45.536364 
L 304.673648 -45.536364 
L 303.987848 -45.536364 
L 303.302047 -45.536364 
L 302.616247 -45.536364 
L 301.930447 -45.536364 
L 301.244647 -45.536364 
L 300.558847 -45.536364 
L 299.873047 -45.536364 
L 299.187247 -45.536364 
L 298.501447 -45.536364 
L 297.815647 -45.536364 
L 297.129847 -45.536364 
L 296.444047 -45.536364 
L 295.758247 -45.536364 
L 295.072446 -45.536364 
L 294.386646 -45.536364 
L 293.700846 -45.536364 
L 293.015046 -45.536364 
L 292.329246 -45.536364 
L 291.643446 -45.536364 
L 290.957646 -45.536364 
L 290.271846 -45.536364 
L 289.586046 -45.536364 
L 288.900246 -45.536364 
L 288.214446 -45.536364 
L 287.528646 -45.536364 
L 286.842845 -45.536364 
L 286.157045 -45.536364 
L 285.471245 -45.536364 
L 284.785445 -45.536364 
L 284.099645 -45.536364 
L 283.413845 -45.536364 
L 282.728045 -45.536364 
L 282.042245 -45.536364 
L 281.356445 -45.536364 
L 280.670645 -45.536364 
L 279.984845 -45.536364 
L 279.299045 -45.536364 
L 278.613244 -45.536364 
L 277.927444 -45.536364 
L 277.241644 -45.536364 
L 276.555844 -45.536364 
L 275.870044 -45.536364 
L 275.184244 -45.536364 
L 274.498444 -45.536364 
L 273.812644 -45.536364 
L 273.126844 -45.536364 
L 272.441044 -45.536364 
L 271.755244 -45.536364 
L 271.069444 -45.536364 
L 270.383644 -45.536364 
L 269.697843 -45.536364 
L 269.012043 -45.536364 
L 268.326243 -45.536364 
L 267.640443 -45.536364 
L 266.954643 -45.536364 
L 266.268843 -45.536364 
L 265.583043 -45.536364 
L 264.897243 -45.536364 
L 264.211443 -45.536364 
L 263.525643 -45.536364 
L 262.839843 -45.536364 
L 262.154043 -45.536364 
L 261.468242 -45.536364 
L 260.782442 -45.536364 
L 260.096642 -45.536364 
L 259.410842 -45.536364 
L 258.725042 -45.536364 
L 258.039242 -45.536364 
L 257.353442 -45.536364 
L 256.667642 -45.536364 
L 255.981842 -45.536364 
L 255.296042 -45.536364 
L 254.610242 -45.536364 
L 253.924442 -45.536364 
L 253.238641 -45.536364 
L 252.552841 -45.536364 
L 251.867041 -45.536364 
L 251.181241 -45.536364 
L 250.495441 -45.536364 
L 249.809641 -45.536364 
L 249.123841 -45.536364 
L 248.438041 -45.536364 
L 247.752241 -45.536364 
L 247.066441 -45.536364 
L 246.380641 -45.536364 
L 245.694841 -45.536364 
L 245.00904 -45.536364 
L 244.32324 -45.536364 
L 243.63744 -45.536364 
L 242.95164 -45.536364 
L 242.26584 -45.536364 
L 241.58004 -45.536364 
L 240.89424 -45.536364 
L 240.20844 -45.536364 
L 239.52264 -45.536364 
L 238.83684 -45.536364 
L 238.15104 -45.536364 
L 237.46524 -45.536364 
L 236.779439 -45.536364 
L 236.093639 -45.536364 
L 235.407839 -45.536364 
L 234.722039 -45.536364 
L 234.036239 -45.536364 
L 233.350439 -45.536364 
L 232.664639 -45.536364 
L 231.978839 -45.536364 
L 231.293039 -45.536364 
L 230.607239 -45.536364 
L 229.921439 -45.536364 
L 229.235639 -45.536364 
L 228.549838 -45.536364 
L 227.864038 -45.536364 
L 227.178238 -45.536364 
L 226.492438 -45.536364 
L 225.806638 -45.536364 
L 225.120838 -45.536364 
L 224.435038 -45.536364 
L 223.749238 -45.536364 
L 223.063438 -45.536364 
L 222.377638 -45.536364 
L 221.691838 -45.536364 
L 221.006038 -45.536364 
L 220.320237 -45.536364 
L 219.634437 -45.536364 
L 218.948637 -45.536364 
L 218.262837 -45.536364 
L 217.577037 -45.536364 
L 216.891237 -45.536364 
L 216.205437 -45.536364 
L 215.519637 -45.536364 
L 214.833837 -45.536364 
L 214.148037 -45.536364 
L 213.462237 -45.536364 
L 212.776437 -45.536364 
L 212.090636 -45.536364 
L 211.404836 -45.536364 
L 210.719036 -45.536364 
L 210.033236 -45.536364 
L 209.347436 -45.536364 
L 208.661636 -45.536364 
L 207.975836 -45.536364 
L 207.290036 -45.536364 
L 206.604236 -45.536364 
L 205.918436 -45.536364 
L 205.232636 -45.536364 
L 204.546836 -45.536364 
L 203.861035 -45.536364 
L 203.175235 -45.536364 
L 202.489435 -45.536364 
L 201.803635 -45.536364 
L 201.117835 -45.536364 
L 200.432035 -45.536364 
L 199.746235 -45.536364 
L 199.060435 -45.536364 
L 198.374635 -45.536364 
L 197.688835 -45.536364 
L 197.003035 -45.536364 
L 196.317235 -45.536364 
L 195.631434 -45.536364 
L 194.945634 -45.536364 
L 194.259834 -45.536364 
L 193.574034 -45.536364 
L 192.888234 -45.536364 
L 192.202434 -45.536364 
L 191.516634 -45.536364 
L 190.830834 -45.536364 
L 190.145034 -45.536364 
L 189.459234 -45.536364 
L 188.773434 -45.536364 
L 188.087634 -45.536364 
L 187.401834 -45.536364 
L 186.716033 -45.536364 
L 186.030233 -45.536364 
L 185.344433 -45.536364 
L 184.658633 -45.536364 
L 183.972833 -45.536364 
L 183.287033 -45.536364 
L 182.601233 -45.536364 
L 181.915433 -45.536364 
L 181.229633 -45.536364 
L 180.543833 -45.536364 
L 179.858033 -45.536364 
L 179.172233 -45.536364 
L 178.486432 -45.536364 
L 177.800632 -45.536364 
L 177.114832 -45.536364 
L 176.429032 -45.536364 
L 175.743232 -45.536364 
L 175.057432 -45.536364 
L 174.371632 -45.536364 
L 173.685832 -45.536364 
L 173.000032 -45.536364 
L 172.314232 -45.536364 
L 171.628432 -45.536364 
L 170.942632 -45.536364 
L 170.256831 -45.536364 
L 169.571031 -45.536364 
L 168.885231 -45.536364 
L 168.199431 -45.536364 
L 167.513631 -45.536364 
L 166.827831 -45.536364 
L 166.142031 -45.536364 
L 165.456231 -45.536364 
L 164.770431 -45.536364 
L 164.084631 -45.536364 
L 163.398831 -45.536364 
L 162.713031 -45.536364 
L 162.02723 -45.536364 
L 161.34143 -45.536364 
L 160.65563 -45.536364 
L 159.96983 -45.536364 
L 159.28403 -45.536364 
L 158.59823 -45.536364 
L 157.91243 -45.536364 
L 157.22663 -45.536364 
L 156.54083 -45.536364 
L 155.85503 -45.536364 
L 155.16923 -45.536364 
L 154.48343 -45.536364 
L 153.797629 -45.536364 
L 153.111829 -45.536364 
L 152.426029 -45.536364 
L 151.740229 -45.536364 
L 151.054429 -45.536364 
L 150.368629 -45.536364 
L 149.682829 -45.536364 
L 148.997029 -45.536364 
L 148.311229 -45.536364 
L 147.625429 -45.536364 
L 146.939629 -45.536364 
L 146.253829 -45.536364 
L 145.568028 -45.536364 
L 144.882228 -45.536364 
L 144.196428 -45.536364 
L 143.510628 -45.536364 
L 142.824828 -45.536364 
L 142.139028 -45.536364 
L 141.453228 -45.536364 
L 140.767428 -45.536364 
L 140.081628 -45.536364 
L 139.395828 -45.536364 
L 138.710028 -45.536364 
L 138.024228 -45.536364 
L 137.338427 -45.536364 
L 136.652627 -45.536364 
L 135.966827 -45.536364 
L 135.281027 -45.536364 
L 134.595227 -45.536364 
L 133.909427 -45.536364 
L 133.223627 -45.536364 
L 132.537827 -45.536364 
L 131.852027 -45.536364 
L 131.166227 -45.536364 
L 130.480427 -45.536364 
L 129.794627 -45.536364 
L 129.108826 -45.536364 
L 128.423026 -45.536364 
L 127.737226 -45.536364 
L 127.051426 -45.536364 
L 126.365626 -45.536364 
L 125.679826 -45.536364 
L 124.994026 -45.536364 
L 124.308226 -45.536364 
L 123.622426 -45.536364 
L 122.936626 -45.536364 
L 122.250826 -45.536364 
L 121.565026 -45.536364 
L 120.879225 -45.536364 
L 120.193425 -45.536364 
L 119.507625 -45.536364 
L 118.821825 -45.536364 
L 118.136025 -45.536364 
L 117.450225 -45.536364 
L 116.764425 -45.536364 
L 116.078625 -45.536364 
L 115.392825 -45.536364 
L 114.707025 -45.536364 
L 114.021225 -45.536364 
L 113.335425 -45.536364 
L 112.649625 -45.536364 
L 111.963824 -45.536364 
L 111.278024 -45.536364 
L 110.592224 -45.536364 
L 109.906424 -45.536364 
L 109.220624 -45.536364 
L 108.534824 -45.536364 
L 107.849024 -45.536364 
L 107.163224 -45.536364 
L 106.477424 -45.536364 
L 105.791624 -45.536364 
L 105.105824 -45.536364 
L 104.420024 -45.536364 
L 103.734223 -45.536364 
L 103.048423 -45.536364 
L 102.362623 -45.536364 
L 101.676823 -45.536364 
L 100.991023 -45.536364 
L 100.305223 -45.536364 
L 99.619423 -45.536364 
L 98.933623 -45.536364 
L 98.247823 -45.536364 
L 97.562023 -45.536364 
L 96.876223 -45.536364 
L 96.190423 -45.536364 
L 95.504622 -45.536364 
L 94.818822 -45.536364 
L 94.133022 -45.536364 
L 93.447222 -45.536364 
L 92.761422 -45.536364 
L 92.075622 -45.536364 
L 91.389822 -45.536364 
L 90.704022 -45.536364 
L 90.018222 -45.536364 
L 89.332422 -45.536364 
L 88.646622 -45.536364 
L 87.960822 -45.536364 
L 87.275021 -45.536364 
L 86.589221 -45.536364 
L 85.903421 -45.536364 
L 85.217621 -45.536364 
L 84.531821 -45.536364 
L 83.846021 -45.536364 
L 83.160221 -45.536364 
L 82.474421 -45.536364 
L 81.788621 -45.536364 
L 81.102821 -45.536364 
L 80.417021 -45.536364 
L 79.731221 -45.536364 
L 79.04542 -45.536364 
L 78.35962 -45.536364 
L 77.67382 -45.536364 
L 76.98802 -45.536364 
L 76.30222 -45.536364 
L 75.61642 -45.536364 
L 74.93062 -45.536364 
L 74.24482 -45.536364 
L 73.55902 -45.536364 
L 72.87322 -45.536364 
L 72.18742 -45.536364 
L 71.50162 -45.536364 
L 70.815819 -45.536364 
L 70.130019 -45.536364 
L 69.444219 -45.536364 
L 68.758419 -45.536364 
L 68.072619 -45.536364 
L 67.386819 -45.536364 
L 66.701019 -45.536364 
L 66.015219 -45.536364 
L 65.329419 -45.536364 
L 64.643619 -45.536364 
L 63.957819 -45.536364 
L 63.272019 -45.536364 
L 62.586218 -45.536364 
L 61.900418 -45.536364 
L 61.214618 -45.536364 
L 60.528818 -45.536364 
L 59.843018 -45.536364 
L 59.157218 -45.536364 
L 58.471418 -45.536364 
L 57.785618 -45.536364 
z
" style="stroke: #4c78a8; stroke-opacity: 0.15"/>
    </defs>
    <g clip-path="url(#p6cc843cd52)">
     <use xlink:href="#m891aaec7c4" x="0" y="223.158281" style="fill: #4c78a8; fill-opacity: 0.15; stroke: #4c78a8; stroke-opacity: 0.15"/>
    </g>
   </g>
   <g id="matplotlib.axis_1">
    <g id="xtick_1">
     <g id="line2d_1">
      <path d="M 57.02886 184.958281 
L 57.02886 23.558281 
" clip-path="url(#p6cc843cd52)" style="fill: none; stroke: #b0b0b0; stroke-opacity: 0.25; stroke-width: 0.6; stroke-linecap: square"/>
     </g>
     <g id="line2d_2">
      <defs>
       <path id="mee2db0b61b" d="M 0 0 
L 0 3.5 
" style="stroke: #000000; stroke-width: 0.8"/>
      </defs>
      <g>
       <use xlink:href="#mee2db0b61b" x="57.02886" y="184.958281" style="stroke: #000000; stroke-width: 0.8"/>
      </g>
     </g>
     <g id="text_1">
      <!-- 0 -->
      <g transform="translate(53.84761 199.555938) scale(0.1 -0.1)">
       <defs>
        <path id="DejaVuSans-13" d="M 2034 4250 
Q 1547 4250 1301 3770 
Q 1056 3291 1056 2328 
Q 1056 1369 1301 889 
Q 1547 409 2034 409 
Q 2525 409 2770 889 
Q 3016 1369 3016 2328 
Q 3016 3291 2770 3770 
Q 2525 4250 2034 4250 
z
M 2034 4750 
Q 2819 4750 3233 4129 
Q 3647 3509 3647 2328 
Q 3647 1150 3233 529 
Q 2819 -91 2034 -91 
Q 1250 -91 836 529 
Q 422 1150 422 2328 
Q 422 3509 836 4129 
Q 1250 4750 2034 4750 
z
" transform="scale(0.015625)"/>
       </defs>
       <use xlink:href="#DejaVuSans-13"/>
      </g>
     </g>
    </g>
    <g id="xtick_2">
     <g id="line2d_3">
      <path d="M 94.854118 184.958281 
L 94.854118 23.558281 
" clip-path="url(#p6cc843cd52)" style="fill: none; stroke: #b0b0b0; stroke-opacity: 0.25; stroke-width: 0.6; stroke-linecap: square"/>
     </g>
     <g id="line2d_4">
      <g>
       <use xlink:href="#mee2db0b61b" x="94.854118" y="184.958281" style="stroke: #000000; stroke-width: 0.8"/>
      </g>
     </g>
     <g id="text_2">
      <!-- 1 -->
      <g transform="translate(91.672868 199.555938) scale(0.1 -0.1)">
       <defs>
        <path id="DejaVuSans-14" d="M 794 531 
L 1825 531 
L 1825 4091 
L 703 3866 
L 703 4441 
L 1819 4666 
L 2450 4666 
L 2450 531 
L 3481 531 
L 3481 0 
L 794 0 
L 794 531 
z
" transform="scale(0.015625)"/>
       </defs>
       <use xlink:href="#DejaVuSans-14"/>
      </g>
     </g>
    </g>
    <g id="xtick_3">
     <g id="line2d_5">
      <path d="M 132.679375 184.958281 
L 132.679375 23.558281 
" clip-path="url(#p6cc843cd52)" style="fill: none; stroke: #b0b0b0; stroke-opacity: 0.25; stroke-width: 0.6; stroke-linecap: square"/>
     </g>
     <g id="line2d_6">
      <g>
       <use xlink:href="#mee2db0b61b" x="132.679375" y="184.958281" style="stroke: #000000; stroke-width: 0.8"/>
      </g>
     </g>
     <g id="text_3">
      <!-- 2 -->
      <g transform="translate(129.498125 199.555938) scale(0.1 -0.1)">
       <defs>
        <path id="DejaVuSans-15" d="M 1228 531 
L 3431 531 
L 3431 0 
L 469 0 
L 469 531 
Q 828 903 1448 1529 
Q 2069 2156 2228 2338 
Q 2531 2678 2651 2914 
Q 2772 3150 2772 3378 
Q 2772 3750 2511 3984 
Q 2250 4219 1831 4219 
Q 1534 4219 1204 4116 
Q 875 4013 500 3803 
L 500 4441 
Q 881 4594 1212 4672 
Q 1544 4750 1819 4750 
Q 2544 4750 2975 4387 
Q 3406 4025 3406 3419 
Q 3406 3131 3298 2873 
Q 3191 2616 2906 2266 
Q 2828 2175 2409 1742 
Q 1991 1309 1228 531 
z
" transform="scale(0.015625)"/>
       </defs>
       <use xlink:href="#DejaVuSans-15"/>
      </g>
     </g>
    </g>
    <g id="xtick_4">
     <g id="line2d_7">
      <path d="M 170.504632 184.958281 
L 170.504632 23.558281 
" clip-path="url(#p6cc843cd52)" style="fill: none; stroke: #b0b0b0; stroke-opacity: 0.25; stroke-width: 0.6; stroke-linecap: square"/>
     </g>
     <g id="line2d_8">
      <g>
       <use xlink:href="#mee2db0b61b" x="170.504632" y="184.958281" style="stroke: #000000; stroke-width: 0.8"/>
      </g>
     </g>
     <g id="text_4">
      <!-- 3 -->
      <g transform="translate(167.323382 199.555938) scale(0.1 -0.1)">
       <defs>
        <path id="DejaVuSans-16" d="M 2597 2516 
Q 3050 2419 3304 2112 
Q 3559 1806 3559 1356 
Q 3559 666 3084 287 
Q 2609 -91 1734 -91 
Q 1441 -91 1130 -33 
Q 819 25 488 141 
L 488 750 
Q 750 597 1062 519 
Q 1375 441 1716 441 
Q 2309 441 2620 675 
Q 2931 909 2931 1356 
Q 2931 1769 2642 2001 
Q 2353 2234 1838 2234 
L 1294 2234 
L 1294 2753 
L 1863 2753 
Q 2328 2753 2575 2939 
Q 2822 3125 2822 3475 
Q 2822 3834 2567 4026 
Q 2313 4219 1838 4219 
Q 1578 4219 1281 4162 
Q 984 4106 628 3988 
L 628 4550 
Q 988 4650 1302 4700 
Q 1616 4750 1894 4750 
Q 2613 4750 3031 4423 
Q 3450 4097 3450 3541 
Q 3450 3153 3228 2886 
Q 3006 2619 2597 2516 
z
" transform="scale(0.015625)"/>
       </defs>
       <use xlink:href="#DejaVuSans-16"/>
      </g>
     </g>
    </g>
    <g id="xtick_5">
     <g id="line2d_9">
      <path d="M 208.329889 184.958281 
L 208.329889 23.558281 
" clip-path="url(#p6cc843cd52)" style="fill: none; stroke: #b0b0b0; stroke-opacity: 0.25; stroke-width: 0.6; stroke-linecap: square"/>
     </g>
     <g id="line2d_10">
      <g>
       <use xlink:href="#mee2db0b61b" x="208.329889" y="184.958281" style="stroke: #000000; stroke-width: 0.8"/>
      </g>
     </g>
     <g id="text_5">
      <!-- 4 -->
      <g transform="translate(205.148639 199.555938) scale(0.1 -0.1)">
       <defs>
        <path id="DejaVuSans-17" d="M 2419 4116 
L 825 1625 
L 2419 1625 
L 2419 4116 
z
M 2253 4666 
L 3047 4666 
L 3047 1625 
L 3713 1625 
L 3713 1100 
L 3047 1100 
L 3047 0 
L 2419 0 
L 2419 1100 
L 313 1100 
L 313 1709 
L 2253 4666 
z
" transform="scale(0.015625)"/>
       </defs>
       <use xlink:href="#DejaVuSans-17"/>
      </g>
     </g>
    </g>
    <g id="xtick_6">
     <g id="line2d_11">
      <path d="M 246.155146 184.958281 
L 246.155146 23.558281 
" clip-path="url(#p6cc843cd52)" style="fill: none; stroke: #b0b0b0; stroke-opacity: 0.25; stroke-width: 0.6; stroke-linecap: square"/>
     </g>
     <g id="line2d_12">
      <g>
       <use xlink:href="#mee2db0b61b" x="246.155146" y="184.958281" style="stroke: #000000; stroke-width: 0.8"/>
      </g>
     </g>
     <g id="text_6">
      <!-- 5 -->
      <g transform="translate(242.973896 199.555938) scale(0.1 -0.1)">
       <defs>
        <path id="DejaVuSans-18" d="M 691 4666 
L 3169 4666 
L 3169 4134 
L 1269 4134 
L 1269 2991 
Q 1406 3038 1543 3061 
Q 1681 3084 1819 3084 
Q 2600 3084 3056 2656 
Q 3513 2228 3513 1497 
Q 3513 744 3044 326 
Q 2575 -91 1722 -91 
Q 1428 -91 1123 -41 
Q 819 9 494 109 
L 494 744 
Q 775 591 1075 516 
Q 1375 441 1709 441 
Q 2250 441 2565 725 
Q 2881 1009 2881 1497 
Q 2881 1984 2565 2268 
Q 2250 2553 1709 2553 
Q 1456 2553 1204 2497 
Q 953 2441 691 2322 
L 691 4666 
z
" transform="scale(0.015625)"/>
       </defs>
       <use xlink:href="#DejaVuSans-18"/>
      </g>
     </g>
    </g>
    <g id="xtick_7">
     <g id="line2d_13">
      <path d="M 283.980403 184.958281 
L 283.980403 23.558281 
" clip-path="url(#p6cc843cd52)" style="fill: none; stroke: #b0b0b0; stroke-opacity: 0.25; stroke-width: 0.6; stroke-linecap: square"/>
     </g>
     <g id="line2d_14">
      <g>
       <use xlink:href="#mee2db0b61b" x="283.980403" y="184.958281" style="stroke: #000000; stroke-width: 0.8"/>
      </g>
     </g>
     <g id="text_7">
      <!-- 6 -->
      <g transform="translate(280.799153 199.555938) scale(0.1 -0.1)">
       <defs>
        <path id="DejaVuSans-19" d="M 2113 2584 
Q 1688 2584 1439 2293 
Q 1191 2003 1191 1497 
Q 1191 994 1439 701 
Q 1688 409 2113 409 
Q 2538 409 2786 701 
Q 3034 994 3034 1497 
Q 3034 2003 2786 2293 
Q 2538 2584 2113 2584 
z
M 3366 4563 
L 3366 3988 
Q 3128 4100 2886 4159 
Q 2644 4219 2406 4219 
Q 1781 4219 1451 3797 
Q 1122 3375 1075 2522 
Q 1259 2794 1537 2939 
Q 1816 3084 2150 3084 
Q 2853 3084 3261 2657 
Q 3669 2231 3669 1497 
Q 3669 778 3244 343 
Q 2819 -91 2113 -91 
Q 1303 -91 875 529 
Q 447 1150 447 2328 
Q 447 3434 972 4092 
Q 1497 4750 2381 4750 
Q 2619 4750 2861 4703 
Q 3103 4656 3366 4563 
z
" transform="scale(0.015625)"/>
       </defs>
       <use xlink:href="#DejaVuSans-19"/>
      </g>
     </g>
    </g>
    <g id="xtick_8">
     <g id="line2d_15">
      <path d="M 321.805661 184.958281 
L 321.805661 23.558281 
" clip-path="url(#p6cc843cd52)" style="fill: none; stroke: #b0b0b0; stroke-opacity: 0.25; stroke-width: 0.6; stroke-linecap: square"/>
     </g>
     <g id="line2d_16">
      <g>
       <use xlink:href="#mee2db0b61b" x="321.805661" y="184.958281" style="stroke: #000000; stroke-width: 0.8"/>
      </g>
     </g>
     <g id="text_8">
      <!-- 7 -->
      <g transform="translate(318.624411 199.555938) scale(0.1 -0.1)">
       <defs>
        <path id="DejaVuSans-1a" d="M 525 4666 
L 3525 4666 
L 3525 4397 
L 1831 0 
L 1172 0 
L 2766 4134 
L 525 4134 
L 525 4666 
z
" transform="scale(0.015625)"/>
       </defs>
       <use xlink:href="#DejaVuSans-1a"/>
      </g>
     </g>
    </g>
    <g id="text_9">
     <!-- x -->
     <g transform="translate(191.643359 213.555938) scale(0.1 -0.1)">
      <defs>
       <path id="DejaVuSans-5b" d="M 3513 3500 
L 2247 1797 
L 3578 0 
L 2900 0 
L 1881 1375 
L 863 0 
L 184 0 
L 1544 1831 
L 300 3500 
L 978 3500 
L 1906 2253 
L 2834 3500 
L 3513 3500 
z
" transform="scale(0.015625)"/>
      </defs>
      <use xlink:href="#DejaVuSans-5b"/>
     </g>
    </g>
   </g>
   <g id="matplotlib.axis_2">
    <g id="ytick_1">
     <g id="line2d_17">
      <path d="M 44.103906 177.621918 
L 345.101562 177.621918 
" clip-path="url(#p6cc843cd52)" style="fill: none; stroke: #b0b0b0; stroke-opacity: 0.25; stroke-width: 0.6; stroke-linecap: square"/>
     </g>
     <g id="line2d_18">
      <defs>
       <path id="mde7b8b3bfe" d="M 0 0 
L -3.5 0 
" style="stroke: #000000; stroke-width: 0.8"/>
      </defs>
      <g>
       <use xlink:href="#mde7b8b3bfe" x="44.103906" y="177.621918" style="stroke: #000000; stroke-width: 0.8"/>
      </g>
     </g>
     <g id="text_10">
      <!-- 0.0 -->
      <g transform="translate(21.200781 181.420746) scale(0.1 -0.1)">
       <defs>
        <path id="DejaVuSans-11" d="M 684 794 
L 1344 794 
L 1344 0 
L 684 0 
L 684 794 
z
" transform="scale(0.015625)"/>
       </defs>
       <use xlink:href="#DejaVuSans-13"/>
       <use xlink:href="#DejaVuSans-11" transform="translate(63.625 0)"/>
       <use xlink:href="#DejaVuSans-13" transform="translate(95.40625 0)"/>
      </g>
     </g>
    </g>
    <g id="ytick_2">
     <g id="line2d_19">
      <path d="M 44.103906 138.243784 
L 345.101562 138.243784 
" clip-path="url(#p6cc843cd52)" style="fill: none; stroke: #b0b0b0; stroke-opacity: 0.25; stroke-width: 0.6; stroke-linecap: square"/>
     </g>
     <g id="line2d_20">
      <g>
       <use xlink:href="#mde7b8b3bfe" x="44.103906" y="138.243784" style="stroke: #000000; stroke-width: 0.8"/>
      </g>
     </g>
     <g id="text_11">
      <!-- 0.1 -->
      <g transform="translate(21.200781 142.042612) scale(0.1 -0.1)">
       <use xlink:href="#DejaVuSans-13"/>
       <use xlink:href="#DejaVuSans-11" transform="translate(63.625 0)"/>
       <use xlink:href="#DejaVuSans-14" transform="translate(95.40625 0)"/>
      </g>
     </g>
    </g>
    <g id="ytick_3">
     <g id="line2d_21">
      <path d="M 44.103906 98.865651 
L 345.101562 98.865651 
" clip-path="url(#p6cc843cd52)" style="fill: none; stroke: #b0b0b0; stroke-opacity: 0.25; stroke-width: 0.6; stroke-linecap: square"/>
     </g>
     <g id="line2d_22">
      <g>
       <use xlink:href="#mde7b8b3bfe" x="44.103906" y="98.865651" style="stroke: #000000; stroke-width: 0.8"/>
      </g>
     </g>
     <g id="text_12">
      <!-- 0.2 -->
      <g transform="translate(21.200781 102.664479) scale(0.1 -0.1)">
       <use xlink:href="#DejaVuSans-13"/>
       <use xlink:href="#DejaVuSans-11" transform="translate(63.625 0)"/>
       <use xlink:href="#DejaVuSans-15" transform="translate(95.40625 0)"/>
      </g>
     </g>
    </g>
    <g id="ytick_4">
     <g id="line2d_23">
      <path d="M 44.103906 59.487517 
L 345.101562 59.487517 
" clip-path="url(#p6cc843cd52)" style="fill: none; stroke: #b0b0b0; stroke-opacity: 0.25; stroke-width: 0.6; stroke-linecap: square"/>
     </g>
     <g id="line2d_24">
      <g>
       <use xlink:href="#mde7b8b3bfe" x="44.103906" y="59.487517" style="stroke: #000000; stroke-width: 0.8"/>
      </g>
     </g>
     <g id="text_13">
      <!-- 0.3 -->
      <g transform="translate(21.200781 63.286345) scale(0.1 -0.1)">
       <use xlink:href="#DejaVuSans-13"/>
       <use xlink:href="#DejaVuSans-11" transform="translate(63.625 0)"/>
       <use xlink:href="#DejaVuSans-16" transform="translate(95.40625 0)"/>
      </g>
     </g>
    </g>
    <g id="text_14">
     <!-- f(x) -->
     <g transform="translate(14.798438 112.879375) rotate(-90) scale(0.1 -0.1)">
      <defs>
       <path id="DejaVuSans-49" d="M 2375 4863 
L 2375 4384 
L 1825 4384 
Q 1516 4384 1395 4259 
Q 1275 4134 1275 3809 
L 1275 3500 
L 2222 3500 
L 2222 3053 
L 1275 3053 
L 1275 0 
L 697 0 
L 697 3053 
L 147 3053 
L 147 3500 
L 697 3500 
L 697 3744 
Q 697 4328 969 4595 
Q 1241 4863 1831 4863 
L 2375 4863 
z
" transform="scale(0.015625)"/>
       <path id="DejaVuSans-b" d="M 1984 4856 
Q 1566 4138 1362 3434 
Q 1159 2731 1159 2009 
Q 1159 1288 1364 580 
Q 1569 -128 1984 -844 
L 1484 -844 
Q 1016 -109 783 600 
Q 550 1309 550 2009 
Q 550 2706 781 3412 
Q 1013 4119 1484 4856 
L 1984 4856 
z
" transform="scale(0.015625)"/>
       <path id="DejaVuSans-c" d="M 513 4856 
L 1013 4856 
Q 1481 4119 1714 3412 
Q 1947 2706 1947 2009 
Q 1947 1309 1714 600 
Q 1481 -109 1013 -844 
L 513 -844 
Q 928 -128 1133 580 
Q 1338 1288 1338 2009 
Q 1338 2731 1133 3434 
Q 928 4138 513 4856 
z
" transform="scale(0.015625)"/>
      </defs>
      <use xlink:href="#DejaVuSans-49"/>
      <use xlink:href="#DejaVuSans-b" transform="translate(35.203125 0)"/>
      <use xlink:href="#DejaVuSans-5b" transform="translate(74.21875 0)"/>
      <use xlink:href="#DejaVuSans-c" transform="translate(133.40625 0)"/>
     </g>
    </g>
   </g>
   <g id="line2d_25">
    <path d="M 57.785618 148.112931 
L 58.471418 136.946367 
L 59.843018 121.067215 
L 61.214618 109.050178 
L 62.586218 99.153017 
L 63.957819 90.684641 
L 65.329419 83.285425 
L 66.701019 76.738918 
L 68.758419 68.2171 
L 70.815819 60.979593 
L 72.87322 54.815669 
L 74.93062 49.576156 
L 76.98802 45.149016 
L 79.04542 41.446131 
L 81.102821 38.395595 
L 82.474421 36.694096 
L 83.846021 35.239745 
L 85.217621 34.018149 
L 86.589221 33.016053 
L 87.960822 32.221166 
L 89.332422 31.622023 
L 90.704022 31.207877 
L 92.075622 30.968607 
L 93.447222 30.894645 
L 94.818822 30.97692 
L 96.876223 31.374516 
L 98.933623 32.07688 
L 100.991023 33.058357 
L 103.048423 34.294892 
L 105.105824 35.763875 
L 107.849024 38.047474 
L 110.592224 40.659446 
L 113.335425 43.556153 
L 116.764425 47.516188 
L 120.879225 52.671108 
L 125.679826 59.100373 
L 131.852027 67.787373 
L 153.111829 98.079694 
L 159.28403 106.292929 
L 164.770431 113.211292 
L 169.571031 118.934616 
L 174.371632 124.33019 
L 179.172233 129.387343 
L 183.972833 134.1019 
L 188.773434 138.475116 
L 193.574034 142.512714 
L 198.374635 146.224009 
L 203.175235 149.621132 
L 207.975836 152.718352 
L 212.776437 155.531472 
L 217.577037 158.077314 
L 222.377638 160.373288 
L 227.178238 162.437017 
L 232.664639 164.533661 
L 238.15104 166.375474 
L 243.63744 167.987132 
L 249.809641 169.554301 
L 255.981842 170.891106 
L 262.839843 172.141223 
L 270.383644 173.271519 
L 278.613244 174.259932 
L 287.528646 175.095781 
L 297.815647 175.820561 
L 309.474248 176.406835 
L 323.19025 176.867814 
L 331.419851 177.059453 
L 331.419851 177.059453 
" clip-path="url(#p6cc843cd52)" style="fill: none; stroke: #4c78a8; stroke-width: 2; stroke-linecap: square"/>
   </g>
   <g id="patch_3">
    <path d="M 44.103906 184.958281 
L 44.103906 23.558281 
" style="fill: none; stroke: #000000; stroke-width: 0.8; stroke-linejoin: miter; stroke-linecap: square"/>
   </g>
   <g id="patch_4">
    <path d="M 44.103906 184.958281 
L 345.101562 184.958281 
" style="fill: none; stroke: #000000; stroke-width: 0.8; stroke-linejoin: miter; stroke-linecap: square"/>
   </g>
   <g id="text_15">
    <!-- Weibull -->
    <g transform="translate(174.541484 15.558281) scale(0.11 -0.11)">
     <defs>
      <path id="DejaVuSans-3a" d="M 213 4666 
L 850 4666 
L 1831 722 
L 2809 4666 
L 3519 4666 
L 4500 722 
L 5478 4666 
L 6119 4666 
L 4947 0 
L 4153 0 
L 3169 4050 
L 2175 0 
L 1381 0 
L 213 4666 
z
" transform="scale(0.015625)"/>
      <path id="DejaVuSans-48" d="M 3597 1894 
L 3597 1613 
L 953 1613 
Q 991 1019 1311 708 
Q 1631 397 2203 397 
Q 2534 397 2845 478 
Q 3156 559 3463 722 
L 3463 178 
Q 3153 47 2828 -22 
Q 2503 -91 2169 -91 
Q 1331 -91 842 396 
Q 353 884 353 1716 
Q 353 2575 817 3079 
Q 1281 3584 2069 3584 
Q 2775 3584 3186 3129 
Q 3597 2675 3597 1894 
z
M 3022 2063 
Q 3016 2534 2758 2815 
Q 2500 3097 2075 3097 
Q 1594 3097 1305 2825 
Q 1016 2553 972 2059 
L 3022 2063 
z
" transform="scale(0.015625)"/>
      <path id="DejaVuSans-4c" d="M 603 3500 
L 1178 3500 
L 1178 0 
L 603 0 
L 603 3500 
z
M 603 4863 
L 1178 4863 
L 1178 4134 
L 603 4134 
L 603 4863 
z
" transform="scale(0.015625)"/>
      <path id="DejaVuSans-45" d="M 3116 1747 
Q 3116 2381 2855 2742 
Q 2594 3103 2138 3103 
Q 1681 3103 1420 2742 
Q 1159 2381 1159 1747 
Q 1159 1113 1420 752 
Q 1681 391 2138 391 
Q 2594 391 2855 752 
Q 3116 1113 3116 1747 
z
M 1159 2969 
Q 1341 3281 1617 3432 
Q 1894 3584 2278 3584 
Q 2916 3584 3314 3078 
Q 3713 2572 3713 1747 
Q 3713 922 3314 415 
Q 2916 -91 2278 -91 
Q 1894 -91 1617 61 
Q 1341 213 1159 525 
L 1159 0 
L 581 0 
L 581 4863 
L 1159 4863 
L 1159 2969 
z
" transform="scale(0.015625)"/>
      <path id="DejaVuSans-58" d="M 544 1381 
L 544 3500 
L 1119 3500 
L 1119 1403 
Q 1119 906 1312 657 
Q 1506 409 1894 409 
Q 2359 409 2629 706 
Q 2900 1003 2900 1516 
L 2900 3500 
L 3475 3500 
L 3475 0 
L 2900 0 
L 2900 538 
Q 2691 219 2414 64 
Q 2138 -91 1772 -91 
Q 1169 -91 856 284 
Q 544 659 544 1381 
z
M 1991 3584 
L 1991 3584 
z
" transform="scale(0.015625)"/>
      <path id="DejaVuSans-4f" d="M 603 4863 
L 1178 4863 
L 1178 0 
L 603 0 
L 603 4863 
z
" transform="scale(0.015625)"/>
     </defs>
     <use xlink:href="#DejaVuSans-3a"/>
     <use xlink:href="#DejaVuSans-48" transform="translate(93.015625 0)"/>
     <use xlink:href="#DejaVuSans-4c" transform="translate(154.546875 0)"/>
     <use xlink:href="#DejaVuSans-45" transform="translate(182.328125 0)"/>
     <use xlink:href="#DejaVuSans-58" transform="translate(245.8125 0)"/>
     <use xlink:href="#DejaVuSans-4f" transform="translate(309.1875 0)"/>
     <use xlink:href="#DejaVuSans-4f" transform="translate(336.96875 0)"/>
    </g>
   </g>
  </g>
 </g>
 <defs>
  <clipPath id="p6cc843cd52">
   <rect x="44.103906" y="23.558281" width="300.997656" height="161.4"/>
  </clipPath>
 </defs>
</svg>
