<?xml version="1.0" encoding="utf-8" standalone="no"?>
<!DOCTYPE svg PUBLIC "-//W3C//DTD SVG 1.1//EN"
  "http://www.w3.org/Graphics/SVG/1.1/DTD/svg11.dtd">
<svg xmlns:xlink="http://www.w3.org/1999/xlink" width="352.064062pt" height="223.158281pt" viewBox="0 0 352.064062 223.158281" xmlns="http://www.w3.org/2000/svg" version="1.1">
 <metadata>
  <rdf:RDF xmlns:dc="http://purl.org/dc/elements/1.1/" xmlns:cc="http://creativecommons.org/ns#" xmlns:rdf="http://www.w3.org/1999/02/22-rdf-syntax-ns#">
   <cc:Work>
    <dc:type rdf:resource="http://purl.org/dc/dcmitype/StillImage"/>
    <dc:date>2026-07-05T02:24:31.067976</dc:date>
    <dc:format>image/svg+xml</dc:format>
    <dc:creator>
     <cc:Agent>
      <dc:title>Matplotlib v3.11.0, https://matplotlib.org/</dc:title>
     </cc:Agent>
    </dc:creator>
   </cc:Work>
  </rdf:RDF>
 </metadata>
 <defs>
  <style type="text/css">*{stroke-linejoin: round; stroke-linecap: butt}</style>
 </defs>
 <g id="figure_1">
  <g id="patch_1">
   <path d="M 0 223.158281 
L 352.064062 223.158281 
L 352.064062 0 
L 0 0 
z
" style="fill: #ffffff"/>
  </g>
  <g id="axes_1">
   <g id="patch_2">
    <path d="M 50.466406 184.958281 
L 344.864062 184.958281 
L 344.864062 23.558281 
L 50.466406 23.558281 
z
" style="fill: #ffffff"/>
   </g>
   <g id="FillBetweenPolyCollection_1">
    <defs>
     <path id="m5d2ca0a977" d="M 63.848118 -45.536364 
L 63.848118 -70.066432 
L 64.51888 -74.014354 
L 65.189643 -77.461526 
L 65.860405 -80.556136 
L 66.531168 -83.384762 
L 67.20193 -86.00322 
L 67.872693 -88.449999 
L 68.543455 -90.752977 
L 69.214218 -92.933119 
L 69.88498 -95.00667 
L 70.555743 -96.986518 
L 71.226505 -98.883096 
L 71.897268 -100.704994 
L 72.56803 -102.459382 
L 73.238793 -104.152323 
L 73.909555 -105.788996 
L 74.580318 -107.37387 
L 75.25108 -108.91083 
L 75.921843 -110.403283 
L 76.592605 -111.854233 
L 77.263368 -113.266348 
L 77.93413 -114.642008 
L 78.604893 -115.98335 
L 79.275655 -117.292297 
L 79.946418 -118.570592 
L 80.61718 -119.819817 
L 81.287943 -121.041414 
L 81.958705 -122.236705 
L 82.629468 -123.406899 
L 83.30023 -124.553114 
L 83.970993 -125.676376 
L 84.641755 -126.777639 
L 85.312518 -127.857784 
L 85.98328 -128.917634 
L 86.654043 -129.957952 
L 87.324805 -130.979452 
L 87.995567 -131.982801 
L 88.66633 -132.968623 
L 89.337092 -133.937505 
L 90.007855 -134.889999 
L 90.678617 -135.826622 
L 91.34938 -136.747864 
L 92.020142 -137.654186 
L 92.690905 -138.546024 
L 93.361667 -139.423791 
L 94.03243 -140.287879 
L 94.703192 -141.138658 
L 95.373955 -141.976479 
L 96.044717 -142.801679 
L 96.71548 -143.614576 
L 97.386242 -144.415473 
L 98.057005 -145.204659 
L 98.727767 -145.98241 
L 99.39853 -146.748991 
L 100.069292 -147.504652 
L 100.740055 -148.249636 
L 101.410817 -148.984172 
L 102.08158 -149.708482 
L 102.752342 -150.422777 
L 103.423105 -151.127262 
L 104.093867 -151.82213 
L 104.76463 -152.507569 
L 105.435392 -153.183759 
L 106.106155 -153.850875 
L 106.776917 -154.509081 
L 107.44768 -155.158539 
L 108.118442 -155.799403 
L 108.789205 -156.431823 
L 109.459967 -157.055942 
L 110.13073 -157.671898 
L 110.801492 -158.279826 
L 111.472255 -158.879854 
L 112.143017 -159.472107 
L 112.81378 -160.056707 
L 113.484542 -160.633769 
L 114.155305 -161.203406 
L 114.826067 -161.765728 
L 115.49683 -162.32084 
L 116.167592 -162.868845 
L 116.838354 -163.409842 
L 117.509117 -163.943926 
L 118.179879 -164.471191 
L 118.850642 -164.991727 
L 119.521404 -165.505622 
L 120.192167 -166.012961 
L 120.862929 -166.513826 
L 121.533692 -167.008297 
L 122.204454 -167.496453 
L 122.875217 -167.978368 
L 123.545979 -168.454116 
L 124.216742 -168.923768 
L 124.887504 -169.387395 
L 125.558267 -169.845062 
L 126.229029 -170.296836 
L 126.899792 -170.74278 
L 127.570554 -171.182957 
L 128.241317 -171.617427 
L 128.912079 -172.046249 
L 129.582842 -172.46948 
L 130.253604 -172.887175 
L 130.924367 -173.29939 
L 131.595129 -173.706177 
L 132.265892 -174.107586 
L 132.936654 -174.50367 
L 133.607417 -174.894476 
L 134.278179 -175.280053 
L 134.948942 -175.660446 
L 135.619704 -176.035702 
L 136.290467 -176.405863 
L 136.961229 -176.770974 
L 137.631992 -177.131077 
L 138.302754 -177.486212 
L 138.973517 -177.836419 
L 139.644279 -178.181738 
L 140.315042 -178.522206 
L 140.985804 -178.857861 
L 141.656567 -179.188739 
L 142.327329 -179.514875 
L 142.998092 -179.836305 
L 143.668854 -180.153061 
L 144.339617 -180.465176 
L 145.010379 -180.772683 
L 145.681142 -181.075613 
L 146.351904 -181.373997 
L 147.022666 -181.667865 
L 147.693429 -181.957245 
L 148.364191 -182.242166 
L 149.034954 -182.522656 
L 149.705716 -182.798743 
L 150.376479 -183.070452 
L 151.047241 -183.33781 
L 151.718004 -183.600842 
L 152.388766 -183.859573 
L 153.059529 -184.114026 
L 153.730291 -184.364225 
L 154.401054 -184.610194 
L 155.071816 -184.851954 
L 155.742579 -185.089527 
L 156.413341 -185.322936 
L 157.084104 -185.5522 
L 157.754866 -185.77734 
L 158.425629 -185.998375 
L 159.096391 -186.215326 
L 159.767154 -186.428211 
L 160.437916 -186.637048 
L 161.108679 -186.841856 
L 161.779441 -187.042651 
L 162.450204 -187.239451 
L 163.120966 -187.432273 
L 163.791729 -187.621132 
L 164.462491 -187.806045 
L 165.133254 -187.987027 
L 165.804016 -188.164093 
L 166.474779 -188.337257 
L 167.145541 -188.506534 
L 167.816304 -188.671937 
L 168.487066 -188.833479 
L 169.157829 -188.991175 
L 169.828591 -189.145036 
L 170.499354 -189.295075 
L 171.170116 -189.441303 
L 171.840879 -189.583733 
L 172.511641 -189.722376 
L 173.182404 -189.857242 
L 173.853166 -189.988342 
L 174.523929 -190.115687 
L 175.194691 -190.239286 
L 175.865453 -190.359149 
L 176.536216 -190.475284 
L 177.206978 -190.587702 
L 177.877741 -190.696411 
L 178.548503 -190.801419 
L 179.219266 -190.902734 
L 179.890028 -191.000363 
L 180.560791 -191.094315 
L 181.231553 -191.184596 
L 181.902316 -191.271213 
L 182.573078 -191.354173 
L 183.243841 -191.433482 
L 183.914603 -191.509146 
L 184.585366 -191.58117 
L 185.256128 -191.64956 
L 185.926891 -191.714321 
L 186.597653 -191.775458 
L 187.268416 -191.832975 
L 187.939178 -191.886877 
L 188.609941 -191.937168 
L 189.280703 -191.983851 
L 189.951466 -192.026929 
L 190.622228 -192.066407 
L 191.292991 -192.102287 
L 191.963753 -192.134571 
L 192.634516 -192.163262 
L 193.305278 -192.188362 
L 193.976041 -192.209873 
L 194.646803 -192.227796 
L 195.317566 -192.242133 
L 195.988328 -192.252885 
L 196.659091 -192.260053 
L 197.329853 -192.263636 
L 198.000616 -192.263636 
L 198.671378 -192.260053 
L 199.342141 -192.252885 
L 200.012903 -192.242133 
L 200.683666 -192.227796 
L 201.354428 -192.209873 
L 202.025191 -192.188362 
L 202.695953 -192.163262 
L 203.366716 -192.134571 
L 204.037478 -192.102287 
L 204.708241 -192.066407 
L 205.379003 -192.026929 
L 206.049765 -191.983851 
L 206.720528 -191.937168 
L 207.39129 -191.886877 
L 208.062053 -191.832975 
L 208.732815 -191.775458 
L 209.403578 -191.714321 
L 210.07434 -191.64956 
L 210.745103 -191.58117 
L 211.415865 -191.509146 
L 212.086628 -191.433482 
L 212.75739 -191.354173 
L 213.428153 -191.271213 
L 214.098915 -191.184596 
L 214.769678 -191.094315 
L 215.44044 -191.000363 
L 216.111203 -190.902734 
L 216.781965 -190.801419 
L 217.452728 -190.696411 
L 218.12349 -190.587702 
L 218.794253 -190.475284 
L 219.465015 -190.359149 
L 220.135778 -190.239286 
L 220.80654 -190.115687 
L 221.477303 -189.988342 
L 222.148065 -189.857242 
L 222.818828 -189.722376 
L 223.48959 -189.583733 
L 224.160353 -189.441303 
L 224.831115 -189.295075 
L 225.501878 -189.145036 
L 226.17264 -188.991175 
L 226.843403 -188.833479 
L 227.514165 -188.671937 
L 228.184928 -188.506534 
L 228.85569 -188.337257 
L 229.526453 -188.164093 
L 230.197215 -187.987027 
L 230.867978 -187.806045 
L 231.53874 -187.621132 
L 232.209503 -187.432273 
L 232.880265 -187.239451 
L 233.551028 -187.042651 
L 234.22179 -186.841856 
L 234.892552 -186.637048 
L 235.563315 -186.428211 
L 236.234077 -186.215326 
L 236.90484 -185.998375 
L 237.575602 -185.77734 
L 238.246365 -185.5522 
L 238.917127 -185.322936 
L 239.58789 -185.089527 
L 240.258652 -184.851954 
L 240.929415 -184.610194 
L 241.600177 -184.364225 
L 242.27094 -184.114026 
L 242.941702 -183.859573 
L 243.612465 -183.600842 
L 244.283227 -183.33781 
L 244.95399 -183.070452 
L 245.624752 -182.798743 
L 246.295515 -182.522656 
L 246.966277 -182.242166 
L 247.63704 -181.957245 
L 248.307802 -181.667865 
L 248.978565 -181.373997 
L 249.649327 -181.075613 
L 250.32009 -180.772683 
L 250.990852 -180.465176 
L 251.661615 -180.153061 
L 252.332377 -179.836305 
L 253.00314 -179.514875 
L 253.673902 -179.188739 
L 254.344665 -178.857861 
L 255.015427 -178.522206 
L 255.68619 -178.181738 
L 256.356952 -177.836419 
L 257.027715 -177.486212 
L 257.698477 -177.131077 
L 258.36924 -176.770974 
L 259.040002 -176.405863 
L 259.710765 -176.035702 
L 260.381527 -175.660446 
L 261.05229 -175.280053 
L 261.723052 -174.894476 
L 262.393815 -174.50367 
L 263.064577 -174.107586 
L 263.73534 -173.706177 
L 264.406102 -173.29939 
L 265.076864 -172.887175 
L 265.747627 -172.46948 
L 266.418389 -172.046249 
L 267.089152 -171.617427 
L 267.759914 -171.182957 
L 268.430677 -170.74278 
L 269.101439 -170.296836 
L 269.772202 -169.845062 
L 270.442964 -169.387395 
L 271.113727 -168.923768 
L 271.784489 -168.454116 
L 272.455252 -167.978368 
L 273.126014 -167.496453 
L 273.796777 -167.008297 
L 274.467539 -166.513826 
L 275.138302 -166.012961 
L 275.809064 -165.505622 
L 276.479827 -164.991727 
L 277.150589 -164.471191 
L 277.821352 -163.943926 
L 278.492114 -163.409842 
L 279.162877 -162.868845 
L 279.833639 -162.32084 
L 280.504402 -161.765728 
L 281.175164 -161.203406 
L 281.845927 -160.633769 
L 282.516689 -160.056707 
L 283.187452 -159.472107 
L 283.858214 -158.879854 
L 284.528977 -158.279826 
L 285.199739 -157.671898 
L 285.870502 -157.055942 
L 286.541264 -156.431823 
L 287.212027 -155.799403 
L 287.882789 -155.158539 
L 288.553552 -154.509081 
L 289.224314 -153.850875 
L 289.895077 -153.183759 
L 290.565839 -152.507569 
L 291.236602 -151.82213 
L 291.907364 -151.127262 
L 292.578127 -150.422777 
L 293.248889 -149.708482 
L 293.919651 -148.984172 
L 294.590414 -148.249636 
L 295.261176 -147.504652 
L 295.931939 -146.748991 
L 296.602701 -145.98241 
L 297.273464 -145.204659 
L 297.944226 -144.415473 
L 298.614989 -143.614576 
L 299.285751 -142.801679 
L 299.956514 -141.976479 
L 300.627276 -141.138658 
L 301.298039 -140.287879 
L 301.968801 -139.423791 
L 302.639564 -138.546024 
L 303.310326 -137.654186 
L 303.981089 -136.747864 
L 304.651851 -135.826622 
L 305.322614 -134.889999 
L 305.993376 -133.937505 
L 306.664139 -132.968623 
L 307.334901 -131.982801 
L 308.005664 -130.979452 
L 308.676426 -129.957952 
L 309.347189 -128.917634 
L 310.017951 -127.857784 
L 310.688714 -126.777639 
L 311.359476 -125.676376 
L 312.030239 -124.553114 
L 312.701001 -123.406899 
L 313.371764 -122.236705 
L 314.042526 -121.041414 
L 314.713289 -119.819817 
L 315.384051 -118.570592 
L 316.054814 -117.292297 
L 316.725576 -115.98335 
L 317.396339 -114.642008 
L 318.067101 -113.266348 
L 318.737864 -111.854233 
L 319.408626 -110.403283 
L 320.079389 -108.91083 
L 320.750151 -107.37387 
L 321.420914 -105.788996 
L 322.091676 -104.152323 
L 322.762439 -102.459382 
L 323.433201 -100.704994 
L 324.103963 -98.883096 
L 324.774726 -96.986518 
L 325.445488 -95.00667 
L 326.116251 -92.933119 
L 326.787013 -90.752977 
L 327.457776 -88.449999 
L 328.128538 -86.00322 
L 328.799301 -83.384762 
L 329.470063 -80.556136 
L 330.140826 -77.461526 
L 330.811588 -74.014354 
L 331.482351 -70.066432 
L 331.482351 -45.536364 
L 331.482351 -45.536364 
L 330.811588 -45.536364 
L 330.140826 -45.536364 
L 329.470063 -45.536364 
L 328.799301 -45.536364 
L 328.128538 -45.536364 
L 327.457776 -45.536364 
L 326.787013 -45.536364 
L 326.116251 -45.536364 
L 325.445488 -45.536364 
L 324.774726 -45.536364 
L 324.103963 -45.536364 
L 323.433201 -45.536364 
L 322.762439 -45.536364 
L 322.091676 -45.536364 
L 321.420914 -45.536364 
L 320.750151 -45.536364 
L 320.079389 -45.536364 
L 319.408626 -45.536364 
L 318.737864 -45.536364 
L 318.067101 -45.536364 
L 317.396339 -45.536364 
L 316.725576 -45.536364 
L 316.054814 -45.536364 
L 315.384051 -45.536364 
L 314.713289 -45.536364 
L 314.042526 -45.536364 
L 313.371764 -45.536364 
L 312.701001 -45.536364 
L 312.030239 -45.536364 
L 311.359476 -45.536364 
L 310.688714 -45.536364 
L 310.017951 -45.536364 
L 309.347189 -45.536364 
L 308.676426 -45.536364 
L 308.005664 -45.536364 
L 307.334901 -45.536364 
L 306.664139 -45.536364 
L 305.993376 -45.536364 
L 305.322614 -45.536364 
L 304.651851 -45.536364 
L 303.981089 -45.536364 
L 303.310326 -45.536364 
L 302.639564 -45.536364 
L 301.968801 -45.536364 
L 301.298039 -45.536364 
L 300.627276 -45.536364 
L 299.956514 -45.536364 
L 299.285751 -45.536364 
L 298.614989 -45.536364 
L 297.944226 -45.536364 
L 297.273464 -45.536364 
L 296.602701 -45.536364 
L 295.931939 -45.536364 
L 295.261176 -45.536364 
L 294.590414 -45.536364 
L 293.919651 -45.536364 
L 293.248889 -45.536364 
L 292.578127 -45.536364 
L 291.907364 -45.536364 
L 291.236602 -45.536364 
L 290.565839 -45.536364 
L 289.895077 -45.536364 
L 289.224314 -45.536364 
L 288.553552 -45.536364 
L 287.882789 -45.536364 
L 287.212027 -45.536364 
L 286.541264 -45.536364 
L 285.870502 -45.536364 
L 285.199739 -45.536364 
L 284.528977 -45.536364 
L 283.858214 -45.536364 
L 283.187452 -45.536364 
L 282.516689 -45.536364 
L 281.845927 -45.536364 
L 281.175164 -45.536364 
L 280.504402 -45.536364 
L 279.833639 -45.536364 
L 279.162877 -45.536364 
L 278.492114 -45.536364 
L 277.821352 -45.536364 
L 277.150589 -45.536364 
L 276.479827 -45.536364 
L 275.809064 -45.536364 
L 275.138302 -45.536364 
L 274.467539 -45.536364 
L 273.796777 -45.536364 
L 273.126014 -45.536364 
L 272.455252 -45.536364 
L 271.784489 -45.536364 
L 271.113727 -45.536364 
L 270.442964 -45.536364 
L 269.772202 -45.536364 
L 269.101439 -45.536364 
L 268.430677 -45.536364 
L 267.759914 -45.536364 
L 267.089152 -45.536364 
L 266.418389 -45.536364 
L 265.747627 -45.536364 
L 265.076864 -45.536364 
L 264.406102 -45.536364 
L 263.73534 -45.536364 
L 263.064577 -45.536364 
L 262.393815 -45.536364 
L 261.723052 -45.536364 
L 261.05229 -45.536364 
L 260.381527 -45.536364 
L 259.710765 -45.536364 
L 259.040002 -45.536364 
L 258.36924 -45.536364 
L 257.698477 -45.536364 
L 257.027715 -45.536364 
L 256.356952 -45.536364 
L 255.68619 -45.536364 
L 255.015427 -45.536364 
L 254.344665 -45.536364 
L 253.673902 -45.536364 
L 253.00314 -45.536364 
L 252.332377 -45.536364 
L 251.661615 -45.536364 
L 250.990852 -45.536364 
L 250.32009 -45.536364 
L 249.649327 -45.536364 
L 248.978565 -45.536364 
L 248.307802 -45.536364 
L 247.63704 -45.536364 
L 246.966277 -45.536364 
L 246.295515 -45.536364 
L 245.624752 -45.536364 
L 244.95399 -45.536364 
L 244.283227 -45.536364 
L 243.612465 -45.536364 
L 242.941702 -45.536364 
L 242.27094 -45.536364 
L 241.600177 -45.536364 
L 240.929415 -45.536364 
L 240.258652 -45.536364 
L 239.58789 -45.536364 
L 238.917127 -45.536364 
L 238.246365 -45.536364 
L 237.575602 -45.536364 
L 236.90484 -45.536364 
L 236.234077 -45.536364 
L 235.563315 -45.536364 
L 234.892552 -45.536364 
L 234.22179 -45.536364 
L 233.551028 -45.536364 
L 232.880265 -45.536364 
L 232.209503 -45.536364 
L 231.53874 -45.536364 
L 230.867978 -45.536364 
L 230.197215 -45.536364 
L 229.526453 -45.536364 
L 228.85569 -45.536364 
L 228.184928 -45.536364 
L 227.514165 -45.536364 
L 226.843403 -45.536364 
L 226.17264 -45.536364 
L 225.501878 -45.536364 
L 224.831115 -45.536364 
L 224.160353 -45.536364 
L 223.48959 -45.536364 
L 222.818828 -45.536364 
L 222.148065 -45.536364 
L 221.477303 -45.536364 
L 220.80654 -45.536364 
L 220.135778 -45.536364 
L 219.465015 -45.536364 
L 218.794253 -45.536364 
L 218.12349 -45.536364 
L 217.452728 -45.536364 
L 216.781965 -45.536364 
L 216.111203 -45.536364 
L 215.44044 -45.536364 
L 214.769678 -45.536364 
L 214.098915 -45.536364 
L 213.428153 -45.536364 
L 212.75739 -45.536364 
L 212.086628 -45.536364 
L 211.415865 -45.536364 
L 210.745103 -45.536364 
L 210.07434 -45.536364 
L 209.403578 -45.536364 
L 208.732815 -45.536364 
L 208.062053 -45.536364 
L 207.39129 -45.536364 
L 206.720528 -45.536364 
L 206.049765 -45.536364 
L 205.379003 -45.536364 
L 204.708241 -45.536364 
L 204.037478 -45.536364 
L 203.366716 -45.536364 
L 202.695953 -45.536364 
L 202.025191 -45.536364 
L 201.354428 -45.536364 
L 200.683666 -45.536364 
L 200.012903 -45.536364 
L 199.342141 -45.536364 
L 198.671378 -45.536364 
L 198.000616 -45.536364 
L 197.329853 -45.536364 
L 196.659091 -45.536364 
L 195.988328 -45.536364 
L 195.317566 -45.536364 
L 194.646803 -45.536364 
L 193.976041 -45.536364 
L 193.305278 -45.536364 
L 192.634516 -45.536364 
L 191.963753 -45.536364 
L 191.292991 -45.536364 
L 190.622228 -45.536364 
L 189.951466 -45.536364 
L 189.280703 -45.536364 
L 188.609941 -45.536364 
L 187.939178 -45.536364 
L 187.268416 -45.536364 
L 186.597653 -45.536364 
L 185.926891 -45.536364 
L 185.256128 -45.536364 
L 184.585366 -45.536364 
L 183.914603 -45.536364 
L 183.243841 -45.536364 
L 182.573078 -45.536364 
L 181.902316 -45.536364 
L 181.231553 -45.536364 
L 180.560791 -45.536364 
L 179.890028 -45.536364 
L 179.219266 -45.536364 
L 178.548503 -45.536364 
L 177.877741 -45.536364 
L 177.206978 -45.536364 
L 176.536216 -45.536364 
L 175.865453 -45.536364 
L 175.194691 -45.536364 
L 174.523929 -45.536364 
L 173.853166 -45.536364 
L 173.182404 -45.536364 
L 172.511641 -45.536364 
L 171.840879 -45.536364 
L 171.170116 -45.536364 
L 170.499354 -45.536364 
L 169.828591 -45.536364 
L 169.157829 -45.536364 
L 168.487066 -45.536364 
L 167.816304 -45.536364 
L 167.145541 -45.536364 
L 166.474779 -45.536364 
L 165.804016 -45.536364 
L 165.133254 -45.536364 
L 164.462491 -45.536364 
L 163.791729 -45.536364 
L 163.120966 -45.536364 
L 162.450204 -45.536364 
L 161.779441 -45.536364 
L 161.108679 -45.536364 
L 160.437916 -45.536364 
L 159.767154 -45.536364 
L 159.096391 -45.536364 
L 158.425629 -45.536364 
L 157.754866 -45.536364 
L 157.084104 -45.536364 
L 156.413341 -45.536364 
L 155.742579 -45.536364 
L 155.071816 -45.536364 
L 154.401054 -45.536364 
L 153.730291 -45.536364 
L 153.059529 -45.536364 
L 152.388766 -45.536364 
L 151.718004 -45.536364 
L 151.047241 -45.536364 
L 150.376479 -45.536364 
L 149.705716 -45.536364 
L 149.034954 -45.536364 
L 148.364191 -45.536364 
L 147.693429 -45.536364 
L 147.022666 -45.536364 
L 146.351904 -45.536364 
L 145.681142 -45.536364 
L 145.010379 -45.536364 
L 144.339617 -45.536364 
L 143.668854 -45.536364 
L 142.998092 -45.536364 
L 142.327329 -45.536364 
L 141.656567 -45.536364 
L 140.985804 -45.536364 
L 140.315042 -45.536364 
L 139.644279 -45.536364 
L 138.973517 -45.536364 
L 138.302754 -45.536364 
L 137.631992 -45.536364 
L 136.961229 -45.536364 
L 136.290467 -45.536364 
L 135.619704 -45.536364 
L 134.948942 -45.536364 
L 134.278179 -45.536364 
L 133.607417 -45.536364 
L 132.936654 -45.536364 
L 132.265892 -45.536364 
L 131.595129 -45.536364 
L 130.924367 -45.536364 
L 130.253604 -45.536364 
L 129.582842 -45.536364 
L 128.912079 -45.536364 
L 128.241317 -45.536364 
L 127.570554 -45.536364 
L 126.899792 -45.536364 
L 126.229029 -45.536364 
L 125.558267 -45.536364 
L 124.887504 -45.536364 
L 124.216742 -45.536364 
L 123.545979 -45.536364 
L 122.875217 -45.536364 
L 122.204454 -45.536364 
L 121.533692 -45.536364 
L 120.862929 -45.536364 
L 120.192167 -45.536364 
L 119.521404 -45.536364 
L 118.850642 -45.536364 
L 118.179879 -45.536364 
L 117.509117 -45.536364 
L 116.838354 -45.536364 
L 116.167592 -45.536364 
L 115.49683 -45.536364 
L 114.826067 -45.536364 
L 114.155305 -45.536364 
L 113.484542 -45.536364 
L 112.81378 -45.536364 
L 112.143017 -45.536364 
L 111.472255 -45.536364 
L 110.801492 -45.536364 
L 110.13073 -45.536364 
L 109.459967 -45.536364 
L 108.789205 -45.536364 
L 108.118442 -45.536364 
L 107.44768 -45.536364 
L 106.776917 -45.536364 
L 106.106155 -45.536364 
L 105.435392 -45.536364 
L 104.76463 -45.536364 
L 104.093867 -45.536364 
L 103.423105 -45.536364 
L 102.752342 -45.536364 
L 102.08158 -45.536364 
L 101.410817 -45.536364 
L 100.740055 -45.536364 
L 100.069292 -45.536364 
L 99.39853 -45.536364 
L 98.727767 -45.536364 
L 98.057005 -45.536364 
L 97.386242 -45.536364 
L 96.71548 -45.536364 
L 96.044717 -45.536364 
L 95.373955 -45.536364 
L 94.703192 -45.536364 
L 94.03243 -45.536364 
L 93.361667 -45.536364 
L 92.690905 -45.536364 
L 92.020142 -45.536364 
L 91.34938 -45.536364 
L 90.678617 -45.536364 
L 90.007855 -45.536364 
L 89.337092 -45.536364 
L 88.66633 -45.536364 
L 87.995567 -45.536364 
L 87.324805 -45.536364 
L 86.654043 -45.536364 
L 85.98328 -45.536364 
L 85.312518 -45.536364 
L 84.641755 -45.536364 
L 83.970993 -45.536364 
L 83.30023 -45.536364 
L 82.629468 -45.536364 
L 81.958705 -45.536364 
L 81.287943 -45.536364 
L 80.61718 -45.536364 
L 79.946418 -45.536364 
L 79.275655 -45.536364 
L 78.604893 -45.536364 
L 77.93413 -45.536364 
L 77.263368 -45.536364 
L 76.592605 -45.536364 
L 75.921843 -45.536364 
L 75.25108 -45.536364 
L 74.580318 -45.536364 
L 73.909555 -45.536364 
L 73.238793 -45.536364 
L 72.56803 -45.536364 
L 71.897268 -45.536364 
L 71.226505 -45.536364 
L 70.555743 -45.536364 
L 69.88498 -45.536364 
L 69.214218 -45.536364 
L 68.543455 -45.536364 
L 67.872693 -45.536364 
L 67.20193 -45.536364 
L 66.531168 -45.536364 
L 65.860405 -45.536364 
L 65.189643 -45.536364 
L 64.51888 -45.536364 
L 63.848118 -45.536364 
z
" style="stroke: #4c78a8; stroke-opacity: 0.15"/>
    </defs>
    <g clip-path="url(#p28bae05886)">
     <use xlink:href="#m5d2ca0a977" x="0" y="223.158281" style="fill: #4c78a8; fill-opacity: 0.15; stroke: #4c78a8; stroke-opacity: 0.15"/>
    </g>
   </g>
   <g id="matplotlib.axis_1">
    <g id="xtick_1">
     <g id="line2d_1">
      <path d="M 61.937925 184.958281 
L 61.937925 23.558281 
" clip-path="url(#p28bae05886)" style="fill: none; stroke: #b0b0b0; stroke-opacity: 0.25; stroke-width: 0.6; stroke-linecap: square"/>
     </g>
     <g id="line2d_2">
      <defs>
       <path id="m060a291ed9" d="M 0 0 
L 0 3.5 
" style="stroke: #000000; stroke-width: 0.8"/>
      </defs>
      <g>
       <use xlink:href="#m060a291ed9" x="61.937925" y="184.958281" style="stroke: #000000; stroke-width: 0.8"/>
      </g>
     </g>
     <g id="text_1">
      <!-- −3.0 -->
      <g transform="translate(49.796518 199.555938) scale(0.1 -0.1)">
       <defs>
        <path id="DejaVuSans-c9c" d="M 678 2272 
L 4684 2272 
L 4684 1741 
L 678 1741 
L 678 2272 
z
" transform="scale(0.015625)"/>
        <path id="DejaVuSans-16" d="M 2597 2516 
Q 3050 2419 3304 2112 
Q 3559 1806 3559 1356 
Q 3559 666 3084 287 
Q 2609 -91 1734 -91 
Q 1441 -91 1130 -33 
Q 819 25 488 141 
L 488 750 
Q 750 597 1062 519 
Q 1375 441 1716 441 
Q 2309 441 2620 675 
Q 2931 909 2931 1356 
Q 2931 1769 2642 2001 
Q 2353 2234 1838 2234 
L 1294 2234 
L 1294 2753 
L 1863 2753 
Q 2328 2753 2575 2939 
Q 2822 3125 2822 3475 
Q 2822 3834 2567 4026 
Q 2313 4219 1838 4219 
Q 1578 4219 1281 4162 
Q 984 4106 628 3988 
L 628 4550 
Q 988 4650 1302 4700 
Q 1616 4750 1894 4750 
Q 2613 4750 3031 4423 
Q 3450 4097 3450 3541 
Q 3450 3153 3228 2886 
Q 3006 2619 2597 2516 
z
" transform="scale(0.015625)"/>
        <path id="DejaVuSans-11" d="M 684 794 
L 1344 794 
L 1344 0 
L 684 0 
L 684 794 
z
" transform="scale(0.015625)"/>
        <path id="DejaVuSans-13" d="M 2034 4250 
Q 1547 4250 1301 3770 
Q 1056 3291 1056 2328 
Q 1056 1369 1301 889 
Q 1547 409 2034 409 
Q 2525 409 2770 889 
Q 3016 1369 3016 2328 
Q 3016 3291 2770 3770 
Q 2525 4250 2034 4250 
z
M 2034 4750 
Q 2819 4750 3233 4129 
Q 3647 3509 3647 2328 
Q 3647 1150 3233 529 
Q 2819 -91 2034 -91 
Q 1250 -91 836 529 
Q 422 1150 422 2328 
Q 422 3509 836 4129 
Q 1250 4750 2034 4750 
z
" transform="scale(0.015625)"/>
       </defs>
       <use xlink:href="#DejaVuSans-c9c"/>
       <use xlink:href="#DejaVuSans-16" transform="translate(83.796875 0)"/>
       <use xlink:href="#DejaVuSans-11" transform="translate(147.421875 0)"/>
       <use xlink:href="#DejaVuSans-13" transform="translate(179.203125 0)"/>
      </g>
     </g>
    </g>
    <g id="xtick_2">
     <g id="line2d_3">
      <path d="M 95.869752 184.958281 
L 95.869752 23.558281 
" clip-path="url(#p28bae05886)" style="fill: none; stroke: #b0b0b0; stroke-opacity: 0.25; stroke-width: 0.6; stroke-linecap: square"/>
     </g>
     <g id="line2d_4">
      <g>
       <use xlink:href="#m060a291ed9" x="95.869752" y="184.958281" style="stroke: #000000; stroke-width: 0.8"/>
      </g>
     </g>
     <g id="text_2">
      <!-- −2.5 -->
      <g transform="translate(83.728346 199.555938) scale(0.1 -0.1)">
       <defs>
        <path id="DejaVuSans-15" d="M 1228 531 
L 3431 531 
L 3431 0 
L 469 0 
L 469 531 
Q 828 903 1448 1529 
Q 2069 2156 2228 2338 
Q 2531 2678 2651 2914 
Q 2772 3150 2772 3378 
Q 2772 3750 2511 3984 
Q 2250 4219 1831 4219 
Q 1534 4219 1204 4116 
Q 875 4013 500 3803 
L 500 4441 
Q 881 4594 1212 4672 
Q 1544 4750 1819 4750 
Q 2544 4750 2975 4387 
Q 3406 4025 3406 3419 
Q 3406 3131 3298 2873 
Q 3191 2616 2906 2266 
Q 2828 2175 2409 1742 
Q 1991 1309 1228 531 
z
" transform="scale(0.015625)"/>
        <path id="DejaVuSans-18" d="M 691 4666 
L 3169 4666 
L 3169 4134 
L 1269 4134 
L 1269 2991 
Q 1406 3038 1543 3061 
Q 1681 3084 1819 3084 
Q 2600 3084 3056 2656 
Q 3513 2228 3513 1497 
Q 3513 744 3044 326 
Q 2575 -91 1722 -91 
Q 1428 -91 1123 -41 
Q 819 9 494 109 
L 494 744 
Q 775 591 1075 516 
Q 1375 441 1709 441 
Q 2250 441 2565 725 
Q 2881 1009 2881 1497 
Q 2881 1984 2565 2268 
Q 2250 2553 1709 2553 
Q 1456 2553 1204 2497 
Q 953 2441 691 2322 
L 691 4666 
z
" transform="scale(0.015625)"/>
       </defs>
       <use xlink:href="#DejaVuSans-c9c"/>
       <use xlink:href="#DejaVuSans-15" transform="translate(83.796875 0)"/>
       <use xlink:href="#DejaVuSans-11" transform="translate(147.421875 0)"/>
       <use xlink:href="#DejaVuSans-18" transform="translate(179.203125 0)"/>
      </g>
     </g>
    </g>
    <g id="xtick_3">
     <g id="line2d_5">
      <path d="M 129.80158 184.958281 
L 129.80158 23.558281 
" clip-path="url(#p28bae05886)" style="fill: none; stroke: #b0b0b0; stroke-opacity: 0.25; stroke-width: 0.6; stroke-linecap: square"/>
     </g>
     <g id="line2d_6">
      <g>
       <use xlink:href="#m060a291ed9" x="129.80158" y="184.958281" style="stroke: #000000; stroke-width: 0.8"/>
      </g>
     </g>
     <g id="text_3">
      <!-- −2.0 -->
      <g transform="translate(117.660173 199.555938) scale(0.1 -0.1)">
       <use xlink:href="#DejaVuSans-c9c"/>
       <use xlink:href="#DejaVuSans-15" transform="translate(83.796875 0)"/>
       <use xlink:href="#DejaVuSans-11" transform="translate(147.421875 0)"/>
       <use xlink:href="#DejaVuSans-13" transform="translate(179.203125 0)"/>
      </g>
     </g>
    </g>
    <g id="xtick_4">
     <g id="line2d_7">
      <path d="M 163.733407 184.958281 
L 163.733407 23.558281 
" clip-path="url(#p28bae05886)" style="fill: none; stroke: #b0b0b0; stroke-opacity: 0.25; stroke-width: 0.6; stroke-linecap: square"/>
     </g>
     <g id="line2d_8">
      <g>
       <use xlink:href="#m060a291ed9" x="163.733407" y="184.958281" style="stroke: #000000; stroke-width: 0.8"/>
      </g>
     </g>
     <g id="text_4">
      <!-- −1.5 -->
      <g transform="translate(151.592001 199.555938) scale(0.1 -0.1)">
       <defs>
        <path id="DejaVuSans-14" d="M 794 531 
L 1825 531 
L 1825 4091 
L 703 3866 
L 703 4441 
L 1819 4666 
L 2450 4666 
L 2450 531 
L 3481 531 
L 3481 0 
L 794 0 
L 794 531 
z
" transform="scale(0.015625)"/>
       </defs>
       <use xlink:href="#DejaVuSans-c9c"/>
       <use xlink:href="#DejaVuSans-14" transform="translate(83.796875 0)"/>
       <use xlink:href="#DejaVuSans-11" transform="translate(147.421875 0)"/>
       <use xlink:href="#DejaVuSans-18" transform="translate(179.203125 0)"/>
      </g>
     </g>
    </g>
    <g id="xtick_5">
     <g id="line2d_9">
      <path d="M 197.665234 184.958281 
L 197.665234 23.558281 
" clip-path="url(#p28bae05886)" style="fill: none; stroke: #b0b0b0; stroke-opacity: 0.25; stroke-width: 0.6; stroke-linecap: square"/>
     </g>
     <g id="line2d_10">
      <g>
       <use xlink:href="#m060a291ed9" x="197.665234" y="184.958281" style="stroke: #000000; stroke-width: 0.8"/>
      </g>
     </g>
     <g id="text_5">
      <!-- −1.0 -->
      <g transform="translate(185.523828 199.555938) scale(0.1 -0.1)">
       <use xlink:href="#DejaVuSans-c9c"/>
       <use xlink:href="#DejaVuSans-14" transform="translate(83.796875 0)"/>
       <use xlink:href="#DejaVuSans-11" transform="translate(147.421875 0)"/>
       <use xlink:href="#DejaVuSans-13" transform="translate(179.203125 0)"/>
      </g>
     </g>
    </g>
    <g id="xtick_6">
     <g id="line2d_11">
      <path d="M 231.597062 184.958281 
L 231.597062 23.558281 
" clip-path="url(#p28bae05886)" style="fill: none; stroke: #b0b0b0; stroke-opacity: 0.25; stroke-width: 0.6; stroke-linecap: square"/>
     </g>
     <g id="line2d_12">
      <g>
       <use xlink:href="#m060a291ed9" x="231.597062" y="184.958281" style="stroke: #000000; stroke-width: 0.8"/>
      </g>
     </g>
     <g id="text_6">
      <!-- −0.5 -->
      <g transform="translate(219.455656 199.555938) scale(0.1 -0.1)">
       <use xlink:href="#DejaVuSans-c9c"/>
       <use xlink:href="#DejaVuSans-13" transform="translate(83.796875 0)"/>
       <use xlink:href="#DejaVuSans-11" transform="translate(147.421875 0)"/>
       <use xlink:href="#DejaVuSans-18" transform="translate(179.203125 0)"/>
      </g>
     </g>
    </g>
    <g id="xtick_7">
     <g id="line2d_13">
      <path d="M 265.528889 184.958281 
L 265.528889 23.558281 
" clip-path="url(#p28bae05886)" style="fill: none; stroke: #b0b0b0; stroke-opacity: 0.25; stroke-width: 0.6; stroke-linecap: square"/>
     </g>
     <g id="line2d_14">
      <g>
       <use xlink:href="#m060a291ed9" x="265.528889" y="184.958281" style="stroke: #000000; stroke-width: 0.8"/>
      </g>
     </g>
     <g id="text_7">
      <!-- 0.0 -->
      <g transform="translate(257.577327 199.555938) scale(0.1 -0.1)">
       <use xlink:href="#DejaVuSans-13"/>
       <use xlink:href="#DejaVuSans-11" transform="translate(63.625 0)"/>
       <use xlink:href="#DejaVuSans-13" transform="translate(95.40625 0)"/>
      </g>
     </g>
    </g>
    <g id="xtick_8">
     <g id="line2d_15">
      <path d="M 299.460717 184.958281 
L 299.460717 23.558281 
" clip-path="url(#p28bae05886)" style="fill: none; stroke: #b0b0b0; stroke-opacity: 0.25; stroke-width: 0.6; stroke-linecap: square"/>
     </g>
     <g id="line2d_16">
      <g>
       <use xlink:href="#m060a291ed9" x="299.460717" y="184.958281" style="stroke: #000000; stroke-width: 0.8"/>
      </g>
     </g>
     <g id="text_8">
      <!-- 0.5 -->
      <g transform="translate(291.509154 199.555938) scale(0.1 -0.1)">
       <use xlink:href="#DejaVuSans-13"/>
       <use xlink:href="#DejaVuSans-11" transform="translate(63.625 0)"/>
       <use xlink:href="#DejaVuSans-18" transform="translate(95.40625 0)"/>
      </g>
     </g>
    </g>
    <g id="xtick_9">
     <g id="line2d_17">
      <path d="M 333.392544 184.958281 
L 333.392544 23.558281 
" clip-path="url(#p28bae05886)" style="fill: none; stroke: #b0b0b0; stroke-opacity: 0.25; stroke-width: 0.6; stroke-linecap: square"/>
     </g>
     <g id="line2d_18">
      <g>
       <use xlink:href="#m060a291ed9" x="333.392544" y="184.958281" style="stroke: #000000; stroke-width: 0.8"/>
      </g>
     </g>
     <g id="text_9">
      <!-- 1.0 -->
      <g transform="translate(325.440982 199.555938) scale(0.1 -0.1)">
       <use xlink:href="#DejaVuSans-14"/>
       <use xlink:href="#DejaVuSans-11" transform="translate(63.625 0)"/>
       <use xlink:href="#DejaVuSans-13" transform="translate(95.40625 0)"/>
      </g>
     </g>
    </g>
    <g id="text_10">
     <!-- x -->
     <g transform="translate(194.705859 213.555938) scale(0.1 -0.1)">
      <defs>
       <path id="DejaVuSans-5b" d="M 3513 3500 
L 2247 1797 
L 3578 0 
L 2900 0 
L 1881 1375 
L 863 0 
L 184 0 
L 1544 1831 
L 300 3500 
L 978 3500 
L 1906 2253 
L 2834 3500 
L 3513 3500 
z
" transform="scale(0.015625)"/>
      </defs>
      <use xlink:href="#DejaVuSans-5b"/>
     </g>
    </g>
   </g>
   <g id="matplotlib.axis_2">
    <g id="ytick_1">
     <g id="line2d_19">
      <path d="M 50.466406 177.621918 
L 344.864062 177.621918 
" clip-path="url(#p28bae05886)" style="fill: none; stroke: #b0b0b0; stroke-opacity: 0.25; stroke-width: 0.6; stroke-linecap: square"/>
     </g>
     <g id="line2d_20">
      <defs>
       <path id="m219ecc3dd5" d="M 0 0 
L -3.5 0 
" style="stroke: #000000; stroke-width: 0.8"/>
      </defs>
      <g>
       <use xlink:href="#m219ecc3dd5" x="50.466406" y="177.621918" style="stroke: #000000; stroke-width: 0.8"/>
      </g>
     </g>
     <g id="text_11">
      <!-- 0.00 -->
      <g transform="translate(21.200781 181.420746) scale(0.1 -0.1)">
       <use xlink:href="#DejaVuSans-13"/>
       <use xlink:href="#DejaVuSans-11" transform="translate(63.625 0)"/>
       <use xlink:href="#DejaVuSans-13" transform="translate(95.40625 0)"/>
       <use xlink:href="#DejaVuSans-13" transform="translate(159.03125 0)"/>
      </g>
     </g>
    </g>
    <g id="ytick_2">
     <g id="line2d_21">
      <path d="M 50.466406 154.573981 
L 344.864062 154.573981 
" clip-path="url(#p28bae05886)" style="fill: none; stroke: #b0b0b0; stroke-opacity: 0.25; stroke-width: 0.6; stroke-linecap: square"/>
     </g>
     <g id="line2d_22">
      <g>
       <use xlink:href="#m219ecc3dd5" x="50.466406" y="154.573981" style="stroke: #000000; stroke-width: 0.8"/>
      </g>
     </g>
     <g id="text_12">
      <!-- 0.05 -->
      <g transform="translate(21.200781 158.372809) scale(0.1 -0.1)">
       <use xlink:href="#DejaVuSans-13"/>
       <use xlink:href="#DejaVuSans-11" transform="translate(63.625 0)"/>
       <use xlink:href="#DejaVuSans-13" transform="translate(95.40625 0)"/>
       <use xlink:href="#DejaVuSans-18" transform="translate(159.03125 0)"/>
      </g>
     </g>
    </g>
    <g id="ytick_3">
     <g id="line2d_23">
      <path d="M 50.466406 131.526045 
L 344.864062 131.526045 
" clip-path="url(#p28bae05886)" style="fill: none; stroke: #b0b0b0; stroke-opacity: 0.25; stroke-width: 0.6; stroke-linecap: square"/>
     </g>
     <g id="line2d_24">
      <g>
       <use xlink:href="#m219ecc3dd5" x="50.466406" y="131.526045" style="stroke: #000000; stroke-width: 0.8"/>
      </g>
     </g>
     <g id="text_13">
      <!-- 0.10 -->
      <g transform="translate(21.200781 135.324873) scale(0.1 -0.1)">
       <use xlink:href="#DejaVuSans-13"/>
       <use xlink:href="#DejaVuSans-11" transform="translate(63.625 0)"/>
       <use xlink:href="#DejaVuSans-14" transform="translate(95.40625 0)"/>
       <use xlink:href="#DejaVuSans-13" transform="translate(159.03125 0)"/>
      </g>
     </g>
    </g>
    <g id="ytick_4">
     <g id="line2d_25">
      <path d="M 50.466406 108.478108 
L 344.864062 108.478108 
" clip-path="url(#p28bae05886)" style="fill: none; stroke: #b0b0b0; stroke-opacity: 0.25; stroke-width: 0.6; stroke-linecap: square"/>
     </g>
     <g id="line2d_26">
      <g>
       <use xlink:href="#m219ecc3dd5" x="50.466406" y="108.478108" style="stroke: #000000; stroke-width: 0.8"/>
      </g>
     </g>
     <g id="text_14">
      <!-- 0.15 -->
      <g transform="translate(21.200781 112.276936) scale(0.1 -0.1)">
       <use xlink:href="#DejaVuSans-13"/>
       <use xlink:href="#DejaVuSans-11" transform="translate(63.625 0)"/>
       <use xlink:href="#DejaVuSans-14" transform="translate(95.40625 0)"/>
       <use xlink:href="#DejaVuSans-18" transform="translate(159.03125 0)"/>
      </g>
     </g>
    </g>
    <g id="ytick_5">
     <g id="line2d_27">
      <path d="M 50.466406 85.430172 
L 344.864062 85.430172 
" clip-path="url(#p28bae05886)" style="fill: none; stroke: #b0b0b0; stroke-opacity: 0.25; stroke-width: 0.6; stroke-linecap: square"/>
     </g>
     <g id="line2d_28">
      <g>
       <use xlink:href="#m219ecc3dd5" x="50.466406" y="85.430172" style="stroke: #000000; stroke-width: 0.8"/>
      </g>
     </g>
     <g id="text_15">
      <!-- 0.20 -->
      <g transform="translate(21.200781 89.229) scale(0.1 -0.1)">
       <use xlink:href="#DejaVuSans-13"/>
       <use xlink:href="#DejaVuSans-11" transform="translate(63.625 0)"/>
       <use xlink:href="#DejaVuSans-15" transform="translate(95.40625 0)"/>
       <use xlink:href="#DejaVuSans-13" transform="translate(159.03125 0)"/>
      </g>
     </g>
    </g>
    <g id="ytick_6">
     <g id="line2d_29">
      <path d="M 50.466406 62.382235 
L 344.864062 62.382235 
" clip-path="url(#p28bae05886)" style="fill: none; stroke: #b0b0b0; stroke-opacity: 0.25; stroke-width: 0.6; stroke-linecap: square"/>
     </g>
     <g id="line2d_30">
      <g>
       <use xlink:href="#m219ecc3dd5" x="50.466406" y="62.382235" style="stroke: #000000; stroke-width: 0.8"/>
      </g>
     </g>
     <g id="text_16">
      <!-- 0.25 -->
      <g transform="translate(21.200781 66.181063) scale(0.1 -0.1)">
       <use xlink:href="#DejaVuSans-13"/>
       <use xlink:href="#DejaVuSans-11" transform="translate(63.625 0)"/>
       <use xlink:href="#DejaVuSans-15" transform="translate(95.40625 0)"/>
       <use xlink:href="#DejaVuSans-18" transform="translate(159.03125 0)"/>
      </g>
     </g>
    </g>
    <g id="ytick_7">
     <g id="line2d_31">
      <path d="M 50.466406 39.334299 
L 344.864062 39.334299 
" clip-path="url(#p28bae05886)" style="fill: none; stroke: #b0b0b0; stroke-opacity: 0.25; stroke-width: 0.6; stroke-linecap: square"/>
     </g>
     <g id="line2d_32">
      <g>
       <use xlink:href="#m219ecc3dd5" x="50.466406" y="39.334299" style="stroke: #000000; stroke-width: 0.8"/>
      </g>
     </g>
     <g id="text_17">
      <!-- 0.30 -->
      <g transform="translate(21.200781 43.133127) scale(0.1 -0.1)">
       <use xlink:href="#DejaVuSans-13"/>
       <use xlink:href="#DejaVuSans-11" transform="translate(63.625 0)"/>
       <use xlink:href="#DejaVuSans-16" transform="translate(95.40625 0)"/>
       <use xlink:href="#DejaVuSans-13" transform="translate(159.03125 0)"/>
      </g>
     </g>
    </g>
    <g id="text_18">
     <!-- f(x) -->
     <g transform="translate(14.798437 112.879375) rotate(-90) scale(0.1 -0.1)">
      <defs>
       <path id="DejaVuSans-49" d="M 2375 4863 
L 2375 4384 
L 1825 4384 
Q 1516 4384 1395 4259 
Q 1275 4134 1275 3809 
L 1275 3500 
L 2222 3500 
L 2222 3053 
L 1275 3053 
L 1275 0 
L 697 0 
L 697 3053 
L 147 3053 
L 147 3500 
L 697 3500 
L 697 3744 
Q 697 4328 969 4595 
Q 1241 4863 1831 4863 
L 2375 4863 
z
" transform="scale(0.015625)"/>
       <path id="DejaVuSans-b" d="M 1984 4856 
Q 1566 4138 1362 3434 
Q 1159 2731 1159 2009 
Q 1159 1288 1364 580 
Q 1569 -128 1984 -844 
L 1484 -844 
Q 1016 -109 783 600 
Q 550 1309 550 2009 
Q 550 2706 781 3412 
Q 1013 4119 1484 4856 
L 1984 4856 
z
" transform="scale(0.015625)"/>
       <path id="DejaVuSans-c" d="M 513 4856 
L 1013 4856 
Q 1481 4119 1714 3412 
Q 1947 2706 1947 2009 
Q 1947 1309 1714 600 
Q 1481 -109 1013 -844 
L 513 -844 
Q 928 -128 1133 580 
Q 1338 1288 1338 2009 
Q 1338 2731 1133 3434 
Q 928 4138 513 4856 
z
" transform="scale(0.015625)"/>
      </defs>
      <use xlink:href="#DejaVuSans-49"/>
      <use xlink:href="#DejaVuSans-b" transform="translate(35.203125 0)"/>
      <use xlink:href="#DejaVuSans-5b" transform="translate(74.21875 0)"/>
      <use xlink:href="#DejaVuSans-c" transform="translate(133.40625 0)"/>
     </g>
    </g>
   </g>
   <g id="line2d_33">
    <path d="M 63.848118 153.091849 
L 65.189643 145.696755 
L 66.531168 139.773519 
L 67.872693 134.708282 
L 69.88498 128.151611 
L 71.897268 122.453287 
L 73.909555 117.369285 
L 76.592605 111.304048 
L 79.275655 105.865984 
L 81.958705 100.921577 
L 84.641755 96.380643 
L 87.995567 91.175481 
L 91.34938 86.410418 
L 94.703192 82.019624 
L 98.057005 77.953622 
L 102.08158 73.449799 
L 106.106155 69.307407 
L 110.13073 65.486383 
L 114.155305 61.954875 
L 118.179879 58.68709 
L 122.875217 55.179913 
L 127.570554 51.975324 
L 132.265892 49.050695 
L 136.961229 46.387307 
L 141.656567 43.969542 
L 146.351904 41.784284 
L 151.047241 39.820471 
L 156.413341 37.835345 
L 161.779441 36.11563 
L 167.145541 34.651748 
L 172.511641 33.435905 
L 177.877741 32.46187 
L 183.243841 31.724799 
L 188.609941 31.221113 
L 193.976041 30.948408 
L 199.342141 30.905396 
L 204.708241 31.091874 
L 210.07434 31.508721 
L 215.44044 32.157918 
L 220.80654 33.042594 
L 226.17264 34.167106 
L 231.53874 35.537149 
L 236.90484 37.159906 
L 242.27094 39.044255 
L 246.966277 40.916115 
L 251.661615 43.005221 
L 256.356952 45.321862 
L 261.05229 47.878228 
L 265.747627 50.688801 
L 270.442964 53.770887 
L 275.138302 57.14532 
L 279.162877 60.289436 
L 283.187452 63.686174 
L 287.212027 67.358878 
L 291.236602 71.336152 
L 295.261176 75.653629 
L 298.614989 79.543705 
L 301.968801 83.73449 
L 305.322614 88.268283 
L 308.676426 93.200329 
L 312.030239 98.605168 
L 314.713289 103.338465 
L 317.396339 108.516273 
L 320.079389 114.247451 
L 322.091676 119.005958 
L 324.103963 124.275185 
L 326.116251 130.225162 
L 327.457776 134.708282 
L 328.799301 139.773519 
L 330.140826 145.696755 
L 331.482351 153.091849 
L 331.482351 153.091849 
" clip-path="url(#p28bae05886)" style="fill: none; stroke: #4c78a8; stroke-width: 2; stroke-linecap: square"/>
   </g>
   <g id="patch_3">
    <path d="M 50.466406 184.958281 
L 50.466406 23.558281 
" style="fill: none; stroke: #000000; stroke-width: 0.8; stroke-linejoin: miter; stroke-linecap: square"/>
   </g>
   <g id="patch_4">
    <path d="M 50.466406 184.958281 
L 344.864063 184.958281 
" style="fill: none; stroke: #000000; stroke-width: 0.8; stroke-linejoin: miter; stroke-linecap: square"/>
   </g>
   <g id="text_19">
    <!-- Wigner Semicircle -->
    <g transform="translate(148.060391 15.558281) scale(0.11 -0.11)">
     <defs>
      <path id="DejaVuSans-3a" d="M 213 4666 
L 850 4666 
L 1831 722 
L 2809 4666 
L 3519 4666 
L 4500 722 
L 5478 4666 
L 6119 4666 
L 4947 0 
L 4153 0 
L 3169 4050 
L 2175 0 
L 1381 0 
L 213 4666 
z
" transform="scale(0.015625)"/>
      <path id="DejaVuSans-4c" d="M 603 3500 
L 1178 3500 
L 1178 0 
L 603 0 
L 603 3500 
z
M 603 4863 
L 1178 4863 
L 1178 4134 
L 603 4134 
L 603 4863 
z
" transform="scale(0.015625)"/>
      <path id="DejaVuSans-4a" d="M 2906 1791 
Q 2906 2416 2648 2759 
Q 2391 3103 1925 3103 
Q 1463 3103 1205 2759 
Q 947 2416 947 1791 
Q 947 1169 1205 825 
Q 1463 481 1925 481 
Q 2391 481 2648 825 
Q 2906 1169 2906 1791 
z
M 3481 434 
Q 3481 -459 3084 -895 
Q 2688 -1331 1869 -1331 
Q 1566 -1331 1297 -1286 
Q 1028 -1241 775 -1147 
L 775 -588 
Q 1028 -725 1275 -790 
Q 1522 -856 1778 -856 
Q 2344 -856 2625 -561 
Q 2906 -266 2906 331 
L 2906 616 
Q 2728 306 2450 153 
Q 2172 0 1784 0 
Q 1141 0 747 490 
Q 353 981 353 1791 
Q 353 2603 747 3093 
Q 1141 3584 1784 3584 
Q 2172 3584 2450 3431 
Q 2728 3278 2906 2969 
L 2906 3500 
L 3481 3500 
L 3481 434 
z
" transform="scale(0.015625)"/>
      <path id="DejaVuSans-51" d="M 3513 2113 
L 3513 0 
L 2938 0 
L 2938 2094 
Q 2938 2591 2744 2837 
Q 2550 3084 2163 3084 
Q 1697 3084 1428 2787 
Q 1159 2491 1159 1978 
L 1159 0 
L 581 0 
L 581 3500 
L 1159 3500 
L 1159 2956 
Q 1366 3272 1645 3428 
Q 1925 3584 2291 3584 
Q 2894 3584 3203 3211 
Q 3513 2838 3513 2113 
z
" transform="scale(0.015625)"/>
      <path id="DejaVuSans-48" d="M 3597 1894 
L 3597 1613 
L 953 1613 
Q 991 1019 1311 708 
Q 1631 397 2203 397 
Q 2534 397 2845 478 
Q 3156 559 3463 722 
L 3463 178 
Q 3153 47 2828 -22 
Q 2503 -91 2169 -91 
Q 1331 -91 842 396 
Q 353 884 353 1716 
Q 353 2575 817 3079 
Q 1281 3584 2069 3584 
Q 2775 3584 3186 3129 
Q 3597 2675 3597 1894 
z
M 3022 2063 
Q 3016 2534 2758 2815 
Q 2500 3097 2075 3097 
Q 1594 3097 1305 2825 
Q 1016 2553 972 2059 
L 3022 2063 
z
" transform="scale(0.015625)"/>
      <path id="DejaVuSans-55" d="M 2631 2963 
Q 2534 3019 2420 3045 
Q 2306 3072 2169 3072 
Q 1681 3072 1420 2755 
Q 1159 2438 1159 1844 
L 1159 0 
L 581 0 
L 581 3500 
L 1159 3500 
L 1159 2956 
Q 1341 3275 1631 3429 
Q 1922 3584 2338 3584 
Q 2397 3584 2469 3576 
Q 2541 3569 2628 3553 
L 2631 2963 
z
" transform="scale(0.015625)"/>
      <path id="DejaVuSans-3" transform="scale(0.015625)"/>
      <path id="DejaVuSans-36" d="M 3425 4513 
L 3425 3897 
Q 3066 4069 2747 4153 
Q 2428 4238 2131 4238 
Q 1616 4238 1336 4038 
Q 1056 3838 1056 3469 
Q 1056 3159 1242 3001 
Q 1428 2844 1947 2747 
L 2328 2669 
Q 3034 2534 3370 2195 
Q 3706 1856 3706 1288 
Q 3706 609 3251 259 
Q 2797 -91 1919 -91 
Q 1588 -91 1214 -16 
Q 841 59 441 206 
L 441 856 
Q 825 641 1194 531 
Q 1563 422 1919 422 
Q 2459 422 2753 634 
Q 3047 847 3047 1241 
Q 3047 1584 2836 1778 
Q 2625 1972 2144 2069 
L 1759 2144 
Q 1053 2284 737 2584 
Q 422 2884 422 3419 
Q 422 4038 858 4394 
Q 1294 4750 2059 4750 
Q 2388 4750 2728 4690 
Q 3069 4631 3425 4513 
z
" transform="scale(0.015625)"/>
      <path id="DejaVuSans-50" d="M 3328 2828 
Q 3544 3216 3844 3400 
Q 4144 3584 4550 3584 
Q 5097 3584 5394 3201 
Q 5691 2819 5691 2113 
L 5691 0 
L 5113 0 
L 5113 2094 
Q 5113 2597 4934 2840 
Q 4756 3084 4391 3084 
Q 3944 3084 3684 2787 
Q 3425 2491 3425 1978 
L 3425 0 
L 2847 0 
L 2847 2094 
Q 2847 2600 2669 2842 
Q 2491 3084 2119 3084 
Q 1678 3084 1418 2786 
Q 1159 2488 1159 1978 
L 1159 0 
L 581 0 
L 581 3500 
L 1159 3500 
L 1159 2956 
Q 1356 3278 1631 3431 
Q 1906 3584 2284 3584 
Q 2666 3584 2933 3390 
Q 3200 3197 3328 2828 
z
" transform="scale(0.015625)"/>
      <path id="DejaVuSans-46" d="M 3122 3366 
L 3122 2828 
Q 2878 2963 2633 3030 
Q 2388 3097 2138 3097 
Q 1578 3097 1268 2742 
Q 959 2388 959 1747 
Q 959 1106 1268 751 
Q 1578 397 2138 397 
Q 2388 397 2633 464 
Q 2878 531 3122 666 
L 3122 134 
Q 2881 22 2623 -34 
Q 2366 -91 2075 -91 
Q 1284 -91 818 406 
Q 353 903 353 1747 
Q 353 2603 823 3093 
Q 1294 3584 2113 3584 
Q 2378 3584 2631 3529 
Q 2884 3475 3122 3366 
z
" transform="scale(0.015625)"/>
      <path id="DejaVuSans-4f" d="M 603 4863 
L 1178 4863 
L 1178 0 
L 603 0 
L 603 4863 
z
" transform="scale(0.015625)"/>
     </defs>
     <use xlink:href="#DejaVuSans-3a"/>
     <use xlink:href="#DejaVuSans-4c" transform="translate(96.671875 0)"/>
     <use xlink:href="#DejaVuSans-4a" transform="translate(124.453125 0)"/>
     <use xlink:href="#DejaVuSans-51" transform="translate(187.9375 0)"/>
     <use xlink:href="#DejaVuSans-48" transform="translate(251.3125 0)"/>
     <use xlink:href="#DejaVuSans-55" transform="translate(312.84375 0)"/>
     <use xlink:href="#DejaVuSans-3" transform="translate(353.953125 0)"/>
     <use xlink:href="#DejaVuSans-36" transform="translate(385.734375 0)"/>
     <use xlink:href="#DejaVuSans-48" transform="translate(449.21875 0)"/>
     <use xlink:href="#DejaVuSans-50" transform="translate(510.75 0)"/>
     <use xlink:href="#DejaVuSans-4c" transform="translate(608.15625 0)"/>
     <use xlink:href="#DejaVuSans-46" transform="translate(635.9375 0)"/>
     <use xlink:href="#DejaVuSans-4c" transform="translate(690.921875 0)"/>
     <use xlink:href="#DejaVuSans-55" transform="translate(718.703125 0)"/>
     <use xlink:href="#DejaVuSans-46" transform="translate(757.609375 0)"/>
     <use xlink:href="#DejaVuSans-4f" transform="translate(812.59375 0)"/>
     <use xlink:href="#DejaVuSans-48" transform="translate(840.375 0)"/>
    </g>
   </g>
  </g>
 </g>
 <defs>
  <clipPath id="p28bae05886">
   <rect x="50.466406" y="23.558281" width="294.397656" height="161.4"/>
  </clipPath>
 </defs>
</svg>
