<?xml version="1.0" encoding="utf-8" standalone="no"?>
<!DOCTYPE svg PUBLIC "-//W3C//DTD SVG 1.1//EN"
  "http://www.w3.org/Graphics/SVG/1.1/DTD/svg11.dtd">
<svg xmlns:xlink="http://www.w3.org/1999/xlink" width="352.301562pt" height="223.158281pt" viewBox="0 0 352.301562 223.158281" xmlns="http://www.w3.org/2000/svg" version="1.1">
 <metadata>
  <rdf:RDF xmlns:dc="http://purl.org/dc/elements/1.1/" xmlns:cc="http://creativecommons.org/ns#" xmlns:rdf="http://www.w3.org/1999/02/22-rdf-syntax-ns#">
   <cc:Work>
    <dc:type rdf:resource="http://purl.org/dc/dcmitype/StillImage"/>
    <dc:date>2026-07-05T02:24:32.467546</dc:date>
    <dc:format>image/svg+xml</dc:format>
    <dc:creator>
     <cc:Agent>
      <dc:title>Matplotlib v3.11.0, https://matplotlib.org/</dc:title>
     </cc:Agent>
    </dc:creator>
   </cc:Work>
  </rdf:RDF>
 </metadata>
 <defs>
  <style type="text/css">*{stroke-linejoin: round; stroke-linecap: butt}</style>
 </defs>
 <g id="figure_1">
  <g id="patch_1">
   <path d="M 0 223.158281 
L 352.301562 223.158281 
L 352.301562 0 
L 0 0 
z
" style="fill: #ffffff"/>
  </g>
  <g id="axes_1">
   <g id="patch_2">
    <path d="M 44.103906 184.958281 
L 345.101562 184.958281 
L 345.101562 23.558281 
L 44.103906 23.558281 
z
" style="fill: #ffffff"/>
   </g>
   <g id="FillBetweenPolyCollection_1">
    <defs>
     <path id="m5f5fafadd0" d="M 57.785618 -45.536364 
L 57.785618 -192.263636 
L 58.471418 -192.17168 
L 59.157218 -191.935026 
L 59.843018 -191.555132 
L 60.528818 -191.03432 
L 61.214618 -190.375746 
L 61.900418 -189.583347 
L 62.586218 -188.661787 
L 63.272019 -187.616391 
L 63.957819 -186.453068 
L 64.643619 -185.178231 
L 65.329419 -183.798718 
L 66.015219 -182.3217 
L 66.701019 -180.754605 
L 67.386819 -179.105027 
L 68.072619 -177.380649 
L 68.758419 -175.589171 
L 69.444219 -173.738232 
L 70.130019 -171.835357 
L 70.815819 -169.887891 
L 71.50162 -167.902954 
L 72.18742 -165.887401 
L 72.87322 -163.847782 
L 73.55902 -161.790318 
L 74.24482 -159.720879 
L 74.93062 -157.644968 
L 75.61642 -155.567715 
L 76.30222 -153.49387 
L 76.98802 -151.427806 
L 77.67382 -149.373522 
L 78.35962 -147.334653 
L 79.04542 -145.314478 
L 79.731221 -143.315937 
L 80.417021 -141.341644 
L 81.102821 -139.393903 
L 81.788621 -137.474726 
L 82.474421 -135.58585 
L 83.160221 -133.728757 
L 83.846021 -131.90469 
L 84.531821 -130.114674 
L 85.217621 -128.359528 
L 85.903421 -126.63989 
L 86.589221 -124.956225 
L 87.275021 -123.308846 
L 87.960822 -121.697929 
L 88.646622 -120.123523 
L 89.332422 -118.585566 
L 90.018222 -117.083899 
L 90.704022 -115.618271 
L 91.389822 -114.188357 
L 92.075622 -112.793764 
L 92.761422 -111.434039 
L 93.447222 -110.10868 
L 94.133022 -108.817142 
L 94.818822 -107.558843 
L 95.504622 -106.333171 
L 96.190423 -105.13949 
L 96.876223 -103.977145 
L 97.562023 -102.845466 
L 98.247823 -101.743772 
L 98.933623 -100.671374 
L 99.619423 -99.627579 
L 100.305223 -98.611694 
L 100.991023 -97.623026 
L 101.676823 -96.660886 
L 102.362623 -95.72459 
L 103.048423 -94.81346 
L 103.734223 -93.926828 
L 104.420024 -93.064035 
L 105.105824 -92.224432 
L 105.791624 -91.407381 
L 106.477424 -90.612258 
L 107.163224 -89.83845 
L 107.849024 -89.085357 
L 108.534824 -88.352393 
L 109.220624 -87.638988 
L 109.906424 -86.944581 
L 110.592224 -86.26863 
L 111.278024 -85.610604 
L 111.963824 -84.969988 
L 112.649625 -84.346279 
L 113.335425 -83.738989 
L 114.021225 -83.147643 
L 114.707025 -82.571782 
L 115.392825 -82.010958 
L 116.078625 -81.464736 
L 116.764425 -80.932696 
L 117.450225 -80.414428 
L 118.136025 -79.909536 
L 118.821825 -79.417636 
L 119.507625 -78.938355 
L 120.193425 -78.471334 
L 120.879225 -78.016222 
L 121.565026 -77.572681 
L 122.250826 -77.140382 
L 122.936626 -76.719009 
L 123.622426 -76.308253 
L 124.308226 -75.907818 
L 124.994026 -75.517414 
L 125.679826 -75.136763 
L 126.365626 -74.765594 
L 127.051426 -74.403646 
L 127.737226 -74.050667 
L 128.423026 -73.706411 
L 129.108826 -73.370641 
L 129.794627 -73.043127 
L 130.480427 -72.723649 
L 131.166227 -72.41199 
L 131.852027 -72.107944 
L 132.537827 -71.811308 
L 133.223627 -71.521888 
L 133.909427 -71.239495 
L 134.595227 -70.963947 
L 135.281027 -70.695068 
L 135.966827 -70.432686 
L 136.652627 -70.176636 
L 137.338427 -69.926757 
L 138.024228 -69.682896 
L 138.710028 -69.444901 
L 139.395828 -69.212628 
L 140.081628 -68.985935 
L 140.767428 -68.764687 
L 141.453228 -68.548752 
L 142.139028 -68.338002 
L 142.824828 -68.132314 
L 143.510628 -67.931568 
L 144.196428 -67.735648 
L 144.882228 -67.544442 
L 145.568028 -67.357841 
L 146.253829 -67.17574 
L 146.939629 -66.998037 
L 147.625429 -66.824635 
L 148.311229 -66.655436 
L 148.997029 -66.490349 
L 149.682829 -66.329283 
L 150.368629 -66.172154 
L 151.054429 -66.018875 
L 151.740229 -65.869366 
L 152.426029 -65.723548 
L 153.111829 -65.581345 
L 153.797629 -65.442683 
L 154.48343 -65.30749 
L 155.16923 -65.175697 
L 155.85503 -65.047237 
L 156.54083 -64.922046 
L 157.22663 -64.800059 
L 157.91243 -64.681216 
L 158.59823 -64.565459 
L 159.28403 -64.452731 
L 159.96983 -64.342975 
L 160.65563 -64.23614 
L 161.34143 -64.132172 
L 162.02723 -64.031023 
L 162.713031 -63.932643 
L 163.398831 -63.836987 
L 164.084631 -63.744009 
L 164.770431 -63.653665 
L 165.456231 -63.565913 
L 166.142031 -63.480712 
L 166.827831 -63.398023 
L 167.513631 -63.317808 
L 168.199431 -63.24003 
L 168.885231 -63.164654 
L 169.571031 -63.091646 
L 170.256831 -63.020973 
L 170.942632 -62.952602 
L 171.628432 -62.886504 
L 172.314232 -62.822649 
L 173.000032 -62.761009 
L 173.685832 -62.701556 
L 174.371632 -62.644265 
L 175.057432 -62.58911 
L 175.743232 -62.536068 
L 176.429032 -62.485115 
L 177.114832 -62.436229 
L 177.800632 -62.389389 
L 178.486432 -62.344575 
L 179.172233 -62.301768 
L 179.858033 -62.26095 
L 180.543833 -62.222102 
L 181.229633 -62.185209 
L 181.915433 -62.150256 
L 182.601233 -62.117226 
L 183.287033 -62.086107 
L 183.972833 -62.056885 
L 184.658633 -62.029547 
L 185.344433 -62.004084 
L 186.030233 -61.980483 
L 186.716033 -61.958735 
L 187.401834 -61.938831 
L 188.087634 -61.920762 
L 188.773434 -61.904522 
L 189.459234 -61.890103 
L 190.145034 -61.877499 
L 190.830834 -61.866706 
L 191.516634 -61.857718 
L 192.202434 -61.850532 
L 192.888234 -61.845146 
L 193.574034 -61.841556 
L 194.259834 -61.839761 
L 194.945634 -61.839761 
L 195.631434 -61.841556 
L 196.317235 -61.845146 
L 197.003035 -61.850532 
L 197.688835 -61.857718 
L 198.374635 -61.866706 
L 199.060435 -61.877499 
L 199.746235 -61.890103 
L 200.432035 -61.904522 
L 201.117835 -61.920762 
L 201.803635 -61.938831 
L 202.489435 -61.958735 
L 203.175235 -61.980483 
L 203.861035 -62.004084 
L 204.546836 -62.029547 
L 205.232636 -62.056885 
L 205.918436 -62.086107 
L 206.604236 -62.117226 
L 207.290036 -62.150256 
L 207.975836 -62.185209 
L 208.661636 -62.222102 
L 209.347436 -62.26095 
L 210.033236 -62.301768 
L 210.719036 -62.344575 
L 211.404836 -62.389389 
L 212.090636 -62.436229 
L 212.776437 -62.485115 
L 213.462237 -62.536068 
L 214.148037 -62.58911 
L 214.833837 -62.644265 
L 215.519637 -62.701556 
L 216.205437 -62.761009 
L 216.891237 -62.822649 
L 217.577037 -62.886504 
L 218.262837 -62.952602 
L 218.948637 -63.020973 
L 219.634437 -63.091646 
L 220.320237 -63.164654 
L 221.006038 -63.24003 
L 221.691838 -63.317808 
L 222.377638 -63.398023 
L 223.063438 -63.480712 
L 223.749238 -63.565913 
L 224.435038 -63.653665 
L 225.120838 -63.744009 
L 225.806638 -63.836987 
L 226.492438 -63.932643 
L 227.178238 -64.031023 
L 227.864038 -64.132172 
L 228.549838 -64.23614 
L 229.235639 -64.342975 
L 229.921439 -64.452731 
L 230.607239 -64.565459 
L 231.293039 -64.681216 
L 231.978839 -64.800059 
L 232.664639 -64.922046 
L 233.350439 -65.047237 
L 234.036239 -65.175697 
L 234.722039 -65.30749 
L 235.407839 -65.442683 
L 236.093639 -65.581345 
L 236.779439 -65.723548 
L 237.46524 -65.869366 
L 238.15104 -66.018875 
L 238.83684 -66.172154 
L 239.52264 -66.329283 
L 240.20844 -66.490349 
L 240.89424 -66.655436 
L 241.58004 -66.824635 
L 242.26584 -66.998037 
L 242.95164 -67.17574 
L 243.63744 -67.357841 
L 244.32324 -67.544442 
L 245.00904 -67.735648 
L 245.694841 -67.931568 
L 246.380641 -68.132314 
L 247.066441 -68.338002 
L 247.752241 -68.548752 
L 248.438041 -68.764687 
L 249.123841 -68.985935 
L 249.809641 -69.212628 
L 250.495441 -69.444901 
L 251.181241 -69.682896 
L 251.867041 -69.926757 
L 252.552841 -70.176636 
L 253.238641 -70.432686 
L 253.924442 -70.695068 
L 254.610242 -70.963947 
L 255.296042 -71.239495 
L 255.981842 -71.521888 
L 256.667642 -71.811308 
L 257.353442 -72.107944 
L 258.039242 -72.41199 
L 258.725042 -72.723649 
L 259.410842 -73.043127 
L 260.096642 -73.370641 
L 260.782442 -73.706411 
L 261.468242 -74.050667 
L 262.154043 -74.403646 
L 262.839843 -74.765594 
L 263.525643 -75.136763 
L 264.211443 -75.517414 
L 264.897243 -75.907818 
L 265.583043 -76.308253 
L 266.268843 -76.719009 
L 266.954643 -77.140382 
L 267.640443 -77.572681 
L 268.326243 -78.016222 
L 269.012043 -78.471334 
L 269.697843 -78.938355 
L 270.383644 -79.417636 
L 271.069444 -79.909536 
L 271.755244 -80.414428 
L 272.441044 -80.932696 
L 273.126844 -81.464736 
L 273.812644 -82.010958 
L 274.498444 -82.571782 
L 275.184244 -83.147643 
L 275.870044 -83.738989 
L 276.555844 -84.346279 
L 277.241644 -84.969988 
L 277.927444 -85.610604 
L 278.613244 -86.26863 
L 279.299045 -86.944581 
L 279.984845 -87.638988 
L 280.670645 -88.352393 
L 281.356445 -89.085357 
L 282.042245 -89.83845 
L 282.728045 -90.612258 
L 283.413845 -91.407381 
L 284.099645 -92.224432 
L 284.785445 -93.064035 
L 285.471245 -93.926828 
L 286.157045 -94.81346 
L 286.842845 -95.72459 
L 287.528646 -96.660886 
L 288.214446 -97.623026 
L 288.900246 -98.611694 
L 289.586046 -99.627579 
L 290.271846 -100.671374 
L 290.957646 -101.743772 
L 291.643446 -102.845466 
L 292.329246 -103.977145 
L 293.015046 -105.13949 
L 293.700846 -106.333171 
L 294.386646 -107.558843 
L 295.072446 -108.817142 
L 295.758247 -110.10868 
L 296.444047 -111.434039 
L 297.129847 -112.793764 
L 297.815647 -114.188357 
L 298.501447 -115.618271 
L 299.187247 -117.083899 
L 299.873047 -118.585566 
L 300.558847 -120.123523 
L 301.244647 -121.697929 
L 301.930447 -123.308846 
L 302.616247 -124.956225 
L 303.302047 -126.63989 
L 303.987848 -128.359528 
L 304.673648 -130.114674 
L 305.359448 -131.90469 
L 306.045248 -133.728757 
L 306.731048 -135.58585 
L 307.416848 -137.474726 
L 308.102648 -139.393903 
L 308.788448 -141.341644 
L 309.474248 -143.315937 
L 310.160048 -145.314478 
L 310.845848 -147.334653 
L 311.531648 -149.373522 
L 312.217449 -151.427806 
L 312.903249 -153.49387 
L 313.589049 -155.567715 
L 314.274849 -157.644968 
L 314.960649 -159.720879 
L 315.646449 -161.790318 
L 316.332249 -163.847782 
L 317.018049 -165.887401 
L 317.703849 -167.902954 
L 318.389649 -169.887891 
L 319.075449 -171.835357 
L 319.761249 -173.738232 
L 320.44705 -175.589171 
L 321.13285 -177.380649 
L 321.81865 -179.105027 
L 322.50445 -180.754605 
L 323.19025 -182.3217 
L 323.87605 -183.798718 
L 324.56185 -185.178231 
L 325.24765 -186.453068 
L 325.93345 -187.616391 
L 326.61925 -188.661787 
L 327.30505 -189.583347 
L 327.99085 -190.375746 
L 328.676651 -191.03432 
L 329.362451 -191.555132 
L 330.048251 -191.935026 
L 330.734051 -192.17168 
L 331.419851 -192.263636 
L 331.419851 -45.536364 
L 331.419851 -45.536364 
L 330.734051 -45.536364 
L 330.048251 -45.536364 
L 329.362451 -45.536364 
L 328.676651 -45.536364 
L 327.99085 -45.536364 
L 327.30505 -45.536364 
L 326.61925 -45.536364 
L 325.93345 -45.536364 
L 325.24765 -45.536364 
L 324.56185 -45.536364 
L 323.87605 -45.536364 
L 323.19025 -45.536364 
L 322.50445 -45.536364 
L 321.81865 -45.536364 
L 321.13285 -45.536364 
L 320.44705 -45.536364 
L 319.761249 -45.536364 
L 319.075449 -45.536364 
L 318.389649 -45.536364 
L 317.703849 -45.536364 
L 317.018049 -45.536364 
L 316.332249 -45.536364 
L 315.646449 -45.536364 
L 314.960649 -45.536364 
L 314.274849 -45.536364 
L 313.589049 -45.536364 
L 312.903249 -45.536364 
L 312.217449 -45.536364 
L 311.531648 -45.536364 
L 310.845848 -45.536364 
L 310.160048 -45.536364 
L 309.474248 -45.536364 
L 308.788448 -45.536364 
L 308.102648 -45.536364 
L 307.416848 -45.536364 
L 306.731048 -45.536364 
L 306.045248 -45.536364 
L 305.359448 -45.536364 
L 304.673648 -45.536364 
L 303.987848 -45.536364 
L 303.302047 -45.536364 
L 302.616247 -45.536364 
L 301.930447 -45.536364 
L 301.244647 -45.536364 
L 300.558847 -45.536364 
L 299.873047 -45.536364 
L 299.187247 -45.536364 
L 298.501447 -45.536364 
L 297.815647 -45.536364 
L 297.129847 -45.536364 
L 296.444047 -45.536364 
L 295.758247 -45.536364 
L 295.072446 -45.536364 
L 294.386646 -45.536364 
L 293.700846 -45.536364 
L 293.015046 -45.536364 
L 292.329246 -45.536364 
L 291.643446 -45.536364 
L 290.957646 -45.536364 
L 290.271846 -45.536364 
L 289.586046 -45.536364 
L 288.900246 -45.536364 
L 288.214446 -45.536364 
L 287.528646 -45.536364 
L 286.842845 -45.536364 
L 286.157045 -45.536364 
L 285.471245 -45.536364 
L 284.785445 -45.536364 
L 284.099645 -45.536364 
L 283.413845 -45.536364 
L 282.728045 -45.536364 
L 282.042245 -45.536364 
L 281.356445 -45.536364 
L 280.670645 -45.536364 
L 279.984845 -45.536364 
L 279.299045 -45.536364 
L 278.613244 -45.536364 
L 277.927444 -45.536364 
L 277.241644 -45.536364 
L 276.555844 -45.536364 
L 275.870044 -45.536364 
L 275.184244 -45.536364 
L 274.498444 -45.536364 
L 273.812644 -45.536364 
L 273.126844 -45.536364 
L 272.441044 -45.536364 
L 271.755244 -45.536364 
L 271.069444 -45.536364 
L 270.383644 -45.536364 
L 269.697843 -45.536364 
L 269.012043 -45.536364 
L 268.326243 -45.536364 
L 267.640443 -45.536364 
L 266.954643 -45.536364 
L 266.268843 -45.536364 
L 265.583043 -45.536364 
L 264.897243 -45.536364 
L 264.211443 -45.536364 
L 263.525643 -45.536364 
L 262.839843 -45.536364 
L 262.154043 -45.536364 
L 261.468242 -45.536364 
L 260.782442 -45.536364 
L 260.096642 -45.536364 
L 259.410842 -45.536364 
L 258.725042 -45.536364 
L 258.039242 -45.536364 
L 257.353442 -45.536364 
L 256.667642 -45.536364 
L 255.981842 -45.536364 
L 255.296042 -45.536364 
L 254.610242 -45.536364 
L 253.924442 -45.536364 
L 253.238641 -45.536364 
L 252.552841 -45.536364 
L 251.867041 -45.536364 
L 251.181241 -45.536364 
L 250.495441 -45.536364 
L 249.809641 -45.536364 
L 249.123841 -45.536364 
L 248.438041 -45.536364 
L 247.752241 -45.536364 
L 247.066441 -45.536364 
L 246.380641 -45.536364 
L 245.694841 -45.536364 
L 245.00904 -45.536364 
L 244.32324 -45.536364 
L 243.63744 -45.536364 
L 242.95164 -45.536364 
L 242.26584 -45.536364 
L 241.58004 -45.536364 
L 240.89424 -45.536364 
L 240.20844 -45.536364 
L 239.52264 -45.536364 
L 238.83684 -45.536364 
L 238.15104 -45.536364 
L 237.46524 -45.536364 
L 236.779439 -45.536364 
L 236.093639 -45.536364 
L 235.407839 -45.536364 
L 234.722039 -45.536364 
L 234.036239 -45.536364 
L 233.350439 -45.536364 
L 232.664639 -45.536364 
L 231.978839 -45.536364 
L 231.293039 -45.536364 
L 230.607239 -45.536364 
L 229.921439 -45.536364 
L 229.235639 -45.536364 
L 228.549838 -45.536364 
L 227.864038 -45.536364 
L 227.178238 -45.536364 
L 226.492438 -45.536364 
L 225.806638 -45.536364 
L 225.120838 -45.536364 
L 224.435038 -45.536364 
L 223.749238 -45.536364 
L 223.063438 -45.536364 
L 222.377638 -45.536364 
L 221.691838 -45.536364 
L 221.006038 -45.536364 
L 220.320237 -45.536364 
L 219.634437 -45.536364 
L 218.948637 -45.536364 
L 218.262837 -45.536364 
L 217.577037 -45.536364 
L 216.891237 -45.536364 
L 216.205437 -45.536364 
L 215.519637 -45.536364 
L 214.833837 -45.536364 
L 214.148037 -45.536364 
L 213.462237 -45.536364 
L 212.776437 -45.536364 
L 212.090636 -45.536364 
L 211.404836 -45.536364 
L 210.719036 -45.536364 
L 210.033236 -45.536364 
L 209.347436 -45.536364 
L 208.661636 -45.536364 
L 207.975836 -45.536364 
L 207.290036 -45.536364 
L 206.604236 -45.536364 
L 205.918436 -45.536364 
L 205.232636 -45.536364 
L 204.546836 -45.536364 
L 203.861035 -45.536364 
L 203.175235 -45.536364 
L 202.489435 -45.536364 
L 201.803635 -45.536364 
L 201.117835 -45.536364 
L 200.432035 -45.536364 
L 199.746235 -45.536364 
L 199.060435 -45.536364 
L 198.374635 -45.536364 
L 197.688835 -45.536364 
L 197.003035 -45.536364 
L 196.317235 -45.536364 
L 195.631434 -45.536364 
L 194.945634 -45.536364 
L 194.259834 -45.536364 
L 193.574034 -45.536364 
L 192.888234 -45.536364 
L 192.202434 -45.536364 
L 191.516634 -45.536364 
L 190.830834 -45.536364 
L 190.145034 -45.536364 
L 189.459234 -45.536364 
L 188.773434 -45.536364 
L 188.087634 -45.536364 
L 187.401834 -45.536364 
L 186.716033 -45.536364 
L 186.030233 -45.536364 
L 185.344433 -45.536364 
L 184.658633 -45.536364 
L 183.972833 -45.536364 
L 183.287033 -45.536364 
L 182.601233 -45.536364 
L 181.915433 -45.536364 
L 181.229633 -45.536364 
L 180.543833 -45.536364 
L 179.858033 -45.536364 
L 179.172233 -45.536364 
L 178.486432 -45.536364 
L 177.800632 -45.536364 
L 177.114832 -45.536364 
L 176.429032 -45.536364 
L 175.743232 -45.536364 
L 175.057432 -45.536364 
L 174.371632 -45.536364 
L 173.685832 -45.536364 
L 173.000032 -45.536364 
L 172.314232 -45.536364 
L 171.628432 -45.536364 
L 170.942632 -45.536364 
L 170.256831 -45.536364 
L 169.571031 -45.536364 
L 168.885231 -45.536364 
L 168.199431 -45.536364 
L 167.513631 -45.536364 
L 166.827831 -45.536364 
L 166.142031 -45.536364 
L 165.456231 -45.536364 
L 164.770431 -45.536364 
L 164.084631 -45.536364 
L 163.398831 -45.536364 
L 162.713031 -45.536364 
L 162.02723 -45.536364 
L 161.34143 -45.536364 
L 160.65563 -45.536364 
L 159.96983 -45.536364 
L 159.28403 -45.536364 
L 158.59823 -45.536364 
L 157.91243 -45.536364 
L 157.22663 -45.536364 
L 156.54083 -45.536364 
L 155.85503 -45.536364 
L 155.16923 -45.536364 
L 154.48343 -45.536364 
L 153.797629 -45.536364 
L 153.111829 -45.536364 
L 152.426029 -45.536364 
L 151.740229 -45.536364 
L 151.054429 -45.536364 
L 150.368629 -45.536364 
L 149.682829 -45.536364 
L 148.997029 -45.536364 
L 148.311229 -45.536364 
L 147.625429 -45.536364 
L 146.939629 -45.536364 
L 146.253829 -45.536364 
L 145.568028 -45.536364 
L 144.882228 -45.536364 
L 144.196428 -45.536364 
L 143.510628 -45.536364 
L 142.824828 -45.536364 
L 142.139028 -45.536364 
L 141.453228 -45.536364 
L 140.767428 -45.536364 
L 140.081628 -45.536364 
L 139.395828 -45.536364 
L 138.710028 -45.536364 
L 138.024228 -45.536364 
L 137.338427 -45.536364 
L 136.652627 -45.536364 
L 135.966827 -45.536364 
L 135.281027 -45.536364 
L 134.595227 -45.536364 
L 133.909427 -45.536364 
L 133.223627 -45.536364 
L 132.537827 -45.536364 
L 131.852027 -45.536364 
L 131.166227 -45.536364 
L 130.480427 -45.536364 
L 129.794627 -45.536364 
L 129.108826 -45.536364 
L 128.423026 -45.536364 
L 127.737226 -45.536364 
L 127.051426 -45.536364 
L 126.365626 -45.536364 
L 125.679826 -45.536364 
L 124.994026 -45.536364 
L 124.308226 -45.536364 
L 123.622426 -45.536364 
L 122.936626 -45.536364 
L 122.250826 -45.536364 
L 121.565026 -45.536364 
L 120.879225 -45.536364 
L 120.193425 -45.536364 
L 119.507625 -45.536364 
L 118.821825 -45.536364 
L 118.136025 -45.536364 
L 117.450225 -45.536364 
L 116.764425 -45.536364 
L 116.078625 -45.536364 
L 115.392825 -45.536364 
L 114.707025 -45.536364 
L 114.021225 -45.536364 
L 113.335425 -45.536364 
L 112.649625 -45.536364 
L 111.963824 -45.536364 
L 111.278024 -45.536364 
L 110.592224 -45.536364 
L 109.906424 -45.536364 
L 109.220624 -45.536364 
L 108.534824 -45.536364 
L 107.849024 -45.536364 
L 107.163224 -45.536364 
L 106.477424 -45.536364 
L 105.791624 -45.536364 
L 105.105824 -45.536364 
L 104.420024 -45.536364 
L 103.734223 -45.536364 
L 103.048423 -45.536364 
L 102.362623 -45.536364 
L 101.676823 -45.536364 
L 100.991023 -45.536364 
L 100.305223 -45.536364 
L 99.619423 -45.536364 
L 98.933623 -45.536364 
L 98.247823 -45.536364 
L 97.562023 -45.536364 
L 96.876223 -45.536364 
L 96.190423 -45.536364 
L 95.504622 -45.536364 
L 94.818822 -45.536364 
L 94.133022 -45.536364 
L 93.447222 -45.536364 
L 92.761422 -45.536364 
L 92.075622 -45.536364 
L 91.389822 -45.536364 
L 90.704022 -45.536364 
L 90.018222 -45.536364 
L 89.332422 -45.536364 
L 88.646622 -45.536364 
L 87.960822 -45.536364 
L 87.275021 -45.536364 
L 86.589221 -45.536364 
L 85.903421 -45.536364 
L 85.217621 -45.536364 
L 84.531821 -45.536364 
L 83.846021 -45.536364 
L 83.160221 -45.536364 
L 82.474421 -45.536364 
L 81.788621 -45.536364 
L 81.102821 -45.536364 
L 80.417021 -45.536364 
L 79.731221 -45.536364 
L 79.04542 -45.536364 
L 78.35962 -45.536364 
L 77.67382 -45.536364 
L 76.98802 -45.536364 
L 76.30222 -45.536364 
L 75.61642 -45.536364 
L 74.93062 -45.536364 
L 74.24482 -45.536364 
L 73.55902 -45.536364 
L 72.87322 -45.536364 
L 72.18742 -45.536364 
L 71.50162 -45.536364 
L 70.815819 -45.536364 
L 70.130019 -45.536364 
L 69.444219 -45.536364 
L 68.758419 -45.536364 
L 68.072619 -45.536364 
L 67.386819 -45.536364 
L 66.701019 -45.536364 
L 66.015219 -45.536364 
L 65.329419 -45.536364 
L 64.643619 -45.536364 
L 63.957819 -45.536364 
L 63.272019 -45.536364 
L 62.586218 -45.536364 
L 61.900418 -45.536364 
L 61.214618 -45.536364 
L 60.528818 -45.536364 
L 59.843018 -45.536364 
L 59.157218 -45.536364 
L 58.471418 -45.536364 
L 57.785618 -45.536364 
z
" style="stroke: #4c78a8; stroke-opacity: 0.15"/>
    </defs>
    <g clip-path="url(#p808068e00d)">
     <use xlink:href="#m5f5fafadd0" x="0" y="223.158281" style="fill: #4c78a8; fill-opacity: 0.15; stroke: #4c78a8; stroke-opacity: 0.15"/>
    </g>
   </g>
   <g id="matplotlib.axis_1">
    <g id="xtick_1">
     <g id="line2d_1">
      <path d="M 57.694345 184.958281 
L 57.694345 23.558281 
" clip-path="url(#p808068e00d)" style="fill: none; stroke: #b0b0b0; stroke-opacity: 0.25; stroke-width: 0.6; stroke-linecap: square"/>
     </g>
     <g id="line2d_2">
      <defs>
       <path id="mdf14909067" d="M 0 0 
L 0 3.5 
" style="stroke: #000000; stroke-width: 0.8"/>
      </defs>
      <g>
       <use xlink:href="#mdf14909067" x="57.694345" y="184.958281" style="stroke: #000000; stroke-width: 0.8"/>
      </g>
     </g>
     <g id="text_1">
      <!-- 0 -->
      <g transform="translate(54.513095 199.555938) scale(0.1 -0.1)">
       <defs>
        <path id="DejaVuSans-13" d="M 2034 4250 
Q 1547 4250 1301 3770 
Q 1056 3291 1056 2328 
Q 1056 1369 1301 889 
Q 1547 409 2034 409 
Q 2525 409 2770 889 
Q 3016 1369 3016 2328 
Q 3016 3291 2770 3770 
Q 2525 4250 2034 4250 
z
M 2034 4750 
Q 2819 4750 3233 4129 
Q 3647 3509 3647 2328 
Q 3647 1150 3233 529 
Q 2819 -91 2034 -91 
Q 1250 -91 836 529 
Q 422 1150 422 2328 
Q 422 3509 836 4129 
Q 1250 4750 2034 4750 
z
" transform="scale(0.015625)"/>
       </defs>
       <use xlink:href="#DejaVuSans-13"/>
      </g>
     </g>
    </g>
    <g id="xtick_2">
     <g id="line2d_3">
      <path d="M 101.273639 184.958281 
L 101.273639 23.558281 
" clip-path="url(#p808068e00d)" style="fill: none; stroke: #b0b0b0; stroke-opacity: 0.25; stroke-width: 0.6; stroke-linecap: square"/>
     </g>
     <g id="line2d_4">
      <g>
       <use xlink:href="#mdf14909067" x="101.273639" y="184.958281" style="stroke: #000000; stroke-width: 0.8"/>
      </g>
     </g>
     <g id="text_2">
      <!-- 1 -->
      <g transform="translate(98.092389 199.555938) scale(0.1 -0.1)">
       <defs>
        <path id="DejaVuSans-14" d="M 794 531 
L 1825 531 
L 1825 4091 
L 703 3866 
L 703 4441 
L 1819 4666 
L 2450 4666 
L 2450 531 
L 3481 531 
L 3481 0 
L 794 0 
L 794 531 
z
" transform="scale(0.015625)"/>
       </defs>
       <use xlink:href="#DejaVuSans-14"/>
      </g>
     </g>
    </g>
    <g id="xtick_3">
     <g id="line2d_5">
      <path d="M 144.852933 184.958281 
L 144.852933 23.558281 
" clip-path="url(#p808068e00d)" style="fill: none; stroke: #b0b0b0; stroke-opacity: 0.25; stroke-width: 0.6; stroke-linecap: square"/>
     </g>
     <g id="line2d_6">
      <g>
       <use xlink:href="#mdf14909067" x="144.852933" y="184.958281" style="stroke: #000000; stroke-width: 0.8"/>
      </g>
     </g>
     <g id="text_3">
      <!-- 2 -->
      <g transform="translate(141.671683 199.555938) scale(0.1 -0.1)">
       <defs>
        <path id="DejaVuSans-15" d="M 1228 531 
L 3431 531 
L 3431 0 
L 469 0 
L 469 531 
Q 828 903 1448 1529 
Q 2069 2156 2228 2338 
Q 2531 2678 2651 2914 
Q 2772 3150 2772 3378 
Q 2772 3750 2511 3984 
Q 2250 4219 1831 4219 
Q 1534 4219 1204 4116 
Q 875 4013 500 3803 
L 500 4441 
Q 881 4594 1212 4672 
Q 1544 4750 1819 4750 
Q 2544 4750 2975 4387 
Q 3406 4025 3406 3419 
Q 3406 3131 3298 2873 
Q 3191 2616 2906 2266 
Q 2828 2175 2409 1742 
Q 1991 1309 1228 531 
z
" transform="scale(0.015625)"/>
       </defs>
       <use xlink:href="#DejaVuSans-15"/>
      </g>
     </g>
    </g>
    <g id="xtick_4">
     <g id="line2d_7">
      <path d="M 188.432227 184.958281 
L 188.432227 23.558281 
" clip-path="url(#p808068e00d)" style="fill: none; stroke: #b0b0b0; stroke-opacity: 0.25; stroke-width: 0.6; stroke-linecap: square"/>
     </g>
     <g id="line2d_8">
      <g>
       <use xlink:href="#mdf14909067" x="188.432227" y="184.958281" style="stroke: #000000; stroke-width: 0.8"/>
      </g>
     </g>
     <g id="text_4">
      <!-- 3 -->
      <g transform="translate(185.250977 199.555938) scale(0.1 -0.1)">
       <defs>
        <path id="DejaVuSans-16" d="M 2597 2516 
Q 3050 2419 3304 2112 
Q 3559 1806 3559 1356 
Q 3559 666 3084 287 
Q 2609 -91 1734 -91 
Q 1441 -91 1130 -33 
Q 819 25 488 141 
L 488 750 
Q 750 597 1062 519 
Q 1375 441 1716 441 
Q 2309 441 2620 675 
Q 2931 909 2931 1356 
Q 2931 1769 2642 2001 
Q 2353 2234 1838 2234 
L 1294 2234 
L 1294 2753 
L 1863 2753 
Q 2328 2753 2575 2939 
Q 2822 3125 2822 3475 
Q 2822 3834 2567 4026 
Q 2313 4219 1838 4219 
Q 1578 4219 1281 4162 
Q 984 4106 628 3988 
L 628 4550 
Q 988 4650 1302 4700 
Q 1616 4750 1894 4750 
Q 2613 4750 3031 4423 
Q 3450 4097 3450 3541 
Q 3450 3153 3228 2886 
Q 3006 2619 2597 2516 
z
" transform="scale(0.015625)"/>
       </defs>
       <use xlink:href="#DejaVuSans-16"/>
      </g>
     </g>
    </g>
    <g id="xtick_5">
     <g id="line2d_9">
      <path d="M 232.01152 184.958281 
L 232.01152 23.558281 
" clip-path="url(#p808068e00d)" style="fill: none; stroke: #b0b0b0; stroke-opacity: 0.25; stroke-width: 0.6; stroke-linecap: square"/>
     </g>
     <g id="line2d_10">
      <g>
       <use xlink:href="#mdf14909067" x="232.01152" y="184.958281" style="stroke: #000000; stroke-width: 0.8"/>
      </g>
     </g>
     <g id="text_5">
      <!-- 4 -->
      <g transform="translate(228.83027 199.555938) scale(0.1 -0.1)">
       <defs>
        <path id="DejaVuSans-17" d="M 2419 4116 
L 825 1625 
L 2419 1625 
L 2419 4116 
z
M 2253 4666 
L 3047 4666 
L 3047 1625 
L 3713 1625 
L 3713 1100 
L 3047 1100 
L 3047 0 
L 2419 0 
L 2419 1100 
L 313 1100 
L 313 1709 
L 2253 4666 
z
" transform="scale(0.015625)"/>
       </defs>
       <use xlink:href="#DejaVuSans-17"/>
      </g>
     </g>
    </g>
    <g id="xtick_6">
     <g id="line2d_11">
      <path d="M 275.590814 184.958281 
L 275.590814 23.558281 
" clip-path="url(#p808068e00d)" style="fill: none; stroke: #b0b0b0; stroke-opacity: 0.25; stroke-width: 0.6; stroke-linecap: square"/>
     </g>
     <g id="line2d_12">
      <g>
       <use xlink:href="#mdf14909067" x="275.590814" y="184.958281" style="stroke: #000000; stroke-width: 0.8"/>
      </g>
     </g>
     <g id="text_6">
      <!-- 5 -->
      <g transform="translate(272.409564 199.555938) scale(0.1 -0.1)">
       <defs>
        <path id="DejaVuSans-18" d="M 691 4666 
L 3169 4666 
L 3169 4134 
L 1269 4134 
L 1269 2991 
Q 1406 3038 1543 3061 
Q 1681 3084 1819 3084 
Q 2600 3084 3056 2656 
Q 3513 2228 3513 1497 
Q 3513 744 3044 326 
Q 2575 -91 1722 -91 
Q 1428 -91 1123 -41 
Q 819 9 494 109 
L 494 744 
Q 775 591 1075 516 
Q 1375 441 1709 441 
Q 2250 441 2565 725 
Q 2881 1009 2881 1497 
Q 2881 1984 2565 2268 
Q 2250 2553 1709 2553 
Q 1456 2553 1204 2497 
Q 953 2441 691 2322 
L 691 4666 
z
" transform="scale(0.015625)"/>
       </defs>
       <use xlink:href="#DejaVuSans-18"/>
      </g>
     </g>
    </g>
    <g id="xtick_7">
     <g id="line2d_13">
      <path d="M 319.170108 184.958281 
L 319.170108 23.558281 
" clip-path="url(#p808068e00d)" style="fill: none; stroke: #b0b0b0; stroke-opacity: 0.25; stroke-width: 0.6; stroke-linecap: square"/>
     </g>
     <g id="line2d_14">
      <g>
       <use xlink:href="#mdf14909067" x="319.170108" y="184.958281" style="stroke: #000000; stroke-width: 0.8"/>
      </g>
     </g>
     <g id="text_7">
      <!-- 6 -->
      <g transform="translate(315.988858 199.555938) scale(0.1 -0.1)">
       <defs>
        <path id="DejaVuSans-19" d="M 2113 2584 
Q 1688 2584 1439 2293 
Q 1191 2003 1191 1497 
Q 1191 994 1439 701 
Q 1688 409 2113 409 
Q 2538 409 2786 701 
Q 3034 994 3034 1497 
Q 3034 2003 2786 2293 
Q 2538 2584 2113 2584 
z
M 3366 4563 
L 3366 3988 
Q 3128 4100 2886 4159 
Q 2644 4219 2406 4219 
Q 1781 4219 1451 3797 
Q 1122 3375 1075 2522 
Q 1259 2794 1537 2939 
Q 1816 3084 2150 3084 
Q 2853 3084 3261 2657 
Q 3669 2231 3669 1497 
Q 3669 778 3244 343 
Q 2819 -91 2113 -91 
Q 1303 -91 875 529 
Q 447 1150 447 2328 
Q 447 3434 972 4092 
Q 1497 4750 2381 4750 
Q 2619 4750 2861 4703 
Q 3103 4656 3366 4563 
z
" transform="scale(0.015625)"/>
       </defs>
       <use xlink:href="#DejaVuSans-19"/>
      </g>
     </g>
    </g>
    <g id="text_8">
     <!-- x -->
     <g transform="translate(191.643359 213.555938) scale(0.1 -0.1)">
      <defs>
       <path id="DejaVuSans-5b" d="M 3513 3500 
L 2247 1797 
L 3578 0 
L 2900 0 
L 1881 1375 
L 863 0 
L 184 0 
L 1544 1831 
L 300 3500 
L 978 3500 
L 1906 2253 
L 2834 3500 
L 3513 3500 
z
" transform="scale(0.015625)"/>
      </defs>
      <use xlink:href="#DejaVuSans-5b"/>
     </g>
    </g>
   </g>
   <g id="matplotlib.axis_2">
    <g id="ytick_1">
     <g id="line2d_15">
      <path d="M 44.103906 177.621918 
L 345.101562 177.621918 
" clip-path="url(#p808068e00d)" style="fill: none; stroke: #b0b0b0; stroke-opacity: 0.25; stroke-width: 0.6; stroke-linecap: square"/>
     </g>
     <g id="line2d_16">
      <defs>
       <path id="mb6e074fdab" d="M 0 0 
L -3.5 0 
" style="stroke: #000000; stroke-width: 0.8"/>
      </defs>
      <g>
       <use xlink:href="#mb6e074fdab" x="44.103906" y="177.621918" style="stroke: #000000; stroke-width: 0.8"/>
      </g>
     </g>
     <g id="text_9">
      <!-- 0.0 -->
      <g transform="translate(21.200781 181.420746) scale(0.1 -0.1)">
       <defs>
        <path id="DejaVuSans-11" d="M 684 794 
L 1344 794 
L 1344 0 
L 684 0 
L 684 794 
z
" transform="scale(0.015625)"/>
       </defs>
       <use xlink:href="#DejaVuSans-13"/>
       <use xlink:href="#DejaVuSans-11" transform="translate(63.625 0)"/>
       <use xlink:href="#DejaVuSans-13" transform="translate(95.40625 0)"/>
      </g>
     </g>
    </g>
    <g id="ytick_2">
     <g id="line2d_17">
      <path d="M 44.103906 146.89116 
L 345.101562 146.89116 
" clip-path="url(#p808068e00d)" style="fill: none; stroke: #b0b0b0; stroke-opacity: 0.25; stroke-width: 0.6; stroke-linecap: square"/>
     </g>
     <g id="line2d_18">
      <g>
       <use xlink:href="#mb6e074fdab" x="44.103906" y="146.89116" style="stroke: #000000; stroke-width: 0.8"/>
      </g>
     </g>
     <g id="text_10">
      <!-- 0.1 -->
      <g transform="translate(21.200781 150.689988) scale(0.1 -0.1)">
       <use xlink:href="#DejaVuSans-13"/>
       <use xlink:href="#DejaVuSans-11" transform="translate(63.625 0)"/>
       <use xlink:href="#DejaVuSans-14" transform="translate(95.40625 0)"/>
      </g>
     </g>
    </g>
    <g id="ytick_3">
     <g id="line2d_19">
      <path d="M 44.103906 116.160402 
L 345.101562 116.160402 
" clip-path="url(#p808068e00d)" style="fill: none; stroke: #b0b0b0; stroke-opacity: 0.25; stroke-width: 0.6; stroke-linecap: square"/>
     </g>
     <g id="line2d_20">
      <g>
       <use xlink:href="#mb6e074fdab" x="44.103906" y="116.160402" style="stroke: #000000; stroke-width: 0.8"/>
      </g>
     </g>
     <g id="text_11">
      <!-- 0.2 -->
      <g transform="translate(21.200781 119.95923) scale(0.1 -0.1)">
       <use xlink:href="#DejaVuSans-13"/>
       <use xlink:href="#DejaVuSans-11" transform="translate(63.625 0)"/>
       <use xlink:href="#DejaVuSans-15" transform="translate(95.40625 0)"/>
      </g>
     </g>
    </g>
    <g id="ytick_4">
     <g id="line2d_21">
      <path d="M 44.103906 85.429644 
L 345.101562 85.429644 
" clip-path="url(#p808068e00d)" style="fill: none; stroke: #b0b0b0; stroke-opacity: 0.25; stroke-width: 0.6; stroke-linecap: square"/>
     </g>
     <g id="line2d_22">
      <g>
       <use xlink:href="#mb6e074fdab" x="44.103906" y="85.429644" style="stroke: #000000; stroke-width: 0.8"/>
      </g>
     </g>
     <g id="text_12">
      <!-- 0.3 -->
      <g transform="translate(21.200781 89.228473) scale(0.1 -0.1)">
       <use xlink:href="#DejaVuSans-13"/>
       <use xlink:href="#DejaVuSans-11" transform="translate(63.625 0)"/>
       <use xlink:href="#DejaVuSans-16" transform="translate(95.40625 0)"/>
      </g>
     </g>
    </g>
    <g id="ytick_5">
     <g id="line2d_23">
      <path d="M 44.103906 54.698887 
L 345.101562 54.698887 
" clip-path="url(#p808068e00d)" style="fill: none; stroke: #b0b0b0; stroke-opacity: 0.25; stroke-width: 0.6; stroke-linecap: square"/>
     </g>
     <g id="line2d_24">
      <g>
       <use xlink:href="#mb6e074fdab" x="44.103906" y="54.698887" style="stroke: #000000; stroke-width: 0.8"/>
      </g>
     </g>
     <g id="text_13">
      <!-- 0.4 -->
      <g transform="translate(21.200781 58.497715) scale(0.1 -0.1)">
       <use xlink:href="#DejaVuSans-13"/>
       <use xlink:href="#DejaVuSans-11" transform="translate(63.625 0)"/>
       <use xlink:href="#DejaVuSans-17" transform="translate(95.40625 0)"/>
      </g>
     </g>
    </g>
    <g id="ytick_6">
     <g id="line2d_25">
      <path d="M 44.103906 23.968129 
L 345.101562 23.968129 
" clip-path="url(#p808068e00d)" style="fill: none; stroke: #b0b0b0; stroke-opacity: 0.25; stroke-width: 0.6; stroke-linecap: square"/>
     </g>
     <g id="line2d_26">
      <g>
       <use xlink:href="#mb6e074fdab" x="44.103906" y="23.968129" style="stroke: #000000; stroke-width: 0.8"/>
      </g>
     </g>
     <g id="text_14">
      <!-- 0.5 -->
      <g transform="translate(21.200781 27.766957) scale(0.1 -0.1)">
       <use xlink:href="#DejaVuSans-13"/>
       <use xlink:href="#DejaVuSans-11" transform="translate(63.625 0)"/>
       <use xlink:href="#DejaVuSans-18" transform="translate(95.40625 0)"/>
      </g>
     </g>
    </g>
    <g id="text_15">
     <!-- f(x) -->
     <g transform="translate(14.798438 112.879375) rotate(-90) scale(0.1 -0.1)">
      <defs>
       <path id="DejaVuSans-49" d="M 2375 4863 
L 2375 4384 
L 1825 4384 
Q 1516 4384 1395 4259 
Q 1275 4134 1275 3809 
L 1275 3500 
L 2222 3500 
L 2222 3053 
L 1275 3053 
L 1275 0 
L 697 0 
L 697 3053 
L 147 3053 
L 147 3500 
L 697 3500 
L 697 3744 
Q 697 4328 969 4595 
Q 1241 4863 1831 4863 
L 2375 4863 
z
" transform="scale(0.015625)"/>
       <path id="DejaVuSans-b" d="M 1984 4856 
Q 1566 4138 1362 3434 
Q 1159 2731 1159 2009 
Q 1159 1288 1364 580 
Q 1569 -128 1984 -844 
L 1484 -844 
Q 1016 -109 783 600 
Q 550 1309 550 2009 
Q 550 2706 781 3412 
Q 1013 4119 1484 4856 
L 1984 4856 
z
" transform="scale(0.015625)"/>
       <path id="DejaVuSans-c" d="M 513 4856 
L 1013 4856 
Q 1481 4119 1714 3412 
Q 1947 2706 1947 2009 
Q 1947 1309 1714 600 
Q 1481 -109 1013 -844 
L 513 -844 
Q 928 -128 1133 580 
Q 1338 1288 1338 2009 
Q 1338 2731 1133 3434 
Q 928 4138 513 4856 
z
" transform="scale(0.015625)"/>
      </defs>
      <use xlink:href="#DejaVuSans-49"/>
      <use xlink:href="#DejaVuSans-b" transform="translate(35.203125 0)"/>
      <use xlink:href="#DejaVuSans-5b" transform="translate(74.21875 0)"/>
      <use xlink:href="#DejaVuSans-c" transform="translate(133.40625 0)"/>
     </g>
    </g>
   </g>
   <g id="line2d_27">
    <path d="M 57.785618 30.894645 
L 58.471418 30.986601 
L 59.157218 31.223255 
L 59.843018 31.603149 
L 61.214618 32.782535 
L 62.586218 34.496494 
L 63.957819 36.705213 
L 65.329419 39.359564 
L 67.386819 44.053254 
L 69.444219 49.420049 
L 72.18742 57.27088 
L 82.474421 87.572432 
L 85.217621 94.798753 
L 87.960822 101.460352 
L 90.704022 107.540011 
L 93.447222 113.049601 
L 96.190423 118.018791 
L 98.933623 122.486908 
L 101.676823 126.497395 
L 104.420024 130.094246 
L 107.163224 133.319832 
L 109.906424 136.2137 
L 112.649625 138.812003 
L 115.392825 141.147323 
L 118.821825 143.740646 
L 122.250826 146.017899 
L 125.679826 148.021519 
L 129.108826 149.787641 
L 133.223627 151.636394 
L 137.338427 153.231524 
L 141.453228 154.609529 
L 146.253829 155.982541 
L 151.054429 157.139406 
L 156.54083 158.236236 
L 162.713031 159.225638 
L 168.885231 159.993627 
L 175.743232 160.622214 
L 183.287033 161.072174 
L 190.830834 161.291575 
L 198.374635 161.291575 
L 205.918436 161.072174 
L 213.462237 160.622214 
L 220.320237 159.993627 
L 226.492438 159.225638 
L 232.664639 158.236236 
L 238.15104 157.139406 
L 243.63744 155.800441 
L 248.438041 154.393594 
L 252.552841 152.981646 
L 256.667642 151.346974 
L 260.782442 149.451871 
L 264.211443 147.640867 
L 267.640443 145.5856 
L 271.069444 143.248746 
L 274.498444 140.586499 
L 277.241644 138.188293 
L 279.984845 135.519294 
L 282.728045 132.546023 
L 285.471245 129.231453 
L 288.214446 125.535255 
L 290.957646 121.414509 
L 293.700846 116.825111 
L 296.444047 111.724242 
L 299.187247 106.074383 
L 301.930447 99.849435 
L 304.673648 93.043608 
L 307.416848 85.683555 
L 310.845848 75.823628 
L 320.44705 47.569111 
L 322.50445 42.403676 
L 323.87605 39.359564 
L 325.24765 36.705213 
L 326.61925 34.496494 
L 327.99085 32.782535 
L 329.362451 31.603149 
L 330.048251 31.223255 
L 330.734051 30.986601 
L 331.419851 30.894645 
L 331.419851 30.894645 
" clip-path="url(#p808068e00d)" style="fill: none; stroke: #4c78a8; stroke-width: 2; stroke-linecap: square"/>
   </g>
   <g id="patch_3">
    <path d="M 44.103906 184.958281 
L 44.103906 23.558281 
" style="fill: none; stroke: #000000; stroke-width: 0.8; stroke-linejoin: miter; stroke-linecap: square"/>
   </g>
   <g id="patch_4">
    <path d="M 44.103906 184.958281 
L 345.101562 184.958281 
" style="fill: none; stroke: #000000; stroke-width: 0.8; stroke-linejoin: miter; stroke-linecap: square"/>
   </g>
   <g id="text_16">
    <!-- Wrapped Cauchy -->
    <g transform="translate(147.710938 15.558281) scale(0.11 -0.11)">
     <defs>
      <path id="DejaVuSans-3a" d="M 213 4666 
L 850 4666 
L 1831 722 
L 2809 4666 
L 3519 4666 
L 4500 722 
L 5478 4666 
L 6119 4666 
L 4947 0 
L 4153 0 
L 3169 4050 
L 2175 0 
L 1381 0 
L 213 4666 
z
" transform="scale(0.015625)"/>
      <path id="DejaVuSans-55" d="M 2631 2963 
Q 2534 3019 2420 3045 
Q 2306 3072 2169 3072 
Q 1681 3072 1420 2755 
Q 1159 2438 1159 1844 
L 1159 0 
L 581 0 
L 581 3500 
L 1159 3500 
L 1159 2956 
Q 1341 3275 1631 3429 
Q 1922 3584 2338 3584 
Q 2397 3584 2469 3576 
Q 2541 3569 2628 3553 
L 2631 2963 
z
" transform="scale(0.015625)"/>
      <path id="DejaVuSans-44" d="M 2194 1759 
Q 1497 1759 1228 1600 
Q 959 1441 959 1056 
Q 959 750 1161 570 
Q 1363 391 1709 391 
Q 2188 391 2477 730 
Q 2766 1069 2766 1631 
L 2766 1759 
L 2194 1759 
z
M 3341 1997 
L 3341 0 
L 2766 0 
L 2766 531 
Q 2569 213 2275 61 
Q 1981 -91 1556 -91 
Q 1019 -91 701 211 
Q 384 513 384 1019 
Q 384 1609 779 1909 
Q 1175 2209 1959 2209 
L 2766 2209 
L 2766 2266 
Q 2766 2663 2505 2880 
Q 2244 3097 1772 3097 
Q 1472 3097 1187 3025 
Q 903 2953 641 2809 
L 641 3341 
Q 956 3463 1253 3523 
Q 1550 3584 1831 3584 
Q 2591 3584 2966 3190 
Q 3341 2797 3341 1997 
z
" transform="scale(0.015625)"/>
      <path id="DejaVuSans-53" d="M 1159 525 
L 1159 -1331 
L 581 -1331 
L 581 3500 
L 1159 3500 
L 1159 2969 
Q 1341 3281 1617 3432 
Q 1894 3584 2278 3584 
Q 2916 3584 3314 3078 
Q 3713 2572 3713 1747 
Q 3713 922 3314 415 
Q 2916 -91 2278 -91 
Q 1894 -91 1617 61 
Q 1341 213 1159 525 
z
M 3116 1747 
Q 3116 2381 2855 2742 
Q 2594 3103 2138 3103 
Q 1681 3103 1420 2742 
Q 1159 2381 1159 1747 
Q 1159 1113 1420 752 
Q 1681 391 2138 391 
Q 2594 391 2855 752 
Q 3116 1113 3116 1747 
z
" transform="scale(0.015625)"/>
      <path id="DejaVuSans-48" d="M 3597 1894 
L 3597 1613 
L 953 1613 
Q 991 1019 1311 708 
Q 1631 397 2203 397 
Q 2534 397 2845 478 
Q 3156 559 3463 722 
L 3463 178 
Q 3153 47 2828 -22 
Q 2503 -91 2169 -91 
Q 1331 -91 842 396 
Q 353 884 353 1716 
Q 353 2575 817 3079 
Q 1281 3584 2069 3584 
Q 2775 3584 3186 3129 
Q 3597 2675 3597 1894 
z
M 3022 2063 
Q 3016 2534 2758 2815 
Q 2500 3097 2075 3097 
Q 1594 3097 1305 2825 
Q 1016 2553 972 2059 
L 3022 2063 
z
" transform="scale(0.015625)"/>
      <path id="DejaVuSans-47" d="M 2906 2969 
L 2906 4863 
L 3481 4863 
L 3481 0 
L 2906 0 
L 2906 525 
Q 2725 213 2448 61 
Q 2172 -91 1784 -91 
Q 1150 -91 751 415 
Q 353 922 353 1747 
Q 353 2572 751 3078 
Q 1150 3584 1784 3584 
Q 2172 3584 2448 3432 
Q 2725 3281 2906 2969 
z
M 947 1747 
Q 947 1113 1208 752 
Q 1469 391 1925 391 
Q 2381 391 2643 752 
Q 2906 1113 2906 1747 
Q 2906 2381 2643 2742 
Q 2381 3103 1925 3103 
Q 1469 3103 1208 2742 
Q 947 2381 947 1747 
z
" transform="scale(0.015625)"/>
      <path id="DejaVuSans-3" transform="scale(0.015625)"/>
      <path id="DejaVuSans-26" d="M 4122 4306 
L 4122 3641 
Q 3803 3938 3442 4084 
Q 3081 4231 2675 4231 
Q 1875 4231 1450 3742 
Q 1025 3253 1025 2328 
Q 1025 1406 1450 917 
Q 1875 428 2675 428 
Q 3081 428 3442 575 
Q 3803 722 4122 1019 
L 4122 359 
Q 3791 134 3420 21 
Q 3050 -91 2638 -91 
Q 1578 -91 968 557 
Q 359 1206 359 2328 
Q 359 3453 968 4101 
Q 1578 4750 2638 4750 
Q 3056 4750 3426 4639 
Q 3797 4528 4122 4306 
z
" transform="scale(0.015625)"/>
      <path id="DejaVuSans-58" d="M 544 1381 
L 544 3500 
L 1119 3500 
L 1119 1403 
Q 1119 906 1312 657 
Q 1506 409 1894 409 
Q 2359 409 2629 706 
Q 2900 1003 2900 1516 
L 2900 3500 
L 3475 3500 
L 3475 0 
L 2900 0 
L 2900 538 
Q 2691 219 2414 64 
Q 2138 -91 1772 -91 
Q 1169 -91 856 284 
Q 544 659 544 1381 
z
M 1991 3584 
L 1991 3584 
z
" transform="scale(0.015625)"/>
      <path id="DejaVuSans-46" d="M 3122 3366 
L 3122 2828 
Q 2878 2963 2633 3030 
Q 2388 3097 2138 3097 
Q 1578 3097 1268 2742 
Q 959 2388 959 1747 
Q 959 1106 1268 751 
Q 1578 397 2138 397 
Q 2388 397 2633 464 
Q 2878 531 3122 666 
L 3122 134 
Q 2881 22 2623 -34 
Q 2366 -91 2075 -91 
Q 1284 -91 818 406 
Q 353 903 353 1747 
Q 353 2603 823 3093 
Q 1294 3584 2113 3584 
Q 2378 3584 2631 3529 
Q 2884 3475 3122 3366 
z
" transform="scale(0.015625)"/>
      <path id="DejaVuSans-4b" d="M 3513 2113 
L 3513 0 
L 2938 0 
L 2938 2094 
Q 2938 2591 2744 2837 
Q 2550 3084 2163 3084 
Q 1697 3084 1428 2787 
Q 1159 2491 1159 1978 
L 1159 0 
L 581 0 
L 581 4863 
L 1159 4863 
L 1159 2956 
Q 1366 3272 1645 3428 
Q 1925 3584 2291 3584 
Q 2894 3584 3203 3211 
Q 3513 2838 3513 2113 
z
" transform="scale(0.015625)"/>
      <path id="DejaVuSans-5c" d="M 2059 -325 
Q 1816 -950 1584 -1140 
Q 1353 -1331 966 -1331 
L 506 -1331 
L 506 -850 
L 844 -850 
Q 1081 -850 1212 -737 
Q 1344 -625 1503 -206 
L 1606 56 
L 191 3500 
L 800 3500 
L 1894 763 
L 2988 3500 
L 3597 3500 
L 2059 -325 
z
" transform="scale(0.015625)"/>
     </defs>
     <use xlink:href="#DejaVuSans-3a"/>
     <use xlink:href="#DejaVuSans-55" transform="translate(94.390625 0)"/>
     <use xlink:href="#DejaVuSans-44" transform="translate(135.5 0)"/>
     <use xlink:href="#DejaVuSans-53" transform="translate(196.78125 0)"/>
     <use xlink:href="#DejaVuSans-53" transform="translate(260.265625 0)"/>
     <use xlink:href="#DejaVuSans-48" transform="translate(323.75 0)"/>
     <use xlink:href="#DejaVuSans-47" transform="translate(385.28125 0)"/>
     <use xlink:href="#DejaVuSans-3" transform="translate(448.765625 0)"/>
     <use xlink:href="#DejaVuSans-26" transform="translate(480.546875 0)"/>
     <use xlink:href="#DejaVuSans-44" transform="translate(550.375 0)"/>
     <use xlink:href="#DejaVuSans-58" transform="translate(611.65625 0)"/>
     <use xlink:href="#DejaVuSans-46" transform="translate(675.03125 0)"/>
     <use xlink:href="#DejaVuSans-4b" transform="translate(730.015625 0)"/>
     <use xlink:href="#DejaVuSans-5c" transform="translate(793.390625 0)"/>
    </g>
   </g>
  </g>
 </g>
 <defs>
  <clipPath id="p808068e00d">
   <rect x="44.103906" y="23.558281" width="300.997656" height="161.4"/>
  </clipPath>
 </defs>
</svg>
